%TF.GenerationSoftware,KiCad,Pcbnew,10.0.6*%
%TF.CreationDate,2026-09-12T11:08:24+02:00*%
%TF.ProjectId,leaf-heat-v3,6c656166-2d68-4656-9174-2d76332e6b69,B*%
%TF.SameCoordinates,Original*%
%TF.FileFunction,Copper,L4,Bot*%
%TF.FilePolarity,Positive*%
%FSLAX46Y46*%
G04 Gerber Fmt 4.6, Leading zero omitted, Abs format (unit mm)*
G04 Created by KiCad (PCBNEW 10.0.6) date 2026-09-12 11:08:24*
%MOMM*%
%LPD*%
G01*
G04 APERTURE LIST*
%TA.AperFunction,ComponentPad*%
%ADD10R,1.700000X1.700000*%
%TD*%
%TA.AperFunction,ComponentPad*%
%ADD11C,1.700000*%
%TD*%
%TA.AperFunction,ComponentPad*%
%ADD12R,1.600000X1.600000*%
%TD*%
%TA.AperFunction,ComponentPad*%
%ADD13C,1.600000*%
%TD*%
%TA.AperFunction,ComponentPad*%
%ADD14C,4.000000*%
%TD*%
%TA.AperFunction,ComponentPad*%
%ADD15C,0.630000*%
%TD*%
%TA.AperFunction,SMDPad,CuDef*%
%ADD16R,2.600000X3.300000*%
%TD*%
%TA.AperFunction,HeatsinkPad*%
%ADD17C,0.650000*%
%TD*%
%TA.AperFunction,ViaPad*%
%ADD18C,0.650000*%
%TD*%
%TA.AperFunction,Conductor*%
%ADD19C,0.800000*%
%TD*%
%TA.AperFunction,Conductor*%
%ADD20C,0.250000*%
%TD*%
%TA.AperFunction,Conductor*%
%ADD21C,1.000000*%
%TD*%
G04 APERTURE END LIST*
D10*
%TO.P,J3,1*%
%TO.N,/GND*%
X52000000Y6000000D03*
D11*
%TO.P,J3,2*%
%TO.N,/PROG_RX*%
X54540000Y6000000D03*
%TO.P,J3,3*%
%TO.N,/PROG_TX*%
X57080000Y6000000D03*
%TD*%
D12*
%TO.P,J1,1*%
%TO.N,unconnected-(J1-Pad1)*%
X11000000Y11000000D03*
D13*
%TO.P,J1,2*%
%TO.N,/CAN_L*%
X13770000Y11000000D03*
%TO.P,J1,3*%
%TO.N,/GND*%
X16540000Y11000000D03*
%TO.P,J1,4*%
%TO.N,unconnected-(J1-Pad4)*%
X19310000Y11000000D03*
%TO.P,J1,5*%
%TO.N,unconnected-(J1-Pad5)*%
X22080000Y11000000D03*
%TO.P,J1,6*%
%TO.N,unconnected-(J1-Pad6)*%
X12385000Y8160000D03*
%TO.P,J1,7*%
%TO.N,/CAN_H*%
X15155000Y8160000D03*
%TO.P,J1,8*%
%TO.N,unconnected-(J1-Pad8)*%
X17925000Y8160000D03*
%TO.P,J1,9*%
%TO.N,/CAR_12V*%
X20695000Y8160000D03*
D14*
%TO.P,J1,SH*%
%TO.N,/GND*%
X4045001Y9580000D03*
X29035000Y9580000D03*
%TD*%
D15*
%TO.P,U1,9*%
%TO.N,/GND*%
X18350000Y39300000D03*
X18350000Y38000000D03*
X18350000Y36700000D03*
D16*
X19000000Y38000000D03*
D15*
X19650000Y39300000D03*
X19650000Y38000000D03*
X19650000Y36700000D03*
%TD*%
D17*
%TO.P,U2,19*%
%TO.N,/GND*%
X47860000Y42350000D03*
X47860000Y41250000D03*
X48410000Y42900000D03*
X48410000Y41800000D03*
X48410000Y40700000D03*
X48960000Y42350000D03*
X48960000Y41250000D03*
X49510000Y42900000D03*
X49510000Y41800000D03*
X49510000Y40700000D03*
X50060000Y42350000D03*
X50060000Y41250000D03*
%TD*%
D18*
%TO.N,/VPWR*%
X44262900Y24104300D03*
X8250000Y27850000D03*
X22500000Y28000000D03*
X8550000Y36525000D03*
X29549000Y23850000D03*
X58206100Y46684700D03*
%TO.N,/GND*%
X2000000Y18000000D03*
X55810000Y6900000D03*
X37000000Y18000000D03*
X37550000Y47800000D03*
X14500000Y15700000D03*
X26125000Y34500000D03*
X7000000Y43000000D03*
X60925000Y46025000D03*
X37000000Y23000000D03*
X55810000Y7800000D03*
X31799999Y40500000D03*
X49000000Y23000000D03*
X44000000Y48000000D03*
X60260660Y7740661D03*
X63000000Y3000000D03*
X7000000Y18000000D03*
X37000000Y28000000D03*
X16125000Y40755000D03*
X49000000Y33000000D03*
X44000000Y3000000D03*
X51525000Y13825000D03*
X32000000Y23000000D03*
X57300000Y2300000D03*
X37000000Y3000000D03*
X63525000Y42400000D03*
X44000000Y18000000D03*
X13600000Y41320000D03*
X37175000Y30000000D03*
X16335000Y26050000D03*
X32000000Y48000000D03*
X2000000Y13000000D03*
X60000000Y13000000D03*
X7000000Y13000000D03*
X8550000Y39475000D03*
X59200000Y7855001D03*
X2000000Y23000000D03*
X2000000Y33000000D03*
X32000000Y3000000D03*
X51739339Y7740661D03*
X7000000Y48000000D03*
X8250000Y32150000D03*
X55750000Y2300000D03*
X58000000Y4200000D03*
X2000000Y43000000D03*
X32000000Y13000000D03*
X32000000Y33000000D03*
X49000000Y48000000D03*
X37400000Y22100000D03*
X7000000Y33000000D03*
X37825000Y45500000D03*
X46425000Y10825000D03*
X37000000Y13000000D03*
X49625000Y7000000D03*
X31799999Y44500000D03*
X44000000Y43000000D03*
X56950000Y14775000D03*
X60000000Y18000000D03*
X49000000Y18000000D03*
X7000000Y28000000D03*
X27025000Y37000000D03*
X17300000Y41400000D03*
X49000000Y3000000D03*
X44000000Y28000000D03*
X63825000Y12500000D03*
X54000000Y3400000D03*
X37000000Y33000000D03*
X2000000Y48000000D03*
X52800000Y7855001D03*
X37825000Y40900000D03*
X26400000Y22100000D03*
X44000000Y33000000D03*
X63000000Y48000000D03*
X8975000Y19500000D03*
X2000000Y28000000D03*
X44000000Y13000000D03*
X7000000Y3000000D03*
X7000000Y23000000D03*
X2000000Y3000000D03*
X31799999Y36500000D03*
X49000000Y28000000D03*
X13990000Y28275000D03*
X49300000Y14650000D03*
X32000000Y18000000D03*
X49000000Y13000000D03*
%TO.N,/PROG_TX*%
X61000000Y39000000D03*
X57800000Y11137500D03*
%TO.N,/PROG_RX*%
X53800000Y11137500D03*
X61400000Y36400000D03*
%TO.N,/3V3*%
X34175000Y45500000D03*
X28849999Y44500000D03*
X15065000Y22900000D03*
X13795000Y21100000D03*
X34175000Y38500000D03*
X34175000Y36000000D03*
X40600000Y48000000D03*
X33449999Y47800000D03*
X12625000Y19500000D03*
X28849999Y40500000D03*
X13990000Y26725000D03*
X18674999Y21000000D03*
X28849999Y36500000D03*
X54700000Y13225000D03*
X60075000Y44175000D03*
X53675000Y33000000D03*
X34175000Y43200000D03*
%TO.N,/CAR_12V*%
X24000000Y14500000D03*
%TO.N,/STATUS_LED*%
X37685600Y39850000D03*
X32709200Y29773500D03*
%TO.N,/UART_RX*%
X58700000Y35600000D03*
X55325000Y33000000D03*
%TO.N,/ESP_EN*%
X36825000Y42025000D03*
X40400000Y46500000D03*
%TO.N,/CAN_TX*%
X41814800Y45393800D03*
X33010000Y27314500D03*
%TO.N,/CAN_RX*%
X37702200Y44450000D03*
X25207300Y30500000D03*
%TD*%
%TO.N,/VPWR*%
D19*
X44262900Y26648400D02*
X58206100Y40591600D01*
X44262900Y24104300D02*
X44262900Y26648400D01*
X29549000Y24338800D02*
X29549000Y23850000D01*
X58206100Y40591600D02*
X58206100Y46684700D01*
X27542800Y26345000D02*
X29549000Y24338800D01*
%TO.N,/PROG_TX*%
D20*
X63000000Y37000000D02*
X63000000Y18500000D01*
X57800000Y13300000D02*
X57800000Y11137500D01*
X63000000Y18500000D02*
X57800000Y13300000D01*
X61000000Y39000000D02*
X63000000Y37000000D01*
%TO.N,/PROG_RX*%
X61400000Y36400000D02*
X60500000Y35500000D01*
X53800000Y13300000D02*
X53800000Y11137500D01*
X60500000Y20000000D02*
X53800000Y13300000D01*
X60500000Y35500000D02*
X60500000Y20000000D01*
%TO.N,/CAR_12V*%
D21*
X20695000Y8160000D02*
X24000000Y8160000D01*
X24000000Y8160000D02*
X24000000Y14500000D01*
%TO.N,/STATUS_LED*%
D20*
X37685600Y39850000D02*
X37685600Y34749900D01*
X37685600Y34749900D02*
X32709200Y29773500D01*
%TO.N,/UART_RX*%
X58700000Y35600000D02*
X56100000Y33000000D01*
X56100000Y33000000D02*
X55325000Y33000000D01*
%TO.N,/ESP_EN*%
X40400000Y46500000D02*
X40400000Y42025000D01*
X40400000Y42025000D02*
X36825000Y42025000D01*
%TO.N,/CAN_TX*%
X41814800Y36119300D02*
X41814800Y45393800D01*
X33010000Y27314500D02*
X41814800Y36119300D01*
%TO.N,/CAN_RX*%
X25207300Y31932300D02*
X37702200Y44427200D01*
X37702200Y44427200D02*
X37702200Y44450000D01*
X25207300Y30500000D02*
X25207300Y31932300D01*
%TD*%
%TA.AperFunction,Conductor*%
%TO.N,/VPWR*%
G36*
X11978326Y37178326D02*
G01*
X12000000Y37126000D01*
X12000000Y31000000D01*
X24785478Y31000000D01*
X24837804Y30978326D01*
X24859478Y30926000D01*
X24837804Y30873674D01*
X24786795Y30822666D01*
X24717612Y30702837D01*
X24717610Y30702832D01*
X24681800Y30569186D01*
X24681800Y30430815D01*
X24717610Y30297169D01*
X24717612Y30297164D01*
X24786795Y30177335D01*
X24884635Y30079495D01*
X25004464Y30010312D01*
X25138114Y29974501D01*
X25138115Y29974500D01*
X25138117Y29974500D01*
X25276485Y29974500D01*
X25276485Y29974501D01*
X25410136Y30010312D01*
X25529965Y30079495D01*
X25627805Y30177335D01*
X25696988Y30297164D01*
X25732799Y30430815D01*
X25732800Y30430815D01*
X25732800Y30569185D01*
X25732799Y30569186D01*
X25696989Y30702832D01*
X25696988Y30702836D01*
X25627805Y30822665D01*
X25576796Y30873674D01*
X25555122Y30926000D01*
X25576796Y30978326D01*
X25629122Y31000000D01*
X28326000Y31000000D01*
X28378326Y30978326D01*
X28400000Y30926000D01*
X28400000Y25074000D01*
X28378326Y25021674D01*
X28326000Y25000000D01*
X7574000Y25000000D01*
X7521674Y25021674D01*
X7500000Y25074000D01*
X7500000Y26119186D01*
X15809500Y26119186D01*
X15809500Y25980815D01*
X15845310Y25847169D01*
X15845312Y25847164D01*
X15914495Y25727335D01*
X16012335Y25629495D01*
X16132164Y25560312D01*
X16265814Y25524501D01*
X16265815Y25524500D01*
X16265817Y25524500D01*
X16404185Y25524500D01*
X16404185Y25524501D01*
X16537836Y25560312D01*
X16657665Y25629495D01*
X16755505Y25727335D01*
X16824688Y25847164D01*
X16860499Y25980815D01*
X16860500Y25980815D01*
X16860500Y26119185D01*
X16860499Y26119186D01*
X16829383Y26235312D01*
X16824688Y26252836D01*
X16755505Y26372665D01*
X16657665Y26470505D01*
X16537836Y26539688D01*
X16537831Y26539690D01*
X16404185Y26575500D01*
X16404183Y26575500D01*
X16265817Y26575500D01*
X16265815Y26575500D01*
X16132168Y26539690D01*
X16132163Y26539688D01*
X16012334Y26470505D01*
X15914495Y26372666D01*
X15845312Y26252837D01*
X15845310Y26252832D01*
X15809500Y26119186D01*
X7500000Y26119186D01*
X7500000Y26794186D01*
X13464500Y26794186D01*
X13464500Y26655815D01*
X13500310Y26522169D01*
X13500312Y26522164D01*
X13569495Y26402335D01*
X13667335Y26304495D01*
X13787164Y26235312D01*
X13920814Y26199501D01*
X13920815Y26199500D01*
X13920817Y26199500D01*
X14059185Y26199500D01*
X14059185Y26199501D01*
X14192836Y26235312D01*
X14312665Y26304495D01*
X14410505Y26402335D01*
X14479688Y26522164D01*
X14515499Y26655815D01*
X14515500Y26655815D01*
X14515500Y26794185D01*
X14515499Y26794186D01*
X14479689Y26927832D01*
X14479688Y26927836D01*
X14410505Y27047665D01*
X14312665Y27145505D01*
X14192836Y27214688D01*
X14192831Y27214690D01*
X14059185Y27250500D01*
X14059183Y27250500D01*
X13920817Y27250500D01*
X13920815Y27250500D01*
X13787168Y27214690D01*
X13787163Y27214688D01*
X13667334Y27145505D01*
X13569495Y27047666D01*
X13500312Y26927837D01*
X13500310Y26927832D01*
X13464500Y26794186D01*
X7500000Y26794186D01*
X7500000Y27825909D01*
X7502522Y27845062D01*
X7525499Y27930815D01*
X7525500Y27930815D01*
X7525500Y28069183D01*
X7502521Y28154943D01*
X7500000Y28174095D01*
X7500000Y28344186D01*
X13464500Y28344186D01*
X13464500Y28205815D01*
X13500310Y28072169D01*
X13500312Y28072164D01*
X13569495Y27952335D01*
X13667335Y27854495D01*
X13787164Y27785312D01*
X13920814Y27749501D01*
X13920815Y27749500D01*
X13920817Y27749500D01*
X14059185Y27749500D01*
X14059185Y27749501D01*
X14192836Y27785312D01*
X14312665Y27854495D01*
X14410505Y27952335D01*
X14479688Y28072164D01*
X14515499Y28205815D01*
X14515500Y28205815D01*
X14515500Y28344185D01*
X14515499Y28344186D01*
X14479689Y28477832D01*
X14479688Y28477836D01*
X14410505Y28597665D01*
X14312665Y28695505D01*
X14192836Y28764688D01*
X14192831Y28764690D01*
X14059185Y28800500D01*
X14059183Y28800500D01*
X13920817Y28800500D01*
X13920815Y28800500D01*
X13787168Y28764690D01*
X13787163Y28764688D01*
X13667334Y28695505D01*
X13569495Y28597666D01*
X13500312Y28477837D01*
X13500310Y28477832D01*
X13464500Y28344186D01*
X7500000Y28344186D01*
X7500000Y32219186D01*
X7724500Y32219186D01*
X7724500Y32080815D01*
X7760310Y31947169D01*
X7760312Y31947164D01*
X7829495Y31827335D01*
X7927335Y31729495D01*
X8047164Y31660312D01*
X8180814Y31624501D01*
X8180815Y31624500D01*
X8180817Y31624500D01*
X8319185Y31624500D01*
X8319185Y31624501D01*
X8452836Y31660312D01*
X8572665Y31729495D01*
X8670505Y31827335D01*
X8739688Y31947164D01*
X8775499Y32080815D01*
X8775500Y32080815D01*
X8775500Y32219185D01*
X8775499Y32219186D01*
X8739689Y32352832D01*
X8739688Y32352836D01*
X8670505Y32472665D01*
X8572665Y32570505D01*
X8452836Y32639688D01*
X8452831Y32639690D01*
X8319185Y32675500D01*
X8319183Y32675500D01*
X8180817Y32675500D01*
X8180815Y32675500D01*
X8047168Y32639690D01*
X8047163Y32639688D01*
X7927334Y32570505D01*
X7829495Y32472666D01*
X7760312Y32352837D01*
X7760310Y32352832D01*
X7724500Y32219186D01*
X7500000Y32219186D01*
X7500000Y32825909D01*
X7502522Y32845062D01*
X7525499Y32930815D01*
X7525500Y32930815D01*
X7525500Y33069183D01*
X7502521Y33154943D01*
X7500000Y33174095D01*
X7500000Y37126000D01*
X7521674Y37178326D01*
X7574000Y37200000D01*
X11926000Y37200000D01*
X11978326Y37178326D01*
G37*
%TD.AperFunction*%
%TD*%
%TA.AperFunction,Conductor*%
%TO.N,/GND*%
G36*
X16386537Y26367478D02*
G01*
X16449108Y26350712D01*
X16466953Y26343322D01*
X16523051Y26310934D01*
X16538374Y26299176D01*
X16584174Y26253376D01*
X16595934Y26238050D01*
X16628320Y26181955D01*
X16635712Y26164109D01*
X16652478Y26101542D01*
X16655000Y26082388D01*
X16655000Y26017618D01*
X16652478Y25998464D01*
X16635711Y25935892D01*
X16628319Y25918047D01*
X16595934Y25861953D01*
X16584174Y25846626D01*
X16538374Y25800826D01*
X16523047Y25789066D01*
X16466950Y25756679D01*
X16449105Y25749287D01*
X16401878Y25736633D01*
X16386539Y25732522D01*
X16367387Y25730000D01*
X16302613Y25730000D01*
X16283461Y25732522D01*
X16260357Y25738713D01*
X16220892Y25749288D01*
X16203047Y25756680D01*
X16146951Y25789066D01*
X16131624Y25800826D01*
X16085824Y25846626D01*
X16074064Y25861952D01*
X16074063Y25861953D01*
X16041678Y25918047D01*
X16034287Y25935891D01*
X16017521Y25998464D01*
X16015000Y26017616D01*
X16015000Y26082387D01*
X16017521Y26101539D01*
X16034286Y26164109D01*
X16034287Y26164115D01*
X16041678Y26181955D01*
X16074067Y26238056D01*
X16085820Y26253373D01*
X16131627Y26299180D01*
X16146942Y26310932D01*
X16203046Y26343323D01*
X16220890Y26350713D01*
X16283462Y26367479D01*
X16302614Y26370000D01*
X16367384Y26370000D01*
X16386537Y26367478D01*
G37*
%TD.AperFunction*%
%TA.AperFunction,Conductor*%
G36*
X14041537Y28592478D02*
G01*
X14104108Y28575712D01*
X14121953Y28568322D01*
X14178051Y28535934D01*
X14193374Y28524176D01*
X14239174Y28478376D01*
X14250934Y28463050D01*
X14283320Y28406955D01*
X14290712Y28389109D01*
X14307478Y28326542D01*
X14310000Y28307388D01*
X14310000Y28242618D01*
X14307478Y28223464D01*
X14290711Y28160892D01*
X14283319Y28143047D01*
X14250934Y28086953D01*
X14239174Y28071626D01*
X14193374Y28025826D01*
X14178047Y28014066D01*
X14121950Y27981679D01*
X14104105Y27974287D01*
X14056878Y27961633D01*
X14041539Y27957522D01*
X14022387Y27955000D01*
X13957613Y27955000D01*
X13938461Y27957522D01*
X13915357Y27963713D01*
X13875892Y27974288D01*
X13858047Y27981680D01*
X13801951Y28014066D01*
X13786624Y28025826D01*
X13740824Y28071626D01*
X13729064Y28086952D01*
X13729063Y28086953D01*
X13696678Y28143047D01*
X13689287Y28160891D01*
X13672521Y28223464D01*
X13670000Y28242616D01*
X13670000Y28307387D01*
X13672521Y28326539D01*
X13689286Y28389109D01*
X13689287Y28389115D01*
X13696678Y28406955D01*
X13729067Y28463056D01*
X13740820Y28478373D01*
X13786627Y28524180D01*
X13801942Y28535932D01*
X13858046Y28568323D01*
X13875890Y28575713D01*
X13938462Y28592479D01*
X13957614Y28595000D01*
X14022384Y28595000D01*
X14041537Y28592478D01*
G37*
%TD.AperFunction*%
%TA.AperFunction,Conductor*%
G36*
X8301537Y32467478D02*
G01*
X8364108Y32450712D01*
X8381953Y32443322D01*
X8438051Y32410934D01*
X8453374Y32399176D01*
X8499174Y32353376D01*
X8510934Y32338050D01*
X8543320Y32281955D01*
X8550712Y32264109D01*
X8567478Y32201542D01*
X8570000Y32182388D01*
X8570000Y32117618D01*
X8567478Y32098464D01*
X8550711Y32035892D01*
X8543319Y32018047D01*
X8510934Y31961953D01*
X8499174Y31946626D01*
X8453374Y31900826D01*
X8438047Y31889066D01*
X8381950Y31856679D01*
X8364105Y31849287D01*
X8316878Y31836633D01*
X8301539Y31832522D01*
X8282387Y31830000D01*
X8217613Y31830000D01*
X8198461Y31832522D01*
X8175357Y31838713D01*
X8135892Y31849288D01*
X8118047Y31856680D01*
X8061951Y31889066D01*
X8046624Y31900826D01*
X8000824Y31946626D01*
X7989064Y31961952D01*
X7989063Y31961953D01*
X7956678Y32018047D01*
X7949287Y32035891D01*
X7932521Y32098464D01*
X7930000Y32117616D01*
X7930000Y32182387D01*
X7932521Y32201539D01*
X7949286Y32264109D01*
X7949287Y32264115D01*
X7956678Y32281955D01*
X7989067Y32338056D01*
X8000820Y32353373D01*
X8046627Y32399180D01*
X8061942Y32410932D01*
X8118046Y32443323D01*
X8135890Y32450713D01*
X8198462Y32467479D01*
X8217614Y32470000D01*
X8282384Y32470000D01*
X8301537Y32467478D01*
G37*
%TD.AperFunction*%
%TA.AperFunction,Conductor*%
G36*
X33939591Y49693871D02*
G01*
X33950003Y49689558D01*
X33990053Y49649515D01*
X33990056Y49649508D01*
X33994367Y49639100D01*
X34000000Y49610782D01*
X34000000Y49100000D01*
X62000000Y49100000D01*
X62000000Y49610782D01*
X62005629Y49639091D01*
X62009943Y49649506D01*
X62049982Y49689552D01*
X62060411Y49693872D01*
X62088719Y49699500D01*
X64610781Y49699500D01*
X64639091Y49693871D01*
X64649503Y49689558D01*
X64689553Y49649515D01*
X64689556Y49649508D01*
X64693867Y49639100D01*
X64699500Y49610782D01*
X64699500Y389219D01*
X64693867Y360901D01*
X64689556Y350493D01*
X64649508Y310445D01*
X64649507Y310444D01*
X64639099Y306133D01*
X64610781Y300500D01*
X389219Y300500D01*
X360904Y306132D01*
X350495Y310443D01*
X310446Y350487D01*
X306129Y360909D01*
X300500Y389219D01*
X300500Y4118094D01*
X37499500Y4118094D01*
X37499500Y3881908D01*
X37536447Y3648630D01*
X37536453Y3648606D01*
X37609424Y3424025D01*
X37610018Y3422542D01*
X37611309Y3420323D01*
X37716657Y3213567D01*
X37855483Y3022490D01*
X38022490Y2855483D01*
X38022493Y2855481D01*
X38022494Y2855480D01*
X38213567Y2716657D01*
X38213576Y2716652D01*
X38420163Y2611390D01*
X38421102Y2610841D01*
X38423299Y2609777D01*
X38424528Y2609167D01*
X38426767Y2608535D01*
X38646303Y2537203D01*
X38647867Y2536637D01*
X38648039Y2536586D01*
X38648477Y2536472D01*
X38648630Y2536448D01*
X38648632Y2536447D01*
X38804149Y2511816D01*
X38823589Y2508737D01*
X38881906Y2499500D01*
X39118093Y2499500D01*
X39118094Y2499500D01*
X39132672Y2501810D01*
X39176411Y2508737D01*
X39351368Y2536447D01*
X39351367Y2536447D01*
X39351507Y2536469D01*
X39352564Y2536793D01*
X39353242Y2536989D01*
X39354553Y2537482D01*
X39570742Y2607726D01*
X39571005Y2607791D01*
X39575678Y2609330D01*
X39575986Y2609430D01*
X39575986Y2609431D01*
X39575988Y2609432D01*
X39575992Y2609432D01*
X39575995Y2609434D01*
X39576036Y2609447D01*
X39586294Y2612781D01*
X39591812Y2617494D01*
X39786433Y2716657D01*
X39977510Y2855483D01*
X40144517Y3022490D01*
X40283343Y3213567D01*
X40390568Y3424008D01*
X40463553Y3648632D01*
X40500500Y3881908D01*
X40500500Y4118092D01*
X40463553Y4351368D01*
X40463552Y4351370D01*
X40463528Y4351523D01*
X40463414Y4351961D01*
X40463363Y4352133D01*
X40462795Y4353702D01*
X40391466Y4573229D01*
X40390833Y4575472D01*
X40390223Y4576701D01*
X40389159Y4578898D01*
X40388610Y4579837D01*
X40283348Y4786424D01*
X40283343Y4786433D01*
X40145400Y4976295D01*
X40144688Y4977318D01*
X40144576Y4977451D01*
X39977504Y5144523D01*
X39977476Y5144543D01*
X39977251Y5144706D01*
X39786432Y5283345D01*
X39575980Y5390574D01*
X39351394Y5463547D01*
X39351370Y5463553D01*
X39351367Y5463554D01*
X39351365Y5463554D01*
X39213369Y5485410D01*
X39118094Y5500500D01*
X39118093Y5500500D01*
X39118092Y5500500D01*
X38881908Y5500500D01*
X38881907Y5500500D01*
X38881906Y5500500D01*
X38648628Y5463553D01*
X38648604Y5463547D01*
X38424018Y5390574D01*
X38213566Y5283345D01*
X38022498Y5144525D01*
X37855475Y4977502D01*
X37716655Y4786434D01*
X37609426Y4575982D01*
X37536453Y4351396D01*
X37536447Y4351372D01*
X37499500Y4118094D01*
X300500Y4118094D01*
X300500Y6874623D01*
X50900000Y6874623D01*
X50900000Y6150000D01*
X51426701Y6150000D01*
X51479027Y6128326D01*
X51500701Y6076000D01*
X51500068Y6066340D01*
X51500000Y6065824D01*
X51500000Y5934177D01*
X51500068Y5933660D01*
X51500000Y5933407D01*
X51500000Y5929324D01*
X51498906Y5929324D01*
X51485410Y5878953D01*
X51436361Y5850633D01*
X51426701Y5850000D01*
X50900000Y5850000D01*
X50900000Y5125379D01*
X50914504Y5052456D01*
X50964710Y4977318D01*
X50969759Y4969761D01*
X50969760Y4969760D01*
X51052454Y4914506D01*
X51125378Y4900000D01*
X51850000Y4900000D01*
X51850000Y5426701D01*
X51871674Y5479027D01*
X51924000Y5500701D01*
X51933660Y5500068D01*
X51934172Y5500001D01*
X51934174Y5500000D01*
X52065824Y5500000D01*
X52065826Y5500000D01*
X52065827Y5500001D01*
X52066340Y5500068D01*
X52066594Y5500000D01*
X52070676Y5500000D01*
X52070676Y5498907D01*
X52121047Y5485410D01*
X52149367Y5436361D01*
X52150000Y5426701D01*
X52150000Y4900000D01*
X52874621Y4900000D01*
X52874622Y4900000D01*
X52947545Y4914506D01*
X53030239Y4969760D01*
X53030240Y4969761D01*
X53085494Y5052455D01*
X53100000Y5125378D01*
X53100000Y5850000D01*
X52573299Y5850000D01*
X52520973Y5871674D01*
X52499299Y5924000D01*
X52499932Y5933660D01*
X52500000Y5934177D01*
X52500000Y6065824D01*
X52499932Y6066340D01*
X52500000Y6066594D01*
X52500000Y6070676D01*
X52501094Y6070676D01*
X52509879Y6103465D01*
X53489500Y6103465D01*
X53489500Y5896536D01*
X53529868Y5693587D01*
X53529870Y5693580D01*
X53609059Y5502402D01*
X53683783Y5390568D01*
X53724023Y5330345D01*
X53870345Y5184023D01*
X54042402Y5069059D01*
X54233580Y4989870D01*
X54436535Y4949500D01*
X54436536Y4949500D01*
X54643464Y4949500D01*
X54643465Y4949500D01*
X54846420Y4989870D01*
X55037598Y5069059D01*
X55209655Y5184023D01*
X55355977Y5330345D01*
X55470941Y5502402D01*
X55550130Y5693580D01*
X55590500Y5896535D01*
X55590500Y6103465D01*
X56029500Y6103465D01*
X56029500Y5896536D01*
X56069868Y5693587D01*
X56069870Y5693580D01*
X56149059Y5502402D01*
X56223783Y5390568D01*
X56264023Y5330345D01*
X56410345Y5184023D01*
X56582402Y5069059D01*
X56773580Y4989870D01*
X56976535Y4949500D01*
X56976536Y4949500D01*
X57183464Y4949500D01*
X57183465Y4949500D01*
X57386420Y4989870D01*
X57577598Y5069059D01*
X57749655Y5184023D01*
X57895977Y5330345D01*
X58010941Y5502402D01*
X58090130Y5693580D01*
X58130500Y5896535D01*
X58130500Y6103465D01*
X58090130Y6306420D01*
X58010941Y6497598D01*
X57895977Y6669655D01*
X57749655Y6815977D01*
X57661884Y6874623D01*
X57577598Y6930941D01*
X57577595Y6930943D01*
X57577594Y6930943D01*
X57386420Y7010130D01*
X57386413Y7010132D01*
X57386408Y7010133D01*
X57386404Y7010134D01*
X57285313Y7030242D01*
X57233516Y7040545D01*
X57233515Y7040546D01*
X57183465Y7050500D01*
X56976535Y7050500D01*
X56936385Y7042514D01*
X56773599Y7010135D01*
X56773578Y7010130D01*
X56582400Y6930941D01*
X56410075Y6815798D01*
X56408699Y6814332D01*
X56265668Y6671301D01*
X56264202Y6669925D01*
X56149059Y6497600D01*
X56149059Y6497598D01*
X56069870Y6306421D01*
X56069868Y6306414D01*
X56029500Y6103465D01*
X55590500Y6103465D01*
X55550130Y6306420D01*
X55470941Y6497598D01*
X55355977Y6669655D01*
X55209655Y6815977D01*
X55121884Y6874623D01*
X55037598Y6930941D01*
X55037595Y6930943D01*
X55037594Y6930943D01*
X54846420Y7010130D01*
X54846413Y7010132D01*
X54846408Y7010133D01*
X54846404Y7010134D01*
X54745313Y7030242D01*
X54693516Y7040545D01*
X54693515Y7040546D01*
X54643465Y7050500D01*
X54436535Y7050500D01*
X54396385Y7042514D01*
X54233599Y7010135D01*
X54233578Y7010130D01*
X54042400Y6930941D01*
X53870075Y6815798D01*
X53868699Y6814332D01*
X53725668Y6671301D01*
X53724202Y6669925D01*
X53609059Y6497600D01*
X53609059Y6497598D01*
X53529870Y6306421D01*
X53529868Y6306414D01*
X53489500Y6103465D01*
X52509879Y6103465D01*
X52514590Y6121047D01*
X52563639Y6149367D01*
X52573299Y6150000D01*
X53100000Y6150000D01*
X53100000Y6874623D01*
X53085494Y6947546D01*
X53030240Y7030240D01*
X53030239Y7030241D01*
X53014817Y7040546D01*
X52947544Y7085496D01*
X52889126Y7097116D01*
X52874622Y7100000D01*
X52874621Y7100000D01*
X52150000Y7100000D01*
X52150000Y6573300D01*
X52128326Y6520974D01*
X52076000Y6499300D01*
X52066353Y6499931D01*
X52065828Y6500000D01*
X52065826Y6500000D01*
X51934174Y6500000D01*
X51934172Y6500000D01*
X51933647Y6499931D01*
X51933390Y6500000D01*
X51929324Y6500000D01*
X51929324Y6501091D01*
X51878942Y6514599D01*
X51850631Y6563653D01*
X51850000Y6573300D01*
X51850000Y7100000D01*
X51125378Y7100000D01*
X51052454Y7085496D01*
X50969760Y7030242D01*
X50969758Y7030240D01*
X50914504Y6947546D01*
X50900000Y6874623D01*
X300500Y6874623D01*
X300500Y8258541D01*
X11384500Y8258541D01*
X11384500Y8258540D01*
X11384500Y8061461D01*
X11394046Y8013469D01*
X11422946Y7868173D01*
X11422949Y7868162D01*
X11422951Y7868157D01*
X11498366Y7686089D01*
X11498367Y7686087D01*
X11498368Y7686086D01*
X11607861Y7522218D01*
X11747218Y7382861D01*
X11911086Y7273368D01*
X12093165Y7197949D01*
X12286459Y7159500D01*
X12286461Y7159500D01*
X12483539Y7159500D01*
X12483541Y7159500D01*
X12676835Y7197949D01*
X12858914Y7273368D01*
X13022782Y7382861D01*
X13162139Y7522218D01*
X13271632Y7686086D01*
X13347051Y7868165D01*
X13385500Y8061459D01*
X13385500Y8258541D01*
X14154500Y8258541D01*
X14154500Y8258540D01*
X14154500Y8061461D01*
X14164046Y8013469D01*
X14192946Y7868173D01*
X14192949Y7868162D01*
X14192951Y7868157D01*
X14268366Y7686089D01*
X14268367Y7686087D01*
X14268368Y7686086D01*
X14377861Y7522218D01*
X14517218Y7382861D01*
X14681086Y7273368D01*
X14863165Y7197949D01*
X15056459Y7159500D01*
X15056461Y7159500D01*
X15253539Y7159500D01*
X15253541Y7159500D01*
X15446835Y7197949D01*
X15628914Y7273368D01*
X15792782Y7382861D01*
X15932139Y7522218D01*
X16041632Y7686086D01*
X16117051Y7868165D01*
X16155500Y8061459D01*
X16155500Y8258541D01*
X16924500Y8258541D01*
X16924500Y8258540D01*
X16924500Y8061461D01*
X16934046Y8013469D01*
X16962946Y7868173D01*
X16962949Y7868162D01*
X16962951Y7868157D01*
X17038366Y7686089D01*
X17038367Y7686087D01*
X17038368Y7686086D01*
X17147861Y7522218D01*
X17287218Y7382861D01*
X17451086Y7273368D01*
X17633165Y7197949D01*
X17826459Y7159500D01*
X17826461Y7159500D01*
X18023539Y7159500D01*
X18023541Y7159500D01*
X18216835Y7197949D01*
X18398914Y7273368D01*
X18562782Y7382861D01*
X18702139Y7522218D01*
X18811632Y7686086D01*
X18887051Y7868165D01*
X18925500Y8061459D01*
X18925500Y8258541D01*
X19694500Y8258541D01*
X19694500Y8258540D01*
X19694500Y8061461D01*
X19704046Y8013469D01*
X19732946Y7868173D01*
X19732949Y7868162D01*
X19732951Y7868157D01*
X19808366Y7686089D01*
X19808367Y7686087D01*
X19808368Y7686086D01*
X19917861Y7522218D01*
X20057218Y7382861D01*
X20221086Y7273368D01*
X20403165Y7197949D01*
X20596459Y7159500D01*
X20596461Y7159500D01*
X20793539Y7159500D01*
X20793541Y7159500D01*
X20986835Y7197949D01*
X21168914Y7273368D01*
X21332782Y7382861D01*
X21377339Y7427418D01*
X21401345Y7443459D01*
X21426476Y7453869D01*
X21454792Y7459500D01*
X24068991Y7459500D01*
X24068993Y7459500D01*
X24204328Y7486420D01*
X24331811Y7539225D01*
X24446542Y7615886D01*
X24544114Y7713458D01*
X24620775Y7828189D01*
X24673580Y7955672D01*
X24700500Y8091007D01*
X24700500Y11206686D01*
X53274500Y11206686D01*
X53274500Y11068315D01*
X53310310Y10934669D01*
X53310312Y10934664D01*
X53379495Y10814835D01*
X53477335Y10716995D01*
X53597164Y10647812D01*
X53726133Y10613256D01*
X53729831Y10612000D01*
X53869185Y10612000D01*
X53879448Y10612000D01*
X53888336Y10617133D01*
X54002836Y10647812D01*
X54122665Y10716995D01*
X54220505Y10814835D01*
X54289688Y10934664D01*
X54320367Y11049164D01*
X54325500Y11058053D01*
X54325500Y11204246D01*
X54325500Y11206685D01*
X54325499Y11206686D01*
X57274500Y11206686D01*
X57274500Y11068315D01*
X57310310Y10934669D01*
X57310312Y10934664D01*
X57379495Y10814835D01*
X57477335Y10716995D01*
X57597164Y10647812D01*
X57726133Y10613256D01*
X57729831Y10612000D01*
X57869185Y10612000D01*
X57879448Y10612000D01*
X57888336Y10617133D01*
X58002836Y10647812D01*
X58122665Y10716995D01*
X58220505Y10814835D01*
X58289688Y10934664D01*
X58320367Y11049164D01*
X58325500Y11058053D01*
X58325500Y11207670D01*
X58324244Y11211367D01*
X58289838Y11339774D01*
X58289701Y11340303D01*
X58289689Y11340334D01*
X58289687Y11340337D01*
X58220505Y11460165D01*
X58157581Y11523089D01*
X58141541Y11547095D01*
X58131131Y11572227D01*
X58125500Y11600541D01*
X58125500Y13119805D01*
X58131132Y13148121D01*
X58134319Y13155815D01*
X58141540Y13173251D01*
X58157577Y13197253D01*
X63199859Y18239534D01*
X63199862Y18239535D01*
X63260465Y18300138D01*
X63303318Y18374362D01*
X63320368Y18437996D01*
X63325501Y18446885D01*
X63325501Y18548372D01*
X63325500Y18548446D01*
X63325500Y37042853D01*
X63303318Y37125638D01*
X63303318Y37125639D01*
X63261553Y37197978D01*
X63260680Y37199601D01*
X63260545Y37199782D01*
X61557581Y38902746D01*
X61541541Y38926752D01*
X61531131Y38951884D01*
X61525500Y38980198D01*
X61525500Y39070170D01*
X61524244Y39073867D01*
X61489838Y39202274D01*
X61489701Y39202803D01*
X61489689Y39202834D01*
X61420504Y39322666D01*
X61322665Y39420505D01*
X61202836Y39489688D01*
X61202831Y39489690D01*
X61069185Y39525500D01*
X61069184Y39525500D01*
X60930816Y39525500D01*
X60930815Y39525500D01*
X60797168Y39489690D01*
X60797166Y39489690D01*
X60797165Y39489689D01*
X60677333Y39420505D01*
X60579495Y39322667D01*
X60510311Y39202836D01*
X60510310Y39202832D01*
X60474500Y39069186D01*
X60474500Y38930815D01*
X60510310Y38797169D01*
X60510312Y38797164D01*
X60579495Y38677335D01*
X60677335Y38579495D01*
X60797164Y38510312D01*
X60926133Y38475756D01*
X60929831Y38474500D01*
X60930815Y38474500D01*
X60930817Y38474500D01*
X61019802Y38474500D01*
X61048116Y38468869D01*
X61073248Y38458459D01*
X61097254Y38442419D01*
X62642418Y36897255D01*
X62658457Y36873252D01*
X62668868Y36848118D01*
X62674500Y36819803D01*
X62674500Y18680198D01*
X62668867Y18651882D01*
X62658459Y18626752D01*
X62642418Y18602746D01*
X57539532Y13499860D01*
X57493434Y13420017D01*
X57492871Y13411420D01*
X57474500Y13342855D01*
X57474500Y11600541D01*
X57468867Y11572225D01*
X57458460Y11547098D01*
X57458459Y11547095D01*
X57442418Y11523089D01*
X57379497Y11460169D01*
X57379493Y11460164D01*
X57310311Y11340336D01*
X57310310Y11340332D01*
X57274500Y11206686D01*
X54325499Y11206686D01*
X54289838Y11339774D01*
X54289701Y11340303D01*
X54289689Y11340334D01*
X54289687Y11340337D01*
X54220505Y11460165D01*
X54157581Y11523089D01*
X54141541Y11547095D01*
X54131131Y11572227D01*
X54125500Y11600541D01*
X54125500Y12878173D01*
X54131131Y12906487D01*
X54134181Y12913851D01*
X54174228Y12953898D01*
X54230858Y12953902D01*
X54232436Y12953249D01*
X54268211Y12921879D01*
X54279492Y12902339D01*
X54279493Y12902338D01*
X54279495Y12902335D01*
X54377335Y12804495D01*
X54497164Y12735312D01*
X54626133Y12700756D01*
X54629831Y12699500D01*
X54769185Y12699500D01*
X54779448Y12699500D01*
X54788336Y12704633D01*
X54902836Y12735312D01*
X55022665Y12804495D01*
X55120505Y12902335D01*
X55189688Y13022164D01*
X55220367Y13136664D01*
X55225500Y13145553D01*
X55225500Y13295170D01*
X55224244Y13298867D01*
X55189838Y13427274D01*
X55189701Y13427803D01*
X55189689Y13427834D01*
X55189688Y13427836D01*
X55120505Y13547665D01*
X55022665Y13645505D01*
X54902836Y13714688D01*
X54902833Y13714690D01*
X54902830Y13714691D01*
X54902831Y13714691D01*
X54861181Y13725851D01*
X54835287Y13738620D01*
X54826348Y13745479D01*
X54798029Y13794527D01*
X54797915Y13795397D01*
X54807197Y13842047D01*
X54808919Y13845029D01*
X54820673Y13860348D01*
X60760465Y19800138D01*
X60803318Y19874361D01*
X60825500Y19957147D01*
X60825500Y20042853D01*
X60825500Y35319803D01*
X60831131Y35348117D01*
X60841542Y35373252D01*
X60857578Y35397252D01*
X61302748Y35842422D01*
X61326751Y35858459D01*
X61351882Y35868869D01*
X61380198Y35874500D01*
X61479448Y35874500D01*
X61488336Y35879633D01*
X61602836Y35910312D01*
X61722665Y35979495D01*
X61820505Y36077335D01*
X61889688Y36197164D01*
X61920367Y36311664D01*
X61925500Y36320553D01*
X61925500Y36470168D01*
X61924247Y36473858D01*
X61892006Y36594183D01*
X61889688Y36602836D01*
X61820505Y36722665D01*
X61722665Y36820505D01*
X61602836Y36889688D01*
X61602831Y36889690D01*
X61469185Y36925500D01*
X61469184Y36925500D01*
X61330816Y36925500D01*
X61330815Y36925500D01*
X61197168Y36889690D01*
X61197166Y36889690D01*
X61197165Y36889689D01*
X61077333Y36820505D01*
X60979495Y36722667D01*
X60910311Y36602836D01*
X60907992Y36594182D01*
X60875758Y36473879D01*
X60874500Y36469185D01*
X60874500Y36380198D01*
X60868867Y36351882D01*
X60860142Y36330815D01*
X60858459Y36326752D01*
X60842418Y36302746D01*
X60239532Y35699860D01*
X60193434Y35620017D01*
X60192871Y35611420D01*
X60174500Y35542855D01*
X60174500Y20180198D01*
X60168867Y20151882D01*
X60158459Y20126752D01*
X60142418Y20102746D01*
X53539532Y13499860D01*
X53493434Y13420017D01*
X53492871Y13411420D01*
X53474500Y13342855D01*
X53474500Y11600541D01*
X53468867Y11572225D01*
X53458460Y11547098D01*
X53458459Y11547095D01*
X53442418Y11523089D01*
X53379497Y11460169D01*
X53379493Y11460164D01*
X53310311Y11340336D01*
X53310310Y11340332D01*
X53274500Y11206686D01*
X24700500Y11206686D01*
X24700500Y14568993D01*
X24673580Y14704328D01*
X24620775Y14831811D01*
X24544114Y14946542D01*
X24446542Y15044114D01*
X24446536Y15044118D01*
X24332905Y15120044D01*
X24331956Y15120703D01*
X24331808Y15120777D01*
X24331794Y15120783D01*
X24204336Y15173578D01*
X24204331Y15173580D01*
X24204318Y15173584D01*
X24204319Y15173584D01*
X24113694Y15191609D01*
X24113694Y15191610D01*
X24068993Y15200500D01*
X23931007Y15200500D01*
X23892642Y15192869D01*
X23795678Y15173583D01*
X23795668Y15173580D01*
X23795662Y15173578D01*
X23668191Y15120778D01*
X23553461Y15044118D01*
X23553460Y15044116D01*
X23455884Y14946540D01*
X23455882Y14946539D01*
X23379222Y14831809D01*
X23326422Y14704338D01*
X23326420Y14704332D01*
X23326417Y14704322D01*
X23299500Y14568992D01*
X23299500Y8949219D01*
X23293867Y8920901D01*
X23289556Y8910493D01*
X23249508Y8870445D01*
X23249507Y8870444D01*
X23239099Y8866133D01*
X23210781Y8860500D01*
X21454792Y8860500D01*
X21426474Y8866133D01*
X21401345Y8876542D01*
X21377339Y8892582D01*
X21332780Y8937141D01*
X21168912Y9046634D01*
X20986843Y9122049D01*
X20986838Y9122051D01*
X20986825Y9122055D01*
X20986826Y9122055D01*
X20857388Y9147800D01*
X20857387Y9147801D01*
X20806240Y9157975D01*
X20793541Y9160500D01*
X20793540Y9160500D01*
X20596459Y9160500D01*
X20541662Y9149602D01*
X20541662Y9149601D01*
X20514115Y9144122D01*
X20403171Y9122054D01*
X20403161Y9122051D01*
X20403155Y9122049D01*
X20221086Y9046634D01*
X20056948Y8936961D01*
X20055567Y8935489D01*
X19919511Y8799433D01*
X19918039Y8798052D01*
X19808366Y8633914D01*
X19732951Y8451845D01*
X19732949Y8451839D01*
X19732946Y8451829D01*
X19694500Y8258541D01*
X18925500Y8258541D01*
X18887051Y8451835D01*
X18811632Y8633914D01*
X18702139Y8797782D01*
X18562782Y8937139D01*
X18562779Y8937141D01*
X18441624Y9018094D01*
X18434415Y9028882D01*
X18398915Y9046632D01*
X18398910Y9046634D01*
X18398899Y9046639D01*
X18216843Y9122049D01*
X18216838Y9122051D01*
X18216825Y9122055D01*
X18216826Y9122055D01*
X18087388Y9147800D01*
X18087387Y9147801D01*
X18036240Y9157975D01*
X18023541Y9160500D01*
X18023540Y9160500D01*
X17826459Y9160500D01*
X17771662Y9149602D01*
X17771662Y9149601D01*
X17744115Y9144122D01*
X17633171Y9122054D01*
X17633161Y9122051D01*
X17633155Y9122049D01*
X17451086Y9046634D01*
X17286948Y8936961D01*
X17285567Y8935489D01*
X17149511Y8799433D01*
X17148039Y8798052D01*
X17038366Y8633914D01*
X16962951Y8451845D01*
X16962949Y8451839D01*
X16962946Y8451829D01*
X16924500Y8258541D01*
X16155500Y8258541D01*
X16117051Y8451835D01*
X16041632Y8633914D01*
X15932139Y8797782D01*
X15792782Y8937139D01*
X15792779Y8937141D01*
X15671624Y9018094D01*
X15664415Y9028882D01*
X15628915Y9046632D01*
X15628910Y9046634D01*
X15628899Y9046639D01*
X15446843Y9122049D01*
X15446838Y9122051D01*
X15446825Y9122055D01*
X15446826Y9122055D01*
X15317388Y9147800D01*
X15317387Y9147801D01*
X15266240Y9157975D01*
X15253541Y9160500D01*
X15253540Y9160500D01*
X15056459Y9160500D01*
X15001662Y9149602D01*
X15001662Y9149601D01*
X14974115Y9144122D01*
X14863171Y9122054D01*
X14863161Y9122051D01*
X14863155Y9122049D01*
X14681086Y9046634D01*
X14516948Y8936961D01*
X14515567Y8935489D01*
X14379511Y8799433D01*
X14378039Y8798052D01*
X14268366Y8633914D01*
X14192951Y8451845D01*
X14192949Y8451839D01*
X14192946Y8451829D01*
X14154500Y8258541D01*
X13385500Y8258541D01*
X13347051Y8451835D01*
X13271632Y8633914D01*
X13162139Y8797782D01*
X13022782Y8937139D01*
X13022779Y8937141D01*
X12901624Y9018094D01*
X12894415Y9028882D01*
X12858915Y9046632D01*
X12858910Y9046634D01*
X12858899Y9046639D01*
X12676843Y9122049D01*
X12676838Y9122051D01*
X12676825Y9122055D01*
X12676826Y9122055D01*
X12547388Y9147800D01*
X12547387Y9147801D01*
X12496240Y9157975D01*
X12483541Y9160500D01*
X12483540Y9160500D01*
X12286459Y9160500D01*
X12231662Y9149602D01*
X12231662Y9149601D01*
X12204115Y9144122D01*
X12093171Y9122054D01*
X12093161Y9122051D01*
X12093155Y9122049D01*
X11911086Y9046634D01*
X11746948Y8936961D01*
X11745567Y8935489D01*
X11609511Y8799433D01*
X11608039Y8798052D01*
X11498366Y8633914D01*
X11422951Y8451845D01*
X11422949Y8451839D01*
X11422946Y8451829D01*
X11384500Y8258541D01*
X300500Y8258541D01*
X300500Y11819747D01*
X9999500Y11819747D01*
X9999500Y10180254D01*
X10002388Y10165734D01*
X10011132Y10121770D01*
X10016745Y10113369D01*
X10016746Y10113368D01*
X10055446Y10055450D01*
X10055448Y10055448D01*
X10099558Y10025975D01*
X10099559Y10025973D01*
X10115710Y10015181D01*
X10118539Y10012860D01*
X10118562Y10012847D01*
X10121698Y10010967D01*
X10125258Y10010075D01*
X10125273Y10010071D01*
X10128910Y10009712D01*
X10180252Y9999500D01*
X10180254Y9999500D01*
X11819746Y9999500D01*
X11819748Y9999500D01*
X11878231Y10011133D01*
X11878232Y10011134D01*
X11944552Y10055448D01*
X11988867Y10121769D01*
X12000500Y10180252D01*
X12000500Y11098541D01*
X12769500Y11098541D01*
X12769500Y11098540D01*
X12769500Y10901461D01*
X12779046Y10853469D01*
X12807946Y10708173D01*
X12807949Y10708162D01*
X12807951Y10708157D01*
X12883366Y10526088D01*
X12883368Y10526086D01*
X12992860Y10362219D01*
X13132218Y10222861D01*
X13296086Y10113368D01*
X13296091Y10113366D01*
X13296090Y10113366D01*
X13435913Y10055450D01*
X13478165Y10037949D01*
X13671459Y9999500D01*
X13671461Y9999500D01*
X13868539Y9999500D01*
X13868541Y9999500D01*
X14061835Y10037949D01*
X14243914Y10113368D01*
X14407782Y10222861D01*
X14547139Y10362218D01*
X14656632Y10526086D01*
X14732051Y10708165D01*
X14770500Y10901459D01*
X14770500Y11098541D01*
X18309500Y11098541D01*
X18309500Y11098540D01*
X18309500Y10901461D01*
X18319046Y10853469D01*
X18347946Y10708173D01*
X18347949Y10708162D01*
X18347951Y10708157D01*
X18423366Y10526088D01*
X18423368Y10526086D01*
X18532860Y10362219D01*
X18672218Y10222861D01*
X18836086Y10113368D01*
X18836091Y10113366D01*
X18836090Y10113366D01*
X18975913Y10055450D01*
X19018165Y10037949D01*
X19211459Y9999500D01*
X19211461Y9999500D01*
X19408539Y9999500D01*
X19408541Y9999500D01*
X19601835Y10037949D01*
X19783914Y10113368D01*
X19947782Y10222861D01*
X20087139Y10362218D01*
X20196632Y10526086D01*
X20272051Y10708165D01*
X20310500Y10901459D01*
X20310500Y11098541D01*
X21079500Y11098541D01*
X21079500Y11098540D01*
X21079500Y10901461D01*
X21089046Y10853469D01*
X21117946Y10708173D01*
X21117949Y10708162D01*
X21117951Y10708157D01*
X21193366Y10526088D01*
X21193368Y10526086D01*
X21302860Y10362219D01*
X21442218Y10222861D01*
X21606086Y10113368D01*
X21606091Y10113366D01*
X21606090Y10113366D01*
X21745913Y10055450D01*
X21788165Y10037949D01*
X21981459Y9999500D01*
X21981461Y9999500D01*
X22178539Y9999500D01*
X22178541Y9999500D01*
X22371835Y10037949D01*
X22553914Y10113368D01*
X22717782Y10222861D01*
X22857139Y10362218D01*
X22966632Y10526086D01*
X23042051Y10708165D01*
X23080500Y10901459D01*
X23080500Y11098541D01*
X23042051Y11291835D01*
X22966632Y11473914D01*
X22857139Y11637782D01*
X22717782Y11777139D01*
X22717778Y11777142D01*
X22717776Y11777144D01*
X22654014Y11819748D01*
X22553912Y11886634D01*
X22371843Y11962049D01*
X22371838Y11962051D01*
X22371827Y11962054D01*
X22237023Y11988867D01*
X22233328Y11989602D01*
X22178541Y12000500D01*
X22178539Y12000500D01*
X21981459Y12000500D01*
X21926662Y11989602D01*
X21926662Y11989601D01*
X21899429Y11984184D01*
X21788171Y11962054D01*
X21788161Y11962051D01*
X21788155Y11962049D01*
X21606086Y11886634D01*
X21441948Y11776961D01*
X21440567Y11775489D01*
X21304511Y11639433D01*
X21303039Y11638052D01*
X21193366Y11473914D01*
X21117951Y11291845D01*
X21117949Y11291839D01*
X21117946Y11291829D01*
X21079500Y11098541D01*
X20310500Y11098541D01*
X20272051Y11291835D01*
X20196632Y11473914D01*
X20087139Y11637782D01*
X19947782Y11777139D01*
X19947778Y11777142D01*
X19947776Y11777144D01*
X19884014Y11819748D01*
X19783912Y11886634D01*
X19601843Y11962049D01*
X19601838Y11962051D01*
X19601827Y11962054D01*
X19467023Y11988867D01*
X19463328Y11989602D01*
X19408541Y12000500D01*
X19408539Y12000500D01*
X19211459Y12000500D01*
X19156662Y11989602D01*
X19156662Y11989601D01*
X19129429Y11984184D01*
X19018171Y11962054D01*
X19018161Y11962051D01*
X19018155Y11962049D01*
X18836086Y11886634D01*
X18671948Y11776961D01*
X18670567Y11775489D01*
X18534511Y11639433D01*
X18533039Y11638052D01*
X18423366Y11473914D01*
X18347951Y11291845D01*
X18347949Y11291839D01*
X18347946Y11291829D01*
X18309500Y11098541D01*
X14770500Y11098541D01*
X14732051Y11291835D01*
X14656632Y11473914D01*
X14547139Y11637782D01*
X14407782Y11777139D01*
X14407778Y11777142D01*
X14407776Y11777144D01*
X14344014Y11819748D01*
X14243912Y11886634D01*
X14061843Y11962049D01*
X14061838Y11962051D01*
X14061827Y11962054D01*
X13927023Y11988867D01*
X13923328Y11989602D01*
X13868541Y12000500D01*
X13868539Y12000500D01*
X13671459Y12000500D01*
X13616662Y11989602D01*
X13616662Y11989601D01*
X13589429Y11984184D01*
X13478171Y11962054D01*
X13478161Y11962051D01*
X13478155Y11962049D01*
X13296086Y11886634D01*
X13131948Y11776961D01*
X13130567Y11775489D01*
X12994511Y11639433D01*
X12993039Y11638052D01*
X12883366Y11473914D01*
X12807951Y11291845D01*
X12807949Y11291839D01*
X12807946Y11291829D01*
X12769500Y11098541D01*
X12000500Y11098541D01*
X12000500Y11819748D01*
X11988867Y11878231D01*
X11944552Y11944552D01*
X11918360Y11962053D01*
X11918357Y11962058D01*
X11918356Y11962056D01*
X11915106Y11964228D01*
X11901774Y11984184D01*
X11878232Y11988867D01*
X11878233Y11988867D01*
X11848989Y11994684D01*
X11848988Y11994685D01*
X11819748Y12000500D01*
X10180252Y12000500D01*
X10151010Y11994685D01*
X10151010Y11994684D01*
X10143749Y11993240D01*
X10121769Y11988868D01*
X10121766Y11988867D01*
X10055451Y11944555D01*
X10055448Y11944553D01*
X10011133Y11878234D01*
X10011133Y11878231D01*
X9999500Y11819747D01*
X300500Y11819747D01*
X300500Y18118094D01*
X44499500Y18118094D01*
X44499500Y17881908D01*
X44536447Y17648630D01*
X44536453Y17648606D01*
X44609424Y17424025D01*
X44610018Y17422542D01*
X44611309Y17420323D01*
X44716657Y17213567D01*
X44855483Y17022490D01*
X45022490Y16855483D01*
X45022493Y16855481D01*
X45022494Y16855480D01*
X45213567Y16716657D01*
X45213576Y16716652D01*
X45420163Y16611390D01*
X45421102Y16610841D01*
X45423299Y16609777D01*
X45424528Y16609167D01*
X45426767Y16608535D01*
X45646303Y16537203D01*
X45647867Y16536637D01*
X45648039Y16536586D01*
X45648477Y16536472D01*
X45648630Y16536448D01*
X45648632Y16536447D01*
X45804149Y16511816D01*
X45823589Y16508737D01*
X45881906Y16499500D01*
X46118093Y16499500D01*
X46118094Y16499500D01*
X46132672Y16501810D01*
X46176411Y16508737D01*
X46351368Y16536447D01*
X46351367Y16536447D01*
X46351507Y16536469D01*
X46352564Y16536793D01*
X46353242Y16536989D01*
X46354553Y16537482D01*
X46570742Y16607726D01*
X46571005Y16607791D01*
X46575678Y16609330D01*
X46575986Y16609430D01*
X46575986Y16609431D01*
X46575988Y16609432D01*
X46575992Y16609432D01*
X46575995Y16609434D01*
X46576036Y16609447D01*
X46586294Y16612781D01*
X46591812Y16617494D01*
X46786433Y16716657D01*
X46977510Y16855483D01*
X47144517Y17022490D01*
X47283343Y17213567D01*
X47390568Y17424008D01*
X47463553Y17648632D01*
X47500500Y17881908D01*
X47500500Y18118092D01*
X47463553Y18351368D01*
X47463552Y18351370D01*
X47463528Y18351523D01*
X47463414Y18351961D01*
X47463363Y18352133D01*
X47462795Y18353702D01*
X47399858Y18547400D01*
X47391465Y18573233D01*
X47390833Y18575472D01*
X47390223Y18576701D01*
X47389159Y18578898D01*
X47388610Y18579837D01*
X47283348Y18786424D01*
X47283343Y18786433D01*
X47144520Y18977506D01*
X47144519Y18977507D01*
X47144517Y18977510D01*
X46977510Y19144517D01*
X46977507Y19144520D01*
X46977504Y19144523D01*
X46977476Y19144543D01*
X46977251Y19144706D01*
X46786432Y19283345D01*
X46575980Y19390574D01*
X46351394Y19463547D01*
X46351370Y19463553D01*
X46351367Y19463554D01*
X46351365Y19463554D01*
X46218910Y19484533D01*
X46118094Y19500500D01*
X46118093Y19500500D01*
X46118092Y19500500D01*
X45881908Y19500500D01*
X45881907Y19500500D01*
X45881906Y19500500D01*
X45648628Y19463553D01*
X45648604Y19463547D01*
X45424018Y19390574D01*
X45213566Y19283345D01*
X45022498Y19144525D01*
X44855475Y18977502D01*
X44716655Y18786434D01*
X44609426Y18575982D01*
X44536453Y18351396D01*
X44536447Y18351372D01*
X44499500Y18118094D01*
X300500Y18118094D01*
X300500Y19569186D01*
X12099500Y19569186D01*
X12099500Y19430815D01*
X12135310Y19297169D01*
X12135312Y19297164D01*
X12204495Y19177335D01*
X12302335Y19079495D01*
X12422164Y19010312D01*
X12551133Y18975756D01*
X12554831Y18974500D01*
X12694185Y18974500D01*
X12704448Y18974500D01*
X12713336Y18979633D01*
X12827836Y19010312D01*
X12947665Y19079495D01*
X13045505Y19177335D01*
X13114688Y19297164D01*
X13145367Y19411664D01*
X13150500Y19420553D01*
X13150500Y19570170D01*
X13149244Y19573867D01*
X13114838Y19702274D01*
X13114701Y19702803D01*
X13114689Y19702834D01*
X13058511Y19800138D01*
X13045505Y19822665D01*
X12947665Y19920505D01*
X12827836Y19989688D01*
X12827831Y19989690D01*
X12694185Y20025500D01*
X12694184Y20025500D01*
X12555816Y20025500D01*
X12555815Y20025500D01*
X12422168Y19989690D01*
X12422166Y19989690D01*
X12422165Y19989689D01*
X12302333Y19920505D01*
X12204495Y19822667D01*
X12135311Y19702836D01*
X12135310Y19702832D01*
X12099500Y19569186D01*
X300500Y19569186D01*
X300500Y21169186D01*
X13269500Y21169186D01*
X13269500Y21030815D01*
X13305310Y20897169D01*
X13305312Y20897164D01*
X13374495Y20777335D01*
X13472335Y20679495D01*
X13592164Y20610312D01*
X13721133Y20575756D01*
X13724831Y20574500D01*
X13864185Y20574500D01*
X13874448Y20574500D01*
X13883336Y20579633D01*
X13997836Y20610312D01*
X14117665Y20679495D01*
X14215505Y20777335D01*
X14284688Y20897164D01*
X14320499Y21030815D01*
X14320500Y21030815D01*
X14320500Y21069186D01*
X18149499Y21069186D01*
X18149499Y20930815D01*
X18185309Y20797169D01*
X18185311Y20797164D01*
X18254494Y20677335D01*
X18352334Y20579495D01*
X18472163Y20510312D01*
X18601132Y20475756D01*
X18604830Y20474500D01*
X18744184Y20474500D01*
X18754447Y20474500D01*
X18763335Y20479633D01*
X18877835Y20510312D01*
X18997664Y20579495D01*
X19095504Y20677335D01*
X19164687Y20797164D01*
X19195366Y20911664D01*
X19200499Y20920553D01*
X19200499Y21070170D01*
X19199243Y21073867D01*
X19164837Y21202274D01*
X19164700Y21202803D01*
X19164688Y21202834D01*
X19106971Y21302803D01*
X19095504Y21322665D01*
X18997664Y21420505D01*
X18877835Y21489688D01*
X18877830Y21489690D01*
X18744184Y21525500D01*
X18744183Y21525500D01*
X18605815Y21525500D01*
X18605814Y21525500D01*
X18472167Y21489690D01*
X18472165Y21489690D01*
X18472164Y21489689D01*
X18352332Y21420505D01*
X18254494Y21322667D01*
X18185310Y21202836D01*
X18185309Y21202832D01*
X18149499Y21069186D01*
X14320500Y21069186D01*
X14320500Y21169185D01*
X14320500Y21170170D01*
X14319244Y21173867D01*
X14284838Y21302274D01*
X14284701Y21302803D01*
X14284689Y21302834D01*
X14273239Y21322666D01*
X14215505Y21422665D01*
X14117665Y21520505D01*
X13997836Y21589688D01*
X13997831Y21589690D01*
X13864185Y21625500D01*
X13864184Y21625500D01*
X13725816Y21625500D01*
X13725815Y21625500D01*
X13592168Y21589690D01*
X13592166Y21589690D01*
X13592165Y21589689D01*
X13472333Y21520505D01*
X13374495Y21422667D01*
X13305311Y21302836D01*
X13305310Y21302832D01*
X13269500Y21169186D01*
X300500Y21169186D01*
X300500Y22969186D01*
X14539500Y22969186D01*
X14539500Y22830815D01*
X14575310Y22697169D01*
X14575312Y22697164D01*
X14644495Y22577335D01*
X14742335Y22479495D01*
X14862164Y22410312D01*
X14991133Y22375756D01*
X14994831Y22374500D01*
X15134185Y22374500D01*
X15144448Y22374500D01*
X15153336Y22379633D01*
X15267836Y22410312D01*
X15387665Y22479495D01*
X15485505Y22577335D01*
X15554688Y22697164D01*
X15585367Y22811664D01*
X15590500Y22820553D01*
X15590500Y22970170D01*
X15589244Y22973867D01*
X15554838Y23102274D01*
X15554701Y23102803D01*
X15554689Y23102834D01*
X15485504Y23222666D01*
X15387665Y23320505D01*
X15267834Y23389689D01*
X15267832Y23389690D01*
X15267831Y23389690D01*
X15134185Y23425500D01*
X15134184Y23425500D01*
X14995816Y23425500D01*
X14995815Y23425500D01*
X14862168Y23389690D01*
X14862166Y23389690D01*
X14862165Y23389689D01*
X14742333Y23320505D01*
X14644495Y23222667D01*
X14575311Y23102836D01*
X14575310Y23102832D01*
X14539500Y22969186D01*
X300500Y22969186D01*
X300500Y37125999D01*
X7294500Y37125999D01*
X7294500Y33174102D01*
X7294501Y33174069D01*
X7296257Y33147277D01*
X7298777Y33128135D01*
X7298784Y33128096D01*
X7304020Y33101768D01*
X7317479Y33051537D01*
X7320000Y33032385D01*
X7320000Y32967617D01*
X7317479Y32948465D01*
X7304022Y32898241D01*
X7298781Y32871895D01*
X7298780Y32871885D01*
X7296259Y32852744D01*
X7296258Y32852726D01*
X7294500Y32825934D01*
X7294500Y28174102D01*
X7294501Y28174069D01*
X7296257Y28147277D01*
X7298777Y28128135D01*
X7298784Y28128096D01*
X7304020Y28101768D01*
X7304022Y28101760D01*
X7304023Y28101756D01*
X7307990Y28086952D01*
X7317479Y28051537D01*
X7320000Y28032385D01*
X7320000Y27967617D01*
X7317479Y27948465D01*
X7304022Y27898241D01*
X7298785Y27871912D01*
X7298780Y27871885D01*
X7296259Y27852744D01*
X7296258Y27852726D01*
X7294500Y27825934D01*
X7294500Y25074002D01*
X7310141Y24995365D01*
X7310144Y24995355D01*
X7331814Y24943038D01*
X7331816Y24943034D01*
X7331817Y24943033D01*
X7368445Y24884739D01*
X7443033Y24831817D01*
X7495359Y24810143D01*
X7574000Y24794500D01*
X28213413Y24794500D01*
X28265739Y24772826D01*
X28916417Y24122148D01*
X28932457Y24098143D01*
X28942866Y24073016D01*
X28948500Y24044695D01*
X28948500Y23770939D01*
X28989421Y23618219D01*
X29068480Y23481284D01*
X29180284Y23369480D01*
X29317216Y23290423D01*
X29465264Y23250754D01*
X29468957Y23249500D01*
X29628059Y23249500D01*
X29638322Y23249500D01*
X29647210Y23254633D01*
X29780784Y23290423D01*
X29917716Y23369480D01*
X30029520Y23481284D01*
X30108577Y23618216D01*
X30144367Y23751790D01*
X30149500Y23760679D01*
X30149500Y24417855D01*
X30149500Y24417857D01*
X30146002Y24430914D01*
X30108577Y24570585D01*
X30074389Y24629800D01*
X30029520Y24707516D01*
X29917716Y24819320D01*
X29915137Y24821899D01*
X29915126Y24821909D01*
X28627174Y26109861D01*
X28605500Y26162187D01*
X28605500Y26727463D01*
X43662399Y26727463D01*
X43662399Y26561965D01*
X43662400Y26561939D01*
X43662400Y24025239D01*
X43703321Y23872519D01*
X43773025Y23751787D01*
X43782380Y23735584D01*
X43894184Y23623780D01*
X44031116Y23544723D01*
X44179164Y23505054D01*
X44182857Y23503800D01*
X44341959Y23503800D01*
X44352222Y23503800D01*
X44361110Y23508933D01*
X44494684Y23544723D01*
X44631616Y23623780D01*
X44743420Y23735584D01*
X44822477Y23872516D01*
X44858267Y24006090D01*
X44863400Y24014979D01*
X44863400Y26354295D01*
X44869031Y26382609D01*
X44879442Y26407744D01*
X44895478Y26431744D01*
X51532921Y33069186D01*
X53149500Y33069186D01*
X53149500Y32930815D01*
X53185310Y32797169D01*
X53185312Y32797164D01*
X53254495Y32677335D01*
X53352335Y32579495D01*
X53472164Y32510312D01*
X53601133Y32475756D01*
X53604831Y32474500D01*
X53744185Y32474500D01*
X53754448Y32474500D01*
X53763336Y32479633D01*
X53877836Y32510312D01*
X53997665Y32579495D01*
X54095505Y32677335D01*
X54164688Y32797164D01*
X54195367Y32911664D01*
X54200500Y32920553D01*
X54200500Y33066746D01*
X54200500Y33069185D01*
X54200499Y33069186D01*
X54799500Y33069186D01*
X54799500Y32930815D01*
X54835310Y32797169D01*
X54835312Y32797164D01*
X54904495Y32677335D01*
X55002335Y32579495D01*
X55122164Y32510312D01*
X55251133Y32475756D01*
X55254831Y32474500D01*
X55394185Y32474500D01*
X55404448Y32474500D01*
X55413336Y32479633D01*
X55527836Y32510312D01*
X55647665Y32579495D01*
X55710591Y32642422D01*
X55734594Y32658459D01*
X55759725Y32668869D01*
X55788041Y32674500D01*
X56142851Y32674500D01*
X56142853Y32674500D01*
X56225639Y32696682D01*
X56299862Y32739535D01*
X58602748Y35042422D01*
X58626751Y35058459D01*
X58651882Y35068869D01*
X58680198Y35074500D01*
X58779448Y35074500D01*
X58788336Y35079633D01*
X58902836Y35110312D01*
X59022665Y35179495D01*
X59120505Y35277335D01*
X59189688Y35397164D01*
X59220367Y35511664D01*
X59225500Y35520553D01*
X59225500Y35670170D01*
X59224241Y35673879D01*
X59217279Y35699860D01*
X59217279Y35699862D01*
X59189688Y35802836D01*
X59120505Y35922665D01*
X59022665Y36020505D01*
X58902836Y36089688D01*
X58902831Y36089690D01*
X58769185Y36125500D01*
X58769184Y36125500D01*
X58630816Y36125500D01*
X58630815Y36125500D01*
X58497168Y36089690D01*
X58497166Y36089690D01*
X58497165Y36089689D01*
X58377333Y36020505D01*
X58279495Y35922667D01*
X58210311Y35802836D01*
X58210310Y35802832D01*
X58175758Y35673879D01*
X58174500Y35669185D01*
X58174500Y35580198D01*
X58168867Y35551882D01*
X58160142Y35530815D01*
X58158459Y35526752D01*
X58142418Y35502746D01*
X55997254Y33357582D01*
X55973248Y33341542D01*
X55948118Y33331133D01*
X55919802Y33325500D01*
X55788041Y33325500D01*
X55759723Y33331133D01*
X55734594Y33341542D01*
X55710588Y33357582D01*
X55647665Y33420505D01*
X55527834Y33489689D01*
X55527832Y33489690D01*
X55527831Y33489690D01*
X55394185Y33525500D01*
X55394184Y33525500D01*
X55255816Y33525500D01*
X55255815Y33525500D01*
X55122168Y33489690D01*
X55122166Y33489690D01*
X55122165Y33489689D01*
X55002333Y33420505D01*
X54904495Y33322667D01*
X54904494Y33322665D01*
X54835312Y33202837D01*
X54835310Y33202832D01*
X54799500Y33069186D01*
X54200499Y33069186D01*
X54164838Y33202274D01*
X54164701Y33202803D01*
X54164689Y33202834D01*
X54095504Y33322666D01*
X53997665Y33420505D01*
X53877834Y33489689D01*
X53877832Y33489690D01*
X53877831Y33489690D01*
X53744185Y33525500D01*
X53744184Y33525500D01*
X53605816Y33525500D01*
X53605815Y33525500D01*
X53472168Y33489690D01*
X53472166Y33489690D01*
X53472165Y33489689D01*
X53352333Y33420505D01*
X53254495Y33322667D01*
X53254494Y33322665D01*
X53185312Y33202837D01*
X53185310Y33202832D01*
X53149500Y33069186D01*
X51532921Y33069186D01*
X51666572Y33202837D01*
X58686620Y40222884D01*
X58765677Y40359816D01*
X58801468Y40493391D01*
X58806601Y40502280D01*
X58806601Y40676177D01*
X58806600Y40676251D01*
X58806600Y44244186D01*
X59549500Y44244186D01*
X59549500Y44105815D01*
X59585310Y43972169D01*
X59585312Y43972164D01*
X59654495Y43852335D01*
X59752335Y43754495D01*
X59872164Y43685312D01*
X60001133Y43650756D01*
X60004831Y43649500D01*
X60144185Y43649500D01*
X60154448Y43649500D01*
X60163336Y43654633D01*
X60277836Y43685312D01*
X60397665Y43754495D01*
X60495505Y43852335D01*
X60564688Y43972164D01*
X60595367Y44086664D01*
X60600500Y44095553D01*
X60600500Y44245168D01*
X60599247Y44248859D01*
X60586302Y44297169D01*
X60564688Y44377836D01*
X60495505Y44497665D01*
X60397665Y44595505D01*
X60277836Y44664688D01*
X60277831Y44664690D01*
X60144185Y44700500D01*
X60144184Y44700500D01*
X60005816Y44700500D01*
X60005815Y44700500D01*
X59872168Y44664690D01*
X59872166Y44664690D01*
X59872165Y44664689D01*
X59752333Y44595505D01*
X59654495Y44497667D01*
X59585311Y44377836D01*
X59585310Y44377832D01*
X59549500Y44244186D01*
X58806600Y44244186D01*
X58806600Y46764745D01*
X58805343Y46768446D01*
X58800526Y46786424D01*
X58765818Y46915957D01*
X58765690Y46916452D01*
X58765678Y46916482D01*
X58765676Y46916486D01*
X58686620Y47053416D01*
X58574816Y47165220D01*
X58437881Y47244279D01*
X58285161Y47285200D01*
X58285159Y47285200D01*
X58285157Y47285200D01*
X58127043Y47285200D01*
X58127041Y47285200D01*
X58127039Y47285200D01*
X57974326Y47244281D01*
X57974321Y47244280D01*
X57974320Y47244279D01*
X57974318Y47244279D01*
X57974315Y47244277D01*
X57974310Y47244275D01*
X57837382Y47165220D01*
X57725580Y47053418D01*
X57646525Y46916490D01*
X57646520Y46916479D01*
X57605600Y46763763D01*
X57605600Y40885707D01*
X57599967Y40857391D01*
X57589559Y40832261D01*
X57573518Y40808255D01*
X43782379Y27017117D01*
X43737981Y26940214D01*
X43737980Y26940212D01*
X43714304Y26899208D01*
X43703321Y26880184D01*
X43703320Y26880182D01*
X43703320Y26880181D01*
X43662399Y26727463D01*
X28605500Y26727463D01*
X28605500Y27383686D01*
X32484500Y27383686D01*
X32484500Y27245315D01*
X32520310Y27111669D01*
X32520312Y27111664D01*
X32589495Y26991835D01*
X32687335Y26893995D01*
X32807164Y26824812D01*
X32936133Y26790256D01*
X32939831Y26789000D01*
X33079185Y26789000D01*
X33089449Y26789000D01*
X33098340Y26794134D01*
X33110705Y26797447D01*
X33132677Y26803334D01*
X33134371Y26803787D01*
X33134375Y26803788D01*
X33134382Y26803790D01*
X33174086Y26814430D01*
X33212836Y26824812D01*
X33332665Y26893995D01*
X33430505Y26991835D01*
X33499688Y27111664D01*
X33530367Y27226164D01*
X33535500Y27235053D01*
X33535500Y27334305D01*
X33541132Y27362621D01*
X33551540Y27387751D01*
X33567577Y27411753D01*
X42014659Y35858834D01*
X42014662Y35858835D01*
X42075265Y35919438D01*
X42118118Y35993662D01*
X42129278Y36035312D01*
X42140301Y36076448D01*
X42140301Y36162153D01*
X42140301Y36166682D01*
X42140301Y36167672D01*
X42140300Y36167746D01*
X42140300Y44930760D01*
X42145931Y44959074D01*
X42156342Y44984209D01*
X42172383Y45008213D01*
X42189670Y45025500D01*
X42235305Y45071135D01*
X42304488Y45190964D01*
X42335167Y45305464D01*
X42340300Y45314353D01*
X42340300Y45463970D01*
X42339044Y45467667D01*
X42304638Y45596074D01*
X42304501Y45596603D01*
X42304489Y45596634D01*
X42304487Y45596637D01*
X42235305Y45716465D01*
X42137465Y45814305D01*
X42017636Y45883488D01*
X42017631Y45883490D01*
X41883985Y45919300D01*
X41883984Y45919300D01*
X41745616Y45919300D01*
X41745615Y45919300D01*
X41611968Y45883490D01*
X41611963Y45883488D01*
X41586642Y45868870D01*
X41492133Y45814305D01*
X41394295Y45716467D01*
X41325111Y45596636D01*
X41325110Y45596632D01*
X41289300Y45462986D01*
X41289300Y45324615D01*
X41319055Y45213568D01*
X41325111Y45190966D01*
X41394295Y45071135D01*
X41457218Y45008212D01*
X41473257Y44984209D01*
X41483668Y44959075D01*
X41489300Y44930760D01*
X41489300Y36299498D01*
X41483667Y36271182D01*
X41473259Y36246052D01*
X41457218Y36222046D01*
X33107254Y27872082D01*
X33083248Y27856042D01*
X33058118Y27845633D01*
X33029802Y27840000D01*
X32940815Y27840000D01*
X32807168Y27804190D01*
X32807166Y27804190D01*
X32807165Y27804189D01*
X32687333Y27735005D01*
X32589495Y27637167D01*
X32520311Y27517336D01*
X32520310Y27517332D01*
X32484500Y27383686D01*
X28605500Y27383686D01*
X28605500Y29842686D01*
X32183700Y29842686D01*
X32183700Y29704315D01*
X32219510Y29570669D01*
X32219512Y29570664D01*
X32288695Y29450835D01*
X32386535Y29352995D01*
X32506364Y29283812D01*
X32635333Y29249256D01*
X32639031Y29248000D01*
X32778385Y29248000D01*
X32788648Y29248000D01*
X32797536Y29253133D01*
X32912036Y29283812D01*
X33031865Y29352995D01*
X33129705Y29450835D01*
X33198888Y29570664D01*
X33229567Y29685164D01*
X33234700Y29694053D01*
X33234700Y29793303D01*
X33240331Y29821617D01*
X33250742Y29846752D01*
X33266778Y29870752D01*
X35528189Y32132162D01*
X37946065Y34550038D01*
X37988917Y34624261D01*
X37988918Y34624262D01*
X38005967Y34687894D01*
X38011100Y34696783D01*
X38011100Y39386960D01*
X38016731Y39415274D01*
X38027142Y39440409D01*
X38043179Y39464410D01*
X38068460Y39489690D01*
X38106105Y39527335D01*
X38175288Y39647164D01*
X38205967Y39761664D01*
X38211100Y39770553D01*
X38211100Y39920170D01*
X38209844Y39923867D01*
X38175438Y40052274D01*
X38175301Y40052803D01*
X38175289Y40052834D01*
X38106104Y40172666D01*
X38008265Y40270505D01*
X37962090Y40297164D01*
X37888436Y40339688D01*
X37888431Y40339690D01*
X37754785Y40375500D01*
X37754784Y40375500D01*
X37616416Y40375500D01*
X37616415Y40375500D01*
X37482768Y40339690D01*
X37482766Y40339690D01*
X37482765Y40339689D01*
X37362933Y40270505D01*
X37265095Y40172667D01*
X37195911Y40052836D01*
X37195910Y40052832D01*
X37160100Y39919186D01*
X37160100Y39780815D01*
X37195910Y39647169D01*
X37195911Y39647166D01*
X37265095Y39527335D01*
X37328018Y39464412D01*
X37344057Y39440409D01*
X37354468Y39415275D01*
X37360100Y39386960D01*
X37360100Y34930098D01*
X37354467Y34901782D01*
X37344059Y34876652D01*
X37328018Y34852646D01*
X32806454Y30331082D01*
X32782448Y30315042D01*
X32757318Y30304633D01*
X32729002Y30299000D01*
X32640015Y30299000D01*
X32506368Y30263190D01*
X32506366Y30263190D01*
X32506365Y30263189D01*
X32386533Y30194005D01*
X32288695Y30096167D01*
X32219511Y29976336D01*
X32219510Y29976332D01*
X32183700Y29842686D01*
X28605500Y29842686D01*
X28605500Y30925999D01*
X28589858Y31004636D01*
X28589857Y31004637D01*
X28589857Y31004641D01*
X28568183Y31056967D01*
X28531555Y31115261D01*
X28456967Y31168183D01*
X28456966Y31168184D01*
X28404645Y31189856D01*
X28404635Y31189859D01*
X28341031Y31202510D01*
X28326000Y31205500D01*
X28325998Y31205500D01*
X25629122Y31205500D01*
X25621232Y31203931D01*
X25565684Y31214984D01*
X25534221Y31262078D01*
X25532800Y31276510D01*
X25532800Y31752103D01*
X25538431Y31780417D01*
X25548842Y31805552D01*
X25564878Y31829552D01*
X29804512Y36069186D01*
X33649500Y36069186D01*
X33649500Y35930815D01*
X33685310Y35797169D01*
X33685312Y35797164D01*
X33754495Y35677335D01*
X33852335Y35579495D01*
X33972164Y35510312D01*
X34101133Y35475756D01*
X34104831Y35474500D01*
X34244185Y35474500D01*
X34254448Y35474500D01*
X34263336Y35479633D01*
X34377836Y35510312D01*
X34497665Y35579495D01*
X34595505Y35677335D01*
X34664688Y35797164D01*
X34695367Y35911664D01*
X34700500Y35920553D01*
X34700500Y36070170D01*
X34699243Y36073871D01*
X34697736Y36079496D01*
X34664688Y36202836D01*
X34595505Y36322665D01*
X34497665Y36420505D01*
X34377836Y36489688D01*
X34377831Y36489690D01*
X34244185Y36525500D01*
X34244184Y36525500D01*
X34105816Y36525500D01*
X34105815Y36525500D01*
X33972168Y36489690D01*
X33972166Y36489690D01*
X33972165Y36489689D01*
X33852333Y36420505D01*
X33754495Y36322667D01*
X33685311Y36202836D01*
X33685310Y36202832D01*
X33649500Y36069186D01*
X29804512Y36069186D01*
X32304512Y38569186D01*
X33649500Y38569186D01*
X33649500Y38430815D01*
X33685310Y38297169D01*
X33685312Y38297164D01*
X33754495Y38177335D01*
X33852335Y38079495D01*
X33972164Y38010312D01*
X34101133Y37975756D01*
X34104831Y37974500D01*
X34244185Y37974500D01*
X34254448Y37974500D01*
X34263336Y37979633D01*
X34377836Y38010312D01*
X34497665Y38079495D01*
X34595505Y38177335D01*
X34664688Y38297164D01*
X34695367Y38411664D01*
X34700500Y38420553D01*
X34700500Y38570170D01*
X34699243Y38573871D01*
X34697736Y38579496D01*
X34664688Y38702836D01*
X34595505Y38822665D01*
X34497665Y38920505D01*
X34377836Y38989688D01*
X34377831Y38989690D01*
X34244185Y39025500D01*
X34244184Y39025500D01*
X34105816Y39025500D01*
X34105815Y39025500D01*
X33972168Y38989690D01*
X33972166Y38989690D01*
X33972165Y38989689D01*
X33852333Y38920505D01*
X33754495Y38822667D01*
X33685311Y38702836D01*
X33685310Y38702832D01*
X33649500Y38569186D01*
X32304512Y38569186D01*
X35829512Y42094186D01*
X36299500Y42094186D01*
X36299500Y41955815D01*
X36335310Y41822169D01*
X36335312Y41822164D01*
X36404495Y41702335D01*
X36502335Y41604495D01*
X36622164Y41535312D01*
X36751133Y41500756D01*
X36754831Y41499500D01*
X36894185Y41499500D01*
X36904448Y41499500D01*
X36913336Y41504633D01*
X37027836Y41535312D01*
X37147665Y41604495D01*
X37210591Y41667422D01*
X37234594Y41683459D01*
X37259725Y41693869D01*
X37288041Y41699500D01*
X40453118Y41699500D01*
X40462006Y41704633D01*
X40525638Y41721682D01*
X40599862Y41764535D01*
X40660465Y41825138D01*
X40703318Y41899362D01*
X40720367Y41962994D01*
X40725500Y41971883D01*
X40725500Y46036960D01*
X40731131Y46065274D01*
X40741542Y46090409D01*
X40757585Y46114416D01*
X40761263Y46118093D01*
X40820505Y46177335D01*
X40889688Y46297164D01*
X40920367Y46411664D01*
X40925500Y46420553D01*
X40925500Y46570171D01*
X40924242Y46573877D01*
X40923674Y46575996D01*
X40923674Y46575995D01*
X40889688Y46702836D01*
X40820505Y46822665D01*
X40722665Y46920505D01*
X40602836Y46989688D01*
X40602831Y46989690D01*
X40469185Y47025500D01*
X40469184Y47025500D01*
X40330816Y47025500D01*
X40330815Y47025500D01*
X40197168Y46989690D01*
X40197166Y46989690D01*
X40197165Y46989689D01*
X40077333Y46920505D01*
X39979495Y46822667D01*
X39910311Y46702836D01*
X39910310Y46702832D01*
X39874500Y46569186D01*
X39874500Y46430815D01*
X39895788Y46351368D01*
X39910311Y46297166D01*
X39979495Y46177335D01*
X40042418Y46114412D01*
X40058457Y46090409D01*
X40068868Y46065275D01*
X40074500Y46036960D01*
X40074500Y42439219D01*
X40068867Y42410901D01*
X40064556Y42400493D01*
X40024508Y42360445D01*
X40024507Y42360444D01*
X40014099Y42356133D01*
X39985781Y42350500D01*
X37288041Y42350500D01*
X37259723Y42356133D01*
X37234594Y42366542D01*
X37210588Y42382582D01*
X37147665Y42445505D01*
X37027834Y42514689D01*
X37027832Y42514690D01*
X37027831Y42514690D01*
X36894185Y42550500D01*
X36894184Y42550500D01*
X36755816Y42550500D01*
X36755815Y42550500D01*
X36622168Y42514690D01*
X36622166Y42514690D01*
X36622165Y42514689D01*
X36502333Y42445505D01*
X36404495Y42347667D01*
X36335311Y42227836D01*
X36335310Y42227832D01*
X36299500Y42094186D01*
X35829512Y42094186D01*
X37627748Y43892422D01*
X37651751Y43908459D01*
X37676882Y43918869D01*
X37705198Y43924500D01*
X37781648Y43924500D01*
X37790536Y43929633D01*
X37905036Y43960312D01*
X38024865Y44029495D01*
X38122705Y44127335D01*
X38191888Y44247164D01*
X38222567Y44361664D01*
X38227700Y44370553D01*
X38227700Y44520170D01*
X38226441Y44523879D01*
X38223073Y44536447D01*
X38214302Y44569183D01*
X38191888Y44652836D01*
X38122705Y44772665D01*
X38024865Y44870505D01*
X37905036Y44939688D01*
X37905031Y44939690D01*
X37771385Y44975500D01*
X37771384Y44975500D01*
X37633016Y44975500D01*
X37633015Y44975500D01*
X37499368Y44939690D01*
X37499366Y44939690D01*
X37499365Y44939689D01*
X37379533Y44870505D01*
X37281695Y44772667D01*
X37212511Y44652836D01*
X37212510Y44652832D01*
X37177958Y44523879D01*
X37176700Y44519185D01*
X37176700Y44407399D01*
X37171067Y44379083D01*
X37170550Y44377832D01*
X37160659Y44353953D01*
X37144618Y44329947D01*
X29478303Y36663632D01*
X29454297Y36647592D01*
X29443890Y36643281D01*
X29387278Y36643269D01*
X29386477Y36643601D01*
X29350689Y36674971D01*
X29348961Y36677963D01*
X29341573Y36695798D01*
X29339818Y36702346D01*
X29339699Y36702807D01*
X29339688Y36702834D01*
X29328238Y36722666D01*
X29270504Y36822665D01*
X29172664Y36920505D01*
X29052835Y36989688D01*
X29052830Y36989690D01*
X28919184Y37025500D01*
X28919183Y37025500D01*
X28780815Y37025500D01*
X28780814Y37025500D01*
X28647167Y36989690D01*
X28647165Y36989690D01*
X28647164Y36989689D01*
X28527332Y36920505D01*
X28429494Y36822667D01*
X28360310Y36702836D01*
X28360309Y36702832D01*
X28324499Y36569186D01*
X28324499Y36430815D01*
X28360309Y36297169D01*
X28360311Y36297164D01*
X28429494Y36177335D01*
X28527334Y36079495D01*
X28629508Y36020505D01*
X28647165Y36010311D01*
X28647195Y36010299D01*
X28647741Y36010157D01*
X28649397Y36009714D01*
X28675275Y35996950D01*
X28684215Y35990091D01*
X28712535Y35941044D01*
X28712537Y35941022D01*
X28712650Y35940162D01*
X28703372Y35893530D01*
X28701652Y35890550D01*
X28689887Y35875216D01*
X24946832Y32132160D01*
X24900734Y32052317D01*
X24900171Y32043720D01*
X24881800Y31975155D01*
X24881800Y31276510D01*
X24860126Y31224184D01*
X24807800Y31202510D01*
X24793368Y31203931D01*
X24785478Y31205500D01*
X12279500Y31205500D01*
X12227174Y31227174D01*
X12205500Y31279500D01*
X12205500Y37125999D01*
X12189858Y37204636D01*
X12189857Y37204637D01*
X12189857Y37204641D01*
X12168183Y37256967D01*
X12131555Y37315261D01*
X12056967Y37368183D01*
X12056966Y37368184D01*
X12004645Y37389856D01*
X12004635Y37389859D01*
X11951974Y37400334D01*
X11926000Y37405500D01*
X11925998Y37405500D01*
X7574002Y37405500D01*
X7574000Y37405500D01*
X7551707Y37401066D01*
X7495364Y37389859D01*
X7495354Y37389856D01*
X7443037Y37368186D01*
X7384739Y37331555D01*
X7384737Y37331553D01*
X7331816Y37256967D01*
X7310144Y37204646D01*
X7310141Y37204636D01*
X7294500Y37125999D01*
X300500Y37125999D01*
X300500Y40569186D01*
X28324499Y40569186D01*
X28324499Y40430815D01*
X28360309Y40297169D01*
X28360311Y40297164D01*
X28429494Y40177335D01*
X28527334Y40079495D01*
X28647163Y40010312D01*
X28776132Y39975756D01*
X28779830Y39974500D01*
X28919184Y39974500D01*
X28929447Y39974500D01*
X28938335Y39979633D01*
X29052835Y40010312D01*
X29172664Y40079495D01*
X29270504Y40177335D01*
X29339687Y40297164D01*
X29370366Y40411664D01*
X29375499Y40420553D01*
X29375499Y40570170D01*
X29374243Y40573867D01*
X29339837Y40702274D01*
X29339700Y40702803D01*
X29339688Y40702834D01*
X29339686Y40702837D01*
X29270504Y40822665D01*
X29172664Y40920505D01*
X29052835Y40989688D01*
X29052830Y40989690D01*
X28919184Y41025500D01*
X28919183Y41025500D01*
X28780815Y41025500D01*
X28780814Y41025500D01*
X28647167Y40989690D01*
X28647165Y40989690D01*
X28647164Y40989689D01*
X28527332Y40920505D01*
X28429494Y40822667D01*
X28360310Y40702836D01*
X28360309Y40702832D01*
X28324499Y40569186D01*
X300500Y40569186D01*
X300500Y43269186D01*
X33649500Y43269186D01*
X33649500Y43130815D01*
X33685310Y42997169D01*
X33685312Y42997164D01*
X33754495Y42877335D01*
X33852335Y42779495D01*
X33972164Y42710312D01*
X34101133Y42675756D01*
X34104831Y42674500D01*
X34244185Y42674500D01*
X34254448Y42674500D01*
X34263336Y42679633D01*
X34377836Y42710312D01*
X34497665Y42779495D01*
X34595505Y42877335D01*
X34664688Y42997164D01*
X34695367Y43111664D01*
X34700500Y43120553D01*
X34700500Y43270170D01*
X34699244Y43273867D01*
X34664838Y43402274D01*
X34664701Y43402803D01*
X34664689Y43402834D01*
X34595504Y43522666D01*
X34497665Y43620505D01*
X34445265Y43650758D01*
X34377836Y43689688D01*
X34377831Y43689690D01*
X34244185Y43725500D01*
X34244184Y43725500D01*
X34105816Y43725500D01*
X34105815Y43725500D01*
X33972168Y43689690D01*
X33972166Y43689690D01*
X33972165Y43689689D01*
X33852333Y43620505D01*
X33754495Y43522667D01*
X33685311Y43402836D01*
X33685310Y43402832D01*
X33649500Y43269186D01*
X300500Y43269186D01*
X300500Y46118093D01*
X2499500Y46118093D01*
X2499500Y45881908D01*
X2527861Y45702837D01*
X2536447Y45648630D01*
X2536449Y45648621D01*
X2609426Y45424020D01*
X2716655Y45213568D01*
X2814065Y45079496D01*
X2855480Y45022493D01*
X3022549Y44855424D01*
X3022682Y44855312D01*
X3023705Y44854600D01*
X3067660Y44822665D01*
X3213567Y44716657D01*
X3213576Y44716652D01*
X3420163Y44611390D01*
X3421102Y44610841D01*
X3423299Y44609777D01*
X3424528Y44609167D01*
X3426767Y44608535D01*
X3646303Y44537203D01*
X3647867Y44536637D01*
X3648039Y44536586D01*
X3648477Y44536472D01*
X3648630Y44536448D01*
X3648632Y44536447D01*
X3804149Y44511816D01*
X3823589Y44508737D01*
X3881906Y44499500D01*
X4118093Y44499500D01*
X4118094Y44499500D01*
X4132672Y44501810D01*
X4176411Y44508737D01*
X4351368Y44536447D01*
X4351368Y44536448D01*
X4351512Y44536470D01*
X4352561Y44536791D01*
X4353230Y44536985D01*
X4354550Y44537481D01*
X4452128Y44569186D01*
X28324499Y44569186D01*
X28324499Y44430815D01*
X28360309Y44297169D01*
X28360311Y44297164D01*
X28429494Y44177335D01*
X28527334Y44079495D01*
X28647163Y44010312D01*
X28776132Y43975756D01*
X28779830Y43974500D01*
X28919184Y43974500D01*
X28929447Y43974500D01*
X28938335Y43979633D01*
X29052835Y44010312D01*
X29172664Y44079495D01*
X29270504Y44177335D01*
X29339687Y44297164D01*
X29370366Y44411664D01*
X29375499Y44420553D01*
X29375499Y44570170D01*
X29374240Y44573879D01*
X29368445Y44595505D01*
X29364714Y44609431D01*
X29339687Y44702836D01*
X29270504Y44822665D01*
X29172664Y44920505D01*
X29052835Y44989688D01*
X29052830Y44989690D01*
X28919184Y45025500D01*
X28919183Y45025500D01*
X28780815Y45025500D01*
X28780814Y45025500D01*
X28647167Y44989690D01*
X28647165Y44989690D01*
X28647164Y44989689D01*
X28527332Y44920505D01*
X28429494Y44822667D01*
X28360310Y44702836D01*
X28360309Y44702832D01*
X28324499Y44569186D01*
X4452128Y44569186D01*
X4533129Y44595505D01*
X4575992Y44609432D01*
X4786433Y44716657D01*
X4977510Y44855483D01*
X5144517Y45022490D01*
X5283343Y45213567D01*
X5390568Y45424008D01*
X5392781Y45430817D01*
X5403232Y45462982D01*
X5420721Y45516811D01*
X5437740Y45569186D01*
X33649500Y45569186D01*
X33649500Y45430815D01*
X33685310Y45297169D01*
X33685312Y45297164D01*
X33754495Y45177335D01*
X33852335Y45079495D01*
X33972164Y45010312D01*
X34101133Y44975756D01*
X34104831Y44974500D01*
X34244185Y44974500D01*
X34254448Y44974500D01*
X34263336Y44979633D01*
X34377836Y45010312D01*
X34497665Y45079495D01*
X34595505Y45177335D01*
X34664688Y45297164D01*
X34695367Y45411664D01*
X34700500Y45420553D01*
X34700500Y45570168D01*
X34699247Y45573858D01*
X34679214Y45648622D01*
X34679211Y45648632D01*
X34664689Y45702832D01*
X34664688Y45702836D01*
X34595505Y45822665D01*
X34497665Y45920505D01*
X34377836Y45989688D01*
X34377831Y45989690D01*
X34244185Y46025500D01*
X34244184Y46025500D01*
X34105816Y46025500D01*
X34105815Y46025500D01*
X33972168Y45989690D01*
X33972166Y45989690D01*
X33972165Y45989689D01*
X33852333Y45920505D01*
X33754495Y45822667D01*
X33685311Y45702836D01*
X33685310Y45702832D01*
X33649500Y45569186D01*
X5437740Y45569186D01*
X5446745Y45596900D01*
X5462524Y45645468D01*
X5463015Y45646771D01*
X5463209Y45647441D01*
X5463530Y45648489D01*
X5474297Y45716465D01*
X5500500Y45881908D01*
X5500500Y46118092D01*
X5463553Y46351368D01*
X5463552Y46351370D01*
X5463528Y46351523D01*
X5463414Y46351961D01*
X5463363Y46352133D01*
X5462795Y46353702D01*
X5437739Y46430815D01*
X5391465Y46573233D01*
X5390833Y46575472D01*
X5390223Y46576701D01*
X5389159Y46578898D01*
X5388610Y46579837D01*
X5283348Y46786424D01*
X5283343Y46786433D01*
X5144520Y46977506D01*
X5144519Y46977507D01*
X5144517Y46977510D01*
X4977510Y47144517D01*
X4977507Y47144520D01*
X4977504Y47144523D01*
X4977476Y47144543D01*
X4977251Y47144706D01*
X4786432Y47283345D01*
X4575980Y47390574D01*
X4351394Y47463547D01*
X4351370Y47463553D01*
X4351367Y47463554D01*
X4351365Y47463554D01*
X4218910Y47484533D01*
X4118094Y47500500D01*
X4118093Y47500500D01*
X4118092Y47500500D01*
X3881908Y47500500D01*
X3881907Y47500500D01*
X3881906Y47500500D01*
X3648628Y47463553D01*
X3648604Y47463547D01*
X3424018Y47390574D01*
X3213566Y47283345D01*
X3022498Y47144525D01*
X2855475Y46977502D01*
X2716655Y46786434D01*
X2609426Y46575982D01*
X2536453Y46351396D01*
X2536448Y46351373D01*
X2536446Y46351366D01*
X2499500Y46118093D01*
X300500Y46118093D01*
X300500Y47869186D01*
X32924499Y47869186D01*
X32924499Y47730815D01*
X32960309Y47597169D01*
X32960311Y47597164D01*
X33029494Y47477335D01*
X33127334Y47379495D01*
X33247163Y47310312D01*
X33376132Y47275756D01*
X33379830Y47274500D01*
X33519184Y47274500D01*
X33529447Y47274500D01*
X33538335Y47279633D01*
X33652835Y47310312D01*
X33772664Y47379495D01*
X33870504Y47477335D01*
X33939687Y47597164D01*
X33970366Y47711664D01*
X33975499Y47720553D01*
X33975499Y47870170D01*
X33974243Y47873867D01*
X33939688Y48002832D01*
X33939687Y48002836D01*
X33901380Y48069186D01*
X40074500Y48069186D01*
X40074500Y47930815D01*
X40110310Y47797169D01*
X40110312Y47797164D01*
X40179495Y47677335D01*
X40277335Y47579495D01*
X40397164Y47510312D01*
X40526133Y47475756D01*
X40529831Y47474500D01*
X40669185Y47474500D01*
X40679448Y47474500D01*
X40688336Y47479633D01*
X40802836Y47510312D01*
X40922665Y47579495D01*
X41020505Y47677335D01*
X41089688Y47797164D01*
X41120367Y47911664D01*
X41125500Y47920553D01*
X41125500Y48070170D01*
X41124241Y48073879D01*
X41111169Y48122664D01*
X41111169Y48122665D01*
X41089688Y48202836D01*
X41020505Y48322665D01*
X40922665Y48420505D01*
X40802836Y48489688D01*
X40802831Y48489690D01*
X40669185Y48525500D01*
X40669184Y48525500D01*
X40530816Y48525500D01*
X40530815Y48525500D01*
X40397168Y48489690D01*
X40397166Y48489690D01*
X40397165Y48489689D01*
X40277333Y48420505D01*
X40179495Y48322667D01*
X40110311Y48202836D01*
X40110310Y48202832D01*
X40074500Y48069186D01*
X33901380Y48069186D01*
X33870504Y48122665D01*
X33772664Y48220505D01*
X33652835Y48289688D01*
X33652830Y48289690D01*
X33519184Y48325500D01*
X33519183Y48325500D01*
X33380815Y48325500D01*
X33380814Y48325500D01*
X33247167Y48289690D01*
X33247165Y48289690D01*
X33247164Y48289689D01*
X33127332Y48220505D01*
X33029494Y48122667D01*
X32960310Y48002836D01*
X32960309Y48002832D01*
X32924499Y47869186D01*
X300500Y47869186D01*
X300500Y49610782D01*
X306129Y49639091D01*
X310443Y49649506D01*
X350482Y49689552D01*
X360911Y49693872D01*
X389219Y49699500D01*
X33911281Y49699500D01*
X33939591Y49693871D01*
G37*
%TD.AperFunction*%
%TD*%
M02*
