%TF.GenerationSoftware,KiCad,Pcbnew,10.0.6*%
%TF.CreationDate,2026-09-12T11:08:24+02:00*%
%TF.ProjectId,leaf-heat-v3,6c656166-2d68-4656-9174-2d76332e6b69,B*%
%TF.SameCoordinates,Original*%
%TF.FileFunction,Copper,L1,Top*%
%TF.FilePolarity,Positive*%
%FSLAX46Y46*%
G04 Gerber Fmt 4.6, Leading zero omitted, Abs format (unit mm)*
G04 Created by KiCad (PCBNEW 10.0.6) date 2026-09-12 11:08:24*
%MOMM*%
%LPD*%
G01*
G04 APERTURE LIST*
G04 Aperture macros list*
%AMRoundRect*
0 Rectangle with rounded corners*
0 $1 Rounding radius*
0 $2 $3 $4 $5 $6 $7 $8 $9 X,Y pos of 4 corners*
0 Add a 4 corners polygon primitive as box body*
4,1,4,$2,$3,$4,$5,$6,$7,$8,$9,$2,$3,0*
0 Add four circle primitives for the rounded corners*
1,1,$1+$1,$2,$3*
1,1,$1+$1,$4,$5*
1,1,$1+$1,$6,$7*
1,1,$1+$1,$8,$9*
0 Add four rect primitives between the rounded corners*
20,1,$1+$1,$2,$3,$4,$5,0*
20,1,$1+$1,$4,$5,$6,$7,0*
20,1,$1+$1,$6,$7,$8,$9,0*
20,1,$1+$1,$8,$9,$2,$3,0*%
G04 Aperture macros list end*
%TA.AperFunction,SMDPad,CuDef*%
%ADD10RoundRect,0.225000X0.250000X-0.225000X0.250000X0.225000X-0.250000X0.225000X-0.250000X-0.225000X0*%
%TD*%
%TA.AperFunction,SMDPad,CuDef*%
%ADD11RoundRect,0.250000X-0.650000X1.000000X-0.650000X-1.000000X0.650000X-1.000000X0.650000X1.000000X0*%
%TD*%
%TA.AperFunction,SMDPad,CuDef*%
%ADD12RoundRect,0.218750X-0.218750X-0.256250X0.218750X-0.256250X0.218750X0.256250X-0.218750X0.256250X0*%
%TD*%
%TA.AperFunction,SMDPad,CuDef*%
%ADD13RoundRect,0.200000X-0.200000X-0.275000X0.200000X-0.275000X0.200000X0.275000X-0.200000X0.275000X0*%
%TD*%
%TA.AperFunction,SMDPad,CuDef*%
%ADD14RoundRect,0.150000X0.150000X-0.512500X0.150000X0.512500X-0.150000X0.512500X-0.150000X-0.512500X0*%
%TD*%
%TA.AperFunction,ComponentPad*%
%ADD15R,1.700000X1.700000*%
%TD*%
%TA.AperFunction,ComponentPad*%
%ADD16C,1.700000*%
%TD*%
%TA.AperFunction,ComponentPad*%
%ADD17R,1.600000X1.600000*%
%TD*%
%TA.AperFunction,ComponentPad*%
%ADD18C,1.600000*%
%TD*%
%TA.AperFunction,ComponentPad*%
%ADD19C,4.000000*%
%TD*%
%TA.AperFunction,SMDPad,CuDef*%
%ADD20RoundRect,0.200000X0.275000X-0.200000X0.275000X0.200000X-0.275000X0.200000X-0.275000X-0.200000X0*%
%TD*%
%TA.AperFunction,SMDPad,CuDef*%
%ADD21RoundRect,0.250000X-0.325000X-1.100000X0.325000X-1.100000X0.325000X1.100000X-0.325000X1.100000X0*%
%TD*%
%TA.AperFunction,SMDPad,CuDef*%
%ADD22R,2.350000X5.100000*%
%TD*%
%TA.AperFunction,SMDPad,CuDef*%
%ADD23RoundRect,0.225000X-0.225000X-0.250000X0.225000X-0.250000X0.225000X0.250000X-0.225000X0.250000X0*%
%TD*%
%TA.AperFunction,SMDPad,CuDef*%
%ADD24RoundRect,0.250000X1.100000X-0.325000X1.100000X0.325000X-1.100000X0.325000X-1.100000X-0.325000X0*%
%TD*%
%TA.AperFunction,SMDPad,CuDef*%
%ADD25RoundRect,0.250000X-0.250000X-0.475000X0.250000X-0.475000X0.250000X0.475000X-0.250000X0.475000X0*%
%TD*%
%TA.AperFunction,SMDPad,CuDef*%
%ADD26RoundRect,0.200000X0.200000X0.275000X-0.200000X0.275000X-0.200000X-0.275000X0.200000X-0.275000X0*%
%TD*%
%TA.AperFunction,SMDPad,CuDef*%
%ADD27RoundRect,0.250000X0.900000X-1.000000X0.900000X1.000000X-0.900000X1.000000X-0.900000X-1.000000X0*%
%TD*%
%TA.AperFunction,SMDPad,CuDef*%
%ADD28RoundRect,0.250000X0.475000X-0.250000X0.475000X0.250000X-0.475000X0.250000X-0.475000X-0.250000X0*%
%TD*%
%TA.AperFunction,SMDPad,CuDef*%
%ADD29R,3.150000X1.960000*%
%TD*%
%TA.AperFunction,SMDPad,CuDef*%
%ADD30R,1.700000X1.000000*%
%TD*%
%TA.AperFunction,SMDPad,CuDef*%
%ADD31R,2.200000X0.500000*%
%TD*%
%TA.AperFunction,ComponentPad*%
%ADD32C,0.630000*%
%TD*%
%TA.AperFunction,SMDPad,CuDef*%
%ADD33R,2.950000X4.900000*%
%TD*%
%TA.AperFunction,SMDPad,CuDef*%
%ADD34R,1.500000X0.900000*%
%TD*%
%TA.AperFunction,HeatsinkPad*%
%ADD35C,0.650000*%
%TD*%
%TA.AperFunction,HeatsinkPad*%
%ADD36R,2.900000X2.900000*%
%TD*%
%TA.AperFunction,SMDPad,CuDef*%
%ADD37RoundRect,0.225000X0.225000X0.250000X-0.225000X0.250000X-0.225000X-0.250000X0.225000X-0.250000X0*%
%TD*%
%TA.AperFunction,SMDPad,CuDef*%
%ADD38RoundRect,0.150000X0.150000X-0.587500X0.150000X0.587500X-0.150000X0.587500X-0.150000X-0.587500X0*%
%TD*%
%TA.AperFunction,SMDPad,CuDef*%
%ADD39RoundRect,0.150000X-0.150000X0.825000X-0.150000X-0.825000X0.150000X-0.825000X0.150000X0.825000X0*%
%TD*%
%TA.AperFunction,ViaPad*%
%ADD40C,0.650000*%
%TD*%
%TA.AperFunction,Conductor*%
%ADD41C,0.500000*%
%TD*%
%TA.AperFunction,Conductor*%
%ADD42C,0.800000*%
%TD*%
%TA.AperFunction,Conductor*%
%ADD43C,0.400000*%
%TD*%
%TA.AperFunction,Conductor*%
%ADD44C,1.000000*%
%TD*%
%TA.AperFunction,Conductor*%
%ADD45C,0.250000*%
%TD*%
%TA.AperFunction,Conductor*%
%ADD46C,0.200000*%
%TD*%
G04 APERTURE END LIST*
D10*
%TO.P,C4,1*%
%TO.N,/BUCK_BOOT*%
X24000000Y38495000D03*
%TO.P,C4,2*%
%TO.N,/BUCK_SW*%
X24000000Y40045000D03*
%TD*%
D11*
%TO.P,D1,1*%
%TO.N,/VPWR*%
X24000000Y28000000D03*
%TO.P,D1,2*%
%TO.N,/CAR_FUSED*%
X24000000Y24000000D03*
%TD*%
D12*
%TO.P,D6,1*%
%TO.N,/GND*%
X38212500Y30000000D03*
%TO.P,D6,2*%
%TO.N,/LED_A*%
X39787500Y30000000D03*
%TD*%
D13*
%TO.P,R18,1*%
%TO.N,/UART_TX*%
X58975000Y39000000D03*
%TO.P,R18,2*%
%TO.N,/PROG_TX*%
X60625000Y39000000D03*
%TD*%
D14*
%TO.P,U4,1*%
%TO.N,/PROG_RX*%
X54860000Y8862500D03*
%TO.P,U4,2*%
%TO.N,/GND*%
X55810000Y8862500D03*
%TO.P,U4,3*%
%TO.N,/PROG_TX*%
X56760000Y8862500D03*
%TO.P,U4,4*%
X56760000Y11137500D03*
%TO.P,U4,5*%
%TO.N,/3V3*%
X55810000Y11137500D03*
%TO.P,U4,6*%
%TO.N,/PROG_RX*%
X54860000Y11137500D03*
%TD*%
D13*
%TO.P,R2,1*%
%TO.N,/BUCK_FB*%
X23475000Y34500000D03*
%TO.P,R2,2*%
%TO.N,/GND*%
X25125000Y34500000D03*
%TD*%
%TO.P,R10,1*%
%TO.N,/3V3*%
X19675000Y21000000D03*
%TO.P,R10,2*%
%TO.N,/CAN_STB*%
X21325000Y21000000D03*
%TD*%
D15*
%TO.P,J3,1*%
%TO.N,/GND*%
X52000000Y6000000D03*
D16*
%TO.P,J3,2*%
%TO.N,/PROG_RX*%
X54540000Y6000000D03*
%TO.P,J3,3*%
%TO.N,/PROG_TX*%
X57080000Y6000000D03*
%TD*%
D17*
%TO.P,J1,1*%
%TO.N,unconnected-(J1-Pad1)*%
X11000000Y11000000D03*
D18*
%TO.P,J1,2*%
%TO.N,/CAN_L*%
X13770000Y11000000D03*
%TO.P,J1,3*%
%TO.N,/GND*%
X16540000Y11000000D03*
%TO.P,J1,4*%
%TO.N,unconnected-(J1-Pad4)*%
X19310000Y11000000D03*
%TO.P,J1,5*%
%TO.N,unconnected-(J1-Pad5)*%
X22080000Y11000000D03*
%TO.P,J1,6*%
%TO.N,unconnected-(J1-Pad6)*%
X12385000Y8160000D03*
%TO.P,J1,7*%
%TO.N,/CAN_H*%
X15155000Y8160000D03*
%TO.P,J1,8*%
%TO.N,unconnected-(J1-Pad8)*%
X17925000Y8160000D03*
%TO.P,J1,9*%
%TO.N,/CAR_12V*%
X20695000Y8160000D03*
D19*
%TO.P,J1,SH*%
%TO.N,/GND*%
X4045001Y9580000D03*
X29035000Y9580000D03*
%TD*%
D20*
%TO.P,R4,1*%
%TO.N,/3V3*%
X59000000Y44175000D03*
%TO.P,R4,2*%
%TO.N,/BOOT_IO2*%
X59000000Y45825000D03*
%TD*%
D21*
%TO.P,C6,1*%
%TO.N,/3V3*%
X30025000Y40500000D03*
%TO.P,C6,2*%
%TO.N,/GND*%
X32975000Y40500000D03*
%TD*%
D22*
%TO.P,L1,1*%
%TO.N,/BUCK_SW*%
X22925000Y44500000D03*
%TO.P,L1,2*%
%TO.N,/3V3*%
X27075000Y44500000D03*
%TD*%
D23*
%TO.P,C11,1*%
%TO.N,/BAT_SENSE*%
X60925000Y42400000D03*
%TO.P,C11,2*%
%TO.N,/GND*%
X62475000Y42400000D03*
%TD*%
D24*
%TO.P,C1,1*%
%TO.N,/VPWR*%
X10500000Y36525000D03*
%TO.P,C1,2*%
%TO.N,/GND*%
X10500000Y39475000D03*
%TD*%
D25*
%TO.P,C9,1*%
%TO.N,/3V3*%
X34550000Y47800000D03*
%TO.P,C9,2*%
%TO.N,/GND*%
X36450000Y47800000D03*
%TD*%
D13*
%TO.P,R9,1*%
%TO.N,/STATUS_LED*%
X34175000Y30000000D03*
%TO.P,R9,2*%
%TO.N,/LED_A*%
X35825000Y30000000D03*
%TD*%
D26*
%TO.P,R19,1*%
%TO.N,/PROG_RX*%
X60625000Y37000000D03*
%TO.P,R19,2*%
%TO.N,/UART_RX*%
X58975000Y37000000D03*
%TD*%
D21*
%TO.P,C7,1*%
%TO.N,/3V3*%
X30025000Y36500000D03*
%TO.P,C7,2*%
%TO.N,/GND*%
X32975000Y36500000D03*
%TD*%
%TO.P,C5,1*%
%TO.N,/3V3*%
X30025000Y44500000D03*
%TO.P,C5,2*%
%TO.N,/GND*%
X32975000Y44500000D03*
%TD*%
D27*
%TO.P,D3,1*%
%TO.N,/VPWR*%
X10000000Y27850000D03*
%TO.P,D3,2*%
%TO.N,/GND*%
X10000000Y32150000D03*
%TD*%
D28*
%TO.P,C2,1*%
%TO.N,/VPWR*%
X13600000Y38320000D03*
%TO.P,C2,2*%
%TO.N,/GND*%
X13600000Y40220000D03*
%TD*%
D29*
%TO.P,F1,1*%
%TO.N,/CAR_12V*%
X24000000Y16045000D03*
%TO.P,F1,2*%
%TO.N,/CAR_FUSED*%
X24000000Y20955000D03*
%TD*%
D13*
%TO.P,R3,1*%
%TO.N,/3V3*%
X35175000Y43200000D03*
%TO.P,R3,2*%
%TO.N,/ESP_EN*%
X36825000Y43200000D03*
%TD*%
D30*
%TO.P,SW1,1*%
%TO.N,/ESP_EN*%
X27850000Y25900000D03*
X34150000Y25900000D03*
%TO.P,SW1,2*%
%TO.N,/GND*%
X27850000Y22100000D03*
X34150000Y22100000D03*
%TD*%
D23*
%TO.P,C8,1*%
%TO.N,/ESP_EN*%
X35225000Y40900000D03*
%TO.P,C8,2*%
%TO.N,/GND*%
X36775000Y40900000D03*
%TD*%
D13*
%TO.P,R5,1*%
%TO.N,/3V3*%
X35175000Y38500000D03*
%TO.P,R5,2*%
%TO.N,/BOOT_IO8*%
X36825000Y38500000D03*
%TD*%
D31*
%TO.P,U1,1*%
%TO.N,/GND*%
X16125000Y39905000D03*
%TO.P,U1,2*%
%TO.N,/VPWR*%
X16125000Y38635000D03*
%TO.P,U1,3*%
X16125000Y37365000D03*
%TO.P,U1,4*%
%TO.N,unconnected-(U1-PG-Pad4)*%
X16125000Y36095000D03*
%TO.P,U1,5*%
%TO.N,/BUCK_FB*%
X21875000Y36095000D03*
%TO.P,U1,6*%
%TO.N,/BUCK_VCC*%
X21875000Y37365000D03*
%TO.P,U1,7*%
%TO.N,/BUCK_BOOT*%
X21875000Y38635000D03*
%TO.P,U1,8*%
%TO.N,/BUCK_SW*%
X21875000Y39905000D03*
D32*
%TO.P,U1,9*%
%TO.N,/GND*%
X18350000Y39300000D03*
X18350000Y38000000D03*
X18350000Y36700000D03*
D33*
X19000000Y38000000D03*
D32*
X19650000Y39300000D03*
X19650000Y38000000D03*
X19650000Y36700000D03*
%TD*%
D10*
%TO.P,C12,1*%
%TO.N,/3V3*%
X15065000Y26725000D03*
%TO.P,C12,2*%
%TO.N,/GND*%
X15065000Y28275000D03*
%TD*%
D20*
%TO.P,R8,1*%
%TO.N,/BAT_SENSE*%
X62000000Y44375000D03*
%TO.P,R8,2*%
%TO.N,/GND*%
X62000000Y46025000D03*
%TD*%
D13*
%TO.P,R7,1*%
%TO.N,/VPWR*%
X59175000Y47500000D03*
%TO.P,R7,2*%
%TO.N,/BAT_SENSE*%
X60825000Y47500000D03*
%TD*%
D34*
%TO.P,U2,1*%
%TO.N,/3V3*%
X39250000Y48000000D03*
%TO.P,U2,2*%
%TO.N,/ESP_EN*%
X39250000Y46500000D03*
%TO.P,U2,3*%
%TO.N,/CAN_TX*%
X39250000Y45000000D03*
%TO.P,U2,4*%
%TO.N,/CAN_RX*%
X39250000Y43500000D03*
%TO.P,U2,5*%
%TO.N,unconnected-(U2-IO6-Pad5)*%
X39250000Y42000000D03*
%TO.P,U2,6*%
%TO.N,/STATUS_LED*%
X39250000Y40500000D03*
%TO.P,U2,7*%
%TO.N,/BOOT_IO8*%
X39250000Y39000000D03*
%TO.P,U2,8*%
%TO.N,/BOOT_IO9*%
X39250000Y37500000D03*
%TO.P,U2,9*%
%TO.N,/GND*%
X39250000Y36000000D03*
%TO.P,U2,10*%
%TO.N,unconnected-(U2-IO10-Pad10)*%
X56750000Y36000000D03*
%TO.P,U2,11*%
%TO.N,/UART_RX*%
X56750000Y37500000D03*
%TO.P,U2,12*%
%TO.N,/UART_TX*%
X56750000Y39000000D03*
%TO.P,U2,13*%
%TO.N,unconnected-(U2-IO18-Pad13)*%
X56750000Y40500000D03*
%TO.P,U2,14*%
%TO.N,unconnected-(U2-IO19-Pad14)*%
X56750000Y42000000D03*
%TO.P,U2,15*%
%TO.N,unconnected-(U2-IO3-Pad15)*%
X56750000Y43500000D03*
%TO.P,U2,16*%
%TO.N,/BOOT_IO2*%
X56750000Y45000000D03*
%TO.P,U2,17*%
%TO.N,/CAN_STB*%
X56750000Y46500000D03*
%TO.P,U2,18*%
%TO.N,/BAT_SENSE*%
X56750000Y48000000D03*
D35*
%TO.P,U2,19*%
%TO.N,/GND*%
X47860000Y42350000D03*
X47860000Y41250000D03*
X48410000Y42900000D03*
X48410000Y41800000D03*
X48410000Y40700000D03*
X48960000Y42350000D03*
D36*
X48960000Y41800000D03*
D35*
X48960000Y41250000D03*
X49510000Y42900000D03*
X49510000Y41800000D03*
X49510000Y40700000D03*
X50060000Y42350000D03*
X50060000Y41250000D03*
%TD*%
D13*
%TO.P,R20,1*%
%TO.N,/3V3*%
X53675000Y33000000D03*
%TO.P,R20,2*%
%TO.N,/UART_RX*%
X55325000Y33000000D03*
%TD*%
D10*
%TO.P,C14,1*%
%TO.N,/3V3*%
X55810000Y13225000D03*
%TO.P,C14,2*%
%TO.N,/GND*%
X55810000Y14775000D03*
%TD*%
D37*
%TO.P,C13,1*%
%TO.N,/3V3*%
X11575000Y19500000D03*
%TO.P,C13,2*%
%TO.N,/GND*%
X10025000Y19500000D03*
%TD*%
D38*
%TO.P,D4,1*%
%TO.N,/CAN_L*%
X13550000Y14862500D03*
%TO.P,D4,2*%
%TO.N,/CAN_H*%
X15450000Y14862500D03*
%TO.P,D4,3*%
%TO.N,/GND*%
X14500000Y16737500D03*
%TD*%
D39*
%TO.P,U3,1*%
%TO.N,/CAN_TX*%
X17605000Y24475000D03*
%TO.P,U3,2*%
%TO.N,/GND*%
X16335000Y24475000D03*
%TO.P,U3,3*%
%TO.N,/3V3*%
X15065000Y24475000D03*
%TO.P,U3,4*%
%TO.N,/CAN_RX*%
X13795000Y24475000D03*
%TO.P,U3,5*%
%TO.N,/3V3*%
X13795000Y19525000D03*
%TO.P,U3,6*%
%TO.N,/CAN_L*%
X15065000Y19525000D03*
%TO.P,U3,7*%
%TO.N,/CAN_H*%
X16335000Y19525000D03*
%TO.P,U3,8*%
%TO.N,/CAN_STB*%
X17605000Y19525000D03*
%TD*%
D23*
%TO.P,C10,1*%
%TO.N,/3V3*%
X35225000Y45500000D03*
%TO.P,C10,2*%
%TO.N,/GND*%
X36775000Y45500000D03*
%TD*%
D13*
%TO.P,R6,1*%
%TO.N,/3V3*%
X35175000Y36000000D03*
%TO.P,R6,2*%
%TO.N,/BOOT_IO9*%
X36825000Y36000000D03*
%TD*%
D30*
%TO.P,SW2,1*%
%TO.N,/BOOT_IO9*%
X38850000Y25900000D03*
X45150000Y25900000D03*
%TO.P,SW2,2*%
%TO.N,/GND*%
X38850000Y22100000D03*
X45150000Y22100000D03*
%TD*%
D23*
%TO.P,C3,1*%
%TO.N,/BUCK_VCC*%
X24425000Y37000000D03*
%TO.P,C3,2*%
%TO.N,/GND*%
X25975000Y37000000D03*
%TD*%
D20*
%TO.P,R1,1*%
%TO.N,/3V3*%
X21900000Y32175000D03*
%TO.P,R1,2*%
%TO.N,/BUCK_FB*%
X21900000Y33825000D03*
%TD*%
D40*
%TO.N,/VPWR*%
X44262900Y24104300D03*
X8250000Y27850000D03*
X22500000Y28000000D03*
X8550000Y36525000D03*
X29549000Y23850000D03*
X58206100Y46684700D03*
%TO.N,/GND*%
X2000000Y18000000D03*
X55810000Y6900000D03*
X37000000Y18000000D03*
X37550000Y47800000D03*
X14500000Y15700000D03*
X26125000Y34500000D03*
X7000000Y43000000D03*
X60925000Y46025000D03*
X37000000Y23000000D03*
X55810000Y7800000D03*
X31799999Y40500000D03*
X49000000Y23000000D03*
X44000000Y48000000D03*
X60260660Y7740661D03*
X63000000Y3000000D03*
X7000000Y18000000D03*
X37000000Y28000000D03*
X16125000Y40755000D03*
X49000000Y33000000D03*
X44000000Y3000000D03*
X51525000Y13825000D03*
X32000000Y23000000D03*
X57300000Y2300000D03*
X37000000Y3000000D03*
X63525000Y42400000D03*
X44000000Y18000000D03*
X13600000Y41320000D03*
X37175000Y30000000D03*
X16335000Y26050000D03*
X32000000Y48000000D03*
X2000000Y13000000D03*
X60000000Y13000000D03*
X7000000Y13000000D03*
X8550000Y39475000D03*
X59200000Y7855001D03*
X2000000Y23000000D03*
X2000000Y33000000D03*
X32000000Y3000000D03*
X51739339Y7740661D03*
X7000000Y48000000D03*
X8250000Y32150000D03*
X55750000Y2300000D03*
X58000000Y4200000D03*
X2000000Y43000000D03*
X32000000Y13000000D03*
X32000000Y33000000D03*
X49000000Y48000000D03*
X37400000Y22100000D03*
X7000000Y33000000D03*
X37825000Y45500000D03*
X46425000Y10825000D03*
X37000000Y13000000D03*
X49625000Y7000000D03*
X31799999Y44500000D03*
X44000000Y43000000D03*
X56950000Y14775000D03*
X60000000Y18000000D03*
X49000000Y18000000D03*
X7000000Y28000000D03*
X27025000Y37000000D03*
X17300000Y41400000D03*
X49000000Y3000000D03*
X44000000Y28000000D03*
X63825000Y12500000D03*
X54000000Y3400000D03*
X37000000Y33000000D03*
X2000000Y48000000D03*
X52800000Y7855001D03*
X37825000Y40900000D03*
X26400000Y22100000D03*
X44000000Y33000000D03*
X63000000Y48000000D03*
X8975000Y19500000D03*
X2000000Y28000000D03*
X44000000Y13000000D03*
X7000000Y3000000D03*
X7000000Y23000000D03*
X2000000Y3000000D03*
X31799999Y36500000D03*
X49000000Y28000000D03*
X13990000Y28275000D03*
X49300000Y14650000D03*
X32000000Y18000000D03*
X49000000Y13000000D03*
%TO.N,/PROG_TX*%
X61000000Y39000000D03*
X57800000Y11137500D03*
%TO.N,/PROG_RX*%
X53800000Y11137500D03*
X61400000Y36400000D03*
%TO.N,/3V3*%
X34175000Y45500000D03*
X28849999Y44500000D03*
X15065000Y22900000D03*
X13795000Y21100000D03*
X34175000Y38500000D03*
X34175000Y36000000D03*
X40600000Y48000000D03*
X33449999Y47800000D03*
X12625000Y19500000D03*
X28849999Y40500000D03*
X13990000Y26725000D03*
X18674999Y21000000D03*
X28849999Y36500000D03*
X54700000Y13225000D03*
X60075000Y44175000D03*
X53675000Y33000000D03*
X34175000Y43200000D03*
%TO.N,/CAR_12V*%
X24000000Y14500000D03*
%TO.N,/STATUS_LED*%
X37685600Y39850000D03*
X32709200Y29773500D03*
%TO.N,/UART_RX*%
X58700000Y35600000D03*
X55325000Y33000000D03*
%TO.N,/ESP_EN*%
X36825000Y42025000D03*
X40400000Y46500000D03*
%TO.N,/CAN_TX*%
X41814800Y45393800D03*
X33010000Y27314500D03*
%TO.N,/CAN_RX*%
X37702200Y44450000D03*
X25207300Y30500000D03*
%TD*%
%TO.N,/BUCK_BOOT*%
D41*
X23860000Y38635000D02*
X24000000Y38495000D01*
X21875000Y38635000D02*
X23860000Y38635000D01*
%TO.N,/BUCK_SW*%
X21875000Y39905000D02*
X23860000Y39905000D01*
D42*
X22925000Y40955000D02*
X22925000Y44500000D01*
D41*
X23860000Y39905000D02*
X24000000Y40045000D01*
D42*
X21875000Y39905000D02*
X22925000Y40955000D01*
%TO.N,/VPWR*%
X29549000Y23850000D02*
X30240700Y24541700D01*
D41*
X16125000Y38635000D02*
X16125000Y37365000D01*
X13600000Y38320000D02*
X15300000Y38320000D01*
D43*
X10500000Y36525000D02*
X8550000Y36525000D01*
D42*
X44700200Y24541700D02*
X44700200Y24541600D01*
D41*
X15300000Y38320000D02*
X16125000Y38635000D01*
D43*
X24000000Y28000000D02*
X22500000Y28000000D01*
D42*
X58206100Y46684700D02*
X59021400Y47500000D01*
D43*
X10000000Y27850000D02*
X8250000Y27850000D01*
D42*
X44700200Y24541600D02*
X44262900Y24104300D01*
X30240700Y24541700D02*
X44700200Y24541700D01*
X59021400Y47500000D02*
X59175000Y47500000D01*
%TO.N,/CAR_FUSED*%
D44*
X24000000Y20955000D02*
X24000000Y24000000D01*
%TO.N,/GND*%
D43*
X27850000Y22100000D02*
X26400000Y22100000D01*
X13600000Y40220000D02*
X13600000Y41320000D01*
X62000000Y46025000D02*
X60925000Y46025000D01*
X38212500Y30000000D02*
X37175000Y30000000D01*
X36450000Y47800000D02*
X37550000Y47800000D01*
X32975000Y40500000D02*
X31799999Y40500000D01*
X25975000Y37000000D02*
X27025000Y37000000D01*
X32975000Y36500000D02*
X31799999Y36500000D01*
X10025000Y19500000D02*
X8975000Y19500000D01*
X36775000Y45500000D02*
X37825000Y45500000D01*
X38850000Y22100000D02*
X37400000Y22100000D01*
X14500000Y16737500D02*
X14500000Y15700000D01*
X10000000Y32150000D02*
X8250000Y32150000D01*
X16335000Y24475000D02*
X16335000Y26050000D01*
D41*
X13600000Y40220000D02*
X15500000Y40220000D01*
D43*
X55810000Y8862500D02*
X55810000Y7800000D01*
X15065000Y28275000D02*
X13990000Y28275000D01*
X10500000Y39475000D02*
X8550000Y39475000D01*
X55810000Y7800000D02*
X55810000Y6900000D01*
X32975000Y44500000D02*
X31799999Y44500000D01*
X16125000Y39905000D02*
X16125000Y40755000D01*
D41*
X15500000Y40220000D02*
X16125000Y39905000D01*
D43*
X25125000Y34500000D02*
X26125000Y34500000D01*
X62475000Y42400000D02*
X63525000Y42400000D01*
X55810000Y14775000D02*
X56950000Y14775000D01*
X36775000Y40900000D02*
X37825000Y40900000D01*
%TO.N,/LED_A*%
D45*
X35825000Y30000000D02*
X36672800Y29152200D01*
X36672800Y29152200D02*
X38939700Y29152200D01*
X38939700Y29152200D02*
X39787500Y30000000D01*
%TO.N,/UART_TX*%
X56750000Y39000000D02*
X58975000Y39000000D01*
%TO.N,/PROG_TX*%
X56760000Y8862500D02*
X56760000Y6320000D01*
X56760000Y8862500D02*
X56760000Y11137500D01*
X56760000Y6320000D02*
X57080000Y6000000D01*
X57800000Y11137500D02*
X56760000Y11137500D01*
X60625000Y39000000D02*
X61000000Y39000000D01*
%TO.N,/PROG_RX*%
X53800000Y11137500D02*
X54860000Y11137500D01*
X54860000Y8862500D02*
X54860000Y11137500D01*
X54860000Y6320000D02*
X54540000Y6000000D01*
X60625000Y37000000D02*
X61400000Y36400000D01*
X54860000Y8862500D02*
X54860000Y6320000D01*
%TO.N,/3V3*%
D43*
X15065000Y24475000D02*
X15065000Y22900000D01*
X35225000Y45500000D02*
X34175000Y45500000D01*
X30025000Y44500000D02*
X28849999Y44500000D01*
D45*
X29300000Y35775000D02*
X29300000Y31300000D01*
D43*
X35175000Y36000000D02*
X34175000Y36000000D01*
X35175000Y43200000D02*
X34175000Y43200000D01*
D45*
X22775000Y31300000D02*
X21900000Y32175000D01*
D43*
X30025000Y40500000D02*
X28849999Y40500000D01*
X35175000Y38500000D02*
X34175000Y38500000D01*
X55810000Y11137500D02*
X55810000Y13225000D01*
X39250000Y48000000D02*
X40600000Y48000000D01*
D45*
X30025000Y36500000D02*
X29300000Y35775000D01*
D43*
X15065000Y26725000D02*
X13990000Y26725000D01*
X59000000Y44175000D02*
X60075000Y44175000D01*
X34550000Y47800000D02*
X33449999Y47800000D01*
X30025000Y36500000D02*
X28849999Y36500000D01*
X55810000Y13225000D02*
X54700000Y13225000D01*
X19675000Y21000000D02*
X18674999Y21000000D01*
D45*
X29300000Y31300000D02*
X22775000Y31300000D01*
D43*
X11575000Y19500000D02*
X12625000Y19500000D01*
X13795000Y19525000D02*
X13795000Y21100000D01*
%TO.N,/BUCK_FB*%
D45*
X21875000Y34500000D02*
X21900000Y33825000D01*
X21875000Y36095000D02*
X21875000Y34500000D01*
X21875000Y34500000D02*
X23475000Y34500000D01*
%TO.N,/CAN_STB*%
X21325000Y21000000D02*
X21325000Y19617200D01*
X21325000Y19617200D02*
X40803500Y19617200D01*
X21325000Y19617200D02*
X21232800Y19525000D01*
X40803500Y19617200D02*
X48348300Y27162000D01*
X56750000Y46500000D02*
X55673300Y46500000D01*
X48348300Y37147000D02*
X55673300Y44472000D01*
X55673300Y44472000D02*
X55673300Y46500000D01*
X48348300Y27162000D02*
X48348300Y37147000D01*
X21232800Y19525000D02*
X17605000Y19525000D01*
%TO.N,/CAN_L*%
X15065000Y19525000D02*
X15065000Y18800000D01*
X13550000Y11220000D02*
X13770000Y11000000D01*
X13550000Y17285000D02*
X13550000Y15562500D01*
X13550000Y15562500D02*
X13550000Y11220000D01*
X15065000Y18800000D02*
X13550000Y17285000D01*
%TO.N,/CAN_H*%
X15450000Y11500000D02*
X15155000Y11205000D01*
X15155000Y11205000D02*
X15155000Y8160000D01*
X16335000Y18265000D02*
X15450000Y17380001D01*
X15450000Y15562500D02*
X15450000Y11500000D01*
X15450000Y17380001D02*
X15450000Y15562500D01*
X16335000Y19525000D02*
X16335000Y18265000D01*
%TO.N,/CAR_12V*%
D44*
X24000000Y14500000D02*
X24000000Y16045000D01*
%TO.N,/BOOT_IO2*%
D46*
X57795400Y45321200D02*
X57795400Y45000000D01*
X56750000Y45000000D02*
X57795400Y45000000D01*
D45*
X59000000Y45825000D02*
X58899800Y45724800D01*
X58899800Y45724800D02*
X58199000Y45724800D01*
D46*
X58199000Y45724800D02*
X57795400Y45321200D01*
%TO.N,/BAT_SENSE*%
D45*
X60925000Y43650400D02*
X61649600Y44375000D01*
X61649600Y44375000D02*
X60263200Y45761400D01*
X56750000Y48000000D02*
X57826700Y48000000D01*
X60825000Y47500000D02*
X60825000Y48301000D01*
X60925000Y42400000D02*
X60925000Y43650400D01*
X58364600Y48537900D02*
X57826700Y48000000D01*
X62000000Y44375000D02*
X61649600Y44375000D01*
X59312500Y48537900D02*
X58364600Y48537900D01*
D46*
X60825000Y48301000D02*
X59549400Y48301000D01*
D45*
X60263200Y46938200D02*
X60825000Y47500000D01*
D46*
X59549400Y48301000D02*
X59312500Y48537900D01*
D45*
X60263200Y45761400D02*
X60263200Y46938200D01*
%TO.N,/STATUS_LED*%
X38600000Y39850000D02*
X37685600Y39850000D01*
X32709200Y29773500D02*
X33948500Y29773500D01*
X33948500Y29773500D02*
X34175000Y30000000D01*
X39250000Y40500000D02*
X38600000Y39850000D01*
%TO.N,/UART_RX*%
X57700000Y37500000D02*
X58200000Y37000000D01*
X58200000Y37000000D02*
X58975000Y37000000D01*
X56750000Y37500000D02*
X57700000Y37500000D01*
X58975000Y37000000D02*
X58700000Y35600000D01*
%TO.N,/ESP_EN*%
X35064200Y33013700D02*
X35998900Y33948400D01*
X35225000Y40900000D02*
X35225000Y41600000D01*
X35326700Y26551700D02*
X35064200Y26814200D01*
X35064200Y26814200D02*
X35064200Y33013700D01*
X34150000Y25900000D02*
X32973300Y25900000D01*
X39250000Y46500000D02*
X40400000Y46500000D01*
X35998900Y40126100D02*
X35225000Y40900000D01*
X35225000Y41600000D02*
X36825000Y43200000D01*
X35326700Y25900000D02*
X35326700Y26551700D01*
X36825000Y42025000D02*
X36825000Y43200000D01*
X32973300Y25900000D02*
X27850000Y25900000D01*
X34150000Y25900000D02*
X35326700Y25900000D01*
X35998900Y33948400D02*
X35998900Y40126100D01*
%TO.N,/BOOT_IO8*%
X39250000Y39000000D02*
X38173300Y39000000D01*
X37673300Y38500000D02*
X38173300Y39000000D01*
X36825000Y38500000D02*
X37673300Y38500000D01*
%TO.N,/BUCK_VCC*%
D41*
X21875000Y37365000D02*
X22860000Y37365000D01*
X22860000Y37365000D02*
X24425000Y37000000D01*
%TO.N,/CAN_TX*%
D45*
X19216900Y26086900D02*
X24656900Y26086900D01*
X17605000Y24475000D02*
X19216900Y26086900D01*
X39250000Y45000000D02*
X40326700Y45000000D01*
X40720500Y45393800D02*
X40326700Y45000000D01*
X41814800Y45393800D02*
X40720500Y45393800D01*
X25884500Y27314500D02*
X33010000Y27314500D01*
X24656900Y26086900D02*
X25884500Y27314500D01*
%TO.N,/CAN_RX*%
X13795000Y24475000D02*
X13300400Y24969600D01*
X13300400Y24969600D02*
X13300400Y28619200D01*
X15181200Y30500000D02*
X25207300Y30500000D01*
X38173300Y43978900D02*
X37702200Y44450000D01*
X13300400Y28619200D02*
X15181200Y30500000D01*
X38173300Y43500000D02*
X38173300Y43978900D01*
X39250000Y43500000D02*
X38173300Y43500000D01*
%TO.N,/BOOT_IO9*%
D46*
X37551000Y36775200D02*
X38204600Y37428800D01*
D45*
X40582000Y26455300D02*
X40026700Y25900000D01*
D46*
X39250000Y37500000D02*
X38204600Y37500000D01*
X38204600Y37428800D02*
X38204600Y37500000D01*
D45*
X36825000Y36049200D02*
X37551000Y36775200D01*
X36825000Y36000000D02*
X40582000Y32243000D01*
X36825000Y36000000D02*
X36825000Y36049200D01*
X38850000Y25900000D02*
X40026700Y25900000D01*
X45150000Y25900000D02*
X40026700Y25900000D01*
X40582000Y32243000D02*
X40582000Y26455300D01*
%TD*%
%TA.AperFunction,Conductor*%
%TO.N,/GND*%
G36*
X40228663Y29330449D02*
G01*
X40230141Y29329186D01*
X40254046Y29290187D01*
X40254454Y29288488D01*
X40256500Y29271209D01*
X40256500Y26635498D01*
X40250867Y26607182D01*
X40240459Y26582052D01*
X40224418Y26558046D01*
X40037233Y26370861D01*
X40013224Y26354819D01*
X40005865Y26351771D01*
X39949228Y26351773D01*
X39909183Y26391816D01*
X39905599Y26400469D01*
X39901644Y26416269D01*
X39901209Y26416182D01*
X39895038Y26447206D01*
X39895038Y26447208D01*
X39888867Y26478231D01*
X39844552Y26544552D01*
X39822343Y26559392D01*
X39815106Y26564228D01*
X39801774Y26584185D01*
X39762106Y26592075D01*
X39748989Y26594684D01*
X39748988Y26594685D01*
X39719748Y26600500D01*
X37980252Y26600500D01*
X37951010Y26594685D01*
X37951010Y26594684D01*
X37943749Y26593240D01*
X37921769Y26588868D01*
X37921766Y26588867D01*
X37855451Y26544555D01*
X37855448Y26544553D01*
X37811133Y26478234D01*
X37808802Y26466512D01*
X37799500Y26419747D01*
X37799500Y25380254D01*
X37811133Y25321768D01*
X37834549Y25286724D01*
X37846023Y25269554D01*
X37857073Y25242879D01*
X37859210Y25232137D01*
X37848162Y25176587D01*
X37808130Y25146890D01*
X37803196Y25145392D01*
X37781698Y25142200D01*
X35222045Y25142200D01*
X35193727Y25147833D01*
X35183607Y25152025D01*
X35143560Y25192072D01*
X35141111Y25241863D01*
X35141419Y25242879D01*
X35142609Y25246803D01*
X35151895Y25266438D01*
X35159392Y25277657D01*
X35187582Y25319847D01*
X35190280Y25323622D01*
X35195667Y25330684D01*
X35196326Y25332273D01*
X35194032Y25347737D01*
X35200500Y25380254D01*
X35200500Y25485782D01*
X35206129Y25514091D01*
X35210443Y25524506D01*
X35250482Y25564552D01*
X35260911Y25568872D01*
X35289219Y25574500D01*
X35379818Y25574500D01*
X35388706Y25579633D01*
X35452338Y25596682D01*
X35526562Y25639535D01*
X35587165Y25700138D01*
X35630018Y25774362D01*
X35647067Y25837994D01*
X35652200Y25846883D01*
X35652200Y26594553D01*
X35635960Y26655162D01*
X35635960Y26655163D01*
X35630165Y26676790D01*
X35630031Y26677307D01*
X35630019Y26677337D01*
X35629723Y26677849D01*
X35587165Y26751562D01*
X35421781Y26916946D01*
X35405741Y26940952D01*
X35395331Y26966084D01*
X35389700Y26994398D01*
X35389700Y29259925D01*
X35395329Y29288234D01*
X35399643Y29298649D01*
X35439682Y29338695D01*
X35441492Y29339445D01*
X35487072Y29343032D01*
X35489248Y29342510D01*
X35494831Y29340935D01*
X35499696Y29339354D01*
X35593481Y29324500D01*
X35994801Y29324501D01*
X36023115Y29318870D01*
X36048247Y29308460D01*
X36072253Y29292420D01*
X36472938Y28891735D01*
X36547161Y28848882D01*
X36629947Y28826700D01*
X36629949Y28826700D01*
X38982551Y28826700D01*
X38982553Y28826700D01*
X39065339Y28848882D01*
X39139562Y28891735D01*
X39540248Y29292422D01*
X39564251Y29308459D01*
X39589382Y29318869D01*
X39617698Y29324500D01*
X40039248Y29324500D01*
X40054835Y29326969D01*
X40071970Y29329683D01*
X40137420Y29340049D01*
X40137427Y29340053D01*
X40142958Y29341849D01*
X40143139Y29341291D01*
X40163577Y29347057D01*
X40174808Y29347941D01*
X40228663Y29330449D01*
G37*
%TD.AperFunction*%
%TA.AperFunction,Conductor*%
G36*
X36423462Y35375899D02*
G01*
X36439788Y35369879D01*
X36499696Y35339354D01*
X36593481Y35324500D01*
X36994801Y35324501D01*
X37023115Y35318870D01*
X37048247Y35308460D01*
X37072253Y35292420D01*
X40224418Y32140255D01*
X40240457Y32116252D01*
X40250868Y32091118D01*
X40256500Y32062803D01*
X40256500Y30734753D01*
X40250867Y30706435D01*
X40246556Y30696027D01*
X40206508Y30655979D01*
X40206505Y30655978D01*
X40206504Y30655977D01*
X40204710Y30655234D01*
X40159125Y30651646D01*
X40157423Y30652054D01*
X40141100Y30658076D01*
X40137418Y30659952D01*
X40039248Y30675500D01*
X40039247Y30675500D01*
X40039246Y30675500D01*
X39535754Y30675500D01*
X39535753Y30675500D01*
X39535751Y30675500D01*
X39431774Y30659034D01*
X39424463Y30653270D01*
X39319252Y30599662D01*
X39319251Y30599662D01*
X39225340Y30505750D01*
X39225338Y30505748D01*
X39171730Y30400537D01*
X39165966Y30393226D01*
X39149500Y30289249D01*
X39149500Y29867698D01*
X39143867Y29839382D01*
X39139049Y29827747D01*
X39133459Y29814252D01*
X39117418Y29790246D01*
X38836954Y29509782D01*
X38812948Y29493742D01*
X38787818Y29483333D01*
X38759502Y29477700D01*
X36852998Y29477700D01*
X36824680Y29483333D01*
X36799551Y29493742D01*
X36775545Y29509782D01*
X36457580Y29827747D01*
X36441540Y29851753D01*
X36431130Y29876885D01*
X36425499Y29905199D01*
X36425499Y30306521D01*
X36412686Y30387421D01*
X36410646Y30400305D01*
X36410645Y30400307D01*
X36356918Y30505750D01*
X36353050Y30513342D01*
X36263342Y30603050D01*
X36263341Y30603051D01*
X36263340Y30603052D01*
X36150421Y30660587D01*
X36150356Y30660620D01*
X36150304Y30660646D01*
X36150302Y30660647D01*
X36150301Y30660647D01*
X36147387Y30661335D01*
X36144549Y30661558D01*
X36056520Y30675500D01*
X36056519Y30675500D01*
X35593480Y30675500D01*
X35593478Y30675500D01*
X35489565Y30659044D01*
X35483794Y30658361D01*
X35471388Y30657385D01*
X35417535Y30674878D01*
X35416056Y30676141D01*
X35392143Y30715179D01*
X35391736Y30716878D01*
X35389700Y30734117D01*
X35389700Y32833503D01*
X35395331Y32861817D01*
X35405742Y32886952D01*
X35421778Y32910952D01*
X35817347Y33306520D01*
X36259365Y33748538D01*
X36302217Y33822761D01*
X36302218Y33822762D01*
X36319267Y33886394D01*
X36324400Y33895283D01*
X36324400Y35293198D01*
X36330029Y35321507D01*
X36334343Y35331922D01*
X36374382Y35371968D01*
X36376223Y35372731D01*
X36421750Y35376310D01*
X36423462Y35375899D01*
G37*
%TD.AperFunction*%
%TA.AperFunction,Conductor*%
G36*
X33939591Y49693871D02*
G01*
X33950003Y49689558D01*
X33990053Y49649515D01*
X33990056Y49649508D01*
X33994367Y49639100D01*
X34000000Y49610782D01*
X34000000Y49100000D01*
X62000000Y49100000D01*
X62000000Y49610782D01*
X62005629Y49639091D01*
X62009943Y49649506D01*
X62049982Y49689552D01*
X62060411Y49693872D01*
X62088719Y49699500D01*
X64610781Y49699500D01*
X64639091Y49693871D01*
X64649503Y49689558D01*
X64689553Y49649515D01*
X64689556Y49649508D01*
X64693867Y49639100D01*
X64699500Y49610782D01*
X64699500Y389219D01*
X64693867Y360901D01*
X64689556Y350493D01*
X64649508Y310445D01*
X64649507Y310444D01*
X64639099Y306133D01*
X64610781Y300500D01*
X389219Y300500D01*
X360904Y306132D01*
X350495Y310443D01*
X310446Y350487D01*
X306129Y360909D01*
X300500Y389219D01*
X300500Y4118094D01*
X37499500Y4118094D01*
X37499500Y3881908D01*
X37536447Y3648630D01*
X37536453Y3648606D01*
X37609424Y3424025D01*
X37610018Y3422542D01*
X37611309Y3420323D01*
X37716657Y3213567D01*
X37855483Y3022490D01*
X38022490Y2855483D01*
X38022493Y2855481D01*
X38022494Y2855480D01*
X38213567Y2716657D01*
X38213576Y2716652D01*
X38420163Y2611390D01*
X38421102Y2610841D01*
X38423299Y2609777D01*
X38424528Y2609167D01*
X38426767Y2608535D01*
X38646303Y2537203D01*
X38647867Y2536637D01*
X38648039Y2536586D01*
X38648477Y2536472D01*
X38648630Y2536448D01*
X38648632Y2536447D01*
X38804149Y2511816D01*
X38823589Y2508737D01*
X38881906Y2499500D01*
X39118093Y2499500D01*
X39118094Y2499500D01*
X39132672Y2501810D01*
X39176411Y2508737D01*
X39351368Y2536447D01*
X39351367Y2536447D01*
X39351507Y2536469D01*
X39352564Y2536793D01*
X39353242Y2536989D01*
X39354553Y2537482D01*
X39570742Y2607726D01*
X39571005Y2607791D01*
X39575678Y2609330D01*
X39575986Y2609430D01*
X39575986Y2609431D01*
X39575988Y2609432D01*
X39575992Y2609432D01*
X39575995Y2609434D01*
X39576036Y2609447D01*
X39586294Y2612781D01*
X39591812Y2617494D01*
X39786433Y2716657D01*
X39977510Y2855483D01*
X40144517Y3022490D01*
X40283343Y3213567D01*
X40390568Y3424008D01*
X40463553Y3648632D01*
X40500500Y3881908D01*
X40500500Y4118092D01*
X40463553Y4351368D01*
X40463552Y4351370D01*
X40463528Y4351523D01*
X40463414Y4351961D01*
X40463363Y4352133D01*
X40462795Y4353702D01*
X40391466Y4573229D01*
X40390833Y4575472D01*
X40390223Y4576701D01*
X40389159Y4578898D01*
X40388610Y4579837D01*
X40283348Y4786424D01*
X40283343Y4786433D01*
X40145400Y4976295D01*
X40144688Y4977318D01*
X40144576Y4977451D01*
X39977504Y5144523D01*
X39977476Y5144543D01*
X39977251Y5144706D01*
X39786432Y5283345D01*
X39575980Y5390574D01*
X39351394Y5463547D01*
X39351370Y5463553D01*
X39351367Y5463554D01*
X39351365Y5463554D01*
X39213369Y5485410D01*
X39118094Y5500500D01*
X39118093Y5500500D01*
X39118092Y5500500D01*
X38881908Y5500500D01*
X38881907Y5500500D01*
X38881906Y5500500D01*
X38648628Y5463553D01*
X38648604Y5463547D01*
X38424018Y5390574D01*
X38213566Y5283345D01*
X38022498Y5144525D01*
X37855475Y4977502D01*
X37716655Y4786434D01*
X37609426Y4575982D01*
X37536453Y4351396D01*
X37536447Y4351372D01*
X37499500Y4118094D01*
X300500Y4118094D01*
X300500Y6874623D01*
X50900000Y6874623D01*
X50900000Y6150000D01*
X51426701Y6150000D01*
X51479027Y6128326D01*
X51500701Y6076000D01*
X51500068Y6066340D01*
X51500000Y6065824D01*
X51500000Y5934177D01*
X51500068Y5933660D01*
X51500000Y5933407D01*
X51500000Y5929324D01*
X51498906Y5929324D01*
X51485410Y5878953D01*
X51436361Y5850633D01*
X51426701Y5850000D01*
X50900000Y5850000D01*
X50900000Y5125379D01*
X50914504Y5052456D01*
X50964710Y4977318D01*
X50969759Y4969761D01*
X50969760Y4969760D01*
X51052454Y4914506D01*
X51125378Y4900000D01*
X51850000Y4900000D01*
X51850000Y5426701D01*
X51871674Y5479027D01*
X51924000Y5500701D01*
X51933660Y5500068D01*
X51934172Y5500001D01*
X51934174Y5500000D01*
X52065824Y5500000D01*
X52065826Y5500000D01*
X52065827Y5500001D01*
X52066340Y5500068D01*
X52066594Y5500000D01*
X52070676Y5500000D01*
X52070676Y5498907D01*
X52121047Y5485410D01*
X52149367Y5436361D01*
X52150000Y5426701D01*
X52150000Y4900000D01*
X52874621Y4900000D01*
X52874622Y4900000D01*
X52947545Y4914506D01*
X53030239Y4969760D01*
X53030240Y4969761D01*
X53085494Y5052455D01*
X53100000Y5125378D01*
X53100000Y5850000D01*
X52573299Y5850000D01*
X52520973Y5871674D01*
X52499299Y5924000D01*
X52499932Y5933660D01*
X52500000Y5934177D01*
X52500000Y6065824D01*
X52499932Y6066340D01*
X52500000Y6066594D01*
X52500000Y6070676D01*
X52501094Y6070676D01*
X52514590Y6121047D01*
X52563639Y6149367D01*
X52573299Y6150000D01*
X53100000Y6150000D01*
X53100000Y6874623D01*
X53097836Y6885503D01*
X53085494Y6947546D01*
X53030240Y7030240D01*
X53030239Y7030241D01*
X53014817Y7040546D01*
X52947544Y7085496D01*
X52889126Y7097116D01*
X52874622Y7100000D01*
X52874621Y7100000D01*
X52150000Y7100000D01*
X52150000Y6573300D01*
X52128326Y6520974D01*
X52076000Y6499300D01*
X52066353Y6499931D01*
X52065828Y6500000D01*
X52065826Y6500000D01*
X51934174Y6500000D01*
X51934172Y6500000D01*
X51933647Y6499931D01*
X51933390Y6500000D01*
X51929324Y6500000D01*
X51929324Y6501091D01*
X51878942Y6514599D01*
X51850631Y6563653D01*
X51850000Y6573300D01*
X51850000Y7100000D01*
X51125378Y7100000D01*
X51052454Y7085496D01*
X50969760Y7030242D01*
X50969758Y7030240D01*
X50914504Y6947546D01*
X50902164Y6885503D01*
X50900000Y6874623D01*
X300500Y6874623D01*
X300500Y8258541D01*
X11384500Y8258541D01*
X11384500Y8061459D01*
X11389400Y8036826D01*
X11394184Y8012776D01*
X11394184Y8012775D01*
X11422946Y7868173D01*
X11422949Y7868162D01*
X11422951Y7868157D01*
X11498366Y7686089D01*
X11498367Y7686087D01*
X11498368Y7686086D01*
X11607861Y7522218D01*
X11747218Y7382861D01*
X11911086Y7273368D01*
X12093165Y7197949D01*
X12286459Y7159500D01*
X12286461Y7159500D01*
X12483539Y7159500D01*
X12483541Y7159500D01*
X12676835Y7197949D01*
X12858914Y7273368D01*
X13022782Y7382861D01*
X13162139Y7522218D01*
X13271632Y7686086D01*
X13347051Y7868165D01*
X13385500Y8061459D01*
X13385500Y8258541D01*
X13347051Y8451835D01*
X13271632Y8633914D01*
X13162139Y8797782D01*
X13022782Y8937139D01*
X12901623Y9018095D01*
X12894415Y9028882D01*
X12858915Y9046632D01*
X12858910Y9046634D01*
X12858899Y9046639D01*
X12676843Y9122049D01*
X12676838Y9122051D01*
X12676825Y9122055D01*
X12676826Y9122055D01*
X12547388Y9147800D01*
X12547387Y9147801D01*
X12496240Y9157975D01*
X12483541Y9160500D01*
X12483540Y9160500D01*
X12286459Y9160500D01*
X12231662Y9149602D01*
X12231662Y9149601D01*
X12204115Y9144122D01*
X12093171Y9122054D01*
X12093161Y9122051D01*
X12093155Y9122049D01*
X11911086Y9046634D01*
X11746948Y8936961D01*
X11745567Y8935489D01*
X11609511Y8799433D01*
X11608039Y8798052D01*
X11498366Y8633914D01*
X11422951Y8451845D01*
X11422949Y8451839D01*
X11422946Y8451829D01*
X11396158Y8317151D01*
X11396148Y8317100D01*
X11396076Y8316736D01*
X11384500Y8258541D01*
X300500Y8258541D01*
X300500Y11819747D01*
X9999500Y11819747D01*
X9999500Y10180254D01*
X10002388Y10165734D01*
X10011132Y10121770D01*
X10016745Y10113369D01*
X10016746Y10113368D01*
X10055446Y10055450D01*
X10055448Y10055448D01*
X10099558Y10025975D01*
X10099559Y10025973D01*
X10115710Y10015181D01*
X10118539Y10012860D01*
X10118562Y10012847D01*
X10121698Y10010967D01*
X10125258Y10010075D01*
X10125273Y10010071D01*
X10128910Y10009712D01*
X10180252Y9999500D01*
X10180254Y9999500D01*
X11819746Y9999500D01*
X11819748Y9999500D01*
X11878231Y10011133D01*
X11878232Y10011134D01*
X11944552Y10055448D01*
X11988867Y10121769D01*
X12000500Y10180252D01*
X12000500Y11819748D01*
X11988867Y11878231D01*
X11944552Y11944552D01*
X11944550Y11944553D01*
X11944550Y11944554D01*
X11915111Y11964225D01*
X11901775Y11984184D01*
X11878232Y11988867D01*
X11878233Y11988867D01*
X11848989Y11994684D01*
X11848988Y11994685D01*
X11819748Y12000500D01*
X10180252Y12000500D01*
X10151010Y11994685D01*
X10151010Y11994684D01*
X10143749Y11993240D01*
X10121769Y11988868D01*
X10121766Y11988867D01*
X10055451Y11944555D01*
X10055448Y11944553D01*
X10011133Y11878234D01*
X10004404Y11844402D01*
X9999500Y11819747D01*
X300500Y11819747D01*
X300500Y19783491D01*
X10924500Y19783491D01*
X10924500Y19216511D01*
X10940279Y19116874D01*
X10945600Y19106432D01*
X10945601Y19106432D01*
X10964850Y19068654D01*
X11001470Y18996782D01*
X11001472Y18996780D01*
X11096780Y18901472D01*
X11216874Y18840281D01*
X11316509Y18824500D01*
X11833489Y18824500D01*
X11833490Y18824500D01*
X11883307Y18832391D01*
X11933126Y18840281D01*
X12053220Y18901472D01*
X12148528Y18996780D01*
X12149023Y18997753D01*
X12149026Y18997757D01*
X12173597Y19045980D01*
X12191468Y19068652D01*
X12200974Y19076770D01*
X12254836Y19094272D01*
X12277344Y19088870D01*
X12297125Y19080676D01*
X12297125Y19080677D01*
X12303839Y19077896D01*
X12312516Y19073617D01*
X12422164Y19010312D01*
X12551133Y18975756D01*
X12554831Y18974500D01*
X12694185Y18974500D01*
X12704448Y18974500D01*
X12713336Y18979633D01*
X12827836Y19010312D01*
X12947665Y19079495D01*
X13045505Y19177335D01*
X13114688Y19297164D01*
X13119169Y19313885D01*
X13130646Y19356720D01*
X13130646Y19356721D01*
X13130650Y19356735D01*
X13145214Y19411089D01*
X13157977Y19436971D01*
X13161694Y19441815D01*
X13210740Y19470134D01*
X13265448Y19455477D01*
X13291858Y19416005D01*
X13291956Y19415641D01*
X13294500Y19396403D01*
X13294500Y18666733D01*
X13299513Y18632331D01*
X13302989Y18608473D01*
X13303654Y18603913D01*
X13303861Y18601049D01*
X13304426Y18598608D01*
X13304427Y18598606D01*
X13355801Y18493518D01*
X13355802Y18493517D01*
X13438517Y18410802D01*
X13543607Y18359427D01*
X13611740Y18349500D01*
X13611746Y18349500D01*
X13960802Y18349500D01*
X13989116Y18343869D01*
X13996479Y18340819D01*
X14036527Y18300772D01*
X14036529Y18244135D01*
X14033481Y18236776D01*
X14017439Y18212767D01*
X13289532Y17484860D01*
X13243434Y17405017D01*
X13242871Y17396420D01*
X13224500Y17327855D01*
X13224500Y15814130D01*
X13218866Y15785809D01*
X13209463Y15763110D01*
X13193423Y15739105D01*
X13110801Y15656484D01*
X13059426Y15551394D01*
X13058861Y15548952D01*
X13058654Y15546089D01*
X13049500Y15483269D01*
X13049500Y14241733D01*
X13058654Y14178913D01*
X13058861Y14176049D01*
X13059426Y14173608D01*
X13110801Y14068518D01*
X13187512Y13991807D01*
X13197952Y13978678D01*
X13213270Y13954144D01*
X13224500Y13914954D01*
X13224500Y11893073D01*
X13218867Y11864757D01*
X13215441Y11856483D01*
X13210437Y11844402D01*
X13183182Y11811193D01*
X13132221Y11777143D01*
X13132220Y11777141D01*
X12992861Y11637783D01*
X12992860Y11637782D01*
X12969450Y11602746D01*
X12883366Y11473914D01*
X12807951Y11291845D01*
X12807949Y11291839D01*
X12807946Y11291829D01*
X12789104Y11197100D01*
X12769500Y11098540D01*
X12769500Y10901461D01*
X12779046Y10853469D01*
X12807946Y10708173D01*
X12807949Y10708162D01*
X12807951Y10708157D01*
X12883366Y10526088D01*
X12973238Y10391586D01*
X12992860Y10362219D01*
X13132218Y10222861D01*
X13296086Y10113368D01*
X13296091Y10113366D01*
X13296090Y10113366D01*
X13435913Y10055450D01*
X13478165Y10037949D01*
X13671459Y9999500D01*
X13671461Y9999500D01*
X13868539Y9999500D01*
X13868541Y9999500D01*
X14061835Y10037949D01*
X14243914Y10113368D01*
X14407782Y10222861D01*
X14547139Y10362218D01*
X14656632Y10526086D01*
X14681500Y10586125D01*
X14697539Y10610129D01*
X14703175Y10615765D01*
X14755500Y10637438D01*
X14807826Y10615764D01*
X14829500Y10563438D01*
X14829500Y9172272D01*
X14823866Y9143951D01*
X14816506Y9126184D01*
X14776459Y9086138D01*
X14681088Y9046634D01*
X14516948Y8936960D01*
X14515572Y8935494D01*
X14379511Y8799433D01*
X14378039Y8798052D01*
X14268366Y8633914D01*
X14192951Y8451845D01*
X14192949Y8451839D01*
X14192946Y8451829D01*
X14166078Y8316747D01*
X14166076Y8316736D01*
X14154500Y8258541D01*
X14154500Y8061459D01*
X14159400Y8036826D01*
X14164184Y8012776D01*
X14164184Y8012775D01*
X14192946Y7868173D01*
X14192949Y7868162D01*
X14192951Y7868157D01*
X14268366Y7686089D01*
X14268367Y7686087D01*
X14268368Y7686086D01*
X14377861Y7522218D01*
X14517218Y7382861D01*
X14681086Y7273368D01*
X14863165Y7197949D01*
X15056459Y7159500D01*
X15056461Y7159500D01*
X15253539Y7159500D01*
X15253541Y7159500D01*
X15446835Y7197949D01*
X15628914Y7273368D01*
X15792782Y7382861D01*
X15932139Y7522218D01*
X16041632Y7686086D01*
X16117051Y7868165D01*
X16155500Y8061459D01*
X16155500Y8258541D01*
X16924500Y8258541D01*
X16924500Y8061459D01*
X16929400Y8036826D01*
X16934184Y8012776D01*
X16934184Y8012775D01*
X16962946Y7868173D01*
X16962949Y7868162D01*
X16962951Y7868157D01*
X17038366Y7686089D01*
X17038367Y7686087D01*
X17038368Y7686086D01*
X17147861Y7522218D01*
X17287218Y7382861D01*
X17451086Y7273368D01*
X17633165Y7197949D01*
X17826459Y7159500D01*
X17826461Y7159500D01*
X18023539Y7159500D01*
X18023541Y7159500D01*
X18216835Y7197949D01*
X18398914Y7273368D01*
X18562782Y7382861D01*
X18702139Y7522218D01*
X18811632Y7686086D01*
X18887051Y7868165D01*
X18925500Y8061459D01*
X18925500Y8258541D01*
X19694500Y8258541D01*
X19694500Y8061459D01*
X19699400Y8036826D01*
X19704184Y8012776D01*
X19704184Y8012775D01*
X19732946Y7868173D01*
X19732949Y7868162D01*
X19732951Y7868157D01*
X19808366Y7686089D01*
X19808367Y7686087D01*
X19808368Y7686086D01*
X19917861Y7522218D01*
X20057218Y7382861D01*
X20221086Y7273368D01*
X20403165Y7197949D01*
X20596459Y7159500D01*
X20596461Y7159500D01*
X20793539Y7159500D01*
X20793541Y7159500D01*
X20986835Y7197949D01*
X21168914Y7273368D01*
X21332782Y7382861D01*
X21472139Y7522218D01*
X21581632Y7686086D01*
X21657051Y7868165D01*
X21695500Y8061459D01*
X21695500Y8258541D01*
X21657051Y8451835D01*
X21581632Y8633914D01*
X21472139Y8797782D01*
X21332782Y8937139D01*
X21211623Y9018095D01*
X21204415Y9028882D01*
X21168915Y9046632D01*
X21168910Y9046634D01*
X21168899Y9046639D01*
X20986843Y9122049D01*
X20986838Y9122051D01*
X20986825Y9122055D01*
X20986826Y9122055D01*
X20857388Y9147800D01*
X20857387Y9147801D01*
X20806240Y9157975D01*
X20793541Y9160500D01*
X20793540Y9160500D01*
X20596459Y9160500D01*
X20541662Y9149602D01*
X20541662Y9149601D01*
X20514115Y9144122D01*
X20403171Y9122054D01*
X20403161Y9122051D01*
X20403155Y9122049D01*
X20221086Y9046634D01*
X20056948Y8936961D01*
X20055567Y8935489D01*
X19919511Y8799433D01*
X19918039Y8798052D01*
X19808366Y8633914D01*
X19732951Y8451845D01*
X19732949Y8451839D01*
X19732946Y8451829D01*
X19706158Y8317151D01*
X19706148Y8317100D01*
X19706076Y8316736D01*
X19694500Y8258541D01*
X18925500Y8258541D01*
X18887051Y8451835D01*
X18811632Y8633914D01*
X18702139Y8797782D01*
X18562782Y8937139D01*
X18441623Y9018095D01*
X18434415Y9028882D01*
X18398915Y9046632D01*
X18398910Y9046634D01*
X18398899Y9046639D01*
X18216843Y9122049D01*
X18216838Y9122051D01*
X18216825Y9122055D01*
X18216826Y9122055D01*
X18087388Y9147800D01*
X18087387Y9147801D01*
X18036240Y9157975D01*
X18023541Y9160500D01*
X18023540Y9160500D01*
X17826459Y9160500D01*
X17771662Y9149602D01*
X17771662Y9149601D01*
X17744115Y9144122D01*
X17633171Y9122054D01*
X17633161Y9122051D01*
X17633155Y9122049D01*
X17451086Y9046634D01*
X17286948Y8936961D01*
X17285567Y8935489D01*
X17149511Y8799433D01*
X17148039Y8798052D01*
X17038366Y8633914D01*
X16962951Y8451845D01*
X16962949Y8451839D01*
X16962946Y8451829D01*
X16936158Y8317151D01*
X16936148Y8317100D01*
X16936076Y8316736D01*
X16924500Y8258541D01*
X16155500Y8258541D01*
X16117051Y8451835D01*
X16041632Y8633914D01*
X15932139Y8797782D01*
X15792782Y8937139D01*
X15628914Y9046632D01*
X15628911Y9046634D01*
X15628910Y9046634D01*
X15628290Y9047048D01*
X15625528Y9048035D01*
X15539780Y9083553D01*
X15515771Y9099596D01*
X15502172Y9113196D01*
X15480500Y9165520D01*
X15480500Y11024804D01*
X15483084Y11032104D01*
X15486132Y11053120D01*
X15496540Y11078250D01*
X15510097Y11098540D01*
X18309500Y11098540D01*
X18309500Y10901461D01*
X18319046Y10853469D01*
X18347946Y10708173D01*
X18347949Y10708162D01*
X18347951Y10708157D01*
X18423366Y10526088D01*
X18513238Y10391586D01*
X18532860Y10362219D01*
X18672218Y10222861D01*
X18836086Y10113368D01*
X18836091Y10113366D01*
X18836090Y10113366D01*
X18975913Y10055450D01*
X19018165Y10037949D01*
X19211459Y9999500D01*
X19211461Y9999500D01*
X19408539Y9999500D01*
X19408541Y9999500D01*
X19601835Y10037949D01*
X19783914Y10113368D01*
X19947782Y10222861D01*
X20087139Y10362218D01*
X20196632Y10526086D01*
X20272051Y10708165D01*
X20310500Y10901459D01*
X20310500Y11098540D01*
X21079500Y11098540D01*
X21079500Y10901461D01*
X21089046Y10853469D01*
X21117946Y10708173D01*
X21117949Y10708162D01*
X21117951Y10708157D01*
X21193366Y10526088D01*
X21283238Y10391586D01*
X21302860Y10362219D01*
X21442218Y10222861D01*
X21606086Y10113368D01*
X21606091Y10113366D01*
X21606090Y10113366D01*
X21745913Y10055450D01*
X21788165Y10037949D01*
X21981459Y9999500D01*
X21981461Y9999500D01*
X22178539Y9999500D01*
X22178541Y9999500D01*
X22371835Y10037949D01*
X22553914Y10113368D01*
X22717782Y10222861D01*
X22857139Y10362218D01*
X22966632Y10526086D01*
X23042051Y10708165D01*
X23080500Y10901459D01*
X23080500Y11098541D01*
X23058988Y11206686D01*
X53274500Y11206686D01*
X53274500Y11068315D01*
X53310310Y10934669D01*
X53310312Y10934664D01*
X53379495Y10814835D01*
X53477335Y10716995D01*
X53597164Y10647812D01*
X53726133Y10613256D01*
X53729831Y10612000D01*
X53869185Y10612000D01*
X53879448Y10612000D01*
X53888336Y10617133D01*
X54002836Y10647812D01*
X54122665Y10716995D01*
X54185591Y10779922D01*
X54209594Y10795959D01*
X54234725Y10806369D01*
X54263041Y10812000D01*
X54270781Y10812000D01*
X54299091Y10806371D01*
X54309503Y10802058D01*
X54349553Y10762015D01*
X54349556Y10762008D01*
X54353867Y10751600D01*
X54359500Y10723282D01*
X54359500Y10591733D01*
X54368654Y10528913D01*
X54368861Y10526049D01*
X54369426Y10523608D01*
X54420801Y10418518D01*
X54497512Y10341807D01*
X54507952Y10328678D01*
X54523270Y10304144D01*
X54534500Y10264954D01*
X54534500Y9739130D01*
X54528866Y9710809D01*
X54519463Y9688110D01*
X54503423Y9664105D01*
X54420801Y9581484D01*
X54369426Y9476394D01*
X54368861Y9473952D01*
X54368654Y9471089D01*
X54359500Y9408269D01*
X54359500Y8316737D01*
X54368654Y8253913D01*
X54368861Y8251049D01*
X54369426Y8248608D01*
X54420801Y8143518D01*
X54497512Y8066807D01*
X54507952Y8053678D01*
X54523270Y8029144D01*
X54534500Y7989954D01*
X54534500Y7139219D01*
X54528867Y7110901D01*
X54524556Y7100493D01*
X54484508Y7060445D01*
X54484507Y7060444D01*
X54474099Y7056133D01*
X54445781Y7050500D01*
X54436535Y7050500D01*
X54396385Y7042514D01*
X54233599Y7010135D01*
X54233578Y7010130D01*
X54042400Y6930941D01*
X53870075Y6815798D01*
X53868699Y6814332D01*
X53725668Y6671301D01*
X53724202Y6669925D01*
X53609059Y6497600D01*
X53609059Y6497598D01*
X53529870Y6306421D01*
X53529868Y6306414D01*
X53489500Y6103465D01*
X53489500Y5896536D01*
X53529868Y5693587D01*
X53529870Y5693580D01*
X53609059Y5502402D01*
X53683783Y5390568D01*
X53724023Y5330345D01*
X53870345Y5184023D01*
X54042402Y5069059D01*
X54233580Y4989870D01*
X54436535Y4949500D01*
X54436536Y4949500D01*
X54643464Y4949500D01*
X54643465Y4949500D01*
X54846420Y4989870D01*
X55037598Y5069059D01*
X55209655Y5184023D01*
X55355977Y5330345D01*
X55470941Y5502402D01*
X55550130Y5693580D01*
X55590500Y5896535D01*
X55590500Y6103465D01*
X55550130Y6306420D01*
X55470941Y6497598D01*
X55355977Y6669655D01*
X55217581Y6808051D01*
X55201541Y6832057D01*
X55191131Y6857189D01*
X55185500Y6885503D01*
X55185500Y7985872D01*
X55191131Y8014186D01*
X55200511Y8036831D01*
X55215572Y8058663D01*
X55214988Y8059210D01*
X55215609Y8059873D01*
X55217261Y8061581D01*
X55299198Y8143517D01*
X55350573Y8248607D01*
X55360500Y8316740D01*
X55360500Y9408260D01*
X55350573Y9476393D01*
X55299198Y9581483D01*
X55222478Y9658203D01*
X55212030Y9671345D01*
X55196723Y9695870D01*
X55185500Y9735050D01*
X55185500Y10260872D01*
X55191131Y10289186D01*
X55200511Y10311831D01*
X55215572Y10333663D01*
X55214988Y10334210D01*
X55215609Y10334873D01*
X55217261Y10336581D01*
X55272269Y10391589D01*
X55296271Y10407626D01*
X55306684Y10411938D01*
X55363316Y10411938D01*
X55373727Y10407626D01*
X55397733Y10391586D01*
X55453517Y10335802D01*
X55558607Y10284427D01*
X55626740Y10274500D01*
X55626746Y10274500D01*
X55993254Y10274500D01*
X55993260Y10274500D01*
X56061393Y10284427D01*
X56166483Y10335802D01*
X56222267Y10391586D01*
X56246271Y10407626D01*
X56256684Y10411938D01*
X56313316Y10411938D01*
X56323727Y10407626D01*
X56347733Y10391586D01*
X56397512Y10341807D01*
X56407952Y10328678D01*
X56423270Y10304144D01*
X56434500Y10264954D01*
X56434500Y9739130D01*
X56428866Y9710809D01*
X56419463Y9688110D01*
X56403423Y9664105D01*
X56320801Y9581484D01*
X56269426Y9476394D01*
X56268861Y9473952D01*
X56268654Y9471089D01*
X56259500Y9408269D01*
X56259500Y8316737D01*
X56268654Y8253913D01*
X56268861Y8251049D01*
X56269426Y8248608D01*
X56320801Y8143518D01*
X56397512Y8066807D01*
X56407952Y8053678D01*
X56423270Y8029144D01*
X56434500Y7989954D01*
X56434500Y6885503D01*
X56428867Y6857187D01*
X56418460Y6832060D01*
X56418459Y6832057D01*
X56402418Y6808051D01*
X56265668Y6671301D01*
X56264202Y6669925D01*
X56149059Y6497600D01*
X56149059Y6497598D01*
X56069870Y6306421D01*
X56069868Y6306414D01*
X56029500Y6103465D01*
X56029500Y5896536D01*
X56069868Y5693587D01*
X56069870Y5693580D01*
X56149059Y5502402D01*
X56223783Y5390568D01*
X56264023Y5330345D01*
X56410345Y5184023D01*
X56582402Y5069059D01*
X56773580Y4989870D01*
X56976535Y4949500D01*
X56976536Y4949500D01*
X57183464Y4949500D01*
X57183465Y4949500D01*
X57386420Y4989870D01*
X57577598Y5069059D01*
X57749655Y5184023D01*
X57895977Y5330345D01*
X58010941Y5502402D01*
X58090130Y5693580D01*
X58130500Y5896535D01*
X58130500Y6103465D01*
X58090130Y6306420D01*
X58010941Y6497598D01*
X57895977Y6669655D01*
X57749655Y6815977D01*
X57725589Y6832057D01*
X57661884Y6874623D01*
X57645601Y6885503D01*
X57577598Y6930941D01*
X57577595Y6930943D01*
X57577594Y6930943D01*
X57386420Y7010130D01*
X57386413Y7010132D01*
X57386408Y7010133D01*
X57386404Y7010134D01*
X57285313Y7030242D01*
X57233516Y7040545D01*
X57233515Y7040546D01*
X57183465Y7050500D01*
X57183464Y7050500D01*
X57174219Y7050500D01*
X57145904Y7056132D01*
X57135495Y7060443D01*
X57095446Y7100487D01*
X57091129Y7110909D01*
X57085500Y7139219D01*
X57085500Y7985872D01*
X57091131Y8014186D01*
X57100511Y8036831D01*
X57115572Y8058663D01*
X57114988Y8059210D01*
X57115609Y8059873D01*
X57117261Y8061581D01*
X57199198Y8143517D01*
X57250573Y8248607D01*
X57260500Y8316740D01*
X57260500Y9408260D01*
X57250573Y9476393D01*
X57199198Y9581483D01*
X57122478Y9658203D01*
X57112030Y9671345D01*
X57096723Y9695870D01*
X57085500Y9735050D01*
X57085500Y10260872D01*
X57091131Y10289186D01*
X57100511Y10311831D01*
X57115572Y10333663D01*
X57114988Y10334210D01*
X57115609Y10334873D01*
X57117261Y10336581D01*
X57199198Y10418517D01*
X57250573Y10523607D01*
X57260500Y10591740D01*
X57260500Y10723282D01*
X57266129Y10751591D01*
X57270443Y10762006D01*
X57310482Y10802052D01*
X57314778Y10803831D01*
X57371407Y10803829D01*
X57390400Y10795961D01*
X57390405Y10795959D01*
X57414411Y10779919D01*
X57477335Y10716995D01*
X57597164Y10647812D01*
X57726133Y10613256D01*
X57729831Y10612000D01*
X57869185Y10612000D01*
X57879448Y10612000D01*
X57888336Y10617133D01*
X58002836Y10647812D01*
X58122665Y10716995D01*
X58220505Y10814835D01*
X58289688Y10934664D01*
X58320367Y11049164D01*
X58325500Y11058053D01*
X58325500Y11207670D01*
X58324241Y11211379D01*
X58314468Y11247852D01*
X58314468Y11247853D01*
X58289688Y11340336D01*
X58220505Y11460165D01*
X58122665Y11558005D01*
X58002836Y11627188D01*
X58002831Y11627190D01*
X57869185Y11663000D01*
X57869184Y11663000D01*
X57730816Y11663000D01*
X57730815Y11663000D01*
X57597168Y11627190D01*
X57597166Y11627190D01*
X57597165Y11627189D01*
X57477336Y11558007D01*
X57477331Y11558003D01*
X57414411Y11495082D01*
X57390405Y11479042D01*
X57371409Y11471173D01*
X57314776Y11471170D01*
X57310496Y11472943D01*
X57270447Y11512985D01*
X57266129Y11523409D01*
X57260500Y11551719D01*
X57260500Y11683254D01*
X57260500Y11683260D01*
X57250573Y11751393D01*
X57199198Y11856483D01*
X57116483Y11939198D01*
X57116482Y11939199D01*
X57116481Y11939200D01*
X57011396Y11990573D01*
X56943266Y12000500D01*
X56943264Y12000500D01*
X56943260Y12000500D01*
X56576740Y12000500D01*
X56576735Y12000500D01*
X56576731Y12000500D01*
X56513911Y11991346D01*
X56511048Y11991139D01*
X56508606Y11990574D01*
X56403516Y11939199D01*
X56347733Y11883415D01*
X56323727Y11867375D01*
X56316118Y11864223D01*
X56259481Y11864221D01*
X56219432Y11904269D01*
X56219430Y11904273D01*
X56216132Y11912236D01*
X56210500Y11940552D01*
X56210500Y12539069D01*
X56216131Y12567383D01*
X56223861Y12586045D01*
X56258632Y12623660D01*
X56313220Y12651472D01*
X56408528Y12746780D01*
X56469719Y12866874D01*
X56485500Y12966512D01*
X56485500Y13483488D01*
X56469719Y13583126D01*
X56408528Y13703220D01*
X56313220Y13798528D01*
X56313219Y13798529D01*
X56313217Y13798531D01*
X56203568Y13854400D01*
X56193126Y13859721D01*
X56093491Y13875500D01*
X56093489Y13875500D01*
X56093488Y13875500D01*
X55526512Y13875500D01*
X55526511Y13875500D01*
X55526509Y13875500D01*
X55426872Y13859721D01*
X55416431Y13854400D01*
X55306780Y13798530D01*
X55211235Y13702985D01*
X55210143Y13700615D01*
X55199139Y13679020D01*
X55181269Y13656350D01*
X55165913Y13643233D01*
X55117850Y13625500D01*
X55088041Y13625500D01*
X55059723Y13631133D01*
X55043324Y13637926D01*
X55021156Y13647108D01*
X55012476Y13651389D01*
X54902836Y13714688D01*
X54902831Y13714690D01*
X54769185Y13750500D01*
X54769184Y13750500D01*
X54630816Y13750500D01*
X54630815Y13750500D01*
X54497168Y13714690D01*
X54497166Y13714690D01*
X54497165Y13714689D01*
X54377333Y13645505D01*
X54279495Y13547667D01*
X54210311Y13427836D01*
X54210310Y13427832D01*
X54174500Y13294186D01*
X54174500Y13155815D01*
X54210310Y13022169D01*
X54210312Y13022164D01*
X54279495Y12902335D01*
X54377335Y12804495D01*
X54497164Y12735312D01*
X54626133Y12700756D01*
X54629831Y12699500D01*
X54769185Y12699500D01*
X54779448Y12699500D01*
X54788336Y12704633D01*
X54902836Y12735312D01*
X55012489Y12798620D01*
X55021161Y12802896D01*
X55027873Y12805677D01*
X55027874Y12805676D01*
X55044419Y12812530D01*
X55059725Y12818868D01*
X55088041Y12824500D01*
X55111805Y12824500D01*
X55140123Y12818867D01*
X55158778Y12811140D01*
X55196394Y12776370D01*
X55210146Y12749382D01*
X55211237Y12747015D01*
X55306780Y12651472D01*
X55355980Y12626404D01*
X55378654Y12608530D01*
X55380718Y12606113D01*
X55391769Y12593175D01*
X55409500Y12545115D01*
X55409500Y11940552D01*
X55403865Y11912229D01*
X55400566Y11904266D01*
X55360515Y11864220D01*
X55303881Y11864223D01*
X55296272Y11867375D01*
X55272266Y11883415D01*
X55216481Y11939200D01*
X55111396Y11990573D01*
X55043266Y12000500D01*
X55043264Y12000500D01*
X55043260Y12000500D01*
X54676740Y12000500D01*
X54676735Y12000500D01*
X54676731Y12000500D01*
X54613911Y11991346D01*
X54611048Y11991139D01*
X54608606Y11990574D01*
X54503516Y11939199D01*
X54420801Y11856484D01*
X54369426Y11751394D01*
X54368861Y11748952D01*
X54368654Y11746089D01*
X54359500Y11683269D01*
X54359500Y11551719D01*
X54353867Y11523401D01*
X54349556Y11512993D01*
X54309508Y11472945D01*
X54309507Y11472944D01*
X54299099Y11468633D01*
X54270781Y11463000D01*
X54263041Y11463000D01*
X54234723Y11468633D01*
X54209594Y11479042D01*
X54185588Y11495082D01*
X54122665Y11558005D01*
X54002834Y11627189D01*
X54002832Y11627190D01*
X54002831Y11627190D01*
X53869185Y11663000D01*
X53869184Y11663000D01*
X53730816Y11663000D01*
X53730815Y11663000D01*
X53597168Y11627190D01*
X53597166Y11627190D01*
X53597165Y11627189D01*
X53477333Y11558005D01*
X53379495Y11460167D01*
X53310311Y11340336D01*
X53310310Y11340332D01*
X53274500Y11206686D01*
X23058988Y11206686D01*
X23042051Y11291835D01*
X22966632Y11473914D01*
X22857139Y11637782D01*
X22717782Y11777139D01*
X22717780Y11777141D01*
X22717778Y11777143D01*
X22553912Y11886634D01*
X22371843Y11962049D01*
X22371838Y11962051D01*
X22371827Y11962054D01*
X22237023Y11988867D01*
X22237018Y11988868D01*
X22178541Y12000500D01*
X22178539Y12000500D01*
X21981460Y12000500D01*
X21981459Y12000500D01*
X21956506Y11995537D01*
X21931552Y11990573D01*
X21788171Y11962054D01*
X21788161Y11962051D01*
X21788155Y11962049D01*
X21606086Y11886634D01*
X21441948Y11776961D01*
X21440567Y11775489D01*
X21304511Y11639433D01*
X21303039Y11638052D01*
X21193366Y11473914D01*
X21117951Y11291845D01*
X21117949Y11291839D01*
X21117946Y11291829D01*
X21099104Y11197100D01*
X21079500Y11098540D01*
X20310500Y11098540D01*
X20310500Y11098541D01*
X20272051Y11291835D01*
X20196632Y11473914D01*
X20087139Y11637782D01*
X19947782Y11777139D01*
X19947780Y11777141D01*
X19947778Y11777143D01*
X19783912Y11886634D01*
X19601843Y11962049D01*
X19601838Y11962051D01*
X19601827Y11962054D01*
X19467023Y11988867D01*
X19467018Y11988868D01*
X19408541Y12000500D01*
X19408539Y12000500D01*
X19211460Y12000500D01*
X19211459Y12000500D01*
X19186506Y11995537D01*
X19161552Y11990573D01*
X19018171Y11962054D01*
X19018161Y11962051D01*
X19018155Y11962049D01*
X18836086Y11886634D01*
X18671948Y11776961D01*
X18670567Y11775489D01*
X18534511Y11639433D01*
X18533039Y11638052D01*
X18423366Y11473914D01*
X18347951Y11291845D01*
X18347949Y11291839D01*
X18347946Y11291829D01*
X18329104Y11197100D01*
X18309500Y11098540D01*
X15510097Y11098540D01*
X15512577Y11102252D01*
X15710465Y11300138D01*
X15753318Y11374361D01*
X15775500Y11457147D01*
X15775500Y11542853D01*
X15775500Y13910872D01*
X15781131Y13939186D01*
X15790511Y13961831D01*
X15805572Y13983663D01*
X15804988Y13984210D01*
X15805609Y13984873D01*
X15807261Y13986581D01*
X15889198Y14068517D01*
X15940573Y14173607D01*
X15950500Y14241740D01*
X15950500Y15483260D01*
X15940573Y15551393D01*
X15889198Y15656483D01*
X15812478Y15733203D01*
X15802030Y15746345D01*
X15786723Y15770870D01*
X15775500Y15810050D01*
X15775500Y17044747D01*
X22224500Y17044747D01*
X22224500Y15045254D01*
X22236133Y14986768D01*
X22265608Y14942657D01*
X22280448Y14920448D01*
X22324560Y14890973D01*
X22346767Y14876134D01*
X22346768Y14876134D01*
X22346769Y14876133D01*
X22352746Y14874944D01*
X22352908Y14874811D01*
X22353910Y14874712D01*
X22405252Y14864500D01*
X23210781Y14864500D01*
X23239091Y14858871D01*
X23249503Y14854558D01*
X23289553Y14814515D01*
X23289556Y14814508D01*
X23293867Y14804100D01*
X23299500Y14775782D01*
X23299500Y14431009D01*
X23306183Y14397409D01*
X23326417Y14295680D01*
X23326420Y14295669D01*
X23326422Y14295664D01*
X23379217Y14168206D01*
X23379223Y14168192D01*
X23379297Y14168044D01*
X23379955Y14167096D01*
X23455886Y14053458D01*
X23553458Y13955886D01*
X23668189Y13879225D01*
X23668190Y13879225D01*
X23668191Y13879224D01*
X23668194Y13879223D01*
X23668800Y13878818D01*
X23671540Y13877837D01*
X23795667Y13826422D01*
X23795672Y13826420D01*
X23931007Y13799500D01*
X23931009Y13799500D01*
X24068991Y13799500D01*
X24068993Y13799500D01*
X24204328Y13826420D01*
X24331811Y13879225D01*
X24446542Y13955886D01*
X24544114Y14053458D01*
X24620775Y14168189D01*
X24673580Y14295672D01*
X24700500Y14431007D01*
X24700500Y14775782D01*
X24706129Y14804091D01*
X24710443Y14814506D01*
X24750482Y14854552D01*
X24760911Y14858872D01*
X24789219Y14864500D01*
X25594746Y14864500D01*
X25594748Y14864500D01*
X25653231Y14876133D01*
X25653232Y14876134D01*
X25719552Y14920448D01*
X25763867Y14986769D01*
X25775500Y15045252D01*
X25775500Y17044748D01*
X25763867Y17103231D01*
X25719552Y17169552D01*
X25697343Y17184392D01*
X25690106Y17189228D01*
X25676774Y17209185D01*
X25637106Y17217075D01*
X25623989Y17219684D01*
X25623988Y17219685D01*
X25594748Y17225500D01*
X22405252Y17225500D01*
X22376010Y17219685D01*
X22376010Y17219684D01*
X22368749Y17218240D01*
X22346769Y17213868D01*
X22346766Y17213867D01*
X22280451Y17169555D01*
X22280448Y17169553D01*
X22236133Y17103234D01*
X22236133Y17103231D01*
X22224500Y17044747D01*
X15775500Y17044747D01*
X15775500Y17199805D01*
X15781131Y17228119D01*
X15791542Y17253254D01*
X15807578Y17277254D01*
X15954339Y17424014D01*
X16595465Y18065138D01*
X16626039Y18118094D01*
X44499500Y18118094D01*
X44499500Y17881908D01*
X44536447Y17648630D01*
X44536453Y17648606D01*
X44609426Y17424020D01*
X44716655Y17213568D01*
X44839310Y17044748D01*
X44855479Y17022494D01*
X44855483Y17022490D01*
X45022490Y16855483D01*
X45022493Y16855481D01*
X45022494Y16855480D01*
X45213567Y16716657D01*
X45213576Y16716652D01*
X45420163Y16611390D01*
X45421102Y16610841D01*
X45423299Y16609777D01*
X45424528Y16609167D01*
X45426767Y16608535D01*
X45646303Y16537203D01*
X45647867Y16536637D01*
X45648039Y16536586D01*
X45648477Y16536472D01*
X45648630Y16536448D01*
X45648632Y16536447D01*
X45804149Y16511816D01*
X45823589Y16508737D01*
X45881906Y16499500D01*
X46118093Y16499500D01*
X46118094Y16499500D01*
X46132672Y16501810D01*
X46176411Y16508737D01*
X46351368Y16536447D01*
X46351367Y16536447D01*
X46351507Y16536469D01*
X46352564Y16536793D01*
X46353242Y16536989D01*
X46354553Y16537482D01*
X46570742Y16607726D01*
X46571005Y16607791D01*
X46575678Y16609330D01*
X46575986Y16609430D01*
X46575986Y16609431D01*
X46575988Y16609432D01*
X46575992Y16609432D01*
X46575995Y16609434D01*
X46576036Y16609447D01*
X46586294Y16612781D01*
X46591812Y16617494D01*
X46786433Y16716657D01*
X46977510Y16855483D01*
X47144517Y17022490D01*
X47283343Y17213567D01*
X47390568Y17424008D01*
X47463553Y17648632D01*
X47500500Y17881908D01*
X47500500Y18118092D01*
X47463553Y18351368D01*
X47463552Y18351370D01*
X47463528Y18351523D01*
X47463414Y18351961D01*
X47463363Y18352133D01*
X47462795Y18353702D01*
X47452032Y18386826D01*
X47391465Y18573233D01*
X47390833Y18575472D01*
X47390223Y18576701D01*
X47389159Y18578898D01*
X47388610Y18579837D01*
X47283348Y18786424D01*
X47283343Y18786433D01*
X47144520Y18977506D01*
X47144519Y18977507D01*
X47144517Y18977510D01*
X46977510Y19144517D01*
X46977507Y19144520D01*
X46977504Y19144523D01*
X46977476Y19144543D01*
X46977251Y19144706D01*
X46786432Y19283345D01*
X46575980Y19390574D01*
X46351394Y19463547D01*
X46351370Y19463553D01*
X46351367Y19463554D01*
X46351365Y19463554D01*
X46218910Y19484533D01*
X46118094Y19500500D01*
X46118093Y19500500D01*
X46118092Y19500500D01*
X45881908Y19500500D01*
X45881907Y19500500D01*
X45881906Y19500500D01*
X45648628Y19463553D01*
X45648604Y19463547D01*
X45424018Y19390574D01*
X45213566Y19283345D01*
X45022498Y19144525D01*
X44855475Y18977502D01*
X44716655Y18786434D01*
X44609426Y18575982D01*
X44536453Y18351396D01*
X44536448Y18351373D01*
X44536446Y18351366D01*
X44534776Y18340820D01*
X44499500Y18118094D01*
X16626039Y18118094D01*
X16638317Y18139361D01*
X16638318Y18139362D01*
X16655367Y18202994D01*
X16660500Y18211883D01*
X16660500Y18335872D01*
X16666131Y18364186D01*
X16675511Y18386831D01*
X16690572Y18408663D01*
X16689988Y18409210D01*
X16690609Y18409873D01*
X16692261Y18411581D01*
X16774198Y18493517D01*
X16825573Y18598607D01*
X16835500Y18666740D01*
X16835500Y20383260D01*
X16835499Y20383269D01*
X17104500Y20383269D01*
X17104500Y18666733D01*
X17109513Y18632331D01*
X17112989Y18608473D01*
X17113654Y18603913D01*
X17113861Y18601049D01*
X17114426Y18598608D01*
X17114427Y18598606D01*
X17165801Y18493518D01*
X17165802Y18493517D01*
X17248517Y18410802D01*
X17353607Y18359427D01*
X17421740Y18349500D01*
X17421746Y18349500D01*
X17788254Y18349500D01*
X17788260Y18349500D01*
X17856393Y18359427D01*
X17961483Y18410802D01*
X18044198Y18493517D01*
X18095573Y18598607D01*
X18105500Y18666740D01*
X18105500Y19110782D01*
X18111129Y19139091D01*
X18115443Y19149506D01*
X18155482Y19189552D01*
X18165911Y19193872D01*
X18194219Y19199500D01*
X21275651Y19199500D01*
X21275653Y19199500D01*
X21358439Y19221682D01*
X21432662Y19264535D01*
X21432666Y19264540D01*
X21434034Y19265588D01*
X21450769Y19275253D01*
X21476882Y19286069D01*
X21505196Y19291700D01*
X40846351Y19291700D01*
X40846353Y19291700D01*
X40929139Y19313882D01*
X41003362Y19356735D01*
X48608765Y26962138D01*
X48621091Y26983488D01*
X48651618Y27036362D01*
X48668667Y27099994D01*
X48673800Y27108883D01*
X48673800Y33306520D01*
X53074500Y33306520D01*
X53074500Y32693481D01*
X53089353Y32599696D01*
X53089354Y32599696D01*
X53089386Y32599631D01*
X53138386Y32503465D01*
X53139962Y32500371D01*
X53146950Y32486658D01*
X53236658Y32396950D01*
X53349696Y32339354D01*
X53443481Y32324500D01*
X53906518Y32324501D01*
X53906519Y32324501D01*
X53906520Y32324501D01*
X53917799Y32326288D01*
X54000304Y32339354D01*
X54000306Y32339355D01*
X54000361Y32339383D01*
X54002416Y32340430D01*
X54002419Y32340432D01*
X54113342Y32396950D01*
X54203050Y32486658D01*
X54260646Y32599696D01*
X54275500Y32693481D01*
X54275499Y33306518D01*
X54275499Y33306520D01*
X54724500Y33306520D01*
X54724500Y32693481D01*
X54739353Y32599696D01*
X54739354Y32599696D01*
X54739386Y32599631D01*
X54788386Y32503465D01*
X54789962Y32500371D01*
X54796950Y32486658D01*
X54886658Y32396950D01*
X54999696Y32339354D01*
X55093481Y32324500D01*
X55556518Y32324501D01*
X55556519Y32324501D01*
X55556520Y32324501D01*
X55567799Y32326288D01*
X55650304Y32339354D01*
X55650306Y32339355D01*
X55650361Y32339383D01*
X55652416Y32340430D01*
X55652419Y32340432D01*
X55763342Y32396950D01*
X55853050Y32486658D01*
X55910646Y32599696D01*
X55925500Y32693481D01*
X55925499Y33306518D01*
X55912806Y33386662D01*
X55911557Y33394552D01*
X55911333Y33397391D01*
X55910646Y33400304D01*
X55910646Y33400305D01*
X55910645Y33400307D01*
X55853049Y33513343D01*
X55763343Y33603049D01*
X55763342Y33603050D01*
X55763340Y33603052D01*
X55650421Y33660587D01*
X55650356Y33660620D01*
X55650304Y33660646D01*
X55650302Y33660647D01*
X55650301Y33660647D01*
X55647387Y33661335D01*
X55644549Y33661558D01*
X55556520Y33675500D01*
X55556519Y33675500D01*
X55093480Y33675500D01*
X55093479Y33675500D01*
X54999695Y33660647D01*
X54999629Y33660614D01*
X54886656Y33603050D01*
X54796951Y33513345D01*
X54739353Y33400304D01*
X54737192Y33386659D01*
X54724500Y33306520D01*
X54275499Y33306520D01*
X54261557Y33394552D01*
X54261333Y33397391D01*
X54260646Y33400304D01*
X54260646Y33400305D01*
X54260645Y33400307D01*
X54203049Y33513343D01*
X54113343Y33603049D01*
X54113342Y33603050D01*
X54113340Y33603052D01*
X54000421Y33660587D01*
X54000356Y33660620D01*
X54000304Y33660646D01*
X54000302Y33660647D01*
X54000301Y33660647D01*
X53997387Y33661335D01*
X53994549Y33661558D01*
X53906520Y33675500D01*
X53906519Y33675500D01*
X53443480Y33675500D01*
X53443479Y33675500D01*
X53349695Y33660647D01*
X53349629Y33660614D01*
X53236656Y33603050D01*
X53146951Y33513345D01*
X53089353Y33400304D01*
X53087192Y33386659D01*
X53074500Y33306520D01*
X48673800Y33306520D01*
X48673800Y36469748D01*
X55799500Y36469748D01*
X55799500Y36466576D01*
X55799500Y35530253D01*
X55803466Y35510313D01*
X55803467Y35510311D01*
X55811133Y35471768D01*
X55819524Y35459211D01*
X55819525Y35459208D01*
X55819526Y35459208D01*
X55855447Y35405449D01*
X55855450Y35405446D01*
X55890663Y35381918D01*
X55890664Y35381916D01*
X55890665Y35381916D01*
X55915710Y35365181D01*
X55918539Y35362860D01*
X55918562Y35362847D01*
X55921698Y35360967D01*
X55925258Y35360075D01*
X55925273Y35360071D01*
X55928910Y35359712D01*
X55980252Y35349500D01*
X55980254Y35349500D01*
X57519746Y35349500D01*
X57519748Y35349500D01*
X57578231Y35361133D01*
X57578232Y35361134D01*
X57644552Y35405448D01*
X57688867Y35471769D01*
X57700500Y35530252D01*
X57700500Y36469748D01*
X57688867Y36528231D01*
X57685100Y36533868D01*
X57661501Y36569186D01*
X57644552Y36594552D01*
X57636852Y36599697D01*
X57622343Y36609392D01*
X57615106Y36614228D01*
X57601774Y36634185D01*
X57562106Y36642075D01*
X57548989Y36644684D01*
X57548988Y36644685D01*
X57519748Y36650500D01*
X55980252Y36650500D01*
X55951010Y36644685D01*
X55951010Y36644684D01*
X55943749Y36643240D01*
X55921769Y36638868D01*
X55921766Y36638867D01*
X55855451Y36594555D01*
X55855445Y36594549D01*
X55811133Y36528234D01*
X55810058Y36522826D01*
X55808172Y36513344D01*
X55799500Y36469748D01*
X48673800Y36469748D01*
X48673800Y36966803D01*
X48679431Y36995117D01*
X48689842Y37020252D01*
X48705878Y37044252D01*
X49631374Y37969748D01*
X55799500Y37969748D01*
X55799500Y37030252D01*
X55803096Y37012173D01*
X55811133Y36971768D01*
X55819922Y36958615D01*
X55832078Y36940422D01*
X55832207Y36940230D01*
X55841737Y36925967D01*
X55855446Y36905450D01*
X55855448Y36905448D01*
X55879035Y36889688D01*
X55899559Y36875974D01*
X55899560Y36875973D01*
X55915710Y36865181D01*
X55918539Y36862860D01*
X55918562Y36862847D01*
X55921698Y36860967D01*
X55925258Y36860075D01*
X55925273Y36860071D01*
X55928910Y36859712D01*
X55980252Y36849500D01*
X55980254Y36849500D01*
X57519746Y36849500D01*
X57519748Y36849500D01*
X57578231Y36861133D01*
X57578232Y36861134D01*
X57644552Y36905448D01*
X57662253Y36931941D01*
X57682672Y36952357D01*
X57692039Y36958615D01*
X57747578Y36969663D01*
X57749237Y36969333D01*
X57753559Y36968474D01*
X57791453Y36948221D01*
X57935754Y36803920D01*
X57935765Y36803908D01*
X57936951Y36802722D01*
X57939535Y36800138D01*
X58000138Y36739535D01*
X58022518Y36726614D01*
X58074361Y36696682D01*
X58157147Y36674500D01*
X58299585Y36674500D01*
X58327900Y36668869D01*
X58341406Y36663275D01*
X58379023Y36628504D01*
X58381502Y36623639D01*
X58387523Y36607317D01*
X58389352Y36599696D01*
X58446949Y36486659D01*
X58488470Y36445138D01*
X58504511Y36421130D01*
X58512957Y36400739D01*
X58517202Y36358158D01*
X58469606Y36115848D01*
X58458620Y36089145D01*
X58444805Y36068363D01*
X58420180Y36045244D01*
X58377338Y36020509D01*
X58279493Y35922664D01*
X58210311Y35802836D01*
X58210310Y35802832D01*
X58174500Y35669186D01*
X58174500Y35530815D01*
X58210310Y35397169D01*
X58210312Y35397164D01*
X58279495Y35277335D01*
X58377335Y35179495D01*
X58497164Y35110312D01*
X58626133Y35075756D01*
X58629831Y35074500D01*
X58769185Y35074500D01*
X58779448Y35074500D01*
X58788336Y35079633D01*
X58902836Y35110312D01*
X59022665Y35179495D01*
X59120505Y35277335D01*
X59189688Y35397164D01*
X59220367Y35511664D01*
X59225500Y35520553D01*
X59225500Y35670170D01*
X59224241Y35673879D01*
X59217122Y35700447D01*
X59217121Y35700450D01*
X59189688Y35802836D01*
X59125515Y35913988D01*
X59118122Y35931838D01*
X59110317Y35960977D01*
X59109186Y35994379D01*
X59160185Y36254015D01*
X59171169Y36280712D01*
X59181482Y36296225D01*
X59216004Y36324116D01*
X59216509Y36324314D01*
X59232022Y36328541D01*
X59300304Y36339354D01*
X59300306Y36339355D01*
X59300361Y36339383D01*
X59302416Y36340430D01*
X59302419Y36340432D01*
X59413342Y36396950D01*
X59503050Y36486658D01*
X59560646Y36599696D01*
X59575500Y36693481D01*
X59575499Y37306518D01*
X59575499Y37306520D01*
X60024500Y37306520D01*
X60024500Y36693481D01*
X60039353Y36599696D01*
X60039354Y36599696D01*
X60039386Y36599631D01*
X60095404Y36489690D01*
X60095405Y36489690D01*
X60096950Y36486658D01*
X60186658Y36396950D01*
X60299696Y36339354D01*
X60393481Y36324500D01*
X60804690Y36324501D01*
X60833005Y36318870D01*
X60848525Y36312441D01*
X60884289Y36281082D01*
X60886015Y36278092D01*
X60893406Y36260251D01*
X60910310Y36197167D01*
X60910311Y36197166D01*
X60910312Y36197162D01*
X60910552Y36196631D01*
X60911504Y36195098D01*
X60972955Y36088663D01*
X60979495Y36077335D01*
X61077335Y35979495D01*
X61197164Y35910312D01*
X61326133Y35875756D01*
X61329831Y35874500D01*
X61469185Y35874500D01*
X61479448Y35874500D01*
X61488336Y35879633D01*
X61602836Y35910312D01*
X61722665Y35979495D01*
X61820505Y36077335D01*
X61889688Y36197164D01*
X61920367Y36311664D01*
X61925500Y36320553D01*
X61925500Y36470170D01*
X61924244Y36473868D01*
X61889688Y36602836D01*
X61820505Y36722665D01*
X61722665Y36820505D01*
X61602836Y36889688D01*
X61602831Y36889690D01*
X61469185Y36925500D01*
X61469184Y36925500D01*
X61330817Y36925500D01*
X61326006Y36924867D01*
X61325910Y36925593D01*
X61304053Y36924163D01*
X61292885Y36925634D01*
X61243837Y36953955D01*
X61243832Y36953962D01*
X61240783Y36957937D01*
X61225499Y37002975D01*
X61225499Y37306521D01*
X61219110Y37346860D01*
X61210646Y37400305D01*
X61210645Y37400307D01*
X61158207Y37503220D01*
X61158206Y37503222D01*
X61158020Y37503586D01*
X61153050Y37513342D01*
X61063342Y37603050D01*
X61063341Y37603051D01*
X61063340Y37603052D01*
X60950421Y37660587D01*
X60950356Y37660620D01*
X60950304Y37660646D01*
X60950302Y37660647D01*
X60950301Y37660647D01*
X60947387Y37661335D01*
X60944549Y37661558D01*
X60856520Y37675500D01*
X60856519Y37675500D01*
X60393480Y37675500D01*
X60393479Y37675500D01*
X60299695Y37660647D01*
X60299629Y37660614D01*
X60186656Y37603050D01*
X60096951Y37513345D01*
X60039353Y37400305D01*
X60039353Y37400303D01*
X60025120Y37310432D01*
X60024500Y37306520D01*
X59575499Y37306520D01*
X59565286Y37371001D01*
X59563366Y37383127D01*
X59563365Y37383131D01*
X59560646Y37400305D01*
X59560645Y37400307D01*
X59560612Y37400371D01*
X59508207Y37503220D01*
X59508206Y37503222D01*
X59508020Y37503586D01*
X59503050Y37513342D01*
X59413342Y37603050D01*
X59413341Y37603051D01*
X59413340Y37603052D01*
X59300421Y37660587D01*
X59300356Y37660620D01*
X59300304Y37660646D01*
X59300302Y37660647D01*
X59300301Y37660647D01*
X59297387Y37661335D01*
X59294549Y37661558D01*
X59206520Y37675500D01*
X59206519Y37675500D01*
X58743480Y37675500D01*
X58743479Y37675500D01*
X58649695Y37660647D01*
X58649629Y37660614D01*
X58536656Y37603050D01*
X58446947Y37513341D01*
X58398619Y37418492D01*
X58380743Y37395817D01*
X58372178Y37388502D01*
X58318321Y37371001D01*
X58314072Y37371335D01*
X58267545Y37392781D01*
X58146982Y37513344D01*
X57899860Y37760467D01*
X57825644Y37803316D01*
X57825639Y37803318D01*
X57825633Y37803321D01*
X57825631Y37803321D01*
X57769563Y37818345D01*
X57743669Y37831114D01*
X57732930Y37839354D01*
X57730343Y37841339D01*
X57703909Y37880909D01*
X57703018Y37884237D01*
X57700500Y37903375D01*
X57700500Y37969747D01*
X57700500Y37969748D01*
X57699555Y37974500D01*
X57697407Y37985296D01*
X57695960Y37992569D01*
X57688867Y38028231D01*
X57688866Y38028233D01*
X57688866Y38028234D01*
X57648720Y38088314D01*
X57644552Y38094552D01*
X57637883Y38099008D01*
X57618327Y38112075D01*
X57618326Y38112076D01*
X57615101Y38114231D01*
X57601773Y38134185D01*
X57565177Y38141464D01*
X57548989Y38144684D01*
X57548988Y38144685D01*
X57519748Y38150500D01*
X55980252Y38150500D01*
X55951010Y38144685D01*
X55951010Y38144684D01*
X55943749Y38143240D01*
X55921769Y38138868D01*
X55921766Y38138867D01*
X55855451Y38094555D01*
X55855449Y38094553D01*
X55855447Y38094551D01*
X55848770Y38084558D01*
X55811133Y38028234D01*
X55811132Y38028230D01*
X55808647Y38015737D01*
X55807568Y38010311D01*
X55799500Y37969748D01*
X49631374Y37969748D01*
X51131374Y39469748D01*
X55799500Y39469748D01*
X55799500Y38530253D01*
X55804008Y38507590D01*
X55804008Y38507589D01*
X55811132Y38471769D01*
X55838497Y38430816D01*
X55838498Y38430815D01*
X55855448Y38405448D01*
X55899559Y38375974D01*
X55899560Y38375973D01*
X55915710Y38365181D01*
X55918539Y38362860D01*
X55918562Y38362847D01*
X55921698Y38360967D01*
X55925258Y38360075D01*
X55925273Y38360071D01*
X55928910Y38359712D01*
X55980252Y38349500D01*
X55980254Y38349500D01*
X57519746Y38349500D01*
X57519748Y38349500D01*
X57578231Y38361133D01*
X57578232Y38361134D01*
X57644552Y38405448D01*
X57688867Y38471769D01*
X57700500Y38530252D01*
X57700500Y38585782D01*
X57706129Y38614091D01*
X57710443Y38624506D01*
X57750482Y38664552D01*
X57760911Y38668872D01*
X57789219Y38674500D01*
X58299585Y38674500D01*
X58309298Y38670477D01*
X58319742Y38671702D01*
X58327900Y38668869D01*
X58341406Y38663275D01*
X58379022Y38628505D01*
X58381183Y38624264D01*
X58381502Y38623639D01*
X58387523Y38607317D01*
X58389352Y38599696D01*
X58437155Y38505882D01*
X58437155Y38505880D01*
X58437156Y38505880D01*
X58446950Y38486658D01*
X58536658Y38396950D01*
X58649696Y38339354D01*
X58743481Y38324500D01*
X59206518Y38324501D01*
X59206519Y38324501D01*
X59206520Y38324501D01*
X59217799Y38326288D01*
X59300304Y38339354D01*
X59300306Y38339355D01*
X59301721Y38340076D01*
X59302416Y38340430D01*
X59302419Y38340432D01*
X59413342Y38396950D01*
X59503050Y38486658D01*
X59560646Y38599696D01*
X59575500Y38693481D01*
X59575499Y39306518D01*
X59575499Y39306520D01*
X60024500Y39306520D01*
X60024500Y38693481D01*
X60039353Y38599696D01*
X60039354Y38599696D01*
X60039386Y38599631D01*
X60087155Y38505882D01*
X60087155Y38505880D01*
X60087156Y38505880D01*
X60096950Y38486658D01*
X60186658Y38396950D01*
X60299696Y38339354D01*
X60393481Y38324500D01*
X60856518Y38324501D01*
X60856519Y38324501D01*
X60856520Y38324501D01*
X60887780Y38329452D01*
X60950304Y38339354D01*
X60950306Y38339355D01*
X60951715Y38340073D01*
X61063342Y38396950D01*
X61146237Y38479846D01*
X61161547Y38491594D01*
X61177857Y38501012D01*
X61195695Y38508399D01*
X61202836Y38510312D01*
X61322665Y38579495D01*
X61420505Y38677335D01*
X61489688Y38797164D01*
X61520367Y38911664D01*
X61525500Y38920553D01*
X61525500Y39070171D01*
X61524239Y39073886D01*
X61523177Y39077850D01*
X61522686Y39079684D01*
X61489688Y39202836D01*
X61420505Y39322665D01*
X61322665Y39420505D01*
X61243635Y39466133D01*
X61243633Y39466134D01*
X61202834Y39489690D01*
X61202800Y39489703D01*
X61202220Y39489854D01*
X61199015Y39490712D01*
X61195695Y39491602D01*
X61177855Y39498993D01*
X61161556Y39508403D01*
X61146229Y39520163D01*
X61063340Y39603052D01*
X60950421Y39660587D01*
X60950356Y39660620D01*
X60950304Y39660646D01*
X60950302Y39660647D01*
X60950301Y39660647D01*
X60947387Y39661335D01*
X60944549Y39661558D01*
X60856520Y39675500D01*
X60856519Y39675500D01*
X60393480Y39675500D01*
X60393479Y39675500D01*
X60299695Y39660647D01*
X60299629Y39660614D01*
X60186656Y39603050D01*
X60096951Y39513345D01*
X60039353Y39400305D01*
X60039353Y39400303D01*
X60026823Y39321185D01*
X60024500Y39306520D01*
X59575499Y39306520D01*
X59575005Y39309634D01*
X59569337Y39345424D01*
X59569337Y39345425D01*
X59561565Y39394500D01*
X59560646Y39400305D01*
X59560645Y39400307D01*
X59512843Y39494122D01*
X59503050Y39513342D01*
X59413342Y39603050D01*
X59413340Y39603052D01*
X59300421Y39660587D01*
X59300356Y39660620D01*
X59300304Y39660646D01*
X59300302Y39660647D01*
X59300301Y39660647D01*
X59297387Y39661335D01*
X59294549Y39661558D01*
X59206520Y39675500D01*
X59206519Y39675500D01*
X58743480Y39675500D01*
X58743479Y39675500D01*
X58649695Y39660647D01*
X58649629Y39660614D01*
X58536656Y39603050D01*
X58446951Y39513345D01*
X58389351Y39400300D01*
X58388463Y39396601D01*
X58379606Y39375218D01*
X58372066Y39362913D01*
X58331847Y39331201D01*
X58328113Y39329987D01*
X58325459Y39329125D01*
X58302583Y39325500D01*
X57789219Y39325500D01*
X57760904Y39331132D01*
X57750495Y39335443D01*
X57710446Y39375487D01*
X57706129Y39385909D01*
X57700500Y39414219D01*
X57700500Y39469748D01*
X57700156Y39471478D01*
X57700156Y39471479D01*
X57692811Y39508403D01*
X57688867Y39528231D01*
X57644552Y39594552D01*
X57622343Y39609392D01*
X57615106Y39614228D01*
X57601774Y39634185D01*
X57562106Y39642075D01*
X57548989Y39644684D01*
X57548988Y39644685D01*
X57519748Y39650500D01*
X55980252Y39650500D01*
X55951010Y39644685D01*
X55951010Y39644684D01*
X55943749Y39643240D01*
X55921769Y39638868D01*
X55921766Y39638867D01*
X55855451Y39594555D01*
X55855448Y39594553D01*
X55811132Y39528233D01*
X55804348Y39494122D01*
X55799500Y39469748D01*
X51131374Y39469748D01*
X52631374Y40969748D01*
X55799500Y40969748D01*
X55799500Y40030253D01*
X55803467Y40010310D01*
X55803949Y40007887D01*
X55811133Y39971768D01*
X55840608Y39927657D01*
X55855448Y39905448D01*
X55899560Y39875973D01*
X55921767Y39861134D01*
X55921768Y39861134D01*
X55921769Y39861133D01*
X55927746Y39859944D01*
X55927908Y39859811D01*
X55928910Y39859712D01*
X55980252Y39849500D01*
X55980254Y39849500D01*
X57519746Y39849500D01*
X57519748Y39849500D01*
X57578231Y39861133D01*
X57578232Y39861134D01*
X57644552Y39905448D01*
X57688867Y39971769D01*
X57700500Y40030252D01*
X57700500Y40969748D01*
X57688867Y41028231D01*
X57644552Y41094552D01*
X57622343Y41109392D01*
X57615106Y41114228D01*
X57601774Y41134185D01*
X57562106Y41142075D01*
X57548989Y41144684D01*
X57548988Y41144685D01*
X57519748Y41150500D01*
X55980252Y41150500D01*
X55951010Y41144685D01*
X55951010Y41144684D01*
X55943749Y41143240D01*
X55921769Y41138868D01*
X55921766Y41138867D01*
X55855451Y41094555D01*
X55855448Y41094553D01*
X55811133Y41028233D01*
X55806376Y41004317D01*
X55799500Y40969748D01*
X52631374Y40969748D01*
X54131377Y42469751D01*
X55799500Y42469751D01*
X55799500Y42469748D01*
X55799500Y41530252D01*
X55807255Y41491264D01*
X55811133Y41471768D01*
X55840608Y41427657D01*
X55855448Y41405448D01*
X55899560Y41375973D01*
X55921767Y41361134D01*
X55921768Y41361134D01*
X55921769Y41361133D01*
X55927746Y41359944D01*
X55927908Y41359811D01*
X55928910Y41359712D01*
X55980252Y41349500D01*
X55980254Y41349500D01*
X57519746Y41349500D01*
X57519748Y41349500D01*
X57578231Y41361133D01*
X57578232Y41361134D01*
X57644552Y41405448D01*
X57688867Y41471769D01*
X57700500Y41530252D01*
X57700500Y42469748D01*
X57688867Y42528231D01*
X57681822Y42538774D01*
X57644554Y42594549D01*
X57644552Y42594552D01*
X57640963Y42596950D01*
X57622343Y42609392D01*
X57615106Y42614228D01*
X57601774Y42634185D01*
X57562106Y42642075D01*
X57548989Y42644684D01*
X57548988Y42644685D01*
X57519748Y42650500D01*
X55980252Y42650500D01*
X55951010Y42644685D01*
X55951010Y42644684D01*
X55943749Y42643240D01*
X55921769Y42638868D01*
X55921766Y42638867D01*
X55855451Y42594555D01*
X55855445Y42594549D01*
X55811133Y42528234D01*
X55811132Y42528231D01*
X55803377Y42489242D01*
X55799500Y42469751D01*
X54131377Y42469751D01*
X55662769Y44001143D01*
X55686769Y44017179D01*
X55694136Y44020230D01*
X55750771Y44020228D01*
X55790815Y43980187D01*
X55793864Y43972828D01*
X55799500Y43944503D01*
X55799500Y43030252D01*
X55802786Y43013730D01*
X55806073Y42997207D01*
X55811133Y42971768D01*
X55811133Y42971767D01*
X55824104Y42952356D01*
X55824105Y42952354D01*
X55855447Y42905449D01*
X55855448Y42905448D01*
X55873358Y42893481D01*
X55873359Y42893480D01*
X55915709Y42865182D01*
X55918539Y42862859D01*
X55918562Y42862847D01*
X55921698Y42860967D01*
X55925258Y42860075D01*
X55925273Y42860071D01*
X55928910Y42859712D01*
X55980252Y42849500D01*
X55980254Y42849500D01*
X57519746Y42849500D01*
X57519748Y42849500D01*
X57578231Y42861133D01*
X57578232Y42861134D01*
X57644552Y42905448D01*
X57688867Y42971769D01*
X57700500Y43030252D01*
X57700500Y43969748D01*
X57688867Y44028231D01*
X57688033Y44029478D01*
X57688029Y44029500D01*
X57688022Y44029495D01*
X57662853Y44067163D01*
X57644552Y44094552D01*
X57615109Y44114226D01*
X57601773Y44134185D01*
X57546805Y44145118D01*
X57546804Y44145119D01*
X57519748Y44150500D01*
X56005205Y44150500D01*
X55976889Y44156132D01*
X55976887Y44156133D01*
X55967619Y44159972D01*
X55927570Y44200018D01*
X55925865Y44252130D01*
X55928736Y44260586D01*
X55934721Y44273794D01*
X55940191Y44283269D01*
X55949709Y44299755D01*
X55968743Y44321459D01*
X55985361Y44334211D01*
X56030406Y44349500D01*
X57519746Y44349500D01*
X57519748Y44349500D01*
X57578231Y44361133D01*
X57644552Y44405448D01*
X57645268Y44406520D01*
X58324500Y44406520D01*
X58324500Y43943481D01*
X58339353Y43849696D01*
X58339354Y43849696D01*
X58339386Y43849631D01*
X58394550Y43741368D01*
X58394551Y43741366D01*
X58396947Y43736662D01*
X58396950Y43736658D01*
X58486658Y43646950D01*
X58599696Y43589354D01*
X58693481Y43574500D01*
X59306518Y43574501D01*
X59306519Y43574501D01*
X59306520Y43574501D01*
X59317799Y43576288D01*
X59400304Y43589354D01*
X59400306Y43589355D01*
X59400361Y43589383D01*
X59402416Y43590430D01*
X59402419Y43590432D01*
X59513342Y43646950D01*
X59591141Y43724750D01*
X59595405Y43728690D01*
X59608515Y43739884D01*
X59608516Y43739883D01*
X59628305Y43756780D01*
X59676354Y43774500D01*
X59686960Y43774500D01*
X59715273Y43768869D01*
X59747125Y43755676D01*
X59747125Y43755677D01*
X59753839Y43752896D01*
X59762516Y43748617D01*
X59872164Y43685312D01*
X60001133Y43650756D01*
X60004831Y43649500D01*
X60144185Y43649500D01*
X60154448Y43649500D01*
X60163336Y43654633D01*
X60277836Y43685312D01*
X60397665Y43754495D01*
X60495505Y43852335D01*
X60564688Y43972164D01*
X60595367Y44086664D01*
X60600500Y44095553D01*
X60600500Y44245170D01*
X60599241Y44248879D01*
X60598430Y44251905D01*
X60593703Y44269548D01*
X60564688Y44377836D01*
X60495505Y44497665D01*
X60397665Y44595505D01*
X60277836Y44664688D01*
X60277831Y44664690D01*
X60144185Y44700500D01*
X60144184Y44700500D01*
X60005816Y44700500D01*
X60005815Y44700500D01*
X59872168Y44664690D01*
X59872163Y44664688D01*
X59775071Y44608632D01*
X59762527Y44601390D01*
X59753846Y44597109D01*
X59715277Y44581133D01*
X59686958Y44575500D01*
X59682398Y44575500D01*
X59654081Y44581133D01*
X59634629Y44589190D01*
X59603087Y44614054D01*
X59596888Y44622584D01*
X59590610Y44625782D01*
X59513340Y44703052D01*
X59400421Y44760587D01*
X59400356Y44760620D01*
X59400304Y44760646D01*
X59400302Y44760647D01*
X59400301Y44760647D01*
X59397387Y44761335D01*
X59394549Y44761558D01*
X59306520Y44775500D01*
X59306519Y44775500D01*
X58693480Y44775500D01*
X58693479Y44775500D01*
X58599695Y44760647D01*
X58599629Y44760614D01*
X58486656Y44703050D01*
X58396951Y44613345D01*
X58339353Y44500305D01*
X58339353Y44500303D01*
X58338936Y44497666D01*
X58324500Y44406520D01*
X57645268Y44406520D01*
X57688867Y44471769D01*
X57700500Y44530252D01*
X57700500Y44610782D01*
X57706129Y44639091D01*
X57710443Y44649506D01*
X57750482Y44689552D01*
X57760911Y44693872D01*
X57789219Y44699500D01*
X57845227Y44699500D01*
X57854115Y44704633D01*
X57911389Y44719979D01*
X57979911Y44759540D01*
X58035860Y44815489D01*
X58075421Y44884011D01*
X58090767Y44941285D01*
X58095900Y44950174D01*
X58095900Y45151359D01*
X58101531Y45179673D01*
X58111942Y45204808D01*
X58127978Y45228808D01*
X58266392Y45367222D01*
X58290394Y45383259D01*
X58313073Y45392652D01*
X58369707Y45392652D01*
X58392381Y45383261D01*
X58416388Y45367220D01*
X58486658Y45296950D01*
X58599696Y45239354D01*
X58693481Y45224500D01*
X59306518Y45224501D01*
X59306519Y45224501D01*
X59306520Y45224501D01*
X59317799Y45226288D01*
X59400304Y45239354D01*
X59400306Y45239355D01*
X59400361Y45239383D01*
X59402416Y45240430D01*
X59402419Y45240432D01*
X59513342Y45296950D01*
X59603050Y45386658D01*
X59660646Y45499696D01*
X59675500Y45593481D01*
X59675499Y46056518D01*
X59665747Y46118092D01*
X59660646Y46150305D01*
X59660645Y46150307D01*
X59627814Y46214740D01*
X59603050Y46263342D01*
X59513342Y46353050D01*
X59513340Y46353052D01*
X59400421Y46410587D01*
X59400356Y46410620D01*
X59400304Y46410646D01*
X59400302Y46410647D01*
X59400301Y46410647D01*
X59397387Y46411335D01*
X59394549Y46411558D01*
X59306521Y46425500D01*
X59306520Y46425500D01*
X59306519Y46425500D01*
X58989505Y46425500D01*
X58961185Y46431134D01*
X58953822Y46434184D01*
X58913777Y46474234D01*
X58913777Y46530864D01*
X58916828Y46538231D01*
X58932864Y46562231D01*
X59163056Y46792423D01*
X59187059Y46808460D01*
X59212190Y46818870D01*
X59240506Y46824501D01*
X59406520Y46824501D01*
X59417799Y46826288D01*
X59500304Y46839354D01*
X59500306Y46839355D01*
X59500361Y46839383D01*
X59502416Y46840430D01*
X59502419Y46840432D01*
X59613342Y46896950D01*
X59703050Y46986658D01*
X59760646Y47099696D01*
X59762614Y47112117D01*
X59775500Y47193481D01*
X59775500Y47586334D01*
X59775499Y47586363D01*
X59775499Y47806521D01*
X59765649Y47868713D01*
X59765649Y47868716D01*
X59761116Y47897332D01*
X59760434Y47914701D01*
X59761603Y47929546D01*
X59787316Y47980002D01*
X59790576Y47982785D01*
X59838617Y48000500D01*
X60155339Y48000500D01*
X60183649Y47994871D01*
X60194061Y47990558D01*
X60234110Y47950516D01*
X60235862Y47946288D01*
X60239244Y47903265D01*
X60239808Y47903175D01*
X60239436Y47900829D01*
X60239447Y47900694D01*
X60239353Y47900304D01*
X60224500Y47806521D01*
X60224500Y47405199D01*
X60218867Y47376883D01*
X60211756Y47359712D01*
X60208459Y47351753D01*
X60192418Y47327747D01*
X60002733Y47138062D01*
X59959885Y47063847D01*
X59959879Y47063834D01*
X59953188Y47038864D01*
X59950341Y47028233D01*
X59945209Y47009080D01*
X59937700Y46981054D01*
X59937700Y46981053D01*
X59937700Y45804253D01*
X59937700Y45718547D01*
X59959882Y45635761D01*
X59959883Y45635759D01*
X59959884Y45635757D01*
X59984292Y45593481D01*
X60002733Y45561540D01*
X60596956Y44967318D01*
X61126539Y44437735D01*
X61142580Y44413727D01*
X61146891Y44403319D01*
X61146891Y44346682D01*
X61146890Y44346681D01*
X61142579Y44336274D01*
X61126539Y44312268D01*
X60666024Y43851754D01*
X60666025Y43851753D01*
X60666023Y43851752D01*
X60666021Y43851750D01*
X60666020Y43851748D01*
X60666018Y43851746D01*
X60664535Y43850262D01*
X60621682Y43776039D01*
X60621564Y43775602D01*
X60621564Y43775600D01*
X60621562Y43775595D01*
X60621560Y43775590D01*
X60620346Y43771092D01*
X60620317Y43770948D01*
X60617140Y43759094D01*
X60605998Y43717513D01*
X60605998Y43717505D01*
X60599500Y43693253D01*
X60599500Y43136409D01*
X60593867Y43108090D01*
X60586139Y43089433D01*
X60551367Y43051818D01*
X60446778Y42998528D01*
X60351470Y42903220D01*
X60295600Y42793569D01*
X60290279Y42783128D01*
X60274500Y42683491D01*
X60274500Y42116511D01*
X60290279Y42016877D01*
X60290281Y42016874D01*
X60338546Y41922147D01*
X60351470Y41896782D01*
X60351471Y41896781D01*
X60351472Y41896780D01*
X60446780Y41801472D01*
X60566874Y41740281D01*
X60666509Y41724500D01*
X61183489Y41724500D01*
X61183490Y41724500D01*
X61233307Y41732391D01*
X61283126Y41740281D01*
X61403220Y41801472D01*
X61498528Y41896780D01*
X61559719Y42016874D01*
X61559719Y42016876D01*
X61559720Y42016877D01*
X61575500Y42116512D01*
X61575500Y42683489D01*
X61559719Y42783126D01*
X61559718Y42783127D01*
X61559717Y42783128D01*
X61498528Y42903220D01*
X61403220Y42998528D01*
X61403219Y42998529D01*
X61304020Y43049073D01*
X61281344Y43066949D01*
X61268228Y43082307D01*
X61250500Y43130364D01*
X61250500Y43470204D01*
X61256132Y43498520D01*
X61259445Y43506519D01*
X61266540Y43523650D01*
X61282578Y43547653D01*
X61501315Y43766391D01*
X61525316Y43782427D01*
X61541834Y43789269D01*
X61587434Y43792853D01*
X61590360Y43792151D01*
X61595932Y43790578D01*
X61599692Y43789356D01*
X61599696Y43789354D01*
X61693481Y43774500D01*
X62306518Y43774501D01*
X62306519Y43774501D01*
X62306520Y43774501D01*
X62321004Y43776795D01*
X62400304Y43789354D01*
X62400306Y43789355D01*
X62418191Y43798468D01*
X62513342Y43846950D01*
X62603050Y43936658D01*
X62660646Y44049696D01*
X62675500Y44143481D01*
X62675499Y44606518D01*
X62675164Y44608632D01*
X62675037Y44609431D01*
X62663607Y44681609D01*
X62660646Y44700305D01*
X62660645Y44700307D01*
X62659247Y44703050D01*
X62640657Y44739535D01*
X62623776Y44772665D01*
X62603050Y44813342D01*
X62513342Y44903050D01*
X62513340Y44903052D01*
X62400421Y44960587D01*
X62400356Y44960620D01*
X62400304Y44960646D01*
X62400302Y44960647D01*
X62400301Y44960647D01*
X62397387Y44961335D01*
X62394549Y44961558D01*
X62306520Y44975500D01*
X62306519Y44975500D01*
X61693480Y44975500D01*
X61693479Y44975500D01*
X61659484Y44970116D01*
X61599696Y44960647D01*
X61599694Y44960647D01*
X61596686Y44960170D01*
X61596681Y44960199D01*
X61588375Y44958869D01*
X61565138Y44957042D01*
X61520682Y44967715D01*
X61519195Y44968626D01*
X61505527Y44979400D01*
X60620781Y45864146D01*
X60604741Y45888152D01*
X60594331Y45913284D01*
X60588700Y45941598D01*
X60588700Y46735783D01*
X60594329Y46764092D01*
X60598643Y46774507D01*
X60638682Y46814553D01*
X60649111Y46818873D01*
X60677419Y46824501D01*
X61056520Y46824501D01*
X61067799Y46826288D01*
X61150304Y46839354D01*
X61150306Y46839355D01*
X61150361Y46839383D01*
X61152416Y46840430D01*
X61152419Y46840432D01*
X61263342Y46896950D01*
X61353050Y46986658D01*
X61410646Y47099696D01*
X61412614Y47112118D01*
X61416722Y47138061D01*
X61425500Y47193481D01*
X61425499Y47806518D01*
X61415648Y47868717D01*
X61410646Y47900305D01*
X61410645Y47900307D01*
X61358403Y48002836D01*
X61358402Y48002838D01*
X61353050Y48013342D01*
X61263342Y48103050D01*
X61224844Y48122666D01*
X61224842Y48122667D01*
X61204017Y48133278D01*
X61181344Y48151154D01*
X61168226Y48166514D01*
X61150500Y48214569D01*
X61150500Y48344840D01*
X61149244Y48348539D01*
X61146252Y48359705D01*
X61128318Y48426638D01*
X61085465Y48500862D01*
X61024862Y48561465D01*
X60950636Y48604320D01*
X60867856Y48626500D01*
X60867855Y48626500D01*
X60867853Y48626500D01*
X60782147Y48626500D01*
X60782145Y48626500D01*
X60782143Y48626500D01*
X60702946Y48605279D01*
X60693457Y48603391D01*
X60683914Y48602134D01*
X60674250Y48601500D01*
X59719242Y48601500D01*
X59690924Y48607133D01*
X59665795Y48617542D01*
X59641789Y48633582D01*
X59631577Y48643794D01*
X59625201Y48651064D01*
X59619337Y48658706D01*
X59613966Y48666746D01*
X59607587Y48677795D01*
X59607587Y48677794D01*
X59572965Y48737762D01*
X59512362Y48798365D01*
X59438136Y48841220D01*
X59355356Y48863400D01*
X59355355Y48863400D01*
X59355353Y48863400D01*
X58321747Y48863400D01*
X58321745Y48863400D01*
X58280355Y48852310D01*
X58238965Y48841220D01*
X58238961Y48841218D01*
X58238956Y48841216D01*
X58164736Y48798365D01*
X57831302Y48464931D01*
X57807291Y48448888D01*
X57797174Y48444698D01*
X57740537Y48444701D01*
X57703597Y48478183D01*
X57701166Y48482731D01*
X57693850Y48503179D01*
X57689410Y48525500D01*
X57688867Y48528231D01*
X57644552Y48594552D01*
X57644550Y48594553D01*
X57644550Y48594554D01*
X57615111Y48614225D01*
X57601775Y48634184D01*
X57578232Y48638867D01*
X57578233Y48638867D01*
X57548989Y48644684D01*
X57548988Y48644685D01*
X57519748Y48650500D01*
X55980252Y48650500D01*
X55951010Y48644685D01*
X55951010Y48644684D01*
X55946536Y48643794D01*
X55921769Y48638868D01*
X55921766Y48638867D01*
X55855451Y48594555D01*
X55855448Y48594553D01*
X55811133Y48528233D01*
X55805689Y48500863D01*
X55799500Y48469748D01*
X55799500Y47530253D01*
X55803467Y47510310D01*
X55811133Y47471768D01*
X55811133Y47471767D01*
X55816624Y47463550D01*
X55816625Y47463549D01*
X55855447Y47405449D01*
X55855448Y47405448D01*
X55877849Y47390480D01*
X55877850Y47390479D01*
X55915709Y47365182D01*
X55918539Y47362859D01*
X55918562Y47362847D01*
X55921698Y47360967D01*
X55925258Y47360075D01*
X55925273Y47360071D01*
X55928910Y47359712D01*
X55980252Y47349500D01*
X55980254Y47349500D01*
X57519746Y47349500D01*
X57519748Y47349500D01*
X57578231Y47361133D01*
X57578232Y47361134D01*
X57644552Y47405448D01*
X57688867Y47471769D01*
X57700500Y47530252D01*
X57700500Y47585782D01*
X57706129Y47614091D01*
X57710443Y47624506D01*
X57750482Y47664552D01*
X57760911Y47668872D01*
X57789219Y47674500D01*
X57869551Y47674500D01*
X57869553Y47674500D01*
X57952339Y47696682D01*
X58026562Y47739535D01*
X58467348Y48180322D01*
X58491351Y48196359D01*
X58516482Y48206769D01*
X58544798Y48212400D01*
X58652637Y48212400D01*
X58680951Y48206769D01*
X58688314Y48203719D01*
X58728362Y48163672D01*
X58728363Y48134234D01*
X58730948Y48127993D01*
X58728363Y48121754D01*
X58728364Y48107035D01*
X58725316Y48099676D01*
X58709274Y48075667D01*
X58646950Y48013344D01*
X58614861Y47950366D01*
X58608794Y47940466D01*
X58602032Y47931159D01*
X58594491Y47922330D01*
X58540880Y47868717D01*
X58540880Y47868716D01*
X57767650Y47095487D01*
X57743644Y47079447D01*
X57733237Y47075136D01*
X57676602Y47075134D01*
X57668637Y47078433D01*
X57644600Y47094503D01*
X57644554Y47094549D01*
X57644552Y47094552D01*
X57615110Y47114225D01*
X57601774Y47134184D01*
X57578232Y47138867D01*
X57578233Y47138867D01*
X57548989Y47144684D01*
X57548988Y47144685D01*
X57519748Y47150500D01*
X55980252Y47150500D01*
X55951010Y47144685D01*
X55951010Y47144684D01*
X55943749Y47143240D01*
X55921769Y47138868D01*
X55921766Y47138867D01*
X55855451Y47094555D01*
X55855448Y47094553D01*
X55811133Y47028234D01*
X55799500Y46969747D01*
X55799500Y46914219D01*
X55793867Y46885901D01*
X55789556Y46875493D01*
X55749508Y46835445D01*
X55749507Y46835444D01*
X55739099Y46831133D01*
X55710781Y46825500D01*
X55630445Y46825500D01*
X55589623Y46814562D01*
X55547665Y46803320D01*
X55547661Y46803318D01*
X55547656Y46803316D01*
X55473436Y46760465D01*
X55412835Y46699864D01*
X55369984Y46625644D01*
X55369982Y46625639D01*
X55369978Y46625628D01*
X55347800Y46542859D01*
X55347800Y44652198D01*
X55342167Y44623882D01*
X55332852Y44601390D01*
X55331759Y44598752D01*
X55315718Y44574746D01*
X48087832Y37346860D01*
X48044984Y37272646D01*
X48044982Y37272641D01*
X48044981Y37272639D01*
X48044980Y37272635D01*
X48025481Y37199861D01*
X48022800Y37189856D01*
X48022800Y27342198D01*
X48017167Y27313882D01*
X48006759Y27288752D01*
X47990718Y27264746D01*
X46337233Y25611261D01*
X46313224Y25595219D01*
X46305865Y25592171D01*
X46249228Y25592173D01*
X46209181Y25632221D01*
X46206131Y25639584D01*
X46200500Y25667898D01*
X46200500Y26419747D01*
X46195038Y26447206D01*
X46195038Y26447208D01*
X46188867Y26478231D01*
X46144552Y26544552D01*
X46122343Y26559392D01*
X46115106Y26564228D01*
X46101774Y26584185D01*
X46062106Y26592075D01*
X46048989Y26594684D01*
X46048988Y26594685D01*
X46019748Y26600500D01*
X44280252Y26600500D01*
X44251010Y26594685D01*
X44251010Y26594684D01*
X44243749Y26593240D01*
X44221769Y26588868D01*
X44221766Y26588867D01*
X44155451Y26544555D01*
X44155448Y26544553D01*
X44111133Y26478234D01*
X44099500Y26419747D01*
X44099500Y26314219D01*
X44093867Y26285901D01*
X44089556Y26275493D01*
X44049508Y26235445D01*
X44049507Y26235444D01*
X44039099Y26231133D01*
X44010781Y26225500D01*
X40967641Y26225500D01*
X40939326Y26231132D01*
X40931569Y26234345D01*
X40928916Y26235444D01*
X40888868Y26275487D01*
X40887599Y26278552D01*
X40887603Y26321764D01*
X40883893Y26322501D01*
X40884838Y26327257D01*
X40885937Y26331974D01*
X40907500Y26412447D01*
X40907500Y26498153D01*
X40907500Y32285853D01*
X40907500Y32285855D01*
X40907500Y32286839D01*
X40906245Y32290533D01*
X40893164Y32339354D01*
X40885318Y32368638D01*
X40842465Y32442862D01*
X40781862Y32503465D01*
X37457580Y35827747D01*
X37441540Y35851753D01*
X37431130Y35876885D01*
X37425499Y35905199D01*
X37425499Y36144003D01*
X37431130Y36172317D01*
X37441541Y36197452D01*
X37457577Y36221452D01*
X37604267Y36368141D01*
X37811465Y36575338D01*
X37852473Y36646367D01*
X37857833Y36654391D01*
X37863704Y36662043D01*
X37870067Y36669299D01*
X38181823Y36981054D01*
X38205824Y36997091D01*
X38216239Y37001404D01*
X38272868Y37001404D01*
X38276141Y37000049D01*
X38309350Y36972796D01*
X38322615Y36952944D01*
X38324594Y36951623D01*
X38332207Y36940230D01*
X38341737Y36925967D01*
X38355446Y36905450D01*
X38355448Y36905448D01*
X38379035Y36889688D01*
X38399559Y36875974D01*
X38399560Y36875973D01*
X38415710Y36865181D01*
X38418539Y36862860D01*
X38418562Y36862847D01*
X38421698Y36860967D01*
X38425258Y36860075D01*
X38425273Y36860071D01*
X38428910Y36859712D01*
X38480252Y36849500D01*
X38480254Y36849500D01*
X40019746Y36849500D01*
X40019748Y36849500D01*
X40078231Y36861133D01*
X40078232Y36861134D01*
X40144552Y36905448D01*
X40188867Y36971769D01*
X40200500Y37030252D01*
X40200500Y37969748D01*
X40188867Y38028231D01*
X40144552Y38094552D01*
X40137883Y38099008D01*
X40118327Y38112075D01*
X40118326Y38112076D01*
X40115101Y38114231D01*
X40101773Y38134185D01*
X40065177Y38141464D01*
X40048989Y38144684D01*
X40048988Y38144685D01*
X40019748Y38150500D01*
X38480252Y38150500D01*
X38451010Y38144685D01*
X38451010Y38144684D01*
X38443749Y38143240D01*
X38421769Y38138868D01*
X38421766Y38138867D01*
X38355451Y38094555D01*
X38355449Y38094553D01*
X38355447Y38094551D01*
X38348770Y38084558D01*
X38311133Y38028234D01*
X38311132Y38028230D01*
X38307568Y38010311D01*
X38300445Y37974500D01*
X38300445Y37974497D01*
X38299500Y37969750D01*
X38299500Y37889219D01*
X38293867Y37860901D01*
X38289556Y37850493D01*
X38249508Y37810445D01*
X38249507Y37810444D01*
X38239099Y37806133D01*
X38210781Y37800500D01*
X38165034Y37800500D01*
X38088618Y37780025D01*
X38088609Y37780022D01*
X38020090Y37740462D01*
X38020087Y37740460D01*
X37964141Y37684515D01*
X37924578Y37615990D01*
X37924577Y37615987D01*
X37916770Y37586852D01*
X37909378Y37569008D01*
X37899968Y37552709D01*
X37888208Y37537382D01*
X37445104Y37094278D01*
X37437827Y37087896D01*
X37430202Y37082045D01*
X37422153Y37076667D01*
X37351138Y37035667D01*
X37023052Y36707582D01*
X36999046Y36691542D01*
X36973916Y36681133D01*
X36945600Y36675500D01*
X36593479Y36675500D01*
X36499698Y36660648D01*
X36445110Y36632834D01*
X36417322Y36624997D01*
X36406091Y36624113D01*
X36352239Y36641603D01*
X36350763Y36642863D01*
X36326849Y36681885D01*
X36326441Y36683586D01*
X36324400Y36700846D01*
X36324400Y37793198D01*
X36330029Y37821507D01*
X36334343Y37831922D01*
X36374382Y37871968D01*
X36376223Y37872731D01*
X36421750Y37876310D01*
X36423462Y37875899D01*
X36439788Y37869879D01*
X36499696Y37839354D01*
X36593481Y37824500D01*
X37056518Y37824501D01*
X37056519Y37824501D01*
X37056520Y37824501D01*
X37067799Y37826288D01*
X37150304Y37839354D01*
X37150306Y37839355D01*
X37152337Y37840390D01*
X37152416Y37840430D01*
X37152419Y37840432D01*
X37263342Y37896950D01*
X37353050Y37986658D01*
X37367867Y38015737D01*
X37408698Y38095872D01*
X37410533Y38099008D01*
X37410699Y38099377D01*
X37411327Y38102534D01*
X37411536Y38103404D01*
X37420391Y38124779D01*
X37427936Y38137091D01*
X37468164Y38168804D01*
X37474552Y38170879D01*
X37497417Y38174500D01*
X37716151Y38174500D01*
X37716153Y38174500D01*
X37798939Y38196682D01*
X37873162Y38239535D01*
X38168701Y38535076D01*
X38192697Y38551110D01*
X38202823Y38555305D01*
X38259456Y38555305D01*
X38296407Y38521809D01*
X38298838Y38517259D01*
X38306147Y38496831D01*
X38307938Y38487832D01*
X38307939Y38487825D01*
X38309528Y38479839D01*
X38311133Y38471768D01*
X38324815Y38451293D01*
X38338497Y38430816D01*
X38338498Y38430815D01*
X38355448Y38405448D01*
X38399559Y38375974D01*
X38399560Y38375973D01*
X38415710Y38365181D01*
X38418539Y38362860D01*
X38418562Y38362847D01*
X38421698Y38360967D01*
X38425258Y38360075D01*
X38425273Y38360071D01*
X38428910Y38359712D01*
X38480252Y38349500D01*
X38480254Y38349500D01*
X40019746Y38349500D01*
X40019748Y38349500D01*
X40078231Y38361133D01*
X40078232Y38361134D01*
X40144552Y38405448D01*
X40188867Y38471769D01*
X40200500Y38530252D01*
X40200500Y39469748D01*
X40188867Y39528231D01*
X40144552Y39594552D01*
X40122343Y39609392D01*
X40115106Y39614228D01*
X40101774Y39634185D01*
X40062106Y39642075D01*
X40048989Y39644684D01*
X40048988Y39644685D01*
X40019748Y39650500D01*
X40019746Y39650500D01*
X39054198Y39650500D01*
X39025878Y39656134D01*
X39018515Y39659184D01*
X38978470Y39699234D01*
X38978470Y39755864D01*
X38981521Y39763231D01*
X38997557Y39787231D01*
X39027748Y39817422D01*
X39051751Y39833459D01*
X39076882Y39843869D01*
X39105198Y39849500D01*
X40019746Y39849500D01*
X40019748Y39849500D01*
X40078231Y39861133D01*
X40078232Y39861134D01*
X40144552Y39905448D01*
X40188867Y39971769D01*
X40200500Y40030252D01*
X40200500Y40969748D01*
X40188867Y41028231D01*
X40144552Y41094552D01*
X40122343Y41109392D01*
X40115106Y41114228D01*
X40101774Y41134185D01*
X40062106Y41142075D01*
X40048989Y41144684D01*
X40048988Y41144685D01*
X40019748Y41150500D01*
X38480252Y41150500D01*
X38451010Y41144685D01*
X38451010Y41144684D01*
X38443749Y41143240D01*
X38421769Y41138868D01*
X38421766Y41138867D01*
X38355451Y41094555D01*
X38355448Y41094553D01*
X38311133Y41028234D01*
X38299500Y40969747D01*
X38299500Y40264219D01*
X38293867Y40235901D01*
X38289556Y40225493D01*
X38249508Y40185445D01*
X38249507Y40185444D01*
X38239099Y40181133D01*
X38210781Y40175500D01*
X38148641Y40175500D01*
X38120323Y40181133D01*
X38095194Y40191542D01*
X38071188Y40207582D01*
X38008265Y40270505D01*
X37962090Y40297164D01*
X37888436Y40339688D01*
X37888431Y40339690D01*
X37754785Y40375500D01*
X37754784Y40375500D01*
X37616416Y40375500D01*
X37616415Y40375500D01*
X37482768Y40339690D01*
X37482766Y40339690D01*
X37482765Y40339689D01*
X37362933Y40270505D01*
X37265095Y40172667D01*
X37195911Y40052836D01*
X37195910Y40052832D01*
X37160100Y39919186D01*
X37160100Y39780815D01*
X37195910Y39647169D01*
X37195912Y39647164D01*
X37265095Y39527335D01*
X37362935Y39429495D01*
X37482764Y39360312D01*
X37611733Y39325756D01*
X37615431Y39324500D01*
X37754785Y39324500D01*
X37765048Y39324500D01*
X37773936Y39329633D01*
X37859967Y39352685D01*
X37888769Y39354573D01*
X37896670Y39353533D01*
X37945719Y39325219D01*
X37960383Y39270513D01*
X37960382Y39270508D01*
X37960159Y39268814D01*
X37939118Y39226146D01*
X37570554Y38857582D01*
X37546546Y38841541D01*
X37525076Y38832648D01*
X37500158Y38832648D01*
X37475353Y38830178D01*
X37468450Y38832644D01*
X37458590Y38836728D01*
X37420974Y38871503D01*
X37418492Y38876372D01*
X37412477Y38892676D01*
X37411327Y38897463D01*
X37410835Y38899934D01*
X37393493Y38933968D01*
X37361271Y38997207D01*
X37353050Y39013342D01*
X37263342Y39103050D01*
X37263340Y39103052D01*
X37150421Y39160587D01*
X37150356Y39160620D01*
X37150304Y39160646D01*
X37150302Y39160647D01*
X37150301Y39160647D01*
X37147387Y39161335D01*
X37144549Y39161558D01*
X37056520Y39175500D01*
X37056519Y39175500D01*
X36593480Y39175500D01*
X36593479Y39175500D01*
X36499698Y39160648D01*
X36445110Y39132834D01*
X36417322Y39124997D01*
X36406091Y39124113D01*
X36352239Y39141603D01*
X36350763Y39142863D01*
X36326849Y39181885D01*
X36326441Y39183586D01*
X36324400Y39200846D01*
X36324400Y40168951D01*
X36323404Y40172666D01*
X36322847Y40174747D01*
X36319981Y40185444D01*
X36310848Y40219532D01*
X36310848Y40219533D01*
X36302219Y40251736D01*
X36302217Y40251741D01*
X36274612Y40299554D01*
X36274610Y40299556D01*
X36272339Y40303489D01*
X36260475Y40324040D01*
X36259583Y40325696D01*
X36259445Y40325882D01*
X35907581Y40677746D01*
X35891541Y40701752D01*
X35881131Y40726884D01*
X35875500Y40755198D01*
X35875500Y41183490D01*
X35869593Y41220786D01*
X35859719Y41283126D01*
X35859718Y41283127D01*
X35798528Y41403220D01*
X35710790Y41490958D01*
X35700024Y41504614D01*
X35690604Y41519983D01*
X35681739Y41575920D01*
X35683340Y41582592D01*
X35702968Y41617644D01*
X36162768Y42077445D01*
X36186774Y42093484D01*
X36194137Y42096533D01*
X36250774Y42096529D01*
X36290815Y42056489D01*
X36293864Y42049130D01*
X36299500Y42020805D01*
X36299500Y41955815D01*
X36335310Y41822169D01*
X36335312Y41822164D01*
X36404495Y41702335D01*
X36502335Y41604495D01*
X36622164Y41535312D01*
X36751133Y41500756D01*
X36754831Y41499500D01*
X36894185Y41499500D01*
X36904448Y41499500D01*
X36913336Y41504633D01*
X37027836Y41535312D01*
X37147665Y41604495D01*
X37245505Y41702335D01*
X37314688Y41822164D01*
X37345367Y41936664D01*
X37350500Y41945553D01*
X37350500Y42095170D01*
X37349244Y42098867D01*
X37314838Y42227274D01*
X37314701Y42227803D01*
X37314689Y42227834D01*
X37245504Y42347666D01*
X37182581Y42410589D01*
X37166541Y42434594D01*
X37157924Y42455397D01*
X37157924Y42469751D01*
X38299500Y42469751D01*
X38299500Y42469748D01*
X38299500Y41530252D01*
X38307255Y41491264D01*
X38311133Y41471768D01*
X38340608Y41427657D01*
X38355448Y41405448D01*
X38399560Y41375973D01*
X38421767Y41361134D01*
X38421768Y41361134D01*
X38421769Y41361133D01*
X38427746Y41359944D01*
X38427908Y41359811D01*
X38428910Y41359712D01*
X38480252Y41349500D01*
X38480254Y41349500D01*
X40019746Y41349500D01*
X40019748Y41349500D01*
X40078231Y41361133D01*
X40078232Y41361134D01*
X40144552Y41405448D01*
X40188867Y41471769D01*
X40200500Y41530252D01*
X40200500Y42469748D01*
X40188867Y42528231D01*
X40181822Y42538774D01*
X40144554Y42594549D01*
X40144552Y42594552D01*
X40140963Y42596950D01*
X40122343Y42609392D01*
X40115106Y42614228D01*
X40101774Y42634185D01*
X40062106Y42642075D01*
X40048989Y42644684D01*
X40048988Y42644685D01*
X40019748Y42650500D01*
X38480252Y42650500D01*
X38451010Y42644685D01*
X38451010Y42644684D01*
X38443749Y42643240D01*
X38421769Y42638868D01*
X38421766Y42638867D01*
X38355451Y42594555D01*
X38355445Y42594549D01*
X38311133Y42528234D01*
X38311132Y42528231D01*
X38303377Y42489242D01*
X38299500Y42469751D01*
X37157924Y42469751D01*
X37157923Y42512029D01*
X37163862Y42526368D01*
X37198632Y42563980D01*
X37263342Y42596950D01*
X37353050Y42686658D01*
X37410646Y42799696D01*
X37425500Y42893481D01*
X37425499Y43506518D01*
X37422941Y43522666D01*
X37420632Y43537248D01*
X37420632Y43537249D01*
X37412210Y43590430D01*
X37410646Y43600305D01*
X37410645Y43600307D01*
X37380770Y43658939D01*
X37353050Y43713342D01*
X37263342Y43803050D01*
X37263340Y43803052D01*
X37150421Y43860587D01*
X37150356Y43860620D01*
X37150304Y43860646D01*
X37150302Y43860647D01*
X37150301Y43860647D01*
X37147387Y43861335D01*
X37144549Y43861558D01*
X37056520Y43875500D01*
X37056519Y43875500D01*
X36593480Y43875500D01*
X36593479Y43875500D01*
X36499695Y43860647D01*
X36499629Y43860614D01*
X36386656Y43803050D01*
X36296951Y43713345D01*
X36239353Y43600305D01*
X36239353Y43600303D01*
X36224500Y43506521D01*
X36224500Y43105198D01*
X36218867Y43076882D01*
X36208486Y43051818D01*
X36208459Y43051752D01*
X36192418Y43027746D01*
X35889788Y42725117D01*
X35865780Y42709076D01*
X35859334Y42706406D01*
X35802697Y42706406D01*
X35762649Y42746455D01*
X35759062Y42792051D01*
X35759517Y42793943D01*
X35759515Y42793944D01*
X35764484Y42814633D01*
X35763703Y42819002D01*
X35768534Y42849500D01*
X35775500Y42893481D01*
X35775499Y43506518D01*
X35772941Y43522666D01*
X35770632Y43537248D01*
X35770632Y43537249D01*
X35762210Y43590430D01*
X35760646Y43600305D01*
X35760645Y43600307D01*
X35730770Y43658939D01*
X35703050Y43713342D01*
X35613342Y43803050D01*
X35613340Y43803052D01*
X35500421Y43860587D01*
X35500356Y43860620D01*
X35500304Y43860646D01*
X35500302Y43860647D01*
X35500301Y43860647D01*
X35497387Y43861335D01*
X35494549Y43861558D01*
X35406520Y43875500D01*
X35406519Y43875500D01*
X34943480Y43875500D01*
X34943479Y43875500D01*
X34849695Y43860647D01*
X34849629Y43860614D01*
X34736656Y43803050D01*
X34646953Y43713347D01*
X34646941Y43713330D01*
X34646790Y43713030D01*
X34632670Y43685316D01*
X34632669Y43685314D01*
X34632669Y43685313D01*
X34619484Y43659438D01*
X34618058Y43656638D01*
X34600183Y43633965D01*
X34591617Y43626649D01*
X34537752Y43609147D01*
X34530803Y43609694D01*
X34499613Y43619380D01*
X34497664Y43620505D01*
X34377836Y43689688D01*
X34377831Y43689690D01*
X34244185Y43725500D01*
X34244184Y43725500D01*
X34105816Y43725500D01*
X34105815Y43725500D01*
X33972168Y43689690D01*
X33972163Y43689688D01*
X33964585Y43685313D01*
X33852333Y43620505D01*
X33754495Y43522667D01*
X33685311Y43402836D01*
X33685310Y43402832D01*
X33649500Y43269186D01*
X33649500Y43130815D01*
X33685310Y42997169D01*
X33685312Y42997164D01*
X33754495Y42877335D01*
X33852335Y42779495D01*
X33972164Y42710312D01*
X34101133Y42675756D01*
X34104831Y42674500D01*
X34244185Y42674500D01*
X34254448Y42674500D01*
X34263336Y42679633D01*
X34377836Y42710312D01*
X34493634Y42777169D01*
X34511475Y42784558D01*
X34525490Y42788314D01*
X34581640Y42780926D01*
X34583736Y42779716D01*
X34587143Y42777748D01*
X34616069Y42747264D01*
X34632657Y42714709D01*
X34646950Y42686658D01*
X34736658Y42596950D01*
X34849696Y42539354D01*
X34943481Y42524500D01*
X35406518Y42524501D01*
X35406519Y42524501D01*
X35406520Y42524501D01*
X35418289Y42526365D01*
X35492354Y42538096D01*
X35498090Y42538774D01*
X35506404Y42539430D01*
X35506405Y42539429D01*
X35520991Y42540579D01*
X35574857Y42523084D01*
X35600576Y42472623D01*
X35590163Y42428575D01*
X35590128Y42428517D01*
X35579096Y42414424D01*
X34964532Y41799860D01*
X34921678Y41725634D01*
X34921664Y41725608D01*
X34921647Y41725574D01*
X34921393Y41724563D01*
X34914482Y41698767D01*
X34914479Y41698764D01*
X34914480Y41698763D01*
X34899500Y41642859D01*
X34899500Y41636409D01*
X34893867Y41608092D01*
X34886139Y41589433D01*
X34851367Y41551818D01*
X34746778Y41498528D01*
X34651470Y41403220D01*
X34595600Y41293569D01*
X34590279Y41283128D01*
X34574500Y41183491D01*
X34574500Y40616511D01*
X34590279Y40516874D01*
X34595597Y40506437D01*
X34595601Y40506432D01*
X34648238Y40403126D01*
X34651472Y40396780D01*
X34746780Y40301472D01*
X34866874Y40240281D01*
X34966509Y40224500D01*
X34966511Y40224500D01*
X34966512Y40224500D01*
X35394802Y40224500D01*
X35423116Y40218869D01*
X35448248Y40208459D01*
X35472254Y40192419D01*
X35641318Y40023355D01*
X35657357Y39999352D01*
X35667768Y39974218D01*
X35673400Y39945903D01*
X35673400Y39207925D01*
X35667767Y39179607D01*
X35663456Y39169199D01*
X35623408Y39129151D01*
X35623405Y39129150D01*
X35623404Y39129149D01*
X35621610Y39128406D01*
X35576016Y39124820D01*
X35574317Y39125228D01*
X35558002Y39131248D01*
X35512823Y39154268D01*
X35500367Y39160614D01*
X35500356Y39160620D01*
X35500304Y39160646D01*
X35500302Y39160647D01*
X35500301Y39160647D01*
X35497387Y39161335D01*
X35494549Y39161558D01*
X35406520Y39175500D01*
X35406519Y39175500D01*
X34943480Y39175500D01*
X34943479Y39175500D01*
X34849695Y39160647D01*
X34849629Y39160614D01*
X34736656Y39103050D01*
X34646952Y39013346D01*
X34618057Y38956638D01*
X34600185Y38933968D01*
X34591620Y38926652D01*
X34537756Y38909147D01*
X34537752Y38909147D01*
X34530803Y38909694D01*
X34499613Y38919380D01*
X34497664Y38920505D01*
X34406359Y38973220D01*
X34377836Y38989688D01*
X34377831Y38989690D01*
X34244185Y39025500D01*
X34244184Y39025500D01*
X34105816Y39025500D01*
X34105815Y39025500D01*
X33972168Y38989690D01*
X33972166Y38989690D01*
X33972165Y38989689D01*
X33852333Y38920505D01*
X33754495Y38822667D01*
X33685311Y38702836D01*
X33685310Y38702832D01*
X33649500Y38569186D01*
X33649500Y38430815D01*
X33685310Y38297169D01*
X33685312Y38297164D01*
X33754495Y38177335D01*
X33852335Y38079495D01*
X33972164Y38010312D01*
X34101133Y37975756D01*
X34104831Y37974500D01*
X34244185Y37974500D01*
X34254448Y37974500D01*
X34263336Y37979633D01*
X34377836Y38010312D01*
X34493634Y38077169D01*
X34511475Y38084558D01*
X34525490Y38088314D01*
X34581640Y38080926D01*
X34583736Y38079716D01*
X34587143Y38077748D01*
X34616069Y38047264D01*
X34632135Y38015734D01*
X34646950Y37986658D01*
X34736658Y37896950D01*
X34849696Y37839354D01*
X34943481Y37824500D01*
X35406518Y37824501D01*
X35406519Y37824501D01*
X35406520Y37824501D01*
X35500304Y37839354D01*
X35552689Y37866046D01*
X35580471Y37873882D01*
X35585349Y37874267D01*
X35591705Y37874767D01*
X35645569Y37857271D01*
X35645749Y37857117D01*
X35647059Y37855998D01*
X35670946Y37817014D01*
X35671354Y37815315D01*
X35673400Y37798036D01*
X35673400Y36707925D01*
X35667767Y36679607D01*
X35663456Y36669199D01*
X35623408Y36629151D01*
X35623405Y36629150D01*
X35623404Y36629149D01*
X35621610Y36628406D01*
X35576016Y36624820D01*
X35574317Y36625228D01*
X35558002Y36631248D01*
X35512545Y36654409D01*
X35500367Y36660614D01*
X35500356Y36660620D01*
X35500304Y36660646D01*
X35500302Y36660647D01*
X35500301Y36660647D01*
X35497387Y36661335D01*
X35494549Y36661558D01*
X35406520Y36675500D01*
X35406519Y36675500D01*
X34943480Y36675500D01*
X34943479Y36675500D01*
X34849695Y36660647D01*
X34849629Y36660614D01*
X34736656Y36603050D01*
X34679107Y36545500D01*
X34646951Y36513344D01*
X34646950Y36513342D01*
X34646948Y36513340D01*
X34646827Y36513172D01*
X34646817Y36513082D01*
X34618059Y36456640D01*
X34600183Y36433965D01*
X34591617Y36426649D01*
X34537752Y36409147D01*
X34530803Y36409694D01*
X34499613Y36419380D01*
X34497664Y36420505D01*
X34436502Y36455817D01*
X34377836Y36489688D01*
X34377831Y36489690D01*
X34244185Y36525500D01*
X34244184Y36525500D01*
X34105816Y36525500D01*
X34105815Y36525500D01*
X33972168Y36489690D01*
X33972163Y36489688D01*
X33971926Y36489551D01*
X33852333Y36420505D01*
X33754495Y36322667D01*
X33685311Y36202836D01*
X33685310Y36202832D01*
X33649500Y36069186D01*
X33649500Y35930815D01*
X33685310Y35797169D01*
X33685312Y35797164D01*
X33754495Y35677335D01*
X33852335Y35579495D01*
X33972164Y35510312D01*
X34101133Y35475756D01*
X34104831Y35474500D01*
X34244185Y35474500D01*
X34254448Y35474500D01*
X34263336Y35479633D01*
X34377836Y35510312D01*
X34493634Y35577169D01*
X34511475Y35584558D01*
X34525490Y35588314D01*
X34581640Y35580926D01*
X34583736Y35579716D01*
X34587143Y35577748D01*
X34616069Y35547264D01*
X34634210Y35511661D01*
X34646950Y35486658D01*
X34736658Y35396950D01*
X34849696Y35339354D01*
X34943481Y35324500D01*
X35406518Y35324501D01*
X35406519Y35324501D01*
X35406520Y35324501D01*
X35500304Y35339354D01*
X35552689Y35366046D01*
X35580471Y35373882D01*
X35585349Y35374267D01*
X35591705Y35374767D01*
X35645570Y35357270D01*
X35645583Y35357259D01*
X35647059Y35355998D01*
X35670946Y35317014D01*
X35671354Y35315315D01*
X35673400Y35298036D01*
X35673400Y34128598D01*
X35667767Y34100282D01*
X35663064Y34088925D01*
X35657359Y34075152D01*
X35641318Y34051146D01*
X34803732Y33213560D01*
X34757634Y33133717D01*
X34757071Y33125120D01*
X34738700Y33056555D01*
X34738700Y30671063D01*
X34733064Y30642738D01*
X34730015Y30635379D01*
X34689963Y30595334D01*
X34633330Y30595338D01*
X34610067Y30604975D01*
X34604793Y30607406D01*
X34500302Y30660647D01*
X34497387Y30661335D01*
X34494549Y30661558D01*
X34406520Y30675500D01*
X34406519Y30675500D01*
X33943480Y30675500D01*
X33943479Y30675500D01*
X33849695Y30660647D01*
X33849629Y30660614D01*
X33736656Y30603050D01*
X33646951Y30513345D01*
X33589353Y30400305D01*
X33589353Y30400303D01*
X33574500Y30306521D01*
X33574500Y30187719D01*
X33568867Y30159401D01*
X33564556Y30148993D01*
X33524508Y30108945D01*
X33524507Y30108944D01*
X33514099Y30104633D01*
X33485781Y30099000D01*
X33172241Y30099000D01*
X33143923Y30104633D01*
X33118794Y30115042D01*
X33094788Y30131082D01*
X33031865Y30194005D01*
X32912034Y30263189D01*
X32912032Y30263190D01*
X32912031Y30263190D01*
X32778385Y30299000D01*
X32778384Y30299000D01*
X32640016Y30299000D01*
X32640015Y30299000D01*
X32506368Y30263190D01*
X32506366Y30263190D01*
X32506365Y30263189D01*
X32386533Y30194005D01*
X32288695Y30096167D01*
X32219511Y29976336D01*
X32219510Y29976332D01*
X32183700Y29842686D01*
X32183700Y29704315D01*
X32219510Y29570669D01*
X32219512Y29570664D01*
X32288695Y29450835D01*
X32386535Y29352995D01*
X32506364Y29283812D01*
X32635333Y29249256D01*
X32639031Y29248000D01*
X32778385Y29248000D01*
X32788648Y29248000D01*
X32797536Y29253133D01*
X32912036Y29283812D01*
X33031865Y29352995D01*
X33094791Y29415922D01*
X33118794Y29431959D01*
X33143925Y29442369D01*
X33172241Y29448000D01*
X33640237Y29448000D01*
X33668551Y29442369D01*
X33693683Y29431959D01*
X33717689Y29415919D01*
X33736658Y29396950D01*
X33849696Y29339354D01*
X33943481Y29324500D01*
X34406518Y29324501D01*
X34406519Y29324501D01*
X34406520Y29324501D01*
X34422102Y29326969D01*
X34500304Y29339354D01*
X34500306Y29339355D01*
X34513153Y29345901D01*
X34604822Y29392609D01*
X34610084Y29395035D01*
X34619192Y29398808D01*
X34619193Y29398807D01*
X34633335Y29404665D01*
X34689972Y29404663D01*
X34730015Y29364622D01*
X34733064Y29357263D01*
X34738700Y29328938D01*
X34738700Y26771344D01*
X34755708Y26707873D01*
X34757596Y26679060D01*
X34756637Y26671772D01*
X34756126Y26667887D01*
X34727809Y26618841D01*
X34723837Y26615793D01*
X34678787Y26600500D01*
X33280252Y26600500D01*
X33251010Y26594685D01*
X33251010Y26594684D01*
X33243749Y26593240D01*
X33221769Y26588868D01*
X33221766Y26588867D01*
X33155451Y26544555D01*
X33155448Y26544553D01*
X33111133Y26478234D01*
X33099500Y26419747D01*
X33099500Y26314219D01*
X33093867Y26285901D01*
X33089556Y26275493D01*
X33049508Y26235445D01*
X33049507Y26235444D01*
X33039099Y26231133D01*
X33010781Y26225500D01*
X28989219Y26225500D01*
X28960904Y26231132D01*
X28953147Y26234345D01*
X28950494Y26235444D01*
X28910446Y26275487D01*
X28906129Y26285909D01*
X28900500Y26314219D01*
X28900500Y26419747D01*
X28895038Y26447206D01*
X28895038Y26447208D01*
X28888867Y26478231D01*
X28844552Y26544552D01*
X28822343Y26559392D01*
X28815106Y26564228D01*
X28801774Y26584185D01*
X28762106Y26592075D01*
X28748989Y26594684D01*
X28748988Y26594685D01*
X28719748Y26600500D01*
X26980252Y26600500D01*
X26951010Y26594685D01*
X26951010Y26594684D01*
X26943749Y26593240D01*
X26921769Y26588868D01*
X26921766Y26588867D01*
X26855451Y26544555D01*
X26855448Y26544553D01*
X26811133Y26478234D01*
X26808802Y26466512D01*
X26799500Y26419747D01*
X26799500Y25380254D01*
X26811133Y25321768D01*
X26840608Y25277657D01*
X26855448Y25255448D01*
X26899560Y25225973D01*
X26921767Y25211134D01*
X26921768Y25211134D01*
X26921769Y25211133D01*
X26927746Y25209944D01*
X26927908Y25209811D01*
X26928910Y25209712D01*
X26980252Y25199500D01*
X26980254Y25199500D01*
X28719746Y25199500D01*
X28719748Y25199500D01*
X28778231Y25211133D01*
X28778232Y25211134D01*
X28844552Y25255448D01*
X28888867Y25321769D01*
X28900500Y25380252D01*
X28900500Y25485782D01*
X28906129Y25514091D01*
X28910443Y25524506D01*
X28950482Y25564552D01*
X28960911Y25568872D01*
X28989219Y25574500D01*
X33010781Y25574500D01*
X33039091Y25568871D01*
X33049503Y25564558D01*
X33089553Y25524515D01*
X33089556Y25524508D01*
X33093867Y25514100D01*
X33099500Y25485782D01*
X33099500Y25380254D01*
X33111133Y25321768D01*
X33134549Y25286724D01*
X33146023Y25269554D01*
X33157073Y25242879D01*
X33159210Y25232137D01*
X33148162Y25176587D01*
X33108130Y25146890D01*
X33103196Y25145392D01*
X33081698Y25142200D01*
X30325475Y25142200D01*
X30325411Y25142201D01*
X30324288Y25142201D01*
X30319758Y25142201D01*
X30161643Y25142201D01*
X30161641Y25142201D01*
X30161639Y25142201D01*
X30008920Y25101281D01*
X29871982Y25022220D01*
X29068476Y24218712D01*
X28989421Y24081786D01*
X28989421Y24081785D01*
X28989420Y24081782D01*
X28989420Y24081781D01*
X28948499Y23929063D01*
X28948499Y23770939D01*
X28989420Y23618221D01*
X28989420Y23618220D01*
X28989421Y23618217D01*
X28989421Y23618216D01*
X29068478Y23481287D01*
X29180362Y23369403D01*
X29180555Y23369260D01*
X29182198Y23368375D01*
X29301493Y23299500D01*
X29317216Y23290422D01*
X29381022Y23273325D01*
X29381028Y23273324D01*
X29381036Y23273322D01*
X29465263Y23250754D01*
X29468958Y23249499D01*
X29628059Y23249499D01*
X29638321Y23249499D01*
X29647209Y23254632D01*
X29780785Y23290423D01*
X29917716Y23369481D01*
X30457356Y23909121D01*
X30481360Y23925159D01*
X30506491Y23935569D01*
X30534807Y23941200D01*
X43613418Y23941200D01*
X43641732Y23935569D01*
X43657253Y23929140D01*
X43693027Y23897762D01*
X43694748Y23894780D01*
X43702024Y23877351D01*
X43702061Y23877216D01*
X43702170Y23876814D01*
X43703321Y23872517D01*
X43782378Y23735587D01*
X43894262Y23623703D01*
X43894455Y23623560D01*
X43896098Y23622675D01*
X43979046Y23574785D01*
X44031113Y23544724D01*
X44031115Y23544723D01*
X44082046Y23531077D01*
X44107941Y23518306D01*
X44116878Y23511448D01*
X44145194Y23462403D01*
X44145307Y23461545D01*
X44136033Y23414894D01*
X44134312Y23411912D01*
X44122546Y23396575D01*
X40700754Y19974782D01*
X40676748Y19958742D01*
X40651618Y19948333D01*
X40623302Y19942700D01*
X25864219Y19942700D01*
X25835904Y19948332D01*
X25825495Y19952643D01*
X25785446Y19992687D01*
X25781129Y20003109D01*
X25775500Y20031419D01*
X25775500Y21954747D01*
X25775500Y21954748D01*
X25763867Y22013231D01*
X25719552Y22079552D01*
X25697343Y22094392D01*
X25690106Y22099228D01*
X25676774Y22119185D01*
X25637106Y22127075D01*
X25623989Y22129684D01*
X25623988Y22129685D01*
X25594748Y22135500D01*
X25594746Y22135500D01*
X24789219Y22135500D01*
X24760904Y22141132D01*
X24750495Y22145443D01*
X24710446Y22185487D01*
X24706129Y22195909D01*
X24700500Y22224219D01*
X24700500Y22473163D01*
X24706132Y22501479D01*
X24713148Y22518417D01*
X24742187Y22552782D01*
X24743045Y22553322D01*
X24757929Y22560482D01*
X24763953Y22562590D01*
X24824396Y22583741D01*
X24862882Y22597207D01*
X24972150Y22677850D01*
X25052793Y22787118D01*
X25097646Y22915301D01*
X25100500Y22945734D01*
X25100500Y25054266D01*
X25097646Y25084699D01*
X25091844Y25101279D01*
X25052793Y25212882D01*
X25052792Y25212884D01*
X24972153Y25322147D01*
X24972146Y25322154D01*
X24862883Y25402793D01*
X24862884Y25402793D01*
X24862863Y25402801D01*
X24789639Y25428423D01*
X24777766Y25439033D01*
X24734698Y25447647D01*
X24731605Y25447953D01*
X24731255Y25447969D01*
X24729260Y25448156D01*
X24704266Y25450500D01*
X24704263Y25450500D01*
X23295736Y25450500D01*
X23295734Y25450500D01*
X23271629Y25448240D01*
X23268745Y25447969D01*
X23267414Y25447907D01*
X23265305Y25447648D01*
X23265272Y25447638D01*
X23137135Y25402801D01*
X23137115Y25402793D01*
X23027851Y25322153D01*
X23027847Y25322149D01*
X22947207Y25212885D01*
X22947199Y25212865D01*
X22902362Y25084728D01*
X22902352Y25084695D01*
X22902093Y25082585D01*
X22902031Y25081256D01*
X22900171Y25061415D01*
X22899500Y25054264D01*
X22899500Y22945737D01*
X22902031Y22918745D01*
X22902126Y22916705D01*
X22902354Y22915299D01*
X22902369Y22915253D01*
X22938618Y22811661D01*
X22947206Y22787119D01*
X22947207Y22787117D01*
X23027846Y22677854D01*
X23027853Y22677847D01*
X23137115Y22597209D01*
X23137116Y22597208D01*
X23137118Y22597207D01*
X23236047Y22562590D01*
X23260915Y22547921D01*
X23274584Y22535706D01*
X23297417Y22497007D01*
X23297642Y22496022D01*
X23299500Y22479543D01*
X23299500Y22224219D01*
X23293867Y22195901D01*
X23289556Y22185493D01*
X23249508Y22145445D01*
X23249507Y22145444D01*
X23239099Y22141133D01*
X23210781Y22135500D01*
X22405252Y22135500D01*
X22376010Y22129685D01*
X22376010Y22129684D01*
X22368749Y22128240D01*
X22346769Y22123868D01*
X22346766Y22123867D01*
X22280451Y22079555D01*
X22280448Y22079553D01*
X22236133Y22013234D01*
X22224500Y21954747D01*
X22224500Y20031419D01*
X22218867Y20003101D01*
X22214556Y19992693D01*
X22174508Y19952645D01*
X22174507Y19952644D01*
X22164099Y19948333D01*
X22135781Y19942700D01*
X21739219Y19942700D01*
X21710904Y19948332D01*
X21700495Y19952643D01*
X21660446Y19992687D01*
X21656129Y20003109D01*
X21650500Y20031419D01*
X21650500Y20279390D01*
X21656133Y20307708D01*
X21659972Y20316976D01*
X21663860Y20326364D01*
X21698632Y20363980D01*
X21763342Y20396950D01*
X21853050Y20486658D01*
X21910646Y20599696D01*
X21925500Y20693481D01*
X21925499Y21306518D01*
X21922941Y21322667D01*
X21911557Y21394552D01*
X21911333Y21397391D01*
X21910646Y21400302D01*
X21910646Y21400304D01*
X21910646Y21400305D01*
X21910645Y21400307D01*
X21853049Y21513343D01*
X21763343Y21603049D01*
X21763342Y21603050D01*
X21763340Y21603052D01*
X21650395Y21660600D01*
X21650356Y21660620D01*
X21650304Y21660646D01*
X21650302Y21660647D01*
X21650301Y21660647D01*
X21647387Y21661335D01*
X21644549Y21661558D01*
X21556520Y21675500D01*
X21556519Y21675500D01*
X21093480Y21675500D01*
X21093479Y21675500D01*
X20999695Y21660647D01*
X20999629Y21660614D01*
X20886656Y21603050D01*
X20796951Y21513345D01*
X20739353Y21400305D01*
X20739353Y21400303D01*
X20739353Y21400302D01*
X20724500Y21306520D01*
X20724500Y20693481D01*
X20739353Y20599696D01*
X20739354Y20599696D01*
X20739386Y20599631D01*
X20784898Y20510311D01*
X20796950Y20486658D01*
X20886658Y20396950D01*
X20945981Y20366724D01*
X20968655Y20348850D01*
X20976765Y20339354D01*
X20981769Y20333496D01*
X20999500Y20285436D01*
X20999500Y19939219D01*
X20993867Y19910901D01*
X20989556Y19900493D01*
X20949508Y19860445D01*
X20949507Y19860444D01*
X20939099Y19856133D01*
X20910781Y19850500D01*
X18194219Y19850500D01*
X18165904Y19856132D01*
X18155495Y19860443D01*
X18115446Y19900487D01*
X18111129Y19910909D01*
X18105500Y19939219D01*
X18105500Y20383254D01*
X18105500Y20383260D01*
X18095573Y20451393D01*
X18044198Y20556483D01*
X17961483Y20639198D01*
X17961482Y20639199D01*
X17961481Y20639200D01*
X17856396Y20690573D01*
X17788266Y20700500D01*
X17788264Y20700500D01*
X17788260Y20700500D01*
X17421740Y20700500D01*
X17421735Y20700500D01*
X17421731Y20700500D01*
X17358911Y20691346D01*
X17356048Y20691139D01*
X17353606Y20690574D01*
X17248516Y20639199D01*
X17165801Y20556484D01*
X17114426Y20451394D01*
X17113861Y20448952D01*
X17113654Y20446089D01*
X17104500Y20383269D01*
X16835499Y20383269D01*
X16825573Y20451393D01*
X16774198Y20556483D01*
X16691483Y20639198D01*
X16691482Y20639199D01*
X16691481Y20639200D01*
X16586396Y20690573D01*
X16518266Y20700500D01*
X16518264Y20700500D01*
X16518260Y20700500D01*
X16151740Y20700500D01*
X16151735Y20700500D01*
X16151731Y20700500D01*
X16088911Y20691346D01*
X16086048Y20691139D01*
X16083606Y20690574D01*
X15978516Y20639199D01*
X15895801Y20556484D01*
X15844426Y20451394D01*
X15843861Y20448952D01*
X15843654Y20446089D01*
X15834500Y20383269D01*
X15834500Y18666733D01*
X15839513Y18632331D01*
X15842989Y18608473D01*
X15843654Y18603913D01*
X15843861Y18601049D01*
X15844426Y18598608D01*
X15895801Y18493518D01*
X15936761Y18452558D01*
X15952802Y18428550D01*
X15957113Y18418142D01*
X15957113Y18361505D01*
X15957112Y18361504D01*
X15952801Y18351097D01*
X15936761Y18327091D01*
X15189532Y17579861D01*
X15143434Y17500018D01*
X15142871Y17491421D01*
X15124500Y17422856D01*
X15124500Y15814130D01*
X15118866Y15785809D01*
X15109463Y15763110D01*
X15093423Y15739105D01*
X15010801Y15656484D01*
X14959426Y15551394D01*
X14958861Y15548952D01*
X14958654Y15546089D01*
X14949500Y15483269D01*
X14949500Y14241733D01*
X14958654Y14178913D01*
X14958861Y14176049D01*
X14959426Y14173608D01*
X15010801Y14068518D01*
X15087512Y13991807D01*
X15097952Y13978678D01*
X15113270Y13954144D01*
X15124500Y13914954D01*
X15124500Y11680198D01*
X15118867Y11651882D01*
X15108459Y11626752D01*
X15092418Y11602746D01*
X14894532Y11404860D01*
X14857541Y11340789D01*
X14845773Y11325455D01*
X14836146Y11315831D01*
X14783816Y11294165D01*
X14731494Y11315847D01*
X14731493Y11315848D01*
X14725863Y11321480D01*
X14709831Y11345479D01*
X14656632Y11473914D01*
X14604644Y11551719D01*
X14547139Y11637782D01*
X14407782Y11777139D01*
X14407780Y11777141D01*
X14407778Y11777143D01*
X14243912Y11886634D01*
X14061843Y11962049D01*
X14061838Y11962051D01*
X14061827Y11962054D01*
X13949499Y11984398D01*
X13922822Y11995449D01*
X13909985Y12004027D01*
X13880285Y12044076D01*
X13878686Y12049348D01*
X13875500Y12070826D01*
X13875500Y13910872D01*
X13881131Y13939186D01*
X13890511Y13961831D01*
X13905572Y13983663D01*
X13904988Y13984210D01*
X13905609Y13984873D01*
X13907261Y13986581D01*
X13989198Y14068517D01*
X14040573Y14173607D01*
X14050500Y14241740D01*
X14050500Y15483260D01*
X14040573Y15551393D01*
X13989198Y15656483D01*
X13912478Y15733203D01*
X13902030Y15746345D01*
X13886723Y15770870D01*
X13875500Y15810050D01*
X13875500Y17104804D01*
X13881131Y17133118D01*
X13891542Y17158253D01*
X13907578Y17182253D01*
X15042747Y18317422D01*
X15066750Y18333459D01*
X15091881Y18343869D01*
X15120197Y18349500D01*
X15248254Y18349500D01*
X15248260Y18349500D01*
X15316393Y18359427D01*
X15421483Y18410802D01*
X15504198Y18493517D01*
X15555573Y18598607D01*
X15565500Y18666740D01*
X15565500Y20383260D01*
X15555573Y20451393D01*
X15504198Y20556483D01*
X15421483Y20639198D01*
X15421482Y20639199D01*
X15421481Y20639200D01*
X15316396Y20690573D01*
X15248266Y20700500D01*
X15248264Y20700500D01*
X15248260Y20700500D01*
X14881740Y20700500D01*
X14881735Y20700500D01*
X14881731Y20700500D01*
X14818911Y20691346D01*
X14816048Y20691139D01*
X14813606Y20690574D01*
X14708516Y20639199D01*
X14625801Y20556484D01*
X14574426Y20451394D01*
X14573861Y20448952D01*
X14573654Y20446089D01*
X14564500Y20383269D01*
X14564500Y18805198D01*
X14558867Y18776882D01*
X14548459Y18751752D01*
X14534604Y18732535D01*
X14532418Y18727746D01*
X14432233Y18627561D01*
X14408224Y18611519D01*
X14400865Y18608471D01*
X14344228Y18608473D01*
X14320370Y18632331D01*
X14313586Y18635725D01*
X14311892Y18640810D01*
X14304181Y18648521D01*
X14301131Y18655884D01*
X14295500Y18684198D01*
X14295500Y20383254D01*
X14295500Y20383260D01*
X14285573Y20451393D01*
X14234198Y20556483D01*
X14227581Y20563100D01*
X14211541Y20587106D01*
X14201131Y20612238D01*
X14195500Y20640552D01*
X14195500Y20711959D01*
X14201132Y20740275D01*
X14217104Y20778839D01*
X14221380Y20787511D01*
X14284688Y20897164D01*
X14320499Y21030815D01*
X14320500Y21030815D01*
X14320500Y21069186D01*
X18149499Y21069186D01*
X18149499Y20930815D01*
X18185309Y20797169D01*
X18185311Y20797164D01*
X18254494Y20677335D01*
X18352334Y20579495D01*
X18472163Y20510312D01*
X18601132Y20475756D01*
X18604830Y20474500D01*
X18744184Y20474500D01*
X18754447Y20474500D01*
X18763335Y20479633D01*
X18877835Y20510312D01*
X18993636Y20577170D01*
X19011464Y20584555D01*
X19025485Y20588314D01*
X19081635Y20580930D01*
X19084120Y20579495D01*
X19087125Y20577761D01*
X19116068Y20547266D01*
X19134898Y20510311D01*
X19146950Y20486658D01*
X19236658Y20396950D01*
X19349696Y20339354D01*
X19443481Y20324500D01*
X19906518Y20324501D01*
X19906519Y20324501D01*
X19906520Y20324501D01*
X19918276Y20326363D01*
X20000304Y20339354D01*
X20000306Y20339355D01*
X20040908Y20360043D01*
X20113342Y20396950D01*
X20203050Y20486658D01*
X20260646Y20599696D01*
X20275500Y20693481D01*
X20275499Y21306518D01*
X20272941Y21322667D01*
X20261557Y21394552D01*
X20261333Y21397391D01*
X20260646Y21400302D01*
X20260646Y21400304D01*
X20260646Y21400305D01*
X20260645Y21400307D01*
X20203049Y21513343D01*
X20113343Y21603049D01*
X20113342Y21603050D01*
X20113340Y21603052D01*
X20000395Y21660600D01*
X20000356Y21660620D01*
X20000304Y21660646D01*
X20000302Y21660647D01*
X20000301Y21660647D01*
X19997387Y21661335D01*
X19994549Y21661558D01*
X19906520Y21675500D01*
X19906519Y21675500D01*
X19443480Y21675500D01*
X19443479Y21675500D01*
X19349695Y21660647D01*
X19349629Y21660614D01*
X19236656Y21603050D01*
X19146951Y21513345D01*
X19118057Y21456638D01*
X19100179Y21433962D01*
X19091612Y21426646D01*
X19037753Y21409147D01*
X19030812Y21409693D01*
X18999615Y21419379D01*
X18877833Y21489689D01*
X18877831Y21489690D01*
X18877830Y21489690D01*
X18744184Y21525500D01*
X18744183Y21525500D01*
X18605815Y21525500D01*
X18605814Y21525500D01*
X18472167Y21489690D01*
X18472165Y21489690D01*
X18472164Y21489689D01*
X18352332Y21420505D01*
X18254494Y21322667D01*
X18185310Y21202836D01*
X18185309Y21202832D01*
X18149499Y21069186D01*
X14320500Y21069186D01*
X14320500Y21169185D01*
X14320500Y21170170D01*
X14319244Y21173867D01*
X14284838Y21302274D01*
X14284701Y21302803D01*
X14284689Y21302834D01*
X14273239Y21322666D01*
X14215505Y21422665D01*
X14117665Y21520505D01*
X13997836Y21589688D01*
X13997831Y21589690D01*
X13864185Y21625500D01*
X13864184Y21625500D01*
X13725816Y21625500D01*
X13725815Y21625500D01*
X13592168Y21589690D01*
X13592166Y21589690D01*
X13592165Y21589689D01*
X13472333Y21520505D01*
X13374495Y21422667D01*
X13305311Y21302836D01*
X13305310Y21302832D01*
X13269500Y21169186D01*
X13269500Y21030815D01*
X13305310Y20897169D01*
X13305312Y20897164D01*
X13368611Y20787524D01*
X13372892Y20778845D01*
X13375675Y20772127D01*
X13375675Y20772126D01*
X13388867Y20740275D01*
X13394500Y20711960D01*
X13394500Y20640552D01*
X13388867Y20612236D01*
X13378959Y20588314D01*
X13378459Y20587106D01*
X13362418Y20563100D01*
X13355799Y20556482D01*
X13304426Y20451396D01*
X13303861Y20448952D01*
X13303654Y20446089D01*
X13294500Y20383269D01*
X13294500Y19608574D01*
X13288866Y19580255D01*
X13286567Y19574702D01*
X13286532Y19574618D01*
X13246481Y19534572D01*
X13189844Y19534574D01*
X13154111Y19565887D01*
X13153921Y19566216D01*
X13146501Y19584109D01*
X13114842Y19702261D01*
X13114701Y19702804D01*
X13114689Y19702834D01*
X13045504Y19822666D01*
X12947665Y19920505D01*
X12827834Y19989689D01*
X12827832Y19989690D01*
X12827831Y19989690D01*
X12694185Y20025500D01*
X12694184Y20025500D01*
X12555816Y20025500D01*
X12555815Y20025500D01*
X12422168Y19989690D01*
X12422163Y19989688D01*
X12350534Y19948333D01*
X12312527Y19926390D01*
X12303844Y19922108D01*
X12277262Y19911098D01*
X12220626Y19911099D01*
X12213958Y19913861D01*
X12176343Y19948632D01*
X12168322Y19964374D01*
X12148529Y20003219D01*
X12053219Y20098529D01*
X12053217Y20098531D01*
X11943568Y20154400D01*
X11933126Y20159721D01*
X11833491Y20175500D01*
X11833489Y20175500D01*
X11833488Y20175500D01*
X11316512Y20175500D01*
X11316511Y20175500D01*
X11316509Y20175500D01*
X11216872Y20159721D01*
X11206431Y20154400D01*
X11096780Y20098530D01*
X11001470Y20003220D01*
X10945600Y19893569D01*
X10940279Y19883128D01*
X10924500Y19783491D01*
X300500Y19783491D01*
X300500Y22969186D01*
X14539500Y22969186D01*
X14539500Y22830815D01*
X14575310Y22697169D01*
X14575312Y22697164D01*
X14644495Y22577335D01*
X14742335Y22479495D01*
X14862164Y22410312D01*
X14991133Y22375756D01*
X14994831Y22374500D01*
X15134185Y22374500D01*
X15144448Y22374500D01*
X15153336Y22379633D01*
X15267836Y22410312D01*
X15387665Y22479495D01*
X15485505Y22577335D01*
X15554688Y22697164D01*
X15585367Y22811664D01*
X15590500Y22820553D01*
X15590500Y22970170D01*
X15589244Y22973867D01*
X15554838Y23102274D01*
X15554701Y23102803D01*
X15554689Y23102834D01*
X15491386Y23212478D01*
X15487104Y23221161D01*
X15484323Y23227875D01*
X15484324Y23227875D01*
X15471131Y23259726D01*
X15465500Y23288041D01*
X15465500Y23359449D01*
X15471131Y23387763D01*
X15481542Y23412898D01*
X15497582Y23436901D01*
X15504198Y23443517D01*
X15555573Y23548607D01*
X15565500Y23616740D01*
X15565500Y25333260D01*
X15565499Y25333269D01*
X17104500Y25333269D01*
X17104500Y23616733D01*
X17113654Y23553913D01*
X17113861Y23551049D01*
X17114426Y23548608D01*
X17114427Y23548606D01*
X17165801Y23443518D01*
X17165802Y23443517D01*
X17248517Y23360802D01*
X17353607Y23309427D01*
X17421740Y23299500D01*
X17421746Y23299500D01*
X17788254Y23299500D01*
X17788260Y23299500D01*
X17856393Y23309427D01*
X17961483Y23360802D01*
X18044198Y23443517D01*
X18095573Y23548607D01*
X18105500Y23616740D01*
X18105500Y24469804D01*
X18111131Y24498118D01*
X18121542Y24523253D01*
X18137578Y24547253D01*
X19319647Y25729322D01*
X19343650Y25745359D01*
X19368781Y25755769D01*
X19397097Y25761400D01*
X24699751Y25761400D01*
X24699753Y25761400D01*
X24782539Y25783582D01*
X24856762Y25826435D01*
X25987246Y26956922D01*
X26011254Y26972961D01*
X26036382Y26983368D01*
X26064697Y26989000D01*
X32546959Y26989000D01*
X32575273Y26983369D01*
X32600405Y26972959D01*
X32624411Y26956919D01*
X32687335Y26893995D01*
X32807164Y26824812D01*
X32936133Y26790256D01*
X32939831Y26789000D01*
X33079185Y26789000D01*
X33089448Y26789000D01*
X33098336Y26794133D01*
X33212836Y26824812D01*
X33332665Y26893995D01*
X33430505Y26991835D01*
X33499688Y27111664D01*
X33530367Y27226164D01*
X33535500Y27235053D01*
X33535500Y27384668D01*
X33534247Y27388359D01*
X33523224Y27429496D01*
X33499688Y27517336D01*
X33430505Y27637165D01*
X33332665Y27735005D01*
X33212836Y27804188D01*
X33212831Y27804190D01*
X33079185Y27840000D01*
X33079184Y27840000D01*
X32940816Y27840000D01*
X32940815Y27840000D01*
X32807168Y27804190D01*
X32807163Y27804188D01*
X32794997Y27797164D01*
X32687336Y27735007D01*
X32687331Y27735003D01*
X32624411Y27672082D01*
X32600405Y27656042D01*
X32575275Y27645633D01*
X32546959Y27640000D01*
X25933070Y27640000D01*
X25933006Y27640001D01*
X25931883Y27640001D01*
X25927353Y27640001D01*
X25841648Y27640001D01*
X25841646Y27640001D01*
X25841644Y27640001D01*
X25758870Y27617822D01*
X25758860Y27617819D01*
X25684640Y27574968D01*
X25237233Y27127561D01*
X25213224Y27111519D01*
X25205865Y27108471D01*
X25149228Y27108473D01*
X25109181Y27148521D01*
X25106131Y27155884D01*
X25100500Y27184198D01*
X25100500Y29054260D01*
X25100500Y29054264D01*
X25100500Y29054266D01*
X25097646Y29084699D01*
X25067047Y29172147D01*
X25052794Y29212881D01*
X25046003Y29222081D01*
X25026875Y29248000D01*
X24972153Y29322147D01*
X24972146Y29322154D01*
X24862883Y29402793D01*
X24862884Y29402793D01*
X24862863Y29402801D01*
X24789639Y29428423D01*
X24777766Y29439033D01*
X24734698Y29447647D01*
X24731605Y29447953D01*
X24731255Y29447969D01*
X24729260Y29448156D01*
X24704266Y29450500D01*
X24704263Y29450500D01*
X23295736Y29450500D01*
X23295734Y29450500D01*
X23271629Y29448240D01*
X23268745Y29447969D01*
X23267414Y29447907D01*
X23265305Y29447648D01*
X23265272Y29447638D01*
X23137135Y29402801D01*
X23137115Y29402793D01*
X23027851Y29322153D01*
X23027847Y29322149D01*
X22947207Y29212885D01*
X22947199Y29212865D01*
X22902362Y29084728D01*
X22902352Y29084695D01*
X22902093Y29082585D01*
X22902031Y29081256D01*
X22900307Y29062865D01*
X22899500Y29054264D01*
X22899500Y28519035D01*
X22893867Y28490717D01*
X22889556Y28480309D01*
X22849508Y28440261D01*
X22849481Y28440249D01*
X22848681Y28439918D01*
X22801226Y28436820D01*
X22797899Y28437712D01*
X22780063Y28445102D01*
X22765134Y28453721D01*
X22765133Y28453721D01*
X22702836Y28489688D01*
X22702833Y28489689D01*
X22702831Y28489690D01*
X22569185Y28525500D01*
X22569184Y28525500D01*
X22430816Y28525500D01*
X22430815Y28525500D01*
X22297168Y28489690D01*
X22297166Y28489690D01*
X22297165Y28489689D01*
X22177333Y28420505D01*
X22079495Y28322667D01*
X22010311Y28202836D01*
X22010310Y28202832D01*
X21974500Y28069186D01*
X21974500Y27930815D01*
X22010310Y27797169D01*
X22010312Y27797164D01*
X22079495Y27677335D01*
X22177335Y27579495D01*
X22297164Y27510312D01*
X22426133Y27475756D01*
X22429831Y27474500D01*
X22569185Y27474500D01*
X22579448Y27474500D01*
X22588336Y27479633D01*
X22702836Y27510312D01*
X22775756Y27552414D01*
X22803092Y27561693D01*
X22814264Y27563164D01*
X22868961Y27548511D01*
X22869648Y27547984D01*
X22896085Y27508428D01*
X22896977Y27505100D01*
X22899500Y27485942D01*
X22899500Y26945737D01*
X22902031Y26918745D01*
X22902126Y26916705D01*
X22902354Y26915299D01*
X22902369Y26915253D01*
X22947201Y26787132D01*
X22947206Y26787119D01*
X22947207Y26787117D01*
X23027846Y26677854D01*
X23027853Y26677847D01*
X23137115Y26597209D01*
X23137116Y26597208D01*
X23137118Y26597207D01*
X23240279Y26561109D01*
X23265145Y26546442D01*
X23270587Y26541579D01*
X23295162Y26490552D01*
X23276458Y26437092D01*
X23225431Y26412517D01*
X23221279Y26412400D01*
X19259753Y26412400D01*
X19174047Y26412400D01*
X19091261Y26390218D01*
X19064037Y26374500D01*
X19017036Y26347365D01*
X18934760Y26265089D01*
X18934760Y26265088D01*
X18171220Y25501549D01*
X18147214Y25485509D01*
X18136807Y25481198D01*
X18080172Y25481196D01*
X18075751Y25483027D01*
X18043840Y25508398D01*
X18039102Y25515034D01*
X18031987Y25518694D01*
X17961481Y25589200D01*
X17856396Y25640573D01*
X17788266Y25650500D01*
X17788264Y25650500D01*
X17788260Y25650500D01*
X17421740Y25650500D01*
X17421735Y25650500D01*
X17421731Y25650500D01*
X17358911Y25641346D01*
X17356048Y25641139D01*
X17353606Y25640574D01*
X17248516Y25589199D01*
X17165801Y25506484D01*
X17114426Y25401394D01*
X17113861Y25398952D01*
X17113654Y25396089D01*
X17104500Y25333269D01*
X15565499Y25333269D01*
X15555573Y25401393D01*
X15504198Y25506483D01*
X15421483Y25589198D01*
X15421482Y25589199D01*
X15421481Y25589200D01*
X15316396Y25640573D01*
X15248266Y25650500D01*
X15248264Y25650500D01*
X15248260Y25650500D01*
X14881740Y25650500D01*
X14881735Y25650500D01*
X14881731Y25650500D01*
X14818911Y25641346D01*
X14816048Y25641139D01*
X14813606Y25640574D01*
X14708516Y25589199D01*
X14625801Y25506484D01*
X14574426Y25401394D01*
X14573861Y25398952D01*
X14573654Y25396089D01*
X14564500Y25333269D01*
X14564500Y23616733D01*
X14573654Y23553913D01*
X14573861Y23551049D01*
X14574426Y23548608D01*
X14625801Y23443518D01*
X14632418Y23436901D01*
X14648457Y23412898D01*
X14658868Y23387764D01*
X14664500Y23359449D01*
X14664500Y23288042D01*
X14658867Y23259723D01*
X14642891Y23221154D01*
X14638610Y23212473D01*
X14575311Y23102836D01*
X14575310Y23102832D01*
X14539500Y22969186D01*
X300500Y22969186D01*
X300500Y27919186D01*
X7724500Y27919186D01*
X7724500Y27780815D01*
X7760310Y27647169D01*
X7760312Y27647164D01*
X7829495Y27527335D01*
X7927335Y27429495D01*
X8047164Y27360312D01*
X8176133Y27325756D01*
X8179831Y27324500D01*
X8319185Y27324500D01*
X8329448Y27324500D01*
X8338336Y27329633D01*
X8452836Y27360312D01*
X8525756Y27402414D01*
X8553092Y27411693D01*
X8564264Y27413164D01*
X8618961Y27398511D01*
X8619648Y27397984D01*
X8646085Y27358428D01*
X8646977Y27355100D01*
X8649500Y27335942D01*
X8649500Y26795734D01*
X8650132Y26789000D01*
X8652031Y26768745D01*
X8652126Y26766705D01*
X8652354Y26765299D01*
X8652369Y26765253D01*
X8697201Y26637132D01*
X8697206Y26637119D01*
X8697207Y26637117D01*
X8777846Y26527854D01*
X8777853Y26527847D01*
X8887115Y26447209D01*
X8887116Y26447208D01*
X8887118Y26447207D01*
X8916025Y26437092D01*
X8986456Y26412447D01*
X9015295Y26402356D01*
X9015298Y26402355D01*
X9015301Y26402354D01*
X9045734Y26399500D01*
X9045741Y26399500D01*
X10954258Y26399500D01*
X10954266Y26399500D01*
X10984699Y26402354D01*
X11112882Y26447207D01*
X11222150Y26527850D01*
X11302793Y26637118D01*
X11347646Y26765301D01*
X11350500Y26795734D01*
X11350500Y28662053D01*
X12974900Y28662053D01*
X12974900Y25012453D01*
X12974900Y24926747D01*
X12997082Y24843961D01*
X12997083Y24843959D01*
X12997084Y24843957D01*
X13032457Y24782689D01*
X13039933Y24769740D01*
X13262417Y24547256D01*
X13278457Y24523251D01*
X13288866Y24498124D01*
X13294500Y24469803D01*
X13294500Y23616733D01*
X13303654Y23553913D01*
X13303861Y23551049D01*
X13304426Y23548608D01*
X13304427Y23548606D01*
X13355801Y23443518D01*
X13355802Y23443517D01*
X13438517Y23360802D01*
X13543607Y23309427D01*
X13611740Y23299500D01*
X13611746Y23299500D01*
X13978254Y23299500D01*
X13978260Y23299500D01*
X14046393Y23309427D01*
X14151483Y23360802D01*
X14234198Y23443517D01*
X14285573Y23548607D01*
X14295500Y23616740D01*
X14295500Y25333260D01*
X14285573Y25401393D01*
X14234198Y25506483D01*
X14151483Y25589198D01*
X14151482Y25589199D01*
X14151481Y25589200D01*
X14046396Y25640573D01*
X13978266Y25650500D01*
X13978264Y25650500D01*
X13978260Y25650500D01*
X13714619Y25650500D01*
X13686304Y25656132D01*
X13675895Y25660443D01*
X13635846Y25700487D01*
X13631529Y25710909D01*
X13625900Y25739219D01*
X13625900Y26185529D01*
X13631529Y26213838D01*
X13635843Y26224253D01*
X13675882Y26264299D01*
X13676752Y26264660D01*
X13724164Y26267746D01*
X13727489Y26266856D01*
X13745331Y26259465D01*
X13787164Y26235312D01*
X13916133Y26200756D01*
X13919831Y26199500D01*
X14059185Y26199500D01*
X14069448Y26199500D01*
X14078336Y26204633D01*
X14192836Y26235312D01*
X14302489Y26298620D01*
X14311160Y26302896D01*
X14317873Y26305677D01*
X14317874Y26305676D01*
X14344108Y26316542D01*
X14400738Y26316542D01*
X14413783Y26311138D01*
X14451394Y26276370D01*
X14465146Y26249382D01*
X14466237Y26247015D01*
X14466470Y26246782D01*
X14466471Y26246781D01*
X14466472Y26246780D01*
X14561780Y26151472D01*
X14681874Y26090281D01*
X14781509Y26074500D01*
X15348489Y26074500D01*
X15348490Y26074500D01*
X15398307Y26082391D01*
X15448126Y26090281D01*
X15568220Y26151472D01*
X15663528Y26246780D01*
X15724719Y26366874D01*
X15740500Y26466512D01*
X15740500Y26983488D01*
X15724719Y27083126D01*
X15663528Y27203220D01*
X15568220Y27298528D01*
X15568219Y27298529D01*
X15568217Y27298531D01*
X15458568Y27354400D01*
X15448126Y27359721D01*
X15348491Y27375500D01*
X15348489Y27375500D01*
X15348488Y27375500D01*
X14781512Y27375500D01*
X14781511Y27375500D01*
X14781509Y27375500D01*
X14681872Y27359721D01*
X14671431Y27354400D01*
X14561780Y27298530D01*
X14466235Y27202985D01*
X14465143Y27200615D01*
X14454139Y27179020D01*
X14436268Y27156350D01*
X14422607Y27144681D01*
X14368743Y27127176D01*
X14346227Y27132581D01*
X14328992Y27139720D01*
X14311156Y27147108D01*
X14302476Y27151389D01*
X14192836Y27214688D01*
X14192831Y27214690D01*
X14059185Y27250500D01*
X14059184Y27250500D01*
X13920816Y27250500D01*
X13920815Y27250500D01*
X13870551Y27237032D01*
X13787167Y27214690D01*
X13787163Y27214688D01*
X13787156Y27214684D01*
X13749646Y27193028D01*
X13722302Y27183747D01*
X13711132Y27182277D01*
X13656449Y27196920D01*
X13655762Y27197448D01*
X13629309Y27237032D01*
X13628418Y27240360D01*
X13625900Y27259498D01*
X13625900Y28439003D01*
X13631531Y28467317D01*
X13641942Y28492452D01*
X13657978Y28516452D01*
X15283948Y30142422D01*
X15307951Y30158459D01*
X15333082Y30168869D01*
X15361398Y30174500D01*
X24744259Y30174500D01*
X24772573Y30168869D01*
X24797705Y30158459D01*
X24821711Y30142419D01*
X24884635Y30079495D01*
X25004464Y30010312D01*
X25133433Y29975756D01*
X25137131Y29974500D01*
X25276485Y29974500D01*
X25286748Y29974500D01*
X25295636Y29979633D01*
X25410136Y30010312D01*
X25529965Y30079495D01*
X25627805Y30177335D01*
X25696988Y30297164D01*
X25727667Y30411664D01*
X25732800Y30420553D01*
X25732800Y30570171D01*
X25731542Y30573876D01*
X25729273Y30582343D01*
X25729272Y30582346D01*
X25724633Y30599660D01*
X25696988Y30702836D01*
X25627805Y30822665D01*
X25612703Y30837767D01*
X25596663Y30861773D01*
X25593613Y30869137D01*
X25593615Y30925772D01*
X25633662Y30965819D01*
X25641027Y30968870D01*
X25669341Y30974500D01*
X29353118Y30974500D01*
X29362006Y30979633D01*
X29425638Y30996682D01*
X29499862Y31039535D01*
X29560465Y31100138D01*
X29603318Y31174362D01*
X29620367Y31237994D01*
X29625500Y31246883D01*
X29625500Y34860782D01*
X29631129Y34889091D01*
X29635443Y34899506D01*
X29675482Y34939552D01*
X29685911Y34943872D01*
X29714219Y34949500D01*
X30404258Y34949500D01*
X30404266Y34949500D01*
X30434699Y34952354D01*
X30562882Y34997207D01*
X30672150Y35077850D01*
X30673467Y35079634D01*
X30736058Y35164442D01*
X30784569Y35193673D01*
X30795598Y35194500D01*
X31025998Y35194500D01*
X31026000Y35194500D01*
X31104641Y35210143D01*
X31156967Y35231817D01*
X31215261Y35268445D01*
X31268183Y35343033D01*
X31289857Y35395359D01*
X31305500Y35474000D01*
X31305500Y44519186D01*
X37176700Y44519186D01*
X37176700Y44380815D01*
X37212510Y44247169D01*
X37212512Y44247164D01*
X37281695Y44127335D01*
X37379535Y44029495D01*
X37499364Y43960312D01*
X37628333Y43925756D01*
X37632031Y43924500D01*
X37633015Y43924500D01*
X37633017Y43924500D01*
X37722002Y43924500D01*
X37750316Y43918869D01*
X37775448Y43908459D01*
X37799454Y43892419D01*
X37815718Y43876155D01*
X37831757Y43852152D01*
X37842168Y43827018D01*
X37847800Y43798703D01*
X37847800Y43457143D01*
X37869980Y43374364D01*
X37912835Y43300138D01*
X37973438Y43239535D01*
X38047662Y43196682D01*
X38125763Y43175756D01*
X38129461Y43174500D01*
X38130445Y43174500D01*
X38130447Y43174500D01*
X38210781Y43174500D01*
X38239091Y43168871D01*
X38249503Y43164558D01*
X38289553Y43124515D01*
X38289556Y43124508D01*
X38293867Y43114100D01*
X38299500Y43085782D01*
X38299500Y43030252D01*
X38302786Y43013730D01*
X38306073Y42997207D01*
X38311133Y42971768D01*
X38311133Y42971767D01*
X38324104Y42952356D01*
X38324105Y42952354D01*
X38355447Y42905449D01*
X38355448Y42905448D01*
X38373358Y42893481D01*
X38373359Y42893480D01*
X38415709Y42865182D01*
X38418539Y42862859D01*
X38418562Y42862847D01*
X38421698Y42860967D01*
X38425258Y42860075D01*
X38425273Y42860071D01*
X38428910Y42859712D01*
X38480252Y42849500D01*
X38480254Y42849500D01*
X40019746Y42849500D01*
X40019748Y42849500D01*
X40078231Y42861133D01*
X40078232Y42861134D01*
X40144552Y42905448D01*
X40188867Y42971769D01*
X40200500Y43030252D01*
X40200500Y43969748D01*
X40188867Y44028231D01*
X40188033Y44029478D01*
X40188029Y44029500D01*
X40188022Y44029495D01*
X40162853Y44067163D01*
X40144552Y44094552D01*
X40115109Y44114226D01*
X40101773Y44134185D01*
X40046805Y44145118D01*
X40046804Y44145119D01*
X40019748Y44150500D01*
X38506662Y44150500D01*
X38478344Y44156133D01*
X38454472Y44166021D01*
X38430465Y44182062D01*
X38391989Y44220538D01*
X38375948Y44244546D01*
X38372900Y44251906D01*
X38372902Y44308543D01*
X38412950Y44348588D01*
X38415541Y44349662D01*
X38458289Y44353869D01*
X38480252Y44349500D01*
X38480254Y44349500D01*
X40019746Y44349500D01*
X40019748Y44349500D01*
X40078231Y44361133D01*
X40144552Y44405448D01*
X40188867Y44471769D01*
X40200500Y44530252D01*
X40200500Y44585782D01*
X40206129Y44614091D01*
X40210443Y44624506D01*
X40250482Y44664552D01*
X40260911Y44668872D01*
X40289219Y44674500D01*
X40369551Y44674500D01*
X40369553Y44674500D01*
X40452339Y44696682D01*
X40526562Y44739535D01*
X40823248Y45036222D01*
X40847251Y45052259D01*
X40872382Y45062669D01*
X40900698Y45068300D01*
X41351759Y45068300D01*
X41380073Y45062669D01*
X41405205Y45052259D01*
X41429211Y45036219D01*
X41492135Y44973295D01*
X41611964Y44904112D01*
X41740933Y44869556D01*
X41744631Y44868300D01*
X41883985Y44868300D01*
X41894248Y44868300D01*
X41903136Y44873433D01*
X42017636Y44904112D01*
X42137465Y44973295D01*
X42235305Y45071135D01*
X42304488Y45190964D01*
X42335167Y45305464D01*
X42340300Y45314353D01*
X42340300Y45463969D01*
X42339044Y45467667D01*
X42338490Y45469736D01*
X42338491Y45469748D01*
X42338487Y45469746D01*
X42338487Y45469747D01*
X42304488Y45596636D01*
X42235305Y45716465D01*
X42137465Y45814305D01*
X42017636Y45883488D01*
X42017631Y45883490D01*
X41883985Y45919300D01*
X41883984Y45919300D01*
X41745616Y45919300D01*
X41745615Y45919300D01*
X41611968Y45883490D01*
X41611963Y45883488D01*
X41605056Y45879500D01*
X41492136Y45814307D01*
X41492131Y45814303D01*
X41429211Y45751382D01*
X41405205Y45735342D01*
X41380075Y45724933D01*
X41351759Y45719300D01*
X40677645Y45719300D01*
X40604268Y45699640D01*
X40594358Y45698336D01*
X40586426Y45692248D01*
X40577785Y45687259D01*
X40573354Y45684701D01*
X40573351Y45684699D01*
X40520637Y45654266D01*
X40331302Y45464931D01*
X40307291Y45448888D01*
X40297174Y45444698D01*
X40240537Y45444701D01*
X40203597Y45478183D01*
X40201166Y45482731D01*
X40193850Y45503179D01*
X40188867Y45528231D01*
X40144552Y45594552D01*
X40141433Y45596636D01*
X40122343Y45609392D01*
X40115106Y45614228D01*
X40101774Y45634185D01*
X40062106Y45642075D01*
X40048989Y45644684D01*
X40048988Y45644685D01*
X40019748Y45650500D01*
X38480252Y45650500D01*
X38451010Y45644685D01*
X38451010Y45644684D01*
X38443749Y45643240D01*
X38421769Y45638868D01*
X38421766Y45638867D01*
X38355451Y45594555D01*
X38355448Y45594553D01*
X38311133Y45528234D01*
X38299500Y45469747D01*
X38299500Y44757338D01*
X38293864Y44729013D01*
X38290815Y44721654D01*
X38250763Y44681609D01*
X38194156Y44681602D01*
X38192576Y44682257D01*
X38156787Y44713633D01*
X38141834Y44739533D01*
X38129644Y44760647D01*
X38122707Y44772662D01*
X38122706Y44772663D01*
X38122705Y44772665D01*
X38024865Y44870505D01*
X37905036Y44939688D01*
X37905031Y44939690D01*
X37771385Y44975500D01*
X37771384Y44975500D01*
X37633016Y44975500D01*
X37633015Y44975500D01*
X37499368Y44939690D01*
X37499366Y44939690D01*
X37499365Y44939689D01*
X37379533Y44870505D01*
X37281695Y44772667D01*
X37212511Y44652836D01*
X37212510Y44652832D01*
X37176700Y44519186D01*
X31305500Y44519186D01*
X31305500Y45526000D01*
X31296910Y45569186D01*
X33649500Y45569186D01*
X33649500Y45430815D01*
X33685310Y45297169D01*
X33685312Y45297164D01*
X33754495Y45177335D01*
X33852335Y45079495D01*
X33972164Y45010312D01*
X34101133Y44975756D01*
X34104831Y44974500D01*
X34244185Y44974500D01*
X34254448Y44974500D01*
X34263336Y44979633D01*
X34377836Y45010312D01*
X34487489Y45073620D01*
X34496159Y45077895D01*
X34502873Y45080677D01*
X34502874Y45080676D01*
X34522737Y45088903D01*
X34579370Y45088903D01*
X34586046Y45086138D01*
X34623656Y45051369D01*
X34644576Y45010312D01*
X34651470Y44996782D01*
X34651471Y44996781D01*
X34651472Y44996780D01*
X34746780Y44901472D01*
X34866874Y44840281D01*
X34966509Y44824500D01*
X35483489Y44824500D01*
X35483490Y44824500D01*
X35533307Y44832391D01*
X35583126Y44840281D01*
X35703220Y44901472D01*
X35798528Y44996780D01*
X35859719Y45116874D01*
X35875500Y45216512D01*
X35875500Y45783488D01*
X35870844Y45812882D01*
X35870619Y45814307D01*
X35859719Y45883128D01*
X35854402Y45893562D01*
X35854396Y45893571D01*
X35849020Y45904122D01*
X35798528Y46003220D01*
X35703220Y46098528D01*
X35703219Y46098529D01*
X35703217Y46098531D01*
X35593568Y46154400D01*
X35583126Y46159721D01*
X35483491Y46175500D01*
X35483489Y46175500D01*
X35483488Y46175500D01*
X34966512Y46175500D01*
X34966511Y46175500D01*
X34966509Y46175500D01*
X34866872Y46159721D01*
X34856431Y46154400D01*
X34746780Y46098530D01*
X34651468Y46003218D01*
X34626400Y45954019D01*
X34608529Y45931348D01*
X34599030Y45923234D01*
X34545166Y45905729D01*
X34522647Y45911135D01*
X34496155Y45922109D01*
X34487476Y45926389D01*
X34377836Y45989688D01*
X34377831Y45989690D01*
X34244185Y46025500D01*
X34244184Y46025500D01*
X34105816Y46025500D01*
X34105815Y46025500D01*
X33972168Y45989690D01*
X33972163Y45989688D01*
X33970445Y45988696D01*
X33852333Y45920505D01*
X33754495Y45822667D01*
X33685311Y45702836D01*
X33685310Y45702832D01*
X33649500Y45569186D01*
X31296910Y45569186D01*
X31289857Y45604641D01*
X31281914Y45623818D01*
X31268185Y45656963D01*
X31268183Y45656965D01*
X31268183Y45656967D01*
X31231555Y45715261D01*
X31156967Y45768183D01*
X31156966Y45768184D01*
X31104645Y45789856D01*
X31104635Y45789859D01*
X31051974Y45800334D01*
X31026000Y45805500D01*
X31025998Y45805500D01*
X30795599Y45805500D01*
X30743273Y45827174D01*
X30736059Y45835557D01*
X30707279Y45874553D01*
X30672153Y45922147D01*
X30672146Y45922154D01*
X30562883Y46002793D01*
X30562884Y46002793D01*
X30562863Y46002801D01*
X30489639Y46028423D01*
X30477766Y46039033D01*
X30434698Y46047647D01*
X30431605Y46047953D01*
X30431255Y46047969D01*
X30429260Y46048156D01*
X30404266Y46050500D01*
X30404263Y46050500D01*
X29645736Y46050500D01*
X29645734Y46050500D01*
X29621629Y46048240D01*
X29618745Y46047969D01*
X29617414Y46047907D01*
X29615305Y46047648D01*
X29615272Y46047638D01*
X29487135Y46002801D01*
X29487115Y46002793D01*
X29377851Y45922153D01*
X29377847Y45922149D01*
X29313940Y45835557D01*
X29265429Y45806327D01*
X29254400Y45805500D01*
X28524500Y45805500D01*
X28472174Y45827174D01*
X28450500Y45879500D01*
X28450500Y47069747D01*
X28442072Y47112118D01*
X28441653Y47114225D01*
X28438867Y47128231D01*
X28394552Y47194552D01*
X28372343Y47209392D01*
X28365106Y47214228D01*
X28351774Y47234185D01*
X28312106Y47242075D01*
X28298989Y47244684D01*
X28298988Y47244685D01*
X28269748Y47250500D01*
X25880252Y47250500D01*
X25851010Y47244685D01*
X25851010Y47244684D01*
X25843749Y47243240D01*
X25821769Y47238868D01*
X25821766Y47238867D01*
X25755451Y47194555D01*
X25755448Y47194553D01*
X25711133Y47128233D01*
X25705459Y47099703D01*
X25705458Y47099700D01*
X25704424Y47094503D01*
X25699500Y47069748D01*
X25699500Y41930252D01*
X25706158Y41896781D01*
X25711133Y41871768D01*
X25740608Y41827657D01*
X25755448Y41805448D01*
X25799560Y41775973D01*
X25821767Y41761134D01*
X25821768Y41761134D01*
X25821769Y41761133D01*
X25827746Y41759944D01*
X25827908Y41759811D01*
X25828910Y41759712D01*
X25880252Y41749500D01*
X25880254Y41749500D01*
X28269746Y41749500D01*
X28269748Y41749500D01*
X28328231Y41761133D01*
X28328232Y41761134D01*
X28394552Y41805448D01*
X28438867Y41871769D01*
X28450500Y41930252D01*
X28450500Y42720500D01*
X28472174Y42772826D01*
X28524500Y42794500D01*
X28620500Y42794500D01*
X28672826Y42772826D01*
X28694500Y42720500D01*
X28694500Y41058724D01*
X28672826Y41006398D01*
X28649477Y40991003D01*
X28649552Y40990849D01*
X28648385Y40990283D01*
X28647983Y40990017D01*
X28647167Y40989691D01*
X28527332Y40920505D01*
X28429494Y40822667D01*
X28360310Y40702836D01*
X28360309Y40702832D01*
X28324499Y40569186D01*
X28324499Y40430815D01*
X28360309Y40297169D01*
X28360311Y40297164D01*
X28429494Y40177335D01*
X28527334Y40079495D01*
X28612624Y40030253D01*
X28647163Y40010312D01*
X28648822Y40009625D01*
X28649461Y40008986D01*
X28651364Y40007887D01*
X28651069Y40007378D01*
X28688869Y39969574D01*
X28694500Y39941259D01*
X28694500Y37058724D01*
X28672826Y37006398D01*
X28649477Y36991003D01*
X28649552Y36990849D01*
X28648385Y36990283D01*
X28647983Y36990017D01*
X28647167Y36989691D01*
X28527332Y36920505D01*
X28429494Y36822667D01*
X28360310Y36702836D01*
X28360309Y36702832D01*
X28324499Y36569186D01*
X28324499Y36430815D01*
X28360309Y36297169D01*
X28360311Y36297164D01*
X28429494Y36177335D01*
X28527334Y36079495D01*
X28586659Y36045244D01*
X28647163Y36010312D01*
X28648822Y36009625D01*
X28649461Y36008986D01*
X28651364Y36007887D01*
X28651069Y36007378D01*
X28688869Y35969574D01*
X28694500Y35941259D01*
X28694500Y35474000D01*
X28699666Y35448026D01*
X28710141Y35395365D01*
X28710144Y35395355D01*
X28731814Y35343038D01*
X28731816Y35343034D01*
X28731817Y35343033D01*
X28768445Y35284739D01*
X28843033Y35231817D01*
X28895359Y35210143D01*
X28895363Y35210143D01*
X28895367Y35210141D01*
X28914935Y35206249D01*
X28962028Y35174784D01*
X28974500Y35133671D01*
X28974500Y31714219D01*
X28968867Y31685901D01*
X28964556Y31675493D01*
X28924508Y31635445D01*
X28924507Y31635444D01*
X28914099Y31631133D01*
X28885781Y31625500D01*
X22955198Y31625500D01*
X22926880Y31631133D01*
X22901751Y31641542D01*
X22877745Y31657582D01*
X22607580Y31927747D01*
X22591540Y31951753D01*
X22581130Y31976885D01*
X22575499Y32005199D01*
X22575499Y32406521D01*
X22562807Y32486657D01*
X22560646Y32500305D01*
X22560645Y32500307D01*
X22503049Y32613343D01*
X22413343Y32703049D01*
X22413342Y32703050D01*
X22413340Y32703052D01*
X22300421Y32760587D01*
X22300356Y32760620D01*
X22300304Y32760646D01*
X22300302Y32760647D01*
X22300301Y32760647D01*
X22297387Y32761335D01*
X22294549Y32761558D01*
X22206520Y32775500D01*
X22206519Y32775500D01*
X21593480Y32775500D01*
X21593479Y32775500D01*
X21499695Y32760647D01*
X21499629Y32760614D01*
X21386656Y32703050D01*
X21296951Y32613345D01*
X21239353Y32500305D01*
X21239353Y32500303D01*
X21239353Y32500302D01*
X21224500Y32406520D01*
X21224500Y31943481D01*
X21239353Y31849696D01*
X21239354Y31849694D01*
X21296950Y31736658D01*
X21386658Y31646950D01*
X21499696Y31589354D01*
X21593481Y31574500D01*
X21994801Y31574501D01*
X22023115Y31568870D01*
X22048247Y31558460D01*
X22072253Y31542420D01*
X22575138Y31039535D01*
X22649361Y30996682D01*
X22732147Y30974500D01*
X24745259Y30974500D01*
X24773507Y30968896D01*
X24773624Y30968848D01*
X24774215Y30968603D01*
X24814304Y30928597D01*
X24814362Y30871960D01*
X24774355Y30831870D01*
X24774317Y30831854D01*
X24773557Y30831540D01*
X24772607Y30831146D01*
X24744259Y30825500D01*
X15224053Y30825500D01*
X15138347Y30825500D01*
X15112155Y30818483D01*
X15056630Y30803605D01*
X15055627Y30803353D01*
X15055592Y30803336D01*
X15055566Y30803322D01*
X14981340Y30760468D01*
X13039932Y28819060D01*
X12993834Y28739217D01*
X12993404Y28732654D01*
X12993547Y28731681D01*
X12993393Y28731074D01*
X12974900Y28662053D01*
X11350500Y28662053D01*
X11350500Y28904266D01*
X11347646Y28934699D01*
X11302793Y29062882D01*
X11302792Y29062884D01*
X11222153Y29172147D01*
X11222146Y29172154D01*
X11112883Y29252793D01*
X11112884Y29252793D01*
X11112863Y29252801D01*
X11039639Y29278423D01*
X11027766Y29289033D01*
X10984698Y29297647D01*
X10981605Y29297953D01*
X10981255Y29297969D01*
X10974046Y29298645D01*
X10954266Y29300500D01*
X10954263Y29300500D01*
X9045736Y29300500D01*
X9045734Y29300500D01*
X9025954Y29298645D01*
X9018745Y29297969D01*
X9017414Y29297907D01*
X9015305Y29297648D01*
X9015272Y29297638D01*
X8887135Y29252801D01*
X8887115Y29252793D01*
X8777851Y29172153D01*
X8777847Y29172149D01*
X8697207Y29062885D01*
X8697199Y29062865D01*
X8652362Y28934728D01*
X8652352Y28934695D01*
X8652093Y28932585D01*
X8652031Y28931256D01*
X8649500Y28904264D01*
X8649500Y28369035D01*
X8643867Y28340717D01*
X8639556Y28330309D01*
X8599508Y28290261D01*
X8599481Y28290249D01*
X8598681Y28289918D01*
X8551226Y28286820D01*
X8547899Y28287712D01*
X8530063Y28295101D01*
X8518131Y28301990D01*
X8452836Y28339688D01*
X8452833Y28339689D01*
X8452831Y28339690D01*
X8319185Y28375500D01*
X8319184Y28375500D01*
X8180816Y28375500D01*
X8180815Y28375500D01*
X8047168Y28339690D01*
X8047166Y28339690D01*
X8047165Y28339689D01*
X7927333Y28270505D01*
X7829495Y28172667D01*
X7760311Y28052836D01*
X7760310Y28052832D01*
X7724500Y27919186D01*
X300500Y27919186D01*
X300500Y36594186D01*
X8024500Y36594186D01*
X8024500Y36455815D01*
X8060310Y36322169D01*
X8060312Y36322164D01*
X8129495Y36202335D01*
X8227335Y36104495D01*
X8347164Y36035312D01*
X8476133Y36000756D01*
X8479831Y35999500D01*
X8619185Y35999500D01*
X8629448Y35999500D01*
X8638336Y36004633D01*
X8752836Y36035312D01*
X8852012Y36092573D01*
X8879349Y36101852D01*
X8890522Y36103323D01*
X8945228Y36088663D01*
X8945230Y36088661D01*
X8950205Y36084843D01*
X8975000Y36050579D01*
X8994664Y35994382D01*
X8997206Y35987119D01*
X8997207Y35987117D01*
X9077846Y35877854D01*
X9077853Y35877847D01*
X9164443Y35813942D01*
X9193673Y35765432D01*
X9194500Y35754402D01*
X9194500Y35574000D01*
X9198124Y35555782D01*
X9210141Y35495365D01*
X9210144Y35495355D01*
X9231814Y35443038D01*
X9231816Y35443034D01*
X9231817Y35443033D01*
X9268445Y35384739D01*
X9318111Y35349500D01*
X9343033Y35331817D01*
X9382872Y35315315D01*
X9395359Y35310143D01*
X9474000Y35294500D01*
X12070189Y35294500D01*
X12070194Y35294500D01*
X12146970Y35309381D01*
X12198260Y35330039D01*
X12263918Y35372527D01*
X13342572Y36409694D01*
X13461286Y36523842D01*
X13512576Y36544500D01*
X14778717Y36544500D01*
X14831043Y36522826D01*
X14852717Y36470500D01*
X14840244Y36429385D01*
X14836133Y36423234D01*
X14835173Y36418409D01*
X14824500Y36364747D01*
X14824500Y35825254D01*
X14830079Y35797207D01*
X14836133Y35766768D01*
X14836133Y35766767D01*
X14845765Y35752353D01*
X14845766Y35752352D01*
X14880448Y35700448D01*
X14915039Y35677335D01*
X14924559Y35670974D01*
X14924560Y35670973D01*
X14940710Y35660181D01*
X14943539Y35657860D01*
X14943562Y35657847D01*
X14946698Y35655967D01*
X14950258Y35655075D01*
X14950273Y35655071D01*
X14953910Y35654712D01*
X15005252Y35644500D01*
X15005254Y35644500D01*
X17244746Y35644500D01*
X17244748Y35644500D01*
X17303231Y35656133D01*
X17303232Y35656134D01*
X17369552Y35700448D01*
X17413867Y35766769D01*
X17425500Y35825252D01*
X17425500Y36364747D01*
X20574500Y36364747D01*
X20574500Y35825254D01*
X20580079Y35797207D01*
X20586133Y35766768D01*
X20586133Y35766767D01*
X20595765Y35752353D01*
X20595766Y35752352D01*
X20630448Y35700448D01*
X20665039Y35677335D01*
X20674559Y35670974D01*
X20674560Y35670973D01*
X20690710Y35660181D01*
X20693539Y35657860D01*
X20693562Y35657847D01*
X20696698Y35655967D01*
X20700258Y35655075D01*
X20700273Y35655071D01*
X20703910Y35654712D01*
X20755252Y35644500D01*
X21460781Y35644500D01*
X21489091Y35638871D01*
X21499503Y35634558D01*
X21539552Y35594516D01*
X21543677Y35584558D01*
X21543867Y35584100D01*
X21549500Y35555782D01*
X21549500Y34549254D01*
X21549033Y34540954D01*
X21546446Y34518043D01*
X21548845Y34511637D01*
X21549357Y34497833D01*
X21543774Y34466769D01*
X21537024Y34450475D01*
X21507332Y34415706D01*
X21498518Y34410303D01*
X21493439Y34407459D01*
X21389013Y34354252D01*
X21389014Y34354251D01*
X21386659Y34353051D01*
X21386656Y34353049D01*
X21296951Y34263344D01*
X21239353Y34150305D01*
X21239353Y34150303D01*
X21231339Y34099699D01*
X21224500Y34056520D01*
X21224500Y33593481D01*
X21239353Y33499696D01*
X21239354Y33499696D01*
X21239386Y33499631D01*
X21289995Y33400307D01*
X21289995Y33400306D01*
X21296947Y33386662D01*
X21296949Y33386659D01*
X21296950Y33386658D01*
X21386658Y33296950D01*
X21499696Y33239354D01*
X21593481Y33224500D01*
X22206518Y33224501D01*
X22206519Y33224501D01*
X22206520Y33224501D01*
X22217799Y33226288D01*
X22300304Y33239354D01*
X22300306Y33239355D01*
X22300361Y33239383D01*
X22302416Y33240430D01*
X22302419Y33240432D01*
X22413342Y33296950D01*
X22503050Y33386658D01*
X22560646Y33499696D01*
X22575500Y33593481D01*
X22575499Y34056518D01*
X22572669Y34074389D01*
X22573802Y34103234D01*
X22576432Y34114190D01*
X22609719Y34160009D01*
X22615580Y34163601D01*
X22654237Y34174500D01*
X22799585Y34174500D01*
X22827900Y34168869D01*
X22841406Y34163275D01*
X22879023Y34128504D01*
X22881502Y34123639D01*
X22887523Y34107317D01*
X22889352Y34099698D01*
X22889354Y34099695D01*
X22889354Y34099694D01*
X22911354Y34056518D01*
X22946950Y33986658D01*
X23036658Y33896950D01*
X23149696Y33839354D01*
X23243481Y33824500D01*
X23706518Y33824501D01*
X23706519Y33824501D01*
X23706520Y33824501D01*
X23717799Y33826288D01*
X23800304Y33839354D01*
X23800306Y33839355D01*
X23800361Y33839383D01*
X23802416Y33840430D01*
X23802419Y33840432D01*
X23913342Y33896950D01*
X24003050Y33986658D01*
X24060646Y34099696D01*
X24075500Y34193481D01*
X24075499Y34806518D01*
X24069060Y34847174D01*
X24060646Y34900305D01*
X24060645Y34900307D01*
X24011271Y34997207D01*
X24011270Y34997209D01*
X24003050Y35013342D01*
X23913340Y35103052D01*
X23800421Y35160587D01*
X23800356Y35160620D01*
X23800304Y35160646D01*
X23800302Y35160647D01*
X23800301Y35160647D01*
X23797387Y35161335D01*
X23794549Y35161558D01*
X23706520Y35175500D01*
X23706519Y35175500D01*
X23243480Y35175500D01*
X23243479Y35175500D01*
X23149695Y35160647D01*
X23149629Y35160614D01*
X23036656Y35103050D01*
X22946951Y35013345D01*
X22889351Y34900300D01*
X22888463Y34896601D01*
X22879606Y34875218D01*
X22872066Y34862913D01*
X22831847Y34831201D01*
X22826739Y34829541D01*
X22825459Y34829125D01*
X22802583Y34825500D01*
X22289219Y34825500D01*
X22260904Y34831132D01*
X22250495Y34835443D01*
X22210446Y34875487D01*
X22206129Y34885909D01*
X22200500Y34914219D01*
X22200500Y35555782D01*
X22206129Y35584091D01*
X22210443Y35594506D01*
X22250482Y35634552D01*
X22260911Y35638872D01*
X22289219Y35644500D01*
X22994746Y35644500D01*
X22994748Y35644500D01*
X23053231Y35656133D01*
X23053232Y35656134D01*
X23119552Y35700448D01*
X23163867Y35766769D01*
X23175500Y35825252D01*
X23175500Y36364748D01*
X23167147Y36406742D01*
X23163867Y36423232D01*
X23158800Y36430814D01*
X23158798Y36430817D01*
X23132785Y36469747D01*
X23132784Y36469748D01*
X23119552Y36489552D01*
X23119348Y36489688D01*
X23097343Y36504392D01*
X23090106Y36509228D01*
X23076774Y36529185D01*
X23035542Y36537386D01*
X23023989Y36539684D01*
X23023988Y36539685D01*
X22994748Y36545500D01*
X20755252Y36545500D01*
X20726010Y36539685D01*
X20726010Y36539684D01*
X20718749Y36538240D01*
X20696769Y36533868D01*
X20696766Y36533867D01*
X20630451Y36489555D01*
X20630448Y36489553D01*
X20586133Y36423234D01*
X20585173Y36418409D01*
X20574500Y36364747D01*
X17425500Y36364747D01*
X17425500Y36364748D01*
X17413867Y36423231D01*
X17408799Y36430815D01*
X17402280Y36440571D01*
X17402280Y36440572D01*
X17382785Y36469747D01*
X17382784Y36469748D01*
X17369552Y36489552D01*
X17369348Y36489688D01*
X17347343Y36504392D01*
X17340106Y36509228D01*
X17326774Y36529185D01*
X17294276Y36535649D01*
X17285540Y36537387D01*
X17238449Y36568852D01*
X17227400Y36624401D01*
X17239624Y36652784D01*
X17268183Y36693033D01*
X17289857Y36745359D01*
X17305500Y36824000D01*
X17305500Y36888096D01*
X17327174Y36940422D01*
X17338388Y36949625D01*
X17369552Y36970448D01*
X17413867Y37036769D01*
X17425500Y37095252D01*
X17425500Y37634748D01*
X20574500Y37634748D01*
X20574500Y37095253D01*
X20577715Y37079090D01*
X20577715Y37079089D01*
X20586132Y37036769D01*
X20607818Y37004315D01*
X20607819Y37004315D01*
X20630448Y36970448D01*
X20667777Y36945505D01*
X20688082Y36931937D01*
X20690709Y36930182D01*
X20693539Y36927859D01*
X20693562Y36927847D01*
X20696698Y36925967D01*
X20700258Y36925075D01*
X20700273Y36925071D01*
X20703910Y36924712D01*
X20755252Y36914500D01*
X21815691Y36914500D01*
X22795400Y36914500D01*
X22803848Y36914017D01*
X22812244Y36913051D01*
X22820572Y36911605D01*
X22914546Y36889688D01*
X23716180Y36702727D01*
X23742476Y36690810D01*
X23758049Y36679649D01*
X23787954Y36631550D01*
X23788031Y36631078D01*
X23790280Y36616875D01*
X23829046Y36540792D01*
X23845129Y36509227D01*
X23851472Y36496780D01*
X23946780Y36401472D01*
X24066874Y36340281D01*
X24166509Y36324500D01*
X24683489Y36324500D01*
X24683490Y36324500D01*
X24733307Y36332391D01*
X24783126Y36340281D01*
X24903220Y36401472D01*
X24998528Y36496780D01*
X25059719Y36616874D01*
X25075500Y36716512D01*
X25075500Y37283488D01*
X25071852Y37306518D01*
X25062021Y37368595D01*
X25059719Y37383128D01*
X25054402Y37393562D01*
X25054396Y37393571D01*
X25053252Y37395817D01*
X24998528Y37503220D01*
X24903220Y37598528D01*
X24903219Y37598529D01*
X24903217Y37598531D01*
X24793568Y37654400D01*
X24783126Y37659721D01*
X24683491Y37675500D01*
X24683489Y37675500D01*
X24683488Y37675500D01*
X24166512Y37675500D01*
X24166511Y37675500D01*
X24166510Y37675500D01*
X24066875Y37659720D01*
X24066873Y37659720D01*
X23958067Y37604279D01*
X23941725Y37598253D01*
X23910228Y37590701D01*
X23876166Y37590595D01*
X23121910Y37766507D01*
X23109277Y37770682D01*
X23101884Y37773888D01*
X23077559Y37799028D01*
X23053232Y37803867D01*
X23053233Y37803867D01*
X23023989Y37809684D01*
X23023988Y37809685D01*
X22994748Y37815500D01*
X22994746Y37815500D01*
X22924600Y37815500D01*
X22916135Y37815986D01*
X22890998Y37818881D01*
X22884853Y37816553D01*
X22854395Y37815558D01*
X22853225Y37815530D01*
X22851992Y37815510D01*
X22850846Y37815500D01*
X20755252Y37815500D01*
X20726010Y37809685D01*
X20726010Y37809684D01*
X20718749Y37808240D01*
X20696769Y37803868D01*
X20696766Y37803867D01*
X20630451Y37759555D01*
X20630448Y37759553D01*
X20586133Y37693234D01*
X20584399Y37684515D01*
X20579834Y37661558D01*
X20579653Y37660650D01*
X20579652Y37660648D01*
X20574500Y37634748D01*
X17425500Y37634748D01*
X17413867Y37693231D01*
X17369552Y37759552D01*
X17368181Y37760468D01*
X17347343Y37774392D01*
X17347339Y37774397D01*
X17347339Y37774395D01*
X17338382Y37780381D01*
X17306921Y37827476D01*
X17305500Y37841906D01*
X17305500Y38158096D01*
X17327174Y38210422D01*
X17338388Y38219625D01*
X17363661Y38236512D01*
X17369552Y38240448D01*
X17413867Y38306769D01*
X17425500Y38365252D01*
X17425500Y38904748D01*
X20574500Y38904748D01*
X20574500Y38365252D01*
X20582255Y38326264D01*
X20586133Y38306768D01*
X20615608Y38262657D01*
X20630448Y38240448D01*
X20636339Y38236512D01*
X20696767Y38196134D01*
X20696768Y38196134D01*
X20696769Y38196133D01*
X20702746Y38194944D01*
X20702908Y38194811D01*
X20703910Y38194712D01*
X20755252Y38184500D01*
X21815691Y38184500D01*
X23256323Y38184500D01*
X23284641Y38178867D01*
X23301150Y38172029D01*
X23335928Y38142326D01*
X23343755Y38129553D01*
X23346593Y38124485D01*
X23360980Y38096248D01*
X23361845Y38094552D01*
X23401472Y38016780D01*
X23496780Y37921472D01*
X23616874Y37860281D01*
X23716509Y37844500D01*
X24283489Y37844500D01*
X24283490Y37844500D01*
X24333307Y37852391D01*
X24383126Y37860281D01*
X24503220Y37921472D01*
X24598528Y38016780D01*
X24659719Y38136874D01*
X24675500Y38236512D01*
X24675500Y38753488D01*
X24670844Y38782882D01*
X24664095Y38825500D01*
X24659719Y38853128D01*
X24654403Y38863561D01*
X24654398Y38863568D01*
X24639836Y38892147D01*
X24598528Y38973220D01*
X24503220Y39068528D01*
X24503219Y39068529D01*
X24503217Y39068531D01*
X24393568Y39124400D01*
X24383126Y39129721D01*
X24283491Y39145500D01*
X24283489Y39145500D01*
X24283488Y39145500D01*
X23716512Y39145500D01*
X23716511Y39145500D01*
X23716510Y39145500D01*
X23616875Y39129720D01*
X23553724Y39097543D01*
X23537406Y39091523D01*
X23520839Y39087545D01*
X23503562Y39085500D01*
X20755252Y39085500D01*
X20726010Y39079685D01*
X20726010Y39079684D01*
X20718749Y39078240D01*
X20696769Y39073868D01*
X20696766Y39073867D01*
X20630451Y39029555D01*
X20630448Y39029553D01*
X20586133Y38963234D01*
X20584821Y38956638D01*
X20582213Y38943524D01*
X20574500Y38904748D01*
X17425500Y38904748D01*
X17413867Y38963231D01*
X17407192Y38973220D01*
X17396187Y38989690D01*
X17369552Y39029552D01*
X17347343Y39044392D01*
X17340106Y39049228D01*
X17326774Y39069185D01*
X17283209Y39077850D01*
X17273989Y39079684D01*
X17273988Y39079685D01*
X17244748Y39085500D01*
X17244746Y39085500D01*
X17129879Y39085500D01*
X17108409Y39089766D01*
X17108117Y39088802D01*
X17104635Y39089859D01*
X17051974Y39100334D01*
X17026000Y39105500D01*
X17025998Y39105500D01*
X13648096Y39105500D01*
X13648090Y39105500D01*
X13611398Y39102123D01*
X13610566Y39102046D01*
X13584025Y39097118D01*
X13584013Y39097116D01*
X13584013Y39097115D01*
X13558628Y39090706D01*
X13558627Y39090706D01*
X13558625Y39090705D01*
X13479976Y39044044D01*
X13479973Y39044041D01*
X13476619Y39040855D01*
X13425648Y39020500D01*
X13070734Y39020500D01*
X13046629Y39018240D01*
X13043745Y39017969D01*
X13042414Y39017907D01*
X13040305Y39017648D01*
X13040272Y39017638D01*
X12912135Y38972801D01*
X12912115Y38972793D01*
X12802851Y38892153D01*
X12802847Y38892149D01*
X12722207Y38782885D01*
X12722199Y38782865D01*
X12677362Y38654728D01*
X12677352Y38654695D01*
X12677093Y38652585D01*
X12677031Y38651256D01*
X12674500Y38624266D01*
X12674500Y38015734D01*
X12675009Y38010311D01*
X12677031Y37988745D01*
X12677126Y37986705D01*
X12677354Y37985299D01*
X12677369Y37985253D01*
X12721113Y37860242D01*
X12722206Y37857119D01*
X12722207Y37857117D01*
X12802846Y37747854D01*
X12802853Y37747847D01*
X12802857Y37747844D01*
X12804698Y37746260D01*
X12830226Y37695702D01*
X12824055Y37660112D01*
X12685982Y37349446D01*
X12644925Y37310432D01*
X12618360Y37305500D01*
X9474000Y37305500D01*
X9456012Y37301922D01*
X9441576Y37300500D01*
X9345734Y37300500D01*
X9321629Y37298240D01*
X9318745Y37297969D01*
X9317414Y37297907D01*
X9315305Y37297648D01*
X9315272Y37297638D01*
X9187135Y37252801D01*
X9187115Y37252793D01*
X9077851Y37172153D01*
X9077847Y37172149D01*
X8997207Y37062885D01*
X8997200Y37062869D01*
X8976465Y37003610D01*
X8961798Y36978744D01*
X8954292Y36970344D01*
X8903265Y36945768D01*
X8903253Y36945767D01*
X8896991Y36945416D01*
X8855851Y36955214D01*
X8796090Y36989716D01*
X8796089Y36989716D01*
X8752836Y37014688D01*
X8752833Y37014689D01*
X8752831Y37014690D01*
X8619185Y37050500D01*
X8619184Y37050500D01*
X8480816Y37050500D01*
X8480815Y37050500D01*
X8347168Y37014690D01*
X8347166Y37014690D01*
X8347165Y37014689D01*
X8227333Y36945505D01*
X8129495Y36847667D01*
X8060311Y36727836D01*
X8057277Y36716512D01*
X8024500Y36594186D01*
X300500Y36594186D01*
X300500Y40174747D01*
X20574500Y40174747D01*
X20574500Y39635254D01*
X20586133Y39576768D01*
X20615608Y39532657D01*
X20630448Y39510448D01*
X20661516Y39489689D01*
X20696767Y39466134D01*
X20696768Y39466134D01*
X20696769Y39466133D01*
X20702746Y39464944D01*
X20702908Y39464811D01*
X20703910Y39464712D01*
X20755252Y39454500D01*
X21430895Y39454500D01*
X21459210Y39448869D01*
X21484339Y39438460D01*
X21500981Y39427341D01*
X21501438Y39427974D01*
X21505382Y39425132D01*
X21506555Y39424260D01*
X21508198Y39423375D01*
X21573095Y39385907D01*
X21640182Y39347174D01*
X21641466Y39346433D01*
X21643216Y39345422D01*
X21646352Y39344582D01*
X21646355Y39344581D01*
X21664809Y39339636D01*
X21664814Y39339636D01*
X21664823Y39339633D01*
X21791268Y39305752D01*
X21794958Y39304499D01*
X21954059Y39304499D01*
X21964321Y39304499D01*
X21973209Y39309632D01*
X22106785Y39345423D01*
X22106787Y39345425D01*
X22106789Y39345425D01*
X22158867Y39375493D01*
X22243716Y39424481D01*
X22243721Y39424487D01*
X22247562Y39427433D01*
X22248104Y39426726D01*
X22265658Y39438460D01*
X22290790Y39448869D01*
X22319104Y39454500D01*
X23503562Y39454500D01*
X23520834Y39452456D01*
X23537398Y39448480D01*
X23553722Y39442458D01*
X23562477Y39437997D01*
X23562478Y39437997D01*
X23616874Y39410281D01*
X23616873Y39410281D01*
X23642175Y39406274D01*
X23700727Y39397001D01*
X23700728Y39397000D01*
X23700729Y39397000D01*
X23716511Y39394500D01*
X24283489Y39394500D01*
X24283490Y39394500D01*
X24333307Y39402391D01*
X24383126Y39410281D01*
X24503220Y39471472D01*
X24598528Y39566780D01*
X24659719Y39686874D01*
X24675500Y39786512D01*
X24675500Y40303488D01*
X24671940Y40325962D01*
X24669105Y40343867D01*
X24659719Y40403128D01*
X24654403Y40413561D01*
X24654398Y40413568D01*
X24645610Y40430815D01*
X24598528Y40523220D01*
X24503220Y40618528D01*
X24503219Y40618529D01*
X24503217Y40618531D01*
X24393568Y40674400D01*
X24383126Y40679721D01*
X24283491Y40695500D01*
X24283489Y40695500D01*
X24283488Y40695500D01*
X23716512Y40695500D01*
X23716511Y40695500D01*
X23716510Y40695500D01*
X23622628Y40680631D01*
X23611052Y40679720D01*
X23604488Y40679720D01*
X23580950Y40668869D01*
X23574777Y40668383D01*
X23520911Y40685884D01*
X23495374Y40734426D01*
X23494611Y40741689D01*
X23496728Y40768565D01*
X23520367Y40856789D01*
X23525500Y40865678D01*
X23525500Y41660782D01*
X23531129Y41689091D01*
X23535443Y41699506D01*
X23575482Y41739552D01*
X23585911Y41743872D01*
X23614219Y41749500D01*
X24119746Y41749500D01*
X24119748Y41749500D01*
X24178231Y41761133D01*
X24178232Y41761134D01*
X24244552Y41805448D01*
X24288867Y41871769D01*
X24300500Y41930252D01*
X24300500Y47069748D01*
X24288867Y47128231D01*
X24284889Y47134184D01*
X24266557Y47161620D01*
X24244552Y47194552D01*
X24222343Y47209392D01*
X24215106Y47214228D01*
X24201774Y47234185D01*
X24162106Y47242075D01*
X24148989Y47244684D01*
X24148988Y47244685D01*
X24119748Y47250500D01*
X21730252Y47250500D01*
X21701010Y47244685D01*
X21701010Y47244684D01*
X21693749Y47243240D01*
X21671769Y47238868D01*
X21671766Y47238867D01*
X21605451Y47194555D01*
X21605448Y47194553D01*
X21561133Y47128233D01*
X21555459Y47099703D01*
X21555458Y47099700D01*
X21554424Y47094503D01*
X21549500Y47069748D01*
X21549500Y41930252D01*
X21556158Y41896781D01*
X21561133Y41871768D01*
X21590608Y41827657D01*
X21605448Y41805448D01*
X21649560Y41775973D01*
X21671767Y41761134D01*
X21671768Y41761134D01*
X21671769Y41761133D01*
X21677746Y41759944D01*
X21677908Y41759811D01*
X21678910Y41759712D01*
X21730252Y41749500D01*
X22235781Y41749500D01*
X22264091Y41743871D01*
X22274503Y41739558D01*
X22314552Y41699516D01*
X22318867Y41689100D01*
X22324500Y41660782D01*
X22324500Y41249106D01*
X22318867Y41220790D01*
X22308459Y41195660D01*
X22292418Y41171654D01*
X21508346Y40387582D01*
X21484340Y40371542D01*
X21459210Y40361133D01*
X21430894Y40355500D01*
X20755252Y40355500D01*
X20726010Y40349685D01*
X20726010Y40349684D01*
X20718749Y40348240D01*
X20696769Y40343868D01*
X20696766Y40343867D01*
X20630451Y40299555D01*
X20630448Y40299553D01*
X20586133Y40233234D01*
X20583276Y40218868D01*
X20574500Y40174747D01*
X300500Y40174747D01*
X300500Y46118093D01*
X2499500Y46118093D01*
X2499500Y45881908D01*
X2535554Y45654265D01*
X2536447Y45648630D01*
X2536453Y45648606D01*
X2609426Y45424020D01*
X2716655Y45213568D01*
X2828886Y45059095D01*
X2855479Y45022494D01*
X3022549Y44855424D01*
X3022682Y44855312D01*
X3023705Y44854600D01*
X3154542Y44759541D01*
X3213567Y44716657D01*
X3213576Y44716652D01*
X3420163Y44611390D01*
X3421102Y44610841D01*
X3423299Y44609777D01*
X3424528Y44609167D01*
X3426767Y44608535D01*
X3646303Y44537203D01*
X3647867Y44536637D01*
X3648039Y44536586D01*
X3648477Y44536472D01*
X3648630Y44536448D01*
X3648632Y44536447D01*
X3804149Y44511816D01*
X3823589Y44508737D01*
X3881906Y44499500D01*
X4118093Y44499500D01*
X4118094Y44499500D01*
X4132672Y44501810D01*
X4176411Y44508737D01*
X4351368Y44536447D01*
X4351367Y44536447D01*
X4351507Y44536469D01*
X4352564Y44536793D01*
X4353242Y44536989D01*
X4354553Y44537482D01*
X4543123Y44598752D01*
X4570742Y44607726D01*
X4571005Y44607791D01*
X4575678Y44609330D01*
X4575986Y44609430D01*
X4575986Y44609431D01*
X4575988Y44609432D01*
X4575992Y44609432D01*
X4575995Y44609434D01*
X4576036Y44609447D01*
X4586294Y44612781D01*
X4591812Y44617494D01*
X4786433Y44716657D01*
X4977510Y44855483D01*
X5144517Y45022490D01*
X5283343Y45213567D01*
X5390568Y45424008D01*
X5392781Y45430817D01*
X5403232Y45462982D01*
X5428034Y45539318D01*
X5462518Y45645447D01*
X5463011Y45646758D01*
X5463207Y45647436D01*
X5463531Y45648493D01*
X5500500Y45881908D01*
X5500500Y46118093D01*
X5499386Y46125123D01*
X5499385Y46125127D01*
X5463553Y46351366D01*
X5463550Y46351379D01*
X5463544Y46351396D01*
X5415422Y46499500D01*
X5391462Y46573239D01*
X5390832Y46575475D01*
X5390227Y46576693D01*
X5389159Y46578897D01*
X5388609Y46579837D01*
X5365269Y46625644D01*
X5283343Y46786433D01*
X5259774Y46818872D01*
X5217283Y46877356D01*
X5201194Y46899500D01*
X5145386Y46976313D01*
X5144684Y46977322D01*
X5144576Y46977451D01*
X4977504Y47144523D01*
X4977476Y47144543D01*
X4977251Y47144706D01*
X4786432Y47283345D01*
X4587354Y47384779D01*
X4575986Y47390571D01*
X4575985Y47390572D01*
X4575980Y47390574D01*
X4351394Y47463547D01*
X4351370Y47463553D01*
X4351367Y47463554D01*
X4351365Y47463554D01*
X4218910Y47484533D01*
X4118094Y47500500D01*
X4118093Y47500500D01*
X4118092Y47500500D01*
X3881908Y47500500D01*
X3881907Y47500500D01*
X3881906Y47500500D01*
X3648628Y47463553D01*
X3648604Y47463547D01*
X3424018Y47390574D01*
X3213566Y47283345D01*
X3022498Y47144525D01*
X2855475Y46977502D01*
X2716655Y46786434D01*
X2609426Y46575982D01*
X2536453Y46351396D01*
X2536447Y46351372D01*
X2500614Y46125124D01*
X2499500Y46118093D01*
X300500Y46118093D01*
X300500Y47869186D01*
X32924499Y47869186D01*
X32924499Y47730815D01*
X32960309Y47597169D01*
X32960311Y47597164D01*
X33029494Y47477335D01*
X33127334Y47379495D01*
X33247163Y47310312D01*
X33376132Y47275756D01*
X33379830Y47274500D01*
X33519184Y47274500D01*
X33529447Y47274500D01*
X33538335Y47279633D01*
X33652835Y47310312D01*
X33725755Y47352414D01*
X33753091Y47361693D01*
X33764266Y47363164D01*
X33818961Y47348511D01*
X33819648Y47347984D01*
X33846085Y47308428D01*
X33846977Y47305100D01*
X33849500Y47285942D01*
X33849500Y47270737D01*
X33852031Y47243745D01*
X33852126Y47241705D01*
X33852354Y47240299D01*
X33852369Y47240253D01*
X33891568Y47128231D01*
X33897206Y47112119D01*
X33897207Y47112117D01*
X33977846Y47002854D01*
X33977853Y47002847D01*
X34087115Y46922209D01*
X34087116Y46922208D01*
X34087118Y46922207D01*
X34215295Y46877356D01*
X34215298Y46877355D01*
X34215301Y46877354D01*
X34245734Y46874500D01*
X34245741Y46874500D01*
X34854258Y46874500D01*
X34854266Y46874500D01*
X34884699Y46877354D01*
X35012882Y46922207D01*
X35077298Y46969748D01*
X38299500Y46969748D01*
X38299500Y46030253D01*
X38303467Y46010310D01*
X38309394Y45980512D01*
X38311133Y45971768D01*
X38331756Y45940905D01*
X38355448Y45905448D01*
X38388310Y45883490D01*
X38415709Y45865182D01*
X38418539Y45862859D01*
X38418562Y45862847D01*
X38421698Y45860967D01*
X38425258Y45860075D01*
X38425273Y45860071D01*
X38428910Y45859712D01*
X38480252Y45849500D01*
X38480254Y45849500D01*
X40019746Y45849500D01*
X40019748Y45849500D01*
X40078231Y45861133D01*
X40078232Y45861134D01*
X40144552Y45905448D01*
X40174332Y45950018D01*
X40194747Y45970433D01*
X40209833Y45980513D01*
X40253355Y45992943D01*
X40254684Y45992899D01*
X40271408Y45990419D01*
X40311539Y45979666D01*
X40326136Y45975755D01*
X40329831Y45974500D01*
X40469185Y45974500D01*
X40479448Y45974500D01*
X40488336Y45979633D01*
X40602836Y46010312D01*
X40722665Y46079495D01*
X40820505Y46177335D01*
X40889688Y46297164D01*
X40920367Y46411664D01*
X40925500Y46420553D01*
X40925500Y46570171D01*
X40924242Y46573877D01*
X40923674Y46575996D01*
X40923674Y46575995D01*
X40889688Y46702836D01*
X40820505Y46822665D01*
X40722665Y46920505D01*
X40602836Y46989688D01*
X40602831Y46989690D01*
X40469185Y47025500D01*
X40469184Y47025500D01*
X40330817Y47025500D01*
X40277406Y47011190D01*
X40248592Y47009303D01*
X40230605Y47011672D01*
X40189688Y47031022D01*
X40188729Y47031920D01*
X40177781Y47044823D01*
X40160089Y47071300D01*
X40144552Y47094552D01*
X40144550Y47094553D01*
X40144550Y47094554D01*
X40115111Y47114225D01*
X40101775Y47134184D01*
X40078232Y47138867D01*
X40078233Y47138867D01*
X40048989Y47144684D01*
X40048988Y47144685D01*
X40019748Y47150500D01*
X38480252Y47150500D01*
X38451010Y47144685D01*
X38451010Y47144684D01*
X38443749Y47143240D01*
X38421769Y47138868D01*
X38421766Y47138867D01*
X38355451Y47094555D01*
X38355448Y47094553D01*
X38311133Y47028234D01*
X38310589Y47025500D01*
X38306084Y47002850D01*
X38300802Y46976294D01*
X38299500Y46969748D01*
X35077298Y46969748D01*
X35122150Y47002850D01*
X35132834Y47017326D01*
X35132835Y47017327D01*
X35189829Y47094552D01*
X35202793Y47112118D01*
X35247646Y47240301D01*
X35250500Y47270734D01*
X35250500Y48329266D01*
X35247646Y48359699D01*
X35247644Y48359706D01*
X35247644Y48359707D01*
X35224223Y48426638D01*
X35224222Y48426640D01*
X35221123Y48435499D01*
X35216419Y48448942D01*
X35216419Y48448943D01*
X35214466Y48454523D01*
X35209139Y48469748D01*
X38299500Y48469748D01*
X38299500Y47530253D01*
X38303467Y47510310D01*
X38311133Y47471768D01*
X38311133Y47471767D01*
X38316624Y47463550D01*
X38316625Y47463549D01*
X38355447Y47405449D01*
X38355448Y47405448D01*
X38377849Y47390480D01*
X38377850Y47390479D01*
X38415709Y47365182D01*
X38418539Y47362859D01*
X38418562Y47362847D01*
X38421698Y47360967D01*
X38425258Y47360075D01*
X38425273Y47360071D01*
X38428910Y47359712D01*
X38480252Y47349500D01*
X38480254Y47349500D01*
X40019746Y47349500D01*
X40019748Y47349500D01*
X40078231Y47361133D01*
X40078232Y47361134D01*
X40144552Y47405448D01*
X40188867Y47471769D01*
X40194183Y47498498D01*
X40205230Y47525170D01*
X40211493Y47534543D01*
X40258581Y47566004D01*
X40262600Y47566803D01*
X40314031Y47558310D01*
X40397164Y47510312D01*
X40526133Y47475756D01*
X40529831Y47474500D01*
X40669185Y47474500D01*
X40679448Y47474500D01*
X40688336Y47479633D01*
X40802836Y47510312D01*
X40922665Y47579495D01*
X41020505Y47677335D01*
X41089688Y47797164D01*
X41120367Y47911664D01*
X41125500Y47920553D01*
X41125500Y48070170D01*
X41124241Y48073879D01*
X41120973Y48086074D01*
X41111169Y48122665D01*
X41089688Y48202836D01*
X41020505Y48322665D01*
X40922665Y48420505D01*
X40802836Y48489688D01*
X40802831Y48489690D01*
X40669185Y48525500D01*
X40669184Y48525500D01*
X40530816Y48525500D01*
X40530815Y48525500D01*
X40438867Y48500863D01*
X40397164Y48489689D01*
X40397162Y48489688D01*
X40397149Y48489681D01*
X40319377Y48444780D01*
X40292035Y48435499D01*
X40280867Y48434029D01*
X40226161Y48448688D01*
X40222915Y48451179D01*
X40195387Y48495450D01*
X40188867Y48528231D01*
X40144552Y48594552D01*
X40144550Y48594553D01*
X40144550Y48594554D01*
X40115111Y48614225D01*
X40101775Y48634184D01*
X40078232Y48638867D01*
X40078233Y48638867D01*
X40048989Y48644684D01*
X40048988Y48644685D01*
X40019748Y48650500D01*
X38480252Y48650500D01*
X38451010Y48644685D01*
X38451010Y48644684D01*
X38446536Y48643794D01*
X38421769Y48638868D01*
X38421766Y48638867D01*
X38355451Y48594555D01*
X38355448Y48594553D01*
X38311133Y48528233D01*
X38305689Y48500863D01*
X38299500Y48469748D01*
X35209139Y48469748D01*
X35203078Y48487070D01*
X35202794Y48487881D01*
X35202792Y48487884D01*
X35124068Y48594552D01*
X35122154Y48597146D01*
X35122147Y48597153D01*
X35112437Y48604319D01*
X35012883Y48677793D01*
X35012884Y48677793D01*
X35012863Y48677801D01*
X34939639Y48703423D01*
X34927766Y48714033D01*
X34884698Y48722647D01*
X34881605Y48722953D01*
X34881255Y48722969D01*
X34879260Y48723156D01*
X34854266Y48725500D01*
X34854263Y48725500D01*
X34245736Y48725500D01*
X34245734Y48725500D01*
X34221629Y48723240D01*
X34218745Y48722969D01*
X34217414Y48722907D01*
X34215305Y48722648D01*
X34215272Y48722638D01*
X34087135Y48677801D01*
X34087115Y48677793D01*
X33977851Y48597153D01*
X33977847Y48597149D01*
X33897207Y48487885D01*
X33897199Y48487865D01*
X33852362Y48359728D01*
X33852352Y48359695D01*
X33852093Y48357585D01*
X33852031Y48356256D01*
X33849500Y48329264D01*
X33849500Y48319035D01*
X33843867Y48290717D01*
X33839556Y48280309D01*
X33799508Y48240261D01*
X33799481Y48240249D01*
X33798681Y48239918D01*
X33751241Y48236817D01*
X33747908Y48237710D01*
X33730066Y48245100D01*
X33669081Y48280309D01*
X33652840Y48289686D01*
X33652835Y48289688D01*
X33652829Y48289691D01*
X33652828Y48289691D01*
X33519186Y48325500D01*
X33519184Y48325500D01*
X33519182Y48325500D01*
X33380816Y48325500D01*
X33380814Y48325500D01*
X33247167Y48289690D01*
X33247165Y48289690D01*
X33247164Y48289689D01*
X33127332Y48220505D01*
X33029494Y48122667D01*
X32960310Y48002836D01*
X32960309Y48002832D01*
X32924499Y47869186D01*
X300500Y47869186D01*
X300500Y49610782D01*
X306129Y49639091D01*
X310443Y49649506D01*
X350482Y49689552D01*
X360911Y49693872D01*
X389219Y49699500D01*
X33911281Y49699500D01*
X33939591Y49693871D01*
G37*
%TD.AperFunction*%
%TD*%
%TA.AperFunction,Conductor*%
%TO.N,/VPWR*%
G36*
X17078326Y38878326D02*
G01*
X17100000Y38826000D01*
X17100000Y36824000D01*
X17078326Y36771674D01*
X17026000Y36750000D01*
X13400000Y36750000D01*
X12121484Y35520658D01*
X12070194Y35500000D01*
X9474000Y35500000D01*
X9421674Y35521674D01*
X9400000Y35574000D01*
X9400000Y37026000D01*
X9421674Y37078326D01*
X9474000Y37100000D01*
X12799999Y37100000D01*
X12800000Y37100000D01*
X13580468Y38856055D01*
X13621526Y38895068D01*
X13648090Y38900000D01*
X17026000Y38900000D01*
X17078326Y38878326D01*
G37*
%TD.AperFunction*%
%TD*%
%TA.AperFunction,Conductor*%
%TO.N,/3V3*%
G36*
X31078326Y45578326D02*
G01*
X31100000Y45526000D01*
X31100000Y35474000D01*
X31078326Y35421674D01*
X31026000Y35400000D01*
X28974000Y35400000D01*
X28921674Y35421674D01*
X28900000Y35474000D01*
X28900000Y43000000D01*
X26374000Y43000000D01*
X26321674Y43021674D01*
X26300000Y43074000D01*
X26300000Y45526000D01*
X26321674Y45578326D01*
X26374000Y45600000D01*
X31026000Y45600000D01*
X31078326Y45578326D01*
G37*
%TD.AperFunction*%
%TD*%
M02*
