%TF.GenerationSoftware,KiCad,Pcbnew,10.0.6*%
%TF.CreationDate,2026-09-12T11:08:24+02:00*%
%TF.ProjectId,leaf-heat-v3,6c656166-2d68-4656-9174-2d76332e6b69,B*%
%TF.SameCoordinates,Original*%
%TF.FileFunction,Legend,Top*%
%TF.FilePolarity,Positive*%
%FSLAX46Y46*%
G04 Gerber Fmt 4.6, Leading zero omitted, Abs format (unit mm)*
G04 Created by KiCad (PCBNEW 10.0.6) date 2026-09-12 11:08:24*
%MOMM*%
%LPD*%
G01*
G04 APERTURE LIST*
G04 Aperture macros list*
%AMRoundRect*
0 Rectangle with rounded corners*
0 $1 Rounding radius*
0 $2 $3 $4 $5 $6 $7 $8 $9 X,Y pos of 4 corners*
0 Add a 4 corners polygon primitive as box body*
4,1,4,$2,$3,$4,$5,$6,$7,$8,$9,$2,$3,0*
0 Add four circle primitives for the rounded corners*
1,1,$1+$1,$2,$3*
1,1,$1+$1,$4,$5*
1,1,$1+$1,$6,$7*
1,1,$1+$1,$8,$9*
0 Add four rect primitives between the rounded corners*
20,1,$1+$1,$2,$3,$4,$5,0*
20,1,$1+$1,$4,$5,$6,$7,0*
20,1,$1+$1,$6,$7,$8,$9,0*
20,1,$1+$1,$8,$9,$2,$3,0*%
G04 Aperture macros list end*
%ADD10C,0.130000*%
%ADD11C,0.120000*%
%ADD12C,0.150000*%
%ADD13RoundRect,0.225000X0.250000X-0.225000X0.250000X0.225000X-0.250000X0.225000X-0.250000X-0.225000X0*%
%ADD14RoundRect,0.250000X-0.650000X1.000000X-0.650000X-1.000000X0.650000X-1.000000X0.650000X1.000000X0*%
%ADD15RoundRect,0.218750X-0.218750X-0.256250X0.218750X-0.256250X0.218750X0.256250X-0.218750X0.256250X0*%
%ADD16RoundRect,0.200000X-0.200000X-0.275000X0.200000X-0.275000X0.200000X0.275000X-0.200000X0.275000X0*%
%ADD17RoundRect,0.150000X0.150000X-0.512500X0.150000X0.512500X-0.150000X0.512500X-0.150000X-0.512500X0*%
%ADD18C,2.700000*%
%ADD19R,1.700000X1.700000*%
%ADD20C,1.700000*%
%ADD21R,1.600000X1.600000*%
%ADD22C,1.600000*%
%ADD23C,4.000000*%
%ADD24RoundRect,0.200000X0.275000X-0.200000X0.275000X0.200000X-0.275000X0.200000X-0.275000X-0.200000X0*%
%ADD25RoundRect,0.250000X-0.325000X-1.100000X0.325000X-1.100000X0.325000X1.100000X-0.325000X1.100000X0*%
%ADD26R,2.350000X5.100000*%
%ADD27RoundRect,0.225000X-0.225000X-0.250000X0.225000X-0.250000X0.225000X0.250000X-0.225000X0.250000X0*%
%ADD28RoundRect,0.250000X1.100000X-0.325000X1.100000X0.325000X-1.100000X0.325000X-1.100000X-0.325000X0*%
%ADD29RoundRect,0.250000X-0.250000X-0.475000X0.250000X-0.475000X0.250000X0.475000X-0.250000X0.475000X0*%
%ADD30RoundRect,0.200000X0.200000X0.275000X-0.200000X0.275000X-0.200000X-0.275000X0.200000X-0.275000X0*%
%ADD31RoundRect,0.250000X0.900000X-1.000000X0.900000X1.000000X-0.900000X1.000000X-0.900000X-1.000000X0*%
%ADD32RoundRect,0.250000X0.475000X-0.250000X0.475000X0.250000X-0.475000X0.250000X-0.475000X-0.250000X0*%
%ADD33R,3.150000X1.960000*%
%ADD34R,1.700000X1.000000*%
%ADD35R,2.400000X3.100000*%
%ADD36RoundRect,0.070000X-1.100000X-0.250000X1.100000X-0.250000X1.100000X0.250000X-1.100000X0.250000X0*%
%ADD37C,0.770000*%
%ADD38R,1.500000X0.900000*%
%ADD39C,0.650000*%
%ADD40R,2.900000X2.900000*%
%ADD41RoundRect,0.225000X0.225000X0.250000X-0.225000X0.250000X-0.225000X-0.250000X0.225000X-0.250000X0*%
%ADD42RoundRect,0.150000X0.150000X-0.587500X0.150000X0.587500X-0.150000X0.587500X-0.150000X-0.587500X0*%
%ADD43RoundRect,0.150000X-0.150000X0.825000X-0.150000X-0.825000X0.150000X-0.825000X0.150000X0.825000X0*%
G04 APERTURE END LIST*
D10*
X43695238Y9636665D02*
X43695238Y10436665D01*
X43695238Y10436665D02*
X44152381Y9636665D01*
X44152381Y9636665D02*
X44152381Y10436665D01*
X44685714Y10436665D02*
X44838095Y10436665D01*
X44838095Y10436665D02*
X44914285Y10398570D01*
X44914285Y10398570D02*
X44990476Y10322380D01*
X44990476Y10322380D02*
X45028571Y10169999D01*
X45028571Y10169999D02*
X45028571Y9903332D01*
X45028571Y9903332D02*
X44990476Y9750951D01*
X44990476Y9750951D02*
X44914285Y9674760D01*
X44914285Y9674760D02*
X44838095Y9636665D01*
X44838095Y9636665D02*
X44685714Y9636665D01*
X44685714Y9636665D02*
X44609523Y9674760D01*
X44609523Y9674760D02*
X44533333Y9750951D01*
X44533333Y9750951D02*
X44495237Y9903332D01*
X44495237Y9903332D02*
X44495237Y10169999D01*
X44495237Y10169999D02*
X44533333Y10322380D01*
X44533333Y10322380D02*
X44609523Y10398570D01*
X44609523Y10398570D02*
X44685714Y10436665D01*
X45980952Y9636665D02*
X45980952Y10436665D01*
X45980952Y10436665D02*
X46285714Y10436665D01*
X46285714Y10436665D02*
X46361904Y10398570D01*
X46361904Y10398570D02*
X46399999Y10360475D01*
X46399999Y10360475D02*
X46438095Y10284284D01*
X46438095Y10284284D02*
X46438095Y10169999D01*
X46438095Y10169999D02*
X46399999Y10093808D01*
X46399999Y10093808D02*
X46361904Y10055713D01*
X46361904Y10055713D02*
X46285714Y10017618D01*
X46285714Y10017618D02*
X45980952Y10017618D01*
X46933333Y10436665D02*
X47085714Y10436665D01*
X47085714Y10436665D02*
X47161904Y10398570D01*
X47161904Y10398570D02*
X47238095Y10322380D01*
X47238095Y10322380D02*
X47276190Y10169999D01*
X47276190Y10169999D02*
X47276190Y9903332D01*
X47276190Y9903332D02*
X47238095Y9750951D01*
X47238095Y9750951D02*
X47161904Y9674760D01*
X47161904Y9674760D02*
X47085714Y9636665D01*
X47085714Y9636665D02*
X46933333Y9636665D01*
X46933333Y9636665D02*
X46857142Y9674760D01*
X46857142Y9674760D02*
X46780952Y9750951D01*
X46780952Y9750951D02*
X46742856Y9903332D01*
X46742856Y9903332D02*
X46742856Y10169999D01*
X46742856Y10169999D02*
X46780952Y10322380D01*
X46780952Y10322380D02*
X46857142Y10398570D01*
X46857142Y10398570D02*
X46933333Y10436665D01*
X47542856Y10436665D02*
X47733332Y9636665D01*
X47733332Y9636665D02*
X47885713Y10208094D01*
X47885713Y10208094D02*
X48038094Y9636665D01*
X48038094Y9636665D02*
X48228571Y10436665D01*
X48533333Y10055713D02*
X48799999Y10055713D01*
X48914285Y9636665D02*
X48533333Y9636665D01*
X48533333Y9636665D02*
X48533333Y10436665D01*
X48533333Y10436665D02*
X48914285Y10436665D01*
X49714286Y9636665D02*
X49447619Y10017618D01*
X49257143Y9636665D02*
X49257143Y10436665D01*
X49257143Y10436665D02*
X49561905Y10436665D01*
X49561905Y10436665D02*
X49638095Y10398570D01*
X49638095Y10398570D02*
X49676190Y10360475D01*
X49676190Y10360475D02*
X49714286Y10284284D01*
X49714286Y10284284D02*
X49714286Y10169999D01*
X49714286Y10169999D02*
X49676190Y10093808D01*
X49676190Y10093808D02*
X49638095Y10055713D01*
X49638095Y10055713D02*
X49561905Y10017618D01*
X49561905Y10017618D02*
X49257143Y10017618D01*
X50666667Y9636665D02*
X50666667Y10436665D01*
X50666667Y10436665D02*
X50971429Y10436665D01*
X50971429Y10436665D02*
X51047619Y10398570D01*
X51047619Y10398570D02*
X51085714Y10360475D01*
X51085714Y10360475D02*
X51123810Y10284284D01*
X51123810Y10284284D02*
X51123810Y10169999D01*
X51123810Y10169999D02*
X51085714Y10093808D01*
X51085714Y10093808D02*
X51047619Y10055713D01*
X51047619Y10055713D02*
X50971429Y10017618D01*
X50971429Y10017618D02*
X50666667Y10017618D01*
X51466667Y9636665D02*
X51466667Y10436665D01*
X51847619Y9636665D02*
X51847619Y10436665D01*
X51847619Y10436665D02*
X52304762Y9636665D01*
X52304762Y9636665D02*
X52304762Y10436665D01*
X51390476Y3598570D02*
X51314286Y3636665D01*
X51314286Y3636665D02*
X51200000Y3636665D01*
X51200000Y3636665D02*
X51085714Y3598570D01*
X51085714Y3598570D02*
X51009524Y3522380D01*
X51009524Y3522380D02*
X50971429Y3446189D01*
X50971429Y3446189D02*
X50933333Y3293808D01*
X50933333Y3293808D02*
X50933333Y3179522D01*
X50933333Y3179522D02*
X50971429Y3027141D01*
X50971429Y3027141D02*
X51009524Y2950951D01*
X51009524Y2950951D02*
X51085714Y2874760D01*
X51085714Y2874760D02*
X51200000Y2836665D01*
X51200000Y2836665D02*
X51276191Y2836665D01*
X51276191Y2836665D02*
X51390476Y2874760D01*
X51390476Y2874760D02*
X51428572Y2912856D01*
X51428572Y2912856D02*
X51428572Y3179522D01*
X51428572Y3179522D02*
X51276191Y3179522D01*
X51771429Y2836665D02*
X51771429Y3636665D01*
X51771429Y3636665D02*
X52228572Y2836665D01*
X52228572Y2836665D02*
X52228572Y3636665D01*
X52609524Y2836665D02*
X52609524Y3636665D01*
X52609524Y3636665D02*
X52800000Y3636665D01*
X52800000Y3636665D02*
X52914286Y3598570D01*
X52914286Y3598570D02*
X52990476Y3522380D01*
X52990476Y3522380D02*
X53028571Y3446189D01*
X53028571Y3446189D02*
X53066667Y3293808D01*
X53066667Y3293808D02*
X53066667Y3179522D01*
X53066667Y3179522D02*
X53028571Y3027141D01*
X53028571Y3027141D02*
X52990476Y2950951D01*
X52990476Y2950951D02*
X52914286Y2874760D01*
X52914286Y2874760D02*
X52800000Y2836665D01*
X52800000Y2836665D02*
X52609524Y2836665D01*
X54406667Y2836665D02*
X54140000Y3217618D01*
X53949524Y2836665D02*
X53949524Y3636665D01*
X53949524Y3636665D02*
X54254286Y3636665D01*
X54254286Y3636665D02*
X54330476Y3598570D01*
X54330476Y3598570D02*
X54368571Y3560475D01*
X54368571Y3560475D02*
X54406667Y3484284D01*
X54406667Y3484284D02*
X54406667Y3369999D01*
X54406667Y3369999D02*
X54368571Y3293808D01*
X54368571Y3293808D02*
X54330476Y3255713D01*
X54330476Y3255713D02*
X54254286Y3217618D01*
X54254286Y3217618D02*
X53949524Y3217618D01*
X54673333Y3636665D02*
X55206667Y2836665D01*
X55206667Y3636665D02*
X54673333Y2836665D01*
X56470476Y3636665D02*
X56927619Y3636665D01*
X56699047Y2836665D02*
X56699047Y3636665D01*
X57118095Y3636665D02*
X57651429Y2836665D01*
X57651429Y3636665D02*
X57118095Y2836665D01*
X29765476Y19113533D02*
X29482142Y19518295D01*
X29279761Y19113533D02*
X29279761Y19963533D01*
X29279761Y19963533D02*
X29603571Y19963533D01*
X29603571Y19963533D02*
X29684523Y19923057D01*
X29684523Y19923057D02*
X29725000Y19882581D01*
X29725000Y19882581D02*
X29765476Y19801629D01*
X29765476Y19801629D02*
X29765476Y19680200D01*
X29765476Y19680200D02*
X29725000Y19599248D01*
X29725000Y19599248D02*
X29684523Y19558771D01*
X29684523Y19558771D02*
X29603571Y19518295D01*
X29603571Y19518295D02*
X29279761Y19518295D01*
X30129761Y19558771D02*
X30413095Y19558771D01*
X30534523Y19113533D02*
X30129761Y19113533D01*
X30129761Y19113533D02*
X30129761Y19963533D01*
X30129761Y19963533D02*
X30534523Y19963533D01*
X30858333Y19154009D02*
X30979762Y19113533D01*
X30979762Y19113533D02*
X31182143Y19113533D01*
X31182143Y19113533D02*
X31263095Y19154009D01*
X31263095Y19154009D02*
X31303571Y19194486D01*
X31303571Y19194486D02*
X31344048Y19275438D01*
X31344048Y19275438D02*
X31344048Y19356390D01*
X31344048Y19356390D02*
X31303571Y19437343D01*
X31303571Y19437343D02*
X31263095Y19477819D01*
X31263095Y19477819D02*
X31182143Y19518295D01*
X31182143Y19518295D02*
X31020238Y19558771D01*
X31020238Y19558771D02*
X30939286Y19599248D01*
X30939286Y19599248D02*
X30898809Y19639724D01*
X30898809Y19639724D02*
X30858333Y19720676D01*
X30858333Y19720676D02*
X30858333Y19801629D01*
X30858333Y19801629D02*
X30898809Y19882581D01*
X30898809Y19882581D02*
X30939286Y19923057D01*
X30939286Y19923057D02*
X31020238Y19963533D01*
X31020238Y19963533D02*
X31222619Y19963533D01*
X31222619Y19963533D02*
X31344048Y19923057D01*
X31708333Y19558771D02*
X31991667Y19558771D01*
X32113095Y19113533D02*
X31708333Y19113533D01*
X31708333Y19113533D02*
X31708333Y19963533D01*
X31708333Y19963533D02*
X32113095Y19963533D01*
X32355953Y19963533D02*
X32841667Y19963533D01*
X32598810Y19113533D02*
X32598810Y19963533D01*
X40846429Y19558771D02*
X40967857Y19518295D01*
X40967857Y19518295D02*
X41008334Y19477819D01*
X41008334Y19477819D02*
X41048810Y19396867D01*
X41048810Y19396867D02*
X41048810Y19275438D01*
X41048810Y19275438D02*
X41008334Y19194486D01*
X41008334Y19194486D02*
X40967857Y19154009D01*
X40967857Y19154009D02*
X40886905Y19113533D01*
X40886905Y19113533D02*
X40563095Y19113533D01*
X40563095Y19113533D02*
X40563095Y19963533D01*
X40563095Y19963533D02*
X40846429Y19963533D01*
X40846429Y19963533D02*
X40927381Y19923057D01*
X40927381Y19923057D02*
X40967857Y19882581D01*
X40967857Y19882581D02*
X41008334Y19801629D01*
X41008334Y19801629D02*
X41008334Y19720676D01*
X41008334Y19720676D02*
X40967857Y19639724D01*
X40967857Y19639724D02*
X40927381Y19599248D01*
X40927381Y19599248D02*
X40846429Y19558771D01*
X40846429Y19558771D02*
X40563095Y19558771D01*
X41575000Y19963533D02*
X41736905Y19963533D01*
X41736905Y19963533D02*
X41817857Y19923057D01*
X41817857Y19923057D02*
X41898810Y19842105D01*
X41898810Y19842105D02*
X41939286Y19680200D01*
X41939286Y19680200D02*
X41939286Y19396867D01*
X41939286Y19396867D02*
X41898810Y19234962D01*
X41898810Y19234962D02*
X41817857Y19154009D01*
X41817857Y19154009D02*
X41736905Y19113533D01*
X41736905Y19113533D02*
X41575000Y19113533D01*
X41575000Y19113533D02*
X41494048Y19154009D01*
X41494048Y19154009D02*
X41413095Y19234962D01*
X41413095Y19234962D02*
X41372619Y19396867D01*
X41372619Y19396867D02*
X41372619Y19680200D01*
X41372619Y19680200D02*
X41413095Y19842105D01*
X41413095Y19842105D02*
X41494048Y19923057D01*
X41494048Y19923057D02*
X41575000Y19963533D01*
X42465476Y19963533D02*
X42627381Y19963533D01*
X42627381Y19963533D02*
X42708333Y19923057D01*
X42708333Y19923057D02*
X42789286Y19842105D01*
X42789286Y19842105D02*
X42829762Y19680200D01*
X42829762Y19680200D02*
X42829762Y19396867D01*
X42829762Y19396867D02*
X42789286Y19234962D01*
X42789286Y19234962D02*
X42708333Y19154009D01*
X42708333Y19154009D02*
X42627381Y19113533D01*
X42627381Y19113533D02*
X42465476Y19113533D01*
X42465476Y19113533D02*
X42384524Y19154009D01*
X42384524Y19154009D02*
X42303571Y19234962D01*
X42303571Y19234962D02*
X42263095Y19396867D01*
X42263095Y19396867D02*
X42263095Y19680200D01*
X42263095Y19680200D02*
X42303571Y19842105D01*
X42303571Y19842105D02*
X42384524Y19923057D01*
X42384524Y19923057D02*
X42465476Y19963533D01*
X43072619Y19963533D02*
X43558333Y19963533D01*
X43315476Y19113533D02*
X43315476Y19963533D01*
X51686428Y1463533D02*
X51686428Y775438D01*
X51686428Y775438D02*
X51726905Y694486D01*
X51726905Y694486D02*
X51767381Y654009D01*
X51767381Y654009D02*
X51848333Y613533D01*
X51848333Y613533D02*
X52010238Y613533D01*
X52010238Y613533D02*
X52091190Y654009D01*
X52091190Y654009D02*
X52131667Y694486D01*
X52131667Y694486D02*
X52172143Y775438D01*
X52172143Y775438D02*
X52172143Y1463533D01*
X52536428Y856390D02*
X52941190Y856390D01*
X52455476Y613533D02*
X52738809Y1463533D01*
X52738809Y1463533D02*
X53022143Y613533D01*
X53791190Y613533D02*
X53507856Y1018295D01*
X53305475Y613533D02*
X53305475Y1463533D01*
X53305475Y1463533D02*
X53629285Y1463533D01*
X53629285Y1463533D02*
X53710237Y1423057D01*
X53710237Y1423057D02*
X53750714Y1382581D01*
X53750714Y1382581D02*
X53791190Y1301629D01*
X53791190Y1301629D02*
X53791190Y1180200D01*
X53791190Y1180200D02*
X53750714Y1099248D01*
X53750714Y1099248D02*
X53710237Y1058771D01*
X53710237Y1058771D02*
X53629285Y1018295D01*
X53629285Y1018295D02*
X53305475Y1018295D01*
X54034047Y1463533D02*
X54519761Y1463533D01*
X54276904Y613533D02*
X54276904Y1463533D01*
X55369761Y1463533D02*
X55895952Y1463533D01*
X55895952Y1463533D02*
X55612618Y1139724D01*
X55612618Y1139724D02*
X55734047Y1139724D01*
X55734047Y1139724D02*
X55814999Y1099248D01*
X55814999Y1099248D02*
X55855475Y1058771D01*
X55855475Y1058771D02*
X55895952Y977819D01*
X55895952Y977819D02*
X55895952Y775438D01*
X55895952Y775438D02*
X55855475Y694486D01*
X55855475Y694486D02*
X55814999Y654009D01*
X55814999Y654009D02*
X55734047Y613533D01*
X55734047Y613533D02*
X55491190Y613533D01*
X55491190Y613533D02*
X55410237Y654009D01*
X55410237Y654009D02*
X55369761Y694486D01*
X56138809Y1463533D02*
X56422142Y613533D01*
X56422142Y613533D02*
X56705476Y1463533D01*
X56907856Y1463533D02*
X57434047Y1463533D01*
X57434047Y1463533D02*
X57150713Y1139724D01*
X57150713Y1139724D02*
X57272142Y1139724D01*
X57272142Y1139724D02*
X57353094Y1099248D01*
X57353094Y1099248D02*
X57393570Y1058771D01*
X57393570Y1058771D02*
X57434047Y977819D01*
X57434047Y977819D02*
X57434047Y775438D01*
X57434047Y775438D02*
X57393570Y694486D01*
X57393570Y694486D02*
X57353094Y654009D01*
X57353094Y654009D02*
X57272142Y613533D01*
X57272142Y613533D02*
X57029285Y613533D01*
X57029285Y613533D02*
X56948332Y654009D01*
X56948332Y654009D02*
X56907856Y694486D01*
X8516667Y47497880D02*
X7992857Y47497880D01*
X7992857Y47497880D02*
X7992857Y48597880D01*
X8883333Y48074070D02*
X9250000Y48074070D01*
X9407143Y47497880D02*
X8883333Y47497880D01*
X8883333Y47497880D02*
X8883333Y48597880D01*
X8883333Y48597880D02*
X9407143Y48597880D01*
X9826190Y47812165D02*
X10350000Y47812165D01*
X9721428Y47497880D02*
X10088095Y48597880D01*
X10088095Y48597880D02*
X10454762Y47497880D01*
X11188095Y48074070D02*
X10821428Y48074070D01*
X10821428Y47497880D02*
X10821428Y48597880D01*
X10821428Y48597880D02*
X11345238Y48597880D01*
X12602380Y47497880D02*
X12602380Y48597880D01*
X12602380Y48074070D02*
X13230952Y48074070D01*
X13230952Y47497880D02*
X13230952Y48597880D01*
X13754761Y48074070D02*
X14121428Y48074070D01*
X14278571Y47497880D02*
X13754761Y47497880D01*
X13754761Y47497880D02*
X13754761Y48597880D01*
X13754761Y48597880D02*
X14278571Y48597880D01*
X14697618Y47812165D02*
X15221428Y47812165D01*
X14592856Y47497880D02*
X14959523Y48597880D01*
X14959523Y48597880D02*
X15326190Y47497880D01*
X15535713Y48597880D02*
X16164285Y48597880D01*
X15849999Y47497880D02*
X15849999Y48597880D01*
D11*
X26366667Y38982336D02*
X26328571Y38944240D01*
X26328571Y38944240D02*
X26214286Y38906145D01*
X26214286Y38906145D02*
X26138095Y38906145D01*
X26138095Y38906145D02*
X26023809Y38944240D01*
X26023809Y38944240D02*
X25947619Y39020431D01*
X25947619Y39020431D02*
X25909524Y39096621D01*
X25909524Y39096621D02*
X25871428Y39249002D01*
X25871428Y39249002D02*
X25871428Y39363288D01*
X25871428Y39363288D02*
X25909524Y39515669D01*
X25909524Y39515669D02*
X25947619Y39591860D01*
X25947619Y39591860D02*
X26023809Y39668050D01*
X26023809Y39668050D02*
X26138095Y39706145D01*
X26138095Y39706145D02*
X26214286Y39706145D01*
X26214286Y39706145D02*
X26328571Y39668050D01*
X26328571Y39668050D02*
X26366667Y39629955D01*
X27052381Y39439479D02*
X27052381Y38906145D01*
X26861905Y39744240D02*
X26671428Y39172812D01*
X26671428Y39172812D02*
X27166667Y39172812D01*
X20409524Y25636145D02*
X20409524Y26436145D01*
X20409524Y26436145D02*
X20600000Y26436145D01*
X20600000Y26436145D02*
X20714286Y26398050D01*
X20714286Y26398050D02*
X20790476Y26321860D01*
X20790476Y26321860D02*
X20828571Y26245669D01*
X20828571Y26245669D02*
X20866667Y26093288D01*
X20866667Y26093288D02*
X20866667Y25979002D01*
X20866667Y25979002D02*
X20828571Y25826621D01*
X20828571Y25826621D02*
X20790476Y25750431D01*
X20790476Y25750431D02*
X20714286Y25674240D01*
X20714286Y25674240D02*
X20600000Y25636145D01*
X20600000Y25636145D02*
X20409524Y25636145D01*
X21628571Y25636145D02*
X21171428Y25636145D01*
X21400000Y25636145D02*
X21400000Y26436145D01*
X21400000Y26436145D02*
X21323809Y26321860D01*
X21323809Y26321860D02*
X21247619Y26245669D01*
X21247619Y26245669D02*
X21171428Y26207574D01*
X38409524Y31636145D02*
X38409524Y32436145D01*
X38409524Y32436145D02*
X38600000Y32436145D01*
X38600000Y32436145D02*
X38714286Y32398050D01*
X38714286Y32398050D02*
X38790476Y32321860D01*
X38790476Y32321860D02*
X38828571Y32245669D01*
X38828571Y32245669D02*
X38866667Y32093288D01*
X38866667Y32093288D02*
X38866667Y31979002D01*
X38866667Y31979002D02*
X38828571Y31826621D01*
X38828571Y31826621D02*
X38790476Y31750431D01*
X38790476Y31750431D02*
X38714286Y31674240D01*
X38714286Y31674240D02*
X38600000Y31636145D01*
X38600000Y31636145D02*
X38409524Y31636145D01*
X39552381Y32436145D02*
X39400000Y32436145D01*
X39400000Y32436145D02*
X39323809Y32398050D01*
X39323809Y32398050D02*
X39285714Y32359955D01*
X39285714Y32359955D02*
X39209524Y32245669D01*
X39209524Y32245669D02*
X39171428Y32093288D01*
X39171428Y32093288D02*
X39171428Y31788526D01*
X39171428Y31788526D02*
X39209524Y31712336D01*
X39209524Y31712336D02*
X39247619Y31674240D01*
X39247619Y31674240D02*
X39323809Y31636145D01*
X39323809Y31636145D02*
X39476190Y31636145D01*
X39476190Y31636145D02*
X39552381Y31674240D01*
X39552381Y31674240D02*
X39590476Y31712336D01*
X39590476Y31712336D02*
X39628571Y31788526D01*
X39628571Y31788526D02*
X39628571Y31979002D01*
X39628571Y31979002D02*
X39590476Y32055193D01*
X39590476Y32055193D02*
X39552381Y32093288D01*
X39552381Y32093288D02*
X39476190Y32131383D01*
X39476190Y32131383D02*
X39323809Y32131383D01*
X39323809Y32131383D02*
X39247619Y32093288D01*
X39247619Y32093288D02*
X39209524Y32055193D01*
X39209524Y32055193D02*
X39171428Y31979002D01*
X59285714Y40036145D02*
X59019047Y40417098D01*
X58828571Y40036145D02*
X58828571Y40836145D01*
X58828571Y40836145D02*
X59133333Y40836145D01*
X59133333Y40836145D02*
X59209523Y40798050D01*
X59209523Y40798050D02*
X59247618Y40759955D01*
X59247618Y40759955D02*
X59285714Y40683764D01*
X59285714Y40683764D02*
X59285714Y40569479D01*
X59285714Y40569479D02*
X59247618Y40493288D01*
X59247618Y40493288D02*
X59209523Y40455193D01*
X59209523Y40455193D02*
X59133333Y40417098D01*
X59133333Y40417098D02*
X58828571Y40417098D01*
X60047618Y40036145D02*
X59590475Y40036145D01*
X59819047Y40036145D02*
X59819047Y40836145D01*
X59819047Y40836145D02*
X59742856Y40721860D01*
X59742856Y40721860D02*
X59666666Y40645669D01*
X59666666Y40645669D02*
X59590475Y40607574D01*
X60504761Y40493288D02*
X60428571Y40531383D01*
X60428571Y40531383D02*
X60390476Y40569479D01*
X60390476Y40569479D02*
X60352380Y40645669D01*
X60352380Y40645669D02*
X60352380Y40683764D01*
X60352380Y40683764D02*
X60390476Y40759955D01*
X60390476Y40759955D02*
X60428571Y40798050D01*
X60428571Y40798050D02*
X60504761Y40836145D01*
X60504761Y40836145D02*
X60657142Y40836145D01*
X60657142Y40836145D02*
X60733333Y40798050D01*
X60733333Y40798050D02*
X60771428Y40759955D01*
X60771428Y40759955D02*
X60809523Y40683764D01*
X60809523Y40683764D02*
X60809523Y40645669D01*
X60809523Y40645669D02*
X60771428Y40569479D01*
X60771428Y40569479D02*
X60733333Y40531383D01*
X60733333Y40531383D02*
X60657142Y40493288D01*
X60657142Y40493288D02*
X60504761Y40493288D01*
X60504761Y40493288D02*
X60428571Y40455193D01*
X60428571Y40455193D02*
X60390476Y40417098D01*
X60390476Y40417098D02*
X60352380Y40340907D01*
X60352380Y40340907D02*
X60352380Y40188526D01*
X60352380Y40188526D02*
X60390476Y40112336D01*
X60390476Y40112336D02*
X60428571Y40074240D01*
X60428571Y40074240D02*
X60504761Y40036145D01*
X60504761Y40036145D02*
X60657142Y40036145D01*
X60657142Y40036145D02*
X60733333Y40074240D01*
X60733333Y40074240D02*
X60771428Y40112336D01*
X60771428Y40112336D02*
X60809523Y40188526D01*
X60809523Y40188526D02*
X60809523Y40340907D01*
X60809523Y40340907D02*
X60771428Y40417098D01*
X60771428Y40417098D02*
X60733333Y40455193D01*
X60733333Y40455193D02*
X60657142Y40493288D01*
X58390476Y10436145D02*
X58390476Y9788526D01*
X58390476Y9788526D02*
X58428571Y9712336D01*
X58428571Y9712336D02*
X58466666Y9674240D01*
X58466666Y9674240D02*
X58542857Y9636145D01*
X58542857Y9636145D02*
X58695238Y9636145D01*
X58695238Y9636145D02*
X58771428Y9674240D01*
X58771428Y9674240D02*
X58809523Y9712336D01*
X58809523Y9712336D02*
X58847619Y9788526D01*
X58847619Y9788526D02*
X58847619Y10436145D01*
X59571428Y10169479D02*
X59571428Y9636145D01*
X59380952Y10474240D02*
X59190475Y9902812D01*
X59190475Y9902812D02*
X59685714Y9902812D01*
X24166667Y32136145D02*
X23900000Y32517098D01*
X23709524Y32136145D02*
X23709524Y32936145D01*
X23709524Y32936145D02*
X24014286Y32936145D01*
X24014286Y32936145D02*
X24090476Y32898050D01*
X24090476Y32898050D02*
X24128571Y32859955D01*
X24128571Y32859955D02*
X24166667Y32783764D01*
X24166667Y32783764D02*
X24166667Y32669479D01*
X24166667Y32669479D02*
X24128571Y32593288D01*
X24128571Y32593288D02*
X24090476Y32555193D01*
X24090476Y32555193D02*
X24014286Y32517098D01*
X24014286Y32517098D02*
X23709524Y32517098D01*
X24471428Y32859955D02*
X24509524Y32898050D01*
X24509524Y32898050D02*
X24585714Y32936145D01*
X24585714Y32936145D02*
X24776190Y32936145D01*
X24776190Y32936145D02*
X24852381Y32898050D01*
X24852381Y32898050D02*
X24890476Y32859955D01*
X24890476Y32859955D02*
X24928571Y32783764D01*
X24928571Y32783764D02*
X24928571Y32707574D01*
X24928571Y32707574D02*
X24890476Y32593288D01*
X24890476Y32593288D02*
X24433333Y32136145D01*
X24433333Y32136145D02*
X24928571Y32136145D01*
X19985714Y22636145D02*
X19719047Y23017098D01*
X19528571Y22636145D02*
X19528571Y23436145D01*
X19528571Y23436145D02*
X19833333Y23436145D01*
X19833333Y23436145D02*
X19909523Y23398050D01*
X19909523Y23398050D02*
X19947618Y23359955D01*
X19947618Y23359955D02*
X19985714Y23283764D01*
X19985714Y23283764D02*
X19985714Y23169479D01*
X19985714Y23169479D02*
X19947618Y23093288D01*
X19947618Y23093288D02*
X19909523Y23055193D01*
X19909523Y23055193D02*
X19833333Y23017098D01*
X19833333Y23017098D02*
X19528571Y23017098D01*
X20747618Y22636145D02*
X20290475Y22636145D01*
X20519047Y22636145D02*
X20519047Y23436145D01*
X20519047Y23436145D02*
X20442856Y23321860D01*
X20442856Y23321860D02*
X20366666Y23245669D01*
X20366666Y23245669D02*
X20290475Y23207574D01*
X21242857Y23436145D02*
X21319047Y23436145D01*
X21319047Y23436145D02*
X21395238Y23398050D01*
X21395238Y23398050D02*
X21433333Y23359955D01*
X21433333Y23359955D02*
X21471428Y23283764D01*
X21471428Y23283764D02*
X21509523Y23131383D01*
X21509523Y23131383D02*
X21509523Y22940907D01*
X21509523Y22940907D02*
X21471428Y22788526D01*
X21471428Y22788526D02*
X21433333Y22712336D01*
X21433333Y22712336D02*
X21395238Y22674240D01*
X21395238Y22674240D02*
X21319047Y22636145D01*
X21319047Y22636145D02*
X21242857Y22636145D01*
X21242857Y22636145D02*
X21166666Y22674240D01*
X21166666Y22674240D02*
X21128571Y22712336D01*
X21128571Y22712336D02*
X21090476Y22788526D01*
X21090476Y22788526D02*
X21052380Y22940907D01*
X21052380Y22940907D02*
X21052380Y23131383D01*
X21052380Y23131383D02*
X21090476Y23283764D01*
X21090476Y23283764D02*
X21128571Y23359955D01*
X21128571Y23359955D02*
X21166666Y23398050D01*
X21166666Y23398050D02*
X21242857Y23436145D01*
X49233333Y6436145D02*
X49233333Y5864717D01*
X49233333Y5864717D02*
X49195238Y5750431D01*
X49195238Y5750431D02*
X49119047Y5674240D01*
X49119047Y5674240D02*
X49004762Y5636145D01*
X49004762Y5636145D02*
X48928571Y5636145D01*
X49538095Y6436145D02*
X50033333Y6436145D01*
X50033333Y6436145D02*
X49766667Y6131383D01*
X49766667Y6131383D02*
X49880952Y6131383D01*
X49880952Y6131383D02*
X49957143Y6093288D01*
X49957143Y6093288D02*
X49995238Y6055193D01*
X49995238Y6055193D02*
X50033333Y5979002D01*
X50033333Y5979002D02*
X50033333Y5788526D01*
X50033333Y5788526D02*
X49995238Y5712336D01*
X49995238Y5712336D02*
X49957143Y5674240D01*
X49957143Y5674240D02*
X49880952Y5636145D01*
X49880952Y5636145D02*
X49652381Y5636145D01*
X49652381Y5636145D02*
X49576190Y5674240D01*
X49576190Y5674240D02*
X49538095Y5712336D01*
X6733333Y15436145D02*
X6733333Y14864717D01*
X6733333Y14864717D02*
X6695238Y14750431D01*
X6695238Y14750431D02*
X6619047Y14674240D01*
X6619047Y14674240D02*
X6504762Y14636145D01*
X6504762Y14636145D02*
X6428571Y14636145D01*
X7533333Y14636145D02*
X7076190Y14636145D01*
X7304762Y14636145D02*
X7304762Y15436145D01*
X7304762Y15436145D02*
X7228571Y15321860D01*
X7228571Y15321860D02*
X7152381Y15245669D01*
X7152381Y15245669D02*
X7076190Y15207574D01*
X58866667Y42136145D02*
X58600000Y42517098D01*
X58409524Y42136145D02*
X58409524Y42936145D01*
X58409524Y42936145D02*
X58714286Y42936145D01*
X58714286Y42936145D02*
X58790476Y42898050D01*
X58790476Y42898050D02*
X58828571Y42859955D01*
X58828571Y42859955D02*
X58866667Y42783764D01*
X58866667Y42783764D02*
X58866667Y42669479D01*
X58866667Y42669479D02*
X58828571Y42593288D01*
X58828571Y42593288D02*
X58790476Y42555193D01*
X58790476Y42555193D02*
X58714286Y42517098D01*
X58714286Y42517098D02*
X58409524Y42517098D01*
X59552381Y42669479D02*
X59552381Y42136145D01*
X59361905Y42974240D02*
X59171428Y42402812D01*
X59171428Y42402812D02*
X59666667Y42402812D01*
X31366667Y33212336D02*
X31328571Y33174240D01*
X31328571Y33174240D02*
X31214286Y33136145D01*
X31214286Y33136145D02*
X31138095Y33136145D01*
X31138095Y33136145D02*
X31023809Y33174240D01*
X31023809Y33174240D02*
X30947619Y33250431D01*
X30947619Y33250431D02*
X30909524Y33326621D01*
X30909524Y33326621D02*
X30871428Y33479002D01*
X30871428Y33479002D02*
X30871428Y33593288D01*
X30871428Y33593288D02*
X30909524Y33745669D01*
X30909524Y33745669D02*
X30947619Y33821860D01*
X30947619Y33821860D02*
X31023809Y33898050D01*
X31023809Y33898050D02*
X31138095Y33936145D01*
X31138095Y33936145D02*
X31214286Y33936145D01*
X31214286Y33936145D02*
X31328571Y33898050D01*
X31328571Y33898050D02*
X31366667Y33859955D01*
X32052381Y33936145D02*
X31900000Y33936145D01*
X31900000Y33936145D02*
X31823809Y33898050D01*
X31823809Y33898050D02*
X31785714Y33859955D01*
X31785714Y33859955D02*
X31709524Y33745669D01*
X31709524Y33745669D02*
X31671428Y33593288D01*
X31671428Y33593288D02*
X31671428Y33288526D01*
X31671428Y33288526D02*
X31709524Y33212336D01*
X31709524Y33212336D02*
X31747619Y33174240D01*
X31747619Y33174240D02*
X31823809Y33136145D01*
X31823809Y33136145D02*
X31976190Y33136145D01*
X31976190Y33136145D02*
X32052381Y33174240D01*
X32052381Y33174240D02*
X32090476Y33212336D01*
X32090476Y33212336D02*
X32128571Y33288526D01*
X32128571Y33288526D02*
X32128571Y33479002D01*
X32128571Y33479002D02*
X32090476Y33555193D01*
X32090476Y33555193D02*
X32052381Y33593288D01*
X32052381Y33593288D02*
X31976190Y33631383D01*
X31976190Y33631383D02*
X31823809Y33631383D01*
X31823809Y33631383D02*
X31747619Y33593288D01*
X31747619Y33593288D02*
X31709524Y33555193D01*
X31709524Y33555193D02*
X31671428Y33479002D01*
X20366666Y44136145D02*
X19985714Y44136145D01*
X19985714Y44136145D02*
X19985714Y44936145D01*
X21052380Y44136145D02*
X20595237Y44136145D01*
X20823809Y44136145D02*
X20823809Y44936145D01*
X20823809Y44936145D02*
X20747618Y44821860D01*
X20747618Y44821860D02*
X20671428Y44745669D01*
X20671428Y44745669D02*
X20595237Y44707574D01*
X61485714Y40912336D02*
X61447618Y40874240D01*
X61447618Y40874240D02*
X61333333Y40836145D01*
X61333333Y40836145D02*
X61257142Y40836145D01*
X61257142Y40836145D02*
X61142856Y40874240D01*
X61142856Y40874240D02*
X61066666Y40950431D01*
X61066666Y40950431D02*
X61028571Y41026621D01*
X61028571Y41026621D02*
X60990475Y41179002D01*
X60990475Y41179002D02*
X60990475Y41293288D01*
X60990475Y41293288D02*
X61028571Y41445669D01*
X61028571Y41445669D02*
X61066666Y41521860D01*
X61066666Y41521860D02*
X61142856Y41598050D01*
X61142856Y41598050D02*
X61257142Y41636145D01*
X61257142Y41636145D02*
X61333333Y41636145D01*
X61333333Y41636145D02*
X61447618Y41598050D01*
X61447618Y41598050D02*
X61485714Y41559955D01*
X62247618Y40836145D02*
X61790475Y40836145D01*
X62019047Y40836145D02*
X62019047Y41636145D01*
X62019047Y41636145D02*
X61942856Y41521860D01*
X61942856Y41521860D02*
X61866666Y41445669D01*
X61866666Y41445669D02*
X61790475Y41407574D01*
X63009523Y40836145D02*
X62552380Y40836145D01*
X62780952Y40836145D02*
X62780952Y41636145D01*
X62780952Y41636145D02*
X62704761Y41521860D01*
X62704761Y41521860D02*
X62628571Y41445669D01*
X62628571Y41445669D02*
X62552380Y41407574D01*
X7366667Y37712336D02*
X7328571Y37674240D01*
X7328571Y37674240D02*
X7214286Y37636145D01*
X7214286Y37636145D02*
X7138095Y37636145D01*
X7138095Y37636145D02*
X7023809Y37674240D01*
X7023809Y37674240D02*
X6947619Y37750431D01*
X6947619Y37750431D02*
X6909524Y37826621D01*
X6909524Y37826621D02*
X6871428Y37979002D01*
X6871428Y37979002D02*
X6871428Y38093288D01*
X6871428Y38093288D02*
X6909524Y38245669D01*
X6909524Y38245669D02*
X6947619Y38321860D01*
X6947619Y38321860D02*
X7023809Y38398050D01*
X7023809Y38398050D02*
X7138095Y38436145D01*
X7138095Y38436145D02*
X7214286Y38436145D01*
X7214286Y38436145D02*
X7328571Y38398050D01*
X7328571Y38398050D02*
X7366667Y38359955D01*
X8128571Y37636145D02*
X7671428Y37636145D01*
X7900000Y37636145D02*
X7900000Y38436145D01*
X7900000Y38436145D02*
X7823809Y38321860D01*
X7823809Y38321860D02*
X7747619Y38245669D01*
X7747619Y38245669D02*
X7671428Y38207574D01*
X41366667Y47512336D02*
X41328571Y47474240D01*
X41328571Y47474240D02*
X41214286Y47436145D01*
X41214286Y47436145D02*
X41138095Y47436145D01*
X41138095Y47436145D02*
X41023809Y47474240D01*
X41023809Y47474240D02*
X40947619Y47550431D01*
X40947619Y47550431D02*
X40909524Y47626621D01*
X40909524Y47626621D02*
X40871428Y47779002D01*
X40871428Y47779002D02*
X40871428Y47893288D01*
X40871428Y47893288D02*
X40909524Y48045669D01*
X40909524Y48045669D02*
X40947619Y48121860D01*
X40947619Y48121860D02*
X41023809Y48198050D01*
X41023809Y48198050D02*
X41138095Y48236145D01*
X41138095Y48236145D02*
X41214286Y48236145D01*
X41214286Y48236145D02*
X41328571Y48198050D01*
X41328571Y48198050D02*
X41366667Y48159955D01*
X41747619Y47436145D02*
X41900000Y47436145D01*
X41900000Y47436145D02*
X41976190Y47474240D01*
X41976190Y47474240D02*
X42014286Y47512336D01*
X42014286Y47512336D02*
X42090476Y47626621D01*
X42090476Y47626621D02*
X42128571Y47779002D01*
X42128571Y47779002D02*
X42128571Y48083764D01*
X42128571Y48083764D02*
X42090476Y48159955D01*
X42090476Y48159955D02*
X42052381Y48198050D01*
X42052381Y48198050D02*
X41976190Y48236145D01*
X41976190Y48236145D02*
X41823809Y48236145D01*
X41823809Y48236145D02*
X41747619Y48198050D01*
X41747619Y48198050D02*
X41709524Y48159955D01*
X41709524Y48159955D02*
X41671428Y48083764D01*
X41671428Y48083764D02*
X41671428Y47893288D01*
X41671428Y47893288D02*
X41709524Y47817098D01*
X41709524Y47817098D02*
X41747619Y47779002D01*
X41747619Y47779002D02*
X41823809Y47740907D01*
X41823809Y47740907D02*
X41976190Y47740907D01*
X41976190Y47740907D02*
X42052381Y47779002D01*
X42052381Y47779002D02*
X42090476Y47817098D01*
X42090476Y47817098D02*
X42128571Y47893288D01*
X34866667Y31636145D02*
X34600000Y32017098D01*
X34409524Y31636145D02*
X34409524Y32436145D01*
X34409524Y32436145D02*
X34714286Y32436145D01*
X34714286Y32436145D02*
X34790476Y32398050D01*
X34790476Y32398050D02*
X34828571Y32359955D01*
X34828571Y32359955D02*
X34866667Y32283764D01*
X34866667Y32283764D02*
X34866667Y32169479D01*
X34866667Y32169479D02*
X34828571Y32093288D01*
X34828571Y32093288D02*
X34790476Y32055193D01*
X34790476Y32055193D02*
X34714286Y32017098D01*
X34714286Y32017098D02*
X34409524Y32017098D01*
X35247619Y31636145D02*
X35400000Y31636145D01*
X35400000Y31636145D02*
X35476190Y31674240D01*
X35476190Y31674240D02*
X35514286Y31712336D01*
X35514286Y31712336D02*
X35590476Y31826621D01*
X35590476Y31826621D02*
X35628571Y31979002D01*
X35628571Y31979002D02*
X35628571Y32283764D01*
X35628571Y32283764D02*
X35590476Y32359955D01*
X35590476Y32359955D02*
X35552381Y32398050D01*
X35552381Y32398050D02*
X35476190Y32436145D01*
X35476190Y32436145D02*
X35323809Y32436145D01*
X35323809Y32436145D02*
X35247619Y32398050D01*
X35247619Y32398050D02*
X35209524Y32359955D01*
X35209524Y32359955D02*
X35171428Y32283764D01*
X35171428Y32283764D02*
X35171428Y32093288D01*
X35171428Y32093288D02*
X35209524Y32017098D01*
X35209524Y32017098D02*
X35247619Y31979002D01*
X35247619Y31979002D02*
X35323809Y31940907D01*
X35323809Y31940907D02*
X35476190Y31940907D01*
X35476190Y31940907D02*
X35552381Y31979002D01*
X35552381Y31979002D02*
X35590476Y32017098D01*
X35590476Y32017098D02*
X35628571Y32093288D01*
X59785714Y34436145D02*
X59519047Y34817098D01*
X59328571Y34436145D02*
X59328571Y35236145D01*
X59328571Y35236145D02*
X59633333Y35236145D01*
X59633333Y35236145D02*
X59709523Y35198050D01*
X59709523Y35198050D02*
X59747618Y35159955D01*
X59747618Y35159955D02*
X59785714Y35083764D01*
X59785714Y35083764D02*
X59785714Y34969479D01*
X59785714Y34969479D02*
X59747618Y34893288D01*
X59747618Y34893288D02*
X59709523Y34855193D01*
X59709523Y34855193D02*
X59633333Y34817098D01*
X59633333Y34817098D02*
X59328571Y34817098D01*
X60547618Y34436145D02*
X60090475Y34436145D01*
X60319047Y34436145D02*
X60319047Y35236145D01*
X60319047Y35236145D02*
X60242856Y35121860D01*
X60242856Y35121860D02*
X60166666Y35045669D01*
X60166666Y35045669D02*
X60090475Y35007574D01*
X60928571Y34436145D02*
X61080952Y34436145D01*
X61080952Y34436145D02*
X61157142Y34474240D01*
X61157142Y34474240D02*
X61195238Y34512336D01*
X61195238Y34512336D02*
X61271428Y34626621D01*
X61271428Y34626621D02*
X61309523Y34779002D01*
X61309523Y34779002D02*
X61309523Y35083764D01*
X61309523Y35083764D02*
X61271428Y35159955D01*
X61271428Y35159955D02*
X61233333Y35198050D01*
X61233333Y35198050D02*
X61157142Y35236145D01*
X61157142Y35236145D02*
X61004761Y35236145D01*
X61004761Y35236145D02*
X60928571Y35198050D01*
X60928571Y35198050D02*
X60890476Y35159955D01*
X60890476Y35159955D02*
X60852380Y35083764D01*
X60852380Y35083764D02*
X60852380Y34893288D01*
X60852380Y34893288D02*
X60890476Y34817098D01*
X60890476Y34817098D02*
X60928571Y34779002D01*
X60928571Y34779002D02*
X61004761Y34740907D01*
X61004761Y34740907D02*
X61157142Y34740907D01*
X61157142Y34740907D02*
X61233333Y34779002D01*
X61233333Y34779002D02*
X61271428Y34817098D01*
X61271428Y34817098D02*
X61309523Y34893288D01*
X28916667Y33762336D02*
X28878571Y33724240D01*
X28878571Y33724240D02*
X28764286Y33686145D01*
X28764286Y33686145D02*
X28688095Y33686145D01*
X28688095Y33686145D02*
X28573809Y33724240D01*
X28573809Y33724240D02*
X28497619Y33800431D01*
X28497619Y33800431D02*
X28459524Y33876621D01*
X28459524Y33876621D02*
X28421428Y34029002D01*
X28421428Y34029002D02*
X28421428Y34143288D01*
X28421428Y34143288D02*
X28459524Y34295669D01*
X28459524Y34295669D02*
X28497619Y34371860D01*
X28497619Y34371860D02*
X28573809Y34448050D01*
X28573809Y34448050D02*
X28688095Y34486145D01*
X28688095Y34486145D02*
X28764286Y34486145D01*
X28764286Y34486145D02*
X28878571Y34448050D01*
X28878571Y34448050D02*
X28916667Y34409955D01*
X29183333Y34486145D02*
X29716667Y34486145D01*
X29716667Y34486145D02*
X29373809Y33686145D01*
X31366667Y46712336D02*
X31328571Y46674240D01*
X31328571Y46674240D02*
X31214286Y46636145D01*
X31214286Y46636145D02*
X31138095Y46636145D01*
X31138095Y46636145D02*
X31023809Y46674240D01*
X31023809Y46674240D02*
X30947619Y46750431D01*
X30947619Y46750431D02*
X30909524Y46826621D01*
X30909524Y46826621D02*
X30871428Y46979002D01*
X30871428Y46979002D02*
X30871428Y47093288D01*
X30871428Y47093288D02*
X30909524Y47245669D01*
X30909524Y47245669D02*
X30947619Y47321860D01*
X30947619Y47321860D02*
X31023809Y47398050D01*
X31023809Y47398050D02*
X31138095Y47436145D01*
X31138095Y47436145D02*
X31214286Y47436145D01*
X31214286Y47436145D02*
X31328571Y47398050D01*
X31328571Y47398050D02*
X31366667Y47359955D01*
X32090476Y47436145D02*
X31709524Y47436145D01*
X31709524Y47436145D02*
X31671428Y47055193D01*
X31671428Y47055193D02*
X31709524Y47093288D01*
X31709524Y47093288D02*
X31785714Y47131383D01*
X31785714Y47131383D02*
X31976190Y47131383D01*
X31976190Y47131383D02*
X32052381Y47093288D01*
X32052381Y47093288D02*
X32090476Y47055193D01*
X32090476Y47055193D02*
X32128571Y46979002D01*
X32128571Y46979002D02*
X32128571Y46788526D01*
X32128571Y46788526D02*
X32090476Y46712336D01*
X32090476Y46712336D02*
X32052381Y46674240D01*
X32052381Y46674240D02*
X31976190Y46636145D01*
X31976190Y46636145D02*
X31785714Y46636145D01*
X31785714Y46636145D02*
X31709524Y46674240D01*
X31709524Y46674240D02*
X31671428Y46712336D01*
X5909524Y29636145D02*
X5909524Y30436145D01*
X5909524Y30436145D02*
X6100000Y30436145D01*
X6100000Y30436145D02*
X6214286Y30398050D01*
X6214286Y30398050D02*
X6290476Y30321860D01*
X6290476Y30321860D02*
X6328571Y30245669D01*
X6328571Y30245669D02*
X6366667Y30093288D01*
X6366667Y30093288D02*
X6366667Y29979002D01*
X6366667Y29979002D02*
X6328571Y29826621D01*
X6328571Y29826621D02*
X6290476Y29750431D01*
X6290476Y29750431D02*
X6214286Y29674240D01*
X6214286Y29674240D02*
X6100000Y29636145D01*
X6100000Y29636145D02*
X5909524Y29636145D01*
X6633333Y30436145D02*
X7128571Y30436145D01*
X7128571Y30436145D02*
X6861905Y30131383D01*
X6861905Y30131383D02*
X6976190Y30131383D01*
X6976190Y30131383D02*
X7052381Y30093288D01*
X7052381Y30093288D02*
X7090476Y30055193D01*
X7090476Y30055193D02*
X7128571Y29979002D01*
X7128571Y29979002D02*
X7128571Y29788526D01*
X7128571Y29788526D02*
X7090476Y29712336D01*
X7090476Y29712336D02*
X7052381Y29674240D01*
X7052381Y29674240D02*
X6976190Y29636145D01*
X6976190Y29636145D02*
X6747619Y29636145D01*
X6747619Y29636145D02*
X6671428Y29674240D01*
X6671428Y29674240D02*
X6633333Y29712336D01*
X13466667Y41982336D02*
X13428571Y41944240D01*
X13428571Y41944240D02*
X13314286Y41906145D01*
X13314286Y41906145D02*
X13238095Y41906145D01*
X13238095Y41906145D02*
X13123809Y41944240D01*
X13123809Y41944240D02*
X13047619Y42020431D01*
X13047619Y42020431D02*
X13009524Y42096621D01*
X13009524Y42096621D02*
X12971428Y42249002D01*
X12971428Y42249002D02*
X12971428Y42363288D01*
X12971428Y42363288D02*
X13009524Y42515669D01*
X13009524Y42515669D02*
X13047619Y42591860D01*
X13047619Y42591860D02*
X13123809Y42668050D01*
X13123809Y42668050D02*
X13238095Y42706145D01*
X13238095Y42706145D02*
X13314286Y42706145D01*
X13314286Y42706145D02*
X13428571Y42668050D01*
X13428571Y42668050D02*
X13466667Y42629955D01*
X13771428Y42629955D02*
X13809524Y42668050D01*
X13809524Y42668050D02*
X13885714Y42706145D01*
X13885714Y42706145D02*
X14076190Y42706145D01*
X14076190Y42706145D02*
X14152381Y42668050D01*
X14152381Y42668050D02*
X14190476Y42629955D01*
X14190476Y42629955D02*
X14228571Y42553764D01*
X14228571Y42553764D02*
X14228571Y42477574D01*
X14228571Y42477574D02*
X14190476Y42363288D01*
X14190476Y42363288D02*
X13733333Y41906145D01*
X13733333Y41906145D02*
X14228571Y41906145D01*
X20733333Y18555193D02*
X20466667Y18555193D01*
X20466667Y18136145D02*
X20466667Y18936145D01*
X20466667Y18936145D02*
X20847619Y18936145D01*
X21571428Y18136145D02*
X21114285Y18136145D01*
X21342857Y18136145D02*
X21342857Y18936145D01*
X21342857Y18936145D02*
X21266666Y18821860D01*
X21266666Y18821860D02*
X21190476Y18745669D01*
X21190476Y18745669D02*
X21114285Y18707574D01*
X41866667Y42836145D02*
X41600000Y43217098D01*
X41409524Y42836145D02*
X41409524Y43636145D01*
X41409524Y43636145D02*
X41714286Y43636145D01*
X41714286Y43636145D02*
X41790476Y43598050D01*
X41790476Y43598050D02*
X41828571Y43559955D01*
X41828571Y43559955D02*
X41866667Y43483764D01*
X41866667Y43483764D02*
X41866667Y43369479D01*
X41866667Y43369479D02*
X41828571Y43293288D01*
X41828571Y43293288D02*
X41790476Y43255193D01*
X41790476Y43255193D02*
X41714286Y43217098D01*
X41714286Y43217098D02*
X41409524Y43217098D01*
X42133333Y43636145D02*
X42628571Y43636145D01*
X42628571Y43636145D02*
X42361905Y43331383D01*
X42361905Y43331383D02*
X42476190Y43331383D01*
X42476190Y43331383D02*
X42552381Y43293288D01*
X42552381Y43293288D02*
X42590476Y43255193D01*
X42590476Y43255193D02*
X42628571Y43179002D01*
X42628571Y43179002D02*
X42628571Y42988526D01*
X42628571Y42988526D02*
X42590476Y42912336D01*
X42590476Y42912336D02*
X42552381Y42874240D01*
X42552381Y42874240D02*
X42476190Y42836145D01*
X42476190Y42836145D02*
X42247619Y42836145D01*
X42247619Y42836145D02*
X42171428Y42874240D01*
X42171428Y42874240D02*
X42133333Y42912336D01*
X34433332Y23674240D02*
X34547618Y23636145D01*
X34547618Y23636145D02*
X34738094Y23636145D01*
X34738094Y23636145D02*
X34814285Y23674240D01*
X34814285Y23674240D02*
X34852380Y23712336D01*
X34852380Y23712336D02*
X34890475Y23788526D01*
X34890475Y23788526D02*
X34890475Y23864717D01*
X34890475Y23864717D02*
X34852380Y23940907D01*
X34852380Y23940907D02*
X34814285Y23979002D01*
X34814285Y23979002D02*
X34738094Y24017098D01*
X34738094Y24017098D02*
X34585713Y24055193D01*
X34585713Y24055193D02*
X34509523Y24093288D01*
X34509523Y24093288D02*
X34471428Y24131383D01*
X34471428Y24131383D02*
X34433332Y24207574D01*
X34433332Y24207574D02*
X34433332Y24283764D01*
X34433332Y24283764D02*
X34471428Y24359955D01*
X34471428Y24359955D02*
X34509523Y24398050D01*
X34509523Y24398050D02*
X34585713Y24436145D01*
X34585713Y24436145D02*
X34776190Y24436145D01*
X34776190Y24436145D02*
X34890475Y24398050D01*
X35157142Y24436145D02*
X35347618Y23636145D01*
X35347618Y23636145D02*
X35499999Y24207574D01*
X35499999Y24207574D02*
X35652380Y23636145D01*
X35652380Y23636145D02*
X35842857Y24436145D01*
X36566666Y23636145D02*
X36109523Y23636145D01*
X36338095Y23636145D02*
X36338095Y24436145D01*
X36338095Y24436145D02*
X36261904Y24321860D01*
X36261904Y24321860D02*
X36185714Y24245669D01*
X36185714Y24245669D02*
X36109523Y24207574D01*
X41866667Y40612336D02*
X41828571Y40574240D01*
X41828571Y40574240D02*
X41714286Y40536145D01*
X41714286Y40536145D02*
X41638095Y40536145D01*
X41638095Y40536145D02*
X41523809Y40574240D01*
X41523809Y40574240D02*
X41447619Y40650431D01*
X41447619Y40650431D02*
X41409524Y40726621D01*
X41409524Y40726621D02*
X41371428Y40879002D01*
X41371428Y40879002D02*
X41371428Y40993288D01*
X41371428Y40993288D02*
X41409524Y41145669D01*
X41409524Y41145669D02*
X41447619Y41221860D01*
X41447619Y41221860D02*
X41523809Y41298050D01*
X41523809Y41298050D02*
X41638095Y41336145D01*
X41638095Y41336145D02*
X41714286Y41336145D01*
X41714286Y41336145D02*
X41828571Y41298050D01*
X41828571Y41298050D02*
X41866667Y41259955D01*
X42323809Y40993288D02*
X42247619Y41031383D01*
X42247619Y41031383D02*
X42209524Y41069479D01*
X42209524Y41069479D02*
X42171428Y41145669D01*
X42171428Y41145669D02*
X42171428Y41183764D01*
X42171428Y41183764D02*
X42209524Y41259955D01*
X42209524Y41259955D02*
X42247619Y41298050D01*
X42247619Y41298050D02*
X42323809Y41336145D01*
X42323809Y41336145D02*
X42476190Y41336145D01*
X42476190Y41336145D02*
X42552381Y41298050D01*
X42552381Y41298050D02*
X42590476Y41259955D01*
X42590476Y41259955D02*
X42628571Y41183764D01*
X42628571Y41183764D02*
X42628571Y41145669D01*
X42628571Y41145669D02*
X42590476Y41069479D01*
X42590476Y41069479D02*
X42552381Y41031383D01*
X42552381Y41031383D02*
X42476190Y40993288D01*
X42476190Y40993288D02*
X42323809Y40993288D01*
X42323809Y40993288D02*
X42247619Y40955193D01*
X42247619Y40955193D02*
X42209524Y40917098D01*
X42209524Y40917098D02*
X42171428Y40840907D01*
X42171428Y40840907D02*
X42171428Y40688526D01*
X42171428Y40688526D02*
X42209524Y40612336D01*
X42209524Y40612336D02*
X42247619Y40574240D01*
X42247619Y40574240D02*
X42323809Y40536145D01*
X42323809Y40536145D02*
X42476190Y40536145D01*
X42476190Y40536145D02*
X42552381Y40574240D01*
X42552381Y40574240D02*
X42590476Y40612336D01*
X42590476Y40612336D02*
X42628571Y40688526D01*
X42628571Y40688526D02*
X42628571Y40840907D01*
X42628571Y40840907D02*
X42590476Y40917098D01*
X42590476Y40917098D02*
X42552381Y40955193D01*
X42552381Y40955193D02*
X42476190Y40993288D01*
X35866667Y33636145D02*
X35600000Y34017098D01*
X35409524Y33636145D02*
X35409524Y34436145D01*
X35409524Y34436145D02*
X35714286Y34436145D01*
X35714286Y34436145D02*
X35790476Y34398050D01*
X35790476Y34398050D02*
X35828571Y34359955D01*
X35828571Y34359955D02*
X35866667Y34283764D01*
X35866667Y34283764D02*
X35866667Y34169479D01*
X35866667Y34169479D02*
X35828571Y34093288D01*
X35828571Y34093288D02*
X35790476Y34055193D01*
X35790476Y34055193D02*
X35714286Y34017098D01*
X35714286Y34017098D02*
X35409524Y34017098D01*
X36590476Y34436145D02*
X36209524Y34436145D01*
X36209524Y34436145D02*
X36171428Y34055193D01*
X36171428Y34055193D02*
X36209524Y34093288D01*
X36209524Y34093288D02*
X36285714Y34131383D01*
X36285714Y34131383D02*
X36476190Y34131383D01*
X36476190Y34131383D02*
X36552381Y34093288D01*
X36552381Y34093288D02*
X36590476Y34055193D01*
X36590476Y34055193D02*
X36628571Y33979002D01*
X36628571Y33979002D02*
X36628571Y33788526D01*
X36628571Y33788526D02*
X36590476Y33712336D01*
X36590476Y33712336D02*
X36552381Y33674240D01*
X36552381Y33674240D02*
X36476190Y33636145D01*
X36476190Y33636145D02*
X36285714Y33636145D01*
X36285714Y33636145D02*
X36209524Y33674240D01*
X36209524Y33674240D02*
X36171428Y33712336D01*
X18390476Y42436145D02*
X18390476Y41788526D01*
X18390476Y41788526D02*
X18428571Y41712336D01*
X18428571Y41712336D02*
X18466666Y41674240D01*
X18466666Y41674240D02*
X18542857Y41636145D01*
X18542857Y41636145D02*
X18695238Y41636145D01*
X18695238Y41636145D02*
X18771428Y41674240D01*
X18771428Y41674240D02*
X18809523Y41712336D01*
X18809523Y41712336D02*
X18847619Y41788526D01*
X18847619Y41788526D02*
X18847619Y42436145D01*
X19647618Y41636145D02*
X19190475Y41636145D01*
X19419047Y41636145D02*
X19419047Y42436145D01*
X19419047Y42436145D02*
X19342856Y42321860D01*
X19342856Y42321860D02*
X19266666Y42245669D01*
X19266666Y42245669D02*
X19190475Y42207574D01*
X17050713Y27212336D02*
X17012617Y27174240D01*
X17012617Y27174240D02*
X16898332Y27136145D01*
X16898332Y27136145D02*
X16822141Y27136145D01*
X16822141Y27136145D02*
X16707855Y27174240D01*
X16707855Y27174240D02*
X16631665Y27250431D01*
X16631665Y27250431D02*
X16593570Y27326621D01*
X16593570Y27326621D02*
X16555474Y27479002D01*
X16555474Y27479002D02*
X16555474Y27593288D01*
X16555474Y27593288D02*
X16593570Y27745669D01*
X16593570Y27745669D02*
X16631665Y27821860D01*
X16631665Y27821860D02*
X16707855Y27898050D01*
X16707855Y27898050D02*
X16822141Y27936145D01*
X16822141Y27936145D02*
X16898332Y27936145D01*
X16898332Y27936145D02*
X17012617Y27898050D01*
X17012617Y27898050D02*
X17050713Y27859955D01*
X17812617Y27136145D02*
X17355474Y27136145D01*
X17584046Y27136145D02*
X17584046Y27936145D01*
X17584046Y27936145D02*
X17507855Y27821860D01*
X17507855Y27821860D02*
X17431665Y27745669D01*
X17431665Y27745669D02*
X17355474Y27707574D01*
X18117379Y27859955D02*
X18155475Y27898050D01*
X18155475Y27898050D02*
X18231665Y27936145D01*
X18231665Y27936145D02*
X18422141Y27936145D01*
X18422141Y27936145D02*
X18498332Y27898050D01*
X18498332Y27898050D02*
X18536427Y27859955D01*
X18536427Y27859955D02*
X18574522Y27783764D01*
X18574522Y27783764D02*
X18574522Y27707574D01*
X18574522Y27707574D02*
X18536427Y27593288D01*
X18536427Y27593288D02*
X18079284Y27136145D01*
X18079284Y27136145D02*
X18574522Y27136145D01*
X53866667Y44836145D02*
X53600000Y45217098D01*
X53409524Y44836145D02*
X53409524Y45636145D01*
X53409524Y45636145D02*
X53714286Y45636145D01*
X53714286Y45636145D02*
X53790476Y45598050D01*
X53790476Y45598050D02*
X53828571Y45559955D01*
X53828571Y45559955D02*
X53866667Y45483764D01*
X53866667Y45483764D02*
X53866667Y45369479D01*
X53866667Y45369479D02*
X53828571Y45293288D01*
X53828571Y45293288D02*
X53790476Y45255193D01*
X53790476Y45255193D02*
X53714286Y45217098D01*
X53714286Y45217098D02*
X53409524Y45217098D01*
X54323809Y45293288D02*
X54247619Y45331383D01*
X54247619Y45331383D02*
X54209524Y45369479D01*
X54209524Y45369479D02*
X54171428Y45445669D01*
X54171428Y45445669D02*
X54171428Y45483764D01*
X54171428Y45483764D02*
X54209524Y45559955D01*
X54209524Y45559955D02*
X54247619Y45598050D01*
X54247619Y45598050D02*
X54323809Y45636145D01*
X54323809Y45636145D02*
X54476190Y45636145D01*
X54476190Y45636145D02*
X54552381Y45598050D01*
X54552381Y45598050D02*
X54590476Y45559955D01*
X54590476Y45559955D02*
X54628571Y45483764D01*
X54628571Y45483764D02*
X54628571Y45445669D01*
X54628571Y45445669D02*
X54590476Y45369479D01*
X54590476Y45369479D02*
X54552381Y45331383D01*
X54552381Y45331383D02*
X54476190Y45293288D01*
X54476190Y45293288D02*
X54323809Y45293288D01*
X54323809Y45293288D02*
X54247619Y45255193D01*
X54247619Y45255193D02*
X54209524Y45217098D01*
X54209524Y45217098D02*
X54171428Y45140907D01*
X54171428Y45140907D02*
X54171428Y44988526D01*
X54171428Y44988526D02*
X54209524Y44912336D01*
X54209524Y44912336D02*
X54247619Y44874240D01*
X54247619Y44874240D02*
X54323809Y44836145D01*
X54323809Y44836145D02*
X54476190Y44836145D01*
X54476190Y44836145D02*
X54552381Y44874240D01*
X54552381Y44874240D02*
X54590476Y44912336D01*
X54590476Y44912336D02*
X54628571Y44988526D01*
X54628571Y44988526D02*
X54628571Y45140907D01*
X54628571Y45140907D02*
X54590476Y45217098D01*
X54590476Y45217098D02*
X54552381Y45255193D01*
X54552381Y45255193D02*
X54476190Y45293288D01*
X62366667Y47136145D02*
X62100000Y47517098D01*
X61909524Y47136145D02*
X61909524Y47936145D01*
X61909524Y47936145D02*
X62214286Y47936145D01*
X62214286Y47936145D02*
X62290476Y47898050D01*
X62290476Y47898050D02*
X62328571Y47859955D01*
X62328571Y47859955D02*
X62366667Y47783764D01*
X62366667Y47783764D02*
X62366667Y47669479D01*
X62366667Y47669479D02*
X62328571Y47593288D01*
X62328571Y47593288D02*
X62290476Y47555193D01*
X62290476Y47555193D02*
X62214286Y47517098D01*
X62214286Y47517098D02*
X61909524Y47517098D01*
X62633333Y47936145D02*
X63166667Y47936145D01*
X63166667Y47936145D02*
X62823809Y47136145D01*
X47390476Y33936145D02*
X47390476Y33288526D01*
X47390476Y33288526D02*
X47428571Y33212336D01*
X47428571Y33212336D02*
X47466666Y33174240D01*
X47466666Y33174240D02*
X47542857Y33136145D01*
X47542857Y33136145D02*
X47695238Y33136145D01*
X47695238Y33136145D02*
X47771428Y33174240D01*
X47771428Y33174240D02*
X47809523Y33212336D01*
X47809523Y33212336D02*
X47847619Y33288526D01*
X47847619Y33288526D02*
X47847619Y33936145D01*
X48190475Y33859955D02*
X48228571Y33898050D01*
X48228571Y33898050D02*
X48304761Y33936145D01*
X48304761Y33936145D02*
X48495237Y33936145D01*
X48495237Y33936145D02*
X48571428Y33898050D01*
X48571428Y33898050D02*
X48609523Y33859955D01*
X48609523Y33859955D02*
X48647618Y33783764D01*
X48647618Y33783764D02*
X48647618Y33707574D01*
X48647618Y33707574D02*
X48609523Y33593288D01*
X48609523Y33593288D02*
X48152380Y33136145D01*
X48152380Y33136145D02*
X48647618Y33136145D01*
X53985714Y31036145D02*
X53719047Y31417098D01*
X53528571Y31036145D02*
X53528571Y31836145D01*
X53528571Y31836145D02*
X53833333Y31836145D01*
X53833333Y31836145D02*
X53909523Y31798050D01*
X53909523Y31798050D02*
X53947618Y31759955D01*
X53947618Y31759955D02*
X53985714Y31683764D01*
X53985714Y31683764D02*
X53985714Y31569479D01*
X53985714Y31569479D02*
X53947618Y31493288D01*
X53947618Y31493288D02*
X53909523Y31455193D01*
X53909523Y31455193D02*
X53833333Y31417098D01*
X53833333Y31417098D02*
X53528571Y31417098D01*
X54290475Y31759955D02*
X54328571Y31798050D01*
X54328571Y31798050D02*
X54404761Y31836145D01*
X54404761Y31836145D02*
X54595237Y31836145D01*
X54595237Y31836145D02*
X54671428Y31798050D01*
X54671428Y31798050D02*
X54709523Y31759955D01*
X54709523Y31759955D02*
X54747618Y31683764D01*
X54747618Y31683764D02*
X54747618Y31607574D01*
X54747618Y31607574D02*
X54709523Y31493288D01*
X54709523Y31493288D02*
X54252380Y31036145D01*
X54252380Y31036145D02*
X54747618Y31036145D01*
X55242857Y31836145D02*
X55319047Y31836145D01*
X55319047Y31836145D02*
X55395238Y31798050D01*
X55395238Y31798050D02*
X55433333Y31759955D01*
X55433333Y31759955D02*
X55471428Y31683764D01*
X55471428Y31683764D02*
X55509523Y31531383D01*
X55509523Y31531383D02*
X55509523Y31340907D01*
X55509523Y31340907D02*
X55471428Y31188526D01*
X55471428Y31188526D02*
X55433333Y31112336D01*
X55433333Y31112336D02*
X55395238Y31074240D01*
X55395238Y31074240D02*
X55319047Y31036145D01*
X55319047Y31036145D02*
X55242857Y31036145D01*
X55242857Y31036145D02*
X55166666Y31074240D01*
X55166666Y31074240D02*
X55128571Y31112336D01*
X55128571Y31112336D02*
X55090476Y31188526D01*
X55090476Y31188526D02*
X55052380Y31340907D01*
X55052380Y31340907D02*
X55052380Y31531383D01*
X55052380Y31531383D02*
X55090476Y31683764D01*
X55090476Y31683764D02*
X55128571Y31759955D01*
X55128571Y31759955D02*
X55166666Y31798050D01*
X55166666Y31798050D02*
X55242857Y31836145D01*
X57985714Y14712336D02*
X57947618Y14674240D01*
X57947618Y14674240D02*
X57833333Y14636145D01*
X57833333Y14636145D02*
X57757142Y14636145D01*
X57757142Y14636145D02*
X57642856Y14674240D01*
X57642856Y14674240D02*
X57566666Y14750431D01*
X57566666Y14750431D02*
X57528571Y14826621D01*
X57528571Y14826621D02*
X57490475Y14979002D01*
X57490475Y14979002D02*
X57490475Y15093288D01*
X57490475Y15093288D02*
X57528571Y15245669D01*
X57528571Y15245669D02*
X57566666Y15321860D01*
X57566666Y15321860D02*
X57642856Y15398050D01*
X57642856Y15398050D02*
X57757142Y15436145D01*
X57757142Y15436145D02*
X57833333Y15436145D01*
X57833333Y15436145D02*
X57947618Y15398050D01*
X57947618Y15398050D02*
X57985714Y15359955D01*
X58747618Y14636145D02*
X58290475Y14636145D01*
X58519047Y14636145D02*
X58519047Y15436145D01*
X58519047Y15436145D02*
X58442856Y15321860D01*
X58442856Y15321860D02*
X58366666Y15245669D01*
X58366666Y15245669D02*
X58290475Y15207574D01*
X59433333Y15169479D02*
X59433333Y14636145D01*
X59242857Y15474240D02*
X59052380Y14902812D01*
X59052380Y14902812D02*
X59547619Y14902812D01*
X10285714Y21212336D02*
X10247618Y21174240D01*
X10247618Y21174240D02*
X10133333Y21136145D01*
X10133333Y21136145D02*
X10057142Y21136145D01*
X10057142Y21136145D02*
X9942856Y21174240D01*
X9942856Y21174240D02*
X9866666Y21250431D01*
X9866666Y21250431D02*
X9828571Y21326621D01*
X9828571Y21326621D02*
X9790475Y21479002D01*
X9790475Y21479002D02*
X9790475Y21593288D01*
X9790475Y21593288D02*
X9828571Y21745669D01*
X9828571Y21745669D02*
X9866666Y21821860D01*
X9866666Y21821860D02*
X9942856Y21898050D01*
X9942856Y21898050D02*
X10057142Y21936145D01*
X10057142Y21936145D02*
X10133333Y21936145D01*
X10133333Y21936145D02*
X10247618Y21898050D01*
X10247618Y21898050D02*
X10285714Y21859955D01*
X11047618Y21136145D02*
X10590475Y21136145D01*
X10819047Y21136145D02*
X10819047Y21936145D01*
X10819047Y21936145D02*
X10742856Y21821860D01*
X10742856Y21821860D02*
X10666666Y21745669D01*
X10666666Y21745669D02*
X10590475Y21707574D01*
X11314285Y21936145D02*
X11809523Y21936145D01*
X11809523Y21936145D02*
X11542857Y21631383D01*
X11542857Y21631383D02*
X11657142Y21631383D01*
X11657142Y21631383D02*
X11733333Y21593288D01*
X11733333Y21593288D02*
X11771428Y21555193D01*
X11771428Y21555193D02*
X11809523Y21479002D01*
X11809523Y21479002D02*
X11809523Y21288526D01*
X11809523Y21288526D02*
X11771428Y21212336D01*
X11771428Y21212336D02*
X11733333Y21174240D01*
X11733333Y21174240D02*
X11657142Y21136145D01*
X11657142Y21136145D02*
X11428571Y21136145D01*
X11428571Y21136145D02*
X11352380Y21174240D01*
X11352380Y21174240D02*
X11314285Y21212336D01*
X10909524Y15436145D02*
X10909524Y16236145D01*
X10909524Y16236145D02*
X11100000Y16236145D01*
X11100000Y16236145D02*
X11214286Y16198050D01*
X11214286Y16198050D02*
X11290476Y16121860D01*
X11290476Y16121860D02*
X11328571Y16045669D01*
X11328571Y16045669D02*
X11366667Y15893288D01*
X11366667Y15893288D02*
X11366667Y15779002D01*
X11366667Y15779002D02*
X11328571Y15626621D01*
X11328571Y15626621D02*
X11290476Y15550431D01*
X11290476Y15550431D02*
X11214286Y15474240D01*
X11214286Y15474240D02*
X11100000Y15436145D01*
X11100000Y15436145D02*
X10909524Y15436145D01*
X12052381Y15969479D02*
X12052381Y15436145D01*
X11861905Y16274240D02*
X11671428Y15702812D01*
X11671428Y15702812D02*
X12166667Y15702812D01*
X10890476Y18236145D02*
X10890476Y17588526D01*
X10890476Y17588526D02*
X10928571Y17512336D01*
X10928571Y17512336D02*
X10966666Y17474240D01*
X10966666Y17474240D02*
X11042857Y17436145D01*
X11042857Y17436145D02*
X11195238Y17436145D01*
X11195238Y17436145D02*
X11271428Y17474240D01*
X11271428Y17474240D02*
X11309523Y17512336D01*
X11309523Y17512336D02*
X11347619Y17588526D01*
X11347619Y17588526D02*
X11347619Y18236145D01*
X11652380Y18236145D02*
X12147618Y18236145D01*
X12147618Y18236145D02*
X11880952Y17931383D01*
X11880952Y17931383D02*
X11995237Y17931383D01*
X11995237Y17931383D02*
X12071428Y17893288D01*
X12071428Y17893288D02*
X12109523Y17855193D01*
X12109523Y17855193D02*
X12147618Y17779002D01*
X12147618Y17779002D02*
X12147618Y17588526D01*
X12147618Y17588526D02*
X12109523Y17512336D01*
X12109523Y17512336D02*
X12071428Y17474240D01*
X12071428Y17474240D02*
X11995237Y17436145D01*
X11995237Y17436145D02*
X11766666Y17436145D01*
X11766666Y17436145D02*
X11690475Y17474240D01*
X11690475Y17474240D02*
X11652380Y17512336D01*
X41485714Y45212336D02*
X41447618Y45174240D01*
X41447618Y45174240D02*
X41333333Y45136145D01*
X41333333Y45136145D02*
X41257142Y45136145D01*
X41257142Y45136145D02*
X41142856Y45174240D01*
X41142856Y45174240D02*
X41066666Y45250431D01*
X41066666Y45250431D02*
X41028571Y45326621D01*
X41028571Y45326621D02*
X40990475Y45479002D01*
X40990475Y45479002D02*
X40990475Y45593288D01*
X40990475Y45593288D02*
X41028571Y45745669D01*
X41028571Y45745669D02*
X41066666Y45821860D01*
X41066666Y45821860D02*
X41142856Y45898050D01*
X41142856Y45898050D02*
X41257142Y45936145D01*
X41257142Y45936145D02*
X41333333Y45936145D01*
X41333333Y45936145D02*
X41447618Y45898050D01*
X41447618Y45898050D02*
X41485714Y45859955D01*
X42247618Y45136145D02*
X41790475Y45136145D01*
X42019047Y45136145D02*
X42019047Y45936145D01*
X42019047Y45936145D02*
X41942856Y45821860D01*
X41942856Y45821860D02*
X41866666Y45745669D01*
X41866666Y45745669D02*
X41790475Y45707574D01*
X42742857Y45936145D02*
X42819047Y45936145D01*
X42819047Y45936145D02*
X42895238Y45898050D01*
X42895238Y45898050D02*
X42933333Y45859955D01*
X42933333Y45859955D02*
X42971428Y45783764D01*
X42971428Y45783764D02*
X43009523Y45631383D01*
X43009523Y45631383D02*
X43009523Y45440907D01*
X43009523Y45440907D02*
X42971428Y45288526D01*
X42971428Y45288526D02*
X42933333Y45212336D01*
X42933333Y45212336D02*
X42895238Y45174240D01*
X42895238Y45174240D02*
X42819047Y45136145D01*
X42819047Y45136145D02*
X42742857Y45136145D01*
X42742857Y45136145D02*
X42666666Y45174240D01*
X42666666Y45174240D02*
X42628571Y45212336D01*
X42628571Y45212336D02*
X42590476Y45288526D01*
X42590476Y45288526D02*
X42552380Y45440907D01*
X42552380Y45440907D02*
X42552380Y45631383D01*
X42552380Y45631383D02*
X42590476Y45783764D01*
X42590476Y45783764D02*
X42628571Y45859955D01*
X42628571Y45859955D02*
X42666666Y45898050D01*
X42666666Y45898050D02*
X42742857Y45936145D01*
X33766667Y33536145D02*
X33500000Y33917098D01*
X33309524Y33536145D02*
X33309524Y34336145D01*
X33309524Y34336145D02*
X33614286Y34336145D01*
X33614286Y34336145D02*
X33690476Y34298050D01*
X33690476Y34298050D02*
X33728571Y34259955D01*
X33728571Y34259955D02*
X33766667Y34183764D01*
X33766667Y34183764D02*
X33766667Y34069479D01*
X33766667Y34069479D02*
X33728571Y33993288D01*
X33728571Y33993288D02*
X33690476Y33955193D01*
X33690476Y33955193D02*
X33614286Y33917098D01*
X33614286Y33917098D02*
X33309524Y33917098D01*
X34452381Y34336145D02*
X34300000Y34336145D01*
X34300000Y34336145D02*
X34223809Y34298050D01*
X34223809Y34298050D02*
X34185714Y34259955D01*
X34185714Y34259955D02*
X34109524Y34145669D01*
X34109524Y34145669D02*
X34071428Y33993288D01*
X34071428Y33993288D02*
X34071428Y33688526D01*
X34071428Y33688526D02*
X34109524Y33612336D01*
X34109524Y33612336D02*
X34147619Y33574240D01*
X34147619Y33574240D02*
X34223809Y33536145D01*
X34223809Y33536145D02*
X34376190Y33536145D01*
X34376190Y33536145D02*
X34452381Y33574240D01*
X34452381Y33574240D02*
X34490476Y33612336D01*
X34490476Y33612336D02*
X34528571Y33688526D01*
X34528571Y33688526D02*
X34528571Y33879002D01*
X34528571Y33879002D02*
X34490476Y33955193D01*
X34490476Y33955193D02*
X34452381Y33993288D01*
X34452381Y33993288D02*
X34376190Y34031383D01*
X34376190Y34031383D02*
X34223809Y34031383D01*
X34223809Y34031383D02*
X34147619Y33993288D01*
X34147619Y33993288D02*
X34109524Y33955193D01*
X34109524Y33955193D02*
X34071428Y33879002D01*
X40933332Y27674240D02*
X41047618Y27636145D01*
X41047618Y27636145D02*
X41238094Y27636145D01*
X41238094Y27636145D02*
X41314285Y27674240D01*
X41314285Y27674240D02*
X41352380Y27712336D01*
X41352380Y27712336D02*
X41390475Y27788526D01*
X41390475Y27788526D02*
X41390475Y27864717D01*
X41390475Y27864717D02*
X41352380Y27940907D01*
X41352380Y27940907D02*
X41314285Y27979002D01*
X41314285Y27979002D02*
X41238094Y28017098D01*
X41238094Y28017098D02*
X41085713Y28055193D01*
X41085713Y28055193D02*
X41009523Y28093288D01*
X41009523Y28093288D02*
X40971428Y28131383D01*
X40971428Y28131383D02*
X40933332Y28207574D01*
X40933332Y28207574D02*
X40933332Y28283764D01*
X40933332Y28283764D02*
X40971428Y28359955D01*
X40971428Y28359955D02*
X41009523Y28398050D01*
X41009523Y28398050D02*
X41085713Y28436145D01*
X41085713Y28436145D02*
X41276190Y28436145D01*
X41276190Y28436145D02*
X41390475Y28398050D01*
X41657142Y28436145D02*
X41847618Y27636145D01*
X41847618Y27636145D02*
X41999999Y28207574D01*
X41999999Y28207574D02*
X42152380Y27636145D01*
X42152380Y27636145D02*
X42342857Y28436145D01*
X42609523Y28359955D02*
X42647619Y28398050D01*
X42647619Y28398050D02*
X42723809Y28436145D01*
X42723809Y28436145D02*
X42914285Y28436145D01*
X42914285Y28436145D02*
X42990476Y28398050D01*
X42990476Y28398050D02*
X43028571Y28359955D01*
X43028571Y28359955D02*
X43066666Y28283764D01*
X43066666Y28283764D02*
X43066666Y28207574D01*
X43066666Y28207574D02*
X43028571Y28093288D01*
X43028571Y28093288D02*
X42571428Y27636145D01*
X42571428Y27636145D02*
X43066666Y27636145D01*
X27566667Y36712336D02*
X27528571Y36674240D01*
X27528571Y36674240D02*
X27414286Y36636145D01*
X27414286Y36636145D02*
X27338095Y36636145D01*
X27338095Y36636145D02*
X27223809Y36674240D01*
X27223809Y36674240D02*
X27147619Y36750431D01*
X27147619Y36750431D02*
X27109524Y36826621D01*
X27109524Y36826621D02*
X27071428Y36979002D01*
X27071428Y36979002D02*
X27071428Y37093288D01*
X27071428Y37093288D02*
X27109524Y37245669D01*
X27109524Y37245669D02*
X27147619Y37321860D01*
X27147619Y37321860D02*
X27223809Y37398050D01*
X27223809Y37398050D02*
X27338095Y37436145D01*
X27338095Y37436145D02*
X27414286Y37436145D01*
X27414286Y37436145D02*
X27528571Y37398050D01*
X27528571Y37398050D02*
X27566667Y37359955D01*
X27833333Y37436145D02*
X28328571Y37436145D01*
X28328571Y37436145D02*
X28061905Y37131383D01*
X28061905Y37131383D02*
X28176190Y37131383D01*
X28176190Y37131383D02*
X28252381Y37093288D01*
X28252381Y37093288D02*
X28290476Y37055193D01*
X28290476Y37055193D02*
X28328571Y36979002D01*
X28328571Y36979002D02*
X28328571Y36788526D01*
X28328571Y36788526D02*
X28290476Y36712336D01*
X28290476Y36712336D02*
X28252381Y36674240D01*
X28252381Y36674240D02*
X28176190Y36636145D01*
X28176190Y36636145D02*
X27947619Y36636145D01*
X27947619Y36636145D02*
X27871428Y36674240D01*
X27871428Y36674240D02*
X27833333Y36712336D01*
X19266667Y32636145D02*
X19000000Y33017098D01*
X18809524Y32636145D02*
X18809524Y33436145D01*
X18809524Y33436145D02*
X19114286Y33436145D01*
X19114286Y33436145D02*
X19190476Y33398050D01*
X19190476Y33398050D02*
X19228571Y33359955D01*
X19228571Y33359955D02*
X19266667Y33283764D01*
X19266667Y33283764D02*
X19266667Y33169479D01*
X19266667Y33169479D02*
X19228571Y33093288D01*
X19228571Y33093288D02*
X19190476Y33055193D01*
X19190476Y33055193D02*
X19114286Y33017098D01*
X19114286Y33017098D02*
X18809524Y33017098D01*
X20028571Y32636145D02*
X19571428Y32636145D01*
X19800000Y32636145D02*
X19800000Y33436145D01*
X19800000Y33436145D02*
X19723809Y33321860D01*
X19723809Y33321860D02*
X19647619Y33245669D01*
X19647619Y33245669D02*
X19571428Y33207574D01*
%TO.C,C4*%
X23490000Y39129420D02*
X23490000Y39410580D01*
X24510000Y39129420D02*
X24510000Y39410580D01*
%TO.C,D1*%
X22350000Y29510000D02*
X22350000Y24000000D01*
X25650000Y29510000D02*
X22350000Y29510000D01*
X25650000Y29510000D02*
X25650000Y24000000D01*
%TO.C,D6*%
X37515000Y30735000D02*
X37515000Y29265000D01*
X37515000Y29265000D02*
X39800000Y29265000D01*
X39800000Y30735000D02*
X37515000Y30735000D01*
%TO.C,R18*%
X59562742Y39522500D02*
X60037258Y39522500D01*
X59562742Y38477500D02*
X60037258Y38477500D01*
%TO.C,U4*%
X54250000Y10910000D02*
X54300000Y10910000D01*
X54250000Y9090000D02*
X54250000Y10910000D01*
X54300000Y9090000D02*
X54250000Y9090000D01*
X57320000Y10910000D02*
X57370000Y10910000D01*
X57370000Y10910000D02*
X57370000Y9090000D01*
X57370000Y9090000D02*
X57320000Y9090000D01*
X54300000Y8550000D02*
X53970000Y8310000D01*
X53970000Y8790000D01*
X54300000Y8550000D01*
G36*
X54300000Y8550000D02*
G01*
X53970000Y8310000D01*
X53970000Y8790000D01*
X54300000Y8550000D01*
G37*
%TO.C,R2*%
X24062742Y35022500D02*
X24537258Y35022500D01*
X24062742Y33977500D02*
X24537258Y33977500D01*
%TO.C,R10*%
X20262742Y21522500D02*
X20737258Y21522500D01*
X20262742Y20477500D02*
X20737258Y20477500D01*
%TO.C,J3*%
X50620000Y4620000D02*
X50620000Y6000000D01*
X52000000Y4620000D02*
X50620000Y4620000D01*
X53270000Y7380000D02*
X58460000Y7380000D01*
X53270000Y4620000D02*
X53270000Y7380000D01*
X53270000Y4620000D02*
X58460000Y4620000D01*
X58460000Y4620000D02*
X58460000Y7380000D01*
%TO.C,J1*%
X1055000Y12860000D02*
X32025000Y12860000D01*
X1055000Y520000D02*
X1055000Y12860000D01*
X10750000Y13754338D02*
X11250000Y13754338D01*
X11000000Y13321325D02*
X10750000Y13754338D01*
X11250000Y13754338D02*
X11000000Y13321325D01*
X32025000Y12860000D02*
X32025000Y520000D01*
%TO.C,R4*%
X58477500Y44762742D02*
X58477500Y45237258D01*
X59522500Y44762742D02*
X59522500Y45237258D01*
%TO.C,C6*%
X30788748Y41860000D02*
X32211252Y41860000D01*
X30788748Y39140000D02*
X32211252Y39140000D01*
%TO.C,L1*%
X21900000Y47600000D02*
X21900000Y47150000D01*
X21900000Y47600000D02*
X28100000Y47600000D01*
X21900000Y41400000D02*
X21900000Y41850000D01*
X28100000Y47600000D02*
X28100000Y47150000D01*
X28100000Y41400000D02*
X21900000Y41400000D01*
X28100000Y41400000D02*
X28100000Y41850000D01*
%TO.C,C11*%
X61559420Y42910000D02*
X61840580Y42910000D01*
X61559420Y41890000D02*
X61840580Y41890000D01*
%TO.C,C1*%
X9140000Y37288748D02*
X9140000Y38711252D01*
X11860000Y37288748D02*
X11860000Y38711252D01*
%TO.C,C9*%
X35238748Y48535000D02*
X35761252Y48535000D01*
X35238748Y47065000D02*
X35761252Y47065000D01*
%TO.C,R9*%
X34762742Y30522500D02*
X35237258Y30522500D01*
X34762742Y29477500D02*
X35237258Y29477500D01*
%TO.C,R19*%
X60037258Y37522500D02*
X59562742Y37522500D01*
X60037258Y36477500D02*
X59562742Y36477500D01*
%TO.C,C7*%
X30788748Y37860000D02*
X32211252Y37860000D01*
X30788748Y35140000D02*
X32211252Y35140000D01*
%TO.C,C5*%
X30788748Y45860000D02*
X32211252Y45860000D01*
X30788748Y43140000D02*
X32211252Y43140000D01*
%TO.C,D3*%
X7850000Y26340000D02*
X7850000Y32150000D01*
X7850000Y26340000D02*
X12150000Y26340000D01*
X12150000Y26340000D02*
X12150000Y32150000D01*
%TO.C,C2*%
X12865000Y39008748D02*
X12865000Y39531252D01*
X14335000Y39008748D02*
X14335000Y39531252D01*
%TO.C,F1*%
X22545000Y17285000D02*
X22545000Y19715000D01*
X25455000Y17285000D02*
X25455000Y19715000D01*
%TO.C,R3*%
X35762742Y43722500D02*
X36237258Y43722500D01*
X35762742Y42677500D02*
X36237258Y42677500D01*
%TO.C,SW1*%
X28250000Y25000000D02*
X28250000Y23000000D01*
X29300000Y26300000D02*
X29750000Y26750000D01*
X29300000Y21700000D02*
X29750000Y21250000D01*
X29750000Y26750000D02*
X32250000Y26750000D01*
X29750000Y21250000D02*
X32250000Y21250000D01*
X32700000Y26300000D02*
X32250000Y26750000D01*
X32700000Y21700000D02*
X32250000Y21250000D01*
X33750000Y25000000D02*
X33750000Y23000000D01*
%TO.C,C8*%
X35859420Y41410000D02*
X36140580Y41410000D01*
X35859420Y40390000D02*
X36140580Y40390000D01*
%TO.C,R5*%
X35762742Y39022500D02*
X36237258Y39022500D01*
X35762742Y37977500D02*
X36237258Y37977500D01*
%TO.C,U1*%
D12*
X16925000Y40575000D02*
X21075000Y40575000D01*
X16925000Y35425000D02*
X21075000Y35425000D01*
D11*
X16325000Y40475000D02*
X16085000Y40805000D01*
X16565000Y40805000D01*
X16325000Y40475000D01*
G36*
X16325000Y40475000D02*
G01*
X16085000Y40805000D01*
X16565000Y40805000D01*
X16325000Y40475000D01*
G37*
%TO.C,C12*%
X14555000Y27359420D02*
X14555000Y27640580D01*
X15575000Y27359420D02*
X15575000Y27640580D01*
%TO.C,R8*%
X61477500Y44962742D02*
X61477500Y45437258D01*
X62522500Y44962742D02*
X62522500Y45437258D01*
%TO.C,R7*%
X59762742Y48022500D02*
X60237258Y48022500D01*
X59762742Y46977500D02*
X60237258Y46977500D01*
%TO.C,U2*%
X38890000Y49700000D02*
X38890000Y49400000D01*
X38890000Y35290000D02*
X38890000Y34990000D01*
X38890000Y34990000D02*
X57110000Y34990000D01*
X57110000Y49700000D02*
X57110000Y48710000D01*
X57110000Y35290000D02*
X57110000Y34990000D01*
X38900000Y48700000D02*
X38400000Y48700000D01*
X38900000Y49200000D01*
X38900000Y48700000D01*
G36*
X38900000Y48700000D02*
G01*
X38400000Y48700000D01*
X38900000Y49200000D01*
X38900000Y48700000D01*
G37*
%TO.C,R20*%
X54262742Y33522500D02*
X54737258Y33522500D01*
X54262742Y32477500D02*
X54737258Y32477500D01*
%TO.C,C14*%
X55300000Y13859420D02*
X55300000Y14140580D01*
X56320000Y13859420D02*
X56320000Y14140580D01*
%TO.C,C13*%
X10940580Y20010000D02*
X10659420Y20010000D01*
X10940580Y18990000D02*
X10659420Y18990000D01*
%TO.C,D4*%
X12940000Y16560000D02*
X13940000Y16560000D01*
X12940000Y15040000D02*
X12940000Y16560000D01*
X12990000Y15040000D02*
X12940000Y15040000D01*
X14890000Y15040000D02*
X14110000Y15040000D01*
X15060000Y16560000D02*
X16060000Y16560000D01*
X16060000Y16560000D02*
X16060000Y15040000D01*
X16060000Y15040000D02*
X16010000Y15040000D01*
X14120000Y14500000D02*
X14450000Y14740000D01*
X14450000Y14260000D01*
X14120000Y14500000D01*
G36*
X14450000Y14260000D02*
G01*
X14120000Y14500000D01*
X14450000Y14740000D01*
X14450000Y14260000D01*
G37*
%TO.C,U3*%
X13140000Y24060000D02*
X13235000Y24060000D01*
X13140000Y19940000D02*
X13140000Y24060000D01*
X13235000Y19940000D02*
X13140000Y19940000D01*
X18165000Y24060000D02*
X18260000Y24060000D01*
X18260000Y24060000D02*
X18260000Y19940000D01*
X18260000Y19940000D02*
X18165000Y19940000D01*
X18170000Y24600000D02*
X18500000Y24840000D01*
X18500000Y24360000D01*
X18170000Y24600000D01*
G36*
X18500000Y24360000D02*
G01*
X18170000Y24600000D01*
X18500000Y24840000D01*
X18500000Y24360000D01*
G37*
%TO.C,C10*%
X35859420Y46010000D02*
X36140580Y46010000D01*
X35859420Y44990000D02*
X36140580Y44990000D01*
%TO.C,R6*%
X35762742Y36522500D02*
X36237258Y36522500D01*
X35762742Y35477500D02*
X36237258Y35477500D01*
%TO.C,SW2*%
X39250000Y25000000D02*
X39250000Y23000000D01*
X40300000Y26300000D02*
X40750000Y26750000D01*
X40300000Y21700000D02*
X40750000Y21250000D01*
X40750000Y26750000D02*
X43250000Y26750000D01*
X40750000Y21250000D02*
X43250000Y21250000D01*
X43700000Y26300000D02*
X43250000Y26750000D01*
X43700000Y21700000D02*
X43250000Y21250000D01*
X44750000Y25000000D02*
X44750000Y23000000D01*
%TO.C,C3*%
X25059420Y37510000D02*
X25340580Y37510000D01*
X25059420Y36490000D02*
X25340580Y36490000D01*
%TO.C,R1*%
X21377500Y32762742D02*
X21377500Y33237258D01*
X22422500Y32762742D02*
X22422500Y33237258D01*
%TD*%
%LPC*%
D13*
%TO.C,C4*%
X24000000Y38495000D03*
X24000000Y40045000D03*
%TD*%
D14*
%TO.C,D1*%
X24000000Y28000000D03*
X24000000Y24000000D03*
%TD*%
D15*
%TO.C,D6*%
X38212500Y30000000D03*
X39787500Y30000000D03*
%TD*%
D16*
%TO.C,R18*%
X58975000Y39000000D03*
X60625000Y39000000D03*
%TD*%
D17*
%TO.C,U4*%
X54860000Y8862500D03*
X55810000Y8862500D03*
X56760000Y8862500D03*
X56760000Y11137500D03*
X55810000Y11137500D03*
X54860000Y11137500D03*
%TD*%
D16*
%TO.C,R2*%
X23475000Y34500000D03*
X25125000Y34500000D03*
%TD*%
%TO.C,R10*%
X19675000Y21000000D03*
X21325000Y21000000D03*
%TD*%
D18*
%TO.C,H1*%
X4000000Y46000000D03*
%TD*%
D19*
%TO.C,J3*%
X52000000Y6000000D03*
D20*
X54540000Y6000000D03*
X57080000Y6000000D03*
%TD*%
D21*
%TO.C,J1*%
X11000000Y11000000D03*
D22*
X13770000Y11000000D03*
X16540000Y11000000D03*
X19310000Y11000000D03*
X22080000Y11000000D03*
X12385000Y8160000D03*
X15155000Y8160000D03*
X17925000Y8160000D03*
X20695000Y8160000D03*
D23*
X4045001Y9580000D03*
X29035000Y9580000D03*
%TD*%
D24*
%TO.C,R4*%
X59000000Y44175000D03*
X59000000Y45825000D03*
%TD*%
D25*
%TO.C,C6*%
X30025000Y40500000D03*
X32975000Y40500000D03*
%TD*%
D26*
%TO.C,L1*%
X22925000Y44500000D03*
X27075000Y44500000D03*
%TD*%
D27*
%TO.C,C11*%
X60925000Y42400000D03*
X62475000Y42400000D03*
%TD*%
D28*
%TO.C,C1*%
X10500000Y36525000D03*
X10500000Y39475000D03*
%TD*%
D29*
%TO.C,C9*%
X34550000Y47800000D03*
X36450000Y47800000D03*
%TD*%
D16*
%TO.C,R9*%
X34175000Y30000000D03*
X35825000Y30000000D03*
%TD*%
D30*
%TO.C,R19*%
X60625000Y37000000D03*
X58975000Y37000000D03*
%TD*%
D25*
%TO.C,C7*%
X30025000Y36500000D03*
X32975000Y36500000D03*
%TD*%
%TO.C,C5*%
X30025000Y44500000D03*
X32975000Y44500000D03*
%TD*%
D31*
%TO.C,D3*%
X10000000Y27850000D03*
X10000000Y32150000D03*
%TD*%
D32*
%TO.C,C2*%
X13600000Y38320000D03*
X13600000Y40220000D03*
%TD*%
D33*
%TO.C,F1*%
X24000000Y16045000D03*
X24000000Y20955000D03*
%TD*%
D16*
%TO.C,R3*%
X35175000Y43200000D03*
X36825000Y43200000D03*
%TD*%
D34*
%TO.C,SW1*%
X27850000Y25900000D03*
X34150000Y25900000D03*
X27850000Y22100000D03*
X34150000Y22100000D03*
%TD*%
D27*
%TO.C,C8*%
X35225000Y40900000D03*
X36775000Y40900000D03*
%TD*%
D16*
%TO.C,R5*%
X35175000Y38500000D03*
X36825000Y38500000D03*
%TD*%
D18*
%TO.C,H3*%
X46000000Y18000000D03*
%TD*%
D35*
%TO.C,U1*%
X19000000Y38000000D03*
D36*
X16125000Y39905000D03*
X16125000Y38635000D03*
X16125000Y37365000D03*
X16125000Y36095000D03*
X21875000Y36095000D03*
X21875000Y37365000D03*
X21875000Y38635000D03*
X21875000Y39905000D03*
D37*
X18350000Y39300000D03*
X18350000Y38000000D03*
X18350000Y36700000D03*
X19650000Y39300000D03*
X19650000Y38000000D03*
X19650000Y36700000D03*
%TD*%
D13*
%TO.C,C12*%
X15065000Y26725000D03*
X15065000Y28275000D03*
%TD*%
D24*
%TO.C,R8*%
X62000000Y44375000D03*
X62000000Y46025000D03*
%TD*%
D16*
%TO.C,R7*%
X59175000Y47500000D03*
X60825000Y47500000D03*
%TD*%
D38*
%TO.C,U2*%
X39250000Y48000000D03*
X39250000Y46500000D03*
X39250000Y45000000D03*
X39250000Y43500000D03*
X39250000Y42000000D03*
X39250000Y40500000D03*
X39250000Y39000000D03*
X39250000Y37500000D03*
X39250000Y36000000D03*
X56750000Y36000000D03*
X56750000Y37500000D03*
X56750000Y39000000D03*
X56750000Y40500000D03*
X56750000Y42000000D03*
X56750000Y43500000D03*
X56750000Y45000000D03*
X56750000Y46500000D03*
X56750000Y48000000D03*
D39*
X47860000Y42350000D03*
X47860000Y41250000D03*
X48410000Y42900000D03*
X48410000Y41800000D03*
X48410000Y40700000D03*
X48960000Y42350000D03*
D40*
X48960000Y41800000D03*
D39*
X48960000Y41250000D03*
X49510000Y42900000D03*
X49510000Y41800000D03*
X49510000Y40700000D03*
X50060000Y42350000D03*
X50060000Y41250000D03*
%TD*%
D16*
%TO.C,R20*%
X53675000Y33000000D03*
X55325000Y33000000D03*
%TD*%
D13*
%TO.C,C14*%
X55810000Y13225000D03*
X55810000Y14775000D03*
%TD*%
D41*
%TO.C,C13*%
X11575000Y19500000D03*
X10025000Y19500000D03*
%TD*%
D42*
%TO.C,D4*%
X13550000Y14862500D03*
X15450000Y14862500D03*
X14500000Y16737500D03*
%TD*%
D43*
%TO.C,U3*%
X17605000Y24475000D03*
X16335000Y24475000D03*
X15065000Y24475000D03*
X13795000Y24475000D03*
X13795000Y19525000D03*
X15065000Y19525000D03*
X16335000Y19525000D03*
X17605000Y19525000D03*
%TD*%
D18*
%TO.C,H2*%
X39000000Y4000000D03*
%TD*%
D27*
%TO.C,C10*%
X35225000Y45500000D03*
X36775000Y45500000D03*
%TD*%
D16*
%TO.C,R6*%
X35175000Y36000000D03*
X36825000Y36000000D03*
%TD*%
D34*
%TO.C,SW2*%
X38850000Y25900000D03*
X45150000Y25900000D03*
X38850000Y22100000D03*
X45150000Y22100000D03*
%TD*%
D27*
%TO.C,C3*%
X24425000Y37000000D03*
X25975000Y37000000D03*
%TD*%
D24*
%TO.C,R1*%
X21900000Y32175000D03*
X21900000Y33825000D03*
%TD*%
%LPD*%
M02*
