M48
; DRILL file KiCad 10.0.6 date 2026-09-12T11:08:24
; FORMAT={-:-/ absolute / metric / decimal}
; #@! TF.CreationDate,2026-09-12T11:08:24+02:00
; #@! TF.GenerationSoftware,Kicad,Pcbnew,10.0.6
; #@! TF.FileFunction,Plated,1,4,PTH
FMAT,2
METRIC
; #@! TA.AperFunction,Plated,PTH,ViaDrill
T1C0.300
; #@! TA.AperFunction,Plated,PTH,ComponentDrill
T2C0.300
; #@! TA.AperFunction,Plated,PTH,ComponentDrill
T3C0.330
; #@! TA.AperFunction,Plated,PTH,ComponentDrill
T4C1.000
; #@! TA.AperFunction,Plated,PTH,ComponentDrill
T5C1.200
; #@! TA.AperFunction,Plated,PTH,ComponentDrill
T6C3.200
%
G90
G05
T1
X2.0Y48.0
X2.0Y43.0
X2.0Y33.0
X2.0Y28.0
X2.0Y23.0
X2.0Y18.0
X2.0Y13.0
X2.0Y3.0
X7.0Y48.0
X7.0Y43.0
X7.0Y33.0
X7.0Y28.0
X7.0Y23.0
X7.0Y18.0
X7.0Y13.0
X7.0Y3.0
X8.25Y32.15
X8.25Y27.85
X8.55Y39.475
X8.55Y36.525
X8.975Y19.5
X12.625Y19.5
X13.6Y41.32
X13.795Y21.1
X13.99Y28.275
X13.99Y26.725
X14.5Y15.7
X15.065Y22.9
X16.125Y40.755
X16.335Y26.05
X17.3Y41.4
X18.675Y21.0
X22.5Y28.0
X24.0Y14.5
X25.207Y30.5
X26.125Y34.5
X26.4Y22.1
X27.025Y37.0
X28.85Y44.5
X28.85Y40.5
X28.85Y36.5
X29.549Y23.85
X31.8Y44.5
X31.8Y40.5
X31.8Y36.5
X32.0Y48.0
X32.0Y33.0
X32.0Y23.0
X32.0Y18.0
X32.0Y13.0
X32.0Y3.0
X32.709Y29.773
X33.01Y27.314
X33.45Y47.8
X34.175Y45.5
X34.175Y43.2
X34.175Y38.5
X34.175Y36.0
X36.825Y42.025
X37.0Y33.0
X37.0Y28.0
X37.0Y23.0
X37.0Y18.0
X37.0Y13.0
X37.0Y3.0
X37.175Y30.0
X37.4Y22.1
X37.55Y47.8
X37.686Y39.85
X37.702Y44.45
X37.825Y45.5
X37.825Y40.9
X40.4Y46.5
X40.6Y48.0
X41.815Y45.394
X44.0Y48.0
X44.0Y43.0
X44.0Y33.0
X44.0Y28.0
X44.0Y18.0
X44.0Y13.0
X44.0Y3.0
X44.263Y24.104
X46.425Y10.825
X49.0Y48.0
X49.0Y33.0
X49.0Y28.0
X49.0Y23.0
X49.0Y18.0
X49.0Y13.0
X49.0Y3.0
X49.3Y14.65
X49.625Y7.0
X51.525Y13.825
X51.739Y7.741
X52.8Y7.855
X53.675Y33.0
X53.8Y11.137
X54.0Y3.4
X54.7Y13.225
X55.325Y33.0
X55.75Y2.3
X55.81Y7.8
X55.81Y6.9
X56.95Y14.775
X57.3Y2.3
X57.8Y11.137
X58.0Y4.2
X58.206Y46.685
X58.7Y35.6
X59.2Y7.855
X60.0Y18.0
X60.0Y13.0
X60.075Y44.175
X60.261Y7.741
X60.925Y46.025
X61.0Y39.0
X61.4Y36.4
X63.0Y48.0
X63.0Y3.0
X63.525Y42.4
X63.825Y12.5
T2
X47.86Y42.35
X47.86Y41.25
X48.41Y42.9
X48.41Y41.8
X48.41Y40.7
X48.96Y42.35
X48.96Y41.25
X49.51Y42.9
X49.51Y41.8
X49.51Y40.7
X50.06Y42.35
X50.06Y41.25
T3
X18.35Y39.3
X18.35Y38.0
X18.35Y36.7
X19.65Y39.3
X19.65Y38.0
X19.65Y36.7
T4
X52.0Y6.0
X54.54Y6.0
X57.08Y6.0
T5
X11.0Y11.0
X12.385Y8.16
X13.77Y11.0
X15.155Y8.16
X16.54Y11.0
X17.925Y8.16
X19.31Y11.0
X20.695Y8.16
X22.08Y11.0
T6
X4.045Y9.58
X29.035Y9.58
M30
