%TF.GenerationSoftware,KiCad,Pcbnew,10.0.6*%
%TF.CreationDate,2026-09-22T09:21:39+02:00*%
%TF.ProjectId,leaf-heat-v7,6c656166-2d68-4656-9174-2d76372e6b69,G.5*%
%TF.SameCoordinates,Original*%
%TF.FileFunction,Copper,L2,Inr*%
%TF.FilePolarity,Positive*%
%FSLAX46Y46*%
G04 Gerber Fmt 4.6, Leading zero omitted, Abs format (unit mm)*
G04 Created by KiCad (PCBNEW 10.0.6) date 2026-09-22 09:21:39*
%MOMM*%
%LPD*%
G01*
G04 APERTURE LIST*
G04 Aperture macros list*
%AMRoundRect*
0 Rectangle with rounded corners*
0 $1 Rounding radius*
0 $2 $3 $4 $5 $6 $7 $8 $9 X,Y pos of 4 corners*
0 Add a 4 corners polygon primitive as box body*
4,1,4,$2,$3,$4,$5,$6,$7,$8,$9,$2,$3,0*
0 Add four circle primitives for the rounded corners*
1,1,$1+$1,$2,$3*
1,1,$1+$1,$4,$5*
1,1,$1+$1,$6,$7*
1,1,$1+$1,$8,$9*
0 Add four rect primitives between the rounded corners*
20,1,$1+$1,$2,$3,$4,$5,0*
20,1,$1+$1,$4,$5,$6,$7,0*
20,1,$1+$1,$6,$7,$8,$9,0*
20,1,$1+$1,$8,$9,$2,$3,0*%
G04 Aperture macros list end*
%TA.AperFunction,ComponentPad*%
%ADD10C,2.000000*%
%TD*%
%TA.AperFunction,HeatsinkPad*%
%ADD11C,0.650000*%
%TD*%
%TA.AperFunction,ComponentPad*%
%ADD12C,3.000000*%
%TD*%
%TA.AperFunction,ComponentPad*%
%ADD13R,1.600000X1.600000*%
%TD*%
%TA.AperFunction,ComponentPad*%
%ADD14C,1.600000*%
%TD*%
%TA.AperFunction,ComponentPad*%
%ADD15C,4.000000*%
%TD*%
%TA.AperFunction,ComponentPad*%
%ADD16RoundRect,0.250000X-0.550000X-0.550000X0.550000X-0.550000X0.550000X0.550000X-0.550000X0.550000X0*%
%TD*%
%TA.AperFunction,ComponentPad*%
%ADD17C,0.630000*%
%TD*%
%TA.AperFunction,ComponentPad*%
%ADD18R,1.700000X1.700000*%
%TD*%
%TA.AperFunction,ComponentPad*%
%ADD19C,1.700000*%
%TD*%
%TA.AperFunction,ViaPad*%
%ADD20C,0.700000*%
%TD*%
%TA.AperFunction,ViaPad*%
%ADD21C,0.650000*%
%TD*%
G04 APERTURE END LIST*
D10*
%TO.N,/BOOT_IO9*%
%TO.C,SW2*%
X78000000Y35000000D03*
X84500000Y35000000D03*
%TO.N,/GND*%
X78000000Y30500000D03*
X84500000Y30500000D03*
%TD*%
D11*
%TO.N,/GND*%
%TO.C,U2*%
X72860000Y92350000D03*
X72860000Y91250000D03*
X73410000Y92900000D03*
X73410000Y91800000D03*
X73410000Y90700000D03*
X73960000Y92350000D03*
X73960000Y91250000D03*
X74510000Y92900000D03*
X74510000Y91800000D03*
X74510000Y90700000D03*
X75060000Y92350000D03*
X75060000Y91250000D03*
%TD*%
D12*
%TO.N,/3V3*%
%TO.C,TP4*%
X37000000Y58000000D03*
%TD*%
D13*
%TO.N,unconnected-(J1-Pad1)*%
%TO.C,J1*%
X16000000Y9000000D03*
D14*
%TO.N,/CAN_L*%
X18770000Y9000000D03*
%TO.N,/GND*%
X21540000Y9000000D03*
%TO.N,unconnected-(J1-Pad4)*%
X24310000Y9000000D03*
%TO.N,unconnected-(J1-Pad5)*%
X27080000Y9000000D03*
%TO.N,unconnected-(J1-Pad6)*%
X17385000Y6160000D03*
%TO.N,/CAN_H*%
X20155000Y6160000D03*
%TO.N,unconnected-(J1-Pad8)*%
X22925000Y6160000D03*
%TO.N,/CAR_12V*%
X25695000Y6160000D03*
D15*
%TO.N,/GND*%
X9045001Y7580000D03*
X34035000Y7580000D03*
%TD*%
D16*
%TO.N,/BULK_DAMPED*%
%TO.C,C15*%
X11000000Y68000000D03*
D14*
%TO.N,/GND*%
X13500000Y68000000D03*
%TD*%
D10*
%TO.N,/ESP_EN*%
%TO.C,SW1*%
X59000000Y35000000D03*
X65500000Y35000000D03*
%TO.N,/GND*%
X59000000Y30500000D03*
X65500000Y30500000D03*
%TD*%
D12*
%TO.N,/GND*%
%TO.C,TP1*%
X4000000Y66000000D03*
%TD*%
%TO.N,/CAR_12V*%
%TO.C,TP2*%
X49000000Y9000000D03*
%TD*%
%TO.N,/CAN_H*%
%TO.C,TP5*%
X9000000Y17000000D03*
%TD*%
%TO.N,/ESP_EN*%
%TO.C,TP7*%
X54000000Y32000000D03*
%TD*%
D17*
%TO.N,/GND*%
%TO.C,U1*%
X23350000Y82300000D03*
X23350000Y81000000D03*
X23350000Y79700000D03*
X24650000Y82300000D03*
X24650000Y81000000D03*
X24650000Y79700000D03*
%TD*%
D12*
%TO.N,/CAN_L*%
%TO.C,TP6*%
X9000000Y24000000D03*
%TD*%
D18*
%TO.N,/GND*%
%TO.C,J3*%
X73000000Y8000000D03*
D19*
%TO.N,/PROG_RX*%
X75540000Y8000000D03*
%TO.N,/PROG_TX*%
X78080000Y8000000D03*
%TD*%
D12*
%TO.N,/VPWR*%
%TO.C,TP3*%
X29000000Y47000000D03*
%TD*%
D20*
%TO.N,/VPWR*%
X7425000Y58450000D03*
X20000000Y62500000D03*
X7950000Y77500000D03*
X14075000Y64000000D03*
X41150000Y39850000D03*
X88100000Y84000000D03*
X41400000Y33000000D03*
X15000000Y79200000D03*
D21*
%TO.N,/BUCK_EN*%
X18383500Y80101300D03*
D20*
X13300000Y56000000D03*
X14800000Y53500000D03*
D21*
X20910000Y68264200D03*
%TO.N,/PROG_RX*%
X92020600Y44539000D03*
%TO.N,/UART_RX*%
X89450000Y44000000D03*
X83269900Y87500000D03*
X85556000Y50000700D03*
D20*
%TO.N,/GND*%
X20000000Y30000000D03*
X60000000Y60000000D03*
X24095000Y27175000D03*
X15075000Y23000000D03*
X60000000Y50000000D03*
X74700000Y72050000D03*
X3000000Y50000000D03*
X20000000Y60000000D03*
X60000000Y80000000D03*
X3000000Y10000000D03*
X88000000Y30000000D03*
X88000000Y80000000D03*
X89425000Y77550000D03*
X48000000Y80000000D03*
X97000000Y30000000D03*
X48000000Y97000000D03*
X75000000Y80000000D03*
X62800000Y86000000D03*
X54199999Y81000000D03*
X48000000Y90000000D03*
X88000000Y3000000D03*
X60000000Y10000000D03*
X20000000Y50000000D03*
X86600000Y79062500D03*
X60000000Y70000000D03*
X48000000Y50000000D03*
X43199999Y89000000D03*
X88000000Y60000000D03*
X80425000Y72050000D03*
X20000000Y3000000D03*
X75210000Y21562500D03*
X88000000Y10000000D03*
X97000000Y70000000D03*
X41150000Y44150000D03*
X75000000Y20000000D03*
X22900000Y18500000D03*
X8000000Y20000000D03*
X20000000Y40000000D03*
X35000000Y30000000D03*
X75000000Y97000000D03*
X3000000Y60000000D03*
X97000000Y40000000D03*
X27635000Y34850001D03*
X3000000Y40000000D03*
X43199999Y71000000D03*
X24765000Y39562500D03*
X75000000Y10000000D03*
X75000000Y70000000D03*
X75000000Y40000000D03*
X97000000Y20000000D03*
X3000000Y20000000D03*
X25200000Y51000000D03*
X88000000Y50000000D03*
X97000000Y50000000D03*
X20000000Y84500000D03*
X48000000Y40000000D03*
X3000000Y30000000D03*
X35000000Y40000000D03*
X91200000Y92000000D03*
X17200000Y47000000D03*
X75000000Y3000000D03*
X88000000Y70000000D03*
X74200000Y68000000D03*
X60000000Y20000000D03*
X48000000Y60000000D03*
X7425000Y54550000D03*
X8000000Y40000000D03*
X35000000Y50000000D03*
X48000000Y30000000D03*
X35000000Y20000000D03*
X48000000Y3000000D03*
X17200000Y64000000D03*
X7399999Y47562500D03*
X3000000Y3000000D03*
X35000000Y60000000D03*
X12000000Y85000000D03*
X75000000Y60000000D03*
X19800000Y54700000D03*
X76810000Y10500000D03*
X57574999Y97000000D03*
X75000000Y50000000D03*
X60000000Y40000000D03*
X48000000Y70000000D03*
X60000000Y3000000D03*
X88000000Y20000000D03*
X8000000Y30000000D03*
X65075000Y53000000D03*
X20700000Y58000000D03*
X15437500Y84000000D03*
X20000000Y20000000D03*
X27700000Y72450000D03*
X31500000Y75537500D03*
X43199999Y80000000D03*
X97000000Y90000000D03*
X48000000Y20000000D03*
X97000000Y60000000D03*
X8000000Y3000000D03*
X97000000Y10000000D03*
X88000000Y90000000D03*
X75000000Y30000000D03*
X88000000Y40000000D03*
X97000000Y80000000D03*
X51074999Y90000000D03*
X88000000Y97000000D03*
X8000000Y50000000D03*
%TO.N,/3V3*%
X55099999Y63000000D03*
X68100000Y63000000D03*
X77100000Y46000000D03*
X86600000Y75937500D03*
X54199999Y90000000D03*
X40074999Y89000000D03*
X51099999Y72000000D03*
X40074999Y71000000D03*
X60699999Y97000000D03*
X24765000Y36437500D03*
X74700000Y75950000D03*
X70500000Y60000000D03*
X75210000Y18437500D03*
X89425000Y63450000D03*
X18200000Y23000000D03*
X76810000Y15500000D03*
X26365000Y34850001D03*
X35099999Y24000000D03*
X40074999Y80000000D03*
X65700000Y98000000D03*
D21*
%TO.N,/ESP_EN*%
X54000000Y71567500D03*
%TO.N,/CAN_TX*%
X62856900Y36408800D03*
X66182800Y95252900D03*
%TO.N,/CAN_RX*%
X30606900Y43536100D03*
X24142300Y32825000D03*
X56695000Y51061100D03*
X65506100Y94193400D03*
%TO.N,/STATUS_LED*%
X52958400Y53000000D03*
X56465300Y85556000D03*
%TO.N,/BOOT_IO8*%
X60869900Y89000000D03*
X60869900Y62929900D03*
%TO.N,/UART_TX*%
X84622900Y55000000D03*
X84622900Y88788300D03*
%TO.N,/BOOT_IO2*%
X85556000Y66550000D03*
X85556000Y95000000D03*
%TO.N,/CAN_STB*%
X67189200Y19115400D03*
X79091400Y96500000D03*
D20*
%TO.N,/CAN_L*%
X25365000Y24265000D03*
%TO.N,/CAN_H*%
X26500000Y20365000D03*
%TO.N,/CAR_12V*%
X43000000Y12000000D03*
%TO.N,/UV_CTR*%
X20700000Y56000000D03*
X14000000Y47000000D03*
%TO.N,/UV_SENSE*%
X13300000Y57500000D03*
X7200000Y61550000D03*
X7200000Y51450000D03*
X23000000Y60550000D03*
%TO.N,/UV_CTS*%
X20000000Y57000000D03*
X23437500Y52600000D03*
%TD*%
%TA.AperFunction,Conductor*%
%TO.N,/GND*%
G36*
X58959191Y99480593D02*
G01*
X58995155Y99431093D01*
X59000000Y99400500D01*
X59000000Y99100000D01*
X59000001Y99100000D01*
X86999999Y99100000D01*
X87000000Y99100000D01*
X87000000Y99400500D01*
X87018907Y99458691D01*
X87068407Y99494655D01*
X87099000Y99499500D01*
X99400500Y99499500D01*
X99458691Y99480593D01*
X99494655Y99431093D01*
X99499500Y99400500D01*
X99499500Y599500D01*
X99480593Y541309D01*
X99431093Y505345D01*
X99400500Y500500D01*
X599500Y500500D01*
X541309Y519407D01*
X505345Y568907D01*
X500500Y599500D01*
X500500Y4125966D01*
X43399500Y4125966D01*
X43399500Y3874035D01*
X43438908Y3625220D01*
X43438910Y3625215D01*
X43516759Y3385621D01*
X43631130Y3161155D01*
X43779207Y2957344D01*
X43957344Y2779207D01*
X44161155Y2631130D01*
X44385621Y2516759D01*
X44625215Y2438910D01*
X44625216Y2438910D01*
X44625219Y2438909D01*
X44874035Y2399500D01*
X44874038Y2399500D01*
X45125965Y2399500D01*
X45374780Y2438909D01*
X45374781Y2438910D01*
X45374785Y2438910D01*
X45614379Y2516759D01*
X45838845Y2631130D01*
X46042656Y2779207D01*
X46220793Y2957344D01*
X46368870Y3161155D01*
X46483241Y3385621D01*
X46561090Y3625215D01*
X46600500Y3874038D01*
X46600500Y4125962D01*
X46600500Y4125966D01*
X94399500Y4125966D01*
X94399500Y3874035D01*
X94438908Y3625220D01*
X94438910Y3625215D01*
X94516759Y3385621D01*
X94631130Y3161155D01*
X94779207Y2957344D01*
X94957344Y2779207D01*
X95161155Y2631130D01*
X95385621Y2516759D01*
X95625215Y2438910D01*
X95625216Y2438910D01*
X95625219Y2438909D01*
X95874035Y2399500D01*
X95874038Y2399500D01*
X96125965Y2399500D01*
X96374780Y2438909D01*
X96374781Y2438910D01*
X96374785Y2438910D01*
X96614379Y2516759D01*
X96838845Y2631130D01*
X97042656Y2779207D01*
X97220793Y2957344D01*
X97368870Y3161155D01*
X97483241Y3385621D01*
X97561090Y3625215D01*
X97600500Y3874038D01*
X97600500Y4125962D01*
X97600500Y4125966D01*
X97561091Y4374781D01*
X97561090Y4374785D01*
X97483241Y4614379D01*
X97368870Y4838845D01*
X97220793Y5042656D01*
X97042656Y5220793D01*
X96838845Y5368870D01*
X96838844Y5368871D01*
X96838842Y5368872D01*
X96614379Y5483241D01*
X96374780Y5561092D01*
X96125965Y5600500D01*
X96125962Y5600500D01*
X95874038Y5600500D01*
X95874035Y5600500D01*
X95625219Y5561092D01*
X95385620Y5483241D01*
X95161157Y5368872D01*
X94957345Y5220794D01*
X94779206Y5042655D01*
X94631128Y4838843D01*
X94516759Y4614380D01*
X94438908Y4374781D01*
X94399500Y4125966D01*
X46600500Y4125966D01*
X46561091Y4374781D01*
X46561090Y4374785D01*
X46483241Y4614379D01*
X46368870Y4838845D01*
X46220793Y5042656D01*
X46042656Y5220793D01*
X45838845Y5368870D01*
X45838844Y5368871D01*
X45838842Y5368872D01*
X45614379Y5483241D01*
X45374780Y5561092D01*
X45125965Y5600500D01*
X45125962Y5600500D01*
X44874038Y5600500D01*
X44874035Y5600500D01*
X44625219Y5561092D01*
X44385620Y5483241D01*
X44161157Y5368872D01*
X43957345Y5220794D01*
X43779206Y5042655D01*
X43631128Y4838843D01*
X43516759Y4614380D01*
X43438908Y4374781D01*
X43399500Y4125966D01*
X500500Y4125966D01*
X500500Y7730751D01*
X6745001Y7730751D01*
X6745001Y7429250D01*
X6784354Y7130337D01*
X6784354Y7130332D01*
X6862387Y6839111D01*
X6862391Y6839098D01*
X6977765Y6560557D01*
X6977768Y6560552D01*
X7128516Y6299450D01*
X7312056Y6060255D01*
X7312589Y6059722D01*
X7810259Y6557393D01*
X7824589Y6537670D01*
X8002671Y6359588D01*
X8022392Y6345260D01*
X7524722Y5847589D01*
X7525255Y5847056D01*
X7764450Y5663516D01*
X8025552Y5512768D01*
X8025557Y5512765D01*
X8304098Y5397391D01*
X8304111Y5397387D01*
X8595334Y5319354D01*
X8894250Y5280001D01*
X8894252Y5280000D01*
X9195750Y5280000D01*
X9195751Y5280001D01*
X9494664Y5319354D01*
X9494669Y5319354D01*
X9785890Y5397387D01*
X9785903Y5397391D01*
X10064444Y5512765D01*
X10064449Y5512768D01*
X10325551Y5663516D01*
X10564742Y5847052D01*
X10565278Y5847590D01*
X10067608Y6345260D01*
X10087331Y6359588D01*
X10265413Y6537670D01*
X10279741Y6557393D01*
X10777411Y6059723D01*
X10777949Y6060259D01*
X10933876Y6263468D01*
X16334500Y6263468D01*
X16334500Y6056533D01*
X16374869Y5853582D01*
X16454058Y5662403D01*
X16569020Y5490349D01*
X16569023Y5490345D01*
X16715345Y5344023D01*
X16887402Y5229059D01*
X17078580Y5149870D01*
X17281535Y5109500D01*
X17281536Y5109500D01*
X17488464Y5109500D01*
X17488465Y5109500D01*
X17691420Y5149870D01*
X17882598Y5229059D01*
X18054655Y5344023D01*
X18200977Y5490345D01*
X18315941Y5662402D01*
X18395130Y5853580D01*
X18435500Y6056535D01*
X18435500Y6263465D01*
X18435499Y6263468D01*
X19104500Y6263468D01*
X19104500Y6056533D01*
X19144869Y5853582D01*
X19224058Y5662403D01*
X19339020Y5490349D01*
X19339023Y5490345D01*
X19485345Y5344023D01*
X19657402Y5229059D01*
X19848580Y5149870D01*
X20051535Y5109500D01*
X20051536Y5109500D01*
X20258464Y5109500D01*
X20258465Y5109500D01*
X20461420Y5149870D01*
X20652598Y5229059D01*
X20824655Y5344023D01*
X20970977Y5490345D01*
X21085941Y5662402D01*
X21165130Y5853580D01*
X21205500Y6056535D01*
X21205500Y6263465D01*
X21205499Y6263468D01*
X21874500Y6263468D01*
X21874500Y6056533D01*
X21914869Y5853582D01*
X21994058Y5662403D01*
X22109020Y5490349D01*
X22109023Y5490345D01*
X22255345Y5344023D01*
X22427402Y5229059D01*
X22618580Y5149870D01*
X22821535Y5109500D01*
X22821536Y5109500D01*
X23028464Y5109500D01*
X23028465Y5109500D01*
X23231420Y5149870D01*
X23422598Y5229059D01*
X23594655Y5344023D01*
X23740977Y5490345D01*
X23855941Y5662402D01*
X23935130Y5853580D01*
X23975500Y6056535D01*
X23975500Y6263465D01*
X23975499Y6263468D01*
X24644500Y6263468D01*
X24644500Y6056533D01*
X24684869Y5853582D01*
X24764058Y5662403D01*
X24879020Y5490349D01*
X24879023Y5490345D01*
X25025345Y5344023D01*
X25197402Y5229059D01*
X25388580Y5149870D01*
X25591535Y5109500D01*
X25591536Y5109500D01*
X25798464Y5109500D01*
X25798465Y5109500D01*
X26001420Y5149870D01*
X26192598Y5229059D01*
X26364655Y5344023D01*
X26510977Y5490345D01*
X26625941Y5662402D01*
X26705130Y5853580D01*
X26745500Y6056535D01*
X26745500Y6263465D01*
X26705130Y6466420D01*
X26625941Y6657598D01*
X26510977Y6829655D01*
X26364655Y6975977D01*
X26364651Y6975980D01*
X26192597Y7090942D01*
X26001418Y7170131D01*
X25798467Y7210500D01*
X25798465Y7210500D01*
X25591535Y7210500D01*
X25591532Y7210500D01*
X25388581Y7170131D01*
X25197402Y7090942D01*
X25025348Y6975980D01*
X24879020Y6829652D01*
X24764058Y6657598D01*
X24684869Y6466419D01*
X24644500Y6263468D01*
X23975499Y6263468D01*
X23935130Y6466420D01*
X23855941Y6657598D01*
X23740977Y6829655D01*
X23594655Y6975977D01*
X23594651Y6975980D01*
X23422597Y7090942D01*
X23231418Y7170131D01*
X23028467Y7210500D01*
X23028465Y7210500D01*
X22821535Y7210500D01*
X22821532Y7210500D01*
X22618581Y7170131D01*
X22427402Y7090942D01*
X22255348Y6975980D01*
X22109020Y6829652D01*
X21994058Y6657598D01*
X21914869Y6466419D01*
X21874500Y6263468D01*
X21205499Y6263468D01*
X21165130Y6466420D01*
X21085941Y6657598D01*
X20970977Y6829655D01*
X20824655Y6975977D01*
X20824651Y6975980D01*
X20652597Y7090942D01*
X20461418Y7170131D01*
X20258467Y7210500D01*
X20258465Y7210500D01*
X20051535Y7210500D01*
X20051532Y7210500D01*
X19848581Y7170131D01*
X19657402Y7090942D01*
X19485348Y6975980D01*
X19339020Y6829652D01*
X19224058Y6657598D01*
X19144869Y6466419D01*
X19104500Y6263468D01*
X18435499Y6263468D01*
X18395130Y6466420D01*
X18315941Y6657598D01*
X18200977Y6829655D01*
X18054655Y6975977D01*
X18054651Y6975980D01*
X17882597Y7090942D01*
X17691418Y7170131D01*
X17488467Y7210500D01*
X17488465Y7210500D01*
X17281535Y7210500D01*
X17281532Y7210500D01*
X17078581Y7170131D01*
X16887402Y7090942D01*
X16715348Y6975980D01*
X16569020Y6829652D01*
X16454058Y6657598D01*
X16374869Y6466419D01*
X16334500Y6263468D01*
X10933876Y6263468D01*
X10961483Y6299447D01*
X10972096Y6317828D01*
X10972096Y6317829D01*
X11112233Y6560552D01*
X11112236Y6560557D01*
X11227610Y6839098D01*
X11227614Y6839111D01*
X11305647Y7130332D01*
X11305647Y7130337D01*
X11345000Y7429250D01*
X11345001Y7429251D01*
X11345001Y7730749D01*
X11345000Y7730751D01*
X31735000Y7730751D01*
X31735000Y7429250D01*
X31774353Y7130337D01*
X31774353Y7130332D01*
X31852386Y6839111D01*
X31852390Y6839098D01*
X31967764Y6560557D01*
X31967767Y6560552D01*
X32118515Y6299450D01*
X32302055Y6060255D01*
X32302588Y6059722D01*
X32800258Y6557393D01*
X32814588Y6537670D01*
X32992670Y6359588D01*
X33012391Y6345260D01*
X32514721Y5847589D01*
X32515254Y5847056D01*
X32754449Y5663516D01*
X33015551Y5512768D01*
X33015556Y5512765D01*
X33294097Y5397391D01*
X33294110Y5397387D01*
X33585333Y5319354D01*
X33884249Y5280001D01*
X33884251Y5280000D01*
X34185749Y5280000D01*
X34185750Y5280001D01*
X34484663Y5319354D01*
X34484668Y5319354D01*
X34775889Y5397387D01*
X34775902Y5397391D01*
X35054443Y5512765D01*
X35054448Y5512768D01*
X35315550Y5663516D01*
X35554741Y5847052D01*
X35555277Y5847590D01*
X35057607Y6345260D01*
X35077330Y6359588D01*
X35255412Y6537670D01*
X35269740Y6557393D01*
X35767410Y6059723D01*
X35767948Y6060259D01*
X35951484Y6299450D01*
X36102232Y6560552D01*
X36102235Y6560557D01*
X36217609Y6839098D01*
X36217613Y6839111D01*
X36295646Y7130332D01*
X36295646Y7130337D01*
X36334999Y7429250D01*
X36335000Y7429251D01*
X36335000Y7730749D01*
X36334999Y7730751D01*
X36295646Y8029664D01*
X36295646Y8029669D01*
X36217613Y8320890D01*
X36217609Y8320903D01*
X36102235Y8599444D01*
X36102232Y8599449D01*
X35951484Y8860551D01*
X35800201Y9057708D01*
X35767944Y9099746D01*
X35767411Y9100279D01*
X35269740Y8602609D01*
X35255412Y8622330D01*
X35077330Y8800412D01*
X35057607Y8814742D01*
X35357601Y9114735D01*
X47249500Y9114735D01*
X47249500Y8885266D01*
X47279452Y8657762D01*
X47338841Y8436115D01*
X47426653Y8224117D01*
X47541388Y8025389D01*
X47599620Y7949500D01*
X47681081Y7843339D01*
X47843339Y7681081D01*
X48025388Y7541389D01*
X48224112Y7426656D01*
X48224113Y7426656D01*
X48224116Y7426654D01*
X48320167Y7386869D01*
X48436113Y7338842D01*
X48657762Y7279452D01*
X48885266Y7249500D01*
X48885267Y7249500D01*
X49114733Y7249500D01*
X49114734Y7249500D01*
X49342238Y7279452D01*
X49563887Y7338842D01*
X49775888Y7426656D01*
X49974612Y7541389D01*
X50156661Y7681081D01*
X50318919Y7843339D01*
X50458611Y8025388D01*
X50573344Y8224112D01*
X50661158Y8436113D01*
X50720548Y8657762D01*
X50750500Y8885266D01*
X50750500Y8894798D01*
X71850000Y8894798D01*
X71850000Y8150001D01*
X71850001Y8150000D01*
X72522555Y8150000D01*
X72500000Y8065826D01*
X72500000Y7934174D01*
X72522555Y7850000D01*
X71850002Y7850000D01*
X71850001Y7849999D01*
X71850001Y7105209D01*
X71852909Y7080126D01*
X71898213Y6977523D01*
X71977522Y6898214D01*
X72080127Y6852910D01*
X72105203Y6850001D01*
X72849998Y6850001D01*
X72850000Y6850002D01*
X72850000Y7522555D01*
X72934174Y7500000D01*
X73065826Y7500000D01*
X73150000Y7522555D01*
X73150000Y6850002D01*
X73150001Y6850001D01*
X73894790Y6850001D01*
X73894791Y6850002D01*
X73919874Y6852910D01*
X74022477Y6898214D01*
X74101786Y6977523D01*
X74147090Y7080128D01*
X74149999Y7105203D01*
X74150000Y7105205D01*
X74150000Y7849999D01*
X74149999Y7850000D01*
X73477445Y7850000D01*
X73500000Y7934174D01*
X73500000Y8065826D01*
X73494429Y8086615D01*
X74439500Y8086615D01*
X74439500Y7913386D01*
X74466597Y7742298D01*
X74466598Y7742294D01*
X74520123Y7577562D01*
X74520125Y7577559D01*
X74595691Y7429250D01*
X74598768Y7423212D01*
X74700586Y7283072D01*
X74823072Y7160586D01*
X74963212Y7058768D01*
X75117555Y6980127D01*
X75117557Y6980127D01*
X75117558Y6980126D01*
X75117561Y6980124D01*
X75282293Y6926599D01*
X75282297Y6926598D01*
X75453386Y6899500D01*
X75453389Y6899500D01*
X75626614Y6899500D01*
X75797702Y6926598D01*
X75797706Y6926599D01*
X75962438Y6980124D01*
X75962440Y6980126D01*
X75962445Y6980127D01*
X76116788Y7058768D01*
X76256928Y7160586D01*
X76379414Y7283072D01*
X76481232Y7423212D01*
X76559873Y7577555D01*
X76559874Y7577560D01*
X76559876Y7577562D01*
X76613401Y7742294D01*
X76613402Y7742298D01*
X76640500Y7913386D01*
X76640500Y8086615D01*
X76979500Y8086615D01*
X76979500Y7913386D01*
X77006597Y7742298D01*
X77006598Y7742294D01*
X77060123Y7577562D01*
X77060125Y7577559D01*
X77135691Y7429250D01*
X77138768Y7423212D01*
X77240586Y7283072D01*
X77363072Y7160586D01*
X77503212Y7058768D01*
X77657555Y6980127D01*
X77657557Y6980127D01*
X77657558Y6980126D01*
X77657561Y6980124D01*
X77822293Y6926599D01*
X77822297Y6926598D01*
X77993386Y6899500D01*
X77993389Y6899500D01*
X78166614Y6899500D01*
X78337702Y6926598D01*
X78337706Y6926599D01*
X78502438Y6980124D01*
X78502440Y6980126D01*
X78502445Y6980127D01*
X78656788Y7058768D01*
X78796928Y7160586D01*
X78919414Y7283072D01*
X79021232Y7423212D01*
X79099873Y7577555D01*
X79099874Y7577560D01*
X79099876Y7577562D01*
X79153401Y7742294D01*
X79153402Y7742298D01*
X79180500Y7913386D01*
X79180500Y8086615D01*
X79153402Y8257703D01*
X79153401Y8257707D01*
X79099876Y8422439D01*
X79099874Y8422442D01*
X79099873Y8422443D01*
X79099873Y8422445D01*
X79021232Y8576788D01*
X78919414Y8716928D01*
X78796928Y8839414D01*
X78656788Y8941232D01*
X78656787Y8941233D01*
X78656785Y8941234D01*
X78502441Y9019875D01*
X78502438Y9019877D01*
X78337706Y9073402D01*
X78337702Y9073403D01*
X78166614Y9100500D01*
X78166611Y9100500D01*
X77993389Y9100500D01*
X77993386Y9100500D01*
X77822297Y9073403D01*
X77822293Y9073402D01*
X77657561Y9019877D01*
X77657558Y9019875D01*
X77503214Y8941234D01*
X77363073Y8839415D01*
X77240585Y8716927D01*
X77138766Y8576786D01*
X77060125Y8422442D01*
X77060123Y8422439D01*
X77006598Y8257707D01*
X77006597Y8257703D01*
X76979500Y8086615D01*
X76640500Y8086615D01*
X76613402Y8257703D01*
X76613401Y8257707D01*
X76559876Y8422439D01*
X76559874Y8422442D01*
X76559873Y8422443D01*
X76559873Y8422445D01*
X76481232Y8576788D01*
X76379414Y8716928D01*
X76256928Y8839414D01*
X76116788Y8941232D01*
X76116787Y8941233D01*
X76116785Y8941234D01*
X75962441Y9019875D01*
X75962438Y9019877D01*
X75797706Y9073402D01*
X75797702Y9073403D01*
X75626614Y9100500D01*
X75626611Y9100500D01*
X75453389Y9100500D01*
X75453386Y9100500D01*
X75282297Y9073403D01*
X75282293Y9073402D01*
X75117561Y9019877D01*
X75117558Y9019875D01*
X74963214Y8941234D01*
X74823073Y8839415D01*
X74700585Y8716927D01*
X74598766Y8576786D01*
X74520125Y8422442D01*
X74520123Y8422439D01*
X74466598Y8257707D01*
X74466597Y8257703D01*
X74439500Y8086615D01*
X73494429Y8086615D01*
X73477445Y8150000D01*
X74149998Y8150000D01*
X74149999Y8150001D01*
X74149999Y8894790D01*
X74149998Y8894792D01*
X74147090Y8919875D01*
X74101786Y9022478D01*
X74022477Y9101787D01*
X73919872Y9147091D01*
X73894797Y9150000D01*
X73150001Y9150000D01*
X73150000Y9149999D01*
X73150000Y8477446D01*
X73065826Y8500000D01*
X72934174Y8500000D01*
X72850000Y8477446D01*
X72850000Y9149999D01*
X72849999Y9150000D01*
X72105210Y9150000D01*
X72105207Y9149999D01*
X72080125Y9147091D01*
X71977522Y9101787D01*
X71898213Y9022478D01*
X71852909Y8919873D01*
X71850000Y8894798D01*
X50750500Y8894798D01*
X50750500Y9114734D01*
X50720548Y9342238D01*
X50661158Y9563887D01*
X50578844Y9762610D01*
X50573346Y9775884D01*
X50550198Y9815977D01*
X50458611Y9974612D01*
X50318919Y10156661D01*
X50156661Y10318919D01*
X49974612Y10458611D01*
X49974613Y10458611D01*
X49974611Y10458612D01*
X49775883Y10573347D01*
X49563885Y10661159D01*
X49342238Y10720548D01*
X49114734Y10750500D01*
X48885266Y10750500D01*
X48885265Y10750500D01*
X48657761Y10720548D01*
X48436114Y10661159D01*
X48224116Y10573347D01*
X48025388Y10458612D01*
X47843342Y10318922D01*
X47681078Y10156658D01*
X47541388Y9974612D01*
X47426653Y9775884D01*
X47338841Y9563886D01*
X47279452Y9342239D01*
X47249500Y9114735D01*
X35357601Y9114735D01*
X35555278Y9312412D01*
X35554745Y9312945D01*
X35315550Y9496485D01*
X35054448Y9647233D01*
X35054443Y9647236D01*
X34775902Y9762610D01*
X34775889Y9762614D01*
X34484666Y9840647D01*
X34185750Y9880000D01*
X33884249Y9880000D01*
X33585336Y9840647D01*
X33585331Y9840647D01*
X33294110Y9762614D01*
X33294097Y9762610D01*
X33015556Y9647236D01*
X33015551Y9647233D01*
X32754449Y9496485D01*
X32515255Y9312946D01*
X32515252Y9312944D01*
X32514720Y9312413D01*
X33012392Y8814741D01*
X32992670Y8800412D01*
X32814588Y8622330D01*
X32800259Y8602608D01*
X32302587Y9100280D01*
X32302056Y9099748D01*
X32302054Y9099745D01*
X32118515Y8860551D01*
X31967767Y8599449D01*
X31967764Y8599444D01*
X31852390Y8320903D01*
X31852386Y8320890D01*
X31774353Y8029669D01*
X31774353Y8029664D01*
X31735000Y7730751D01*
X11345000Y7730751D01*
X11305647Y8029664D01*
X11305647Y8029669D01*
X11227614Y8320890D01*
X11227610Y8320903D01*
X11112236Y8599444D01*
X11112233Y8599449D01*
X10961485Y8860551D01*
X10777945Y9099746D01*
X10777412Y9100279D01*
X10279741Y8602609D01*
X10265413Y8622330D01*
X10087331Y8800412D01*
X10067608Y8814742D01*
X10565279Y9312412D01*
X10564746Y9312945D01*
X10325551Y9496485D01*
X10064449Y9647233D01*
X10064444Y9647236D01*
X9845138Y9738074D01*
X9785903Y9762610D01*
X9785890Y9762614D01*
X9554283Y9824673D01*
X14949500Y9824673D01*
X14949500Y8175328D01*
X14949501Y8175316D01*
X14964033Y8102264D01*
X14964035Y8102258D01*
X15019397Y8019401D01*
X15019399Y8019399D01*
X15102260Y7964034D01*
X15157808Y7952985D01*
X15175315Y7949502D01*
X15175320Y7949502D01*
X15175326Y7949500D01*
X15175327Y7949500D01*
X16824673Y7949500D01*
X16824674Y7949500D01*
X16897740Y7964034D01*
X16980601Y8019399D01*
X17035966Y8102260D01*
X17050500Y8175326D01*
X17050500Y9103468D01*
X17719500Y9103468D01*
X17719500Y8896533D01*
X17759869Y8693582D01*
X17839058Y8502403D01*
X17907415Y8400099D01*
X17954023Y8330345D01*
X18100345Y8184023D01*
X18272402Y8069059D01*
X18463580Y7989870D01*
X18666535Y7949500D01*
X18666536Y7949500D01*
X18873464Y7949500D01*
X18873465Y7949500D01*
X19076420Y7989870D01*
X19267598Y8069059D01*
X19439655Y8184023D01*
X19585977Y8330345D01*
X19700941Y8502402D01*
X19780130Y8693580D01*
X19820500Y8896535D01*
X19820500Y9086576D01*
X20440000Y9086576D01*
X20440000Y8913425D01*
X20467084Y8742421D01*
X20520588Y8577752D01*
X20599195Y8423476D01*
X20599197Y8423472D01*
X20663219Y8335354D01*
X21023123Y8695259D01*
X21059881Y8631592D01*
X21171592Y8519881D01*
X21235255Y8483125D01*
X20875352Y8123222D01*
X20963477Y8059195D01*
X21117751Y7980589D01*
X21282420Y7927085D01*
X21453425Y7900000D01*
X21626575Y7900000D01*
X21797579Y7927085D01*
X21962248Y7980589D01*
X22116524Y8059196D01*
X22116530Y8059200D01*
X22204646Y8123221D01*
X22204646Y8123222D01*
X21844743Y8483124D01*
X21908408Y8519881D01*
X22020119Y8631592D01*
X22056876Y8695257D01*
X22416778Y8335354D01*
X22416779Y8335354D01*
X22480800Y8423470D01*
X22480804Y8423476D01*
X22559411Y8577752D01*
X22612915Y8742421D01*
X22640000Y8913425D01*
X22640000Y9086571D01*
X22639007Y9092838D01*
X22639007Y9092842D01*
X22637324Y9103468D01*
X23259500Y9103468D01*
X23259500Y8896533D01*
X23299869Y8693582D01*
X23379058Y8502403D01*
X23447415Y8400099D01*
X23494023Y8330345D01*
X23640345Y8184023D01*
X23812402Y8069059D01*
X24003580Y7989870D01*
X24206535Y7949500D01*
X24206536Y7949500D01*
X24413464Y7949500D01*
X24413465Y7949500D01*
X24616420Y7989870D01*
X24807598Y8069059D01*
X24979655Y8184023D01*
X25125977Y8330345D01*
X25240941Y8502402D01*
X25320130Y8693580D01*
X25360500Y8896535D01*
X25360500Y9103465D01*
X25360499Y9103468D01*
X26029500Y9103468D01*
X26029500Y8896533D01*
X26069869Y8693582D01*
X26149058Y8502403D01*
X26217415Y8400099D01*
X26264023Y8330345D01*
X26410345Y8184023D01*
X26582402Y8069059D01*
X26773580Y7989870D01*
X26976535Y7949500D01*
X26976536Y7949500D01*
X27183464Y7949500D01*
X27183465Y7949500D01*
X27386420Y7989870D01*
X27577598Y8069059D01*
X27749655Y8184023D01*
X27895977Y8330345D01*
X28010941Y8502402D01*
X28090130Y8693580D01*
X28130500Y8896535D01*
X28130500Y9103465D01*
X28090130Y9306420D01*
X28010941Y9497598D01*
X27895977Y9669655D01*
X27749655Y9815977D01*
X27749651Y9815980D01*
X27577597Y9930942D01*
X27386418Y10010131D01*
X27183467Y10050500D01*
X27183465Y10050500D01*
X26976535Y10050500D01*
X26976532Y10050500D01*
X26773581Y10010131D01*
X26582402Y9930942D01*
X26410348Y9815980D01*
X26264020Y9669652D01*
X26149058Y9497598D01*
X26069869Y9306419D01*
X26029500Y9103468D01*
X25360499Y9103468D01*
X25320130Y9306420D01*
X25240941Y9497598D01*
X25125977Y9669655D01*
X24979655Y9815977D01*
X24979651Y9815980D01*
X24807597Y9930942D01*
X24616418Y10010131D01*
X24413467Y10050500D01*
X24413465Y10050500D01*
X24206535Y10050500D01*
X24206532Y10050500D01*
X24003581Y10010131D01*
X23812402Y9930942D01*
X23640348Y9815980D01*
X23494020Y9669652D01*
X23379058Y9497598D01*
X23299869Y9306419D01*
X23259500Y9103468D01*
X22637324Y9103468D01*
X22612915Y9257580D01*
X22559411Y9422249D01*
X22480805Y9576523D01*
X22416778Y9664648D01*
X22056875Y9304745D01*
X22020119Y9368408D01*
X21908408Y9480119D01*
X21844741Y9516877D01*
X22204646Y9876781D01*
X22116528Y9940803D01*
X22116524Y9940805D01*
X21962248Y10019412D01*
X21797579Y10072916D01*
X21626575Y10100000D01*
X21453425Y10100000D01*
X21282420Y10072916D01*
X21117751Y10019412D01*
X20963476Y9940805D01*
X20875352Y9876781D01*
X21235256Y9516877D01*
X21171592Y9480119D01*
X21059881Y9368408D01*
X21023123Y9304744D01*
X20663219Y9664648D01*
X20599195Y9576524D01*
X20520588Y9422249D01*
X20467084Y9257580D01*
X20440000Y9086576D01*
X19820500Y9086576D01*
X19820500Y9103465D01*
X19780130Y9306420D01*
X19700941Y9497598D01*
X19585977Y9669655D01*
X19439655Y9815977D01*
X19439651Y9815980D01*
X19267597Y9930942D01*
X19076418Y10010131D01*
X18873467Y10050500D01*
X18873465Y10050500D01*
X18666535Y10050500D01*
X18666532Y10050500D01*
X18463581Y10010131D01*
X18272402Y9930942D01*
X18100348Y9815980D01*
X17954020Y9669652D01*
X17839058Y9497598D01*
X17759869Y9306419D01*
X17719500Y9103468D01*
X17050500Y9103468D01*
X17050500Y9824674D01*
X17035966Y9897740D01*
X17007193Y9940803D01*
X16980602Y9980600D01*
X16980599Y9980603D01*
X16897742Y10035965D01*
X16897740Y10035966D01*
X16897737Y10035967D01*
X16897736Y10035967D01*
X16824684Y10050499D01*
X16824674Y10050500D01*
X15175326Y10050500D01*
X15175325Y10050500D01*
X15175315Y10050499D01*
X15102263Y10035967D01*
X15102257Y10035965D01*
X15019400Y9980603D01*
X15019397Y9980600D01*
X14964035Y9897743D01*
X14964033Y9897737D01*
X14949501Y9824685D01*
X14949500Y9824673D01*
X9554283Y9824673D01*
X9494667Y9840647D01*
X9195751Y9880000D01*
X8894250Y9880000D01*
X8595337Y9840647D01*
X8595332Y9840647D01*
X8304111Y9762614D01*
X8304098Y9762610D01*
X8025557Y9647236D01*
X8025552Y9647233D01*
X7764450Y9496485D01*
X7525256Y9312946D01*
X7525253Y9312944D01*
X7524721Y9312413D01*
X8022393Y8814741D01*
X8002671Y8800412D01*
X7824589Y8622330D01*
X7810260Y8602608D01*
X7312588Y9100280D01*
X7312057Y9099748D01*
X7312055Y9099745D01*
X7128516Y8860551D01*
X6977768Y8599449D01*
X6977765Y8599444D01*
X6862391Y8320903D01*
X6862387Y8320890D01*
X6784354Y8029669D01*
X6784354Y8029664D01*
X6745001Y7730751D01*
X500500Y7730751D01*
X500500Y12079057D01*
X42399500Y12079057D01*
X42399500Y11920943D01*
X42440423Y11768216D01*
X42519480Y11631284D01*
X42631284Y11519480D01*
X42768216Y11440423D01*
X42920943Y11399500D01*
X42920945Y11399500D01*
X43079055Y11399500D01*
X43079057Y11399500D01*
X43231784Y11440423D01*
X43368716Y11519480D01*
X43480520Y11631284D01*
X43559577Y11768216D01*
X43600500Y11920943D01*
X43600500Y12079057D01*
X43559577Y12231784D01*
X43480520Y12368716D01*
X43368716Y12480520D01*
X43231784Y12559577D01*
X43079057Y12600500D01*
X42920943Y12600500D01*
X42768216Y12559577D01*
X42631284Y12480520D01*
X42519480Y12368716D01*
X42440423Y12231784D01*
X42399500Y12079057D01*
X500500Y12079057D01*
X500500Y17114735D01*
X7249500Y17114735D01*
X7249500Y16885266D01*
X7279452Y16657762D01*
X7338841Y16436115D01*
X7426653Y16224117D01*
X7541388Y16025389D01*
X7649010Y15885135D01*
X7681081Y15843339D01*
X7843339Y15681081D01*
X8025388Y15541389D01*
X8224112Y15426656D01*
X8224113Y15426656D01*
X8224116Y15426654D01*
X8237904Y15420943D01*
X8436113Y15338842D01*
X8657762Y15279452D01*
X8885266Y15249500D01*
X8885267Y15249500D01*
X9114733Y15249500D01*
X9114734Y15249500D01*
X9342238Y15279452D01*
X9563887Y15338842D01*
X9775888Y15426656D01*
X9974612Y15541389D01*
X10023702Y15579057D01*
X76209500Y15579057D01*
X76209500Y15420943D01*
X76250423Y15268216D01*
X76329480Y15131284D01*
X76441284Y15019480D01*
X76578216Y14940423D01*
X76730943Y14899500D01*
X76730945Y14899500D01*
X76889055Y14899500D01*
X76889057Y14899500D01*
X77041784Y14940423D01*
X77178716Y15019480D01*
X77290520Y15131284D01*
X77369577Y15268216D01*
X77410500Y15420943D01*
X77410500Y15579057D01*
X77369577Y15731784D01*
X77290520Y15868716D01*
X77178716Y15980520D01*
X77041784Y16059577D01*
X76889057Y16100500D01*
X76730943Y16100500D01*
X76578216Y16059577D01*
X76441284Y15980520D01*
X76329480Y15868716D01*
X76250423Y15731784D01*
X76209500Y15579057D01*
X10023702Y15579057D01*
X10156661Y15681081D01*
X10318919Y15843339D01*
X10458611Y16025388D01*
X10573344Y16224112D01*
X10661158Y16436113D01*
X10720548Y16657762D01*
X10750500Y16885266D01*
X10750500Y17114734D01*
X10720548Y17342238D01*
X10661158Y17563887D01*
X10573344Y17775888D01*
X10458611Y17974612D01*
X10318919Y18156661D01*
X10156661Y18318919D01*
X9974612Y18458611D01*
X9974613Y18458611D01*
X9974611Y18458612D01*
X9874247Y18516557D01*
X74609500Y18516557D01*
X74609500Y18358443D01*
X74650423Y18205716D01*
X74729480Y18068784D01*
X74841284Y17956980D01*
X74978216Y17877923D01*
X75130943Y17837000D01*
X75130945Y17837000D01*
X75289055Y17837000D01*
X75289057Y17837000D01*
X75441784Y17877923D01*
X75578716Y17956980D01*
X75690520Y18068784D01*
X75769577Y18205716D01*
X75810500Y18358443D01*
X75810500Y18516557D01*
X75769577Y18669284D01*
X75690520Y18806216D01*
X75578716Y18918020D01*
X75441784Y18997077D01*
X75289057Y19038000D01*
X75130943Y19038000D01*
X74978216Y18997077D01*
X74841284Y18918020D01*
X74729480Y18806216D01*
X74650423Y18669284D01*
X74609500Y18516557D01*
X9874247Y18516557D01*
X9775883Y18573347D01*
X9563885Y18661159D01*
X9342238Y18720548D01*
X9114734Y18750500D01*
X8885266Y18750500D01*
X8885265Y18750500D01*
X8657761Y18720548D01*
X8436114Y18661159D01*
X8224116Y18573347D01*
X8025388Y18458612D01*
X7843342Y18318922D01*
X7681078Y18156658D01*
X7541388Y17974612D01*
X7426653Y17775884D01*
X7338841Y17563886D01*
X7279452Y17342239D01*
X7249500Y17114735D01*
X500500Y17114735D01*
X500500Y19191166D01*
X66613700Y19191166D01*
X66613700Y19039634D01*
X66614138Y19038000D01*
X66652920Y18893261D01*
X66728681Y18762040D01*
X66728683Y18762038D01*
X66728685Y18762035D01*
X66835835Y18654885D01*
X66835837Y18654884D01*
X66835839Y18654882D01*
X66967061Y18579121D01*
X66967059Y18579121D01*
X66967063Y18579120D01*
X66967065Y18579119D01*
X67113434Y18539900D01*
X67113436Y18539900D01*
X67264964Y18539900D01*
X67264966Y18539900D01*
X67411335Y18579119D01*
X67411337Y18579121D01*
X67411339Y18579121D01*
X67462714Y18608782D01*
X67542560Y18654882D01*
X67542560Y18654883D01*
X67542565Y18654885D01*
X67649715Y18762035D01*
X67725481Y18893265D01*
X67764700Y19039634D01*
X67764700Y19191166D01*
X67725481Y19337535D01*
X67725479Y19337538D01*
X67725479Y19337540D01*
X67649718Y19468761D01*
X67649716Y19468763D01*
X67649715Y19468765D01*
X67542565Y19575915D01*
X67542562Y19575917D01*
X67542560Y19575919D01*
X67411338Y19651680D01*
X67411340Y19651680D01*
X67354547Y19666897D01*
X67264966Y19690900D01*
X67113434Y19690900D01*
X67023852Y19666897D01*
X66967060Y19651680D01*
X66835839Y19575919D01*
X66728681Y19468761D01*
X66652920Y19337540D01*
X66652919Y19337535D01*
X66613700Y19191166D01*
X500500Y19191166D01*
X500500Y20444057D01*
X25899500Y20444057D01*
X25899500Y20285943D01*
X25940423Y20133216D01*
X26019480Y19996284D01*
X26131284Y19884480D01*
X26268216Y19805423D01*
X26420943Y19764500D01*
X26420945Y19764500D01*
X26579055Y19764500D01*
X26579057Y19764500D01*
X26731784Y19805423D01*
X26868716Y19884480D01*
X26980520Y19996284D01*
X27059577Y20133216D01*
X27100500Y20285943D01*
X27100500Y20444057D01*
X27059577Y20596784D01*
X26980520Y20733716D01*
X26868716Y20845520D01*
X26731784Y20924577D01*
X26579057Y20965500D01*
X26420943Y20965500D01*
X26268216Y20924577D01*
X26131284Y20845520D01*
X26019480Y20733716D01*
X25940423Y20596784D01*
X25899500Y20444057D01*
X500500Y20444057D01*
X500500Y24114735D01*
X7249500Y24114735D01*
X7249500Y23885266D01*
X7279452Y23657762D01*
X7338841Y23436115D01*
X7426653Y23224117D01*
X7426656Y23224111D01*
X7541389Y23025388D01*
X7681081Y22843339D01*
X7843339Y22681081D01*
X8025388Y22541389D01*
X8224112Y22426656D01*
X8224113Y22426656D01*
X8224116Y22426654D01*
X8289672Y22399500D01*
X8436113Y22338842D01*
X8657762Y22279452D01*
X8885266Y22249500D01*
X8885267Y22249500D01*
X9114733Y22249500D01*
X9114734Y22249500D01*
X9342238Y22279452D01*
X9563887Y22338842D01*
X9775888Y22426656D01*
X9974612Y22541389D01*
X10156661Y22681081D01*
X10318919Y22843339D01*
X10458611Y23025388D01*
X10489597Y23079057D01*
X17599500Y23079057D01*
X17599500Y22920943D01*
X17640423Y22768216D01*
X17719480Y22631284D01*
X17831284Y22519480D01*
X17968216Y22440423D01*
X18120943Y22399500D01*
X18120945Y22399500D01*
X18279055Y22399500D01*
X18279057Y22399500D01*
X18431784Y22440423D01*
X18568716Y22519480D01*
X18680520Y22631284D01*
X18759577Y22768216D01*
X18800500Y22920943D01*
X18800500Y23079057D01*
X18759577Y23231784D01*
X18680520Y23368716D01*
X18568716Y23480520D01*
X18431784Y23559577D01*
X18279057Y23600500D01*
X18120943Y23600500D01*
X17968216Y23559577D01*
X17831284Y23480520D01*
X17719480Y23368716D01*
X17640423Y23231784D01*
X17599500Y23079057D01*
X10489597Y23079057D01*
X10573344Y23224112D01*
X10661158Y23436113D01*
X10720548Y23657762D01*
X10750500Y23885266D01*
X10750500Y24114734D01*
X10720548Y24342238D01*
X10720061Y24344057D01*
X24764500Y24344057D01*
X24764500Y24185943D01*
X24805423Y24033216D01*
X24884480Y23896284D01*
X24996284Y23784480D01*
X25133216Y23705423D01*
X25285943Y23664500D01*
X25285945Y23664500D01*
X25444055Y23664500D01*
X25444057Y23664500D01*
X25596784Y23705423D01*
X25733716Y23784480D01*
X25845520Y23896284D01*
X25924577Y24033216D01*
X25936860Y24079057D01*
X34499499Y24079057D01*
X34499499Y23920943D01*
X34540422Y23768216D01*
X34619479Y23631284D01*
X34731283Y23519480D01*
X34868215Y23440423D01*
X35020942Y23399500D01*
X35020944Y23399500D01*
X35179054Y23399500D01*
X35179056Y23399500D01*
X35331783Y23440423D01*
X35468715Y23519480D01*
X35580519Y23631284D01*
X35659576Y23768216D01*
X35700499Y23920943D01*
X35700499Y24079057D01*
X35659576Y24231784D01*
X35580519Y24368716D01*
X35468715Y24480520D01*
X35331783Y24559577D01*
X35179056Y24600500D01*
X35020942Y24600500D01*
X34868215Y24559577D01*
X34731283Y24480520D01*
X34619479Y24368716D01*
X34540422Y24231784D01*
X34499499Y24079057D01*
X25936860Y24079057D01*
X25965500Y24185943D01*
X25965500Y24344057D01*
X25924577Y24496784D01*
X25845520Y24633716D01*
X25733716Y24745520D01*
X25596784Y24824577D01*
X25444057Y24865500D01*
X25285943Y24865500D01*
X25133216Y24824577D01*
X24996284Y24745520D01*
X24884480Y24633716D01*
X24805423Y24496784D01*
X24764500Y24344057D01*
X10720061Y24344057D01*
X10661158Y24563887D01*
X10573344Y24775888D01*
X10458611Y24974612D01*
X10318919Y25156661D01*
X10156661Y25318919D01*
X9974612Y25458611D01*
X9974613Y25458611D01*
X9974611Y25458612D01*
X9775883Y25573347D01*
X9563885Y25661159D01*
X9342238Y25720548D01*
X9114734Y25750500D01*
X8885266Y25750500D01*
X8885265Y25750500D01*
X8657761Y25720548D01*
X8436114Y25661159D01*
X8224116Y25573347D01*
X8025388Y25458612D01*
X7843342Y25318922D01*
X7681078Y25156658D01*
X7541388Y24974612D01*
X7426653Y24775884D01*
X7338841Y24563886D01*
X7279452Y24342239D01*
X7249500Y24114735D01*
X500500Y24114735D01*
X500500Y32114735D01*
X52249500Y32114735D01*
X52249500Y31885266D01*
X52279452Y31657762D01*
X52338841Y31436115D01*
X52426653Y31224117D01*
X52541388Y31025389D01*
X52649010Y30885135D01*
X52681081Y30843339D01*
X52843339Y30681081D01*
X53025388Y30541389D01*
X53224112Y30426656D01*
X53224113Y30426656D01*
X53224116Y30426654D01*
X53294054Y30397685D01*
X53436113Y30338842D01*
X53657762Y30279452D01*
X53885266Y30249500D01*
X53885267Y30249500D01*
X54114733Y30249500D01*
X54114734Y30249500D01*
X54342238Y30279452D01*
X54563887Y30338842D01*
X54775888Y30426656D01*
X54974612Y30541389D01*
X55054013Y30602316D01*
X57700000Y30602316D01*
X57700000Y30397685D01*
X57732008Y30195588D01*
X57795243Y30000973D01*
X57888139Y29818652D01*
X57888141Y29818648D01*
X57980034Y29692169D01*
X58519725Y30231861D01*
X58559890Y30162292D01*
X58662292Y30059890D01*
X58731857Y30019727D01*
X58192166Y29480037D01*
X58318653Y29388139D01*
X58500972Y29295244D01*
X58695587Y29232009D01*
X58897685Y29200000D01*
X59102315Y29200000D01*
X59304412Y29232009D01*
X59499027Y29295244D01*
X59681348Y29388140D01*
X59681354Y29388144D01*
X59807831Y29480036D01*
X59807831Y29480037D01*
X59268141Y30019727D01*
X59337708Y30059890D01*
X59440110Y30162292D01*
X59480273Y30231859D01*
X60019963Y29692169D01*
X60019964Y29692169D01*
X60111856Y29818646D01*
X60111860Y29818652D01*
X60204756Y30000973D01*
X60267991Y30195588D01*
X60300000Y30397685D01*
X60300000Y30602316D01*
X64200000Y30602316D01*
X64200000Y30397685D01*
X64232008Y30195588D01*
X64295243Y30000973D01*
X64388139Y29818652D01*
X64388141Y29818648D01*
X64480034Y29692169D01*
X65019725Y30231861D01*
X65059890Y30162292D01*
X65162292Y30059890D01*
X65231857Y30019727D01*
X64692166Y29480037D01*
X64818653Y29388139D01*
X65000972Y29295244D01*
X65195587Y29232009D01*
X65397685Y29200000D01*
X65602315Y29200000D01*
X65804412Y29232009D01*
X65999027Y29295244D01*
X66181348Y29388140D01*
X66181354Y29388144D01*
X66307831Y29480036D01*
X66307831Y29480037D01*
X65768141Y30019727D01*
X65837708Y30059890D01*
X65940110Y30162292D01*
X65980273Y30231859D01*
X66519963Y29692169D01*
X66519964Y29692169D01*
X66611856Y29818646D01*
X66611860Y29818652D01*
X66704756Y30000973D01*
X66767991Y30195588D01*
X66800000Y30397685D01*
X66800000Y30602316D01*
X76700000Y30602316D01*
X76700000Y30397685D01*
X76732008Y30195588D01*
X76795243Y30000973D01*
X76888139Y29818652D01*
X76888141Y29818648D01*
X76980034Y29692169D01*
X77519725Y30231861D01*
X77559890Y30162292D01*
X77662292Y30059890D01*
X77731857Y30019727D01*
X77192166Y29480037D01*
X77318653Y29388139D01*
X77500972Y29295244D01*
X77695587Y29232009D01*
X77897685Y29200000D01*
X78102315Y29200000D01*
X78304412Y29232009D01*
X78499027Y29295244D01*
X78681348Y29388140D01*
X78681354Y29388144D01*
X78807831Y29480036D01*
X78807831Y29480037D01*
X78268141Y30019727D01*
X78337708Y30059890D01*
X78440110Y30162292D01*
X78480273Y30231859D01*
X79019963Y29692169D01*
X79019964Y29692169D01*
X79111856Y29818646D01*
X79111860Y29818652D01*
X79204756Y30000973D01*
X79267991Y30195588D01*
X79300000Y30397685D01*
X79300000Y30602316D01*
X83200000Y30602316D01*
X83200000Y30397685D01*
X83232008Y30195588D01*
X83295243Y30000973D01*
X83388139Y29818652D01*
X83388141Y29818648D01*
X83480034Y29692169D01*
X84019725Y30231861D01*
X84059890Y30162292D01*
X84162292Y30059890D01*
X84231857Y30019727D01*
X83692166Y29480037D01*
X83818653Y29388139D01*
X84000972Y29295244D01*
X84195587Y29232009D01*
X84397685Y29200000D01*
X84602315Y29200000D01*
X84804412Y29232009D01*
X84999027Y29295244D01*
X85181348Y29388140D01*
X85181354Y29388144D01*
X85307831Y29480036D01*
X85307831Y29480037D01*
X84768141Y30019727D01*
X84837708Y30059890D01*
X84940110Y30162292D01*
X84980273Y30231859D01*
X85519963Y29692169D01*
X85519964Y29692169D01*
X85611856Y29818646D01*
X85611860Y29818652D01*
X85704756Y30000973D01*
X85767991Y30195588D01*
X85800000Y30397685D01*
X85800000Y30602316D01*
X85767991Y30804413D01*
X85704756Y30999028D01*
X85611861Y31181347D01*
X85519963Y31307833D01*
X84980273Y30768143D01*
X84940110Y30837708D01*
X84837708Y30940110D01*
X84768139Y30980275D01*
X85307831Y31519966D01*
X85181352Y31611859D01*
X85181348Y31611861D01*
X84999027Y31704757D01*
X84804412Y31767992D01*
X84602315Y31800000D01*
X84397685Y31800000D01*
X84195587Y31767992D01*
X84000972Y31704757D01*
X83818651Y31611861D01*
X83818647Y31611859D01*
X83692167Y31519966D01*
X84231859Y30980274D01*
X84162292Y30940110D01*
X84059890Y30837708D01*
X84019726Y30768141D01*
X83480034Y31307833D01*
X83388141Y31181353D01*
X83388139Y31181349D01*
X83295243Y30999028D01*
X83232008Y30804413D01*
X83200000Y30602316D01*
X79300000Y30602316D01*
X79267991Y30804413D01*
X79204756Y30999028D01*
X79111861Y31181347D01*
X79019963Y31307833D01*
X78480273Y30768143D01*
X78440110Y30837708D01*
X78337708Y30940110D01*
X78268139Y30980275D01*
X78807831Y31519966D01*
X78681352Y31611859D01*
X78681348Y31611861D01*
X78499027Y31704757D01*
X78304412Y31767992D01*
X78102315Y31800000D01*
X77897685Y31800000D01*
X77695587Y31767992D01*
X77500972Y31704757D01*
X77318651Y31611861D01*
X77318647Y31611859D01*
X77192167Y31519966D01*
X77731859Y30980274D01*
X77662292Y30940110D01*
X77559890Y30837708D01*
X77519726Y30768141D01*
X76980034Y31307833D01*
X76888141Y31181353D01*
X76888139Y31181349D01*
X76795243Y30999028D01*
X76732008Y30804413D01*
X76700000Y30602316D01*
X66800000Y30602316D01*
X66767991Y30804413D01*
X66704756Y30999028D01*
X66611861Y31181347D01*
X66519963Y31307833D01*
X65980273Y30768143D01*
X65940110Y30837708D01*
X65837708Y30940110D01*
X65768139Y30980275D01*
X66307831Y31519966D01*
X66181352Y31611859D01*
X66181348Y31611861D01*
X65999027Y31704757D01*
X65804412Y31767992D01*
X65602315Y31800000D01*
X65397685Y31800000D01*
X65195587Y31767992D01*
X65000972Y31704757D01*
X64818651Y31611861D01*
X64818647Y31611859D01*
X64692167Y31519966D01*
X65231859Y30980274D01*
X65162292Y30940110D01*
X65059890Y30837708D01*
X65019726Y30768141D01*
X64480034Y31307833D01*
X64388141Y31181353D01*
X64388139Y31181349D01*
X64295243Y30999028D01*
X64232008Y30804413D01*
X64200000Y30602316D01*
X60300000Y30602316D01*
X60267991Y30804413D01*
X60204756Y30999028D01*
X60111861Y31181347D01*
X60019963Y31307833D01*
X59480273Y30768143D01*
X59440110Y30837708D01*
X59337708Y30940110D01*
X59268139Y30980275D01*
X59807831Y31519966D01*
X59681352Y31611859D01*
X59681348Y31611861D01*
X59499027Y31704757D01*
X59304412Y31767992D01*
X59102315Y31800000D01*
X58897685Y31800000D01*
X58695587Y31767992D01*
X58500972Y31704757D01*
X58318651Y31611861D01*
X58318647Y31611859D01*
X58192167Y31519966D01*
X58731859Y30980274D01*
X58662292Y30940110D01*
X58559890Y30837708D01*
X58519726Y30768141D01*
X57980034Y31307833D01*
X57888141Y31181353D01*
X57888139Y31181349D01*
X57795243Y30999028D01*
X57732008Y30804413D01*
X57700000Y30602316D01*
X55054013Y30602316D01*
X55156661Y30681081D01*
X55318919Y30843339D01*
X55458611Y31025388D01*
X55573344Y31224112D01*
X55661158Y31436113D01*
X55720548Y31657762D01*
X55750500Y31885266D01*
X55750500Y32114734D01*
X55720548Y32342238D01*
X55661158Y32563887D01*
X55613131Y32679833D01*
X55573346Y32775884D01*
X55489595Y32920945D01*
X55458611Y32974612D01*
X55318919Y33156661D01*
X55156661Y33318919D01*
X54974612Y33458611D01*
X54974613Y33458611D01*
X54974611Y33458612D01*
X54775883Y33573347D01*
X54563885Y33661159D01*
X54342238Y33720548D01*
X54114734Y33750500D01*
X53885266Y33750500D01*
X53885265Y33750500D01*
X53657761Y33720548D01*
X53436114Y33661159D01*
X53224116Y33573347D01*
X53025388Y33458612D01*
X52843342Y33318922D01*
X52681078Y33156658D01*
X52541388Y32974612D01*
X52426653Y32775884D01*
X52338841Y32563886D01*
X52279452Y32342239D01*
X52249500Y32114735D01*
X500500Y32114735D01*
X500500Y32900766D01*
X23566800Y32900766D01*
X23566800Y32749234D01*
X23598404Y32631285D01*
X23606020Y32602861D01*
X23681781Y32471640D01*
X23681783Y32471638D01*
X23681785Y32471635D01*
X23788935Y32364485D01*
X23788937Y32364484D01*
X23788939Y32364482D01*
X23920161Y32288721D01*
X23920159Y32288721D01*
X23920163Y32288720D01*
X23920165Y32288719D01*
X24066534Y32249500D01*
X24066536Y32249500D01*
X24218064Y32249500D01*
X24218066Y32249500D01*
X24364435Y32288719D01*
X24364437Y32288721D01*
X24364439Y32288721D01*
X24495660Y32364482D01*
X24495660Y32364483D01*
X24495665Y32364485D01*
X24602815Y32471635D01*
X24602818Y32471640D01*
X24678579Y32602861D01*
X24678579Y32602863D01*
X24678581Y32602865D01*
X24717800Y32749234D01*
X24717800Y32900766D01*
X24678581Y33047135D01*
X24678579Y33047138D01*
X24678579Y33047140D01*
X24660152Y33079057D01*
X40799500Y33079057D01*
X40799500Y32920943D01*
X40840423Y32768216D01*
X40919480Y32631284D01*
X41031284Y32519480D01*
X41168216Y32440423D01*
X41320943Y32399500D01*
X41320945Y32399500D01*
X41479055Y32399500D01*
X41479057Y32399500D01*
X41631784Y32440423D01*
X41768716Y32519480D01*
X41880520Y32631284D01*
X41959577Y32768216D01*
X42000500Y32920943D01*
X42000500Y33079057D01*
X41959577Y33231784D01*
X41880520Y33368716D01*
X41768716Y33480520D01*
X41631784Y33559577D01*
X41479057Y33600500D01*
X41320943Y33600500D01*
X41168216Y33559577D01*
X41031284Y33480520D01*
X40919480Y33368716D01*
X40840423Y33231784D01*
X40799500Y33079057D01*
X24660152Y33079057D01*
X24602818Y33178361D01*
X24602816Y33178363D01*
X24602815Y33178365D01*
X24495665Y33285515D01*
X24495662Y33285517D01*
X24495660Y33285519D01*
X24364438Y33361280D01*
X24364440Y33361280D01*
X24307647Y33376497D01*
X24218066Y33400500D01*
X24066534Y33400500D01*
X23976952Y33376497D01*
X23920160Y33361280D01*
X23788939Y33285519D01*
X23681781Y33178361D01*
X23606020Y33047140D01*
X23606019Y33047135D01*
X23566800Y32900766D01*
X500500Y32900766D01*
X500500Y34929058D01*
X25764500Y34929058D01*
X25764500Y34770944D01*
X25805423Y34618217D01*
X25884480Y34481285D01*
X25996284Y34369481D01*
X26133216Y34290424D01*
X26285943Y34249501D01*
X26285945Y34249501D01*
X26444055Y34249501D01*
X26444057Y34249501D01*
X26596784Y34290424D01*
X26733716Y34369481D01*
X26845520Y34481285D01*
X26924577Y34618217D01*
X26965500Y34770944D01*
X26965500Y34929058D01*
X26924577Y35081785D01*
X26914972Y35098421D01*
X57749500Y35098421D01*
X57749500Y34901580D01*
X57780289Y34707179D01*
X57841116Y34519975D01*
X57917795Y34369482D01*
X57930476Y34344595D01*
X58046172Y34185354D01*
X58185354Y34046172D01*
X58344595Y33930476D01*
X58519975Y33841116D01*
X58707174Y33780291D01*
X58707175Y33780291D01*
X58707178Y33780290D01*
X58901580Y33749500D01*
X58901583Y33749500D01*
X59098420Y33749500D01*
X59292821Y33780290D01*
X59292822Y33780291D01*
X59292826Y33780291D01*
X59480025Y33841116D01*
X59655405Y33930476D01*
X59814646Y34046172D01*
X59953828Y34185354D01*
X60069524Y34344595D01*
X60158884Y34519975D01*
X60219709Y34707174D01*
X60229809Y34770944D01*
X60250500Y34901580D01*
X60250500Y35098421D01*
X64249500Y35098421D01*
X64249500Y34901580D01*
X64280289Y34707179D01*
X64341116Y34519975D01*
X64417795Y34369482D01*
X64430476Y34344595D01*
X64546172Y34185354D01*
X64685354Y34046172D01*
X64844595Y33930476D01*
X65019975Y33841116D01*
X65207174Y33780291D01*
X65207175Y33780291D01*
X65207178Y33780290D01*
X65401580Y33749500D01*
X65401583Y33749500D01*
X65598420Y33749500D01*
X65792821Y33780290D01*
X65792822Y33780291D01*
X65792826Y33780291D01*
X65980025Y33841116D01*
X66155405Y33930476D01*
X66314646Y34046172D01*
X66453828Y34185354D01*
X66569524Y34344595D01*
X66658884Y34519975D01*
X66719709Y34707174D01*
X66729809Y34770944D01*
X66750500Y34901580D01*
X66750500Y35098421D01*
X76749500Y35098421D01*
X76749500Y34901580D01*
X76780289Y34707179D01*
X76841116Y34519975D01*
X76917795Y34369482D01*
X76930476Y34344595D01*
X77046172Y34185354D01*
X77185354Y34046172D01*
X77344595Y33930476D01*
X77519975Y33841116D01*
X77707174Y33780291D01*
X77707175Y33780291D01*
X77707178Y33780290D01*
X77901580Y33749500D01*
X77901583Y33749500D01*
X78098420Y33749500D01*
X78292821Y33780290D01*
X78292822Y33780291D01*
X78292826Y33780291D01*
X78480025Y33841116D01*
X78655405Y33930476D01*
X78814646Y34046172D01*
X78953828Y34185354D01*
X79069524Y34344595D01*
X79158884Y34519975D01*
X79219709Y34707174D01*
X79229809Y34770944D01*
X79250500Y34901580D01*
X79250500Y35098421D01*
X83249500Y35098421D01*
X83249500Y34901580D01*
X83280289Y34707179D01*
X83341116Y34519975D01*
X83417795Y34369482D01*
X83430476Y34344595D01*
X83546172Y34185354D01*
X83685354Y34046172D01*
X83844595Y33930476D01*
X84019975Y33841116D01*
X84207174Y33780291D01*
X84207175Y33780291D01*
X84207178Y33780290D01*
X84401580Y33749500D01*
X84401583Y33749500D01*
X84598420Y33749500D01*
X84792821Y33780290D01*
X84792822Y33780291D01*
X84792826Y33780291D01*
X84980025Y33841116D01*
X85155405Y33930476D01*
X85314646Y34046172D01*
X85453828Y34185354D01*
X85569524Y34344595D01*
X85658884Y34519975D01*
X85719709Y34707174D01*
X85729809Y34770944D01*
X85750500Y34901580D01*
X85750500Y35098421D01*
X85719710Y35292822D01*
X85707461Y35330521D01*
X85658884Y35480025D01*
X85569524Y35655405D01*
X85453828Y35814646D01*
X85314646Y35953828D01*
X85155405Y36069524D01*
X85155404Y36069525D01*
X85155402Y36069526D01*
X84980025Y36158884D01*
X84792821Y36219711D01*
X84598420Y36250500D01*
X84598417Y36250500D01*
X84401583Y36250500D01*
X84401580Y36250500D01*
X84207178Y36219711D01*
X84019974Y36158884D01*
X83844597Y36069526D01*
X83685355Y35953829D01*
X83546171Y35814645D01*
X83430474Y35655403D01*
X83341116Y35480026D01*
X83280289Y35292822D01*
X83249500Y35098421D01*
X79250500Y35098421D01*
X79219710Y35292822D01*
X79207461Y35330521D01*
X79158884Y35480025D01*
X79069524Y35655405D01*
X78953828Y35814646D01*
X78814646Y35953828D01*
X78655405Y36069524D01*
X78655404Y36069525D01*
X78655402Y36069526D01*
X78480025Y36158884D01*
X78292821Y36219711D01*
X78098420Y36250500D01*
X78098417Y36250500D01*
X77901583Y36250500D01*
X77901580Y36250500D01*
X77707178Y36219711D01*
X77519974Y36158884D01*
X77344597Y36069526D01*
X77185355Y35953829D01*
X77046171Y35814645D01*
X76930474Y35655403D01*
X76841116Y35480026D01*
X76780289Y35292822D01*
X76749500Y35098421D01*
X66750500Y35098421D01*
X66719710Y35292822D01*
X66707461Y35330521D01*
X66658884Y35480025D01*
X66569524Y35655405D01*
X66453828Y35814646D01*
X66314646Y35953828D01*
X66155405Y36069524D01*
X66155404Y36069525D01*
X66155402Y36069526D01*
X65980025Y36158884D01*
X65792821Y36219711D01*
X65598420Y36250500D01*
X65598417Y36250500D01*
X65401583Y36250500D01*
X65401580Y36250500D01*
X65207178Y36219711D01*
X65019974Y36158884D01*
X64844597Y36069526D01*
X64685355Y35953829D01*
X64546171Y35814645D01*
X64430474Y35655403D01*
X64341116Y35480026D01*
X64280289Y35292822D01*
X64249500Y35098421D01*
X60250500Y35098421D01*
X60219710Y35292822D01*
X60207461Y35330521D01*
X60158884Y35480025D01*
X60069524Y35655405D01*
X59953828Y35814646D01*
X59814646Y35953828D01*
X59655405Y36069524D01*
X59655404Y36069525D01*
X59655402Y36069526D01*
X59480025Y36158884D01*
X59292821Y36219711D01*
X59098420Y36250500D01*
X59098417Y36250500D01*
X58901583Y36250500D01*
X58901580Y36250500D01*
X58707178Y36219711D01*
X58519974Y36158884D01*
X58344597Y36069526D01*
X58185355Y35953829D01*
X58046171Y35814645D01*
X57930474Y35655403D01*
X57841116Y35480026D01*
X57780289Y35292822D01*
X57749500Y35098421D01*
X26914972Y35098421D01*
X26845520Y35218717D01*
X26733716Y35330521D01*
X26596784Y35409578D01*
X26444057Y35450501D01*
X26285943Y35450501D01*
X26133216Y35409578D01*
X25996284Y35330521D01*
X25884480Y35218717D01*
X25805423Y35081785D01*
X25764500Y34929058D01*
X500500Y34929058D01*
X500500Y36516557D01*
X24164500Y36516557D01*
X24164500Y36358443D01*
X24205423Y36205716D01*
X24284480Y36068784D01*
X24396284Y35956980D01*
X24533216Y35877923D01*
X24685943Y35837000D01*
X24685945Y35837000D01*
X24844055Y35837000D01*
X24844057Y35837000D01*
X24996784Y35877923D01*
X25133716Y35956980D01*
X25245520Y36068784D01*
X25324577Y36205716D01*
X25365500Y36358443D01*
X25365500Y36484566D01*
X62281400Y36484566D01*
X62281400Y36333034D01*
X62311765Y36219709D01*
X62320620Y36186661D01*
X62396381Y36055440D01*
X62396383Y36055438D01*
X62396385Y36055435D01*
X62503535Y35948285D01*
X62503537Y35948284D01*
X62503539Y35948282D01*
X62634761Y35872521D01*
X62634759Y35872521D01*
X62634763Y35872520D01*
X62634765Y35872519D01*
X62781134Y35833300D01*
X62781136Y35833300D01*
X62932664Y35833300D01*
X62932666Y35833300D01*
X63079035Y35872519D01*
X63079037Y35872521D01*
X63079039Y35872521D01*
X63210260Y35948282D01*
X63210260Y35948283D01*
X63210265Y35948285D01*
X63317415Y36055435D01*
X63325549Y36069524D01*
X63393179Y36186661D01*
X63393179Y36186663D01*
X63393181Y36186665D01*
X63432400Y36333034D01*
X63432400Y36484566D01*
X63393181Y36630935D01*
X63393179Y36630938D01*
X63393179Y36630940D01*
X63317418Y36762161D01*
X63317416Y36762163D01*
X63317415Y36762165D01*
X63210265Y36869315D01*
X63210262Y36869317D01*
X63210260Y36869319D01*
X63079038Y36945080D01*
X63079040Y36945080D01*
X63022247Y36960297D01*
X62932666Y36984300D01*
X62781134Y36984300D01*
X62691552Y36960297D01*
X62634760Y36945080D01*
X62503539Y36869319D01*
X62396381Y36762161D01*
X62320620Y36630940D01*
X62320619Y36630935D01*
X62281400Y36484566D01*
X25365500Y36484566D01*
X25365500Y36516557D01*
X25324577Y36669284D01*
X25245520Y36806216D01*
X25133716Y36918020D01*
X24996784Y36997077D01*
X24844057Y37038000D01*
X24685943Y37038000D01*
X24533216Y36997077D01*
X24396284Y36918020D01*
X24284480Y36806216D01*
X24205423Y36669284D01*
X24164500Y36516557D01*
X500500Y36516557D01*
X500500Y39929057D01*
X40549500Y39929057D01*
X40549500Y39770943D01*
X40590423Y39618216D01*
X40669480Y39481284D01*
X40781284Y39369480D01*
X40918216Y39290423D01*
X41070943Y39249500D01*
X41070945Y39249500D01*
X41229055Y39249500D01*
X41229057Y39249500D01*
X41381784Y39290423D01*
X41518716Y39369480D01*
X41630520Y39481284D01*
X41709577Y39618216D01*
X41750500Y39770943D01*
X41750500Y39929057D01*
X41709577Y40081784D01*
X41630520Y40218716D01*
X41518716Y40330520D01*
X41381784Y40409577D01*
X41229057Y40450500D01*
X41070943Y40450500D01*
X40918216Y40409577D01*
X40781284Y40330520D01*
X40669480Y40218716D01*
X40590423Y40081784D01*
X40549500Y39929057D01*
X500500Y39929057D01*
X500500Y43611866D01*
X30031400Y43611866D01*
X30031400Y43460334D01*
X30041002Y43424500D01*
X30070620Y43313961D01*
X30146381Y43182740D01*
X30146383Y43182738D01*
X30146385Y43182735D01*
X30253535Y43075585D01*
X30253537Y43075584D01*
X30253539Y43075582D01*
X30384761Y42999821D01*
X30384759Y42999821D01*
X30384763Y42999820D01*
X30384765Y42999819D01*
X30531134Y42960600D01*
X30531136Y42960600D01*
X30682664Y42960600D01*
X30682666Y42960600D01*
X30829035Y42999819D01*
X30829037Y42999821D01*
X30829039Y42999821D01*
X30960260Y43075582D01*
X30960260Y43075583D01*
X30960265Y43075585D01*
X31067415Y43182735D01*
X31143181Y43313965D01*
X31182400Y43460334D01*
X31182400Y43611866D01*
X31143181Y43758235D01*
X31143179Y43758238D01*
X31143179Y43758240D01*
X31067418Y43889461D01*
X31067416Y43889463D01*
X31067415Y43889465D01*
X30960265Y43996615D01*
X30960262Y43996617D01*
X30960261Y43996618D01*
X30960258Y43996620D01*
X30829038Y44072380D01*
X30829040Y44072380D01*
X30816403Y44075766D01*
X88874500Y44075766D01*
X88874500Y43924234D01*
X88909086Y43795153D01*
X88913720Y43777861D01*
X88989481Y43646640D01*
X88989483Y43646638D01*
X88989485Y43646635D01*
X89096635Y43539485D01*
X89096637Y43539484D01*
X89096639Y43539482D01*
X89227861Y43463721D01*
X89227859Y43463721D01*
X89227863Y43463720D01*
X89227865Y43463719D01*
X89374234Y43424500D01*
X89374236Y43424500D01*
X89525764Y43424500D01*
X89525766Y43424500D01*
X89672135Y43463719D01*
X89672137Y43463721D01*
X89672139Y43463721D01*
X89803360Y43539482D01*
X89803360Y43539483D01*
X89803365Y43539485D01*
X89910515Y43646635D01*
X89974948Y43758235D01*
X89986279Y43777861D01*
X89986279Y43777863D01*
X89986281Y43777865D01*
X90025500Y43924234D01*
X90025500Y44075766D01*
X89986281Y44222135D01*
X89986279Y44222138D01*
X89986279Y44222140D01*
X89910518Y44353361D01*
X89910516Y44353363D01*
X89910515Y44353365D01*
X89803365Y44460515D01*
X89803362Y44460517D01*
X89803360Y44460519D01*
X89673457Y44535519D01*
X89673455Y44535519D01*
X89672135Y44536281D01*
X89525766Y44575500D01*
X89374234Y44575500D01*
X89284652Y44551497D01*
X89227860Y44536280D01*
X89096639Y44460519D01*
X88989481Y44353361D01*
X88913720Y44222140D01*
X88913719Y44222135D01*
X88874500Y44075766D01*
X30816403Y44075766D01*
X30772247Y44087597D01*
X30682666Y44111600D01*
X30531134Y44111600D01*
X30441552Y44087597D01*
X30384760Y44072380D01*
X30253539Y43996619D01*
X30146381Y43889461D01*
X30070620Y43758240D01*
X30070619Y43758235D01*
X30031400Y43611866D01*
X500500Y43611866D01*
X500500Y44614766D01*
X91445100Y44614766D01*
X91445100Y44463234D01*
X91445829Y44460515D01*
X91484320Y44316861D01*
X91560081Y44185640D01*
X91560083Y44185638D01*
X91560085Y44185635D01*
X91667235Y44078485D01*
X91667237Y44078484D01*
X91667239Y44078482D01*
X91798461Y44002721D01*
X91798459Y44002721D01*
X91798463Y44002720D01*
X91798465Y44002719D01*
X91944834Y43963500D01*
X91944836Y43963500D01*
X92096364Y43963500D01*
X92096366Y43963500D01*
X92242735Y44002719D01*
X92242737Y44002721D01*
X92242739Y44002721D01*
X92373960Y44078482D01*
X92373960Y44078483D01*
X92373965Y44078485D01*
X92481115Y44185635D01*
X92481118Y44185640D01*
X92556879Y44316861D01*
X92556879Y44316863D01*
X92556881Y44316865D01*
X92596100Y44463234D01*
X92596100Y44614766D01*
X92556881Y44761135D01*
X92556879Y44761138D01*
X92556879Y44761140D01*
X92481118Y44892361D01*
X92481116Y44892363D01*
X92481115Y44892365D01*
X92373965Y44999515D01*
X92373962Y44999517D01*
X92373960Y44999519D01*
X92242738Y45075280D01*
X92242740Y45075280D01*
X92185947Y45090497D01*
X92096366Y45114500D01*
X91944834Y45114500D01*
X91855252Y45090497D01*
X91798460Y45075280D01*
X91667239Y44999519D01*
X91560081Y44892361D01*
X91484320Y44761140D01*
X91484319Y44761135D01*
X91445100Y44614766D01*
X500500Y44614766D01*
X500500Y47079057D01*
X13399500Y47079057D01*
X13399500Y46920943D01*
X13440423Y46768216D01*
X13519480Y46631284D01*
X13631284Y46519480D01*
X13768216Y46440423D01*
X13920943Y46399500D01*
X13920945Y46399500D01*
X14079055Y46399500D01*
X14079057Y46399500D01*
X14231784Y46440423D01*
X14368716Y46519480D01*
X14480520Y46631284D01*
X14559577Y46768216D01*
X14600500Y46920943D01*
X14600500Y47079057D01*
X14590940Y47114735D01*
X27249500Y47114735D01*
X27249500Y46885266D01*
X27279452Y46657762D01*
X27338841Y46436115D01*
X27426653Y46224117D01*
X27426656Y46224111D01*
X27541389Y46025388D01*
X27681081Y45843339D01*
X27843339Y45681081D01*
X28025388Y45541389D01*
X28224112Y45426656D01*
X28224113Y45426656D01*
X28224116Y45426654D01*
X28289672Y45399500D01*
X28436113Y45338842D01*
X28657762Y45279452D01*
X28885266Y45249500D01*
X28885267Y45249500D01*
X29114733Y45249500D01*
X29114734Y45249500D01*
X29342238Y45279452D01*
X29563887Y45338842D01*
X29775888Y45426656D01*
X29974612Y45541389D01*
X30156661Y45681081D01*
X30318919Y45843339D01*
X30458611Y46025388D01*
X30489597Y46079057D01*
X76499500Y46079057D01*
X76499500Y45920943D01*
X76540423Y45768216D01*
X76619480Y45631284D01*
X76731284Y45519480D01*
X76868216Y45440423D01*
X77020943Y45399500D01*
X77020945Y45399500D01*
X77179055Y45399500D01*
X77179057Y45399500D01*
X77331784Y45440423D01*
X77468716Y45519480D01*
X77580520Y45631284D01*
X77659577Y45768216D01*
X77700500Y45920943D01*
X77700500Y46079057D01*
X77659577Y46231784D01*
X77580520Y46368716D01*
X77468716Y46480520D01*
X77331784Y46559577D01*
X77179057Y46600500D01*
X77020943Y46600500D01*
X76868216Y46559577D01*
X76731284Y46480520D01*
X76619480Y46368716D01*
X76540423Y46231784D01*
X76499500Y46079057D01*
X30489597Y46079057D01*
X30573344Y46224112D01*
X30661158Y46436113D01*
X30720548Y46657762D01*
X30750500Y46885266D01*
X30750500Y47114734D01*
X30720548Y47342238D01*
X30661158Y47563887D01*
X30573344Y47775888D01*
X30458611Y47974612D01*
X30318919Y48156661D01*
X30156661Y48318919D01*
X29974612Y48458611D01*
X29974613Y48458611D01*
X29974611Y48458612D01*
X29775883Y48573347D01*
X29563885Y48661159D01*
X29342238Y48720548D01*
X29114734Y48750500D01*
X28885266Y48750500D01*
X28885265Y48750500D01*
X28657761Y48720548D01*
X28436114Y48661159D01*
X28224116Y48573347D01*
X28025388Y48458612D01*
X27843342Y48318922D01*
X27681078Y48156658D01*
X27541388Y47974612D01*
X27426653Y47775884D01*
X27338841Y47563886D01*
X27279452Y47342239D01*
X27249500Y47114735D01*
X14590940Y47114735D01*
X14559577Y47231784D01*
X14480520Y47368716D01*
X14368716Y47480520D01*
X14231784Y47559577D01*
X14079057Y47600500D01*
X13920943Y47600500D01*
X13768216Y47559577D01*
X13631284Y47480520D01*
X13519480Y47368716D01*
X13440423Y47231784D01*
X13399500Y47079057D01*
X500500Y47079057D01*
X500500Y50076466D01*
X84980500Y50076466D01*
X84980500Y49924934D01*
X85015086Y49795853D01*
X85019720Y49778561D01*
X85095481Y49647340D01*
X85095483Y49647338D01*
X85095485Y49647335D01*
X85202635Y49540185D01*
X85202637Y49540184D01*
X85202639Y49540182D01*
X85333861Y49464421D01*
X85333859Y49464421D01*
X85333863Y49464420D01*
X85333865Y49464419D01*
X85480234Y49425200D01*
X85480236Y49425200D01*
X85631764Y49425200D01*
X85631766Y49425200D01*
X85778135Y49464419D01*
X85778137Y49464421D01*
X85778139Y49464421D01*
X85909360Y49540182D01*
X85909360Y49540183D01*
X85909365Y49540185D01*
X86016515Y49647335D01*
X86092281Y49778565D01*
X86131500Y49924934D01*
X86131500Y50076466D01*
X86092281Y50222835D01*
X86092279Y50222838D01*
X86092279Y50222840D01*
X86016518Y50354061D01*
X86016516Y50354063D01*
X86016515Y50354065D01*
X85909365Y50461215D01*
X85909362Y50461217D01*
X85909360Y50461219D01*
X85778138Y50536980D01*
X85778140Y50536980D01*
X85721347Y50552197D01*
X85631766Y50576200D01*
X85480234Y50576200D01*
X85390652Y50552197D01*
X85333860Y50536980D01*
X85202639Y50461219D01*
X85095481Y50354061D01*
X85019720Y50222840D01*
X85019719Y50222835D01*
X84980500Y50076466D01*
X500500Y50076466D01*
X500500Y51529057D01*
X6599500Y51529057D01*
X6599500Y51370943D01*
X6640423Y51218216D01*
X6719480Y51081284D01*
X6831284Y50969480D01*
X6968216Y50890423D01*
X7120943Y50849500D01*
X7120945Y50849500D01*
X7279055Y50849500D01*
X7279057Y50849500D01*
X7431784Y50890423D01*
X7568716Y50969480D01*
X7680520Y51081284D01*
X7712610Y51136866D01*
X56119500Y51136866D01*
X56119500Y50985334D01*
X56123748Y50969481D01*
X56158720Y50838961D01*
X56234481Y50707740D01*
X56234483Y50707738D01*
X56234485Y50707735D01*
X56341635Y50600585D01*
X56341637Y50600584D01*
X56341639Y50600582D01*
X56472861Y50524821D01*
X56472859Y50524821D01*
X56472863Y50524820D01*
X56472865Y50524819D01*
X56619234Y50485600D01*
X56619236Y50485600D01*
X56770764Y50485600D01*
X56770766Y50485600D01*
X56917135Y50524819D01*
X56917137Y50524821D01*
X56917139Y50524821D01*
X57048360Y50600582D01*
X57048360Y50600583D01*
X57048365Y50600585D01*
X57155515Y50707735D01*
X57231281Y50838965D01*
X57270500Y50985334D01*
X57270500Y51136866D01*
X57231281Y51283235D01*
X57231279Y51283238D01*
X57231279Y51283240D01*
X57155518Y51414461D01*
X57155516Y51414463D01*
X57155515Y51414465D01*
X57048365Y51521615D01*
X57048362Y51521617D01*
X57048360Y51521619D01*
X56917138Y51597380D01*
X56917140Y51597380D01*
X56860347Y51612597D01*
X56770766Y51636600D01*
X56619234Y51636600D01*
X56529652Y51612597D01*
X56472860Y51597380D01*
X56341639Y51521619D01*
X56234481Y51414461D01*
X56158720Y51283240D01*
X56158719Y51283235D01*
X56119500Y51136866D01*
X7712610Y51136866D01*
X7759577Y51218216D01*
X7800500Y51370943D01*
X7800500Y51529057D01*
X7759577Y51681784D01*
X7680520Y51818716D01*
X7568716Y51930520D01*
X7431784Y52009577D01*
X7279057Y52050500D01*
X7120943Y52050500D01*
X6968216Y52009577D01*
X6831284Y51930520D01*
X6719480Y51818716D01*
X6640423Y51681784D01*
X6599500Y51529057D01*
X500500Y51529057D01*
X500500Y52679057D01*
X22837000Y52679057D01*
X22837000Y52520943D01*
X22877923Y52368216D01*
X22956980Y52231284D01*
X23068784Y52119480D01*
X23205716Y52040423D01*
X23358443Y51999500D01*
X23358445Y51999500D01*
X23516555Y51999500D01*
X23516557Y51999500D01*
X23669284Y52040423D01*
X23806216Y52119480D01*
X23918020Y52231284D01*
X23997077Y52368216D01*
X24038000Y52520943D01*
X24038000Y52679057D01*
X23997077Y52831784D01*
X23918020Y52968716D01*
X23810970Y53075766D01*
X52382900Y53075766D01*
X52382900Y52924234D01*
X52407672Y52831784D01*
X52422120Y52777861D01*
X52497881Y52646640D01*
X52497883Y52646638D01*
X52497885Y52646635D01*
X52605035Y52539485D01*
X52605037Y52539484D01*
X52605039Y52539482D01*
X52736261Y52463721D01*
X52736259Y52463721D01*
X52736263Y52463720D01*
X52736265Y52463719D01*
X52882634Y52424500D01*
X52882636Y52424500D01*
X53034164Y52424500D01*
X53034166Y52424500D01*
X53180535Y52463719D01*
X53180537Y52463721D01*
X53180539Y52463721D01*
X53311760Y52539482D01*
X53311760Y52539483D01*
X53311765Y52539485D01*
X53418915Y52646635D01*
X53418918Y52646640D01*
X53494679Y52777861D01*
X53494679Y52777863D01*
X53494681Y52777865D01*
X53533900Y52924234D01*
X53533900Y53075766D01*
X53494681Y53222135D01*
X53494679Y53222138D01*
X53494679Y53222140D01*
X53418918Y53353361D01*
X53418916Y53353363D01*
X53418915Y53353365D01*
X53311765Y53460515D01*
X53311762Y53460517D01*
X53311760Y53460519D01*
X53180538Y53536280D01*
X53180540Y53536280D01*
X53123747Y53551497D01*
X53034166Y53575500D01*
X52882634Y53575500D01*
X52793052Y53551497D01*
X52736260Y53536280D01*
X52605039Y53460519D01*
X52497881Y53353361D01*
X52422120Y53222140D01*
X52422119Y53222135D01*
X52382900Y53075766D01*
X23810970Y53075766D01*
X23806216Y53080520D01*
X23669284Y53159577D01*
X23516557Y53200500D01*
X23358443Y53200500D01*
X23205716Y53159577D01*
X23068784Y53080520D01*
X22956980Y52968716D01*
X22877923Y52831784D01*
X22837000Y52679057D01*
X500500Y52679057D01*
X500500Y53579057D01*
X14199500Y53579057D01*
X14199500Y53420943D01*
X14240423Y53268216D01*
X14319480Y53131284D01*
X14431284Y53019480D01*
X14568216Y52940423D01*
X14720943Y52899500D01*
X14720945Y52899500D01*
X14879055Y52899500D01*
X14879057Y52899500D01*
X15031784Y52940423D01*
X15168716Y53019480D01*
X15280520Y53131284D01*
X15359577Y53268216D01*
X15400500Y53420943D01*
X15400500Y53579057D01*
X15359577Y53731784D01*
X15280520Y53868716D01*
X15168716Y53980520D01*
X15031784Y54059577D01*
X14879057Y54100500D01*
X14720943Y54100500D01*
X14568216Y54059577D01*
X14431284Y53980520D01*
X14319480Y53868716D01*
X14240423Y53731784D01*
X14199500Y53579057D01*
X500500Y53579057D01*
X500500Y55075766D01*
X84047400Y55075766D01*
X84047400Y54924234D01*
X84081986Y54795153D01*
X84086620Y54777861D01*
X84162381Y54646640D01*
X84162383Y54646638D01*
X84162385Y54646635D01*
X84269535Y54539485D01*
X84269537Y54539484D01*
X84269539Y54539482D01*
X84400761Y54463721D01*
X84400759Y54463721D01*
X84400763Y54463720D01*
X84400765Y54463719D01*
X84547134Y54424500D01*
X84547136Y54424500D01*
X84698664Y54424500D01*
X84698666Y54424500D01*
X84845035Y54463719D01*
X84845037Y54463721D01*
X84845039Y54463721D01*
X84976260Y54539482D01*
X84976260Y54539483D01*
X84976265Y54539485D01*
X85083415Y54646635D01*
X85159181Y54777865D01*
X85198400Y54924234D01*
X85198400Y55075766D01*
X85159181Y55222135D01*
X85159179Y55222138D01*
X85159179Y55222140D01*
X85083418Y55353361D01*
X85083416Y55353363D01*
X85083415Y55353365D01*
X84976265Y55460515D01*
X84976262Y55460517D01*
X84976260Y55460519D01*
X84845038Y55536280D01*
X84845040Y55536280D01*
X84788247Y55551497D01*
X84698666Y55575500D01*
X84547134Y55575500D01*
X84457552Y55551497D01*
X84400760Y55536280D01*
X84269539Y55460519D01*
X84162381Y55353361D01*
X84086620Y55222140D01*
X84086619Y55222135D01*
X84047400Y55075766D01*
X500500Y55075766D01*
X500500Y56079057D01*
X12699500Y56079057D01*
X12699500Y55920943D01*
X12740423Y55768216D01*
X12819480Y55631284D01*
X12931284Y55519480D01*
X13068216Y55440423D01*
X13220943Y55399500D01*
X13220945Y55399500D01*
X13379055Y55399500D01*
X13379057Y55399500D01*
X13531784Y55440423D01*
X13668716Y55519480D01*
X13780520Y55631284D01*
X13859577Y55768216D01*
X13900500Y55920943D01*
X13900500Y56079057D01*
X13859577Y56231784D01*
X13780520Y56368716D01*
X13668716Y56480520D01*
X13531784Y56559577D01*
X13379057Y56600500D01*
X13220943Y56600500D01*
X13068216Y56559577D01*
X12931284Y56480520D01*
X12819480Y56368716D01*
X12740423Y56231784D01*
X12699500Y56079057D01*
X500500Y56079057D01*
X500500Y57579057D01*
X12699500Y57579057D01*
X12699500Y57420943D01*
X12740423Y57268216D01*
X12819480Y57131284D01*
X12931284Y57019480D01*
X13068216Y56940423D01*
X13220943Y56899500D01*
X13220945Y56899500D01*
X13379055Y56899500D01*
X13379057Y56899500D01*
X13531784Y56940423D01*
X13668716Y57019480D01*
X13728293Y57079057D01*
X19399500Y57079057D01*
X19399500Y56920943D01*
X19440423Y56768216D01*
X19519480Y56631284D01*
X19631284Y56519480D01*
X19768216Y56440423D01*
X19920943Y56399500D01*
X19920945Y56399500D01*
X20065781Y56399500D01*
X20123972Y56380593D01*
X20159936Y56331093D01*
X20159936Y56269907D01*
X20151520Y56251006D01*
X20140423Y56231784D01*
X20099500Y56079057D01*
X20099500Y55920943D01*
X20140423Y55768216D01*
X20219480Y55631284D01*
X20331284Y55519480D01*
X20468216Y55440423D01*
X20620943Y55399500D01*
X20620945Y55399500D01*
X20779055Y55399500D01*
X20779057Y55399500D01*
X20931784Y55440423D01*
X21068716Y55519480D01*
X21180520Y55631284D01*
X21259577Y55768216D01*
X21300500Y55920943D01*
X21300500Y56079057D01*
X21259577Y56231784D01*
X21180520Y56368716D01*
X21068716Y56480520D01*
X20931784Y56559577D01*
X20779057Y56600500D01*
X20634219Y56600500D01*
X20576028Y56619407D01*
X20540064Y56668907D01*
X20540064Y56730093D01*
X20548479Y56748995D01*
X20559577Y56768216D01*
X20600500Y56920943D01*
X20600500Y57079057D01*
X20559577Y57231784D01*
X20480520Y57368716D01*
X20368716Y57480520D01*
X20231784Y57559577D01*
X20079057Y57600500D01*
X19920943Y57600500D01*
X19768216Y57559577D01*
X19631284Y57480520D01*
X19519480Y57368716D01*
X19440423Y57231784D01*
X19399500Y57079057D01*
X13728293Y57079057D01*
X13780520Y57131284D01*
X13859577Y57268216D01*
X13900500Y57420943D01*
X13900500Y57579057D01*
X13859577Y57731784D01*
X13780520Y57868716D01*
X13668716Y57980520D01*
X13531784Y58059577D01*
X13379057Y58100500D01*
X13220943Y58100500D01*
X13068216Y58059577D01*
X12931284Y57980520D01*
X12819480Y57868716D01*
X12740423Y57731784D01*
X12699500Y57579057D01*
X500500Y57579057D01*
X500500Y58529057D01*
X6824500Y58529057D01*
X6824500Y58370943D01*
X6865423Y58218216D01*
X6944480Y58081284D01*
X7056284Y57969480D01*
X7193216Y57890423D01*
X7345943Y57849500D01*
X7345945Y57849500D01*
X7504055Y57849500D01*
X7504057Y57849500D01*
X7656784Y57890423D01*
X7793716Y57969480D01*
X7905520Y58081284D01*
X7924833Y58114735D01*
X35249500Y58114735D01*
X35249500Y57885266D01*
X35279452Y57657762D01*
X35338841Y57436115D01*
X35426653Y57224117D01*
X35541388Y57025389D01*
X35606585Y56940423D01*
X35681081Y56843339D01*
X35843339Y56681081D01*
X36025388Y56541389D01*
X36224112Y56426656D01*
X36224113Y56426656D01*
X36224116Y56426654D01*
X36289672Y56399500D01*
X36436113Y56338842D01*
X36657762Y56279452D01*
X36885266Y56249500D01*
X36885267Y56249500D01*
X37114733Y56249500D01*
X37114734Y56249500D01*
X37342238Y56279452D01*
X37563887Y56338842D01*
X37775888Y56426656D01*
X37974612Y56541389D01*
X38156661Y56681081D01*
X38318919Y56843339D01*
X38458611Y57025388D01*
X38573344Y57224112D01*
X38661158Y57436113D01*
X38720548Y57657762D01*
X38750500Y57885266D01*
X38750500Y58114734D01*
X38720548Y58342238D01*
X38661158Y58563887D01*
X38573344Y58775888D01*
X38458611Y58974612D01*
X38318919Y59156661D01*
X38156661Y59318919D01*
X38114865Y59350990D01*
X37974611Y59458612D01*
X37775883Y59573347D01*
X37563885Y59661159D01*
X37342238Y59720548D01*
X37114734Y59750500D01*
X36885266Y59750500D01*
X36885265Y59750500D01*
X36657761Y59720548D01*
X36436114Y59661159D01*
X36224116Y59573347D01*
X36025388Y59458612D01*
X35843342Y59318922D01*
X35681078Y59156658D01*
X35541388Y58974612D01*
X35426653Y58775884D01*
X35338841Y58563886D01*
X35279452Y58342239D01*
X35249500Y58114735D01*
X7924833Y58114735D01*
X7984577Y58218216D01*
X8025500Y58370943D01*
X8025500Y58529057D01*
X7984577Y58681784D01*
X7905520Y58818716D01*
X7793716Y58930520D01*
X7656784Y59009577D01*
X7504057Y59050500D01*
X7345943Y59050500D01*
X7193216Y59009577D01*
X7056284Y58930520D01*
X6944480Y58818716D01*
X6865423Y58681784D01*
X6824500Y58529057D01*
X500500Y58529057D01*
X500500Y60629057D01*
X22399500Y60629057D01*
X22399500Y60470943D01*
X22440423Y60318216D01*
X22519480Y60181284D01*
X22631284Y60069480D01*
X22768216Y59990423D01*
X22920943Y59949500D01*
X22920945Y59949500D01*
X23079055Y59949500D01*
X23079057Y59949500D01*
X23231784Y59990423D01*
X23368716Y60069480D01*
X23378293Y60079057D01*
X69899500Y60079057D01*
X69899500Y59920943D01*
X69940423Y59768216D01*
X70019480Y59631284D01*
X70131284Y59519480D01*
X70268216Y59440423D01*
X70420943Y59399500D01*
X70420945Y59399500D01*
X70579055Y59399500D01*
X70579057Y59399500D01*
X70731784Y59440423D01*
X70868716Y59519480D01*
X70980520Y59631284D01*
X71059577Y59768216D01*
X71100500Y59920943D01*
X71100500Y60079057D01*
X71059577Y60231784D01*
X70980520Y60368716D01*
X70868716Y60480520D01*
X70731784Y60559577D01*
X70579057Y60600500D01*
X70420943Y60600500D01*
X70268216Y60559577D01*
X70131284Y60480520D01*
X70019480Y60368716D01*
X69940423Y60231784D01*
X69899500Y60079057D01*
X23378293Y60079057D01*
X23480520Y60181284D01*
X23559577Y60318216D01*
X23600500Y60470943D01*
X23600500Y60629057D01*
X23559577Y60781784D01*
X23480520Y60918716D01*
X23368716Y61030520D01*
X23231784Y61109577D01*
X23079057Y61150500D01*
X22920943Y61150500D01*
X22768216Y61109577D01*
X22631284Y61030520D01*
X22519480Y60918716D01*
X22440423Y60781784D01*
X22399500Y60629057D01*
X500500Y60629057D01*
X500500Y61629057D01*
X6599500Y61629057D01*
X6599500Y61470943D01*
X6640423Y61318216D01*
X6719480Y61181284D01*
X6831284Y61069480D01*
X6968216Y60990423D01*
X7120943Y60949500D01*
X7120945Y60949500D01*
X7279055Y60949500D01*
X7279057Y60949500D01*
X7431784Y60990423D01*
X7568716Y61069480D01*
X7680520Y61181284D01*
X7759577Y61318216D01*
X7800500Y61470943D01*
X7800500Y61629057D01*
X7759577Y61781784D01*
X7680520Y61918716D01*
X7568716Y62030520D01*
X7431784Y62109577D01*
X7279057Y62150500D01*
X7120943Y62150500D01*
X6968216Y62109577D01*
X6831284Y62030520D01*
X6719480Y61918716D01*
X6640423Y61781784D01*
X6599500Y61629057D01*
X500500Y61629057D01*
X500500Y62579057D01*
X19399500Y62579057D01*
X19399500Y62420943D01*
X19440423Y62268216D01*
X19519480Y62131284D01*
X19631284Y62019480D01*
X19768216Y61940423D01*
X19920943Y61899500D01*
X19920945Y61899500D01*
X20079055Y61899500D01*
X20079057Y61899500D01*
X20231784Y61940423D01*
X20368716Y62019480D01*
X20480520Y62131284D01*
X20559577Y62268216D01*
X20600500Y62420943D01*
X20600500Y62579057D01*
X20559577Y62731784D01*
X20480520Y62868716D01*
X20368716Y62980520D01*
X20368713Y62980522D01*
X20335308Y62999809D01*
X20335306Y62999809D01*
X20231784Y63059577D01*
X20159084Y63079057D01*
X54499499Y63079057D01*
X54499499Y62920943D01*
X54540422Y62768216D01*
X54619479Y62631284D01*
X54731283Y62519480D01*
X54868215Y62440423D01*
X55020942Y62399500D01*
X55020944Y62399500D01*
X55179054Y62399500D01*
X55179056Y62399500D01*
X55331783Y62440423D01*
X55468715Y62519480D01*
X55580519Y62631284D01*
X55659576Y62768216D01*
X55700499Y62920943D01*
X55700499Y63005666D01*
X60294400Y63005666D01*
X60294400Y62854134D01*
X60327183Y62731784D01*
X60333620Y62707761D01*
X60409381Y62576540D01*
X60409383Y62576538D01*
X60409385Y62576535D01*
X60516535Y62469385D01*
X60516537Y62469384D01*
X60516539Y62469382D01*
X60647761Y62393621D01*
X60647759Y62393621D01*
X60647763Y62393620D01*
X60647765Y62393619D01*
X60794134Y62354400D01*
X60794136Y62354400D01*
X60945664Y62354400D01*
X60945666Y62354400D01*
X61092035Y62393619D01*
X61092037Y62393621D01*
X61092039Y62393621D01*
X61223260Y62469382D01*
X61223260Y62469383D01*
X61223265Y62469385D01*
X61330415Y62576535D01*
X61331871Y62579057D01*
X61406179Y62707761D01*
X61406179Y62707763D01*
X61406181Y62707765D01*
X61445400Y62854134D01*
X61445400Y63005666D01*
X61425735Y63079057D01*
X67499500Y63079057D01*
X67499500Y62920943D01*
X67540423Y62768216D01*
X67619480Y62631284D01*
X67731284Y62519480D01*
X67868216Y62440423D01*
X68020943Y62399500D01*
X68020945Y62399500D01*
X68179055Y62399500D01*
X68179057Y62399500D01*
X68331784Y62440423D01*
X68468716Y62519480D01*
X68580520Y62631284D01*
X68659577Y62768216D01*
X68700500Y62920943D01*
X68700500Y63079057D01*
X68659577Y63231784D01*
X68580520Y63368716D01*
X68468716Y63480520D01*
X68384647Y63529057D01*
X88824500Y63529057D01*
X88824500Y63370943D01*
X88865423Y63218216D01*
X88944480Y63081284D01*
X89056284Y62969480D01*
X89193216Y62890423D01*
X89345943Y62849500D01*
X89345945Y62849500D01*
X89504055Y62849500D01*
X89504057Y62849500D01*
X89656784Y62890423D01*
X89793716Y62969480D01*
X89905520Y63081284D01*
X89984577Y63218216D01*
X90025500Y63370943D01*
X90025500Y63529057D01*
X89984577Y63681784D01*
X89905520Y63818716D01*
X89793716Y63930520D01*
X89656784Y64009577D01*
X89504057Y64050500D01*
X89345943Y64050500D01*
X89193216Y64009577D01*
X89056284Y63930520D01*
X88944480Y63818716D01*
X88865423Y63681784D01*
X88824500Y63529057D01*
X68384647Y63529057D01*
X68331784Y63559577D01*
X68179057Y63600500D01*
X68020943Y63600500D01*
X67868216Y63559577D01*
X67731284Y63480520D01*
X67619480Y63368716D01*
X67540423Y63231784D01*
X67499500Y63079057D01*
X61425735Y63079057D01*
X61406181Y63152035D01*
X61406179Y63152038D01*
X61406179Y63152040D01*
X61330418Y63283261D01*
X61330416Y63283263D01*
X61330415Y63283265D01*
X61223265Y63390415D01*
X61223262Y63390417D01*
X61223260Y63390419D01*
X61092038Y63466180D01*
X61092040Y63466180D01*
X61035247Y63481397D01*
X60945666Y63505400D01*
X60794134Y63505400D01*
X60704552Y63481397D01*
X60647760Y63466180D01*
X60516539Y63390419D01*
X60409381Y63283261D01*
X60333620Y63152040D01*
X60333619Y63152035D01*
X60294400Y63005666D01*
X55700499Y63005666D01*
X55700499Y63079057D01*
X55659576Y63231784D01*
X55580519Y63368716D01*
X55468715Y63480520D01*
X55331783Y63559577D01*
X55179056Y63600500D01*
X55020942Y63600500D01*
X54868215Y63559577D01*
X54731283Y63480520D01*
X54619479Y63368716D01*
X54540422Y63231784D01*
X54499499Y63079057D01*
X20159084Y63079057D01*
X20079057Y63100500D01*
X19920943Y63100500D01*
X19768216Y63059577D01*
X19631284Y62980520D01*
X19519480Y62868716D01*
X19440423Y62731784D01*
X19399500Y62579057D01*
X500500Y62579057D01*
X500500Y64079057D01*
X13474500Y64079057D01*
X13474500Y63920943D01*
X13515423Y63768216D01*
X13594480Y63631284D01*
X13706284Y63519480D01*
X13843216Y63440423D01*
X13995943Y63399500D01*
X13995945Y63399500D01*
X14154055Y63399500D01*
X14154057Y63399500D01*
X14306784Y63440423D01*
X14443716Y63519480D01*
X14555520Y63631284D01*
X14634577Y63768216D01*
X14675500Y63920943D01*
X14675500Y64079057D01*
X14634577Y64231784D01*
X14555520Y64368716D01*
X14443716Y64480520D01*
X14306784Y64559577D01*
X14154057Y64600500D01*
X13995943Y64600500D01*
X13843216Y64559577D01*
X13706284Y64480520D01*
X13594480Y64368716D01*
X13515423Y64231784D01*
X13474500Y64079057D01*
X500500Y64079057D01*
X500500Y66117979D01*
X2200000Y66117979D01*
X2200000Y65882022D01*
X2230798Y65648092D01*
X2230798Y65648087D01*
X2291867Y65420176D01*
X2291871Y65420163D01*
X2382163Y65202176D01*
X2382165Y65202171D01*
X2500139Y64997835D01*
X2624122Y64836258D01*
X3374310Y65586447D01*
X3417437Y65521903D01*
X3521903Y65417437D01*
X3586443Y65374313D01*
X2836255Y64624124D01*
X2997834Y64500140D01*
X3202170Y64382166D01*
X3202175Y64382164D01*
X3420162Y64291872D01*
X3420175Y64291868D01*
X3648088Y64230799D01*
X3882021Y64200001D01*
X3882023Y64200000D01*
X4117977Y64200000D01*
X4117978Y64200001D01*
X4351908Y64230799D01*
X4351913Y64230799D01*
X4579824Y64291868D01*
X4579837Y64291872D01*
X4797824Y64382164D01*
X4797829Y64382166D01*
X5002170Y64500143D01*
X5002178Y64500148D01*
X5163743Y64624124D01*
X4413555Y65374312D01*
X4478097Y65417437D01*
X4582563Y65521903D01*
X4625688Y65586445D01*
X5375876Y64836257D01*
X5499852Y64997822D01*
X5499857Y64997830D01*
X5617834Y65202171D01*
X5617836Y65202176D01*
X5708128Y65420163D01*
X5708132Y65420176D01*
X5769201Y65648087D01*
X5769201Y65648092D01*
X5799999Y65882022D01*
X5800000Y65882023D01*
X5800000Y66117977D01*
X5799999Y66117979D01*
X5769201Y66351909D01*
X5769201Y66351914D01*
X5708132Y66579825D01*
X5708130Y66579832D01*
X5702109Y66594369D01*
X5702108Y66594371D01*
X5689104Y66625766D01*
X84980500Y66625766D01*
X84980500Y66474234D01*
X85012379Y66355258D01*
X85019720Y66327861D01*
X85095481Y66196640D01*
X85095483Y66196638D01*
X85095485Y66196635D01*
X85202635Y66089485D01*
X85202637Y66089484D01*
X85202639Y66089482D01*
X85333861Y66013721D01*
X85333859Y66013721D01*
X85333863Y66013720D01*
X85333865Y66013719D01*
X85480234Y65974500D01*
X85480236Y65974500D01*
X85631764Y65974500D01*
X85631766Y65974500D01*
X85778135Y66013719D01*
X85778137Y66013721D01*
X85778139Y66013721D01*
X85909360Y66089482D01*
X85909360Y66089483D01*
X85909365Y66089485D01*
X86016515Y66196635D01*
X86016518Y66196640D01*
X86092279Y66327861D01*
X86092279Y66327863D01*
X86092281Y66327865D01*
X86131500Y66474234D01*
X86131500Y66625766D01*
X86092281Y66772135D01*
X86092279Y66772138D01*
X86092279Y66772140D01*
X86016518Y66903361D01*
X86016516Y66903363D01*
X86016515Y66903365D01*
X85909365Y67010515D01*
X85909362Y67010517D01*
X85909360Y67010519D01*
X85778138Y67086280D01*
X85778140Y67086280D01*
X85721347Y67101497D01*
X85631766Y67125500D01*
X85480234Y67125500D01*
X85390652Y67101497D01*
X85333860Y67086280D01*
X85202639Y67010519D01*
X85095481Y66903361D01*
X85019720Y66772140D01*
X85019719Y66772135D01*
X84980500Y66625766D01*
X5689104Y66625766D01*
X5617836Y66797825D01*
X5617834Y66797830D01*
X5499860Y67002166D01*
X5375875Y67163745D01*
X4625687Y66413557D01*
X4582563Y66478097D01*
X4478097Y66582563D01*
X4413554Y66625689D01*
X5163743Y67375877D01*
X5002165Y67499861D01*
X4797829Y67617835D01*
X4797824Y67617837D01*
X4579837Y67708129D01*
X4579824Y67708133D01*
X4351911Y67769202D01*
X4117978Y67800000D01*
X3882021Y67800000D01*
X3648091Y67769202D01*
X3648086Y67769202D01*
X3420175Y67708133D01*
X3420162Y67708129D01*
X3202175Y67617837D01*
X3202170Y67617835D01*
X2997830Y67499858D01*
X2836255Y67375878D01*
X3586444Y66625689D01*
X3521903Y66582563D01*
X3417437Y66478097D01*
X3374311Y66413556D01*
X2624122Y67163745D01*
X2500142Y67002170D01*
X2382165Y66797830D01*
X2382163Y66797825D01*
X2291871Y66579838D01*
X2291867Y66579825D01*
X2230798Y66351914D01*
X2230798Y66351909D01*
X2200000Y66117979D01*
X500500Y66117979D01*
X500500Y68597871D01*
X9949500Y68597871D01*
X9949500Y67402134D01*
X9949501Y67402130D01*
X9955908Y67342520D01*
X9955909Y67342515D01*
X10006202Y67207671D01*
X10092450Y67092459D01*
X10092454Y67092454D01*
X10092457Y67092452D01*
X10092458Y67092451D01*
X10207670Y67006203D01*
X10342511Y66955911D01*
X10342512Y66955911D01*
X10342517Y66955909D01*
X10402127Y66949500D01*
X11597872Y66949501D01*
X11657483Y66955909D01*
X11781505Y67002166D01*
X11792329Y67006203D01*
X11792329Y67006204D01*
X11792331Y67006204D01*
X11907546Y67092454D01*
X11993796Y67207669D01*
X12044091Y67342517D01*
X12050500Y67402127D01*
X12050499Y68086576D01*
X12400000Y68086576D01*
X12400000Y67913425D01*
X12427084Y67742421D01*
X12480588Y67577752D01*
X12559195Y67423476D01*
X12559197Y67423472D01*
X12623219Y67335354D01*
X13129532Y67841668D01*
X13179920Y67754394D01*
X13254394Y67679920D01*
X13341665Y67629535D01*
X12835352Y67123222D01*
X12923477Y67059195D01*
X13077751Y66980589D01*
X13242420Y66927085D01*
X13413425Y66900000D01*
X13586575Y66900000D01*
X13757579Y66927085D01*
X13922248Y66980589D01*
X14076524Y67059196D01*
X14076530Y67059200D01*
X14164646Y67123221D01*
X14164646Y67123222D01*
X13658333Y67629534D01*
X13745606Y67679920D01*
X13820080Y67754394D01*
X13870466Y67841667D01*
X14376778Y67335354D01*
X14376779Y67335354D01*
X14440800Y67423470D01*
X14440804Y67423476D01*
X14519411Y67577752D01*
X14572915Y67742421D01*
X14600000Y67913425D01*
X14600000Y68086576D01*
X14572915Y68257580D01*
X14553978Y68315862D01*
X14553978Y68315863D01*
X14546147Y68339966D01*
X20334500Y68339966D01*
X20334500Y68188434D01*
X20369086Y68059353D01*
X20373720Y68042061D01*
X20449481Y67910840D01*
X20449483Y67910838D01*
X20449485Y67910835D01*
X20556635Y67803685D01*
X20556637Y67803684D01*
X20556639Y67803682D01*
X20687861Y67727921D01*
X20687859Y67727921D01*
X20687863Y67727920D01*
X20687865Y67727919D01*
X20834234Y67688700D01*
X20834236Y67688700D01*
X20985764Y67688700D01*
X20985766Y67688700D01*
X21132135Y67727919D01*
X21132137Y67727921D01*
X21132139Y67727921D01*
X21263360Y67803682D01*
X21263360Y67803683D01*
X21263365Y67803685D01*
X21370515Y67910835D01*
X21446281Y68042065D01*
X21485500Y68188434D01*
X21485500Y68339966D01*
X21446281Y68486335D01*
X21446279Y68486338D01*
X21446279Y68486340D01*
X21370518Y68617561D01*
X21370516Y68617563D01*
X21370515Y68617565D01*
X21263365Y68724715D01*
X21263362Y68724717D01*
X21263360Y68724719D01*
X21132138Y68800480D01*
X21132140Y68800480D01*
X21075347Y68815697D01*
X20985766Y68839700D01*
X20834234Y68839700D01*
X20744652Y68815697D01*
X20687860Y68800480D01*
X20556639Y68724719D01*
X20449481Y68617561D01*
X20373720Y68486340D01*
X20373719Y68486335D01*
X20334500Y68339966D01*
X14546147Y68339966D01*
X14519412Y68422247D01*
X14440805Y68576523D01*
X14376778Y68664648D01*
X13870465Y68158335D01*
X13820080Y68245606D01*
X13745606Y68320080D01*
X13658332Y68370468D01*
X14164646Y68876781D01*
X14076528Y68940803D01*
X14076524Y68940805D01*
X13922248Y69019412D01*
X13757579Y69072916D01*
X13586575Y69100000D01*
X13413425Y69100000D01*
X13242420Y69072916D01*
X13077751Y69019412D01*
X12923476Y68940805D01*
X12835352Y68876781D01*
X13341666Y68370467D01*
X13254394Y68320080D01*
X13179920Y68245606D01*
X13129533Y68158334D01*
X12623219Y68664648D01*
X12559195Y68576524D01*
X12480588Y68422249D01*
X12427084Y68257580D01*
X12400000Y68086576D01*
X12050499Y68086576D01*
X12050499Y68597872D01*
X12044091Y68657483D01*
X12019014Y68724719D01*
X11993797Y68792330D01*
X11907549Y68907542D01*
X11907548Y68907543D01*
X11907546Y68907546D01*
X11907541Y68907550D01*
X11792329Y68993798D01*
X11657488Y69044090D01*
X11657483Y69044091D01*
X11657481Y69044092D01*
X11657477Y69044092D01*
X11626249Y69047450D01*
X11597873Y69050500D01*
X11597870Y69050500D01*
X10402133Y69050500D01*
X10402129Y69050500D01*
X10402128Y69050499D01*
X10394949Y69049728D01*
X10342519Y69044092D01*
X10342514Y69044091D01*
X10207670Y68993798D01*
X10092458Y68907550D01*
X10092450Y68907542D01*
X10006202Y68792330D01*
X9955910Y68657489D01*
X9955908Y68657478D01*
X9949500Y68597871D01*
X500500Y68597871D01*
X500500Y71079057D01*
X39474499Y71079057D01*
X39474499Y70920943D01*
X39515422Y70768216D01*
X39594479Y70631284D01*
X39706283Y70519480D01*
X39843215Y70440423D01*
X39995942Y70399500D01*
X39995944Y70399500D01*
X40154054Y70399500D01*
X40154056Y70399500D01*
X40306783Y70440423D01*
X40443715Y70519480D01*
X40555519Y70631284D01*
X40634576Y70768216D01*
X40675499Y70920943D01*
X40675499Y71079057D01*
X40634576Y71231784D01*
X40555519Y71368716D01*
X40443715Y71480520D01*
X40306783Y71559577D01*
X40154056Y71600500D01*
X39995942Y71600500D01*
X39843215Y71559577D01*
X39706283Y71480520D01*
X39594479Y71368716D01*
X39515422Y71231784D01*
X39474499Y71079057D01*
X500500Y71079057D01*
X500500Y72079057D01*
X50499499Y72079057D01*
X50499499Y71920943D01*
X50540422Y71768216D01*
X50619479Y71631284D01*
X50731283Y71519480D01*
X50868215Y71440423D01*
X51020942Y71399500D01*
X51020944Y71399500D01*
X51179054Y71399500D01*
X51179056Y71399500D01*
X51331783Y71440423D01*
X51468715Y71519480D01*
X51580519Y71631284D01*
X51587437Y71643266D01*
X53424500Y71643266D01*
X53424500Y71491734D01*
X53438249Y71440423D01*
X53463720Y71345361D01*
X53539481Y71214140D01*
X53539483Y71214138D01*
X53539485Y71214135D01*
X53646635Y71106985D01*
X53646637Y71106984D01*
X53646639Y71106982D01*
X53777861Y71031221D01*
X53777859Y71031221D01*
X53777863Y71031220D01*
X53777865Y71031219D01*
X53924234Y70992000D01*
X53924236Y70992000D01*
X54075764Y70992000D01*
X54075766Y70992000D01*
X54222135Y71031219D01*
X54222137Y71031221D01*
X54222139Y71031221D01*
X54353360Y71106982D01*
X54353360Y71106983D01*
X54353365Y71106985D01*
X54460515Y71214135D01*
X54536281Y71345365D01*
X54575500Y71491734D01*
X54575500Y71643266D01*
X54536281Y71789635D01*
X54536279Y71789638D01*
X54536279Y71789640D01*
X54460518Y71920861D01*
X54460516Y71920863D01*
X54460515Y71920865D01*
X54353365Y72028015D01*
X54353362Y72028017D01*
X54353360Y72028019D01*
X54222138Y72103780D01*
X54222140Y72103780D01*
X54165347Y72118997D01*
X54075766Y72143000D01*
X53924234Y72143000D01*
X53834652Y72118997D01*
X53777860Y72103780D01*
X53646639Y72028019D01*
X53539481Y71920861D01*
X53463720Y71789640D01*
X53463719Y71789635D01*
X53424500Y71643266D01*
X51587437Y71643266D01*
X51659576Y71768216D01*
X51700499Y71920943D01*
X51700499Y72079057D01*
X51659576Y72231784D01*
X51580519Y72368716D01*
X51468715Y72480520D01*
X51331783Y72559577D01*
X51179056Y72600500D01*
X51020942Y72600500D01*
X50868215Y72559577D01*
X50731283Y72480520D01*
X50619479Y72368716D01*
X50540422Y72231784D01*
X50499499Y72079057D01*
X500500Y72079057D01*
X500500Y76029057D01*
X74099500Y76029057D01*
X74099500Y75870943D01*
X74140423Y75718216D01*
X74219480Y75581284D01*
X74331284Y75469480D01*
X74468216Y75390423D01*
X74620943Y75349500D01*
X74620945Y75349500D01*
X74779055Y75349500D01*
X74779057Y75349500D01*
X74931784Y75390423D01*
X75068716Y75469480D01*
X75180520Y75581284D01*
X75259577Y75718216D01*
X75300500Y75870943D01*
X75300500Y76016557D01*
X85999500Y76016557D01*
X85999500Y75858443D01*
X86040423Y75705716D01*
X86119480Y75568784D01*
X86231284Y75456980D01*
X86368216Y75377923D01*
X86520943Y75337000D01*
X86520945Y75337000D01*
X86679055Y75337000D01*
X86679057Y75337000D01*
X86831784Y75377923D01*
X86968716Y75456980D01*
X87080520Y75568784D01*
X87159577Y75705716D01*
X87200500Y75858443D01*
X87200500Y76016557D01*
X87159577Y76169284D01*
X87080520Y76306216D01*
X86968716Y76418020D01*
X86831784Y76497077D01*
X86679057Y76538000D01*
X86520943Y76538000D01*
X86368216Y76497077D01*
X86231284Y76418020D01*
X86119480Y76306216D01*
X86040423Y76169284D01*
X85999500Y76016557D01*
X75300500Y76016557D01*
X75300500Y76029057D01*
X75259577Y76181784D01*
X75180520Y76318716D01*
X75068716Y76430520D01*
X74931784Y76509577D01*
X74779057Y76550500D01*
X74620943Y76550500D01*
X74468216Y76509577D01*
X74331284Y76430520D01*
X74219480Y76318716D01*
X74140423Y76181784D01*
X74099500Y76029057D01*
X500500Y76029057D01*
X500500Y77579057D01*
X7349500Y77579057D01*
X7349500Y77420943D01*
X7390423Y77268216D01*
X7469480Y77131284D01*
X7581284Y77019480D01*
X7718216Y76940423D01*
X7870943Y76899500D01*
X7870945Y76899500D01*
X8029055Y76899500D01*
X8029057Y76899500D01*
X8181784Y76940423D01*
X8318716Y77019480D01*
X8430520Y77131284D01*
X8509577Y77268216D01*
X8550500Y77420943D01*
X8550500Y77579057D01*
X8509577Y77731784D01*
X8430520Y77868716D01*
X8318716Y77980520D01*
X8181784Y78059577D01*
X8029057Y78100500D01*
X7870943Y78100500D01*
X7718216Y78059577D01*
X7581284Y77980520D01*
X7469480Y77868716D01*
X7390423Y77731784D01*
X7349500Y77579057D01*
X500500Y77579057D01*
X500500Y79279057D01*
X14399500Y79279057D01*
X14399500Y79120943D01*
X14440423Y78968216D01*
X14519480Y78831284D01*
X14631284Y78719480D01*
X14768216Y78640423D01*
X14920943Y78599500D01*
X14920945Y78599500D01*
X15079055Y78599500D01*
X15079057Y78599500D01*
X15231784Y78640423D01*
X15368716Y78719480D01*
X15480520Y78831284D01*
X15559577Y78968216D01*
X15600500Y79120943D01*
X15600500Y79279057D01*
X15559577Y79431784D01*
X15480520Y79568716D01*
X15368716Y79680520D01*
X15231784Y79759577D01*
X15079057Y79800500D01*
X14920943Y79800500D01*
X14768216Y79759577D01*
X14631284Y79680520D01*
X14519480Y79568716D01*
X14440423Y79431784D01*
X14399500Y79279057D01*
X500500Y79279057D01*
X500500Y80177066D01*
X17808000Y80177066D01*
X17808000Y80025534D01*
X17836024Y79920945D01*
X17847220Y79879161D01*
X17922981Y79747940D01*
X17922983Y79747938D01*
X17922985Y79747935D01*
X18030135Y79640785D01*
X18030137Y79640784D01*
X18030139Y79640782D01*
X18161361Y79565021D01*
X18161359Y79565021D01*
X18161363Y79565020D01*
X18161365Y79565019D01*
X18307734Y79525800D01*
X18307736Y79525800D01*
X18459264Y79525800D01*
X18459266Y79525800D01*
X18605635Y79565019D01*
X18605637Y79565021D01*
X18605639Y79565021D01*
X18736860Y79640782D01*
X18736860Y79640783D01*
X18736865Y79640785D01*
X18844015Y79747935D01*
X18919781Y79879165D01*
X18959000Y80025534D01*
X18959000Y80079057D01*
X39474499Y80079057D01*
X39474499Y79920943D01*
X39515422Y79768216D01*
X39594479Y79631284D01*
X39706283Y79519480D01*
X39843215Y79440423D01*
X39995942Y79399500D01*
X39995944Y79399500D01*
X40154054Y79399500D01*
X40154056Y79399500D01*
X40306783Y79440423D01*
X40443715Y79519480D01*
X40555519Y79631284D01*
X40634576Y79768216D01*
X40675499Y79920943D01*
X40675499Y80079057D01*
X40634576Y80231784D01*
X40555519Y80368716D01*
X40443715Y80480520D01*
X40306783Y80559577D01*
X40154056Y80600500D01*
X39995942Y80600500D01*
X39843215Y80559577D01*
X39706283Y80480520D01*
X39594479Y80368716D01*
X39515422Y80231784D01*
X39474499Y80079057D01*
X18959000Y80079057D01*
X18959000Y80177066D01*
X18919781Y80323435D01*
X18919779Y80323438D01*
X18919779Y80323440D01*
X18844018Y80454661D01*
X18844016Y80454663D01*
X18844015Y80454665D01*
X18736865Y80561815D01*
X18736862Y80561817D01*
X18736860Y80561819D01*
X18605638Y80637580D01*
X18605640Y80637580D01*
X18548847Y80652797D01*
X18459266Y80676800D01*
X18307734Y80676800D01*
X18218152Y80652797D01*
X18161360Y80637580D01*
X18030139Y80561819D01*
X17922981Y80454661D01*
X17847220Y80323440D01*
X17847219Y80323435D01*
X17808000Y80177066D01*
X500500Y80177066D01*
X500500Y84079057D01*
X87499500Y84079057D01*
X87499500Y83920943D01*
X87540423Y83768216D01*
X87619480Y83631284D01*
X87731284Y83519480D01*
X87868216Y83440423D01*
X88020943Y83399500D01*
X88020945Y83399500D01*
X88179055Y83399500D01*
X88179057Y83399500D01*
X88331784Y83440423D01*
X88468716Y83519480D01*
X88580520Y83631284D01*
X88659577Y83768216D01*
X88700500Y83920943D01*
X88700500Y84079057D01*
X88659577Y84231784D01*
X88580520Y84368716D01*
X88468716Y84480520D01*
X88331784Y84559577D01*
X88179057Y84600500D01*
X88020943Y84600500D01*
X87868216Y84559577D01*
X87731284Y84480520D01*
X87619480Y84368716D01*
X87540423Y84231784D01*
X87499500Y84079057D01*
X500500Y84079057D01*
X500500Y85631766D01*
X55889800Y85631766D01*
X55889800Y85480234D01*
X55924386Y85351153D01*
X55929020Y85333861D01*
X56004781Y85202640D01*
X56004783Y85202638D01*
X56004785Y85202635D01*
X56111935Y85095485D01*
X56111937Y85095484D01*
X56111939Y85095482D01*
X56243161Y85019721D01*
X56243159Y85019721D01*
X56243163Y85019720D01*
X56243165Y85019719D01*
X56389534Y84980500D01*
X56389536Y84980500D01*
X56541064Y84980500D01*
X56541066Y84980500D01*
X56687435Y85019719D01*
X56687437Y85019721D01*
X56687439Y85019721D01*
X56818660Y85095482D01*
X56818660Y85095483D01*
X56818665Y85095485D01*
X56925815Y85202635D01*
X57001581Y85333865D01*
X57040800Y85480234D01*
X57040800Y85631766D01*
X57001581Y85778135D01*
X57001579Y85778138D01*
X57001579Y85778140D01*
X56925818Y85909361D01*
X56925816Y85909363D01*
X56925815Y85909365D01*
X56818665Y86016515D01*
X56818662Y86016517D01*
X56818660Y86016519D01*
X56687438Y86092280D01*
X56687440Y86092280D01*
X56630647Y86107497D01*
X56541066Y86131500D01*
X56389534Y86131500D01*
X56299952Y86107497D01*
X56243160Y86092280D01*
X56111939Y86016519D01*
X56004781Y85909361D01*
X55929020Y85778140D01*
X55929019Y85778135D01*
X55889800Y85631766D01*
X500500Y85631766D01*
X500500Y87575766D01*
X82694400Y87575766D01*
X82694400Y87424234D01*
X82728986Y87295153D01*
X82733620Y87277861D01*
X82809381Y87146640D01*
X82809383Y87146638D01*
X82809385Y87146635D01*
X82916535Y87039485D01*
X82916537Y87039484D01*
X82916539Y87039482D01*
X83047761Y86963721D01*
X83047759Y86963721D01*
X83047763Y86963720D01*
X83047765Y86963719D01*
X83194134Y86924500D01*
X83194136Y86924500D01*
X83345664Y86924500D01*
X83345666Y86924500D01*
X83492035Y86963719D01*
X83492037Y86963721D01*
X83492039Y86963721D01*
X83623260Y87039482D01*
X83623260Y87039483D01*
X83623265Y87039485D01*
X83730415Y87146635D01*
X83806181Y87277865D01*
X83845400Y87424234D01*
X83845400Y87575766D01*
X83806181Y87722135D01*
X83806179Y87722138D01*
X83806179Y87722140D01*
X83730418Y87853361D01*
X83730416Y87853363D01*
X83730415Y87853365D01*
X83623265Y87960515D01*
X83623262Y87960517D01*
X83623260Y87960519D01*
X83492038Y88036280D01*
X83492040Y88036280D01*
X83435247Y88051497D01*
X83345666Y88075500D01*
X83194134Y88075500D01*
X83104552Y88051497D01*
X83047760Y88036280D01*
X82916539Y87960519D01*
X82809381Y87853361D01*
X82733620Y87722140D01*
X82733619Y87722135D01*
X82694400Y87575766D01*
X500500Y87575766D01*
X500500Y89079057D01*
X39474499Y89079057D01*
X39474499Y88920943D01*
X39515422Y88768216D01*
X39594479Y88631284D01*
X39706283Y88519480D01*
X39843215Y88440423D01*
X39995942Y88399500D01*
X39995944Y88399500D01*
X40154054Y88399500D01*
X40154056Y88399500D01*
X40306783Y88440423D01*
X40443715Y88519480D01*
X40555519Y88631284D01*
X40634576Y88768216D01*
X40675499Y88920943D01*
X40675499Y89075766D01*
X60294400Y89075766D01*
X60294400Y88924234D01*
X60310522Y88864066D01*
X60333620Y88777861D01*
X60409381Y88646640D01*
X60409383Y88646638D01*
X60409385Y88646635D01*
X60516535Y88539485D01*
X60516537Y88539484D01*
X60516539Y88539482D01*
X60647761Y88463721D01*
X60647759Y88463721D01*
X60647763Y88463720D01*
X60647765Y88463719D01*
X60794134Y88424500D01*
X60794136Y88424500D01*
X60945664Y88424500D01*
X60945666Y88424500D01*
X61092035Y88463719D01*
X61092037Y88463721D01*
X61092039Y88463721D01*
X61223260Y88539482D01*
X61223260Y88539483D01*
X61223265Y88539485D01*
X61330415Y88646635D01*
X61406181Y88777865D01*
X61429278Y88864066D01*
X84047400Y88864066D01*
X84047400Y88712534D01*
X84069171Y88631284D01*
X84086620Y88566161D01*
X84162381Y88434940D01*
X84162383Y88434938D01*
X84162385Y88434935D01*
X84269535Y88327785D01*
X84269537Y88327784D01*
X84269539Y88327782D01*
X84400761Y88252021D01*
X84400759Y88252021D01*
X84400763Y88252020D01*
X84400765Y88252019D01*
X84547134Y88212800D01*
X84547136Y88212800D01*
X84698664Y88212800D01*
X84698666Y88212800D01*
X84845035Y88252019D01*
X84845037Y88252021D01*
X84845039Y88252021D01*
X84976260Y88327782D01*
X84976260Y88327783D01*
X84976265Y88327785D01*
X85083415Y88434935D01*
X85100035Y88463721D01*
X85159179Y88566161D01*
X85159179Y88566163D01*
X85159181Y88566165D01*
X85198400Y88712534D01*
X85198400Y88864066D01*
X85159181Y89010435D01*
X85159179Y89010438D01*
X85159179Y89010440D01*
X85083418Y89141661D01*
X85083416Y89141663D01*
X85083415Y89141665D01*
X84976265Y89248815D01*
X84976262Y89248817D01*
X84976260Y89248819D01*
X84845038Y89324580D01*
X84845040Y89324580D01*
X84788247Y89339797D01*
X84698666Y89363800D01*
X84547134Y89363800D01*
X84457552Y89339797D01*
X84400760Y89324580D01*
X84269539Y89248819D01*
X84162381Y89141661D01*
X84086620Y89010440D01*
X84086619Y89010435D01*
X84047400Y88864066D01*
X61429278Y88864066D01*
X61445400Y88924234D01*
X61445400Y89075766D01*
X61406181Y89222135D01*
X61406179Y89222138D01*
X61406179Y89222140D01*
X61330418Y89353361D01*
X61330416Y89353363D01*
X61330415Y89353365D01*
X61223265Y89460515D01*
X61223262Y89460517D01*
X61223260Y89460519D01*
X61092038Y89536280D01*
X61092040Y89536280D01*
X61035247Y89551497D01*
X60945666Y89575500D01*
X60794134Y89575500D01*
X60704552Y89551497D01*
X60647760Y89536280D01*
X60516539Y89460519D01*
X60409381Y89353361D01*
X60333620Y89222140D01*
X60333619Y89222135D01*
X60294400Y89075766D01*
X40675499Y89075766D01*
X40675499Y89079057D01*
X40634576Y89231784D01*
X40555519Y89368716D01*
X40443715Y89480520D01*
X40306783Y89559577D01*
X40154056Y89600500D01*
X39995942Y89600500D01*
X39843215Y89559577D01*
X39706283Y89480520D01*
X39594479Y89368716D01*
X39515422Y89231784D01*
X39474499Y89079057D01*
X500500Y89079057D01*
X500500Y90079057D01*
X53599499Y90079057D01*
X53599499Y89920943D01*
X53640422Y89768216D01*
X53719479Y89631284D01*
X53831283Y89519480D01*
X53968215Y89440423D01*
X54120942Y89399500D01*
X54120944Y89399500D01*
X54279054Y89399500D01*
X54279056Y89399500D01*
X54431783Y89440423D01*
X54568715Y89519480D01*
X54680519Y89631284D01*
X54759576Y89768216D01*
X54800499Y89920943D01*
X54800499Y90079057D01*
X54759576Y90231784D01*
X54680519Y90368716D01*
X54568715Y90480520D01*
X54431783Y90559577D01*
X54279056Y90600500D01*
X54120942Y90600500D01*
X53968215Y90559577D01*
X53831283Y90480520D01*
X53719479Y90368716D01*
X53640422Y90231784D01*
X53599499Y90079057D01*
X500500Y90079057D01*
X500500Y94269166D01*
X64930600Y94269166D01*
X64930600Y94117634D01*
X64965186Y93988553D01*
X64969820Y93971261D01*
X65045581Y93840040D01*
X65045583Y93840038D01*
X65045585Y93840035D01*
X65152735Y93732885D01*
X65152737Y93732884D01*
X65152739Y93732882D01*
X65283961Y93657121D01*
X65283959Y93657121D01*
X65283963Y93657120D01*
X65283965Y93657119D01*
X65430334Y93617900D01*
X65430336Y93617900D01*
X65581864Y93617900D01*
X65581866Y93617900D01*
X65728235Y93657119D01*
X65728237Y93657121D01*
X65728239Y93657121D01*
X65859460Y93732882D01*
X65859460Y93732883D01*
X65859465Y93732885D01*
X65966615Y93840035D01*
X66042381Y93971265D01*
X66081600Y94117634D01*
X66081600Y94269166D01*
X66042381Y94415535D01*
X66042379Y94415538D01*
X66042379Y94415540D01*
X65971195Y94538833D01*
X65958473Y94598681D01*
X65983359Y94654577D01*
X66036347Y94685170D01*
X66082551Y94683961D01*
X66107034Y94677400D01*
X66107036Y94677400D01*
X66258564Y94677400D01*
X66258566Y94677400D01*
X66404935Y94716619D01*
X66404937Y94716621D01*
X66404939Y94716621D01*
X66536160Y94792382D01*
X66536160Y94792383D01*
X66536165Y94792385D01*
X66643315Y94899535D01*
X66676691Y94957344D01*
X66719079Y95030761D01*
X66719079Y95030763D01*
X66719081Y95030765D01*
X66731139Y95075766D01*
X84980500Y95075766D01*
X84980500Y94924234D01*
X85015086Y94795153D01*
X85019720Y94777861D01*
X85095481Y94646640D01*
X85095483Y94646638D01*
X85095485Y94646635D01*
X85202635Y94539485D01*
X85202637Y94539484D01*
X85202639Y94539482D01*
X85333861Y94463721D01*
X85333859Y94463721D01*
X85333863Y94463720D01*
X85333865Y94463719D01*
X85480234Y94424500D01*
X85480236Y94424500D01*
X85631764Y94424500D01*
X85631766Y94424500D01*
X85778135Y94463719D01*
X85778137Y94463721D01*
X85778139Y94463721D01*
X85909360Y94539482D01*
X85909360Y94539483D01*
X85909365Y94539485D01*
X86016515Y94646635D01*
X86020718Y94653915D01*
X86092279Y94777861D01*
X86092279Y94777863D01*
X86092281Y94777865D01*
X86131500Y94924234D01*
X86131500Y95075766D01*
X86092281Y95222135D01*
X86092279Y95222138D01*
X86092279Y95222140D01*
X86016518Y95353361D01*
X86016516Y95353363D01*
X86016515Y95353365D01*
X85909365Y95460515D01*
X85909362Y95460517D01*
X85909360Y95460519D01*
X85778138Y95536280D01*
X85778140Y95536280D01*
X85721347Y95551497D01*
X85631766Y95575500D01*
X85480234Y95575500D01*
X85390652Y95551497D01*
X85333860Y95536280D01*
X85202639Y95460519D01*
X85095481Y95353361D01*
X85019720Y95222140D01*
X85019719Y95222135D01*
X84980500Y95075766D01*
X66731139Y95075766D01*
X66758300Y95177134D01*
X66758300Y95328666D01*
X66719081Y95475035D01*
X66719079Y95475038D01*
X66719079Y95475040D01*
X66643318Y95606261D01*
X66643316Y95606263D01*
X66643315Y95606265D01*
X66536165Y95713415D01*
X66536162Y95713417D01*
X66536160Y95713419D01*
X66404938Y95789180D01*
X66404940Y95789180D01*
X66348147Y95804397D01*
X66258566Y95828400D01*
X66107034Y95828400D01*
X66017452Y95804397D01*
X65960660Y95789180D01*
X65829439Y95713419D01*
X65722281Y95606261D01*
X65646520Y95475040D01*
X65646519Y95475035D01*
X65607300Y95328666D01*
X65607300Y95177134D01*
X65641886Y95048053D01*
X65646520Y95030761D01*
X65717704Y94907468D01*
X65730426Y94847620D01*
X65705539Y94791724D01*
X65652551Y94761131D01*
X65606347Y94762341D01*
X65581868Y94768900D01*
X65581866Y94768900D01*
X65430334Y94768900D01*
X65340752Y94744897D01*
X65283960Y94729680D01*
X65152739Y94653919D01*
X65045581Y94546761D01*
X64969820Y94415540D01*
X64969819Y94415535D01*
X64930600Y94269166D01*
X500500Y94269166D01*
X500500Y96125966D01*
X2399500Y96125966D01*
X2399500Y95874035D01*
X2438908Y95625220D01*
X2516759Y95385621D01*
X2622987Y95177135D01*
X2631130Y95161155D01*
X2779207Y94957344D01*
X2957344Y94779207D01*
X3161155Y94631130D01*
X3385621Y94516759D01*
X3625215Y94438910D01*
X3625216Y94438910D01*
X3625219Y94438909D01*
X3874035Y94399500D01*
X3874038Y94399500D01*
X4125965Y94399500D01*
X4374780Y94438909D01*
X4374781Y94438910D01*
X4374785Y94438910D01*
X4614379Y94516759D01*
X4838845Y94631130D01*
X5042656Y94779207D01*
X5220793Y94957344D01*
X5368870Y95161155D01*
X5483241Y95385621D01*
X5561090Y95625215D01*
X5575060Y95713415D01*
X5600500Y95874035D01*
X5600500Y96125966D01*
X5561091Y96374781D01*
X5561090Y96374785D01*
X5483241Y96614379D01*
X5368870Y96838845D01*
X5220793Y97042656D01*
X5184392Y97079057D01*
X60099499Y97079057D01*
X60099499Y96920943D01*
X60140422Y96768216D01*
X60219479Y96631284D01*
X60331283Y96519480D01*
X60468215Y96440423D01*
X60620942Y96399500D01*
X60620944Y96399500D01*
X60779054Y96399500D01*
X60779056Y96399500D01*
X60931783Y96440423D01*
X61068715Y96519480D01*
X61125001Y96575766D01*
X78515900Y96575766D01*
X78515900Y96424234D01*
X78529150Y96374785D01*
X78555120Y96277861D01*
X78630881Y96146640D01*
X78630883Y96146638D01*
X78630885Y96146635D01*
X78738035Y96039485D01*
X78738037Y96039484D01*
X78738039Y96039482D01*
X78869261Y95963721D01*
X78869259Y95963721D01*
X78869263Y95963720D01*
X78869265Y95963719D01*
X79015634Y95924500D01*
X79015636Y95924500D01*
X79167164Y95924500D01*
X79167166Y95924500D01*
X79313535Y95963719D01*
X79313537Y95963721D01*
X79313539Y95963721D01*
X79444760Y96039482D01*
X79444760Y96039483D01*
X79444765Y96039485D01*
X79531246Y96125966D01*
X94399500Y96125966D01*
X94399500Y95874035D01*
X94438908Y95625220D01*
X94516759Y95385621D01*
X94622987Y95177135D01*
X94631130Y95161155D01*
X94779207Y94957344D01*
X94957344Y94779207D01*
X95161155Y94631130D01*
X95385621Y94516759D01*
X95625215Y94438910D01*
X95625216Y94438910D01*
X95625219Y94438909D01*
X95874035Y94399500D01*
X95874038Y94399500D01*
X96125965Y94399500D01*
X96374780Y94438909D01*
X96374781Y94438910D01*
X96374785Y94438910D01*
X96614379Y94516759D01*
X96838845Y94631130D01*
X97042656Y94779207D01*
X97220793Y94957344D01*
X97368870Y95161155D01*
X97483241Y95385621D01*
X97561090Y95625215D01*
X97575060Y95713415D01*
X97600500Y95874035D01*
X97600500Y96125966D01*
X97561091Y96374781D01*
X97561090Y96374785D01*
X97483241Y96614379D01*
X97368870Y96838845D01*
X97220793Y97042656D01*
X97042656Y97220793D01*
X96838845Y97368870D01*
X96838844Y97368871D01*
X96838842Y97368872D01*
X96614379Y97483241D01*
X96374780Y97561092D01*
X96125965Y97600500D01*
X96125962Y97600500D01*
X95874038Y97600500D01*
X95874035Y97600500D01*
X95625219Y97561092D01*
X95385620Y97483241D01*
X95161157Y97368872D01*
X94957345Y97220794D01*
X94779206Y97042655D01*
X94631128Y96838843D01*
X94516759Y96614380D01*
X94438908Y96374781D01*
X94399500Y96125966D01*
X79531246Y96125966D01*
X79551915Y96146635D01*
X79551918Y96146640D01*
X79570805Y96179352D01*
X79627679Y96277861D01*
X79627679Y96277863D01*
X79627681Y96277865D01*
X79666900Y96424234D01*
X79666900Y96575766D01*
X79627681Y96722135D01*
X79627679Y96722138D01*
X79627679Y96722140D01*
X79551918Y96853361D01*
X79551916Y96853363D01*
X79551915Y96853365D01*
X79444765Y96960515D01*
X79444762Y96960517D01*
X79444760Y96960519D01*
X79313538Y97036280D01*
X79313540Y97036280D01*
X79256747Y97051497D01*
X79167166Y97075500D01*
X79015634Y97075500D01*
X78926052Y97051497D01*
X78869260Y97036280D01*
X78738039Y96960519D01*
X78630881Y96853361D01*
X78555120Y96722140D01*
X78555119Y96722135D01*
X78515900Y96575766D01*
X61125001Y96575766D01*
X61180519Y96631284D01*
X61259576Y96768216D01*
X61300499Y96920943D01*
X61300499Y97079057D01*
X61259576Y97231784D01*
X61180519Y97368716D01*
X61068715Y97480520D01*
X60931783Y97559577D01*
X60779056Y97600500D01*
X60620942Y97600500D01*
X60468215Y97559577D01*
X60331283Y97480520D01*
X60219479Y97368716D01*
X60140422Y97231784D01*
X60099499Y97079057D01*
X5184392Y97079057D01*
X5042656Y97220793D01*
X4838845Y97368870D01*
X4838844Y97368871D01*
X4838842Y97368872D01*
X4614379Y97483241D01*
X4374780Y97561092D01*
X4125965Y97600500D01*
X4125962Y97600500D01*
X3874038Y97600500D01*
X3874035Y97600500D01*
X3625219Y97561092D01*
X3385620Y97483241D01*
X3161157Y97368872D01*
X2957345Y97220794D01*
X2779206Y97042655D01*
X2631128Y96838843D01*
X2516759Y96614380D01*
X2438908Y96374781D01*
X2399500Y96125966D01*
X500500Y96125966D01*
X500500Y98079057D01*
X65099500Y98079057D01*
X65099500Y97920943D01*
X65140423Y97768216D01*
X65219480Y97631284D01*
X65331284Y97519480D01*
X65468216Y97440423D01*
X65620943Y97399500D01*
X65620945Y97399500D01*
X65779055Y97399500D01*
X65779057Y97399500D01*
X65931784Y97440423D01*
X66068716Y97519480D01*
X66180520Y97631284D01*
X66259577Y97768216D01*
X66300500Y97920943D01*
X66300500Y98079057D01*
X66259577Y98231784D01*
X66180520Y98368716D01*
X66068716Y98480520D01*
X65931784Y98559577D01*
X65779057Y98600500D01*
X65620943Y98600500D01*
X65468216Y98559577D01*
X65331284Y98480520D01*
X65219480Y98368716D01*
X65140423Y98231784D01*
X65099500Y98079057D01*
X500500Y98079057D01*
X500500Y99400500D01*
X519407Y99458691D01*
X568907Y99494655D01*
X599500Y99499500D01*
X58901000Y99499500D01*
X58959191Y99480593D01*
G37*
%TD.AperFunction*%
%TD*%
M02*
