%TF.GenerationSoftware,KiCad,Pcbnew,10.0.6*%
%TF.CreationDate,2026-09-22T09:21:39+02:00*%
%TF.ProjectId,leaf-heat-v7,6c656166-2d68-4656-9174-2d76372e6b69,G.5*%
%TF.SameCoordinates,Original*%
%TF.FileFunction,Legend,Top*%
%TF.FilePolarity,Positive*%
%FSLAX46Y46*%
G04 Gerber Fmt 4.6, Leading zero omitted, Abs format (unit mm)*
G04 Created by KiCad (PCBNEW 10.0.6) date 2026-09-22 09:21:39*
%MOMM*%
%LPD*%
G01*
G04 APERTURE LIST*
G04 Aperture macros list*
%AMRoundRect*
0 Rectangle with rounded corners*
0 $1 Rounding radius*
0 $2 $3 $4 $5 $6 $7 $8 $9 X,Y pos of 4 corners*
0 Add a 4 corners polygon primitive as box body*
4,1,4,$2,$3,$4,$5,$6,$7,$8,$9,$2,$3,0*
0 Add four circle primitives for the rounded corners*
1,1,$1+$1,$2,$3*
1,1,$1+$1,$4,$5*
1,1,$1+$1,$6,$7*
1,1,$1+$1,$8,$9*
0 Add four rect primitives between the rounded corners*
20,1,$1+$1,$2,$3,$4,$5,0*
20,1,$1+$1,$4,$5,$6,$7,0*
20,1,$1+$1,$6,$7,$8,$9,0*
20,1,$1+$1,$8,$9,$2,$3,0*%
G04 Aperture macros list end*
%ADD10C,0.150000*%
%ADD11RoundRect,0.250000X0.625000X-0.400000X0.625000X0.400000X-0.625000X0.400000X-0.625000X-0.400000X0*%
%ADD12RoundRect,0.250000X0.400000X0.625000X-0.400000X0.625000X-0.400000X-0.625000X0.400000X-0.625000X0*%
%ADD13C,2.000000*%
%ADD14R,2.700000X2.700000*%
%ADD15R,1.500000X0.900000*%
%ADD16RoundRect,0.250000X-0.412500X-1.100000X0.412500X-1.100000X0.412500X1.100000X-0.412500X1.100000X0*%
%ADD17C,3.000000*%
%ADD18RoundRect,0.250000X-0.400000X-0.625000X0.400000X-0.625000X0.400000X0.625000X-0.400000X0.625000X0*%
%ADD19RoundRect,0.250000X-0.412500X-0.650000X0.412500X-0.650000X0.412500X0.650000X-0.412500X0.650000X0*%
%ADD20R,1.600000X1.600000*%
%ADD21C,1.600000*%
%ADD22C,4.000000*%
%ADD23RoundRect,0.250000X0.412500X0.650000X-0.412500X0.650000X-0.412500X-0.650000X0.412500X-0.650000X0*%
%ADD24RoundRect,0.250000X-0.550000X-0.550000X0.550000X-0.550000X0.550000X0.550000X-0.550000X0.550000X0*%
%ADD25R,3.150000X1.960000*%
%ADD26C,2.700000*%
%ADD27RoundRect,0.250000X0.650000X-0.412500X0.650000X0.412500X-0.650000X0.412500X-0.650000X-0.412500X0*%
%ADD28RoundRect,0.250000X-0.625000X0.400000X-0.625000X-0.400000X0.625000X-0.400000X0.625000X0.400000X0*%
%ADD29RoundRect,0.250000X0.900000X-1.000000X0.900000X1.000000X-0.900000X1.000000X-0.900000X-1.000000X0*%
%ADD30RoundRect,0.250000X-0.650000X1.000000X-0.650000X-1.000000X0.650000X-1.000000X0.650000X1.000000X0*%
%ADD31R,2.350000X5.100000*%
%ADD32RoundRect,0.100000X-0.637500X-0.100000X0.637500X-0.100000X0.637500X0.100000X-0.637500X0.100000X0*%
%ADD33RoundRect,0.250000X-0.650000X0.412500X-0.650000X-0.412500X0.650000X-0.412500X0.650000X0.412500X0*%
%ADD34RoundRect,0.200000X0.200000X-0.750000X0.200000X0.750000X-0.200000X0.750000X-0.200000X-0.750000X0*%
%ADD35RoundRect,0.249999X-0.450001X-1.425001X0.450001X-1.425001X0.450001X1.425001X-0.450001X1.425001X0*%
%ADD36RoundRect,0.250001X0.462499X0.624999X-0.462499X0.624999X-0.462499X-0.624999X0.462499X-0.624999X0*%
%ADD37R,2.710000X3.400000*%
%ADD38RoundRect,0.070000X-1.100000X-0.250000X1.100000X-0.250000X1.100000X0.250000X-1.100000X0.250000X0*%
%ADD39RoundRect,0.150000X0.150000X-0.512500X0.150000X0.512500X-0.150000X0.512500X-0.150000X-0.512500X0*%
%ADD40R,1.700000X1.700000*%
%ADD41C,1.700000*%
%ADD42RoundRect,0.150000X-0.150000X1.175000X-0.150000X-1.175000X0.150000X-1.175000X0.150000X1.175000X0*%
%ADD43RoundRect,0.045000X-0.480000X-0.105000X0.480000X-0.105000X0.480000X0.105000X-0.480000X0.105000X0*%
%ADD44RoundRect,0.250000X1.100000X-0.412500X1.100000X0.412500X-1.100000X0.412500X-1.100000X-0.412500X0*%
G04 APERTURE END LIST*
D10*
X3238095Y63497562D02*
X3142857Y63545181D01*
X3142857Y63545181D02*
X3000000Y63545181D01*
X3000000Y63545181D02*
X2857143Y63497562D01*
X2857143Y63497562D02*
X2761905Y63402324D01*
X2761905Y63402324D02*
X2714286Y63307086D01*
X2714286Y63307086D02*
X2666667Y63116610D01*
X2666667Y63116610D02*
X2666667Y62973753D01*
X2666667Y62973753D02*
X2714286Y62783277D01*
X2714286Y62783277D02*
X2761905Y62688039D01*
X2761905Y62688039D02*
X2857143Y62592800D01*
X2857143Y62592800D02*
X3000000Y62545181D01*
X3000000Y62545181D02*
X3095238Y62545181D01*
X3095238Y62545181D02*
X3238095Y62592800D01*
X3238095Y62592800D02*
X3285714Y62640420D01*
X3285714Y62640420D02*
X3285714Y62973753D01*
X3285714Y62973753D02*
X3095238Y62973753D01*
X3714286Y62545181D02*
X3714286Y63545181D01*
X3714286Y63545181D02*
X4285714Y62545181D01*
X4285714Y62545181D02*
X4285714Y63545181D01*
X4761905Y62545181D02*
X4761905Y63545181D01*
X4761905Y63545181D02*
X5000000Y63545181D01*
X5000000Y63545181D02*
X5142857Y63497562D01*
X5142857Y63497562D02*
X5238095Y63402324D01*
X5238095Y63402324D02*
X5285714Y63307086D01*
X5285714Y63307086D02*
X5333333Y63116610D01*
X5333333Y63116610D02*
X5333333Y62973753D01*
X5333333Y62973753D02*
X5285714Y62783277D01*
X5285714Y62783277D02*
X5238095Y62688039D01*
X5238095Y62688039D02*
X5142857Y62592800D01*
X5142857Y62592800D02*
X5000000Y62545181D01*
X5000000Y62545181D02*
X4761905Y62545181D01*
X7571428Y20340420D02*
X7523809Y20292800D01*
X7523809Y20292800D02*
X7380952Y20245181D01*
X7380952Y20245181D02*
X7285714Y20245181D01*
X7285714Y20245181D02*
X7142857Y20292800D01*
X7142857Y20292800D02*
X7047619Y20388039D01*
X7047619Y20388039D02*
X7000000Y20483277D01*
X7000000Y20483277D02*
X6952381Y20673753D01*
X6952381Y20673753D02*
X6952381Y20816610D01*
X6952381Y20816610D02*
X7000000Y21007086D01*
X7000000Y21007086D02*
X7047619Y21102324D01*
X7047619Y21102324D02*
X7142857Y21197562D01*
X7142857Y21197562D02*
X7285714Y21245181D01*
X7285714Y21245181D02*
X7380952Y21245181D01*
X7380952Y21245181D02*
X7523809Y21197562D01*
X7523809Y21197562D02*
X7571428Y21149943D01*
X7952381Y20530896D02*
X8428571Y20530896D01*
X7857143Y20245181D02*
X8190476Y21245181D01*
X8190476Y21245181D02*
X8523809Y20245181D01*
X8857143Y20245181D02*
X8857143Y21245181D01*
X8857143Y21245181D02*
X9428571Y20245181D01*
X9428571Y20245181D02*
X9428571Y21245181D01*
X9666667Y20149943D02*
X10428571Y20149943D01*
X11142857Y20245181D02*
X10666667Y20245181D01*
X10666667Y20245181D02*
X10666667Y21245181D01*
X7452380Y13340420D02*
X7404761Y13292800D01*
X7404761Y13292800D02*
X7261904Y13245181D01*
X7261904Y13245181D02*
X7166666Y13245181D01*
X7166666Y13245181D02*
X7023809Y13292800D01*
X7023809Y13292800D02*
X6928571Y13388039D01*
X6928571Y13388039D02*
X6880952Y13483277D01*
X6880952Y13483277D02*
X6833333Y13673753D01*
X6833333Y13673753D02*
X6833333Y13816610D01*
X6833333Y13816610D02*
X6880952Y14007086D01*
X6880952Y14007086D02*
X6928571Y14102324D01*
X6928571Y14102324D02*
X7023809Y14197562D01*
X7023809Y14197562D02*
X7166666Y14245181D01*
X7166666Y14245181D02*
X7261904Y14245181D01*
X7261904Y14245181D02*
X7404761Y14197562D01*
X7404761Y14197562D02*
X7452380Y14149943D01*
X7833333Y13530896D02*
X8309523Y13530896D01*
X7738095Y13245181D02*
X8071428Y14245181D01*
X8071428Y14245181D02*
X8404761Y13245181D01*
X8738095Y13245181D02*
X8738095Y14245181D01*
X8738095Y14245181D02*
X9309523Y13245181D01*
X9309523Y13245181D02*
X9309523Y14245181D01*
X9547619Y13149943D02*
X10309523Y13149943D01*
X10547619Y13245181D02*
X10547619Y14245181D01*
X10547619Y13768991D02*
X11119047Y13768991D01*
X11119047Y13245181D02*
X11119047Y14245181D01*
X15857142Y3345181D02*
X15857142Y4345181D01*
X15857142Y4345181D02*
X16428570Y3345181D01*
X16428570Y3345181D02*
X16428570Y4345181D01*
X16904761Y3345181D02*
X16904761Y4345181D01*
X17333332Y3392800D02*
X17476189Y3345181D01*
X17476189Y3345181D02*
X17714284Y3345181D01*
X17714284Y3345181D02*
X17809522Y3392800D01*
X17809522Y3392800D02*
X17857141Y3440420D01*
X17857141Y3440420D02*
X17904760Y3535658D01*
X17904760Y3535658D02*
X17904760Y3630896D01*
X17904760Y3630896D02*
X17857141Y3726134D01*
X17857141Y3726134D02*
X17809522Y3773753D01*
X17809522Y3773753D02*
X17714284Y3821372D01*
X17714284Y3821372D02*
X17523808Y3868991D01*
X17523808Y3868991D02*
X17428570Y3916610D01*
X17428570Y3916610D02*
X17380951Y3964229D01*
X17380951Y3964229D02*
X17333332Y4059467D01*
X17333332Y4059467D02*
X17333332Y4154705D01*
X17333332Y4154705D02*
X17380951Y4249943D01*
X17380951Y4249943D02*
X17428570Y4297562D01*
X17428570Y4297562D02*
X17523808Y4345181D01*
X17523808Y4345181D02*
X17761903Y4345181D01*
X17761903Y4345181D02*
X17904760Y4297562D01*
X18285713Y3392800D02*
X18428570Y3345181D01*
X18428570Y3345181D02*
X18666665Y3345181D01*
X18666665Y3345181D02*
X18761903Y3392800D01*
X18761903Y3392800D02*
X18809522Y3440420D01*
X18809522Y3440420D02*
X18857141Y3535658D01*
X18857141Y3535658D02*
X18857141Y3630896D01*
X18857141Y3630896D02*
X18809522Y3726134D01*
X18809522Y3726134D02*
X18761903Y3773753D01*
X18761903Y3773753D02*
X18666665Y3821372D01*
X18666665Y3821372D02*
X18476189Y3868991D01*
X18476189Y3868991D02*
X18380951Y3916610D01*
X18380951Y3916610D02*
X18333332Y3964229D01*
X18333332Y3964229D02*
X18285713Y4059467D01*
X18285713Y4059467D02*
X18285713Y4154705D01*
X18285713Y4154705D02*
X18333332Y4249943D01*
X18333332Y4249943D02*
X18380951Y4297562D01*
X18380951Y4297562D02*
X18476189Y4345181D01*
X18476189Y4345181D02*
X18714284Y4345181D01*
X18714284Y4345181D02*
X18857141Y4297562D01*
X19238094Y3630896D02*
X19714284Y3630896D01*
X19142856Y3345181D02*
X19476189Y4345181D01*
X19476189Y4345181D02*
X19809522Y3345181D01*
X20142856Y3345181D02*
X20142856Y4345181D01*
X20142856Y4345181D02*
X20714284Y3345181D01*
X20714284Y3345181D02*
X20714284Y4345181D01*
X21857142Y4345181D02*
X22523808Y4345181D01*
X22523808Y4345181D02*
X21857142Y3345181D01*
X21857142Y3345181D02*
X22523808Y3345181D01*
X22904761Y3868991D02*
X23238094Y3868991D01*
X23380951Y3345181D02*
X22904761Y3345181D01*
X22904761Y3345181D02*
X22904761Y4345181D01*
X22904761Y4345181D02*
X23380951Y4345181D01*
X23999999Y4345181D02*
X24095237Y4345181D01*
X24095237Y4345181D02*
X24190475Y4297562D01*
X24190475Y4297562D02*
X24238094Y4249943D01*
X24238094Y4249943D02*
X24285713Y4154705D01*
X24285713Y4154705D02*
X24333332Y3964229D01*
X24333332Y3964229D02*
X24333332Y3726134D01*
X24333332Y3726134D02*
X24285713Y3535658D01*
X24285713Y3535658D02*
X24238094Y3440420D01*
X24238094Y3440420D02*
X24190475Y3392800D01*
X24190475Y3392800D02*
X24095237Y3345181D01*
X24095237Y3345181D02*
X23999999Y3345181D01*
X23999999Y3345181D02*
X23904761Y3392800D01*
X23904761Y3392800D02*
X23857142Y3440420D01*
X23857142Y3440420D02*
X23809523Y3535658D01*
X23809523Y3535658D02*
X23761904Y3726134D01*
X23761904Y3726134D02*
X23761904Y3964229D01*
X23761904Y3964229D02*
X23809523Y4154705D01*
X23809523Y4154705D02*
X23857142Y4249943D01*
X23857142Y4249943D02*
X23904761Y4297562D01*
X23904761Y4297562D02*
X23999999Y4345181D01*
X26095237Y3440420D02*
X26047618Y3392800D01*
X26047618Y3392800D02*
X25904761Y3345181D01*
X25904761Y3345181D02*
X25809523Y3345181D01*
X25809523Y3345181D02*
X25666666Y3392800D01*
X25666666Y3392800D02*
X25571428Y3488039D01*
X25571428Y3488039D02*
X25523809Y3583277D01*
X25523809Y3583277D02*
X25476190Y3773753D01*
X25476190Y3773753D02*
X25476190Y3916610D01*
X25476190Y3916610D02*
X25523809Y4107086D01*
X25523809Y4107086D02*
X25571428Y4202324D01*
X25571428Y4202324D02*
X25666666Y4297562D01*
X25666666Y4297562D02*
X25809523Y4345181D01*
X25809523Y4345181D02*
X25904761Y4345181D01*
X25904761Y4345181D02*
X26047618Y4297562D01*
X26047618Y4297562D02*
X26095237Y4249943D01*
X26476190Y3630896D02*
X26952380Y3630896D01*
X26380952Y3345181D02*
X26714285Y4345181D01*
X26714285Y4345181D02*
X27047618Y3345181D01*
X27714285Y3868991D02*
X27857142Y3821372D01*
X27857142Y3821372D02*
X27904761Y3773753D01*
X27904761Y3773753D02*
X27952380Y3678515D01*
X27952380Y3678515D02*
X27952380Y3535658D01*
X27952380Y3535658D02*
X27904761Y3440420D01*
X27904761Y3440420D02*
X27857142Y3392800D01*
X27857142Y3392800D02*
X27761904Y3345181D01*
X27761904Y3345181D02*
X27380952Y3345181D01*
X27380952Y3345181D02*
X27380952Y4345181D01*
X27380952Y4345181D02*
X27714285Y4345181D01*
X27714285Y4345181D02*
X27809523Y4297562D01*
X27809523Y4297562D02*
X27857142Y4249943D01*
X27857142Y4249943D02*
X27904761Y4154705D01*
X27904761Y4154705D02*
X27904761Y4059467D01*
X27904761Y4059467D02*
X27857142Y3964229D01*
X27857142Y3964229D02*
X27809523Y3916610D01*
X27809523Y3916610D02*
X27714285Y3868991D01*
X27714285Y3868991D02*
X27380952Y3868991D01*
X28857142Y3345181D02*
X28380952Y3345181D01*
X28380952Y3345181D02*
X28380952Y4345181D01*
X29190476Y3868991D02*
X29523809Y3868991D01*
X29666666Y3345181D02*
X29190476Y3345181D01*
X29190476Y3345181D02*
X29190476Y4345181D01*
X29190476Y4345181D02*
X29666666Y4345181D01*
X31047619Y4345181D02*
X31238095Y4345181D01*
X31238095Y4345181D02*
X31333333Y4297562D01*
X31333333Y4297562D02*
X31428571Y4202324D01*
X31428571Y4202324D02*
X31476190Y4011848D01*
X31476190Y4011848D02*
X31476190Y3678515D01*
X31476190Y3678515D02*
X31428571Y3488039D01*
X31428571Y3488039D02*
X31333333Y3392800D01*
X31333333Y3392800D02*
X31238095Y3345181D01*
X31238095Y3345181D02*
X31047619Y3345181D01*
X31047619Y3345181D02*
X30952381Y3392800D01*
X30952381Y3392800D02*
X30857143Y3488039D01*
X30857143Y3488039D02*
X30809524Y3678515D01*
X30809524Y3678515D02*
X30809524Y4011848D01*
X30809524Y4011848D02*
X30857143Y4202324D01*
X30857143Y4202324D02*
X30952381Y4297562D01*
X30952381Y4297562D02*
X31047619Y4345181D01*
X31904762Y3345181D02*
X31904762Y4345181D01*
X31904762Y4345181D02*
X32476190Y3345181D01*
X32476190Y3345181D02*
X32476190Y4345181D01*
X33428571Y3345181D02*
X32952381Y3345181D01*
X32952381Y3345181D02*
X32952381Y4345181D01*
X33952381Y3821372D02*
X33952381Y3345181D01*
X33619048Y4345181D02*
X33952381Y3821372D01*
X33952381Y3821372D02*
X34285714Y4345181D01*
X16785714Y745181D02*
X16214286Y745181D01*
X16500000Y745181D02*
X16500000Y1745181D01*
X16500000Y1745181D02*
X16404762Y1602324D01*
X16404762Y1602324D02*
X16309524Y1507086D01*
X16309524Y1507086D02*
X16214286Y1459467D01*
X17166667Y1649943D02*
X17214286Y1697562D01*
X17214286Y1697562D02*
X17309524Y1745181D01*
X17309524Y1745181D02*
X17547619Y1745181D01*
X17547619Y1745181D02*
X17642857Y1697562D01*
X17642857Y1697562D02*
X17690476Y1649943D01*
X17690476Y1649943D02*
X17738095Y1554705D01*
X17738095Y1554705D02*
X17738095Y1459467D01*
X17738095Y1459467D02*
X17690476Y1316610D01*
X17690476Y1316610D02*
X17119048Y745181D01*
X17119048Y745181D02*
X17738095Y745181D01*
X18023810Y1745181D02*
X18357143Y745181D01*
X18357143Y745181D02*
X18690476Y1745181D01*
X19023810Y840420D02*
X19071429Y792800D01*
X19071429Y792800D02*
X19023810Y745181D01*
X19023810Y745181D02*
X18976191Y792800D01*
X18976191Y792800D02*
X19023810Y840420D01*
X19023810Y840420D02*
X19023810Y745181D01*
X19023810Y1364229D02*
X19071429Y1316610D01*
X19071429Y1316610D02*
X19023810Y1268991D01*
X19023810Y1268991D02*
X18976191Y1316610D01*
X18976191Y1316610D02*
X19023810Y1364229D01*
X19023810Y1364229D02*
X19023810Y1268991D01*
X19547619Y745181D02*
X19738095Y745181D01*
X19738095Y745181D02*
X19833333Y792800D01*
X19833333Y792800D02*
X19880952Y840420D01*
X19880952Y840420D02*
X19976190Y983277D01*
X19976190Y983277D02*
X20023809Y1173753D01*
X20023809Y1173753D02*
X20023809Y1554705D01*
X20023809Y1554705D02*
X19976190Y1649943D01*
X19976190Y1649943D02*
X19928571Y1697562D01*
X19928571Y1697562D02*
X19833333Y1745181D01*
X19833333Y1745181D02*
X19642857Y1745181D01*
X19642857Y1745181D02*
X19547619Y1697562D01*
X19547619Y1697562D02*
X19500000Y1649943D01*
X19500000Y1649943D02*
X19452381Y1554705D01*
X19452381Y1554705D02*
X19452381Y1316610D01*
X19452381Y1316610D02*
X19500000Y1221372D01*
X19500000Y1221372D02*
X19547619Y1173753D01*
X19547619Y1173753D02*
X19642857Y1126134D01*
X19642857Y1126134D02*
X19833333Y1126134D01*
X19833333Y1126134D02*
X19928571Y1173753D01*
X19928571Y1173753D02*
X19976190Y1221372D01*
X19976190Y1221372D02*
X20023809Y1316610D01*
X22500000Y1697562D02*
X22404762Y1745181D01*
X22404762Y1745181D02*
X22261905Y1745181D01*
X22261905Y1745181D02*
X22119048Y1697562D01*
X22119048Y1697562D02*
X22023810Y1602324D01*
X22023810Y1602324D02*
X21976191Y1507086D01*
X21976191Y1507086D02*
X21928572Y1316610D01*
X21928572Y1316610D02*
X21928572Y1173753D01*
X21928572Y1173753D02*
X21976191Y983277D01*
X21976191Y983277D02*
X22023810Y888039D01*
X22023810Y888039D02*
X22119048Y792800D01*
X22119048Y792800D02*
X22261905Y745181D01*
X22261905Y745181D02*
X22357143Y745181D01*
X22357143Y745181D02*
X22500000Y792800D01*
X22500000Y792800D02*
X22547619Y840420D01*
X22547619Y840420D02*
X22547619Y1173753D01*
X22547619Y1173753D02*
X22357143Y1173753D01*
X22976191Y745181D02*
X22976191Y1745181D01*
X22976191Y1745181D02*
X23547619Y745181D01*
X23547619Y745181D02*
X23547619Y1745181D01*
X24023810Y745181D02*
X24023810Y1745181D01*
X24023810Y1745181D02*
X24261905Y1745181D01*
X24261905Y1745181D02*
X24404762Y1697562D01*
X24404762Y1697562D02*
X24500000Y1602324D01*
X24500000Y1602324D02*
X24547619Y1507086D01*
X24547619Y1507086D02*
X24595238Y1316610D01*
X24595238Y1316610D02*
X24595238Y1173753D01*
X24595238Y1173753D02*
X24547619Y983277D01*
X24547619Y983277D02*
X24500000Y888039D01*
X24500000Y888039D02*
X24404762Y792800D01*
X24404762Y792800D02*
X24261905Y745181D01*
X24261905Y745181D02*
X24023810Y745181D01*
X25023810Y840420D02*
X25071429Y792800D01*
X25071429Y792800D02*
X25023810Y745181D01*
X25023810Y745181D02*
X24976191Y792800D01*
X24976191Y792800D02*
X25023810Y840420D01*
X25023810Y840420D02*
X25023810Y745181D01*
X25023810Y1364229D02*
X25071429Y1316610D01*
X25071429Y1316610D02*
X25023810Y1268991D01*
X25023810Y1268991D02*
X24976191Y1316610D01*
X24976191Y1316610D02*
X25023810Y1364229D01*
X25023810Y1364229D02*
X25023810Y1268991D01*
X25404762Y1745181D02*
X26023809Y1745181D01*
X26023809Y1745181D02*
X25690476Y1364229D01*
X25690476Y1364229D02*
X25833333Y1364229D01*
X25833333Y1364229D02*
X25928571Y1316610D01*
X25928571Y1316610D02*
X25976190Y1268991D01*
X25976190Y1268991D02*
X26023809Y1173753D01*
X26023809Y1173753D02*
X26023809Y935658D01*
X26023809Y935658D02*
X25976190Y840420D01*
X25976190Y840420D02*
X25928571Y792800D01*
X25928571Y792800D02*
X25833333Y745181D01*
X25833333Y745181D02*
X25547619Y745181D01*
X25547619Y745181D02*
X25452381Y792800D01*
X25452381Y792800D02*
X25404762Y840420D01*
X27976191Y745181D02*
X27976191Y1745181D01*
X27976191Y1268991D02*
X28547619Y1268991D01*
X28547619Y745181D02*
X28547619Y1745181D01*
X29023810Y840420D02*
X29071429Y792800D01*
X29071429Y792800D02*
X29023810Y745181D01*
X29023810Y745181D02*
X28976191Y792800D01*
X28976191Y792800D02*
X29023810Y840420D01*
X29023810Y840420D02*
X29023810Y745181D01*
X29023810Y1364229D02*
X29071429Y1316610D01*
X29071429Y1316610D02*
X29023810Y1268991D01*
X29023810Y1268991D02*
X28976191Y1316610D01*
X28976191Y1316610D02*
X29023810Y1364229D01*
X29023810Y1364229D02*
X29023810Y1268991D01*
X29404762Y1745181D02*
X30071428Y1745181D01*
X30071428Y1745181D02*
X29642857Y745181D01*
X32452381Y745181D02*
X31976191Y745181D01*
X31976191Y745181D02*
X31976191Y1745181D01*
X32785715Y840420D02*
X32833334Y792800D01*
X32833334Y792800D02*
X32785715Y745181D01*
X32785715Y745181D02*
X32738096Y792800D01*
X32738096Y792800D02*
X32785715Y840420D01*
X32785715Y840420D02*
X32785715Y745181D01*
X32785715Y1364229D02*
X32833334Y1316610D01*
X32833334Y1316610D02*
X32785715Y1268991D01*
X32785715Y1268991D02*
X32738096Y1316610D01*
X32738096Y1316610D02*
X32785715Y1364229D01*
X32785715Y1364229D02*
X32785715Y1268991D01*
X33214286Y1649943D02*
X33261905Y1697562D01*
X33261905Y1697562D02*
X33357143Y1745181D01*
X33357143Y1745181D02*
X33595238Y1745181D01*
X33595238Y1745181D02*
X33690476Y1697562D01*
X33690476Y1697562D02*
X33738095Y1649943D01*
X33738095Y1649943D02*
X33785714Y1554705D01*
X33785714Y1554705D02*
X33785714Y1459467D01*
X33785714Y1459467D02*
X33738095Y1316610D01*
X33738095Y1316610D02*
X33166667Y745181D01*
X33166667Y745181D02*
X33785714Y745181D01*
X27095238Y42245181D02*
X27428571Y41245181D01*
X27428571Y41245181D02*
X27761904Y42245181D01*
X28095238Y41245181D02*
X28095238Y42245181D01*
X28095238Y42245181D02*
X28476190Y42245181D01*
X28476190Y42245181D02*
X28571428Y42197562D01*
X28571428Y42197562D02*
X28619047Y42149943D01*
X28619047Y42149943D02*
X28666666Y42054705D01*
X28666666Y42054705D02*
X28666666Y41911848D01*
X28666666Y41911848D02*
X28619047Y41816610D01*
X28619047Y41816610D02*
X28571428Y41768991D01*
X28571428Y41768991D02*
X28476190Y41721372D01*
X28476190Y41721372D02*
X28095238Y41721372D01*
X29000000Y42245181D02*
X29238095Y41245181D01*
X29238095Y41245181D02*
X29428571Y41959467D01*
X29428571Y41959467D02*
X29619047Y41245181D01*
X29619047Y41245181D02*
X29857143Y42245181D01*
X30809523Y41245181D02*
X30476190Y41721372D01*
X30238095Y41245181D02*
X30238095Y42245181D01*
X30238095Y42245181D02*
X30619047Y42245181D01*
X30619047Y42245181D02*
X30714285Y42197562D01*
X30714285Y42197562D02*
X30761904Y42149943D01*
X30761904Y42149943D02*
X30809523Y42054705D01*
X30809523Y42054705D02*
X30809523Y41911848D01*
X30809523Y41911848D02*
X30761904Y41816610D01*
X30761904Y41816610D02*
X30714285Y41768991D01*
X30714285Y41768991D02*
X30619047Y41721372D01*
X30619047Y41721372D02*
X30238095Y41721372D01*
X35761905Y55245181D02*
X36380952Y55245181D01*
X36380952Y55245181D02*
X36047619Y54864229D01*
X36047619Y54864229D02*
X36190476Y54864229D01*
X36190476Y54864229D02*
X36285714Y54816610D01*
X36285714Y54816610D02*
X36333333Y54768991D01*
X36333333Y54768991D02*
X36380952Y54673753D01*
X36380952Y54673753D02*
X36380952Y54435658D01*
X36380952Y54435658D02*
X36333333Y54340420D01*
X36333333Y54340420D02*
X36285714Y54292800D01*
X36285714Y54292800D02*
X36190476Y54245181D01*
X36190476Y54245181D02*
X35904762Y54245181D01*
X35904762Y54245181D02*
X35809524Y54292800D01*
X35809524Y54292800D02*
X35761905Y54340420D01*
X36666667Y55245181D02*
X37000000Y54245181D01*
X37000000Y54245181D02*
X37333333Y55245181D01*
X37571429Y55245181D02*
X38190476Y55245181D01*
X38190476Y55245181D02*
X37857143Y54864229D01*
X37857143Y54864229D02*
X38000000Y54864229D01*
X38000000Y54864229D02*
X38095238Y54816610D01*
X38095238Y54816610D02*
X38142857Y54768991D01*
X38142857Y54768991D02*
X38190476Y54673753D01*
X38190476Y54673753D02*
X38190476Y54435658D01*
X38190476Y54435658D02*
X38142857Y54340420D01*
X38142857Y54340420D02*
X38095238Y54292800D01*
X38095238Y54292800D02*
X38000000Y54245181D01*
X38000000Y54245181D02*
X37714286Y54245181D01*
X37714286Y54245181D02*
X37619048Y54292800D01*
X37619048Y54292800D02*
X37571429Y54340420D01*
X46619047Y5340420D02*
X46571428Y5292800D01*
X46571428Y5292800D02*
X46428571Y5245181D01*
X46428571Y5245181D02*
X46333333Y5245181D01*
X46333333Y5245181D02*
X46190476Y5292800D01*
X46190476Y5292800D02*
X46095238Y5388039D01*
X46095238Y5388039D02*
X46047619Y5483277D01*
X46047619Y5483277D02*
X46000000Y5673753D01*
X46000000Y5673753D02*
X46000000Y5816610D01*
X46000000Y5816610D02*
X46047619Y6007086D01*
X46047619Y6007086D02*
X46095238Y6102324D01*
X46095238Y6102324D02*
X46190476Y6197562D01*
X46190476Y6197562D02*
X46333333Y6245181D01*
X46333333Y6245181D02*
X46428571Y6245181D01*
X46428571Y6245181D02*
X46571428Y6197562D01*
X46571428Y6197562D02*
X46619047Y6149943D01*
X47000000Y5530896D02*
X47476190Y5530896D01*
X46904762Y5245181D02*
X47238095Y6245181D01*
X47238095Y6245181D02*
X47571428Y5245181D01*
X48476190Y5245181D02*
X48142857Y5721372D01*
X47904762Y5245181D02*
X47904762Y6245181D01*
X47904762Y6245181D02*
X48285714Y6245181D01*
X48285714Y6245181D02*
X48380952Y6197562D01*
X48380952Y6197562D02*
X48428571Y6149943D01*
X48428571Y6149943D02*
X48476190Y6054705D01*
X48476190Y6054705D02*
X48476190Y5911848D01*
X48476190Y5911848D02*
X48428571Y5816610D01*
X48428571Y5816610D02*
X48380952Y5768991D01*
X48380952Y5768991D02*
X48285714Y5721372D01*
X48285714Y5721372D02*
X47904762Y5721372D01*
X48666667Y5149943D02*
X49428571Y5149943D01*
X50190476Y5245181D02*
X49619048Y5245181D01*
X49904762Y5245181D02*
X49904762Y6245181D01*
X49904762Y6245181D02*
X49809524Y6102324D01*
X49809524Y6102324D02*
X49714286Y6007086D01*
X49714286Y6007086D02*
X49619048Y5959467D01*
X50571429Y6149943D02*
X50619048Y6197562D01*
X50619048Y6197562D02*
X50714286Y6245181D01*
X50714286Y6245181D02*
X50952381Y6245181D01*
X50952381Y6245181D02*
X51047619Y6197562D01*
X51047619Y6197562D02*
X51095238Y6149943D01*
X51095238Y6149943D02*
X51142857Y6054705D01*
X51142857Y6054705D02*
X51142857Y5959467D01*
X51142857Y5959467D02*
X51095238Y5816610D01*
X51095238Y5816610D02*
X50523810Y5245181D01*
X50523810Y5245181D02*
X51142857Y5245181D01*
X51428572Y6245181D02*
X51761905Y5245181D01*
X51761905Y5245181D02*
X52095238Y6245181D01*
X51452381Y28768991D02*
X51785714Y28768991D01*
X51928571Y28245181D02*
X51452381Y28245181D01*
X51452381Y28245181D02*
X51452381Y29245181D01*
X51452381Y29245181D02*
X51928571Y29245181D01*
X52309524Y28292800D02*
X52452381Y28245181D01*
X52452381Y28245181D02*
X52690476Y28245181D01*
X52690476Y28245181D02*
X52785714Y28292800D01*
X52785714Y28292800D02*
X52833333Y28340420D01*
X52833333Y28340420D02*
X52880952Y28435658D01*
X52880952Y28435658D02*
X52880952Y28530896D01*
X52880952Y28530896D02*
X52833333Y28626134D01*
X52833333Y28626134D02*
X52785714Y28673753D01*
X52785714Y28673753D02*
X52690476Y28721372D01*
X52690476Y28721372D02*
X52500000Y28768991D01*
X52500000Y28768991D02*
X52404762Y28816610D01*
X52404762Y28816610D02*
X52357143Y28864229D01*
X52357143Y28864229D02*
X52309524Y28959467D01*
X52309524Y28959467D02*
X52309524Y29054705D01*
X52309524Y29054705D02*
X52357143Y29149943D01*
X52357143Y29149943D02*
X52404762Y29197562D01*
X52404762Y29197562D02*
X52500000Y29245181D01*
X52500000Y29245181D02*
X52738095Y29245181D01*
X52738095Y29245181D02*
X52880952Y29197562D01*
X53309524Y28245181D02*
X53309524Y29245181D01*
X53309524Y29245181D02*
X53690476Y29245181D01*
X53690476Y29245181D02*
X53785714Y29197562D01*
X53785714Y29197562D02*
X53833333Y29149943D01*
X53833333Y29149943D02*
X53880952Y29054705D01*
X53880952Y29054705D02*
X53880952Y28911848D01*
X53880952Y28911848D02*
X53833333Y28816610D01*
X53833333Y28816610D02*
X53785714Y28768991D01*
X53785714Y28768991D02*
X53690476Y28721372D01*
X53690476Y28721372D02*
X53309524Y28721372D01*
X54071429Y28149943D02*
X54833333Y28149943D01*
X55071429Y28768991D02*
X55404762Y28768991D01*
X55547619Y28245181D02*
X55071429Y28245181D01*
X55071429Y28245181D02*
X55071429Y29245181D01*
X55071429Y29245181D02*
X55547619Y29245181D01*
X55976191Y28245181D02*
X55976191Y29245181D01*
X55976191Y29245181D02*
X56547619Y28245181D01*
X56547619Y28245181D02*
X56547619Y29245181D01*
X45976189Y43068991D02*
X45642856Y43068991D01*
X45642856Y42545181D02*
X45642856Y43545181D01*
X45642856Y43545181D02*
X46119046Y43545181D01*
X46452380Y42830896D02*
X46928570Y42830896D01*
X46357142Y42545181D02*
X46690475Y43545181D01*
X46690475Y43545181D02*
X47023808Y42545181D01*
X47928570Y42640420D02*
X47880951Y42592800D01*
X47880951Y42592800D02*
X47738094Y42545181D01*
X47738094Y42545181D02*
X47642856Y42545181D01*
X47642856Y42545181D02*
X47499999Y42592800D01*
X47499999Y42592800D02*
X47404761Y42688039D01*
X47404761Y42688039D02*
X47357142Y42783277D01*
X47357142Y42783277D02*
X47309523Y42973753D01*
X47309523Y42973753D02*
X47309523Y43116610D01*
X47309523Y43116610D02*
X47357142Y43307086D01*
X47357142Y43307086D02*
X47404761Y43402324D01*
X47404761Y43402324D02*
X47499999Y43497562D01*
X47499999Y43497562D02*
X47642856Y43545181D01*
X47642856Y43545181D02*
X47738094Y43545181D01*
X47738094Y43545181D02*
X47880951Y43497562D01*
X47880951Y43497562D02*
X47928570Y43449943D01*
X48214285Y43545181D02*
X48785713Y43545181D01*
X48499999Y42545181D02*
X48499999Y43545181D01*
X49309523Y43545181D02*
X49499999Y43545181D01*
X49499999Y43545181D02*
X49595237Y43497562D01*
X49595237Y43497562D02*
X49690475Y43402324D01*
X49690475Y43402324D02*
X49738094Y43211848D01*
X49738094Y43211848D02*
X49738094Y42878515D01*
X49738094Y42878515D02*
X49690475Y42688039D01*
X49690475Y42688039D02*
X49595237Y42592800D01*
X49595237Y42592800D02*
X49499999Y42545181D01*
X49499999Y42545181D02*
X49309523Y42545181D01*
X49309523Y42545181D02*
X49214285Y42592800D01*
X49214285Y42592800D02*
X49119047Y42688039D01*
X49119047Y42688039D02*
X49071428Y42878515D01*
X49071428Y42878515D02*
X49071428Y43211848D01*
X49071428Y43211848D02*
X49119047Y43402324D01*
X49119047Y43402324D02*
X49214285Y43497562D01*
X49214285Y43497562D02*
X49309523Y43545181D01*
X50738094Y42545181D02*
X50404761Y43021372D01*
X50166666Y42545181D02*
X50166666Y43545181D01*
X50166666Y43545181D02*
X50547618Y43545181D01*
X50547618Y43545181D02*
X50642856Y43497562D01*
X50642856Y43497562D02*
X50690475Y43449943D01*
X50690475Y43449943D02*
X50738094Y43354705D01*
X50738094Y43354705D02*
X50738094Y43211848D01*
X50738094Y43211848D02*
X50690475Y43116610D01*
X50690475Y43116610D02*
X50642856Y43068991D01*
X50642856Y43068991D02*
X50547618Y43021372D01*
X50547618Y43021372D02*
X50166666Y43021372D01*
X51357142Y43021372D02*
X51357142Y42545181D01*
X51023809Y43545181D02*
X51357142Y43021372D01*
X51357142Y43021372D02*
X51690475Y43545181D01*
X52023809Y42640420D02*
X52071428Y42592800D01*
X52071428Y42592800D02*
X52023809Y42545181D01*
X52023809Y42545181D02*
X51976190Y42592800D01*
X51976190Y42592800D02*
X52023809Y42640420D01*
X52023809Y42640420D02*
X52023809Y42545181D01*
X52023809Y43164229D02*
X52071428Y43116610D01*
X52071428Y43116610D02*
X52023809Y43068991D01*
X52023809Y43068991D02*
X51976190Y43116610D01*
X51976190Y43116610D02*
X52023809Y43164229D01*
X52023809Y43164229D02*
X52023809Y43068991D01*
X53261904Y43545181D02*
X53261904Y42735658D01*
X53261904Y42735658D02*
X53309523Y42640420D01*
X53309523Y42640420D02*
X53357142Y42592800D01*
X53357142Y42592800D02*
X53452380Y42545181D01*
X53452380Y42545181D02*
X53642856Y42545181D01*
X53642856Y42545181D02*
X53738094Y42592800D01*
X53738094Y42592800D02*
X53785713Y42640420D01*
X53785713Y42640420D02*
X53833332Y42735658D01*
X53833332Y42735658D02*
X53833332Y43545181D01*
X54833332Y42545181D02*
X54261904Y42545181D01*
X54547618Y42545181D02*
X54547618Y43545181D01*
X54547618Y43545181D02*
X54452380Y43402324D01*
X54452380Y43402324D02*
X54357142Y43307086D01*
X54357142Y43307086D02*
X54261904Y43259467D01*
X56023809Y43545181D02*
X56023809Y42735658D01*
X56023809Y42735658D02*
X56071428Y42640420D01*
X56071428Y42640420D02*
X56119047Y42592800D01*
X56119047Y42592800D02*
X56214285Y42545181D01*
X56214285Y42545181D02*
X56404761Y42545181D01*
X56404761Y42545181D02*
X56499999Y42592800D01*
X56499999Y42592800D02*
X56547618Y42640420D01*
X56547618Y42640420D02*
X56595237Y42735658D01*
X56595237Y42735658D02*
X56595237Y43545181D01*
X57023809Y43449943D02*
X57071428Y43497562D01*
X57071428Y43497562D02*
X57166666Y43545181D01*
X57166666Y43545181D02*
X57404761Y43545181D01*
X57404761Y43545181D02*
X57499999Y43497562D01*
X57499999Y43497562D02*
X57547618Y43449943D01*
X57547618Y43449943D02*
X57595237Y43354705D01*
X57595237Y43354705D02*
X57595237Y43259467D01*
X57595237Y43259467D02*
X57547618Y43116610D01*
X57547618Y43116610D02*
X56976190Y42545181D01*
X56976190Y42545181D02*
X57595237Y42545181D01*
X58785714Y43545181D02*
X58785714Y42735658D01*
X58785714Y42735658D02*
X58833333Y42640420D01*
X58833333Y42640420D02*
X58880952Y42592800D01*
X58880952Y42592800D02*
X58976190Y42545181D01*
X58976190Y42545181D02*
X59166666Y42545181D01*
X59166666Y42545181D02*
X59261904Y42592800D01*
X59261904Y42592800D02*
X59309523Y42640420D01*
X59309523Y42640420D02*
X59357142Y42735658D01*
X59357142Y42735658D02*
X59357142Y43545181D01*
X60261904Y43211848D02*
X60261904Y42545181D01*
X60023809Y43592800D02*
X59785714Y42878515D01*
X59785714Y42878515D02*
X60404761Y42878515D01*
X61547619Y43545181D02*
X61547619Y42735658D01*
X61547619Y42735658D02*
X61595238Y42640420D01*
X61595238Y42640420D02*
X61642857Y42592800D01*
X61642857Y42592800D02*
X61738095Y42545181D01*
X61738095Y42545181D02*
X61928571Y42545181D01*
X61928571Y42545181D02*
X62023809Y42592800D01*
X62023809Y42592800D02*
X62071428Y42640420D01*
X62071428Y42640420D02*
X62119047Y42735658D01*
X62119047Y42735658D02*
X62119047Y43545181D01*
X63071428Y43545181D02*
X62595238Y43545181D01*
X62595238Y43545181D02*
X62547619Y43068991D01*
X62547619Y43068991D02*
X62595238Y43116610D01*
X62595238Y43116610D02*
X62690476Y43164229D01*
X62690476Y43164229D02*
X62928571Y43164229D01*
X62928571Y43164229D02*
X63023809Y43116610D01*
X63023809Y43116610D02*
X63071428Y43068991D01*
X63071428Y43068991D02*
X63119047Y42973753D01*
X63119047Y42973753D02*
X63119047Y42735658D01*
X63119047Y42735658D02*
X63071428Y42640420D01*
X63071428Y42640420D02*
X63023809Y42592800D01*
X63023809Y42592800D02*
X62928571Y42545181D01*
X62928571Y42545181D02*
X62690476Y42545181D01*
X62690476Y42545181D02*
X62595238Y42592800D01*
X62595238Y42592800D02*
X62547619Y42640420D01*
X64309524Y43545181D02*
X64309524Y42735658D01*
X64309524Y42735658D02*
X64357143Y42640420D01*
X64357143Y42640420D02*
X64404762Y42592800D01*
X64404762Y42592800D02*
X64500000Y42545181D01*
X64500000Y42545181D02*
X64690476Y42545181D01*
X64690476Y42545181D02*
X64785714Y42592800D01*
X64785714Y42592800D02*
X64833333Y42640420D01*
X64833333Y42640420D02*
X64880952Y42735658D01*
X64880952Y42735658D02*
X64880952Y43545181D01*
X65785714Y43545181D02*
X65595238Y43545181D01*
X65595238Y43545181D02*
X65500000Y43497562D01*
X65500000Y43497562D02*
X65452381Y43449943D01*
X65452381Y43449943D02*
X65357143Y43307086D01*
X65357143Y43307086D02*
X65309524Y43116610D01*
X65309524Y43116610D02*
X65309524Y42735658D01*
X65309524Y42735658D02*
X65357143Y42640420D01*
X65357143Y42640420D02*
X65404762Y42592800D01*
X65404762Y42592800D02*
X65500000Y42545181D01*
X65500000Y42545181D02*
X65690476Y42545181D01*
X65690476Y42545181D02*
X65785714Y42592800D01*
X65785714Y42592800D02*
X65833333Y42640420D01*
X65833333Y42640420D02*
X65880952Y42735658D01*
X65880952Y42735658D02*
X65880952Y42973753D01*
X65880952Y42973753D02*
X65833333Y43068991D01*
X65833333Y43068991D02*
X65785714Y43116610D01*
X65785714Y43116610D02*
X65690476Y43164229D01*
X65690476Y43164229D02*
X65500000Y43164229D01*
X65500000Y43164229D02*
X65404762Y43116610D01*
X65404762Y43116610D02*
X65357143Y43068991D01*
X65357143Y43068991D02*
X65309524Y42973753D01*
X67547619Y42545181D02*
X67071429Y42545181D01*
X67071429Y42545181D02*
X67071429Y43545181D01*
X68404762Y42545181D02*
X67833334Y42545181D01*
X68119048Y42545181D02*
X68119048Y43545181D01*
X68119048Y43545181D02*
X68023810Y43402324D01*
X68023810Y43402324D02*
X67928572Y43307086D01*
X67928572Y43307086D02*
X67833334Y43259467D01*
X48523808Y40045181D02*
X47952380Y40045181D01*
X48238094Y40045181D02*
X48238094Y41045181D01*
X48238094Y41045181D02*
X48142856Y40902324D01*
X48142856Y40902324D02*
X48047618Y40807086D01*
X48047618Y40807086D02*
X47952380Y40759467D01*
X49142856Y41045181D02*
X49238094Y41045181D01*
X49238094Y41045181D02*
X49333332Y40997562D01*
X49333332Y40997562D02*
X49380951Y40949943D01*
X49380951Y40949943D02*
X49428570Y40854705D01*
X49428570Y40854705D02*
X49476189Y40664229D01*
X49476189Y40664229D02*
X49476189Y40426134D01*
X49476189Y40426134D02*
X49428570Y40235658D01*
X49428570Y40235658D02*
X49380951Y40140420D01*
X49380951Y40140420D02*
X49333332Y40092800D01*
X49333332Y40092800D02*
X49238094Y40045181D01*
X49238094Y40045181D02*
X49142856Y40045181D01*
X49142856Y40045181D02*
X49047618Y40092800D01*
X49047618Y40092800D02*
X48999999Y40140420D01*
X48999999Y40140420D02*
X48952380Y40235658D01*
X48952380Y40235658D02*
X48904761Y40426134D01*
X48904761Y40426134D02*
X48904761Y40664229D01*
X48904761Y40664229D02*
X48952380Y40854705D01*
X48952380Y40854705D02*
X48999999Y40949943D01*
X48999999Y40949943D02*
X49047618Y40997562D01*
X49047618Y40997562D02*
X49142856Y41045181D01*
X50095237Y41045181D02*
X50190475Y41045181D01*
X50190475Y41045181D02*
X50285713Y40997562D01*
X50285713Y40997562D02*
X50333332Y40949943D01*
X50333332Y40949943D02*
X50380951Y40854705D01*
X50380951Y40854705D02*
X50428570Y40664229D01*
X50428570Y40664229D02*
X50428570Y40426134D01*
X50428570Y40426134D02*
X50380951Y40235658D01*
X50380951Y40235658D02*
X50333332Y40140420D01*
X50333332Y40140420D02*
X50285713Y40092800D01*
X50285713Y40092800D02*
X50190475Y40045181D01*
X50190475Y40045181D02*
X50095237Y40045181D01*
X50095237Y40045181D02*
X49999999Y40092800D01*
X49999999Y40092800D02*
X49952380Y40140420D01*
X49952380Y40140420D02*
X49904761Y40235658D01*
X49904761Y40235658D02*
X49857142Y40426134D01*
X49857142Y40426134D02*
X49857142Y40664229D01*
X49857142Y40664229D02*
X49904761Y40854705D01*
X49904761Y40854705D02*
X49952380Y40949943D01*
X49952380Y40949943D02*
X49999999Y40997562D01*
X49999999Y40997562D02*
X50095237Y41045181D01*
X51523809Y40045181D02*
X52047618Y40711848D01*
X51523809Y40711848D02*
X52047618Y40045181D01*
X53714285Y40045181D02*
X53142857Y40045181D01*
X53428571Y40045181D02*
X53428571Y41045181D01*
X53428571Y41045181D02*
X53333333Y40902324D01*
X53333333Y40902324D02*
X53238095Y40807086D01*
X53238095Y40807086D02*
X53142857Y40759467D01*
X54333333Y41045181D02*
X54428571Y41045181D01*
X54428571Y41045181D02*
X54523809Y40997562D01*
X54523809Y40997562D02*
X54571428Y40949943D01*
X54571428Y40949943D02*
X54619047Y40854705D01*
X54619047Y40854705D02*
X54666666Y40664229D01*
X54666666Y40664229D02*
X54666666Y40426134D01*
X54666666Y40426134D02*
X54619047Y40235658D01*
X54619047Y40235658D02*
X54571428Y40140420D01*
X54571428Y40140420D02*
X54523809Y40092800D01*
X54523809Y40092800D02*
X54428571Y40045181D01*
X54428571Y40045181D02*
X54333333Y40045181D01*
X54333333Y40045181D02*
X54238095Y40092800D01*
X54238095Y40092800D02*
X54190476Y40140420D01*
X54190476Y40140420D02*
X54142857Y40235658D01*
X54142857Y40235658D02*
X54095238Y40426134D01*
X54095238Y40426134D02*
X54095238Y40664229D01*
X54095238Y40664229D02*
X54142857Y40854705D01*
X54142857Y40854705D02*
X54190476Y40949943D01*
X54190476Y40949943D02*
X54238095Y40997562D01*
X54238095Y40997562D02*
X54333333Y41045181D01*
X55285714Y41045181D02*
X55380952Y41045181D01*
X55380952Y41045181D02*
X55476190Y40997562D01*
X55476190Y40997562D02*
X55523809Y40949943D01*
X55523809Y40949943D02*
X55571428Y40854705D01*
X55571428Y40854705D02*
X55619047Y40664229D01*
X55619047Y40664229D02*
X55619047Y40426134D01*
X55619047Y40426134D02*
X55571428Y40235658D01*
X55571428Y40235658D02*
X55523809Y40140420D01*
X55523809Y40140420D02*
X55476190Y40092800D01*
X55476190Y40092800D02*
X55380952Y40045181D01*
X55380952Y40045181D02*
X55285714Y40045181D01*
X55285714Y40045181D02*
X55190476Y40092800D01*
X55190476Y40092800D02*
X55142857Y40140420D01*
X55142857Y40140420D02*
X55095238Y40235658D01*
X55095238Y40235658D02*
X55047619Y40426134D01*
X55047619Y40426134D02*
X55047619Y40664229D01*
X55047619Y40664229D02*
X55095238Y40854705D01*
X55095238Y40854705D02*
X55142857Y40949943D01*
X55142857Y40949943D02*
X55190476Y40997562D01*
X55190476Y40997562D02*
X55285714Y41045181D01*
X56809524Y40045181D02*
X56809524Y40711848D01*
X56809524Y40616610D02*
X56857143Y40664229D01*
X56857143Y40664229D02*
X56952381Y40711848D01*
X56952381Y40711848D02*
X57095238Y40711848D01*
X57095238Y40711848D02*
X57190476Y40664229D01*
X57190476Y40664229D02*
X57238095Y40568991D01*
X57238095Y40568991D02*
X57238095Y40045181D01*
X57238095Y40568991D02*
X57285714Y40664229D01*
X57285714Y40664229D02*
X57380952Y40711848D01*
X57380952Y40711848D02*
X57523809Y40711848D01*
X57523809Y40711848D02*
X57619048Y40664229D01*
X57619048Y40664229D02*
X57666667Y40568991D01*
X57666667Y40568991D02*
X57666667Y40045181D01*
X58142857Y40045181D02*
X58142857Y40711848D01*
X58142857Y40616610D02*
X58190476Y40664229D01*
X58190476Y40664229D02*
X58285714Y40711848D01*
X58285714Y40711848D02*
X58428571Y40711848D01*
X58428571Y40711848D02*
X58523809Y40664229D01*
X58523809Y40664229D02*
X58571428Y40568991D01*
X58571428Y40568991D02*
X58571428Y40045181D01*
X58571428Y40568991D02*
X58619047Y40664229D01*
X58619047Y40664229D02*
X58714285Y40711848D01*
X58714285Y40711848D02*
X58857142Y40711848D01*
X58857142Y40711848D02*
X58952381Y40664229D01*
X58952381Y40664229D02*
X59000000Y40568991D01*
X59000000Y40568991D02*
X59000000Y40045181D01*
X60952380Y41092800D02*
X60095238Y39807086D01*
X62047619Y40045181D02*
X62047619Y41045181D01*
X62047619Y40568991D02*
X62619047Y40568991D01*
X62619047Y40045181D02*
X62619047Y41045181D01*
X63047619Y40330896D02*
X63523809Y40330896D01*
X62952381Y40045181D02*
X63285714Y41045181D01*
X63285714Y41045181D02*
X63619047Y40045181D01*
X63952381Y40045181D02*
X63952381Y41045181D01*
X63952381Y41045181D02*
X64523809Y40045181D01*
X64523809Y40045181D02*
X64523809Y41045181D01*
X65000000Y40045181D02*
X65000000Y41045181D01*
X65000000Y41045181D02*
X65238095Y41045181D01*
X65238095Y41045181D02*
X65380952Y40997562D01*
X65380952Y40997562D02*
X65476190Y40902324D01*
X65476190Y40902324D02*
X65523809Y40807086D01*
X65523809Y40807086D02*
X65571428Y40616610D01*
X65571428Y40616610D02*
X65571428Y40473753D01*
X65571428Y40473753D02*
X65523809Y40283277D01*
X65523809Y40283277D02*
X65476190Y40188039D01*
X65476190Y40188039D02*
X65380952Y40092800D01*
X65380952Y40092800D02*
X65238095Y40045181D01*
X65238095Y40045181D02*
X65000000Y40045181D01*
X66714286Y40092800D02*
X66857143Y40045181D01*
X66857143Y40045181D02*
X67095238Y40045181D01*
X67095238Y40045181D02*
X67190476Y40092800D01*
X67190476Y40092800D02*
X67238095Y40140420D01*
X67238095Y40140420D02*
X67285714Y40235658D01*
X67285714Y40235658D02*
X67285714Y40330896D01*
X67285714Y40330896D02*
X67238095Y40426134D01*
X67238095Y40426134D02*
X67190476Y40473753D01*
X67190476Y40473753D02*
X67095238Y40521372D01*
X67095238Y40521372D02*
X66904762Y40568991D01*
X66904762Y40568991D02*
X66809524Y40616610D01*
X66809524Y40616610D02*
X66761905Y40664229D01*
X66761905Y40664229D02*
X66714286Y40759467D01*
X66714286Y40759467D02*
X66714286Y40854705D01*
X66714286Y40854705D02*
X66761905Y40949943D01*
X66761905Y40949943D02*
X66809524Y40997562D01*
X66809524Y40997562D02*
X66904762Y41045181D01*
X66904762Y41045181D02*
X67142857Y41045181D01*
X67142857Y41045181D02*
X67285714Y40997562D01*
X67904762Y41045181D02*
X68095238Y41045181D01*
X68095238Y41045181D02*
X68190476Y40997562D01*
X68190476Y40997562D02*
X68285714Y40902324D01*
X68285714Y40902324D02*
X68333333Y40711848D01*
X68333333Y40711848D02*
X68333333Y40378515D01*
X68333333Y40378515D02*
X68285714Y40188039D01*
X68285714Y40188039D02*
X68190476Y40092800D01*
X68190476Y40092800D02*
X68095238Y40045181D01*
X68095238Y40045181D02*
X67904762Y40045181D01*
X67904762Y40045181D02*
X67809524Y40092800D01*
X67809524Y40092800D02*
X67714286Y40188039D01*
X67714286Y40188039D02*
X67666667Y40378515D01*
X67666667Y40378515D02*
X67666667Y40711848D01*
X67666667Y40711848D02*
X67714286Y40902324D01*
X67714286Y40902324D02*
X67809524Y40997562D01*
X67809524Y40997562D02*
X67904762Y41045181D01*
X69238095Y40045181D02*
X68761905Y40045181D01*
X68761905Y40045181D02*
X68761905Y41045181D01*
X69571429Y40045181D02*
X69571429Y41045181D01*
X69571429Y41045181D02*
X69809524Y41045181D01*
X69809524Y41045181D02*
X69952381Y40997562D01*
X69952381Y40997562D02*
X70047619Y40902324D01*
X70047619Y40902324D02*
X70095238Y40807086D01*
X70095238Y40807086D02*
X70142857Y40616610D01*
X70142857Y40616610D02*
X70142857Y40473753D01*
X70142857Y40473753D02*
X70095238Y40283277D01*
X70095238Y40283277D02*
X70047619Y40188039D01*
X70047619Y40188039D02*
X69952381Y40092800D01*
X69952381Y40092800D02*
X69809524Y40045181D01*
X69809524Y40045181D02*
X69571429Y40045181D01*
X70571429Y40568991D02*
X70904762Y40568991D01*
X71047619Y40045181D02*
X70571429Y40045181D01*
X70571429Y40045181D02*
X70571429Y41045181D01*
X70571429Y41045181D02*
X71047619Y41045181D01*
X72047619Y40045181D02*
X71714286Y40521372D01*
X71476191Y40045181D02*
X71476191Y41045181D01*
X71476191Y41045181D02*
X71857143Y41045181D01*
X71857143Y41045181D02*
X71952381Y40997562D01*
X71952381Y40997562D02*
X72000000Y40949943D01*
X72000000Y40949943D02*
X72047619Y40854705D01*
X72047619Y40854705D02*
X72047619Y40711848D01*
X72047619Y40711848D02*
X72000000Y40616610D01*
X72000000Y40616610D02*
X71952381Y40568991D01*
X71952381Y40568991D02*
X71857143Y40521372D01*
X71857143Y40521372D02*
X71476191Y40521372D01*
X68738095Y52545181D02*
X68738095Y53545181D01*
X69309523Y52545181D02*
X68880952Y53116610D01*
X69309523Y53545181D02*
X68738095Y52973753D01*
X71738095Y4997562D02*
X71642857Y5045181D01*
X71642857Y5045181D02*
X71500000Y5045181D01*
X71500000Y5045181D02*
X71357143Y4997562D01*
X71357143Y4997562D02*
X71261905Y4902324D01*
X71261905Y4902324D02*
X71214286Y4807086D01*
X71214286Y4807086D02*
X71166667Y4616610D01*
X71166667Y4616610D02*
X71166667Y4473753D01*
X71166667Y4473753D02*
X71214286Y4283277D01*
X71214286Y4283277D02*
X71261905Y4188039D01*
X71261905Y4188039D02*
X71357143Y4092800D01*
X71357143Y4092800D02*
X71500000Y4045181D01*
X71500000Y4045181D02*
X71595238Y4045181D01*
X71595238Y4045181D02*
X71738095Y4092800D01*
X71738095Y4092800D02*
X71785714Y4140420D01*
X71785714Y4140420D02*
X71785714Y4473753D01*
X71785714Y4473753D02*
X71595238Y4473753D01*
X72214286Y4045181D02*
X72214286Y5045181D01*
X72214286Y5045181D02*
X72785714Y4045181D01*
X72785714Y4045181D02*
X72785714Y5045181D01*
X73261905Y4045181D02*
X73261905Y5045181D01*
X73261905Y5045181D02*
X73500000Y5045181D01*
X73500000Y5045181D02*
X73642857Y4997562D01*
X73642857Y4997562D02*
X73738095Y4902324D01*
X73738095Y4902324D02*
X73785714Y4807086D01*
X73785714Y4807086D02*
X73833333Y4616610D01*
X73833333Y4616610D02*
X73833333Y4473753D01*
X73833333Y4473753D02*
X73785714Y4283277D01*
X73785714Y4283277D02*
X73738095Y4188039D01*
X73738095Y4188039D02*
X73642857Y4092800D01*
X73642857Y4092800D02*
X73500000Y4045181D01*
X73500000Y4045181D02*
X73261905Y4045181D01*
X67952381Y2545181D02*
X67952381Y1735658D01*
X67952381Y1735658D02*
X68000000Y1640420D01*
X68000000Y1640420D02*
X68047619Y1592800D01*
X68047619Y1592800D02*
X68142857Y1545181D01*
X68142857Y1545181D02*
X68333333Y1545181D01*
X68333333Y1545181D02*
X68428571Y1592800D01*
X68428571Y1592800D02*
X68476190Y1640420D01*
X68476190Y1640420D02*
X68523809Y1735658D01*
X68523809Y1735658D02*
X68523809Y2545181D01*
X68952381Y1830896D02*
X69428571Y1830896D01*
X68857143Y1545181D02*
X69190476Y2545181D01*
X69190476Y2545181D02*
X69523809Y1545181D01*
X70428571Y1545181D02*
X70095238Y2021372D01*
X69857143Y1545181D02*
X69857143Y2545181D01*
X69857143Y2545181D02*
X70238095Y2545181D01*
X70238095Y2545181D02*
X70333333Y2497562D01*
X70333333Y2497562D02*
X70380952Y2449943D01*
X70380952Y2449943D02*
X70428571Y2354705D01*
X70428571Y2354705D02*
X70428571Y2211848D01*
X70428571Y2211848D02*
X70380952Y2116610D01*
X70380952Y2116610D02*
X70333333Y2068991D01*
X70333333Y2068991D02*
X70238095Y2021372D01*
X70238095Y2021372D02*
X69857143Y2021372D01*
X70714286Y2545181D02*
X71285714Y2545181D01*
X71000000Y1545181D02*
X71000000Y2545181D01*
X73095238Y2592800D02*
X72238096Y1307086D01*
X74095239Y2545181D02*
X74714286Y2545181D01*
X74714286Y2545181D02*
X74380953Y2164229D01*
X74380953Y2164229D02*
X74523810Y2164229D01*
X74523810Y2164229D02*
X74619048Y2116610D01*
X74619048Y2116610D02*
X74666667Y2068991D01*
X74666667Y2068991D02*
X74714286Y1973753D01*
X74714286Y1973753D02*
X74714286Y1735658D01*
X74714286Y1735658D02*
X74666667Y1640420D01*
X74666667Y1640420D02*
X74619048Y1592800D01*
X74619048Y1592800D02*
X74523810Y1545181D01*
X74523810Y1545181D02*
X74238096Y1545181D01*
X74238096Y1545181D02*
X74142858Y1592800D01*
X74142858Y1592800D02*
X74095239Y1640420D01*
X75142858Y1640420D02*
X75190477Y1592800D01*
X75190477Y1592800D02*
X75142858Y1545181D01*
X75142858Y1545181D02*
X75095239Y1592800D01*
X75095239Y1592800D02*
X75142858Y1640420D01*
X75142858Y1640420D02*
X75142858Y1545181D01*
X75523810Y2545181D02*
X76142857Y2545181D01*
X76142857Y2545181D02*
X75809524Y2164229D01*
X75809524Y2164229D02*
X75952381Y2164229D01*
X75952381Y2164229D02*
X76047619Y2116610D01*
X76047619Y2116610D02*
X76095238Y2068991D01*
X76095238Y2068991D02*
X76142857Y1973753D01*
X76142857Y1973753D02*
X76142857Y1735658D01*
X76142857Y1735658D02*
X76095238Y1640420D01*
X76095238Y1640420D02*
X76047619Y1592800D01*
X76047619Y1592800D02*
X75952381Y1545181D01*
X75952381Y1545181D02*
X75666667Y1545181D01*
X75666667Y1545181D02*
X75571429Y1592800D01*
X75571429Y1592800D02*
X75523810Y1640420D01*
X76428572Y2545181D02*
X76761905Y1545181D01*
X76761905Y1545181D02*
X77095238Y2545181D01*
X78666667Y1545181D02*
X78190477Y1545181D01*
X78190477Y1545181D02*
X78190477Y2545181D01*
X79190477Y2545181D02*
X79380953Y2545181D01*
X79380953Y2545181D02*
X79476191Y2497562D01*
X79476191Y2497562D02*
X79571429Y2402324D01*
X79571429Y2402324D02*
X79619048Y2211848D01*
X79619048Y2211848D02*
X79619048Y1878515D01*
X79619048Y1878515D02*
X79571429Y1688039D01*
X79571429Y1688039D02*
X79476191Y1592800D01*
X79476191Y1592800D02*
X79380953Y1545181D01*
X79380953Y1545181D02*
X79190477Y1545181D01*
X79190477Y1545181D02*
X79095239Y1592800D01*
X79095239Y1592800D02*
X79000001Y1688039D01*
X79000001Y1688039D02*
X78952382Y1878515D01*
X78952382Y1878515D02*
X78952382Y2211848D01*
X78952382Y2211848D02*
X79000001Y2402324D01*
X79000001Y2402324D02*
X79095239Y2497562D01*
X79095239Y2497562D02*
X79190477Y2545181D01*
X80571429Y2497562D02*
X80476191Y2545181D01*
X80476191Y2545181D02*
X80333334Y2545181D01*
X80333334Y2545181D02*
X80190477Y2497562D01*
X80190477Y2497562D02*
X80095239Y2402324D01*
X80095239Y2402324D02*
X80047620Y2307086D01*
X80047620Y2307086D02*
X80000001Y2116610D01*
X80000001Y2116610D02*
X80000001Y1973753D01*
X80000001Y1973753D02*
X80047620Y1783277D01*
X80047620Y1783277D02*
X80095239Y1688039D01*
X80095239Y1688039D02*
X80190477Y1592800D01*
X80190477Y1592800D02*
X80333334Y1545181D01*
X80333334Y1545181D02*
X80428572Y1545181D01*
X80428572Y1545181D02*
X80571429Y1592800D01*
X80571429Y1592800D02*
X80619048Y1640420D01*
X80619048Y1640420D02*
X80619048Y1973753D01*
X80619048Y1973753D02*
X80428572Y1973753D01*
X81047620Y1545181D02*
X81047620Y2545181D01*
X82095238Y1640420D02*
X82047619Y1592800D01*
X82047619Y1592800D02*
X81904762Y1545181D01*
X81904762Y1545181D02*
X81809524Y1545181D01*
X81809524Y1545181D02*
X81666667Y1592800D01*
X81666667Y1592800D02*
X81571429Y1688039D01*
X81571429Y1688039D02*
X81523810Y1783277D01*
X81523810Y1783277D02*
X81476191Y1973753D01*
X81476191Y1973753D02*
X81476191Y2116610D01*
X81476191Y2116610D02*
X81523810Y2307086D01*
X81523810Y2307086D02*
X81571429Y2402324D01*
X81571429Y2402324D02*
X81666667Y2497562D01*
X81666667Y2497562D02*
X81809524Y2545181D01*
X81809524Y2545181D02*
X81904762Y2545181D01*
X81904762Y2545181D02*
X82047619Y2497562D01*
X82047619Y2497562D02*
X82095238Y2449943D01*
X75373333Y4045181D02*
X75040000Y4521372D01*
X74801905Y4045181D02*
X74801905Y5045181D01*
X74801905Y5045181D02*
X75182857Y5045181D01*
X75182857Y5045181D02*
X75278095Y4997562D01*
X75278095Y4997562D02*
X75325714Y4949943D01*
X75325714Y4949943D02*
X75373333Y4854705D01*
X75373333Y4854705D02*
X75373333Y4711848D01*
X75373333Y4711848D02*
X75325714Y4616610D01*
X75325714Y4616610D02*
X75278095Y4568991D01*
X75278095Y4568991D02*
X75182857Y4521372D01*
X75182857Y4521372D02*
X74801905Y4521372D01*
X75706667Y5045181D02*
X76373333Y4045181D01*
X76373333Y5045181D02*
X75706667Y4045181D01*
X77738095Y5045181D02*
X78309523Y5045181D01*
X78023809Y4045181D02*
X78023809Y5045181D01*
X78547619Y5045181D02*
X79214285Y4045181D01*
X79214285Y5045181D02*
X78547619Y4045181D01*
X84619048Y12545181D02*
X84619048Y13545181D01*
X84619048Y13545181D02*
X85190476Y12545181D01*
X85190476Y12545181D02*
X85190476Y13545181D01*
X85857143Y13545181D02*
X86047619Y13545181D01*
X86047619Y13545181D02*
X86142857Y13497562D01*
X86142857Y13497562D02*
X86238095Y13402324D01*
X86238095Y13402324D02*
X86285714Y13211848D01*
X86285714Y13211848D02*
X86285714Y12878515D01*
X86285714Y12878515D02*
X86238095Y12688039D01*
X86238095Y12688039D02*
X86142857Y12592800D01*
X86142857Y12592800D02*
X86047619Y12545181D01*
X86047619Y12545181D02*
X85857143Y12545181D01*
X85857143Y12545181D02*
X85761905Y12592800D01*
X85761905Y12592800D02*
X85666667Y12688039D01*
X85666667Y12688039D02*
X85619048Y12878515D01*
X85619048Y12878515D02*
X85619048Y13211848D01*
X85619048Y13211848D02*
X85666667Y13402324D01*
X85666667Y13402324D02*
X85761905Y13497562D01*
X85761905Y13497562D02*
X85857143Y13545181D01*
X87476191Y12545181D02*
X87476191Y13545181D01*
X87476191Y13545181D02*
X87857143Y13545181D01*
X87857143Y13545181D02*
X87952381Y13497562D01*
X87952381Y13497562D02*
X88000000Y13449943D01*
X88000000Y13449943D02*
X88047619Y13354705D01*
X88047619Y13354705D02*
X88047619Y13211848D01*
X88047619Y13211848D02*
X88000000Y13116610D01*
X88000000Y13116610D02*
X87952381Y13068991D01*
X87952381Y13068991D02*
X87857143Y13021372D01*
X87857143Y13021372D02*
X87476191Y13021372D01*
X88666667Y13545181D02*
X88857143Y13545181D01*
X88857143Y13545181D02*
X88952381Y13497562D01*
X88952381Y13497562D02*
X89047619Y13402324D01*
X89047619Y13402324D02*
X89095238Y13211848D01*
X89095238Y13211848D02*
X89095238Y12878515D01*
X89095238Y12878515D02*
X89047619Y12688039D01*
X89047619Y12688039D02*
X88952381Y12592800D01*
X88952381Y12592800D02*
X88857143Y12545181D01*
X88857143Y12545181D02*
X88666667Y12545181D01*
X88666667Y12545181D02*
X88571429Y12592800D01*
X88571429Y12592800D02*
X88476191Y12688039D01*
X88476191Y12688039D02*
X88428572Y12878515D01*
X88428572Y12878515D02*
X88428572Y13211848D01*
X88428572Y13211848D02*
X88476191Y13402324D01*
X88476191Y13402324D02*
X88571429Y13497562D01*
X88571429Y13497562D02*
X88666667Y13545181D01*
X89428572Y13545181D02*
X89666667Y12545181D01*
X89666667Y12545181D02*
X89857143Y13259467D01*
X89857143Y13259467D02*
X90047619Y12545181D01*
X90047619Y12545181D02*
X90285715Y13545181D01*
X90666667Y13068991D02*
X91000000Y13068991D01*
X91142857Y12545181D02*
X90666667Y12545181D01*
X90666667Y12545181D02*
X90666667Y13545181D01*
X90666667Y13545181D02*
X91142857Y13545181D01*
X92142857Y12545181D02*
X91809524Y13021372D01*
X91571429Y12545181D02*
X91571429Y13545181D01*
X91571429Y13545181D02*
X91952381Y13545181D01*
X91952381Y13545181D02*
X92047619Y13497562D01*
X92047619Y13497562D02*
X92095238Y13449943D01*
X92095238Y13449943D02*
X92142857Y13354705D01*
X92142857Y13354705D02*
X92142857Y13211848D01*
X92142857Y13211848D02*
X92095238Y13116610D01*
X92095238Y13116610D02*
X92047619Y13068991D01*
X92047619Y13068991D02*
X91952381Y13021372D01*
X91952381Y13021372D02*
X91571429Y13021372D01*
X93333334Y12545181D02*
X93333334Y13545181D01*
X93333334Y13545181D02*
X93714286Y13545181D01*
X93714286Y13545181D02*
X93809524Y13497562D01*
X93809524Y13497562D02*
X93857143Y13449943D01*
X93857143Y13449943D02*
X93904762Y13354705D01*
X93904762Y13354705D02*
X93904762Y13211848D01*
X93904762Y13211848D02*
X93857143Y13116610D01*
X93857143Y13116610D02*
X93809524Y13068991D01*
X93809524Y13068991D02*
X93714286Y13021372D01*
X93714286Y13021372D02*
X93333334Y13021372D01*
X94333334Y12545181D02*
X94333334Y13545181D01*
X94809524Y12545181D02*
X94809524Y13545181D01*
X94809524Y13545181D02*
X95380952Y12545181D01*
X95380952Y12545181D02*
X95380952Y13545181D01*
X60652381Y26498920D02*
X60285714Y27022729D01*
X60023809Y26498920D02*
X60023809Y27598920D01*
X60023809Y27598920D02*
X60442857Y27598920D01*
X60442857Y27598920D02*
X60547619Y27546539D01*
X60547619Y27546539D02*
X60600000Y27494158D01*
X60600000Y27494158D02*
X60652381Y27389396D01*
X60652381Y27389396D02*
X60652381Y27232253D01*
X60652381Y27232253D02*
X60600000Y27127491D01*
X60600000Y27127491D02*
X60547619Y27075110D01*
X60547619Y27075110D02*
X60442857Y27022729D01*
X60442857Y27022729D02*
X60023809Y27022729D01*
X61123809Y27075110D02*
X61490476Y27075110D01*
X61647619Y26498920D02*
X61123809Y26498920D01*
X61123809Y26498920D02*
X61123809Y27598920D01*
X61123809Y27598920D02*
X61647619Y27598920D01*
X62066666Y26551300D02*
X62223809Y26498920D01*
X62223809Y26498920D02*
X62485714Y26498920D01*
X62485714Y26498920D02*
X62590476Y26551300D01*
X62590476Y26551300D02*
X62642857Y26603681D01*
X62642857Y26603681D02*
X62695238Y26708443D01*
X62695238Y26708443D02*
X62695238Y26813205D01*
X62695238Y26813205D02*
X62642857Y26917967D01*
X62642857Y26917967D02*
X62590476Y26970348D01*
X62590476Y26970348D02*
X62485714Y27022729D01*
X62485714Y27022729D02*
X62276190Y27075110D01*
X62276190Y27075110D02*
X62171428Y27127491D01*
X62171428Y27127491D02*
X62119047Y27179872D01*
X62119047Y27179872D02*
X62066666Y27284634D01*
X62066666Y27284634D02*
X62066666Y27389396D01*
X62066666Y27389396D02*
X62119047Y27494158D01*
X62119047Y27494158D02*
X62171428Y27546539D01*
X62171428Y27546539D02*
X62276190Y27598920D01*
X62276190Y27598920D02*
X62538095Y27598920D01*
X62538095Y27598920D02*
X62695238Y27546539D01*
X63166666Y27075110D02*
X63533333Y27075110D01*
X63690476Y26498920D02*
X63166666Y26498920D01*
X63166666Y26498920D02*
X63166666Y27598920D01*
X63166666Y27598920D02*
X63690476Y27598920D01*
X64004761Y27598920D02*
X64633333Y27598920D01*
X64319047Y26498920D02*
X64319047Y27598920D01*
X79757143Y27075110D02*
X79914286Y27022729D01*
X79914286Y27022729D02*
X79966667Y26970348D01*
X79966667Y26970348D02*
X80019048Y26865586D01*
X80019048Y26865586D02*
X80019048Y26708443D01*
X80019048Y26708443D02*
X79966667Y26603681D01*
X79966667Y26603681D02*
X79914286Y26551300D01*
X79914286Y26551300D02*
X79809524Y26498920D01*
X79809524Y26498920D02*
X79390476Y26498920D01*
X79390476Y26498920D02*
X79390476Y27598920D01*
X79390476Y27598920D02*
X79757143Y27598920D01*
X79757143Y27598920D02*
X79861905Y27546539D01*
X79861905Y27546539D02*
X79914286Y27494158D01*
X79914286Y27494158D02*
X79966667Y27389396D01*
X79966667Y27389396D02*
X79966667Y27284634D01*
X79966667Y27284634D02*
X79914286Y27179872D01*
X79914286Y27179872D02*
X79861905Y27127491D01*
X79861905Y27127491D02*
X79757143Y27075110D01*
X79757143Y27075110D02*
X79390476Y27075110D01*
X80700000Y27598920D02*
X80909524Y27598920D01*
X80909524Y27598920D02*
X81014286Y27546539D01*
X81014286Y27546539D02*
X81119048Y27441777D01*
X81119048Y27441777D02*
X81171429Y27232253D01*
X81171429Y27232253D02*
X81171429Y26865586D01*
X81171429Y26865586D02*
X81119048Y26656062D01*
X81119048Y26656062D02*
X81014286Y26551300D01*
X81014286Y26551300D02*
X80909524Y26498920D01*
X80909524Y26498920D02*
X80700000Y26498920D01*
X80700000Y26498920D02*
X80595238Y26551300D01*
X80595238Y26551300D02*
X80490476Y26656062D01*
X80490476Y26656062D02*
X80438095Y26865586D01*
X80438095Y26865586D02*
X80438095Y27232253D01*
X80438095Y27232253D02*
X80490476Y27441777D01*
X80490476Y27441777D02*
X80595238Y27546539D01*
X80595238Y27546539D02*
X80700000Y27598920D01*
X81852381Y27598920D02*
X82061905Y27598920D01*
X82061905Y27598920D02*
X82166667Y27546539D01*
X82166667Y27546539D02*
X82271429Y27441777D01*
X82271429Y27441777D02*
X82323810Y27232253D01*
X82323810Y27232253D02*
X82323810Y26865586D01*
X82323810Y26865586D02*
X82271429Y26656062D01*
X82271429Y26656062D02*
X82166667Y26551300D01*
X82166667Y26551300D02*
X82061905Y26498920D01*
X82061905Y26498920D02*
X81852381Y26498920D01*
X81852381Y26498920D02*
X81747619Y26551300D01*
X81747619Y26551300D02*
X81642857Y26656062D01*
X81642857Y26656062D02*
X81590476Y26865586D01*
X81590476Y26865586D02*
X81590476Y27232253D01*
X81590476Y27232253D02*
X81642857Y27441777D01*
X81642857Y27441777D02*
X81747619Y27546539D01*
X81747619Y27546539D02*
X81852381Y27598920D01*
X82638095Y27598920D02*
X83266667Y27598920D01*
X82952381Y26498920D02*
X82952381Y27598920D01*
X17850000Y96406396D02*
X17230952Y96406396D01*
X17230952Y96406396D02*
X17230952Y97706396D01*
X18778571Y96468300D02*
X18654762Y96406396D01*
X18654762Y96406396D02*
X18407143Y96406396D01*
X18407143Y96406396D02*
X18283333Y96468300D01*
X18283333Y96468300D02*
X18221429Y96592110D01*
X18221429Y96592110D02*
X18221429Y97087348D01*
X18221429Y97087348D02*
X18283333Y97211158D01*
X18283333Y97211158D02*
X18407143Y97273062D01*
X18407143Y97273062D02*
X18654762Y97273062D01*
X18654762Y97273062D02*
X18778571Y97211158D01*
X18778571Y97211158D02*
X18840476Y97087348D01*
X18840476Y97087348D02*
X18840476Y96963539D01*
X18840476Y96963539D02*
X18221429Y96839729D01*
X19954762Y96406396D02*
X19954762Y97087348D01*
X19954762Y97087348D02*
X19892857Y97211158D01*
X19892857Y97211158D02*
X19769048Y97273062D01*
X19769048Y97273062D02*
X19521429Y97273062D01*
X19521429Y97273062D02*
X19397619Y97211158D01*
X19954762Y96468300D02*
X19830953Y96406396D01*
X19830953Y96406396D02*
X19521429Y96406396D01*
X19521429Y96406396D02*
X19397619Y96468300D01*
X19397619Y96468300D02*
X19335715Y96592110D01*
X19335715Y96592110D02*
X19335715Y96715920D01*
X19335715Y96715920D02*
X19397619Y96839729D01*
X19397619Y96839729D02*
X19521429Y96901634D01*
X19521429Y96901634D02*
X19830953Y96901634D01*
X19830953Y96901634D02*
X19954762Y96963539D01*
X20388095Y97273062D02*
X20883333Y97273062D01*
X20573809Y96406396D02*
X20573809Y97520681D01*
X20573809Y97520681D02*
X20635714Y97644491D01*
X20635714Y97644491D02*
X20759524Y97706396D01*
X20759524Y97706396D02*
X20883333Y97706396D01*
X21192857Y97273062D02*
X21502381Y96406396D01*
X21811904Y97273062D02*
X21502381Y96406396D01*
X21502381Y96406396D02*
X21378571Y96096872D01*
X21378571Y96096872D02*
X21316666Y96034967D01*
X21316666Y96034967D02*
X21192857Y95973062D01*
X24226190Y97768300D02*
X23111904Y96096872D01*
X26392856Y96406396D02*
X25959523Y97025443D01*
X25649999Y96406396D02*
X25649999Y97706396D01*
X25649999Y97706396D02*
X26145237Y97706396D01*
X26145237Y97706396D02*
X26269047Y97644491D01*
X26269047Y97644491D02*
X26330952Y97582586D01*
X26330952Y97582586D02*
X26392856Y97458777D01*
X26392856Y97458777D02*
X26392856Y97273062D01*
X26392856Y97273062D02*
X26330952Y97149253D01*
X26330952Y97149253D02*
X26269047Y97087348D01*
X26269047Y97087348D02*
X26145237Y97025443D01*
X26145237Y97025443D02*
X25649999Y97025443D01*
X26949999Y97087348D02*
X27383333Y97087348D01*
X27569047Y96406396D02*
X26949999Y96406396D01*
X26949999Y96406396D02*
X26949999Y97706396D01*
X26949999Y97706396D02*
X27569047Y97706396D01*
X27940475Y97706396D02*
X28373808Y96406396D01*
X28373808Y96406396D02*
X28807142Y97706396D01*
X30911904Y97644491D02*
X30788094Y97706396D01*
X30788094Y97706396D02*
X30602380Y97706396D01*
X30602380Y97706396D02*
X30416666Y97644491D01*
X30416666Y97644491D02*
X30292856Y97520681D01*
X30292856Y97520681D02*
X30230951Y97396872D01*
X30230951Y97396872D02*
X30169047Y97149253D01*
X30169047Y97149253D02*
X30169047Y96963539D01*
X30169047Y96963539D02*
X30230951Y96715920D01*
X30230951Y96715920D02*
X30292856Y96592110D01*
X30292856Y96592110D02*
X30416666Y96468300D01*
X30416666Y96468300D02*
X30602380Y96406396D01*
X30602380Y96406396D02*
X30726189Y96406396D01*
X30726189Y96406396D02*
X30911904Y96468300D01*
X30911904Y96468300D02*
X30973808Y96530205D01*
X30973808Y96530205D02*
X30973808Y96963539D01*
X30973808Y96963539D02*
X30726189Y96963539D01*
X31530951Y96530205D02*
X31592856Y96468300D01*
X31592856Y96468300D02*
X31530951Y96406396D01*
X31530951Y96406396D02*
X31469047Y96468300D01*
X31469047Y96468300D02*
X31530951Y96530205D01*
X31530951Y96530205D02*
X31530951Y96406396D01*
X32769047Y97706396D02*
X32149999Y97706396D01*
X32149999Y97706396D02*
X32088095Y97087348D01*
X32088095Y97087348D02*
X32149999Y97149253D01*
X32149999Y97149253D02*
X32273809Y97211158D01*
X32273809Y97211158D02*
X32583333Y97211158D01*
X32583333Y97211158D02*
X32707142Y97149253D01*
X32707142Y97149253D02*
X32769047Y97087348D01*
X32769047Y97087348D02*
X32830952Y96963539D01*
X32830952Y96963539D02*
X32830952Y96654015D01*
X32830952Y96654015D02*
X32769047Y96530205D01*
X32769047Y96530205D02*
X32707142Y96468300D01*
X32707142Y96468300D02*
X32583333Y96406396D01*
X32583333Y96406396D02*
X32273809Y96406396D01*
X32273809Y96406396D02*
X32149999Y96468300D01*
X32149999Y96468300D02*
X32088095Y96530205D01*
X28357142Y65545181D02*
X28023809Y66021372D01*
X27785714Y65545181D02*
X27785714Y66545181D01*
X27785714Y66545181D02*
X28166666Y66545181D01*
X28166666Y66545181D02*
X28261904Y66497562D01*
X28261904Y66497562D02*
X28309523Y66449943D01*
X28309523Y66449943D02*
X28357142Y66354705D01*
X28357142Y66354705D02*
X28357142Y66211848D01*
X28357142Y66211848D02*
X28309523Y66116610D01*
X28309523Y66116610D02*
X28261904Y66068991D01*
X28261904Y66068991D02*
X28166666Y66021372D01*
X28166666Y66021372D02*
X27785714Y66021372D01*
X28738095Y66449943D02*
X28785714Y66497562D01*
X28785714Y66497562D02*
X28880952Y66545181D01*
X28880952Y66545181D02*
X29119047Y66545181D01*
X29119047Y66545181D02*
X29214285Y66497562D01*
X29214285Y66497562D02*
X29261904Y66449943D01*
X29261904Y66449943D02*
X29309523Y66354705D01*
X29309523Y66354705D02*
X29309523Y66259467D01*
X29309523Y66259467D02*
X29261904Y66116610D01*
X29261904Y66116610D02*
X28690476Y65545181D01*
X28690476Y65545181D02*
X29309523Y65545181D01*
X30214285Y66545181D02*
X29738095Y66545181D01*
X29738095Y66545181D02*
X29690476Y66068991D01*
X29690476Y66068991D02*
X29738095Y66116610D01*
X29738095Y66116610D02*
X29833333Y66164229D01*
X29833333Y66164229D02*
X30071428Y66164229D01*
X30071428Y66164229D02*
X30166666Y66116610D01*
X30166666Y66116610D02*
X30214285Y66068991D01*
X30214285Y66068991D02*
X30261904Y65973753D01*
X30261904Y65973753D02*
X30261904Y65735658D01*
X30261904Y65735658D02*
X30214285Y65640420D01*
X30214285Y65640420D02*
X30166666Y65592800D01*
X30166666Y65592800D02*
X30071428Y65545181D01*
X30071428Y65545181D02*
X29833333Y65545181D01*
X29833333Y65545181D02*
X29738095Y65592800D01*
X29738095Y65592800D02*
X29690476Y65640420D01*
X90357142Y48045181D02*
X90023809Y48521372D01*
X89785714Y48045181D02*
X89785714Y49045181D01*
X89785714Y49045181D02*
X90166666Y49045181D01*
X90166666Y49045181D02*
X90261904Y48997562D01*
X90261904Y48997562D02*
X90309523Y48949943D01*
X90309523Y48949943D02*
X90357142Y48854705D01*
X90357142Y48854705D02*
X90357142Y48711848D01*
X90357142Y48711848D02*
X90309523Y48616610D01*
X90309523Y48616610D02*
X90261904Y48568991D01*
X90261904Y48568991D02*
X90166666Y48521372D01*
X90166666Y48521372D02*
X89785714Y48521372D01*
X91309523Y48045181D02*
X90738095Y48045181D01*
X91023809Y48045181D02*
X91023809Y49045181D01*
X91023809Y49045181D02*
X90928571Y48902324D01*
X90928571Y48902324D02*
X90833333Y48807086D01*
X90833333Y48807086D02*
X90738095Y48759467D01*
X91785714Y48045181D02*
X91976190Y48045181D01*
X91976190Y48045181D02*
X92071428Y48092800D01*
X92071428Y48092800D02*
X92119047Y48140420D01*
X92119047Y48140420D02*
X92214285Y48283277D01*
X92214285Y48283277D02*
X92261904Y48473753D01*
X92261904Y48473753D02*
X92261904Y48854705D01*
X92261904Y48854705D02*
X92214285Y48949943D01*
X92214285Y48949943D02*
X92166666Y48997562D01*
X92166666Y48997562D02*
X92071428Y49045181D01*
X92071428Y49045181D02*
X91880952Y49045181D01*
X91880952Y49045181D02*
X91785714Y48997562D01*
X91785714Y48997562D02*
X91738095Y48949943D01*
X91738095Y48949943D02*
X91690476Y48854705D01*
X91690476Y48854705D02*
X91690476Y48616610D01*
X91690476Y48616610D02*
X91738095Y48521372D01*
X91738095Y48521372D02*
X91785714Y48473753D01*
X91785714Y48473753D02*
X91880952Y48426134D01*
X91880952Y48426134D02*
X92071428Y48426134D01*
X92071428Y48426134D02*
X92166666Y48473753D01*
X92166666Y48473753D02*
X92214285Y48521372D01*
X92214285Y48521372D02*
X92261904Y48616610D01*
X73166667Y34592800D02*
X73309524Y34545181D01*
X73309524Y34545181D02*
X73547619Y34545181D01*
X73547619Y34545181D02*
X73642857Y34592800D01*
X73642857Y34592800D02*
X73690476Y34640420D01*
X73690476Y34640420D02*
X73738095Y34735658D01*
X73738095Y34735658D02*
X73738095Y34830896D01*
X73738095Y34830896D02*
X73690476Y34926134D01*
X73690476Y34926134D02*
X73642857Y34973753D01*
X73642857Y34973753D02*
X73547619Y35021372D01*
X73547619Y35021372D02*
X73357143Y35068991D01*
X73357143Y35068991D02*
X73261905Y35116610D01*
X73261905Y35116610D02*
X73214286Y35164229D01*
X73214286Y35164229D02*
X73166667Y35259467D01*
X73166667Y35259467D02*
X73166667Y35354705D01*
X73166667Y35354705D02*
X73214286Y35449943D01*
X73214286Y35449943D02*
X73261905Y35497562D01*
X73261905Y35497562D02*
X73357143Y35545181D01*
X73357143Y35545181D02*
X73595238Y35545181D01*
X73595238Y35545181D02*
X73738095Y35497562D01*
X74071429Y35545181D02*
X74309524Y34545181D01*
X74309524Y34545181D02*
X74500000Y35259467D01*
X74500000Y35259467D02*
X74690476Y34545181D01*
X74690476Y34545181D02*
X74928572Y35545181D01*
X75261905Y35449943D02*
X75309524Y35497562D01*
X75309524Y35497562D02*
X75404762Y35545181D01*
X75404762Y35545181D02*
X75642857Y35545181D01*
X75642857Y35545181D02*
X75738095Y35497562D01*
X75738095Y35497562D02*
X75785714Y35449943D01*
X75785714Y35449943D02*
X75833333Y35354705D01*
X75833333Y35354705D02*
X75833333Y35259467D01*
X75833333Y35259467D02*
X75785714Y35116610D01*
X75785714Y35116610D02*
X75214286Y34545181D01*
X75214286Y34545181D02*
X75833333Y34545181D01*
X72238095Y82545181D02*
X72238095Y81735658D01*
X72238095Y81735658D02*
X72285714Y81640420D01*
X72285714Y81640420D02*
X72333333Y81592800D01*
X72333333Y81592800D02*
X72428571Y81545181D01*
X72428571Y81545181D02*
X72619047Y81545181D01*
X72619047Y81545181D02*
X72714285Y81592800D01*
X72714285Y81592800D02*
X72761904Y81640420D01*
X72761904Y81640420D02*
X72809523Y81735658D01*
X72809523Y81735658D02*
X72809523Y82545181D01*
X73238095Y82449943D02*
X73285714Y82497562D01*
X73285714Y82497562D02*
X73380952Y82545181D01*
X73380952Y82545181D02*
X73619047Y82545181D01*
X73619047Y82545181D02*
X73714285Y82497562D01*
X73714285Y82497562D02*
X73761904Y82449943D01*
X73761904Y82449943D02*
X73809523Y82354705D01*
X73809523Y82354705D02*
X73809523Y82259467D01*
X73809523Y82259467D02*
X73761904Y82116610D01*
X73761904Y82116610D02*
X73190476Y81545181D01*
X73190476Y81545181D02*
X73809523Y81545181D01*
X42833333Y91640420D02*
X42785714Y91592800D01*
X42785714Y91592800D02*
X42642857Y91545181D01*
X42642857Y91545181D02*
X42547619Y91545181D01*
X42547619Y91545181D02*
X42404762Y91592800D01*
X42404762Y91592800D02*
X42309524Y91688039D01*
X42309524Y91688039D02*
X42261905Y91783277D01*
X42261905Y91783277D02*
X42214286Y91973753D01*
X42214286Y91973753D02*
X42214286Y92116610D01*
X42214286Y92116610D02*
X42261905Y92307086D01*
X42261905Y92307086D02*
X42309524Y92402324D01*
X42309524Y92402324D02*
X42404762Y92497562D01*
X42404762Y92497562D02*
X42547619Y92545181D01*
X42547619Y92545181D02*
X42642857Y92545181D01*
X42642857Y92545181D02*
X42785714Y92497562D01*
X42785714Y92497562D02*
X42833333Y92449943D01*
X43738095Y92545181D02*
X43261905Y92545181D01*
X43261905Y92545181D02*
X43214286Y92068991D01*
X43214286Y92068991D02*
X43261905Y92116610D01*
X43261905Y92116610D02*
X43357143Y92164229D01*
X43357143Y92164229D02*
X43595238Y92164229D01*
X43595238Y92164229D02*
X43690476Y92116610D01*
X43690476Y92116610D02*
X43738095Y92068991D01*
X43738095Y92068991D02*
X43785714Y91973753D01*
X43785714Y91973753D02*
X43785714Y91735658D01*
X43785714Y91735658D02*
X43738095Y91640420D01*
X43738095Y91640420D02*
X43690476Y91592800D01*
X43690476Y91592800D02*
X43595238Y91545181D01*
X43595238Y91545181D02*
X43357143Y91545181D01*
X43357143Y91545181D02*
X43261905Y91592800D01*
X43261905Y91592800D02*
X43214286Y91640420D01*
X35738095Y62045181D02*
X36309523Y62045181D01*
X36023809Y61045181D02*
X36023809Y62045181D01*
X36642857Y61045181D02*
X36642857Y62045181D01*
X36642857Y62045181D02*
X37023809Y62045181D01*
X37023809Y62045181D02*
X37119047Y61997562D01*
X37119047Y61997562D02*
X37166666Y61949943D01*
X37166666Y61949943D02*
X37214285Y61854705D01*
X37214285Y61854705D02*
X37214285Y61711848D01*
X37214285Y61711848D02*
X37166666Y61616610D01*
X37166666Y61616610D02*
X37119047Y61568991D01*
X37119047Y61568991D02*
X37023809Y61521372D01*
X37023809Y61521372D02*
X36642857Y61521372D01*
X38071428Y61711848D02*
X38071428Y61045181D01*
X37833333Y62092800D02*
X37595238Y61378515D01*
X37595238Y61378515D02*
X38214285Y61378515D01*
X57833333Y65045181D02*
X57500000Y65521372D01*
X57261905Y65045181D02*
X57261905Y66045181D01*
X57261905Y66045181D02*
X57642857Y66045181D01*
X57642857Y66045181D02*
X57738095Y65997562D01*
X57738095Y65997562D02*
X57785714Y65949943D01*
X57785714Y65949943D02*
X57833333Y65854705D01*
X57833333Y65854705D02*
X57833333Y65711848D01*
X57833333Y65711848D02*
X57785714Y65616610D01*
X57785714Y65616610D02*
X57738095Y65568991D01*
X57738095Y65568991D02*
X57642857Y65521372D01*
X57642857Y65521372D02*
X57261905Y65521372D01*
X58738095Y66045181D02*
X58261905Y66045181D01*
X58261905Y66045181D02*
X58214286Y65568991D01*
X58214286Y65568991D02*
X58261905Y65616610D01*
X58261905Y65616610D02*
X58357143Y65664229D01*
X58357143Y65664229D02*
X58595238Y65664229D01*
X58595238Y65664229D02*
X58690476Y65616610D01*
X58690476Y65616610D02*
X58738095Y65568991D01*
X58738095Y65568991D02*
X58785714Y65473753D01*
X58785714Y65473753D02*
X58785714Y65235658D01*
X58785714Y65235658D02*
X58738095Y65140420D01*
X58738095Y65140420D02*
X58690476Y65092800D01*
X58690476Y65092800D02*
X58595238Y65045181D01*
X58595238Y65045181D02*
X58357143Y65045181D01*
X58357143Y65045181D02*
X58261905Y65092800D01*
X58261905Y65092800D02*
X58214286Y65140420D01*
X16357142Y66740420D02*
X16309523Y66692800D01*
X16309523Y66692800D02*
X16166666Y66645181D01*
X16166666Y66645181D02*
X16071428Y66645181D01*
X16071428Y66645181D02*
X15928571Y66692800D01*
X15928571Y66692800D02*
X15833333Y66788039D01*
X15833333Y66788039D02*
X15785714Y66883277D01*
X15785714Y66883277D02*
X15738095Y67073753D01*
X15738095Y67073753D02*
X15738095Y67216610D01*
X15738095Y67216610D02*
X15785714Y67407086D01*
X15785714Y67407086D02*
X15833333Y67502324D01*
X15833333Y67502324D02*
X15928571Y67597562D01*
X15928571Y67597562D02*
X16071428Y67645181D01*
X16071428Y67645181D02*
X16166666Y67645181D01*
X16166666Y67645181D02*
X16309523Y67597562D01*
X16309523Y67597562D02*
X16357142Y67549943D01*
X17309523Y66645181D02*
X16738095Y66645181D01*
X17023809Y66645181D02*
X17023809Y67645181D01*
X17023809Y67645181D02*
X16928571Y67502324D01*
X16928571Y67502324D02*
X16833333Y67407086D01*
X16833333Y67407086D02*
X16738095Y67359467D01*
X18166666Y67645181D02*
X17976190Y67645181D01*
X17976190Y67645181D02*
X17880952Y67597562D01*
X17880952Y67597562D02*
X17833333Y67549943D01*
X17833333Y67549943D02*
X17738095Y67407086D01*
X17738095Y67407086D02*
X17690476Y67216610D01*
X17690476Y67216610D02*
X17690476Y66835658D01*
X17690476Y66835658D02*
X17738095Y66740420D01*
X17738095Y66740420D02*
X17785714Y66692800D01*
X17785714Y66692800D02*
X17880952Y66645181D01*
X17880952Y66645181D02*
X18071428Y66645181D01*
X18071428Y66645181D02*
X18166666Y66692800D01*
X18166666Y66692800D02*
X18214285Y66740420D01*
X18214285Y66740420D02*
X18261904Y66835658D01*
X18261904Y66835658D02*
X18261904Y67073753D01*
X18261904Y67073753D02*
X18214285Y67168991D01*
X18214285Y67168991D02*
X18166666Y67216610D01*
X18166666Y67216610D02*
X18071428Y67264229D01*
X18071428Y67264229D02*
X17880952Y67264229D01*
X17880952Y67264229D02*
X17785714Y67216610D01*
X17785714Y67216610D02*
X17738095Y67168991D01*
X17738095Y67168991D02*
X17690476Y67073753D01*
X13166666Y9545181D02*
X13166666Y8830896D01*
X13166666Y8830896D02*
X13119047Y8688039D01*
X13119047Y8688039D02*
X13023809Y8592800D01*
X13023809Y8592800D02*
X12880952Y8545181D01*
X12880952Y8545181D02*
X12785714Y8545181D01*
X14166666Y8545181D02*
X13595238Y8545181D01*
X13880952Y8545181D02*
X13880952Y9545181D01*
X13880952Y9545181D02*
X13785714Y9402324D01*
X13785714Y9402324D02*
X13690476Y9307086D01*
X13690476Y9307086D02*
X13595238Y9259467D01*
X59857142Y94140420D02*
X59809523Y94092800D01*
X59809523Y94092800D02*
X59666666Y94045181D01*
X59666666Y94045181D02*
X59571428Y94045181D01*
X59571428Y94045181D02*
X59428571Y94092800D01*
X59428571Y94092800D02*
X59333333Y94188039D01*
X59333333Y94188039D02*
X59285714Y94283277D01*
X59285714Y94283277D02*
X59238095Y94473753D01*
X59238095Y94473753D02*
X59238095Y94616610D01*
X59238095Y94616610D02*
X59285714Y94807086D01*
X59285714Y94807086D02*
X59333333Y94902324D01*
X59333333Y94902324D02*
X59428571Y94997562D01*
X59428571Y94997562D02*
X59571428Y95045181D01*
X59571428Y95045181D02*
X59666666Y95045181D01*
X59666666Y95045181D02*
X59809523Y94997562D01*
X59809523Y94997562D02*
X59857142Y94949943D01*
X60809523Y94045181D02*
X60238095Y94045181D01*
X60523809Y94045181D02*
X60523809Y95045181D01*
X60523809Y95045181D02*
X60428571Y94902324D01*
X60428571Y94902324D02*
X60333333Y94807086D01*
X60333333Y94807086D02*
X60238095Y94759467D01*
X61428571Y95045181D02*
X61523809Y95045181D01*
X61523809Y95045181D02*
X61619047Y94997562D01*
X61619047Y94997562D02*
X61666666Y94949943D01*
X61666666Y94949943D02*
X61714285Y94854705D01*
X61714285Y94854705D02*
X61761904Y94664229D01*
X61761904Y94664229D02*
X61761904Y94426134D01*
X61761904Y94426134D02*
X61714285Y94235658D01*
X61714285Y94235658D02*
X61666666Y94140420D01*
X61666666Y94140420D02*
X61619047Y94092800D01*
X61619047Y94092800D02*
X61523809Y94045181D01*
X61523809Y94045181D02*
X61428571Y94045181D01*
X61428571Y94045181D02*
X61333333Y94092800D01*
X61333333Y94092800D02*
X61285714Y94140420D01*
X61285714Y94140420D02*
X61238095Y94235658D01*
X61238095Y94235658D02*
X61190476Y94426134D01*
X61190476Y94426134D02*
X61190476Y94664229D01*
X61190476Y94664229D02*
X61238095Y94854705D01*
X61238095Y94854705D02*
X61285714Y94949943D01*
X61285714Y94949943D02*
X61333333Y94997562D01*
X61333333Y94997562D02*
X61428571Y95045181D01*
X16357142Y69140420D02*
X16309523Y69092800D01*
X16309523Y69092800D02*
X16166666Y69045181D01*
X16166666Y69045181D02*
X16071428Y69045181D01*
X16071428Y69045181D02*
X15928571Y69092800D01*
X15928571Y69092800D02*
X15833333Y69188039D01*
X15833333Y69188039D02*
X15785714Y69283277D01*
X15785714Y69283277D02*
X15738095Y69473753D01*
X15738095Y69473753D02*
X15738095Y69616610D01*
X15738095Y69616610D02*
X15785714Y69807086D01*
X15785714Y69807086D02*
X15833333Y69902324D01*
X15833333Y69902324D02*
X15928571Y69997562D01*
X15928571Y69997562D02*
X16071428Y70045181D01*
X16071428Y70045181D02*
X16166666Y70045181D01*
X16166666Y70045181D02*
X16309523Y69997562D01*
X16309523Y69997562D02*
X16357142Y69949943D01*
X17309523Y69045181D02*
X16738095Y69045181D01*
X17023809Y69045181D02*
X17023809Y70045181D01*
X17023809Y70045181D02*
X16928571Y69902324D01*
X16928571Y69902324D02*
X16833333Y69807086D01*
X16833333Y69807086D02*
X16738095Y69759467D01*
X18214285Y70045181D02*
X17738095Y70045181D01*
X17738095Y70045181D02*
X17690476Y69568991D01*
X17690476Y69568991D02*
X17738095Y69616610D01*
X17738095Y69616610D02*
X17833333Y69664229D01*
X17833333Y69664229D02*
X18071428Y69664229D01*
X18071428Y69664229D02*
X18166666Y69616610D01*
X18166666Y69616610D02*
X18214285Y69568991D01*
X18214285Y69568991D02*
X18261904Y69473753D01*
X18261904Y69473753D02*
X18261904Y69235658D01*
X18261904Y69235658D02*
X18214285Y69140420D01*
X18214285Y69140420D02*
X18166666Y69092800D01*
X18166666Y69092800D02*
X18071428Y69045181D01*
X18071428Y69045181D02*
X17833333Y69045181D01*
X17833333Y69045181D02*
X17738095Y69092800D01*
X17738095Y69092800D02*
X17690476Y69140420D01*
X39666666Y18068991D02*
X39333333Y18068991D01*
X39333333Y17545181D02*
X39333333Y18545181D01*
X39333333Y18545181D02*
X39809523Y18545181D01*
X40714285Y17545181D02*
X40142857Y17545181D01*
X40428571Y17545181D02*
X40428571Y18545181D01*
X40428571Y18545181D02*
X40333333Y18402324D01*
X40333333Y18402324D02*
X40238095Y18307086D01*
X40238095Y18307086D02*
X40142857Y18259467D01*
X16833333Y84240420D02*
X16785714Y84192800D01*
X16785714Y84192800D02*
X16642857Y84145181D01*
X16642857Y84145181D02*
X16547619Y84145181D01*
X16547619Y84145181D02*
X16404762Y84192800D01*
X16404762Y84192800D02*
X16309524Y84288039D01*
X16309524Y84288039D02*
X16261905Y84383277D01*
X16261905Y84383277D02*
X16214286Y84573753D01*
X16214286Y84573753D02*
X16214286Y84716610D01*
X16214286Y84716610D02*
X16261905Y84907086D01*
X16261905Y84907086D02*
X16309524Y85002324D01*
X16309524Y85002324D02*
X16404762Y85097562D01*
X16404762Y85097562D02*
X16547619Y85145181D01*
X16547619Y85145181D02*
X16642857Y85145181D01*
X16642857Y85145181D02*
X16785714Y85097562D01*
X16785714Y85097562D02*
X16833333Y85049943D01*
X17214286Y85049943D02*
X17261905Y85097562D01*
X17261905Y85097562D02*
X17357143Y85145181D01*
X17357143Y85145181D02*
X17595238Y85145181D01*
X17595238Y85145181D02*
X17690476Y85097562D01*
X17690476Y85097562D02*
X17738095Y85049943D01*
X17738095Y85049943D02*
X17785714Y84954705D01*
X17785714Y84954705D02*
X17785714Y84859467D01*
X17785714Y84859467D02*
X17738095Y84716610D01*
X17738095Y84716610D02*
X17166667Y84145181D01*
X17166667Y84145181D02*
X17785714Y84145181D01*
X42833333Y82640420D02*
X42785714Y82592800D01*
X42785714Y82592800D02*
X42642857Y82545181D01*
X42642857Y82545181D02*
X42547619Y82545181D01*
X42547619Y82545181D02*
X42404762Y82592800D01*
X42404762Y82592800D02*
X42309524Y82688039D01*
X42309524Y82688039D02*
X42261905Y82783277D01*
X42261905Y82783277D02*
X42214286Y82973753D01*
X42214286Y82973753D02*
X42214286Y83116610D01*
X42214286Y83116610D02*
X42261905Y83307086D01*
X42261905Y83307086D02*
X42309524Y83402324D01*
X42309524Y83402324D02*
X42404762Y83497562D01*
X42404762Y83497562D02*
X42547619Y83545181D01*
X42547619Y83545181D02*
X42642857Y83545181D01*
X42642857Y83545181D02*
X42785714Y83497562D01*
X42785714Y83497562D02*
X42833333Y83449943D01*
X43690476Y83545181D02*
X43500000Y83545181D01*
X43500000Y83545181D02*
X43404762Y83497562D01*
X43404762Y83497562D02*
X43357143Y83449943D01*
X43357143Y83449943D02*
X43261905Y83307086D01*
X43261905Y83307086D02*
X43214286Y83116610D01*
X43214286Y83116610D02*
X43214286Y82735658D01*
X43214286Y82735658D02*
X43261905Y82640420D01*
X43261905Y82640420D02*
X43309524Y82592800D01*
X43309524Y82592800D02*
X43404762Y82545181D01*
X43404762Y82545181D02*
X43595238Y82545181D01*
X43595238Y82545181D02*
X43690476Y82592800D01*
X43690476Y82592800D02*
X43738095Y82640420D01*
X43738095Y82640420D02*
X43785714Y82735658D01*
X43785714Y82735658D02*
X43785714Y82973753D01*
X43785714Y82973753D02*
X43738095Y83068991D01*
X43738095Y83068991D02*
X43690476Y83116610D01*
X43690476Y83116610D02*
X43595238Y83164229D01*
X43595238Y83164229D02*
X43404762Y83164229D01*
X43404762Y83164229D02*
X43309524Y83116610D01*
X43309524Y83116610D02*
X43261905Y83068991D01*
X43261905Y83068991D02*
X43214286Y82973753D01*
X16357142Y49740420D02*
X16309523Y49692800D01*
X16309523Y49692800D02*
X16166666Y49645181D01*
X16166666Y49645181D02*
X16071428Y49645181D01*
X16071428Y49645181D02*
X15928571Y49692800D01*
X15928571Y49692800D02*
X15833333Y49788039D01*
X15833333Y49788039D02*
X15785714Y49883277D01*
X15785714Y49883277D02*
X15738095Y50073753D01*
X15738095Y50073753D02*
X15738095Y50216610D01*
X15738095Y50216610D02*
X15785714Y50407086D01*
X15785714Y50407086D02*
X15833333Y50502324D01*
X15833333Y50502324D02*
X15928571Y50597562D01*
X15928571Y50597562D02*
X16071428Y50645181D01*
X16071428Y50645181D02*
X16166666Y50645181D01*
X16166666Y50645181D02*
X16309523Y50597562D01*
X16309523Y50597562D02*
X16357142Y50549943D01*
X17309523Y49645181D02*
X16738095Y49645181D01*
X17023809Y49645181D02*
X17023809Y50645181D01*
X17023809Y50645181D02*
X16928571Y50502324D01*
X16928571Y50502324D02*
X16833333Y50407086D01*
X16833333Y50407086D02*
X16738095Y50359467D01*
X17785714Y49645181D02*
X17976190Y49645181D01*
X17976190Y49645181D02*
X18071428Y49692800D01*
X18071428Y49692800D02*
X18119047Y49740420D01*
X18119047Y49740420D02*
X18214285Y49883277D01*
X18214285Y49883277D02*
X18261904Y50073753D01*
X18261904Y50073753D02*
X18261904Y50454705D01*
X18261904Y50454705D02*
X18214285Y50549943D01*
X18214285Y50549943D02*
X18166666Y50597562D01*
X18166666Y50597562D02*
X18071428Y50645181D01*
X18071428Y50645181D02*
X17880952Y50645181D01*
X17880952Y50645181D02*
X17785714Y50597562D01*
X17785714Y50597562D02*
X17738095Y50549943D01*
X17738095Y50549943D02*
X17690476Y50454705D01*
X17690476Y50454705D02*
X17690476Y50216610D01*
X17690476Y50216610D02*
X17738095Y50121372D01*
X17738095Y50121372D02*
X17785714Y50073753D01*
X17785714Y50073753D02*
X17880952Y50026134D01*
X17880952Y50026134D02*
X18071428Y50026134D01*
X18071428Y50026134D02*
X18166666Y50073753D01*
X18166666Y50073753D02*
X18214285Y50121372D01*
X18214285Y50121372D02*
X18261904Y50216610D01*
X73167142Y19640420D02*
X73119523Y19592800D01*
X73119523Y19592800D02*
X72976666Y19545181D01*
X72976666Y19545181D02*
X72881428Y19545181D01*
X72881428Y19545181D02*
X72738571Y19592800D01*
X72738571Y19592800D02*
X72643333Y19688039D01*
X72643333Y19688039D02*
X72595714Y19783277D01*
X72595714Y19783277D02*
X72548095Y19973753D01*
X72548095Y19973753D02*
X72548095Y20116610D01*
X72548095Y20116610D02*
X72595714Y20307086D01*
X72595714Y20307086D02*
X72643333Y20402324D01*
X72643333Y20402324D02*
X72738571Y20497562D01*
X72738571Y20497562D02*
X72881428Y20545181D01*
X72881428Y20545181D02*
X72976666Y20545181D01*
X72976666Y20545181D02*
X73119523Y20497562D01*
X73119523Y20497562D02*
X73167142Y20449943D01*
X74119523Y19545181D02*
X73548095Y19545181D01*
X73833809Y19545181D02*
X73833809Y20545181D01*
X73833809Y20545181D02*
X73738571Y20402324D01*
X73738571Y20402324D02*
X73643333Y20307086D01*
X73643333Y20307086D02*
X73548095Y20259467D01*
X74976666Y20211848D02*
X74976666Y19545181D01*
X74738571Y20592800D02*
X74500476Y19878515D01*
X74500476Y19878515D02*
X75119523Y19878515D01*
X22722142Y37640420D02*
X22674523Y37592800D01*
X22674523Y37592800D02*
X22531666Y37545181D01*
X22531666Y37545181D02*
X22436428Y37545181D01*
X22436428Y37545181D02*
X22293571Y37592800D01*
X22293571Y37592800D02*
X22198333Y37688039D01*
X22198333Y37688039D02*
X22150714Y37783277D01*
X22150714Y37783277D02*
X22103095Y37973753D01*
X22103095Y37973753D02*
X22103095Y38116610D01*
X22103095Y38116610D02*
X22150714Y38307086D01*
X22150714Y38307086D02*
X22198333Y38402324D01*
X22198333Y38402324D02*
X22293571Y38497562D01*
X22293571Y38497562D02*
X22436428Y38545181D01*
X22436428Y38545181D02*
X22531666Y38545181D01*
X22531666Y38545181D02*
X22674523Y38497562D01*
X22674523Y38497562D02*
X22722142Y38449943D01*
X23674523Y37545181D02*
X23103095Y37545181D01*
X23388809Y37545181D02*
X23388809Y38545181D01*
X23388809Y38545181D02*
X23293571Y38402324D01*
X23293571Y38402324D02*
X23198333Y38307086D01*
X23198333Y38307086D02*
X23103095Y38259467D01*
X24055476Y38449943D02*
X24103095Y38497562D01*
X24103095Y38497562D02*
X24198333Y38545181D01*
X24198333Y38545181D02*
X24436428Y38545181D01*
X24436428Y38545181D02*
X24531666Y38497562D01*
X24531666Y38497562D02*
X24579285Y38449943D01*
X24579285Y38449943D02*
X24626904Y38354705D01*
X24626904Y38354705D02*
X24626904Y38259467D01*
X24626904Y38259467D02*
X24579285Y38116610D01*
X24579285Y38116610D02*
X24007857Y37545181D01*
X24007857Y37545181D02*
X24626904Y37545181D01*
X28357142Y59545181D02*
X28023809Y60021372D01*
X27785714Y59545181D02*
X27785714Y60545181D01*
X27785714Y60545181D02*
X28166666Y60545181D01*
X28166666Y60545181D02*
X28261904Y60497562D01*
X28261904Y60497562D02*
X28309523Y60449943D01*
X28309523Y60449943D02*
X28357142Y60354705D01*
X28357142Y60354705D02*
X28357142Y60211848D01*
X28357142Y60211848D02*
X28309523Y60116610D01*
X28309523Y60116610D02*
X28261904Y60068991D01*
X28261904Y60068991D02*
X28166666Y60021372D01*
X28166666Y60021372D02*
X27785714Y60021372D01*
X28738095Y60449943D02*
X28785714Y60497562D01*
X28785714Y60497562D02*
X28880952Y60545181D01*
X28880952Y60545181D02*
X29119047Y60545181D01*
X29119047Y60545181D02*
X29214285Y60497562D01*
X29214285Y60497562D02*
X29261904Y60449943D01*
X29261904Y60449943D02*
X29309523Y60354705D01*
X29309523Y60354705D02*
X29309523Y60259467D01*
X29309523Y60259467D02*
X29261904Y60116610D01*
X29261904Y60116610D02*
X28690476Y59545181D01*
X28690476Y59545181D02*
X29309523Y59545181D01*
X30166666Y60211848D02*
X30166666Y59545181D01*
X29928571Y60592800D02*
X29690476Y59878515D01*
X29690476Y59878515D02*
X30309523Y59878515D01*
X17357142Y25140420D02*
X17309523Y25092800D01*
X17309523Y25092800D02*
X17166666Y25045181D01*
X17166666Y25045181D02*
X17071428Y25045181D01*
X17071428Y25045181D02*
X16928571Y25092800D01*
X16928571Y25092800D02*
X16833333Y25188039D01*
X16833333Y25188039D02*
X16785714Y25283277D01*
X16785714Y25283277D02*
X16738095Y25473753D01*
X16738095Y25473753D02*
X16738095Y25616610D01*
X16738095Y25616610D02*
X16785714Y25807086D01*
X16785714Y25807086D02*
X16833333Y25902324D01*
X16833333Y25902324D02*
X16928571Y25997562D01*
X16928571Y25997562D02*
X17071428Y26045181D01*
X17071428Y26045181D02*
X17166666Y26045181D01*
X17166666Y26045181D02*
X17309523Y25997562D01*
X17309523Y25997562D02*
X17357142Y25949943D01*
X18309523Y25045181D02*
X17738095Y25045181D01*
X18023809Y25045181D02*
X18023809Y26045181D01*
X18023809Y26045181D02*
X17928571Y25902324D01*
X17928571Y25902324D02*
X17833333Y25807086D01*
X17833333Y25807086D02*
X17738095Y25759467D01*
X18642857Y26045181D02*
X19261904Y26045181D01*
X19261904Y26045181D02*
X18928571Y25664229D01*
X18928571Y25664229D02*
X19071428Y25664229D01*
X19071428Y25664229D02*
X19166666Y25616610D01*
X19166666Y25616610D02*
X19214285Y25568991D01*
X19214285Y25568991D02*
X19261904Y25473753D01*
X19261904Y25473753D02*
X19261904Y25235658D01*
X19261904Y25235658D02*
X19214285Y25140420D01*
X19214285Y25140420D02*
X19166666Y25092800D01*
X19166666Y25092800D02*
X19071428Y25045181D01*
X19071428Y25045181D02*
X18785714Y25045181D01*
X18785714Y25045181D02*
X18690476Y25092800D01*
X18690476Y25092800D02*
X18642857Y25140420D01*
X90357142Y94140420D02*
X90309523Y94092800D01*
X90309523Y94092800D02*
X90166666Y94045181D01*
X90166666Y94045181D02*
X90071428Y94045181D01*
X90071428Y94045181D02*
X89928571Y94092800D01*
X89928571Y94092800D02*
X89833333Y94188039D01*
X89833333Y94188039D02*
X89785714Y94283277D01*
X89785714Y94283277D02*
X89738095Y94473753D01*
X89738095Y94473753D02*
X89738095Y94616610D01*
X89738095Y94616610D02*
X89785714Y94807086D01*
X89785714Y94807086D02*
X89833333Y94902324D01*
X89833333Y94902324D02*
X89928571Y94997562D01*
X89928571Y94997562D02*
X90071428Y95045181D01*
X90071428Y95045181D02*
X90166666Y95045181D01*
X90166666Y95045181D02*
X90309523Y94997562D01*
X90309523Y94997562D02*
X90357142Y94949943D01*
X91309523Y94045181D02*
X90738095Y94045181D01*
X91023809Y94045181D02*
X91023809Y95045181D01*
X91023809Y95045181D02*
X90928571Y94902324D01*
X90928571Y94902324D02*
X90833333Y94807086D01*
X90833333Y94807086D02*
X90738095Y94759467D01*
X92261904Y94045181D02*
X91690476Y94045181D01*
X91976190Y94045181D02*
X91976190Y95045181D01*
X91976190Y95045181D02*
X91880952Y94902324D01*
X91880952Y94902324D02*
X91785714Y94807086D01*
X91785714Y94807086D02*
X91690476Y94759467D01*
X57666667Y37092800D02*
X57809524Y37045181D01*
X57809524Y37045181D02*
X58047619Y37045181D01*
X58047619Y37045181D02*
X58142857Y37092800D01*
X58142857Y37092800D02*
X58190476Y37140420D01*
X58190476Y37140420D02*
X58238095Y37235658D01*
X58238095Y37235658D02*
X58238095Y37330896D01*
X58238095Y37330896D02*
X58190476Y37426134D01*
X58190476Y37426134D02*
X58142857Y37473753D01*
X58142857Y37473753D02*
X58047619Y37521372D01*
X58047619Y37521372D02*
X57857143Y37568991D01*
X57857143Y37568991D02*
X57761905Y37616610D01*
X57761905Y37616610D02*
X57714286Y37664229D01*
X57714286Y37664229D02*
X57666667Y37759467D01*
X57666667Y37759467D02*
X57666667Y37854705D01*
X57666667Y37854705D02*
X57714286Y37949943D01*
X57714286Y37949943D02*
X57761905Y37997562D01*
X57761905Y37997562D02*
X57857143Y38045181D01*
X57857143Y38045181D02*
X58095238Y38045181D01*
X58095238Y38045181D02*
X58238095Y37997562D01*
X58571429Y38045181D02*
X58809524Y37045181D01*
X58809524Y37045181D02*
X59000000Y37759467D01*
X59000000Y37759467D02*
X59190476Y37045181D01*
X59190476Y37045181D02*
X59428572Y38045181D01*
X60333333Y37045181D02*
X59761905Y37045181D01*
X60047619Y37045181D02*
X60047619Y38045181D01*
X60047619Y38045181D02*
X59952381Y37902324D01*
X59952381Y37902324D02*
X59857143Y37807086D01*
X59857143Y37807086D02*
X59761905Y37759467D01*
X4857142Y45640420D02*
X4809523Y45592800D01*
X4809523Y45592800D02*
X4666666Y45545181D01*
X4666666Y45545181D02*
X4571428Y45545181D01*
X4571428Y45545181D02*
X4428571Y45592800D01*
X4428571Y45592800D02*
X4333333Y45688039D01*
X4333333Y45688039D02*
X4285714Y45783277D01*
X4285714Y45783277D02*
X4238095Y45973753D01*
X4238095Y45973753D02*
X4238095Y46116610D01*
X4238095Y46116610D02*
X4285714Y46307086D01*
X4285714Y46307086D02*
X4333333Y46402324D01*
X4333333Y46402324D02*
X4428571Y46497562D01*
X4428571Y46497562D02*
X4571428Y46545181D01*
X4571428Y46545181D02*
X4666666Y46545181D01*
X4666666Y46545181D02*
X4809523Y46497562D01*
X4809523Y46497562D02*
X4857142Y46449943D01*
X5809523Y45545181D02*
X5238095Y45545181D01*
X5523809Y45545181D02*
X5523809Y46545181D01*
X5523809Y46545181D02*
X5428571Y46402324D01*
X5428571Y46402324D02*
X5333333Y46307086D01*
X5333333Y46307086D02*
X5238095Y46259467D01*
X6142857Y46545181D02*
X6809523Y46545181D01*
X6809523Y46545181D02*
X6380952Y45545181D01*
X24333333Y70045181D02*
X24000000Y70521372D01*
X23761905Y70045181D02*
X23761905Y71045181D01*
X23761905Y71045181D02*
X24142857Y71045181D01*
X24142857Y71045181D02*
X24238095Y70997562D01*
X24238095Y70997562D02*
X24285714Y70949943D01*
X24285714Y70949943D02*
X24333333Y70854705D01*
X24333333Y70854705D02*
X24333333Y70711848D01*
X24333333Y70711848D02*
X24285714Y70616610D01*
X24285714Y70616610D02*
X24238095Y70568991D01*
X24238095Y70568991D02*
X24142857Y70521372D01*
X24142857Y70521372D02*
X23761905Y70521372D01*
X24714286Y70949943D02*
X24761905Y70997562D01*
X24761905Y70997562D02*
X24857143Y71045181D01*
X24857143Y71045181D02*
X25095238Y71045181D01*
X25095238Y71045181D02*
X25190476Y70997562D01*
X25190476Y70997562D02*
X25238095Y70949943D01*
X25238095Y70949943D02*
X25285714Y70854705D01*
X25285714Y70854705D02*
X25285714Y70759467D01*
X25285714Y70759467D02*
X25238095Y70616610D01*
X25238095Y70616610D02*
X24666667Y70045181D01*
X24666667Y70045181D02*
X25285714Y70045181D01*
X38261905Y41545181D02*
X38261905Y42545181D01*
X38261905Y42545181D02*
X38500000Y42545181D01*
X38500000Y42545181D02*
X38642857Y42497562D01*
X38642857Y42497562D02*
X38738095Y42402324D01*
X38738095Y42402324D02*
X38785714Y42307086D01*
X38785714Y42307086D02*
X38833333Y42116610D01*
X38833333Y42116610D02*
X38833333Y41973753D01*
X38833333Y41973753D02*
X38785714Y41783277D01*
X38785714Y41783277D02*
X38738095Y41688039D01*
X38738095Y41688039D02*
X38642857Y41592800D01*
X38642857Y41592800D02*
X38500000Y41545181D01*
X38500000Y41545181D02*
X38261905Y41545181D01*
X39166667Y42545181D02*
X39785714Y42545181D01*
X39785714Y42545181D02*
X39452381Y42164229D01*
X39452381Y42164229D02*
X39595238Y42164229D01*
X39595238Y42164229D02*
X39690476Y42116610D01*
X39690476Y42116610D02*
X39738095Y42068991D01*
X39738095Y42068991D02*
X39785714Y41973753D01*
X39785714Y41973753D02*
X39785714Y41735658D01*
X39785714Y41735658D02*
X39738095Y41640420D01*
X39738095Y41640420D02*
X39690476Y41592800D01*
X39690476Y41592800D02*
X39595238Y41545181D01*
X39595238Y41545181D02*
X39309524Y41545181D01*
X39309524Y41545181D02*
X39214286Y41592800D01*
X39214286Y41592800D02*
X39166667Y41640420D01*
X70833333Y65045181D02*
X70500000Y65521372D01*
X70261905Y65045181D02*
X70261905Y66045181D01*
X70261905Y66045181D02*
X70642857Y66045181D01*
X70642857Y66045181D02*
X70738095Y65997562D01*
X70738095Y65997562D02*
X70785714Y65949943D01*
X70785714Y65949943D02*
X70833333Y65854705D01*
X70833333Y65854705D02*
X70833333Y65711848D01*
X70833333Y65711848D02*
X70785714Y65616610D01*
X70785714Y65616610D02*
X70738095Y65568991D01*
X70738095Y65568991D02*
X70642857Y65521372D01*
X70642857Y65521372D02*
X70261905Y65521372D01*
X71690476Y66045181D02*
X71500000Y66045181D01*
X71500000Y66045181D02*
X71404762Y65997562D01*
X71404762Y65997562D02*
X71357143Y65949943D01*
X71357143Y65949943D02*
X71261905Y65807086D01*
X71261905Y65807086D02*
X71214286Y65616610D01*
X71214286Y65616610D02*
X71214286Y65235658D01*
X71214286Y65235658D02*
X71261905Y65140420D01*
X71261905Y65140420D02*
X71309524Y65092800D01*
X71309524Y65092800D02*
X71404762Y65045181D01*
X71404762Y65045181D02*
X71595238Y65045181D01*
X71595238Y65045181D02*
X71690476Y65092800D01*
X71690476Y65092800D02*
X71738095Y65140420D01*
X71738095Y65140420D02*
X71785714Y65235658D01*
X71785714Y65235658D02*
X71785714Y65473753D01*
X71785714Y65473753D02*
X71738095Y65568991D01*
X71738095Y65568991D02*
X71690476Y65616610D01*
X71690476Y65616610D02*
X71595238Y65664229D01*
X71595238Y65664229D02*
X71404762Y65664229D01*
X71404762Y65664229D02*
X71309524Y65616610D01*
X71309524Y65616610D02*
X71261905Y65568991D01*
X71261905Y65568991D02*
X71214286Y65473753D01*
X94833333Y83545181D02*
X94500000Y84021372D01*
X94261905Y83545181D02*
X94261905Y84545181D01*
X94261905Y84545181D02*
X94642857Y84545181D01*
X94642857Y84545181D02*
X94738095Y84497562D01*
X94738095Y84497562D02*
X94785714Y84449943D01*
X94785714Y84449943D02*
X94833333Y84354705D01*
X94833333Y84354705D02*
X94833333Y84211848D01*
X94833333Y84211848D02*
X94785714Y84116610D01*
X94785714Y84116610D02*
X94738095Y84068991D01*
X94738095Y84068991D02*
X94642857Y84021372D01*
X94642857Y84021372D02*
X94261905Y84021372D01*
X95166667Y84545181D02*
X95833333Y84545181D01*
X95833333Y84545181D02*
X95404762Y83545181D01*
X2738095Y70045181D02*
X3309523Y70045181D01*
X3023809Y69045181D02*
X3023809Y70045181D01*
X3642857Y69045181D02*
X3642857Y70045181D01*
X3642857Y70045181D02*
X4023809Y70045181D01*
X4023809Y70045181D02*
X4119047Y69997562D01*
X4119047Y69997562D02*
X4166666Y69949943D01*
X4166666Y69949943D02*
X4214285Y69854705D01*
X4214285Y69854705D02*
X4214285Y69711848D01*
X4214285Y69711848D02*
X4166666Y69616610D01*
X4166666Y69616610D02*
X4119047Y69568991D01*
X4119047Y69568991D02*
X4023809Y69521372D01*
X4023809Y69521372D02*
X3642857Y69521372D01*
X5166666Y69045181D02*
X4595238Y69045181D01*
X4880952Y69045181D02*
X4880952Y70045181D01*
X4880952Y70045181D02*
X4785714Y69902324D01*
X4785714Y69902324D02*
X4690476Y69807086D01*
X4690476Y69807086D02*
X4595238Y69759467D01*
X24357142Y53740420D02*
X24309523Y53692800D01*
X24309523Y53692800D02*
X24166666Y53645181D01*
X24166666Y53645181D02*
X24071428Y53645181D01*
X24071428Y53645181D02*
X23928571Y53692800D01*
X23928571Y53692800D02*
X23833333Y53788039D01*
X23833333Y53788039D02*
X23785714Y53883277D01*
X23785714Y53883277D02*
X23738095Y54073753D01*
X23738095Y54073753D02*
X23738095Y54216610D01*
X23738095Y54216610D02*
X23785714Y54407086D01*
X23785714Y54407086D02*
X23833333Y54502324D01*
X23833333Y54502324D02*
X23928571Y54597562D01*
X23928571Y54597562D02*
X24071428Y54645181D01*
X24071428Y54645181D02*
X24166666Y54645181D01*
X24166666Y54645181D02*
X24309523Y54597562D01*
X24309523Y54597562D02*
X24357142Y54549943D01*
X25309523Y53645181D02*
X24738095Y53645181D01*
X25023809Y53645181D02*
X25023809Y54645181D01*
X25023809Y54645181D02*
X24928571Y54502324D01*
X24928571Y54502324D02*
X24833333Y54407086D01*
X24833333Y54407086D02*
X24738095Y54359467D01*
X25880952Y54216610D02*
X25785714Y54264229D01*
X25785714Y54264229D02*
X25738095Y54311848D01*
X25738095Y54311848D02*
X25690476Y54407086D01*
X25690476Y54407086D02*
X25690476Y54454705D01*
X25690476Y54454705D02*
X25738095Y54549943D01*
X25738095Y54549943D02*
X25785714Y54597562D01*
X25785714Y54597562D02*
X25880952Y54645181D01*
X25880952Y54645181D02*
X26071428Y54645181D01*
X26071428Y54645181D02*
X26166666Y54597562D01*
X26166666Y54597562D02*
X26214285Y54549943D01*
X26214285Y54549943D02*
X26261904Y54454705D01*
X26261904Y54454705D02*
X26261904Y54407086D01*
X26261904Y54407086D02*
X26214285Y54311848D01*
X26214285Y54311848D02*
X26166666Y54264229D01*
X26166666Y54264229D02*
X26071428Y54216610D01*
X26071428Y54216610D02*
X25880952Y54216610D01*
X25880952Y54216610D02*
X25785714Y54168991D01*
X25785714Y54168991D02*
X25738095Y54121372D01*
X25738095Y54121372D02*
X25690476Y54026134D01*
X25690476Y54026134D02*
X25690476Y53835658D01*
X25690476Y53835658D02*
X25738095Y53740420D01*
X25738095Y53740420D02*
X25785714Y53692800D01*
X25785714Y53692800D02*
X25880952Y53645181D01*
X25880952Y53645181D02*
X26071428Y53645181D01*
X26071428Y53645181D02*
X26166666Y53692800D01*
X26166666Y53692800D02*
X26214285Y53740420D01*
X26214285Y53740420D02*
X26261904Y53835658D01*
X26261904Y53835658D02*
X26261904Y54026134D01*
X26261904Y54026134D02*
X26214285Y54121372D01*
X26214285Y54121372D02*
X26166666Y54168991D01*
X26166666Y54168991D02*
X26071428Y54216610D01*
X38761905Y30545181D02*
X38761905Y31545181D01*
X38761905Y31545181D02*
X39000000Y31545181D01*
X39000000Y31545181D02*
X39142857Y31497562D01*
X39142857Y31497562D02*
X39238095Y31402324D01*
X39238095Y31402324D02*
X39285714Y31307086D01*
X39285714Y31307086D02*
X39333333Y31116610D01*
X39333333Y31116610D02*
X39333333Y30973753D01*
X39333333Y30973753D02*
X39285714Y30783277D01*
X39285714Y30783277D02*
X39238095Y30688039D01*
X39238095Y30688039D02*
X39142857Y30592800D01*
X39142857Y30592800D02*
X39000000Y30545181D01*
X39000000Y30545181D02*
X38761905Y30545181D01*
X40285714Y30545181D02*
X39714286Y30545181D01*
X40000000Y30545181D02*
X40000000Y31545181D01*
X40000000Y31545181D02*
X39904762Y31402324D01*
X39904762Y31402324D02*
X39809524Y31307086D01*
X39809524Y31307086D02*
X39714286Y31259467D01*
X53833333Y78140420D02*
X53785714Y78092800D01*
X53785714Y78092800D02*
X53642857Y78045181D01*
X53642857Y78045181D02*
X53547619Y78045181D01*
X53547619Y78045181D02*
X53404762Y78092800D01*
X53404762Y78092800D02*
X53309524Y78188039D01*
X53309524Y78188039D02*
X53261905Y78283277D01*
X53261905Y78283277D02*
X53214286Y78473753D01*
X53214286Y78473753D02*
X53214286Y78616610D01*
X53214286Y78616610D02*
X53261905Y78807086D01*
X53261905Y78807086D02*
X53309524Y78902324D01*
X53309524Y78902324D02*
X53404762Y78997562D01*
X53404762Y78997562D02*
X53547619Y79045181D01*
X53547619Y79045181D02*
X53642857Y79045181D01*
X53642857Y79045181D02*
X53785714Y78997562D01*
X53785714Y78997562D02*
X53833333Y78949943D01*
X54404762Y78616610D02*
X54309524Y78664229D01*
X54309524Y78664229D02*
X54261905Y78711848D01*
X54261905Y78711848D02*
X54214286Y78807086D01*
X54214286Y78807086D02*
X54214286Y78854705D01*
X54214286Y78854705D02*
X54261905Y78949943D01*
X54261905Y78949943D02*
X54309524Y78997562D01*
X54309524Y78997562D02*
X54404762Y79045181D01*
X54404762Y79045181D02*
X54595238Y79045181D01*
X54595238Y79045181D02*
X54690476Y78997562D01*
X54690476Y78997562D02*
X54738095Y78949943D01*
X54738095Y78949943D02*
X54785714Y78854705D01*
X54785714Y78854705D02*
X54785714Y78807086D01*
X54785714Y78807086D02*
X54738095Y78711848D01*
X54738095Y78711848D02*
X54690476Y78664229D01*
X54690476Y78664229D02*
X54595238Y78616610D01*
X54595238Y78616610D02*
X54404762Y78616610D01*
X54404762Y78616610D02*
X54309524Y78568991D01*
X54309524Y78568991D02*
X54261905Y78521372D01*
X54261905Y78521372D02*
X54214286Y78426134D01*
X54214286Y78426134D02*
X54214286Y78235658D01*
X54214286Y78235658D02*
X54261905Y78140420D01*
X54261905Y78140420D02*
X54309524Y78092800D01*
X54309524Y78092800D02*
X54404762Y78045181D01*
X54404762Y78045181D02*
X54595238Y78045181D01*
X54595238Y78045181D02*
X54690476Y78092800D01*
X54690476Y78092800D02*
X54738095Y78140420D01*
X54738095Y78140420D02*
X54785714Y78235658D01*
X54785714Y78235658D02*
X54785714Y78426134D01*
X54785714Y78426134D02*
X54738095Y78521372D01*
X54738095Y78521372D02*
X54690476Y78568991D01*
X54690476Y78568991D02*
X54595238Y78616610D01*
X53833333Y69045181D02*
X53500000Y69521372D01*
X53261905Y69045181D02*
X53261905Y70045181D01*
X53261905Y70045181D02*
X53642857Y70045181D01*
X53642857Y70045181D02*
X53738095Y69997562D01*
X53738095Y69997562D02*
X53785714Y69949943D01*
X53785714Y69949943D02*
X53833333Y69854705D01*
X53833333Y69854705D02*
X53833333Y69711848D01*
X53833333Y69711848D02*
X53785714Y69616610D01*
X53785714Y69616610D02*
X53738095Y69568991D01*
X53738095Y69568991D02*
X53642857Y69521372D01*
X53642857Y69521372D02*
X53261905Y69521372D01*
X54166667Y70045181D02*
X54785714Y70045181D01*
X54785714Y70045181D02*
X54452381Y69664229D01*
X54452381Y69664229D02*
X54595238Y69664229D01*
X54595238Y69664229D02*
X54690476Y69616610D01*
X54690476Y69616610D02*
X54738095Y69568991D01*
X54738095Y69568991D02*
X54785714Y69473753D01*
X54785714Y69473753D02*
X54785714Y69235658D01*
X54785714Y69235658D02*
X54738095Y69140420D01*
X54738095Y69140420D02*
X54690476Y69092800D01*
X54690476Y69092800D02*
X54595238Y69045181D01*
X54595238Y69045181D02*
X54309524Y69045181D01*
X54309524Y69045181D02*
X54214286Y69092800D01*
X54214286Y69092800D02*
X54166667Y69140420D01*
X47738095Y13045181D02*
X48309523Y13045181D01*
X48023809Y12045181D02*
X48023809Y13045181D01*
X48642857Y12045181D02*
X48642857Y13045181D01*
X48642857Y13045181D02*
X49023809Y13045181D01*
X49023809Y13045181D02*
X49119047Y12997562D01*
X49119047Y12997562D02*
X49166666Y12949943D01*
X49166666Y12949943D02*
X49214285Y12854705D01*
X49214285Y12854705D02*
X49214285Y12711848D01*
X49214285Y12711848D02*
X49166666Y12616610D01*
X49166666Y12616610D02*
X49119047Y12568991D01*
X49119047Y12568991D02*
X49023809Y12521372D01*
X49023809Y12521372D02*
X48642857Y12521372D01*
X49595238Y12949943D02*
X49642857Y12997562D01*
X49642857Y12997562D02*
X49738095Y13045181D01*
X49738095Y13045181D02*
X49976190Y13045181D01*
X49976190Y13045181D02*
X50071428Y12997562D01*
X50071428Y12997562D02*
X50119047Y12949943D01*
X50119047Y12949943D02*
X50166666Y12854705D01*
X50166666Y12854705D02*
X50166666Y12759467D01*
X50166666Y12759467D02*
X50119047Y12616610D01*
X50119047Y12616610D02*
X49547619Y12045181D01*
X49547619Y12045181D02*
X50166666Y12045181D01*
X29833333Y93045181D02*
X29357143Y93045181D01*
X29357143Y93045181D02*
X29357143Y94045181D01*
X30690476Y93045181D02*
X30119048Y93045181D01*
X30404762Y93045181D02*
X30404762Y94045181D01*
X30404762Y94045181D02*
X30309524Y93902324D01*
X30309524Y93902324D02*
X30214286Y93807086D01*
X30214286Y93807086D02*
X30119048Y93759467D01*
X3738095Y17545181D02*
X4309523Y17545181D01*
X4023809Y16545181D02*
X4023809Y17545181D01*
X4642857Y16545181D02*
X4642857Y17545181D01*
X4642857Y17545181D02*
X5023809Y17545181D01*
X5023809Y17545181D02*
X5119047Y17497562D01*
X5119047Y17497562D02*
X5166666Y17449943D01*
X5166666Y17449943D02*
X5214285Y17354705D01*
X5214285Y17354705D02*
X5214285Y17211848D01*
X5214285Y17211848D02*
X5166666Y17116610D01*
X5166666Y17116610D02*
X5119047Y17068991D01*
X5119047Y17068991D02*
X5023809Y17021372D01*
X5023809Y17021372D02*
X4642857Y17021372D01*
X6119047Y17545181D02*
X5642857Y17545181D01*
X5642857Y17545181D02*
X5595238Y17068991D01*
X5595238Y17068991D02*
X5642857Y17116610D01*
X5642857Y17116610D02*
X5738095Y17164229D01*
X5738095Y17164229D02*
X5976190Y17164229D01*
X5976190Y17164229D02*
X6071428Y17116610D01*
X6071428Y17116610D02*
X6119047Y17068991D01*
X6119047Y17068991D02*
X6166666Y16973753D01*
X6166666Y16973753D02*
X6166666Y16735658D01*
X6166666Y16735658D02*
X6119047Y16640420D01*
X6119047Y16640420D02*
X6071428Y16592800D01*
X6071428Y16592800D02*
X5976190Y16545181D01*
X5976190Y16545181D02*
X5738095Y16545181D01*
X5738095Y16545181D02*
X5642857Y16592800D01*
X5642857Y16592800D02*
X5595238Y16640420D01*
X42833333Y73640420D02*
X42785714Y73592800D01*
X42785714Y73592800D02*
X42642857Y73545181D01*
X42642857Y73545181D02*
X42547619Y73545181D01*
X42547619Y73545181D02*
X42404762Y73592800D01*
X42404762Y73592800D02*
X42309524Y73688039D01*
X42309524Y73688039D02*
X42261905Y73783277D01*
X42261905Y73783277D02*
X42214286Y73973753D01*
X42214286Y73973753D02*
X42214286Y74116610D01*
X42214286Y74116610D02*
X42261905Y74307086D01*
X42261905Y74307086D02*
X42309524Y74402324D01*
X42309524Y74402324D02*
X42404762Y74497562D01*
X42404762Y74497562D02*
X42547619Y74545181D01*
X42547619Y74545181D02*
X42642857Y74545181D01*
X42642857Y74545181D02*
X42785714Y74497562D01*
X42785714Y74497562D02*
X42833333Y74449943D01*
X43166667Y74545181D02*
X43833333Y74545181D01*
X43833333Y74545181D02*
X43404762Y73545181D01*
X78238095Y78545181D02*
X78238095Y77735658D01*
X78238095Y77735658D02*
X78285714Y77640420D01*
X78285714Y77640420D02*
X78333333Y77592800D01*
X78333333Y77592800D02*
X78428571Y77545181D01*
X78428571Y77545181D02*
X78619047Y77545181D01*
X78619047Y77545181D02*
X78714285Y77592800D01*
X78714285Y77592800D02*
X78761904Y77640420D01*
X78761904Y77640420D02*
X78809523Y77735658D01*
X78809523Y77735658D02*
X78809523Y78545181D01*
X79714285Y78545181D02*
X79523809Y78545181D01*
X79523809Y78545181D02*
X79428571Y78497562D01*
X79428571Y78497562D02*
X79380952Y78449943D01*
X79380952Y78449943D02*
X79285714Y78307086D01*
X79285714Y78307086D02*
X79238095Y78116610D01*
X79238095Y78116610D02*
X79238095Y77735658D01*
X79238095Y77735658D02*
X79285714Y77640420D01*
X79285714Y77640420D02*
X79333333Y77592800D01*
X79333333Y77592800D02*
X79428571Y77545181D01*
X79428571Y77545181D02*
X79619047Y77545181D01*
X79619047Y77545181D02*
X79714285Y77592800D01*
X79714285Y77592800D02*
X79761904Y77640420D01*
X79761904Y77640420D02*
X79809523Y77735658D01*
X79809523Y77735658D02*
X79809523Y77973753D01*
X79809523Y77973753D02*
X79761904Y78068991D01*
X79761904Y78068991D02*
X79714285Y78116610D01*
X79714285Y78116610D02*
X79619047Y78164229D01*
X79619047Y78164229D02*
X79428571Y78164229D01*
X79428571Y78164229D02*
X79333333Y78116610D01*
X79333333Y78116610D02*
X79285714Y78068991D01*
X79285714Y78068991D02*
X79238095Y77973753D01*
X32933333Y76340420D02*
X32885714Y76292800D01*
X32885714Y76292800D02*
X32742857Y76245181D01*
X32742857Y76245181D02*
X32647619Y76245181D01*
X32647619Y76245181D02*
X32504762Y76292800D01*
X32504762Y76292800D02*
X32409524Y76388039D01*
X32409524Y76388039D02*
X32361905Y76483277D01*
X32361905Y76483277D02*
X32314286Y76673753D01*
X32314286Y76673753D02*
X32314286Y76816610D01*
X32314286Y76816610D02*
X32361905Y77007086D01*
X32361905Y77007086D02*
X32409524Y77102324D01*
X32409524Y77102324D02*
X32504762Y77197562D01*
X32504762Y77197562D02*
X32647619Y77245181D01*
X32647619Y77245181D02*
X32742857Y77245181D01*
X32742857Y77245181D02*
X32885714Y77197562D01*
X32885714Y77197562D02*
X32933333Y77149943D01*
X33266667Y77245181D02*
X33885714Y77245181D01*
X33885714Y77245181D02*
X33552381Y76864229D01*
X33552381Y76864229D02*
X33695238Y76864229D01*
X33695238Y76864229D02*
X33790476Y76816610D01*
X33790476Y76816610D02*
X33838095Y76768991D01*
X33838095Y76768991D02*
X33885714Y76673753D01*
X33885714Y76673753D02*
X33885714Y76435658D01*
X33885714Y76435658D02*
X33838095Y76340420D01*
X33838095Y76340420D02*
X33790476Y76292800D01*
X33790476Y76292800D02*
X33695238Y76245181D01*
X33695238Y76245181D02*
X33409524Y76245181D01*
X33409524Y76245181D02*
X33314286Y76292800D01*
X33314286Y76292800D02*
X33266667Y76340420D01*
X37357142Y21045181D02*
X37023809Y21521372D01*
X36785714Y21045181D02*
X36785714Y22045181D01*
X36785714Y22045181D02*
X37166666Y22045181D01*
X37166666Y22045181D02*
X37261904Y21997562D01*
X37261904Y21997562D02*
X37309523Y21949943D01*
X37309523Y21949943D02*
X37357142Y21854705D01*
X37357142Y21854705D02*
X37357142Y21711848D01*
X37357142Y21711848D02*
X37309523Y21616610D01*
X37309523Y21616610D02*
X37261904Y21568991D01*
X37261904Y21568991D02*
X37166666Y21521372D01*
X37166666Y21521372D02*
X36785714Y21521372D01*
X38309523Y21045181D02*
X37738095Y21045181D01*
X38023809Y21045181D02*
X38023809Y22045181D01*
X38023809Y22045181D02*
X37928571Y21902324D01*
X37928571Y21902324D02*
X37833333Y21807086D01*
X37833333Y21807086D02*
X37738095Y21759467D01*
X38928571Y22045181D02*
X39023809Y22045181D01*
X39023809Y22045181D02*
X39119047Y21997562D01*
X39119047Y21997562D02*
X39166666Y21949943D01*
X39166666Y21949943D02*
X39214285Y21854705D01*
X39214285Y21854705D02*
X39261904Y21664229D01*
X39261904Y21664229D02*
X39261904Y21426134D01*
X39261904Y21426134D02*
X39214285Y21235658D01*
X39214285Y21235658D02*
X39166666Y21140420D01*
X39166666Y21140420D02*
X39119047Y21092800D01*
X39119047Y21092800D02*
X39023809Y21045181D01*
X39023809Y21045181D02*
X38928571Y21045181D01*
X38928571Y21045181D02*
X38833333Y21092800D01*
X38833333Y21092800D02*
X38785714Y21140420D01*
X38785714Y21140420D02*
X38738095Y21235658D01*
X38738095Y21235658D02*
X38690476Y21426134D01*
X38690476Y21426134D02*
X38690476Y21664229D01*
X38690476Y21664229D02*
X38738095Y21854705D01*
X38738095Y21854705D02*
X38785714Y21949943D01*
X38785714Y21949943D02*
X38833333Y21997562D01*
X38833333Y21997562D02*
X38928571Y22045181D01*
X33333333Y82140420D02*
X33285714Y82092800D01*
X33285714Y82092800D02*
X33142857Y82045181D01*
X33142857Y82045181D02*
X33047619Y82045181D01*
X33047619Y82045181D02*
X32904762Y82092800D01*
X32904762Y82092800D02*
X32809524Y82188039D01*
X32809524Y82188039D02*
X32761905Y82283277D01*
X32761905Y82283277D02*
X32714286Y82473753D01*
X32714286Y82473753D02*
X32714286Y82616610D01*
X32714286Y82616610D02*
X32761905Y82807086D01*
X32761905Y82807086D02*
X32809524Y82902324D01*
X32809524Y82902324D02*
X32904762Y82997562D01*
X32904762Y82997562D02*
X33047619Y83045181D01*
X33047619Y83045181D02*
X33142857Y83045181D01*
X33142857Y83045181D02*
X33285714Y82997562D01*
X33285714Y82997562D02*
X33333333Y82949943D01*
X34190476Y82711848D02*
X34190476Y82045181D01*
X33952381Y83092800D02*
X33714286Y82378515D01*
X33714286Y82378515D02*
X34333333Y82378515D01*
X17261905Y18545181D02*
X17261905Y19545181D01*
X17261905Y19545181D02*
X17500000Y19545181D01*
X17500000Y19545181D02*
X17642857Y19497562D01*
X17642857Y19497562D02*
X17738095Y19402324D01*
X17738095Y19402324D02*
X17785714Y19307086D01*
X17785714Y19307086D02*
X17833333Y19116610D01*
X17833333Y19116610D02*
X17833333Y18973753D01*
X17833333Y18973753D02*
X17785714Y18783277D01*
X17785714Y18783277D02*
X17738095Y18688039D01*
X17738095Y18688039D02*
X17642857Y18592800D01*
X17642857Y18592800D02*
X17500000Y18545181D01*
X17500000Y18545181D02*
X17261905Y18545181D01*
X18690476Y19211848D02*
X18690476Y18545181D01*
X18452381Y19592800D02*
X18214286Y18878515D01*
X18214286Y18878515D02*
X18833333Y18878515D01*
X79357142Y48045181D02*
X79023809Y48521372D01*
X78785714Y48045181D02*
X78785714Y49045181D01*
X78785714Y49045181D02*
X79166666Y49045181D01*
X79166666Y49045181D02*
X79261904Y48997562D01*
X79261904Y48997562D02*
X79309523Y48949943D01*
X79309523Y48949943D02*
X79357142Y48854705D01*
X79357142Y48854705D02*
X79357142Y48711848D01*
X79357142Y48711848D02*
X79309523Y48616610D01*
X79309523Y48616610D02*
X79261904Y48568991D01*
X79261904Y48568991D02*
X79166666Y48521372D01*
X79166666Y48521372D02*
X78785714Y48521372D01*
X79738095Y48949943D02*
X79785714Y48997562D01*
X79785714Y48997562D02*
X79880952Y49045181D01*
X79880952Y49045181D02*
X80119047Y49045181D01*
X80119047Y49045181D02*
X80214285Y48997562D01*
X80214285Y48997562D02*
X80261904Y48949943D01*
X80261904Y48949943D02*
X80309523Y48854705D01*
X80309523Y48854705D02*
X80309523Y48759467D01*
X80309523Y48759467D02*
X80261904Y48616610D01*
X80261904Y48616610D02*
X79690476Y48045181D01*
X79690476Y48045181D02*
X80309523Y48045181D01*
X80928571Y49045181D02*
X81023809Y49045181D01*
X81023809Y49045181D02*
X81119047Y48997562D01*
X81119047Y48997562D02*
X81166666Y48949943D01*
X81166666Y48949943D02*
X81214285Y48854705D01*
X81214285Y48854705D02*
X81261904Y48664229D01*
X81261904Y48664229D02*
X81261904Y48426134D01*
X81261904Y48426134D02*
X81214285Y48235658D01*
X81214285Y48235658D02*
X81166666Y48140420D01*
X81166666Y48140420D02*
X81119047Y48092800D01*
X81119047Y48092800D02*
X81023809Y48045181D01*
X81023809Y48045181D02*
X80928571Y48045181D01*
X80928571Y48045181D02*
X80833333Y48092800D01*
X80833333Y48092800D02*
X80785714Y48140420D01*
X80785714Y48140420D02*
X80738095Y48235658D01*
X80738095Y48235658D02*
X80690476Y48426134D01*
X80690476Y48426134D02*
X80690476Y48664229D01*
X80690476Y48664229D02*
X80738095Y48854705D01*
X80738095Y48854705D02*
X80785714Y48949943D01*
X80785714Y48949943D02*
X80833333Y48997562D01*
X80833333Y48997562D02*
X80928571Y49045181D01*
X10357142Y77645181D02*
X10023809Y78121372D01*
X9785714Y77645181D02*
X9785714Y78645181D01*
X9785714Y78645181D02*
X10166666Y78645181D01*
X10166666Y78645181D02*
X10261904Y78597562D01*
X10261904Y78597562D02*
X10309523Y78549943D01*
X10309523Y78549943D02*
X10357142Y78454705D01*
X10357142Y78454705D02*
X10357142Y78311848D01*
X10357142Y78311848D02*
X10309523Y78216610D01*
X10309523Y78216610D02*
X10261904Y78168991D01*
X10261904Y78168991D02*
X10166666Y78121372D01*
X10166666Y78121372D02*
X9785714Y78121372D01*
X10738095Y78549943D02*
X10785714Y78597562D01*
X10785714Y78597562D02*
X10880952Y78645181D01*
X10880952Y78645181D02*
X11119047Y78645181D01*
X11119047Y78645181D02*
X11214285Y78597562D01*
X11214285Y78597562D02*
X11261904Y78549943D01*
X11261904Y78549943D02*
X11309523Y78454705D01*
X11309523Y78454705D02*
X11309523Y78359467D01*
X11309523Y78359467D02*
X11261904Y78216610D01*
X11261904Y78216610D02*
X10690476Y77645181D01*
X10690476Y77645181D02*
X11309523Y77645181D01*
X12261904Y77645181D02*
X11690476Y77645181D01*
X11976190Y77645181D02*
X11976190Y78645181D01*
X11976190Y78645181D02*
X11880952Y78502324D01*
X11880952Y78502324D02*
X11785714Y78407086D01*
X11785714Y78407086D02*
X11690476Y78359467D01*
X64261905Y55045181D02*
X64261905Y56045181D01*
X64261905Y56045181D02*
X64500000Y56045181D01*
X64500000Y56045181D02*
X64642857Y55997562D01*
X64642857Y55997562D02*
X64738095Y55902324D01*
X64738095Y55902324D02*
X64785714Y55807086D01*
X64785714Y55807086D02*
X64833333Y55616610D01*
X64833333Y55616610D02*
X64833333Y55473753D01*
X64833333Y55473753D02*
X64785714Y55283277D01*
X64785714Y55283277D02*
X64738095Y55188039D01*
X64738095Y55188039D02*
X64642857Y55092800D01*
X64642857Y55092800D02*
X64500000Y55045181D01*
X64500000Y55045181D02*
X64261905Y55045181D01*
X65690476Y56045181D02*
X65500000Y56045181D01*
X65500000Y56045181D02*
X65404762Y55997562D01*
X65404762Y55997562D02*
X65357143Y55949943D01*
X65357143Y55949943D02*
X65261905Y55807086D01*
X65261905Y55807086D02*
X65214286Y55616610D01*
X65214286Y55616610D02*
X65214286Y55235658D01*
X65214286Y55235658D02*
X65261905Y55140420D01*
X65261905Y55140420D02*
X65309524Y55092800D01*
X65309524Y55092800D02*
X65404762Y55045181D01*
X65404762Y55045181D02*
X65595238Y55045181D01*
X65595238Y55045181D02*
X65690476Y55092800D01*
X65690476Y55092800D02*
X65738095Y55140420D01*
X65738095Y55140420D02*
X65785714Y55235658D01*
X65785714Y55235658D02*
X65785714Y55473753D01*
X65785714Y55473753D02*
X65738095Y55568991D01*
X65738095Y55568991D02*
X65690476Y55616610D01*
X65690476Y55616610D02*
X65595238Y55664229D01*
X65595238Y55664229D02*
X65404762Y55664229D01*
X65404762Y55664229D02*
X65309524Y55616610D01*
X65309524Y55616610D02*
X65261905Y55568991D01*
X65261905Y55568991D02*
X65214286Y55473753D01*
X16833333Y73545181D02*
X16500000Y74021372D01*
X16261905Y73545181D02*
X16261905Y74545181D01*
X16261905Y74545181D02*
X16642857Y74545181D01*
X16642857Y74545181D02*
X16738095Y74497562D01*
X16738095Y74497562D02*
X16785714Y74449943D01*
X16785714Y74449943D02*
X16833333Y74354705D01*
X16833333Y74354705D02*
X16833333Y74211848D01*
X16833333Y74211848D02*
X16785714Y74116610D01*
X16785714Y74116610D02*
X16738095Y74068991D01*
X16738095Y74068991D02*
X16642857Y74021372D01*
X16642857Y74021372D02*
X16261905Y74021372D01*
X17785714Y73545181D02*
X17214286Y73545181D01*
X17500000Y73545181D02*
X17500000Y74545181D01*
X17500000Y74545181D02*
X17404762Y74402324D01*
X17404762Y74402324D02*
X17309524Y74307086D01*
X17309524Y74307086D02*
X17214286Y74259467D01*
X52738095Y36045181D02*
X53309523Y36045181D01*
X53023809Y35045181D02*
X53023809Y36045181D01*
X53642857Y35045181D02*
X53642857Y36045181D01*
X53642857Y36045181D02*
X54023809Y36045181D01*
X54023809Y36045181D02*
X54119047Y35997562D01*
X54119047Y35997562D02*
X54166666Y35949943D01*
X54166666Y35949943D02*
X54214285Y35854705D01*
X54214285Y35854705D02*
X54214285Y35711848D01*
X54214285Y35711848D02*
X54166666Y35616610D01*
X54166666Y35616610D02*
X54119047Y35568991D01*
X54119047Y35568991D02*
X54023809Y35521372D01*
X54023809Y35521372D02*
X53642857Y35521372D01*
X54547619Y36045181D02*
X55214285Y36045181D01*
X55214285Y36045181D02*
X54785714Y35045181D01*
X23238095Y85545181D02*
X23238095Y84735658D01*
X23238095Y84735658D02*
X23285714Y84640420D01*
X23285714Y84640420D02*
X23333333Y84592800D01*
X23333333Y84592800D02*
X23428571Y84545181D01*
X23428571Y84545181D02*
X23619047Y84545181D01*
X23619047Y84545181D02*
X23714285Y84592800D01*
X23714285Y84592800D02*
X23761904Y84640420D01*
X23761904Y84640420D02*
X23809523Y84735658D01*
X23809523Y84735658D02*
X23809523Y85545181D01*
X24809523Y84545181D02*
X24238095Y84545181D01*
X24523809Y84545181D02*
X24523809Y85545181D01*
X24523809Y85545181D02*
X24428571Y85402324D01*
X24428571Y85402324D02*
X24333333Y85307086D01*
X24333333Y85307086D02*
X24238095Y85259467D01*
X90357142Y57045181D02*
X90023809Y57521372D01*
X89785714Y57045181D02*
X89785714Y58045181D01*
X89785714Y58045181D02*
X90166666Y58045181D01*
X90166666Y58045181D02*
X90261904Y57997562D01*
X90261904Y57997562D02*
X90309523Y57949943D01*
X90309523Y57949943D02*
X90357142Y57854705D01*
X90357142Y57854705D02*
X90357142Y57711848D01*
X90357142Y57711848D02*
X90309523Y57616610D01*
X90309523Y57616610D02*
X90261904Y57568991D01*
X90261904Y57568991D02*
X90166666Y57521372D01*
X90166666Y57521372D02*
X89785714Y57521372D01*
X91309523Y57045181D02*
X90738095Y57045181D01*
X91023809Y57045181D02*
X91023809Y58045181D01*
X91023809Y58045181D02*
X90928571Y57902324D01*
X90928571Y57902324D02*
X90833333Y57807086D01*
X90833333Y57807086D02*
X90738095Y57759467D01*
X91880952Y57616610D02*
X91785714Y57664229D01*
X91785714Y57664229D02*
X91738095Y57711848D01*
X91738095Y57711848D02*
X91690476Y57807086D01*
X91690476Y57807086D02*
X91690476Y57854705D01*
X91690476Y57854705D02*
X91738095Y57949943D01*
X91738095Y57949943D02*
X91785714Y57997562D01*
X91785714Y57997562D02*
X91880952Y58045181D01*
X91880952Y58045181D02*
X92071428Y58045181D01*
X92071428Y58045181D02*
X92166666Y57997562D01*
X92166666Y57997562D02*
X92214285Y57949943D01*
X92214285Y57949943D02*
X92261904Y57854705D01*
X92261904Y57854705D02*
X92261904Y57807086D01*
X92261904Y57807086D02*
X92214285Y57711848D01*
X92214285Y57711848D02*
X92166666Y57664229D01*
X92166666Y57664229D02*
X92071428Y57616610D01*
X92071428Y57616610D02*
X91880952Y57616610D01*
X91880952Y57616610D02*
X91785714Y57568991D01*
X91785714Y57568991D02*
X91738095Y57521372D01*
X91738095Y57521372D02*
X91690476Y57426134D01*
X91690476Y57426134D02*
X91690476Y57235658D01*
X91690476Y57235658D02*
X91738095Y57140420D01*
X91738095Y57140420D02*
X91785714Y57092800D01*
X91785714Y57092800D02*
X91880952Y57045181D01*
X91880952Y57045181D02*
X92071428Y57045181D01*
X92071428Y57045181D02*
X92166666Y57092800D01*
X92166666Y57092800D02*
X92214285Y57140420D01*
X92214285Y57140420D02*
X92261904Y57235658D01*
X92261904Y57235658D02*
X92261904Y57426134D01*
X92261904Y57426134D02*
X92214285Y57521372D01*
X92214285Y57521372D02*
X92166666Y57568991D01*
X92166666Y57568991D02*
X92071428Y57616610D01*
X52833333Y55045181D02*
X52500000Y55521372D01*
X52261905Y55045181D02*
X52261905Y56045181D01*
X52261905Y56045181D02*
X52642857Y56045181D01*
X52642857Y56045181D02*
X52738095Y55997562D01*
X52738095Y55997562D02*
X52785714Y55949943D01*
X52785714Y55949943D02*
X52833333Y55854705D01*
X52833333Y55854705D02*
X52833333Y55711848D01*
X52833333Y55711848D02*
X52785714Y55616610D01*
X52785714Y55616610D02*
X52738095Y55568991D01*
X52738095Y55568991D02*
X52642857Y55521372D01*
X52642857Y55521372D02*
X52261905Y55521372D01*
X53309524Y55045181D02*
X53500000Y55045181D01*
X53500000Y55045181D02*
X53595238Y55092800D01*
X53595238Y55092800D02*
X53642857Y55140420D01*
X53642857Y55140420D02*
X53738095Y55283277D01*
X53738095Y55283277D02*
X53785714Y55473753D01*
X53785714Y55473753D02*
X53785714Y55854705D01*
X53785714Y55854705D02*
X53738095Y55949943D01*
X53738095Y55949943D02*
X53690476Y55997562D01*
X53690476Y55997562D02*
X53595238Y56045181D01*
X53595238Y56045181D02*
X53404762Y56045181D01*
X53404762Y56045181D02*
X53309524Y55997562D01*
X53309524Y55997562D02*
X53261905Y55949943D01*
X53261905Y55949943D02*
X53214286Y55854705D01*
X53214286Y55854705D02*
X53214286Y55616610D01*
X53214286Y55616610D02*
X53261905Y55521372D01*
X53261905Y55521372D02*
X53309524Y55473753D01*
X53309524Y55473753D02*
X53404762Y55426134D01*
X53404762Y55426134D02*
X53595238Y55426134D01*
X53595238Y55426134D02*
X53690476Y55473753D01*
X53690476Y55473753D02*
X53738095Y55521372D01*
X53738095Y55521372D02*
X53785714Y55616610D01*
X84357142Y80240420D02*
X84309523Y80192800D01*
X84309523Y80192800D02*
X84166666Y80145181D01*
X84166666Y80145181D02*
X84071428Y80145181D01*
X84071428Y80145181D02*
X83928571Y80192800D01*
X83928571Y80192800D02*
X83833333Y80288039D01*
X83833333Y80288039D02*
X83785714Y80383277D01*
X83785714Y80383277D02*
X83738095Y80573753D01*
X83738095Y80573753D02*
X83738095Y80716610D01*
X83738095Y80716610D02*
X83785714Y80907086D01*
X83785714Y80907086D02*
X83833333Y81002324D01*
X83833333Y81002324D02*
X83928571Y81097562D01*
X83928571Y81097562D02*
X84071428Y81145181D01*
X84071428Y81145181D02*
X84166666Y81145181D01*
X84166666Y81145181D02*
X84309523Y81097562D01*
X84309523Y81097562D02*
X84357142Y81049943D01*
X84738095Y81049943D02*
X84785714Y81097562D01*
X84785714Y81097562D02*
X84880952Y81145181D01*
X84880952Y81145181D02*
X85119047Y81145181D01*
X85119047Y81145181D02*
X85214285Y81097562D01*
X85214285Y81097562D02*
X85261904Y81049943D01*
X85261904Y81049943D02*
X85309523Y80954705D01*
X85309523Y80954705D02*
X85309523Y80859467D01*
X85309523Y80859467D02*
X85261904Y80716610D01*
X85261904Y80716610D02*
X84690476Y80145181D01*
X84690476Y80145181D02*
X85309523Y80145181D01*
X85928571Y81145181D02*
X86023809Y81145181D01*
X86023809Y81145181D02*
X86119047Y81097562D01*
X86119047Y81097562D02*
X86166666Y81049943D01*
X86166666Y81049943D02*
X86214285Y80954705D01*
X86214285Y80954705D02*
X86261904Y80764229D01*
X86261904Y80764229D02*
X86261904Y80526134D01*
X86261904Y80526134D02*
X86214285Y80335658D01*
X86214285Y80335658D02*
X86166666Y80240420D01*
X86166666Y80240420D02*
X86119047Y80192800D01*
X86119047Y80192800D02*
X86023809Y80145181D01*
X86023809Y80145181D02*
X85928571Y80145181D01*
X85928571Y80145181D02*
X85833333Y80192800D01*
X85833333Y80192800D02*
X85785714Y80240420D01*
X85785714Y80240420D02*
X85738095Y80335658D01*
X85738095Y80335658D02*
X85690476Y80526134D01*
X85690476Y80526134D02*
X85690476Y80764229D01*
X85690476Y80764229D02*
X85738095Y80954705D01*
X85738095Y80954705D02*
X85785714Y81049943D01*
X85785714Y81049943D02*
X85833333Y81097562D01*
X85833333Y81097562D02*
X85928571Y81145181D01*
X94833333Y75545181D02*
X94500000Y76021372D01*
X94261905Y75545181D02*
X94261905Y76545181D01*
X94261905Y76545181D02*
X94642857Y76545181D01*
X94642857Y76545181D02*
X94738095Y76497562D01*
X94738095Y76497562D02*
X94785714Y76449943D01*
X94785714Y76449943D02*
X94833333Y76354705D01*
X94833333Y76354705D02*
X94833333Y76211848D01*
X94833333Y76211848D02*
X94785714Y76116610D01*
X94785714Y76116610D02*
X94738095Y76068991D01*
X94738095Y76068991D02*
X94642857Y76021372D01*
X94642857Y76021372D02*
X94261905Y76021372D01*
X95404762Y76116610D02*
X95309524Y76164229D01*
X95309524Y76164229D02*
X95261905Y76211848D01*
X95261905Y76211848D02*
X95214286Y76307086D01*
X95214286Y76307086D02*
X95214286Y76354705D01*
X95214286Y76354705D02*
X95261905Y76449943D01*
X95261905Y76449943D02*
X95309524Y76497562D01*
X95309524Y76497562D02*
X95404762Y76545181D01*
X95404762Y76545181D02*
X95595238Y76545181D01*
X95595238Y76545181D02*
X95690476Y76497562D01*
X95690476Y76497562D02*
X95738095Y76449943D01*
X95738095Y76449943D02*
X95785714Y76354705D01*
X95785714Y76354705D02*
X95785714Y76307086D01*
X95785714Y76307086D02*
X95738095Y76211848D01*
X95738095Y76211848D02*
X95690476Y76164229D01*
X95690476Y76164229D02*
X95595238Y76116610D01*
X95595238Y76116610D02*
X95404762Y76116610D01*
X95404762Y76116610D02*
X95309524Y76068991D01*
X95309524Y76068991D02*
X95261905Y76021372D01*
X95261905Y76021372D02*
X95214286Y75926134D01*
X95214286Y75926134D02*
X95214286Y75735658D01*
X95214286Y75735658D02*
X95261905Y75640420D01*
X95261905Y75640420D02*
X95309524Y75592800D01*
X95309524Y75592800D02*
X95404762Y75545181D01*
X95404762Y75545181D02*
X95595238Y75545181D01*
X95595238Y75545181D02*
X95690476Y75592800D01*
X95690476Y75592800D02*
X95738095Y75640420D01*
X95738095Y75640420D02*
X95785714Y75735658D01*
X95785714Y75735658D02*
X95785714Y75926134D01*
X95785714Y75926134D02*
X95738095Y76021372D01*
X95738095Y76021372D02*
X95690476Y76068991D01*
X95690476Y76068991D02*
X95595238Y76116610D01*
X79548095Y13545181D02*
X79548095Y12735658D01*
X79548095Y12735658D02*
X79595714Y12640420D01*
X79595714Y12640420D02*
X79643333Y12592800D01*
X79643333Y12592800D02*
X79738571Y12545181D01*
X79738571Y12545181D02*
X79929047Y12545181D01*
X79929047Y12545181D02*
X80024285Y12592800D01*
X80024285Y12592800D02*
X80071904Y12640420D01*
X80071904Y12640420D02*
X80119523Y12735658D01*
X80119523Y12735658D02*
X80119523Y13545181D01*
X81024285Y13211848D02*
X81024285Y12545181D01*
X80786190Y13592800D02*
X80548095Y12878515D01*
X80548095Y12878515D02*
X81167142Y12878515D01*
X88333333Y64545181D02*
X88000000Y65021372D01*
X87761905Y64545181D02*
X87761905Y65545181D01*
X87761905Y65545181D02*
X88142857Y65545181D01*
X88142857Y65545181D02*
X88238095Y65497562D01*
X88238095Y65497562D02*
X88285714Y65449943D01*
X88285714Y65449943D02*
X88333333Y65354705D01*
X88333333Y65354705D02*
X88333333Y65211848D01*
X88333333Y65211848D02*
X88285714Y65116610D01*
X88285714Y65116610D02*
X88238095Y65068991D01*
X88238095Y65068991D02*
X88142857Y65021372D01*
X88142857Y65021372D02*
X87761905Y65021372D01*
X89190476Y65211848D02*
X89190476Y64545181D01*
X88952381Y65592800D02*
X88714286Y64878515D01*
X88714286Y64878515D02*
X89333333Y64878515D01*
X8357142Y62645181D02*
X8023809Y63121372D01*
X7785714Y62645181D02*
X7785714Y63645181D01*
X7785714Y63645181D02*
X8166666Y63645181D01*
X8166666Y63645181D02*
X8261904Y63597562D01*
X8261904Y63597562D02*
X8309523Y63549943D01*
X8309523Y63549943D02*
X8357142Y63454705D01*
X8357142Y63454705D02*
X8357142Y63311848D01*
X8357142Y63311848D02*
X8309523Y63216610D01*
X8309523Y63216610D02*
X8261904Y63168991D01*
X8261904Y63168991D02*
X8166666Y63121372D01*
X8166666Y63121372D02*
X7785714Y63121372D01*
X8738095Y63549943D02*
X8785714Y63597562D01*
X8785714Y63597562D02*
X8880952Y63645181D01*
X8880952Y63645181D02*
X9119047Y63645181D01*
X9119047Y63645181D02*
X9214285Y63597562D01*
X9214285Y63597562D02*
X9261904Y63549943D01*
X9261904Y63549943D02*
X9309523Y63454705D01*
X9309523Y63454705D02*
X9309523Y63359467D01*
X9309523Y63359467D02*
X9261904Y63216610D01*
X9261904Y63216610D02*
X8690476Y62645181D01*
X8690476Y62645181D02*
X9309523Y62645181D01*
X9690476Y63549943D02*
X9738095Y63597562D01*
X9738095Y63597562D02*
X9833333Y63645181D01*
X9833333Y63645181D02*
X10071428Y63645181D01*
X10071428Y63645181D02*
X10166666Y63597562D01*
X10166666Y63597562D02*
X10214285Y63549943D01*
X10214285Y63549943D02*
X10261904Y63454705D01*
X10261904Y63454705D02*
X10261904Y63359467D01*
X10261904Y63359467D02*
X10214285Y63216610D01*
X10214285Y63216610D02*
X9642857Y62645181D01*
X9642857Y62645181D02*
X10261904Y62645181D01*
X7738095Y28045181D02*
X8309523Y28045181D01*
X8023809Y27045181D02*
X8023809Y28045181D01*
X8642857Y27045181D02*
X8642857Y28045181D01*
X8642857Y28045181D02*
X9023809Y28045181D01*
X9023809Y28045181D02*
X9119047Y27997562D01*
X9119047Y27997562D02*
X9166666Y27949943D01*
X9166666Y27949943D02*
X9214285Y27854705D01*
X9214285Y27854705D02*
X9214285Y27711848D01*
X9214285Y27711848D02*
X9166666Y27616610D01*
X9166666Y27616610D02*
X9119047Y27568991D01*
X9119047Y27568991D02*
X9023809Y27521372D01*
X9023809Y27521372D02*
X8642857Y27521372D01*
X10071428Y28045181D02*
X9880952Y28045181D01*
X9880952Y28045181D02*
X9785714Y27997562D01*
X9785714Y27997562D02*
X9738095Y27949943D01*
X9738095Y27949943D02*
X9642857Y27807086D01*
X9642857Y27807086D02*
X9595238Y27616610D01*
X9595238Y27616610D02*
X9595238Y27235658D01*
X9595238Y27235658D02*
X9642857Y27140420D01*
X9642857Y27140420D02*
X9690476Y27092800D01*
X9690476Y27092800D02*
X9785714Y27045181D01*
X9785714Y27045181D02*
X9976190Y27045181D01*
X9976190Y27045181D02*
X10071428Y27092800D01*
X10071428Y27092800D02*
X10119047Y27140420D01*
X10119047Y27140420D02*
X10166666Y27235658D01*
X10166666Y27235658D02*
X10166666Y27473753D01*
X10166666Y27473753D02*
X10119047Y27568991D01*
X10119047Y27568991D02*
X10071428Y27616610D01*
X10071428Y27616610D02*
X9976190Y27664229D01*
X9976190Y27664229D02*
X9785714Y27664229D01*
X9785714Y27664229D02*
X9690476Y27616610D01*
X9690476Y27616610D02*
X9642857Y27568991D01*
X9642857Y27568991D02*
X9595238Y27473753D01*
X72666666Y11545181D02*
X72666666Y10830896D01*
X72666666Y10830896D02*
X72619047Y10688039D01*
X72619047Y10688039D02*
X72523809Y10592800D01*
X72523809Y10592800D02*
X72380952Y10545181D01*
X72380952Y10545181D02*
X72285714Y10545181D01*
X73047619Y11545181D02*
X73666666Y11545181D01*
X73666666Y11545181D02*
X73333333Y11164229D01*
X73333333Y11164229D02*
X73476190Y11164229D01*
X73476190Y11164229D02*
X73571428Y11116610D01*
X73571428Y11116610D02*
X73619047Y11068991D01*
X73619047Y11068991D02*
X73666666Y10973753D01*
X73666666Y10973753D02*
X73666666Y10735658D01*
X73666666Y10735658D02*
X73619047Y10640420D01*
X73619047Y10640420D02*
X73571428Y10592800D01*
X73571428Y10592800D02*
X73476190Y10545181D01*
X73476190Y10545181D02*
X73190476Y10545181D01*
X73190476Y10545181D02*
X73095238Y10592800D01*
X73095238Y10592800D02*
X73047619Y10640420D01*
X21738095Y30545181D02*
X21738095Y29735658D01*
X21738095Y29735658D02*
X21785714Y29640420D01*
X21785714Y29640420D02*
X21833333Y29592800D01*
X21833333Y29592800D02*
X21928571Y29545181D01*
X21928571Y29545181D02*
X22119047Y29545181D01*
X22119047Y29545181D02*
X22214285Y29592800D01*
X22214285Y29592800D02*
X22261904Y29640420D01*
X22261904Y29640420D02*
X22309523Y29735658D01*
X22309523Y29735658D02*
X22309523Y30545181D01*
X22690476Y30545181D02*
X23309523Y30545181D01*
X23309523Y30545181D02*
X22976190Y30164229D01*
X22976190Y30164229D02*
X23119047Y30164229D01*
X23119047Y30164229D02*
X23214285Y30116610D01*
X23214285Y30116610D02*
X23261904Y30068991D01*
X23261904Y30068991D02*
X23309523Y29973753D01*
X23309523Y29973753D02*
X23309523Y29735658D01*
X23309523Y29735658D02*
X23261904Y29640420D01*
X23261904Y29640420D02*
X23214285Y29592800D01*
X23214285Y29592800D02*
X23119047Y29545181D01*
X23119047Y29545181D02*
X22833333Y29545181D01*
X22833333Y29545181D02*
X22738095Y29592800D01*
X22738095Y29592800D02*
X22690476Y29640420D01*
X8357142Y55645181D02*
X8023809Y56121372D01*
X7785714Y55645181D02*
X7785714Y56645181D01*
X7785714Y56645181D02*
X8166666Y56645181D01*
X8166666Y56645181D02*
X8261904Y56597562D01*
X8261904Y56597562D02*
X8309523Y56549943D01*
X8309523Y56549943D02*
X8357142Y56454705D01*
X8357142Y56454705D02*
X8357142Y56311848D01*
X8357142Y56311848D02*
X8309523Y56216610D01*
X8309523Y56216610D02*
X8261904Y56168991D01*
X8261904Y56168991D02*
X8166666Y56121372D01*
X8166666Y56121372D02*
X7785714Y56121372D01*
X8738095Y56549943D02*
X8785714Y56597562D01*
X8785714Y56597562D02*
X8880952Y56645181D01*
X8880952Y56645181D02*
X9119047Y56645181D01*
X9119047Y56645181D02*
X9214285Y56597562D01*
X9214285Y56597562D02*
X9261904Y56549943D01*
X9261904Y56549943D02*
X9309523Y56454705D01*
X9309523Y56454705D02*
X9309523Y56359467D01*
X9309523Y56359467D02*
X9261904Y56216610D01*
X9261904Y56216610D02*
X8690476Y55645181D01*
X8690476Y55645181D02*
X9309523Y55645181D01*
X9642857Y56645181D02*
X10261904Y56645181D01*
X10261904Y56645181D02*
X9928571Y56264229D01*
X9928571Y56264229D02*
X10071428Y56264229D01*
X10071428Y56264229D02*
X10166666Y56216610D01*
X10166666Y56216610D02*
X10214285Y56168991D01*
X10214285Y56168991D02*
X10261904Y56073753D01*
X10261904Y56073753D02*
X10261904Y55835658D01*
X10261904Y55835658D02*
X10214285Y55740420D01*
X10214285Y55740420D02*
X10166666Y55692800D01*
X10166666Y55692800D02*
X10071428Y55645181D01*
X10071428Y55645181D02*
X9785714Y55645181D01*
X9785714Y55645181D02*
X9690476Y55692800D01*
X9690476Y55692800D02*
X9642857Y55740420D01*
X16238095Y60645181D02*
X16238095Y59835658D01*
X16238095Y59835658D02*
X16285714Y59740420D01*
X16285714Y59740420D02*
X16333333Y59692800D01*
X16333333Y59692800D02*
X16428571Y59645181D01*
X16428571Y59645181D02*
X16619047Y59645181D01*
X16619047Y59645181D02*
X16714285Y59692800D01*
X16714285Y59692800D02*
X16761904Y59740420D01*
X16761904Y59740420D02*
X16809523Y59835658D01*
X16809523Y59835658D02*
X16809523Y60645181D01*
X17761904Y60645181D02*
X17285714Y60645181D01*
X17285714Y60645181D02*
X17238095Y60168991D01*
X17238095Y60168991D02*
X17285714Y60216610D01*
X17285714Y60216610D02*
X17380952Y60264229D01*
X17380952Y60264229D02*
X17619047Y60264229D01*
X17619047Y60264229D02*
X17714285Y60216610D01*
X17714285Y60216610D02*
X17761904Y60168991D01*
X17761904Y60168991D02*
X17809523Y60073753D01*
X17809523Y60073753D02*
X17809523Y59835658D01*
X17809523Y59835658D02*
X17761904Y59740420D01*
X17761904Y59740420D02*
X17714285Y59692800D01*
X17714285Y59692800D02*
X17619047Y59645181D01*
X17619047Y59645181D02*
X17380952Y59645181D01*
X17380952Y59645181D02*
X17285714Y59692800D01*
X17285714Y59692800D02*
X17238095Y59740420D01*
X8833333Y81340420D02*
X8785714Y81292800D01*
X8785714Y81292800D02*
X8642857Y81245181D01*
X8642857Y81245181D02*
X8547619Y81245181D01*
X8547619Y81245181D02*
X8404762Y81292800D01*
X8404762Y81292800D02*
X8309524Y81388039D01*
X8309524Y81388039D02*
X8261905Y81483277D01*
X8261905Y81483277D02*
X8214286Y81673753D01*
X8214286Y81673753D02*
X8214286Y81816610D01*
X8214286Y81816610D02*
X8261905Y82007086D01*
X8261905Y82007086D02*
X8309524Y82102324D01*
X8309524Y82102324D02*
X8404762Y82197562D01*
X8404762Y82197562D02*
X8547619Y82245181D01*
X8547619Y82245181D02*
X8642857Y82245181D01*
X8642857Y82245181D02*
X8785714Y82197562D01*
X8785714Y82197562D02*
X8833333Y82149943D01*
X9785714Y81245181D02*
X9214286Y81245181D01*
X9500000Y81245181D02*
X9500000Y82245181D01*
X9500000Y82245181D02*
X9404762Y82102324D01*
X9404762Y82102324D02*
X9309524Y82007086D01*
X9309524Y82007086D02*
X9214286Y81959467D01*
X27738095Y51045181D02*
X28309523Y51045181D01*
X28023809Y50045181D02*
X28023809Y51045181D01*
X28642857Y50045181D02*
X28642857Y51045181D01*
X28642857Y51045181D02*
X29023809Y51045181D01*
X29023809Y51045181D02*
X29119047Y50997562D01*
X29119047Y50997562D02*
X29166666Y50949943D01*
X29166666Y50949943D02*
X29214285Y50854705D01*
X29214285Y50854705D02*
X29214285Y50711848D01*
X29214285Y50711848D02*
X29166666Y50616610D01*
X29166666Y50616610D02*
X29119047Y50568991D01*
X29119047Y50568991D02*
X29023809Y50521372D01*
X29023809Y50521372D02*
X28642857Y50521372D01*
X29547619Y51045181D02*
X30166666Y51045181D01*
X30166666Y51045181D02*
X29833333Y50664229D01*
X29833333Y50664229D02*
X29976190Y50664229D01*
X29976190Y50664229D02*
X30071428Y50616610D01*
X30071428Y50616610D02*
X30119047Y50568991D01*
X30119047Y50568991D02*
X30166666Y50473753D01*
X30166666Y50473753D02*
X30166666Y50235658D01*
X30166666Y50235658D02*
X30119047Y50140420D01*
X30119047Y50140420D02*
X30071428Y50092800D01*
X30071428Y50092800D02*
X29976190Y50045181D01*
X29976190Y50045181D02*
X29690476Y50045181D01*
X29690476Y50045181D02*
X29595238Y50092800D01*
X29595238Y50092800D02*
X29547619Y50140420D01*
X73357142Y70645181D02*
X73023809Y71121372D01*
X72785714Y70645181D02*
X72785714Y71645181D01*
X72785714Y71645181D02*
X73166666Y71645181D01*
X73166666Y71645181D02*
X73261904Y71597562D01*
X73261904Y71597562D02*
X73309523Y71549943D01*
X73309523Y71549943D02*
X73357142Y71454705D01*
X73357142Y71454705D02*
X73357142Y71311848D01*
X73357142Y71311848D02*
X73309523Y71216610D01*
X73309523Y71216610D02*
X73261904Y71168991D01*
X73261904Y71168991D02*
X73166666Y71121372D01*
X73166666Y71121372D02*
X72785714Y71121372D01*
X73738095Y71549943D02*
X73785714Y71597562D01*
X73785714Y71597562D02*
X73880952Y71645181D01*
X73880952Y71645181D02*
X74119047Y71645181D01*
X74119047Y71645181D02*
X74214285Y71597562D01*
X74214285Y71597562D02*
X74261904Y71549943D01*
X74261904Y71549943D02*
X74309523Y71454705D01*
X74309523Y71454705D02*
X74309523Y71359467D01*
X74309523Y71359467D02*
X74261904Y71216610D01*
X74261904Y71216610D02*
X73690476Y70645181D01*
X73690476Y70645181D02*
X74309523Y70645181D01*
X75166666Y71645181D02*
X74976190Y71645181D01*
X74976190Y71645181D02*
X74880952Y71597562D01*
X74880952Y71597562D02*
X74833333Y71549943D01*
X74833333Y71549943D02*
X74738095Y71407086D01*
X74738095Y71407086D02*
X74690476Y71216610D01*
X74690476Y71216610D02*
X74690476Y70835658D01*
X74690476Y70835658D02*
X74738095Y70740420D01*
X74738095Y70740420D02*
X74785714Y70692800D01*
X74785714Y70692800D02*
X74880952Y70645181D01*
X74880952Y70645181D02*
X75071428Y70645181D01*
X75071428Y70645181D02*
X75166666Y70692800D01*
X75166666Y70692800D02*
X75214285Y70740420D01*
X75214285Y70740420D02*
X75261904Y70835658D01*
X75261904Y70835658D02*
X75261904Y71073753D01*
X75261904Y71073753D02*
X75214285Y71168991D01*
X75214285Y71168991D02*
X75166666Y71216610D01*
X75166666Y71216610D02*
X75071428Y71264229D01*
X75071428Y71264229D02*
X74880952Y71264229D01*
X74880952Y71264229D02*
X74785714Y71216610D01*
X74785714Y71216610D02*
X74738095Y71168991D01*
X74738095Y71168991D02*
X74690476Y71073753D01*
X53833333Y92140420D02*
X53785714Y92092800D01*
X53785714Y92092800D02*
X53642857Y92045181D01*
X53642857Y92045181D02*
X53547619Y92045181D01*
X53547619Y92045181D02*
X53404762Y92092800D01*
X53404762Y92092800D02*
X53309524Y92188039D01*
X53309524Y92188039D02*
X53261905Y92283277D01*
X53261905Y92283277D02*
X53214286Y92473753D01*
X53214286Y92473753D02*
X53214286Y92616610D01*
X53214286Y92616610D02*
X53261905Y92807086D01*
X53261905Y92807086D02*
X53309524Y92902324D01*
X53309524Y92902324D02*
X53404762Y92997562D01*
X53404762Y92997562D02*
X53547619Y93045181D01*
X53547619Y93045181D02*
X53642857Y93045181D01*
X53642857Y93045181D02*
X53785714Y92997562D01*
X53785714Y92997562D02*
X53833333Y92949943D01*
X54309524Y92045181D02*
X54500000Y92045181D01*
X54500000Y92045181D02*
X54595238Y92092800D01*
X54595238Y92092800D02*
X54642857Y92140420D01*
X54642857Y92140420D02*
X54738095Y92283277D01*
X54738095Y92283277D02*
X54785714Y92473753D01*
X54785714Y92473753D02*
X54785714Y92854705D01*
X54785714Y92854705D02*
X54738095Y92949943D01*
X54738095Y92949943D02*
X54690476Y92997562D01*
X54690476Y92997562D02*
X54595238Y93045181D01*
X54595238Y93045181D02*
X54404762Y93045181D01*
X54404762Y93045181D02*
X54309524Y92997562D01*
X54309524Y92997562D02*
X54261905Y92949943D01*
X54261905Y92949943D02*
X54214286Y92854705D01*
X54214286Y92854705D02*
X54214286Y92616610D01*
X54214286Y92616610D02*
X54261905Y92521372D01*
X54261905Y92521372D02*
X54309524Y92473753D01*
X54309524Y92473753D02*
X54404762Y92426134D01*
X54404762Y92426134D02*
X54595238Y92426134D01*
X54595238Y92426134D02*
X54690476Y92473753D01*
X54690476Y92473753D02*
X54738095Y92521372D01*
X54738095Y92521372D02*
X54785714Y92616610D01*
%TO.C,R25*%
X24090000Y65272936D02*
X24090000Y66727064D01*
X25910000Y65272936D02*
X25910000Y66727064D01*
%TO.C,R19*%
X91727064Y46910000D02*
X90272936Y46910000D01*
X91727064Y45090000D02*
X90272936Y45090000D01*
%TO.C,SW2*%
X77750000Y33500000D02*
X77750000Y32000000D01*
X79000000Y29500000D02*
X83500000Y29500000D01*
X83500000Y36000000D02*
X79000000Y36000000D01*
X84750000Y32000000D02*
X84750000Y33500000D01*
%TO.C,U2*%
X63890000Y99510000D02*
X63890000Y98710000D01*
X63890000Y99510000D02*
X82110000Y99510000D01*
X63890000Y85290000D02*
X63890000Y84990000D01*
X63890000Y84990000D02*
X82110000Y84990000D01*
X82110000Y99510000D02*
X82110000Y98710000D01*
X82110000Y85290000D02*
X82110000Y84990000D01*
X63600000Y98700000D02*
X63100000Y98700000D01*
X63600000Y99200000D01*
X63600000Y98700000D01*
G36*
X63600000Y98700000D02*
G01*
X63100000Y98700000D01*
X63600000Y99200000D01*
X63600000Y98700000D01*
G37*
%TO.C,C5*%
X42288748Y90360000D02*
X43711252Y90360000D01*
X42288748Y87640000D02*
X43711252Y87640000D01*
%TO.C,TP4*%
X38800000Y58000000D02*
G75*
G02*
X35200000Y58000000I-1800000J0D01*
G01*
X35200000Y58000000D02*
G75*
G02*
X38800000Y58000000I1800000J0D01*
G01*
%TO.C,R5*%
X57272936Y63910000D02*
X58727064Y63910000D01*
X57272936Y62090000D02*
X58727064Y62090000D01*
%TO.C,C16*%
X16288748Y64910000D02*
X17711252Y64910000D01*
X16288748Y63090000D02*
X17711252Y63090000D01*
%TO.C,J1*%
X6055000Y10860000D02*
X37025000Y10860000D01*
X6055000Y300000D02*
X6055000Y10860000D01*
X15750000Y11754338D02*
X16250000Y11754338D01*
X16000000Y11321325D02*
X15750000Y11754338D01*
X16250000Y11754338D02*
X16000000Y11321325D01*
X37025000Y10860000D02*
X37025000Y300000D01*
%TO.C,C10*%
X61211252Y97910000D02*
X59788748Y97910000D01*
X61211252Y96090000D02*
X59788748Y96090000D01*
%TO.C,C15*%
X8749759Y69839000D02*
X9379759Y69839000D01*
X9064759Y70154000D02*
X9064759Y69524000D01*
X12250000Y71230000D02*
X12250000Y64770000D01*
X12290000Y71230000D02*
X12290000Y64770000D01*
X12330000Y71229000D02*
X12330000Y64771000D01*
X12370000Y71228000D02*
X12370000Y64772000D01*
X12410000Y71226000D02*
X12410000Y64774000D01*
X12450000Y71224000D02*
X12450000Y64776000D01*
X12490000Y71221000D02*
X12490000Y69040000D01*
X12490000Y66960000D02*
X12490000Y64779000D01*
X12530000Y71218000D02*
X12530000Y69040000D01*
X12530000Y66960000D02*
X12530000Y64782000D01*
X12570000Y71214000D02*
X12570000Y69040000D01*
X12570000Y66960000D02*
X12570000Y64786000D01*
X12610000Y71210000D02*
X12610000Y69040000D01*
X12610000Y66960000D02*
X12610000Y64790000D01*
X12650000Y71205000D02*
X12650000Y69040000D01*
X12650000Y66960000D02*
X12650000Y64795000D01*
X12690000Y71200000D02*
X12690000Y69040000D01*
X12690000Y66960000D02*
X12690000Y64800000D01*
X12730000Y71195000D02*
X12730000Y69040000D01*
X12730000Y66960000D02*
X12730000Y64805000D01*
X12770000Y71188000D02*
X12770000Y69040000D01*
X12770000Y66960000D02*
X12770000Y64812000D01*
X12810000Y71182000D02*
X12810000Y69040000D01*
X12810000Y66960000D02*
X12810000Y64818000D01*
X12850000Y71174000D02*
X12850000Y69040000D01*
X12850000Y66960000D02*
X12850000Y64826000D01*
X12890000Y71167000D02*
X12890000Y69040000D01*
X12890000Y66960000D02*
X12890000Y64833000D01*
X12930000Y71159000D02*
X12930000Y69040000D01*
X12930000Y66960000D02*
X12930000Y64841000D01*
X12970000Y71150000D02*
X12970000Y69040000D01*
X12970000Y66960000D02*
X12970000Y64850000D01*
X13010000Y71140000D02*
X13010000Y69040000D01*
X13010000Y66960000D02*
X13010000Y64860000D01*
X13050000Y71131000D02*
X13050000Y69040000D01*
X13050000Y66960000D02*
X13050000Y64869000D01*
X13090000Y71120000D02*
X13090000Y69040000D01*
X13090000Y66960000D02*
X13090000Y64880000D01*
X13130000Y71109000D02*
X13130000Y69040000D01*
X13130000Y66960000D02*
X13130000Y64891000D01*
X13170000Y71098000D02*
X13170000Y69040000D01*
X13170000Y66960000D02*
X13170000Y64902000D01*
X13210000Y71086000D02*
X13210000Y69040000D01*
X13210000Y66960000D02*
X13210000Y64914000D01*
X13250000Y71073000D02*
X13250000Y69040000D01*
X13250000Y66960000D02*
X13250000Y64927000D01*
X13290000Y71060000D02*
X13290000Y69040000D01*
X13290000Y66960000D02*
X13290000Y64940000D01*
X13330000Y71047000D02*
X13330000Y69040000D01*
X13330000Y66960000D02*
X13330000Y64953000D01*
X13370000Y71032000D02*
X13370000Y69040000D01*
X13370000Y66960000D02*
X13370000Y64968000D01*
X13410000Y71017000D02*
X13410000Y69040000D01*
X13410000Y66960000D02*
X13410000Y64983000D01*
X13450000Y71002000D02*
X13450000Y69040000D01*
X13450000Y66960000D02*
X13450000Y64998000D01*
X13490000Y70986000D02*
X13490000Y69040000D01*
X13490000Y66960000D02*
X13490000Y65014000D01*
X13530000Y70969000D02*
X13530000Y69040000D01*
X13530000Y66960000D02*
X13530000Y65031000D01*
X13570000Y70952000D02*
X13570000Y69040000D01*
X13570000Y66960000D02*
X13570000Y65048000D01*
X13610000Y70934000D02*
X13610000Y69040000D01*
X13610000Y66960000D02*
X13610000Y65066000D01*
X13650000Y70915000D02*
X13650000Y69040000D01*
X13650000Y66960000D02*
X13650000Y65085000D01*
X13690000Y70896000D02*
X13690000Y69040000D01*
X13690000Y66960000D02*
X13690000Y65104000D01*
X13730000Y70876000D02*
X13730000Y69040000D01*
X13730000Y66960000D02*
X13730000Y65124000D01*
X13770000Y70855000D02*
X13770000Y69040000D01*
X13770000Y66960000D02*
X13770000Y65145000D01*
X13810000Y70834000D02*
X13810000Y69040000D01*
X13810000Y66960000D02*
X13810000Y65166000D01*
X13850000Y70812000D02*
X13850000Y69040000D01*
X13850000Y66960000D02*
X13850000Y65188000D01*
X13890000Y70789000D02*
X13890000Y69040000D01*
X13890000Y66960000D02*
X13890000Y65211000D01*
X13930000Y70765000D02*
X13930000Y69040000D01*
X13930000Y66960000D02*
X13930000Y65235000D01*
X13970000Y70741000D02*
X13970000Y69040000D01*
X13970000Y66960000D02*
X13970000Y65259000D01*
X14010000Y70716000D02*
X14010000Y69040000D01*
X14010000Y66960000D02*
X14010000Y65284000D01*
X14050000Y70690000D02*
X14050000Y69040000D01*
X14050000Y66960000D02*
X14050000Y65310000D01*
X14090000Y70663000D02*
X14090000Y69040000D01*
X14090000Y66960000D02*
X14090000Y65337000D01*
X14130000Y70636000D02*
X14130000Y69040000D01*
X14130000Y66960000D02*
X14130000Y65364000D01*
X14170000Y70607000D02*
X14170000Y69040000D01*
X14170000Y66960000D02*
X14170000Y65393000D01*
X14210000Y70577000D02*
X14210000Y69040000D01*
X14210000Y66960000D02*
X14210000Y65423000D01*
X14250000Y70547000D02*
X14250000Y69040000D01*
X14250000Y66960000D02*
X14250000Y65453000D01*
X14290000Y70516000D02*
X14290000Y69040000D01*
X14290000Y66960000D02*
X14290000Y65484000D01*
X14330000Y70483000D02*
X14330000Y69040000D01*
X14330000Y66960000D02*
X14330000Y65517000D01*
X14370000Y70450000D02*
X14370000Y69040000D01*
X14370000Y66960000D02*
X14370000Y65550000D01*
X14410000Y70415000D02*
X14410000Y69040000D01*
X14410000Y66960000D02*
X14410000Y65585000D01*
X14450000Y70379000D02*
X14450000Y69040000D01*
X14450000Y66960000D02*
X14450000Y65621000D01*
X14490000Y70342000D02*
X14490000Y69040000D01*
X14490000Y66960000D02*
X14490000Y65658000D01*
X14530000Y70304000D02*
X14530000Y69040000D01*
X14530000Y66960000D02*
X14530000Y65696000D01*
X14570000Y70264000D02*
X14570000Y65736000D01*
X14610000Y70223000D02*
X14610000Y65777000D01*
X14650000Y70181000D02*
X14650000Y65819000D01*
X14690000Y70137000D02*
X14690000Y65863000D01*
X14730000Y70091000D02*
X14730000Y65909000D01*
X14770000Y70044000D02*
X14770000Y65956000D01*
X14810000Y69995000D02*
X14810000Y66005000D01*
X14850000Y69943000D02*
X14850000Y66057000D01*
X14890000Y69890000D02*
X14890000Y66110000D01*
X14930000Y69834000D02*
X14930000Y66166000D01*
X14970000Y69775000D02*
X14970000Y66225000D01*
X15010000Y69714000D02*
X15010000Y66286000D01*
X15050000Y69649000D02*
X15050000Y66351000D01*
X15090000Y69581000D02*
X15090000Y66419000D01*
X15130000Y69509000D02*
X15130000Y66491000D01*
X15170000Y69432000D02*
X15170000Y66568000D01*
X15210000Y69350000D02*
X15210000Y66650000D01*
X15250000Y69261000D02*
X15250000Y66739000D01*
X15290000Y69165000D02*
X15290000Y66835000D01*
X15330000Y69058000D02*
X15330000Y66942000D01*
X15370000Y68939000D02*
X15370000Y67061000D01*
X15410000Y68801000D02*
X15410000Y67199000D01*
X15450000Y68633000D02*
X15450000Y67367000D01*
X15490000Y68402000D02*
X15490000Y67598000D01*
X15520000Y68000000D02*
G75*
G02*
X8980000Y68000000I-3270000J0D01*
G01*
X8980000Y68000000D02*
G75*
G02*
X15520000Y68000000I3270000J0D01*
G01*
%TO.C,F1*%
X41545000Y16785000D02*
X41545000Y19215000D01*
X44455000Y16785000D02*
X44455000Y19215000D01*
%TO.C,C2*%
X17711252Y82545000D02*
X16288748Y82545000D01*
X17711252Y80725000D02*
X16288748Y80725000D01*
%TO.C,C6*%
X42288748Y81360000D02*
X43711252Y81360000D01*
X42288748Y78640000D02*
X43711252Y78640000D01*
%TO.C,C19*%
X16288748Y47910000D02*
X17711252Y47910000D01*
X16288748Y46090000D02*
X17711252Y46090000D01*
%TO.C,C14*%
X75900000Y19288748D02*
X75900000Y20711252D01*
X77720000Y19288748D02*
X77720000Y20711252D01*
%TO.C,C12*%
X25455000Y37288748D02*
X25455000Y38711252D01*
X27275000Y37288748D02*
X27275000Y38711252D01*
%TO.C,R24*%
X24090000Y58272936D02*
X24090000Y59727064D01*
X25910000Y58272936D02*
X25910000Y59727064D01*
%TO.C,C13*%
X18711252Y23910000D02*
X17288748Y23910000D01*
X18711252Y22090000D02*
X17288748Y22090000D01*
%TO.C,C11*%
X90288748Y92910000D02*
X91711252Y92910000D01*
X90288748Y91090000D02*
X91711252Y91090000D01*
%TO.C,SW1*%
X58750000Y33500000D02*
X58750000Y32000000D01*
X60000000Y29500000D02*
X64500000Y29500000D01*
X64500000Y36000000D02*
X60000000Y36000000D01*
X65750000Y32000000D02*
X65750000Y33500000D01*
%TO.C,C17*%
X8090000Y45288748D02*
X8090000Y46711252D01*
X9910000Y45288748D02*
X9910000Y46711252D01*
%TO.C,R2*%
X24790000Y74727064D02*
X24790000Y73272936D01*
X26610000Y74727064D02*
X26610000Y73272936D01*
%TO.C,D3*%
X40850000Y38340000D02*
X40850000Y44150000D01*
X40850000Y38340000D02*
X45150000Y38340000D01*
X45150000Y38340000D02*
X45150000Y44150000D01*
%TO.C,R6*%
X70272936Y63910000D02*
X71727064Y63910000D01*
X70272936Y62090000D02*
X71727064Y62090000D01*
%TO.C,R7*%
X90272936Y84910000D02*
X91727064Y84910000D01*
X90272936Y83090000D02*
X91727064Y83090000D01*
%TO.C,TP1*%
X5800000Y66000000D02*
G75*
G02*
X2200000Y66000000I-1800000J0D01*
G01*
X2200000Y66000000D02*
G75*
G02*
X5800000Y66000000I1800000J0D01*
G01*
%TO.C,C18*%
X24288748Y51910000D02*
X25711252Y51910000D01*
X24288748Y50090000D02*
X25711252Y50090000D01*
%TO.C,D1*%
X41350000Y34510000D02*
X41350000Y29000000D01*
X44650000Y34510000D02*
X41350000Y34510000D01*
X44650000Y34510000D02*
X44650000Y29000000D01*
%TO.C,C8*%
X53288748Y81910000D02*
X54711252Y81910000D01*
X53288748Y80090000D02*
X54711252Y80090000D01*
%TO.C,R3*%
X53272936Y72910000D02*
X54727064Y72910000D01*
X53272936Y71090000D02*
X54727064Y71090000D01*
%TO.C,TP2*%
X50800000Y9000000D02*
G75*
G02*
X47200000Y9000000I-1800000J0D01*
G01*
X47200000Y9000000D02*
G75*
G02*
X50800000Y9000000I1800000J0D01*
G01*
%TO.C,L1*%
X26900000Y92100000D02*
X26900000Y91650000D01*
X26900000Y92100000D02*
X33100000Y92100000D01*
X26900000Y85900000D02*
X26900000Y86350000D01*
X33100000Y92100000D02*
X33100000Y91650000D01*
X33100000Y85900000D02*
X26900000Y85900000D01*
X33100000Y85900000D02*
X33100000Y86350000D01*
%TO.C,TP5*%
X10800000Y17000000D02*
G75*
G02*
X7200000Y17000000I-1800000J0D01*
G01*
X7200000Y17000000D02*
G75*
G02*
X10800000Y17000000I1800000J0D01*
G01*
%TO.C,C7*%
X42288748Y72360000D02*
X43711252Y72360000D01*
X42288748Y69640000D02*
X43711252Y69640000D01*
%TO.C,U6*%
X76690000Y76610000D02*
X81310000Y76610000D01*
X76690000Y76410000D02*
X76690000Y76610000D01*
X76690000Y71390000D02*
X76690000Y71590000D01*
X81310000Y76610000D02*
X81310000Y76410000D01*
X81310000Y71590000D02*
X81310000Y71390000D01*
X81310000Y71390000D02*
X76690000Y71390000D01*
X76050000Y76410000D02*
X75710000Y76880000D01*
X76390000Y76880000D01*
X76050000Y76410000D01*
G36*
X76050000Y76410000D02*
G01*
X75710000Y76880000D01*
X76390000Y76880000D01*
X76050000Y76410000D01*
G37*
%TO.C,C3*%
X28590000Y77811252D02*
X28590000Y76388748D01*
X30410000Y77811252D02*
X30410000Y76388748D01*
%TO.C,R10*%
X37272936Y24910000D02*
X38727064Y24910000D01*
X37272936Y23090000D02*
X38727064Y23090000D01*
%TO.C,C4*%
X30090000Y81788748D02*
X30090000Y83211252D01*
X31910000Y81788748D02*
X31910000Y83211252D01*
%TO.C,D4*%
X22420000Y17760000D02*
X23350000Y17760000D01*
X22420000Y16960000D02*
X22420000Y17760000D01*
X22420000Y16960000D02*
X22420000Y16160000D01*
X25580000Y17760000D02*
X24650000Y17760000D01*
X25580000Y17760000D02*
X25580000Y16300000D01*
X22390000Y15660000D02*
X22060000Y15420000D01*
X22060000Y15900000D01*
X22390000Y15660000D01*
G36*
X22390000Y15660000D02*
G01*
X22060000Y15420000D01*
X22060000Y15900000D01*
X22390000Y15660000D01*
G37*
%TO.C,R20*%
X79272936Y46910000D02*
X80727064Y46910000D01*
X79272936Y45090000D02*
X80727064Y45090000D01*
%TO.C,R21*%
X8822936Y76710000D02*
X13177064Y76710000D01*
X8822936Y73290000D02*
X13177064Y73290000D01*
%TO.C,D6*%
X63400000Y51865000D02*
X67460000Y51865000D01*
X67460000Y54135000D02*
X63400000Y54135000D01*
X67460000Y51865000D02*
X67460000Y54135000D01*
%TO.C,R1*%
X19472936Y74910000D02*
X20927064Y74910000D01*
X19472936Y73090000D02*
X20927064Y73090000D01*
%TO.C,TP7*%
X55800000Y32000000D02*
G75*
G02*
X52200000Y32000000I-1800000J0D01*
G01*
X52200000Y32000000D02*
G75*
G02*
X55800000Y32000000I1800000J0D01*
G01*
%TO.C,U1*%
X21925000Y83575000D02*
X26075000Y83575000D01*
X21925000Y78425000D02*
X26075000Y78425000D01*
X21325000Y83475000D02*
X21085000Y83805000D01*
X21565000Y83805000D01*
X21325000Y83475000D01*
G36*
X21325000Y83475000D02*
G01*
X21085000Y83805000D01*
X21565000Y83805000D01*
X21325000Y83475000D01*
G37*
%TO.C,R18*%
X90272936Y55910000D02*
X91727064Y55910000D01*
X90272936Y54090000D02*
X91727064Y54090000D01*
%TO.C,R9*%
X52272936Y53910000D02*
X53727064Y53910000D01*
X52272936Y52090000D02*
X53727064Y52090000D01*
%TO.C,C20*%
X84090000Y76788748D02*
X84090000Y78211252D01*
X85910000Y76788748D02*
X85910000Y78211252D01*
%TO.C,R8*%
X90090000Y75272936D02*
X90090000Y76727064D01*
X91910000Y75272936D02*
X91910000Y76727064D01*
%TO.C,U4*%
X75250000Y13910000D02*
X75300000Y13910000D01*
X75250000Y12090000D02*
X75250000Y13910000D01*
X75300000Y12090000D02*
X75250000Y12090000D01*
X78320000Y13910000D02*
X78370000Y13910000D01*
X78370000Y13910000D02*
X78370000Y12090000D01*
X78370000Y12090000D02*
X78320000Y12090000D01*
X75300000Y11550000D02*
X74970000Y11310000D01*
X74970000Y11790000D01*
X75300000Y11550000D01*
G36*
X75300000Y11550000D02*
G01*
X74970000Y11310000D01*
X74970000Y11790000D01*
X75300000Y11550000D01*
G37*
%TO.C,R4*%
X90090000Y64272936D02*
X90090000Y65727064D01*
X91910000Y64272936D02*
X91910000Y65727064D01*
%TO.C,R22*%
X8090000Y59272936D02*
X8090000Y60727064D01*
X9910000Y59272936D02*
X9910000Y60727064D01*
%TO.C,TP6*%
X10800000Y24000000D02*
G75*
G02*
X7200000Y24000000I-1800000J0D01*
G01*
X7200000Y24000000D02*
G75*
G02*
X10800000Y24000000I1800000J0D01*
G01*
%TO.C,J3*%
X71620000Y6620000D02*
X71620000Y8000000D01*
X73000000Y6620000D02*
X71620000Y6620000D01*
X74270000Y9380000D02*
X79460000Y9380000D01*
X74270000Y6620000D02*
X74270000Y9380000D01*
X74270000Y6620000D02*
X79460000Y6620000D01*
X79460000Y6620000D02*
X79460000Y9380000D01*
%TO.C,U3*%
X24440000Y32060000D02*
X24535000Y32060000D01*
X24440000Y27940000D02*
X24440000Y32060000D01*
X24535000Y27940000D02*
X24440000Y27940000D01*
X29465000Y32060000D02*
X29560000Y32060000D01*
X29560000Y32060000D02*
X29560000Y27940000D01*
X29560000Y27940000D02*
X29465000Y27940000D01*
X29470000Y32600000D02*
X29800000Y32840000D01*
X29800000Y32360000D01*
X29470000Y32600000D01*
G36*
X29800000Y32360000D02*
G01*
X29470000Y32600000D01*
X29800000Y32840000D01*
X29800000Y32360000D01*
G37*
%TO.C,R23*%
X8090000Y52272936D02*
X8090000Y53727064D01*
X9910000Y52272936D02*
X9910000Y53727064D01*
%TO.C,U5*%
X14800000Y58850000D02*
X14800000Y58350000D01*
X16000000Y59200000D02*
X18000000Y59200000D01*
X16000000Y54800000D02*
X18000000Y54800000D01*
%TO.C,C1*%
X10640000Y80988748D02*
X10640000Y82411252D01*
X13360000Y80988748D02*
X13360000Y82411252D01*
%TO.C,TP3*%
X30800000Y47000000D02*
G75*
G02*
X27200000Y47000000I-1800000J0D01*
G01*
X27200000Y47000000D02*
G75*
G02*
X30800000Y47000000I1800000J0D01*
G01*
%TO.C,R26*%
X73272936Y68910000D02*
X74727064Y68910000D01*
X73272936Y67090000D02*
X74727064Y67090000D01*
%TO.C,C9*%
X54711252Y90910000D02*
X53288748Y90910000D01*
X54711252Y89090000D02*
X53288748Y89090000D01*
%TD*%
%LPC*%
D11*
%TO.C,R25*%
X25000000Y64450000D03*
X25000000Y67550000D03*
%TD*%
D12*
%TO.C,R19*%
X92550000Y46000000D03*
X89450000Y46000000D03*
%TD*%
D13*
%TO.C,SW2*%
X78000000Y35000000D03*
X84500000Y35000000D03*
X78000000Y30500000D03*
X84500000Y30500000D03*
%TD*%
D14*
%TO.C,U2*%
X73960000Y91800000D03*
D15*
X64250000Y98000000D03*
X64250000Y96500000D03*
X64250000Y95000000D03*
X64250000Y93500000D03*
X64250000Y92000000D03*
X64250000Y90500000D03*
X64250000Y89000000D03*
X64250000Y87500000D03*
X64250000Y86000000D03*
X81750000Y86000000D03*
X81750000Y87500000D03*
X81750000Y89000000D03*
X81750000Y90500000D03*
X81750000Y92000000D03*
X81750000Y93500000D03*
X81750000Y95000000D03*
X81750000Y96500000D03*
X81750000Y98000000D03*
%TD*%
D16*
%TO.C,C5*%
X41437500Y89000000D03*
X44562500Y89000000D03*
%TD*%
D17*
%TO.C,TP4*%
X37000000Y58000000D03*
%TD*%
D18*
%TO.C,R5*%
X56450000Y63000000D03*
X59550000Y63000000D03*
%TD*%
D19*
%TO.C,C16*%
X15437500Y64000000D03*
X18562500Y64000000D03*
%TD*%
D20*
%TO.C,J1*%
X16000000Y9000000D03*
D21*
X18770000Y9000000D03*
X21540000Y9000000D03*
X24310000Y9000000D03*
X27080000Y9000000D03*
X17385000Y6160000D03*
X20155000Y6160000D03*
X22925000Y6160000D03*
X25695000Y6160000D03*
D22*
X9045001Y7580000D03*
X34035000Y7580000D03*
%TD*%
D23*
%TO.C,C10*%
X62062500Y97000000D03*
X58937500Y97000000D03*
%TD*%
D24*
%TO.C,C15*%
X11000000Y68000000D03*
D21*
X13500000Y68000000D03*
%TD*%
D25*
%TO.C,F1*%
X43000000Y15545000D03*
X43000000Y20455000D03*
%TD*%
D26*
%TO.C,H1*%
X4000000Y96000000D03*
%TD*%
D23*
%TO.C,C2*%
X18562500Y81635000D03*
X15437500Y81635000D03*
%TD*%
D16*
%TO.C,C6*%
X41437500Y80000000D03*
X44562500Y80000000D03*
%TD*%
D19*
%TO.C,C19*%
X15437500Y47000000D03*
X18562500Y47000000D03*
%TD*%
D27*
%TO.C,C14*%
X76810000Y18437500D03*
X76810000Y21562500D03*
%TD*%
%TO.C,C12*%
X26365000Y36437500D03*
X26365000Y39562500D03*
%TD*%
D11*
%TO.C,R24*%
X25000000Y57450000D03*
X25000000Y60550000D03*
%TD*%
D23*
%TO.C,C13*%
X19562500Y23000000D03*
X16437500Y23000000D03*
%TD*%
D19*
%TO.C,C11*%
X89437500Y92000000D03*
X92562500Y92000000D03*
%TD*%
D13*
%TO.C,SW1*%
X59000000Y35000000D03*
X65500000Y35000000D03*
X59000000Y30500000D03*
X65500000Y30500000D03*
%TD*%
D27*
%TO.C,C17*%
X9000000Y44437500D03*
X9000000Y47562500D03*
%TD*%
D28*
%TO.C,R2*%
X25700000Y75550000D03*
X25700000Y72450000D03*
%TD*%
D29*
%TO.C,D3*%
X43000000Y39850000D03*
X43000000Y44150000D03*
%TD*%
D18*
%TO.C,R6*%
X69450000Y63000000D03*
X72550000Y63000000D03*
%TD*%
%TO.C,R7*%
X89450000Y84000000D03*
X92550000Y84000000D03*
%TD*%
D17*
%TO.C,TP1*%
X4000000Y66000000D03*
%TD*%
D19*
%TO.C,C18*%
X23437500Y51000000D03*
X26562500Y51000000D03*
%TD*%
D30*
%TO.C,D1*%
X43000000Y33000000D03*
X43000000Y29000000D03*
%TD*%
D19*
%TO.C,C8*%
X52437500Y81000000D03*
X55562500Y81000000D03*
%TD*%
D18*
%TO.C,R3*%
X52450000Y72000000D03*
X55550000Y72000000D03*
%TD*%
D17*
%TO.C,TP2*%
X49000000Y9000000D03*
%TD*%
D31*
%TO.C,L1*%
X27925000Y89000000D03*
X32075000Y89000000D03*
%TD*%
D17*
%TO.C,TP5*%
X9000000Y17000000D03*
%TD*%
D16*
%TO.C,C7*%
X41437500Y71000000D03*
X44562500Y71000000D03*
%TD*%
D32*
%TO.C,U6*%
X76137500Y75950000D03*
X76137500Y75300000D03*
X76137500Y74650000D03*
X76137500Y74000000D03*
X76137500Y73350000D03*
X76137500Y72700000D03*
X76137500Y72050000D03*
X81862500Y72050000D03*
X81862500Y72700000D03*
X81862500Y73350000D03*
X81862500Y74000000D03*
X81862500Y74650000D03*
X81862500Y75300000D03*
X81862500Y75950000D03*
%TD*%
D33*
%TO.C,C3*%
X29500000Y78662500D03*
X29500000Y75537500D03*
%TD*%
D18*
%TO.C,R10*%
X36450000Y24000000D03*
X39550000Y24000000D03*
%TD*%
D27*
%TO.C,C4*%
X31000000Y80937500D03*
X31000000Y84062500D03*
%TD*%
D34*
%TO.C,D4*%
X23050000Y15500000D03*
X24950000Y15500000D03*
X24000000Y18500000D03*
%TD*%
D26*
%TO.C,H3*%
X45000000Y4000000D03*
%TD*%
D18*
%TO.C,R20*%
X78450000Y46000000D03*
X81550000Y46000000D03*
%TD*%
D35*
%TO.C,R21*%
X7950000Y75000000D03*
X14050000Y75000000D03*
%TD*%
D36*
%TO.C,D6*%
X66487500Y53000000D03*
X63512500Y53000000D03*
%TD*%
D18*
%TO.C,R1*%
X18650000Y74000000D03*
X21750000Y74000000D03*
%TD*%
D17*
%TO.C,TP7*%
X54000000Y32000000D03*
%TD*%
D37*
%TO.C,U1*%
X24000000Y81000000D03*
D38*
X21125000Y82905000D03*
X21125000Y81635000D03*
X21125000Y80365000D03*
X21125000Y79095000D03*
X26875000Y79095000D03*
X26875000Y80365000D03*
X26875000Y81635000D03*
X26875000Y82905000D03*
%TD*%
D18*
%TO.C,R18*%
X89450000Y55000000D03*
X92550000Y55000000D03*
%TD*%
D26*
%TO.C,H2*%
X96000000Y96000000D03*
%TD*%
D18*
%TO.C,R9*%
X51450000Y53000000D03*
X54550000Y53000000D03*
%TD*%
D27*
%TO.C,C20*%
X85000000Y75937500D03*
X85000000Y79062500D03*
%TD*%
D11*
%TO.C,R8*%
X91000000Y74450000D03*
X91000000Y77550000D03*
%TD*%
D39*
%TO.C,U4*%
X75860000Y11862500D03*
X76810000Y11862500D03*
X77760000Y11862500D03*
X77760000Y14137500D03*
X76810000Y14137500D03*
X75860000Y14137500D03*
%TD*%
D11*
%TO.C,R4*%
X91000000Y63450000D03*
X91000000Y66550000D03*
%TD*%
%TO.C,R22*%
X9000000Y58450000D03*
X9000000Y61550000D03*
%TD*%
D26*
%TO.C,H4*%
X96000000Y4000000D03*
%TD*%
D17*
%TO.C,TP6*%
X9000000Y24000000D03*
%TD*%
D40*
%TO.C,J3*%
X73000000Y8000000D03*
D41*
X75540000Y8000000D03*
X78080000Y8000000D03*
%TD*%
D42*
%TO.C,U3*%
X28905000Y32825000D03*
X27635000Y32825000D03*
X26365000Y32825000D03*
X25095000Y32825000D03*
X25095000Y27175000D03*
X26365000Y27175000D03*
X27635000Y27175000D03*
X28905000Y27175000D03*
%TD*%
D11*
%TO.C,R23*%
X9000000Y51450000D03*
X9000000Y54550000D03*
%TD*%
D43*
%TO.C,U5*%
X15500000Y58500000D03*
X15500000Y58000000D03*
X15500000Y57500000D03*
X15500000Y57000000D03*
X15500000Y56500000D03*
X15500000Y56000000D03*
X15500000Y55500000D03*
X18500000Y55500000D03*
X18500000Y56000000D03*
X18500000Y56500000D03*
X18500000Y57000000D03*
X18500000Y57500000D03*
X18500000Y58000000D03*
X18500000Y58500000D03*
%TD*%
D44*
%TO.C,C1*%
X12000000Y80137500D03*
X12000000Y83262500D03*
%TD*%
D17*
%TO.C,TP3*%
X29000000Y47000000D03*
%TD*%
D18*
%TO.C,R26*%
X72450000Y68000000D03*
X75550000Y68000000D03*
%TD*%
D23*
%TO.C,C9*%
X55562500Y90000000D03*
X52437500Y90000000D03*
%TD*%
%LPD*%
M02*
