%TF.GenerationSoftware,KiCad,Pcbnew,10.0.6*%
%TF.CreationDate,2026-09-22T09:21:39+02:00*%
%TF.ProjectId,leaf-heat-v7,6c656166-2d68-4656-9174-2d76372e6b69,G.5*%
%TF.SameCoordinates,Original*%
%TF.FileFunction,Legend,Bot*%
%TF.FilePolarity,Positive*%
%FSLAX46Y46*%
G04 Gerber Fmt 4.6, Leading zero omitted, Abs format (unit mm)*
G04 Created by KiCad (PCBNEW 10.0.6) date 2026-09-22 09:21:39*
%MOMM*%
%LPD*%
G01*
G04 APERTURE LIST*
G04 Aperture macros list*
%AMRoundRect*
0 Rectangle with rounded corners*
0 $1 Rounding radius*
0 $2 $3 $4 $5 $6 $7 $8 $9 X,Y pos of 4 corners*
0 Add a 4 corners polygon primitive as box body*
4,1,4,$2,$3,$4,$5,$6,$7,$8,$9,$2,$3,0*
0 Add four circle primitives for the rounded corners*
1,1,$1+$1,$2,$3*
1,1,$1+$1,$4,$5*
1,1,$1+$1,$6,$7*
1,1,$1+$1,$8,$9*
0 Add four rect primitives between the rounded corners*
20,1,$1+$1,$2,$3,$4,$5,0*
20,1,$1+$1,$4,$5,$6,$7,0*
20,1,$1+$1,$6,$7,$8,$9,0*
20,1,$1+$1,$8,$9,$2,$3,0*%
G04 Aperture macros list end*
%ADD10C,0.150000*%
%ADD11C,2.000000*%
%ADD12C,0.650000*%
%ADD13C,3.000000*%
%ADD14R,1.600000X1.600000*%
%ADD15C,1.600000*%
%ADD16C,4.000000*%
%ADD17RoundRect,0.250000X-0.550000X-0.550000X0.550000X-0.550000X0.550000X0.550000X-0.550000X0.550000X0*%
%ADD18C,2.700000*%
%ADD19C,0.770000*%
%ADD20R,1.700000X1.700000*%
%ADD21C,1.700000*%
G04 APERTURE END LIST*
D10*
X53663220Y87545181D02*
X53663220Y88545181D01*
X53663220Y88545181D02*
X53425125Y88545181D01*
X53425125Y88545181D02*
X53282268Y88497562D01*
X53282268Y88497562D02*
X53187030Y88402324D01*
X53187030Y88402324D02*
X53139411Y88307086D01*
X53139411Y88307086D02*
X53091792Y88116610D01*
X53091792Y88116610D02*
X53091792Y87973753D01*
X53091792Y87973753D02*
X53139411Y87783277D01*
X53139411Y87783277D02*
X53187030Y87688039D01*
X53187030Y87688039D02*
X53282268Y87592800D01*
X53282268Y87592800D02*
X53425125Y87545181D01*
X53425125Y87545181D02*
X53663220Y87545181D01*
X52329887Y88068991D02*
X52187030Y88021372D01*
X52187030Y88021372D02*
X52139411Y87973753D01*
X52139411Y87973753D02*
X52091792Y87878515D01*
X52091792Y87878515D02*
X52091792Y87735658D01*
X52091792Y87735658D02*
X52139411Y87640420D01*
X52139411Y87640420D02*
X52187030Y87592800D01*
X52187030Y87592800D02*
X52282268Y87545181D01*
X52282268Y87545181D02*
X52663220Y87545181D01*
X52663220Y87545181D02*
X52663220Y88545181D01*
X52663220Y88545181D02*
X52329887Y88545181D01*
X52329887Y88545181D02*
X52234649Y88497562D01*
X52234649Y88497562D02*
X52187030Y88449943D01*
X52187030Y88449943D02*
X52139411Y88354705D01*
X52139411Y88354705D02*
X52139411Y88259467D01*
X52139411Y88259467D02*
X52187030Y88164229D01*
X52187030Y88164229D02*
X52234649Y88116610D01*
X52234649Y88116610D02*
X52329887Y88068991D01*
X52329887Y88068991D02*
X52663220Y88068991D01*
X51615601Y87545181D02*
X51425125Y87545181D01*
X51425125Y87545181D02*
X51329887Y87592800D01*
X51329887Y87592800D02*
X51282268Y87640420D01*
X51282268Y87640420D02*
X51187030Y87783277D01*
X51187030Y87783277D02*
X51139411Y87973753D01*
X51139411Y87973753D02*
X51139411Y88354705D01*
X51139411Y88354705D02*
X51187030Y88449943D01*
X51187030Y88449943D02*
X51234649Y88497562D01*
X51234649Y88497562D02*
X51329887Y88545181D01*
X51329887Y88545181D02*
X51520363Y88545181D01*
X51520363Y88545181D02*
X51615601Y88497562D01*
X51615601Y88497562D02*
X51663220Y88449943D01*
X51663220Y88449943D02*
X51710839Y88354705D01*
X51710839Y88354705D02*
X51710839Y88116610D01*
X51710839Y88116610D02*
X51663220Y88021372D01*
X51663220Y88021372D02*
X51615601Y87973753D01*
X51615601Y87973753D02*
X51520363Y87926134D01*
X51520363Y87926134D02*
X51329887Y87926134D01*
X51329887Y87926134D02*
X51234649Y87973753D01*
X51234649Y87973753D02*
X51187030Y88021372D01*
X51187030Y88021372D02*
X51139411Y88116610D01*
X49948934Y87545181D02*
X49948934Y88211848D01*
X49948934Y88116610D02*
X49901315Y88164229D01*
X49901315Y88164229D02*
X49806077Y88211848D01*
X49806077Y88211848D02*
X49663220Y88211848D01*
X49663220Y88211848D02*
X49567982Y88164229D01*
X49567982Y88164229D02*
X49520363Y88068991D01*
X49520363Y88068991D02*
X49520363Y87545181D01*
X49520363Y88068991D02*
X49472744Y88164229D01*
X49472744Y88164229D02*
X49377506Y88211848D01*
X49377506Y88211848D02*
X49234649Y88211848D01*
X49234649Y88211848D02*
X49139410Y88164229D01*
X49139410Y88164229D02*
X49091791Y88068991D01*
X49091791Y88068991D02*
X49091791Y87545181D01*
X48187030Y87545181D02*
X48187030Y88068991D01*
X48187030Y88068991D02*
X48234649Y88164229D01*
X48234649Y88164229D02*
X48329887Y88211848D01*
X48329887Y88211848D02*
X48520363Y88211848D01*
X48520363Y88211848D02*
X48615601Y88164229D01*
X48187030Y87592800D02*
X48282268Y87545181D01*
X48282268Y87545181D02*
X48520363Y87545181D01*
X48520363Y87545181D02*
X48615601Y87592800D01*
X48615601Y87592800D02*
X48663220Y87688039D01*
X48663220Y87688039D02*
X48663220Y87783277D01*
X48663220Y87783277D02*
X48615601Y87878515D01*
X48615601Y87878515D02*
X48520363Y87926134D01*
X48520363Y87926134D02*
X48282268Y87926134D01*
X48282268Y87926134D02*
X48187030Y87973753D01*
X47567982Y87545181D02*
X47663220Y87592800D01*
X47663220Y87592800D02*
X47710839Y87688039D01*
X47710839Y87688039D02*
X47710839Y88545181D01*
X46806077Y87592800D02*
X46901315Y87545181D01*
X46901315Y87545181D02*
X47091791Y87545181D01*
X47091791Y87545181D02*
X47187029Y87592800D01*
X47187029Y87592800D02*
X47234648Y87688039D01*
X47234648Y87688039D02*
X47234648Y88068991D01*
X47234648Y88068991D02*
X47187029Y88164229D01*
X47187029Y88164229D02*
X47091791Y88211848D01*
X47091791Y88211848D02*
X46901315Y88211848D01*
X46901315Y88211848D02*
X46806077Y88164229D01*
X46806077Y88164229D02*
X46758458Y88068991D01*
X46758458Y88068991D02*
X46758458Y87973753D01*
X46758458Y87973753D02*
X47234648Y87878515D01*
X53139411Y85695181D02*
X53710839Y85695181D01*
X53425125Y85695181D02*
X53425125Y86695181D01*
X53425125Y86695181D02*
X53520363Y86552324D01*
X53520363Y86552324D02*
X53615601Y86457086D01*
X53615601Y86457086D02*
X53710839Y86409467D01*
X52758458Y85980896D02*
X52282268Y85980896D01*
X52853696Y85695181D02*
X52520363Y86695181D01*
X52520363Y86695181D02*
X52187030Y85695181D01*
X50377506Y86742800D02*
X51234648Y85457086D01*
X48758458Y85695181D02*
X49329886Y85695181D01*
X49044172Y85695181D02*
X49044172Y86695181D01*
X49044172Y86695181D02*
X49139410Y86552324D01*
X49139410Y86552324D02*
X49234648Y86457086D01*
X49234648Y86457086D02*
X49329886Y86409467D01*
X48377505Y86599943D02*
X48329886Y86647562D01*
X48329886Y86647562D02*
X48234648Y86695181D01*
X48234648Y86695181D02*
X47996553Y86695181D01*
X47996553Y86695181D02*
X47901315Y86647562D01*
X47901315Y86647562D02*
X47853696Y86599943D01*
X47853696Y86599943D02*
X47806077Y86504705D01*
X47806077Y86504705D02*
X47806077Y86409467D01*
X47806077Y86409467D02*
X47853696Y86266610D01*
X47853696Y86266610D02*
X48425124Y85695181D01*
X48425124Y85695181D02*
X47806077Y85695181D01*
X46901315Y86695181D02*
X47377505Y86695181D01*
X47377505Y86695181D02*
X47425124Y86218991D01*
X47425124Y86218991D02*
X47377505Y86266610D01*
X47377505Y86266610D02*
X47282267Y86314229D01*
X47282267Y86314229D02*
X47044172Y86314229D01*
X47044172Y86314229D02*
X46948934Y86266610D01*
X46948934Y86266610D02*
X46901315Y86218991D01*
X46901315Y86218991D02*
X46853696Y86123753D01*
X46853696Y86123753D02*
X46853696Y85885658D01*
X46853696Y85885658D02*
X46901315Y85790420D01*
X46901315Y85790420D02*
X46948934Y85742800D01*
X46948934Y85742800D02*
X47044172Y85695181D01*
X47044172Y85695181D02*
X47282267Y85695181D01*
X47282267Y85695181D02*
X47377505Y85742800D01*
X47377505Y85742800D02*
X47425124Y85790420D01*
X46567981Y86695181D02*
X46234648Y85695181D01*
X46234648Y85695181D02*
X45901315Y86695181D01*
X53329887Y84368991D02*
X53187030Y84321372D01*
X53187030Y84321372D02*
X53139411Y84273753D01*
X53139411Y84273753D02*
X53091792Y84178515D01*
X53091792Y84178515D02*
X53091792Y84035658D01*
X53091792Y84035658D02*
X53139411Y83940420D01*
X53139411Y83940420D02*
X53187030Y83892800D01*
X53187030Y83892800D02*
X53282268Y83845181D01*
X53282268Y83845181D02*
X53663220Y83845181D01*
X53663220Y83845181D02*
X53663220Y84845181D01*
X53663220Y84845181D02*
X53329887Y84845181D01*
X53329887Y84845181D02*
X53234649Y84797562D01*
X53234649Y84797562D02*
X53187030Y84749943D01*
X53187030Y84749943D02*
X53139411Y84654705D01*
X53139411Y84654705D02*
X53139411Y84559467D01*
X53139411Y84559467D02*
X53187030Y84464229D01*
X53187030Y84464229D02*
X53234649Y84416610D01*
X53234649Y84416610D02*
X53329887Y84368991D01*
X53329887Y84368991D02*
X53663220Y84368991D01*
X52139411Y83845181D02*
X52710839Y83845181D01*
X52425125Y83845181D02*
X52425125Y84845181D01*
X52425125Y84845181D02*
X52520363Y84702324D01*
X52520363Y84702324D02*
X52615601Y84607086D01*
X52615601Y84607086D02*
X52710839Y84559467D01*
X51187030Y83845181D02*
X51758458Y83845181D01*
X51472744Y83845181D02*
X51472744Y84845181D01*
X51472744Y84845181D02*
X51567982Y84702324D01*
X51567982Y84702324D02*
X51663220Y84607086D01*
X51663220Y84607086D02*
X51758458Y84559467D01*
X50567982Y84845181D02*
X50472744Y84845181D01*
X50472744Y84845181D02*
X50377506Y84797562D01*
X50377506Y84797562D02*
X50329887Y84749943D01*
X50329887Y84749943D02*
X50282268Y84654705D01*
X50282268Y84654705D02*
X50234649Y84464229D01*
X50234649Y84464229D02*
X50234649Y84226134D01*
X50234649Y84226134D02*
X50282268Y84035658D01*
X50282268Y84035658D02*
X50329887Y83940420D01*
X50329887Y83940420D02*
X50377506Y83892800D01*
X50377506Y83892800D02*
X50472744Y83845181D01*
X50472744Y83845181D02*
X50567982Y83845181D01*
X50567982Y83845181D02*
X50663220Y83892800D01*
X50663220Y83892800D02*
X50710839Y83940420D01*
X50710839Y83940420D02*
X50758458Y84035658D01*
X50758458Y84035658D02*
X50806077Y84226134D01*
X50806077Y84226134D02*
X50806077Y84464229D01*
X50806077Y84464229D02*
X50758458Y84654705D01*
X50758458Y84654705D02*
X50710839Y84749943D01*
X50710839Y84749943D02*
X50663220Y84797562D01*
X50663220Y84797562D02*
X50567982Y84845181D01*
X49615601Y84845181D02*
X49520363Y84845181D01*
X49520363Y84845181D02*
X49425125Y84797562D01*
X49425125Y84797562D02*
X49377506Y84749943D01*
X49377506Y84749943D02*
X49329887Y84654705D01*
X49329887Y84654705D02*
X49282268Y84464229D01*
X49282268Y84464229D02*
X49282268Y84226134D01*
X49282268Y84226134D02*
X49329887Y84035658D01*
X49329887Y84035658D02*
X49377506Y83940420D01*
X49377506Y83940420D02*
X49425125Y83892800D01*
X49425125Y83892800D02*
X49520363Y83845181D01*
X49520363Y83845181D02*
X49615601Y83845181D01*
X49615601Y83845181D02*
X49710839Y83892800D01*
X49710839Y83892800D02*
X49758458Y83940420D01*
X49758458Y83940420D02*
X49806077Y84035658D01*
X49806077Y84035658D02*
X49853696Y84226134D01*
X49853696Y84226134D02*
X49853696Y84464229D01*
X49853696Y84464229D02*
X49806077Y84654705D01*
X49806077Y84654705D02*
X49758458Y84749943D01*
X49758458Y84749943D02*
X49710839Y84797562D01*
X49710839Y84797562D02*
X49615601Y84845181D01*
X47377506Y84892800D02*
X48234648Y83607086D01*
X45758458Y83845181D02*
X46329886Y83845181D01*
X46044172Y83845181D02*
X46044172Y84845181D01*
X46044172Y84845181D02*
X46139410Y84702324D01*
X46139410Y84702324D02*
X46234648Y84607086D01*
X46234648Y84607086D02*
X46329886Y84559467D01*
X45139410Y84845181D02*
X45044172Y84845181D01*
X45044172Y84845181D02*
X44948934Y84797562D01*
X44948934Y84797562D02*
X44901315Y84749943D01*
X44901315Y84749943D02*
X44853696Y84654705D01*
X44853696Y84654705D02*
X44806077Y84464229D01*
X44806077Y84464229D02*
X44806077Y84226134D01*
X44806077Y84226134D02*
X44853696Y84035658D01*
X44853696Y84035658D02*
X44901315Y83940420D01*
X44901315Y83940420D02*
X44948934Y83892800D01*
X44948934Y83892800D02*
X45044172Y83845181D01*
X45044172Y83845181D02*
X45139410Y83845181D01*
X45139410Y83845181D02*
X45234648Y83892800D01*
X45234648Y83892800D02*
X45282267Y83940420D01*
X45282267Y83940420D02*
X45329886Y84035658D01*
X45329886Y84035658D02*
X45377505Y84226134D01*
X45377505Y84226134D02*
X45377505Y84464229D01*
X45377505Y84464229D02*
X45329886Y84654705D01*
X45329886Y84654705D02*
X45282267Y84749943D01*
X45282267Y84749943D02*
X45234648Y84797562D01*
X45234648Y84797562D02*
X45139410Y84845181D01*
X44187029Y84845181D02*
X44091791Y84845181D01*
X44091791Y84845181D02*
X43996553Y84797562D01*
X43996553Y84797562D02*
X43948934Y84749943D01*
X43948934Y84749943D02*
X43901315Y84654705D01*
X43901315Y84654705D02*
X43853696Y84464229D01*
X43853696Y84464229D02*
X43853696Y84226134D01*
X43853696Y84226134D02*
X43901315Y84035658D01*
X43901315Y84035658D02*
X43948934Y83940420D01*
X43948934Y83940420D02*
X43996553Y83892800D01*
X43996553Y83892800D02*
X44091791Y83845181D01*
X44091791Y83845181D02*
X44187029Y83845181D01*
X44187029Y83845181D02*
X44282267Y83892800D01*
X44282267Y83892800D02*
X44329886Y83940420D01*
X44329886Y83940420D02*
X44377505Y84035658D01*
X44377505Y84035658D02*
X44425124Y84226134D01*
X44425124Y84226134D02*
X44425124Y84464229D01*
X44425124Y84464229D02*
X44377505Y84654705D01*
X44377505Y84654705D02*
X44329886Y84749943D01*
X44329886Y84749943D02*
X44282267Y84797562D01*
X44282267Y84797562D02*
X44187029Y84845181D01*
X43567981Y84845181D02*
X43234648Y83845181D01*
X43234648Y83845181D02*
X42901315Y84845181D01*
X53710839Y82042800D02*
X53567982Y81995181D01*
X53567982Y81995181D02*
X53329887Y81995181D01*
X53329887Y81995181D02*
X53234649Y82042800D01*
X53234649Y82042800D02*
X53187030Y82090420D01*
X53187030Y82090420D02*
X53139411Y82185658D01*
X53139411Y82185658D02*
X53139411Y82280896D01*
X53139411Y82280896D02*
X53187030Y82376134D01*
X53187030Y82376134D02*
X53234649Y82423753D01*
X53234649Y82423753D02*
X53329887Y82471372D01*
X53329887Y82471372D02*
X53520363Y82518991D01*
X53520363Y82518991D02*
X53615601Y82566610D01*
X53615601Y82566610D02*
X53663220Y82614229D01*
X53663220Y82614229D02*
X53710839Y82709467D01*
X53710839Y82709467D02*
X53710839Y82804705D01*
X53710839Y82804705D02*
X53663220Y82899943D01*
X53663220Y82899943D02*
X53615601Y82947562D01*
X53615601Y82947562D02*
X53520363Y82995181D01*
X53520363Y82995181D02*
X53282268Y82995181D01*
X53282268Y82995181D02*
X53139411Y82947562D01*
X52710839Y81995181D02*
X52710839Y82995181D01*
X52710839Y82995181D02*
X52377506Y82280896D01*
X52377506Y82280896D02*
X52044173Y82995181D01*
X52044173Y82995181D02*
X52044173Y81995181D01*
X51234649Y82518991D02*
X51091792Y82471372D01*
X51091792Y82471372D02*
X51044173Y82423753D01*
X51044173Y82423753D02*
X50996554Y82328515D01*
X50996554Y82328515D02*
X50996554Y82185658D01*
X50996554Y82185658D02*
X51044173Y82090420D01*
X51044173Y82090420D02*
X51091792Y82042800D01*
X51091792Y82042800D02*
X51187030Y81995181D01*
X51187030Y81995181D02*
X51567982Y81995181D01*
X51567982Y81995181D02*
X51567982Y82995181D01*
X51567982Y82995181D02*
X51234649Y82995181D01*
X51234649Y82995181D02*
X51139411Y82947562D01*
X51139411Y82947562D02*
X51091792Y82899943D01*
X51091792Y82899943D02*
X51044173Y82804705D01*
X51044173Y82804705D02*
X51044173Y82709467D01*
X51044173Y82709467D02*
X51091792Y82614229D01*
X51091792Y82614229D02*
X51139411Y82566610D01*
X51139411Y82566610D02*
X51234649Y82518991D01*
X51234649Y82518991D02*
X51567982Y82518991D01*
X50282268Y82995181D02*
X50282268Y82280896D01*
X50282268Y82280896D02*
X50329887Y82138039D01*
X50329887Y82138039D02*
X50425125Y82042800D01*
X50425125Y82042800D02*
X50567982Y81995181D01*
X50567982Y81995181D02*
X50663220Y81995181D01*
X49853696Y82899943D02*
X49806077Y82947562D01*
X49806077Y82947562D02*
X49710839Y82995181D01*
X49710839Y82995181D02*
X49472744Y82995181D01*
X49472744Y82995181D02*
X49377506Y82947562D01*
X49377506Y82947562D02*
X49329887Y82899943D01*
X49329887Y82899943D02*
X49282268Y82804705D01*
X49282268Y82804705D02*
X49282268Y82709467D01*
X49282268Y82709467D02*
X49329887Y82566610D01*
X49329887Y82566610D02*
X49901315Y81995181D01*
X49901315Y81995181D02*
X49282268Y81995181D01*
X48425125Y82661848D02*
X48425125Y81995181D01*
X48663220Y83042800D02*
X48901315Y82328515D01*
X48901315Y82328515D02*
X48282268Y82328515D01*
X47329887Y82090420D02*
X47377506Y82042800D01*
X47377506Y82042800D02*
X47520363Y81995181D01*
X47520363Y81995181D02*
X47615601Y81995181D01*
X47615601Y81995181D02*
X47758458Y82042800D01*
X47758458Y82042800D02*
X47853696Y82138039D01*
X47853696Y82138039D02*
X47901315Y82233277D01*
X47901315Y82233277D02*
X47948934Y82423753D01*
X47948934Y82423753D02*
X47948934Y82566610D01*
X47948934Y82566610D02*
X47901315Y82757086D01*
X47901315Y82757086D02*
X47853696Y82852324D01*
X47853696Y82852324D02*
X47758458Y82947562D01*
X47758458Y82947562D02*
X47615601Y82995181D01*
X47615601Y82995181D02*
X47520363Y82995181D01*
X47520363Y82995181D02*
X47377506Y82947562D01*
X47377506Y82947562D02*
X47329887Y82899943D01*
X46948934Y82280896D02*
X46472744Y82280896D01*
X47044172Y81995181D02*
X46710839Y82995181D01*
X46710839Y82995181D02*
X46377506Y81995181D01*
X53710839Y81049943D02*
X53663220Y81097562D01*
X53663220Y81097562D02*
X53567982Y81145181D01*
X53567982Y81145181D02*
X53329887Y81145181D01*
X53329887Y81145181D02*
X53234649Y81097562D01*
X53234649Y81097562D02*
X53187030Y81049943D01*
X53187030Y81049943D02*
X53139411Y80954705D01*
X53139411Y80954705D02*
X53139411Y80859467D01*
X53139411Y80859467D02*
X53187030Y80716610D01*
X53187030Y80716610D02*
X53758458Y80145181D01*
X53758458Y80145181D02*
X53139411Y80145181D01*
X52710839Y80240420D02*
X52663220Y80192800D01*
X52663220Y80192800D02*
X52710839Y80145181D01*
X52710839Y80145181D02*
X52758458Y80192800D01*
X52758458Y80192800D02*
X52710839Y80240420D01*
X52710839Y80240420D02*
X52710839Y80145181D01*
X52282268Y81049943D02*
X52234649Y81097562D01*
X52234649Y81097562D02*
X52139411Y81145181D01*
X52139411Y81145181D02*
X51901316Y81145181D01*
X51901316Y81145181D02*
X51806078Y81097562D01*
X51806078Y81097562D02*
X51758459Y81049943D01*
X51758459Y81049943D02*
X51710840Y80954705D01*
X51710840Y80954705D02*
X51710840Y80859467D01*
X51710840Y80859467D02*
X51758459Y80716610D01*
X51758459Y80716610D02*
X52329887Y80145181D01*
X52329887Y80145181D02*
X51710840Y80145181D01*
X50853697Y80811848D02*
X50853697Y80145181D01*
X51282268Y80811848D02*
X51282268Y80288039D01*
X51282268Y80288039D02*
X51234649Y80192800D01*
X51234649Y80192800D02*
X51139411Y80145181D01*
X51139411Y80145181D02*
X50996554Y80145181D01*
X50996554Y80145181D02*
X50901316Y80192800D01*
X50901316Y80192800D02*
X50853697Y80240420D01*
X50044173Y80668991D02*
X50377506Y80668991D01*
X50377506Y80145181D02*
X50377506Y81145181D01*
X50377506Y81145181D02*
X49901316Y81145181D01*
X48044173Y81192800D02*
X48901315Y79907086D01*
X46425125Y80145181D02*
X46996553Y80145181D01*
X46710839Y80145181D02*
X46710839Y81145181D01*
X46710839Y81145181D02*
X46806077Y81002324D01*
X46806077Y81002324D02*
X46901315Y80907086D01*
X46901315Y80907086D02*
X46996553Y80859467D01*
X45806077Y81145181D02*
X45710839Y81145181D01*
X45710839Y81145181D02*
X45615601Y81097562D01*
X45615601Y81097562D02*
X45567982Y81049943D01*
X45567982Y81049943D02*
X45520363Y80954705D01*
X45520363Y80954705D02*
X45472744Y80764229D01*
X45472744Y80764229D02*
X45472744Y80526134D01*
X45472744Y80526134D02*
X45520363Y80335658D01*
X45520363Y80335658D02*
X45567982Y80240420D01*
X45567982Y80240420D02*
X45615601Y80192800D01*
X45615601Y80192800D02*
X45710839Y80145181D01*
X45710839Y80145181D02*
X45806077Y80145181D01*
X45806077Y80145181D02*
X45901315Y80192800D01*
X45901315Y80192800D02*
X45948934Y80240420D01*
X45948934Y80240420D02*
X45996553Y80335658D01*
X45996553Y80335658D02*
X46044172Y80526134D01*
X46044172Y80526134D02*
X46044172Y80764229D01*
X46044172Y80764229D02*
X45996553Y80954705D01*
X45996553Y80954705D02*
X45948934Y81049943D01*
X45948934Y81049943D02*
X45901315Y81097562D01*
X45901315Y81097562D02*
X45806077Y81145181D01*
X44853696Y81145181D02*
X44758458Y81145181D01*
X44758458Y81145181D02*
X44663220Y81097562D01*
X44663220Y81097562D02*
X44615601Y81049943D01*
X44615601Y81049943D02*
X44567982Y80954705D01*
X44567982Y80954705D02*
X44520363Y80764229D01*
X44520363Y80764229D02*
X44520363Y80526134D01*
X44520363Y80526134D02*
X44567982Y80335658D01*
X44567982Y80335658D02*
X44615601Y80240420D01*
X44615601Y80240420D02*
X44663220Y80192800D01*
X44663220Y80192800D02*
X44758458Y80145181D01*
X44758458Y80145181D02*
X44853696Y80145181D01*
X44853696Y80145181D02*
X44948934Y80192800D01*
X44948934Y80192800D02*
X44996553Y80240420D01*
X44996553Y80240420D02*
X45044172Y80335658D01*
X45044172Y80335658D02*
X45091791Y80526134D01*
X45091791Y80526134D02*
X45091791Y80764229D01*
X45091791Y80764229D02*
X45044172Y80954705D01*
X45044172Y80954705D02*
X44996553Y81049943D01*
X44996553Y81049943D02*
X44948934Y81097562D01*
X44948934Y81097562D02*
X44853696Y81145181D01*
X44234648Y81145181D02*
X43901315Y80145181D01*
X43901315Y80145181D02*
X43567982Y81145181D01*
X53710839Y79199943D02*
X53663220Y79247562D01*
X53663220Y79247562D02*
X53567982Y79295181D01*
X53567982Y79295181D02*
X53329887Y79295181D01*
X53329887Y79295181D02*
X53234649Y79247562D01*
X53234649Y79247562D02*
X53187030Y79199943D01*
X53187030Y79199943D02*
X53139411Y79104705D01*
X53139411Y79104705D02*
X53139411Y79009467D01*
X53139411Y79009467D02*
X53187030Y78866610D01*
X53187030Y78866610D02*
X53758458Y78295181D01*
X53758458Y78295181D02*
X53139411Y78295181D01*
X52758458Y79199943D02*
X52710839Y79247562D01*
X52710839Y79247562D02*
X52615601Y79295181D01*
X52615601Y79295181D02*
X52377506Y79295181D01*
X52377506Y79295181D02*
X52282268Y79247562D01*
X52282268Y79247562D02*
X52234649Y79199943D01*
X52234649Y79199943D02*
X52187030Y79104705D01*
X52187030Y79104705D02*
X52187030Y79009467D01*
X52187030Y79009467D02*
X52234649Y78866610D01*
X52234649Y78866610D02*
X52806077Y78295181D01*
X52806077Y78295181D02*
X52187030Y78295181D01*
X51567982Y79295181D02*
X51472744Y79295181D01*
X51472744Y79295181D02*
X51377506Y79247562D01*
X51377506Y79247562D02*
X51329887Y79199943D01*
X51329887Y79199943D02*
X51282268Y79104705D01*
X51282268Y79104705D02*
X51234649Y78914229D01*
X51234649Y78914229D02*
X51234649Y78676134D01*
X51234649Y78676134D02*
X51282268Y78485658D01*
X51282268Y78485658D02*
X51329887Y78390420D01*
X51329887Y78390420D02*
X51377506Y78342800D01*
X51377506Y78342800D02*
X51472744Y78295181D01*
X51472744Y78295181D02*
X51567982Y78295181D01*
X51567982Y78295181D02*
X51663220Y78342800D01*
X51663220Y78342800D02*
X51710839Y78390420D01*
X51710839Y78390420D02*
X51758458Y78485658D01*
X51758458Y78485658D02*
X51806077Y78676134D01*
X51806077Y78676134D02*
X51806077Y78914229D01*
X51806077Y78914229D02*
X51758458Y79104705D01*
X51758458Y79104705D02*
X51710839Y79199943D01*
X51710839Y79199943D02*
X51663220Y79247562D01*
X51663220Y79247562D02*
X51567982Y79295181D01*
X50806077Y78961848D02*
X50806077Y78295181D01*
X50806077Y78866610D02*
X50758458Y78914229D01*
X50758458Y78914229D02*
X50663220Y78961848D01*
X50663220Y78961848D02*
X50520363Y78961848D01*
X50520363Y78961848D02*
X50425125Y78914229D01*
X50425125Y78914229D02*
X50377506Y78818991D01*
X50377506Y78818991D02*
X50377506Y78295181D01*
X49567982Y78818991D02*
X49901315Y78818991D01*
X49901315Y78295181D02*
X49901315Y79295181D01*
X49901315Y79295181D02*
X49425125Y79295181D01*
X47567982Y79342800D02*
X48425124Y78057086D01*
X45948934Y78295181D02*
X46520362Y78295181D01*
X46234648Y78295181D02*
X46234648Y79295181D01*
X46234648Y79295181D02*
X46329886Y79152324D01*
X46329886Y79152324D02*
X46425124Y79057086D01*
X46425124Y79057086D02*
X46520362Y79009467D01*
X45329886Y79295181D02*
X45234648Y79295181D01*
X45234648Y79295181D02*
X45139410Y79247562D01*
X45139410Y79247562D02*
X45091791Y79199943D01*
X45091791Y79199943D02*
X45044172Y79104705D01*
X45044172Y79104705D02*
X44996553Y78914229D01*
X44996553Y78914229D02*
X44996553Y78676134D01*
X44996553Y78676134D02*
X45044172Y78485658D01*
X45044172Y78485658D02*
X45091791Y78390420D01*
X45091791Y78390420D02*
X45139410Y78342800D01*
X45139410Y78342800D02*
X45234648Y78295181D01*
X45234648Y78295181D02*
X45329886Y78295181D01*
X45329886Y78295181D02*
X45425124Y78342800D01*
X45425124Y78342800D02*
X45472743Y78390420D01*
X45472743Y78390420D02*
X45520362Y78485658D01*
X45520362Y78485658D02*
X45567981Y78676134D01*
X45567981Y78676134D02*
X45567981Y78914229D01*
X45567981Y78914229D02*
X45520362Y79104705D01*
X45520362Y79104705D02*
X45472743Y79199943D01*
X45472743Y79199943D02*
X45425124Y79247562D01*
X45425124Y79247562D02*
X45329886Y79295181D01*
X44377505Y79295181D02*
X44282267Y79295181D01*
X44282267Y79295181D02*
X44187029Y79247562D01*
X44187029Y79247562D02*
X44139410Y79199943D01*
X44139410Y79199943D02*
X44091791Y79104705D01*
X44091791Y79104705D02*
X44044172Y78914229D01*
X44044172Y78914229D02*
X44044172Y78676134D01*
X44044172Y78676134D02*
X44091791Y78485658D01*
X44091791Y78485658D02*
X44139410Y78390420D01*
X44139410Y78390420D02*
X44187029Y78342800D01*
X44187029Y78342800D02*
X44282267Y78295181D01*
X44282267Y78295181D02*
X44377505Y78295181D01*
X44377505Y78295181D02*
X44472743Y78342800D01*
X44472743Y78342800D02*
X44520362Y78390420D01*
X44520362Y78390420D02*
X44567981Y78485658D01*
X44567981Y78485658D02*
X44615600Y78676134D01*
X44615600Y78676134D02*
X44615600Y78914229D01*
X44615600Y78914229D02*
X44567981Y79104705D01*
X44567981Y79104705D02*
X44520362Y79199943D01*
X44520362Y79199943D02*
X44472743Y79247562D01*
X44472743Y79247562D02*
X44377505Y79295181D01*
X43758457Y79295181D02*
X43425124Y78295181D01*
X43425124Y78295181D02*
X43091791Y79295181D01*
X53139411Y76445181D02*
X53710839Y76445181D01*
X53425125Y76445181D02*
X53425125Y77445181D01*
X53425125Y77445181D02*
X53520363Y77302324D01*
X53520363Y77302324D02*
X53615601Y77207086D01*
X53615601Y77207086D02*
X53710839Y77159467D01*
X52282268Y77111848D02*
X52282268Y76445181D01*
X52710839Y77111848D02*
X52710839Y76588039D01*
X52710839Y76588039D02*
X52663220Y76492800D01*
X52663220Y76492800D02*
X52567982Y76445181D01*
X52567982Y76445181D02*
X52425125Y76445181D01*
X52425125Y76445181D02*
X52329887Y76492800D01*
X52329887Y76492800D02*
X52282268Y76540420D01*
X51472744Y76968991D02*
X51806077Y76968991D01*
X51806077Y76445181D02*
X51806077Y77445181D01*
X51806077Y77445181D02*
X51329887Y77445181D01*
X49472744Y77492800D02*
X50329886Y76207086D01*
X48425124Y77349943D02*
X48377505Y77397562D01*
X48377505Y77397562D02*
X48282267Y77445181D01*
X48282267Y77445181D02*
X48044172Y77445181D01*
X48044172Y77445181D02*
X47948934Y77397562D01*
X47948934Y77397562D02*
X47901315Y77349943D01*
X47901315Y77349943D02*
X47853696Y77254705D01*
X47853696Y77254705D02*
X47853696Y77159467D01*
X47853696Y77159467D02*
X47901315Y77016610D01*
X47901315Y77016610D02*
X48472743Y76445181D01*
X48472743Y76445181D02*
X47853696Y76445181D01*
X46948934Y77445181D02*
X47425124Y77445181D01*
X47425124Y77445181D02*
X47472743Y76968991D01*
X47472743Y76968991D02*
X47425124Y77016610D01*
X47425124Y77016610D02*
X47329886Y77064229D01*
X47329886Y77064229D02*
X47091791Y77064229D01*
X47091791Y77064229D02*
X46996553Y77016610D01*
X46996553Y77016610D02*
X46948934Y76968991D01*
X46948934Y76968991D02*
X46901315Y76873753D01*
X46901315Y76873753D02*
X46901315Y76635658D01*
X46901315Y76635658D02*
X46948934Y76540420D01*
X46948934Y76540420D02*
X46996553Y76492800D01*
X46996553Y76492800D02*
X47091791Y76445181D01*
X47091791Y76445181D02*
X47329886Y76445181D01*
X47329886Y76445181D02*
X47425124Y76492800D01*
X47425124Y76492800D02*
X47472743Y76540420D01*
X46615600Y77445181D02*
X46282267Y76445181D01*
X46282267Y76445181D02*
X45948934Y77445181D01*
X53139411Y74595181D02*
X53710839Y74595181D01*
X53425125Y74595181D02*
X53425125Y75595181D01*
X53425125Y75595181D02*
X53520363Y75452324D01*
X53520363Y75452324D02*
X53615601Y75357086D01*
X53615601Y75357086D02*
X53710839Y75309467D01*
X52520363Y75595181D02*
X52425125Y75595181D01*
X52425125Y75595181D02*
X52329887Y75547562D01*
X52329887Y75547562D02*
X52282268Y75499943D01*
X52282268Y75499943D02*
X52234649Y75404705D01*
X52234649Y75404705D02*
X52187030Y75214229D01*
X52187030Y75214229D02*
X52187030Y74976134D01*
X52187030Y74976134D02*
X52234649Y74785658D01*
X52234649Y74785658D02*
X52282268Y74690420D01*
X52282268Y74690420D02*
X52329887Y74642800D01*
X52329887Y74642800D02*
X52425125Y74595181D01*
X52425125Y74595181D02*
X52520363Y74595181D01*
X52520363Y74595181D02*
X52615601Y74642800D01*
X52615601Y74642800D02*
X52663220Y74690420D01*
X52663220Y74690420D02*
X52710839Y74785658D01*
X52710839Y74785658D02*
X52758458Y74976134D01*
X52758458Y74976134D02*
X52758458Y75214229D01*
X52758458Y75214229D02*
X52710839Y75404705D01*
X52710839Y75404705D02*
X52663220Y75499943D01*
X52663220Y75499943D02*
X52615601Y75547562D01*
X52615601Y75547562D02*
X52520363Y75595181D01*
X51567982Y75595181D02*
X51472744Y75595181D01*
X51472744Y75595181D02*
X51377506Y75547562D01*
X51377506Y75547562D02*
X51329887Y75499943D01*
X51329887Y75499943D02*
X51282268Y75404705D01*
X51282268Y75404705D02*
X51234649Y75214229D01*
X51234649Y75214229D02*
X51234649Y74976134D01*
X51234649Y74976134D02*
X51282268Y74785658D01*
X51282268Y74785658D02*
X51329887Y74690420D01*
X51329887Y74690420D02*
X51377506Y74642800D01*
X51377506Y74642800D02*
X51472744Y74595181D01*
X51472744Y74595181D02*
X51567982Y74595181D01*
X51567982Y74595181D02*
X51663220Y74642800D01*
X51663220Y74642800D02*
X51710839Y74690420D01*
X51710839Y74690420D02*
X51758458Y74785658D01*
X51758458Y74785658D02*
X51806077Y74976134D01*
X51806077Y74976134D02*
X51806077Y75214229D01*
X51806077Y75214229D02*
X51758458Y75404705D01*
X51758458Y75404705D02*
X51710839Y75499943D01*
X51710839Y75499943D02*
X51663220Y75547562D01*
X51663220Y75547562D02*
X51567982Y75595181D01*
X50806077Y75261848D02*
X50806077Y74595181D01*
X50806077Y75166610D02*
X50758458Y75214229D01*
X50758458Y75214229D02*
X50663220Y75261848D01*
X50663220Y75261848D02*
X50520363Y75261848D01*
X50520363Y75261848D02*
X50425125Y75214229D01*
X50425125Y75214229D02*
X50377506Y75118991D01*
X50377506Y75118991D02*
X50377506Y74595181D01*
X49567982Y75118991D02*
X49901315Y75118991D01*
X49901315Y74595181D02*
X49901315Y75595181D01*
X49901315Y75595181D02*
X49425125Y75595181D01*
X47567982Y75642800D02*
X48425124Y74357086D01*
X45996553Y75595181D02*
X46472743Y75595181D01*
X46472743Y75595181D02*
X46520362Y75118991D01*
X46520362Y75118991D02*
X46472743Y75166610D01*
X46472743Y75166610D02*
X46377505Y75214229D01*
X46377505Y75214229D02*
X46139410Y75214229D01*
X46139410Y75214229D02*
X46044172Y75166610D01*
X46044172Y75166610D02*
X45996553Y75118991D01*
X45996553Y75118991D02*
X45948934Y75023753D01*
X45948934Y75023753D02*
X45948934Y74785658D01*
X45948934Y74785658D02*
X45996553Y74690420D01*
X45996553Y74690420D02*
X46044172Y74642800D01*
X46044172Y74642800D02*
X46139410Y74595181D01*
X46139410Y74595181D02*
X46377505Y74595181D01*
X46377505Y74595181D02*
X46472743Y74642800D01*
X46472743Y74642800D02*
X46520362Y74690420D01*
X45329886Y75595181D02*
X45234648Y75595181D01*
X45234648Y75595181D02*
X45139410Y75547562D01*
X45139410Y75547562D02*
X45091791Y75499943D01*
X45091791Y75499943D02*
X45044172Y75404705D01*
X45044172Y75404705D02*
X44996553Y75214229D01*
X44996553Y75214229D02*
X44996553Y74976134D01*
X44996553Y74976134D02*
X45044172Y74785658D01*
X45044172Y74785658D02*
X45091791Y74690420D01*
X45091791Y74690420D02*
X45139410Y74642800D01*
X45139410Y74642800D02*
X45234648Y74595181D01*
X45234648Y74595181D02*
X45329886Y74595181D01*
X45329886Y74595181D02*
X45425124Y74642800D01*
X45425124Y74642800D02*
X45472743Y74690420D01*
X45472743Y74690420D02*
X45520362Y74785658D01*
X45520362Y74785658D02*
X45567981Y74976134D01*
X45567981Y74976134D02*
X45567981Y75214229D01*
X45567981Y75214229D02*
X45520362Y75404705D01*
X45520362Y75404705D02*
X45472743Y75499943D01*
X45472743Y75499943D02*
X45425124Y75547562D01*
X45425124Y75547562D02*
X45329886Y75595181D01*
X44710838Y75595181D02*
X44377505Y74595181D01*
X44377505Y74595181D02*
X44044172Y75595181D01*
X53710839Y73649943D02*
X53663220Y73697562D01*
X53663220Y73697562D02*
X53567982Y73745181D01*
X53567982Y73745181D02*
X53329887Y73745181D01*
X53329887Y73745181D02*
X53234649Y73697562D01*
X53234649Y73697562D02*
X53187030Y73649943D01*
X53187030Y73649943D02*
X53139411Y73554705D01*
X53139411Y73554705D02*
X53139411Y73459467D01*
X53139411Y73459467D02*
X53187030Y73316610D01*
X53187030Y73316610D02*
X53758458Y72745181D01*
X53758458Y72745181D02*
X53139411Y72745181D01*
X52758458Y73649943D02*
X52710839Y73697562D01*
X52710839Y73697562D02*
X52615601Y73745181D01*
X52615601Y73745181D02*
X52377506Y73745181D01*
X52377506Y73745181D02*
X52282268Y73697562D01*
X52282268Y73697562D02*
X52234649Y73649943D01*
X52234649Y73649943D02*
X52187030Y73554705D01*
X52187030Y73554705D02*
X52187030Y73459467D01*
X52187030Y73459467D02*
X52234649Y73316610D01*
X52234649Y73316610D02*
X52806077Y72745181D01*
X52806077Y72745181D02*
X52187030Y72745181D01*
X51329887Y73411848D02*
X51329887Y72745181D01*
X51758458Y73411848D02*
X51758458Y72888039D01*
X51758458Y72888039D02*
X51710839Y72792800D01*
X51710839Y72792800D02*
X51615601Y72745181D01*
X51615601Y72745181D02*
X51472744Y72745181D01*
X51472744Y72745181D02*
X51377506Y72792800D01*
X51377506Y72792800D02*
X51329887Y72840420D01*
X50520363Y73268991D02*
X50853696Y73268991D01*
X50853696Y72745181D02*
X50853696Y73745181D01*
X50853696Y73745181D02*
X50377506Y73745181D01*
X48520363Y73792800D02*
X49377505Y72507086D01*
X47472743Y73649943D02*
X47425124Y73697562D01*
X47425124Y73697562D02*
X47329886Y73745181D01*
X47329886Y73745181D02*
X47091791Y73745181D01*
X47091791Y73745181D02*
X46996553Y73697562D01*
X46996553Y73697562D02*
X46948934Y73649943D01*
X46948934Y73649943D02*
X46901315Y73554705D01*
X46901315Y73554705D02*
X46901315Y73459467D01*
X46901315Y73459467D02*
X46948934Y73316610D01*
X46948934Y73316610D02*
X47520362Y72745181D01*
X47520362Y72745181D02*
X46901315Y72745181D01*
X45996553Y73745181D02*
X46472743Y73745181D01*
X46472743Y73745181D02*
X46520362Y73268991D01*
X46520362Y73268991D02*
X46472743Y73316610D01*
X46472743Y73316610D02*
X46377505Y73364229D01*
X46377505Y73364229D02*
X46139410Y73364229D01*
X46139410Y73364229D02*
X46044172Y73316610D01*
X46044172Y73316610D02*
X45996553Y73268991D01*
X45996553Y73268991D02*
X45948934Y73173753D01*
X45948934Y73173753D02*
X45948934Y72935658D01*
X45948934Y72935658D02*
X45996553Y72840420D01*
X45996553Y72840420D02*
X46044172Y72792800D01*
X46044172Y72792800D02*
X46139410Y72745181D01*
X46139410Y72745181D02*
X46377505Y72745181D01*
X46377505Y72745181D02*
X46472743Y72792800D01*
X46472743Y72792800D02*
X46520362Y72840420D01*
X45663219Y73745181D02*
X45329886Y72745181D01*
X45329886Y72745181D02*
X44996553Y73745181D01*
X53139411Y70895181D02*
X53710839Y70895181D01*
X53425125Y70895181D02*
X53425125Y71895181D01*
X53425125Y71895181D02*
X53520363Y71752324D01*
X53520363Y71752324D02*
X53615601Y71657086D01*
X53615601Y71657086D02*
X53710839Y71609467D01*
X52520363Y71895181D02*
X52425125Y71895181D01*
X52425125Y71895181D02*
X52329887Y71847562D01*
X52329887Y71847562D02*
X52282268Y71799943D01*
X52282268Y71799943D02*
X52234649Y71704705D01*
X52234649Y71704705D02*
X52187030Y71514229D01*
X52187030Y71514229D02*
X52187030Y71276134D01*
X52187030Y71276134D02*
X52234649Y71085658D01*
X52234649Y71085658D02*
X52282268Y70990420D01*
X52282268Y70990420D02*
X52329887Y70942800D01*
X52329887Y70942800D02*
X52425125Y70895181D01*
X52425125Y70895181D02*
X52520363Y70895181D01*
X52520363Y70895181D02*
X52615601Y70942800D01*
X52615601Y70942800D02*
X52663220Y70990420D01*
X52663220Y70990420D02*
X52710839Y71085658D01*
X52710839Y71085658D02*
X52758458Y71276134D01*
X52758458Y71276134D02*
X52758458Y71514229D01*
X52758458Y71514229D02*
X52710839Y71704705D01*
X52710839Y71704705D02*
X52663220Y71799943D01*
X52663220Y71799943D02*
X52615601Y71847562D01*
X52615601Y71847562D02*
X52520363Y71895181D01*
X51567982Y71895181D02*
X51472744Y71895181D01*
X51472744Y71895181D02*
X51377506Y71847562D01*
X51377506Y71847562D02*
X51329887Y71799943D01*
X51329887Y71799943D02*
X51282268Y71704705D01*
X51282268Y71704705D02*
X51234649Y71514229D01*
X51234649Y71514229D02*
X51234649Y71276134D01*
X51234649Y71276134D02*
X51282268Y71085658D01*
X51282268Y71085658D02*
X51329887Y70990420D01*
X51329887Y70990420D02*
X51377506Y70942800D01*
X51377506Y70942800D02*
X51472744Y70895181D01*
X51472744Y70895181D02*
X51567982Y70895181D01*
X51567982Y70895181D02*
X51663220Y70942800D01*
X51663220Y70942800D02*
X51710839Y70990420D01*
X51710839Y70990420D02*
X51758458Y71085658D01*
X51758458Y71085658D02*
X51806077Y71276134D01*
X51806077Y71276134D02*
X51806077Y71514229D01*
X51806077Y71514229D02*
X51758458Y71704705D01*
X51758458Y71704705D02*
X51710839Y71799943D01*
X51710839Y71799943D02*
X51663220Y71847562D01*
X51663220Y71847562D02*
X51567982Y71895181D01*
X50806077Y70895181D02*
X50806077Y71895181D01*
X50710839Y71276134D02*
X50425125Y70895181D01*
X50425125Y71561848D02*
X50806077Y71180896D01*
X48520363Y71942800D02*
X49377505Y70657086D01*
X46901315Y70895181D02*
X47472743Y70895181D01*
X47187029Y70895181D02*
X47187029Y71895181D01*
X47187029Y71895181D02*
X47282267Y71752324D01*
X47282267Y71752324D02*
X47377505Y71657086D01*
X47377505Y71657086D02*
X47472743Y71609467D01*
X46520362Y70895181D02*
X45758458Y71895181D01*
X46377505Y71895181D02*
X46282267Y71847562D01*
X46282267Y71847562D02*
X46234648Y71752324D01*
X46234648Y71752324D02*
X46282267Y71657086D01*
X46282267Y71657086D02*
X46377505Y71609467D01*
X46377505Y71609467D02*
X46472743Y71657086D01*
X46472743Y71657086D02*
X46520362Y71752324D01*
X46520362Y71752324D02*
X46472743Y71847562D01*
X46472743Y71847562D02*
X46377505Y71895181D01*
X45806077Y70942800D02*
X45758458Y71038039D01*
X45758458Y71038039D02*
X45806077Y71133277D01*
X45806077Y71133277D02*
X45901315Y71180896D01*
X45901315Y71180896D02*
X45996553Y71133277D01*
X45996553Y71133277D02*
X46044172Y71038039D01*
X46044172Y71038039D02*
X45996553Y70942800D01*
X45996553Y70942800D02*
X45901315Y70895181D01*
X45901315Y70895181D02*
X45806077Y70942800D01*
X53234649Y69711848D02*
X53234649Y69045181D01*
X53472744Y70092800D02*
X53710839Y69378515D01*
X53710839Y69378515D02*
X53091792Y69378515D01*
X52806077Y70045181D02*
X52187030Y70045181D01*
X52187030Y70045181D02*
X52520363Y69664229D01*
X52520363Y69664229D02*
X52377506Y69664229D01*
X52377506Y69664229D02*
X52282268Y69616610D01*
X52282268Y69616610D02*
X52234649Y69568991D01*
X52234649Y69568991D02*
X52187030Y69473753D01*
X52187030Y69473753D02*
X52187030Y69235658D01*
X52187030Y69235658D02*
X52234649Y69140420D01*
X52234649Y69140420D02*
X52282268Y69092800D01*
X52282268Y69092800D02*
X52377506Y69045181D01*
X52377506Y69045181D02*
X52663220Y69045181D01*
X52663220Y69045181D02*
X52758458Y69092800D01*
X52758458Y69092800D02*
X52806077Y69140420D01*
X51758458Y69140420D02*
X51710839Y69092800D01*
X51710839Y69092800D02*
X51758458Y69045181D01*
X51758458Y69045181D02*
X51806077Y69092800D01*
X51806077Y69092800D02*
X51758458Y69140420D01*
X51758458Y69140420D02*
X51758458Y69045181D01*
X51329887Y69949943D02*
X51282268Y69997562D01*
X51282268Y69997562D02*
X51187030Y70045181D01*
X51187030Y70045181D02*
X50948935Y70045181D01*
X50948935Y70045181D02*
X50853697Y69997562D01*
X50853697Y69997562D02*
X50806078Y69949943D01*
X50806078Y69949943D02*
X50758459Y69854705D01*
X50758459Y69854705D02*
X50758459Y69759467D01*
X50758459Y69759467D02*
X50806078Y69616610D01*
X50806078Y69616610D02*
X51377506Y69045181D01*
X51377506Y69045181D02*
X50758459Y69045181D01*
X50329887Y69045181D02*
X50329887Y70045181D01*
X50234649Y69426134D02*
X49948935Y69045181D01*
X49948935Y69711848D02*
X50329887Y69330896D01*
X48044173Y70092800D02*
X48901315Y68807086D01*
X46425125Y69045181D02*
X46996553Y69045181D01*
X46710839Y69045181D02*
X46710839Y70045181D01*
X46710839Y70045181D02*
X46806077Y69902324D01*
X46806077Y69902324D02*
X46901315Y69807086D01*
X46901315Y69807086D02*
X46996553Y69759467D01*
X46044172Y69045181D02*
X45282268Y70045181D01*
X45901315Y70045181D02*
X45806077Y69997562D01*
X45806077Y69997562D02*
X45758458Y69902324D01*
X45758458Y69902324D02*
X45806077Y69807086D01*
X45806077Y69807086D02*
X45901315Y69759467D01*
X45901315Y69759467D02*
X45996553Y69807086D01*
X45996553Y69807086D02*
X46044172Y69902324D01*
X46044172Y69902324D02*
X45996553Y69997562D01*
X45996553Y69997562D02*
X45901315Y70045181D01*
X45329887Y69092800D02*
X45282268Y69188039D01*
X45282268Y69188039D02*
X45329887Y69283277D01*
X45329887Y69283277D02*
X45425125Y69330896D01*
X45425125Y69330896D02*
X45520363Y69283277D01*
X45520363Y69283277D02*
X45567982Y69188039D01*
X45567982Y69188039D02*
X45520363Y69092800D01*
X45520363Y69092800D02*
X45425125Y69045181D01*
X45425125Y69045181D02*
X45329887Y69092800D01*
X53139411Y67195181D02*
X53710839Y67195181D01*
X53425125Y67195181D02*
X53425125Y68195181D01*
X53425125Y68195181D02*
X53520363Y68052324D01*
X53520363Y68052324D02*
X53615601Y67957086D01*
X53615601Y67957086D02*
X53710839Y67909467D01*
X52520363Y68195181D02*
X52425125Y68195181D01*
X52425125Y68195181D02*
X52329887Y68147562D01*
X52329887Y68147562D02*
X52282268Y68099943D01*
X52282268Y68099943D02*
X52234649Y68004705D01*
X52234649Y68004705D02*
X52187030Y67814229D01*
X52187030Y67814229D02*
X52187030Y67576134D01*
X52187030Y67576134D02*
X52234649Y67385658D01*
X52234649Y67385658D02*
X52282268Y67290420D01*
X52282268Y67290420D02*
X52329887Y67242800D01*
X52329887Y67242800D02*
X52425125Y67195181D01*
X52425125Y67195181D02*
X52520363Y67195181D01*
X52520363Y67195181D02*
X52615601Y67242800D01*
X52615601Y67242800D02*
X52663220Y67290420D01*
X52663220Y67290420D02*
X52710839Y67385658D01*
X52710839Y67385658D02*
X52758458Y67576134D01*
X52758458Y67576134D02*
X52758458Y67814229D01*
X52758458Y67814229D02*
X52710839Y68004705D01*
X52710839Y68004705D02*
X52663220Y68099943D01*
X52663220Y68099943D02*
X52615601Y68147562D01*
X52615601Y68147562D02*
X52520363Y68195181D01*
X51758458Y67195181D02*
X51758458Y68195181D01*
X51663220Y67576134D02*
X51377506Y67195181D01*
X51377506Y67861848D02*
X51758458Y67480896D01*
X53139411Y65345181D02*
X53710839Y65345181D01*
X53425125Y65345181D02*
X53425125Y66345181D01*
X53425125Y66345181D02*
X53520363Y66202324D01*
X53520363Y66202324D02*
X53615601Y66107086D01*
X53615601Y66107086D02*
X53710839Y66059467D01*
X52520363Y66345181D02*
X52425125Y66345181D01*
X52425125Y66345181D02*
X52329887Y66297562D01*
X52329887Y66297562D02*
X52282268Y66249943D01*
X52282268Y66249943D02*
X52234649Y66154705D01*
X52234649Y66154705D02*
X52187030Y65964229D01*
X52187030Y65964229D02*
X52187030Y65726134D01*
X52187030Y65726134D02*
X52234649Y65535658D01*
X52234649Y65535658D02*
X52282268Y65440420D01*
X52282268Y65440420D02*
X52329887Y65392800D01*
X52329887Y65392800D02*
X52425125Y65345181D01*
X52425125Y65345181D02*
X52520363Y65345181D01*
X52520363Y65345181D02*
X52615601Y65392800D01*
X52615601Y65392800D02*
X52663220Y65440420D01*
X52663220Y65440420D02*
X52710839Y65535658D01*
X52710839Y65535658D02*
X52758458Y65726134D01*
X52758458Y65726134D02*
X52758458Y65964229D01*
X52758458Y65964229D02*
X52710839Y66154705D01*
X52710839Y66154705D02*
X52663220Y66249943D01*
X52663220Y66249943D02*
X52615601Y66297562D01*
X52615601Y66297562D02*
X52520363Y66345181D01*
X51329887Y66011848D02*
X51329887Y65345181D01*
X51758458Y66011848D02*
X51758458Y65488039D01*
X51758458Y65488039D02*
X51710839Y65392800D01*
X51710839Y65392800D02*
X51615601Y65345181D01*
X51615601Y65345181D02*
X51472744Y65345181D01*
X51472744Y65345181D02*
X51377506Y65392800D01*
X51377506Y65392800D02*
X51329887Y65440420D01*
X50520363Y65868991D02*
X50853696Y65868991D01*
X50853696Y65345181D02*
X50853696Y66345181D01*
X50853696Y66345181D02*
X50377506Y66345181D01*
X48520363Y66392800D02*
X49377505Y65107086D01*
X46901315Y65345181D02*
X47472743Y65345181D01*
X47187029Y65345181D02*
X47187029Y66345181D01*
X47187029Y66345181D02*
X47282267Y66202324D01*
X47282267Y66202324D02*
X47377505Y66107086D01*
X47377505Y66107086D02*
X47472743Y66059467D01*
X46044172Y66345181D02*
X46234648Y66345181D01*
X46234648Y66345181D02*
X46329886Y66297562D01*
X46329886Y66297562D02*
X46377505Y66249943D01*
X46377505Y66249943D02*
X46472743Y66107086D01*
X46472743Y66107086D02*
X46520362Y65916610D01*
X46520362Y65916610D02*
X46520362Y65535658D01*
X46520362Y65535658D02*
X46472743Y65440420D01*
X46472743Y65440420D02*
X46425124Y65392800D01*
X46425124Y65392800D02*
X46329886Y65345181D01*
X46329886Y65345181D02*
X46139410Y65345181D01*
X46139410Y65345181D02*
X46044172Y65392800D01*
X46044172Y65392800D02*
X45996553Y65440420D01*
X45996553Y65440420D02*
X45948934Y65535658D01*
X45948934Y65535658D02*
X45948934Y65773753D01*
X45948934Y65773753D02*
X45996553Y65868991D01*
X45996553Y65868991D02*
X46044172Y65916610D01*
X46044172Y65916610D02*
X46139410Y65964229D01*
X46139410Y65964229D02*
X46329886Y65964229D01*
X46329886Y65964229D02*
X46425124Y65916610D01*
X46425124Y65916610D02*
X46472743Y65868991D01*
X46472743Y65868991D02*
X46520362Y65773753D01*
X45663219Y66345181D02*
X45329886Y65345181D01*
X45329886Y65345181D02*
X44996553Y66345181D01*
X53091792Y63495181D02*
X53425125Y63971372D01*
X53663220Y63495181D02*
X53663220Y64495181D01*
X53663220Y64495181D02*
X53282268Y64495181D01*
X53282268Y64495181D02*
X53187030Y64447562D01*
X53187030Y64447562D02*
X53139411Y64399943D01*
X53139411Y64399943D02*
X53091792Y64304705D01*
X53091792Y64304705D02*
X53091792Y64161848D01*
X53091792Y64161848D02*
X53139411Y64066610D01*
X53139411Y64066610D02*
X53187030Y64018991D01*
X53187030Y64018991D02*
X53282268Y63971372D01*
X53282268Y63971372D02*
X53663220Y63971372D01*
X52663220Y64018991D02*
X52329887Y64018991D01*
X52187030Y63495181D02*
X52663220Y63495181D01*
X52663220Y63495181D02*
X52663220Y64495181D01*
X52663220Y64495181D02*
X52187030Y64495181D01*
X51806077Y63542800D02*
X51663220Y63495181D01*
X51663220Y63495181D02*
X51425125Y63495181D01*
X51425125Y63495181D02*
X51329887Y63542800D01*
X51329887Y63542800D02*
X51282268Y63590420D01*
X51282268Y63590420D02*
X51234649Y63685658D01*
X51234649Y63685658D02*
X51234649Y63780896D01*
X51234649Y63780896D02*
X51282268Y63876134D01*
X51282268Y63876134D02*
X51329887Y63923753D01*
X51329887Y63923753D02*
X51425125Y63971372D01*
X51425125Y63971372D02*
X51615601Y64018991D01*
X51615601Y64018991D02*
X51710839Y64066610D01*
X51710839Y64066610D02*
X51758458Y64114229D01*
X51758458Y64114229D02*
X51806077Y64209467D01*
X51806077Y64209467D02*
X51806077Y64304705D01*
X51806077Y64304705D02*
X51758458Y64399943D01*
X51758458Y64399943D02*
X51710839Y64447562D01*
X51710839Y64447562D02*
X51615601Y64495181D01*
X51615601Y64495181D02*
X51377506Y64495181D01*
X51377506Y64495181D02*
X51234649Y64447562D01*
X50806077Y64018991D02*
X50472744Y64018991D01*
X50329887Y63495181D02*
X50806077Y63495181D01*
X50806077Y63495181D02*
X50806077Y64495181D01*
X50806077Y64495181D02*
X50329887Y64495181D01*
X50044172Y64495181D02*
X49472744Y64495181D01*
X49758458Y63495181D02*
X49758458Y64495181D01*
X47663220Y64542800D02*
X48520362Y63257086D01*
X46234648Y64018991D02*
X46091791Y63971372D01*
X46091791Y63971372D02*
X46044172Y63923753D01*
X46044172Y63923753D02*
X45996553Y63828515D01*
X45996553Y63828515D02*
X45996553Y63685658D01*
X45996553Y63685658D02*
X46044172Y63590420D01*
X46044172Y63590420D02*
X46091791Y63542800D01*
X46091791Y63542800D02*
X46187029Y63495181D01*
X46187029Y63495181D02*
X46567981Y63495181D01*
X46567981Y63495181D02*
X46567981Y64495181D01*
X46567981Y64495181D02*
X46234648Y64495181D01*
X46234648Y64495181D02*
X46139410Y64447562D01*
X46139410Y64447562D02*
X46091791Y64399943D01*
X46091791Y64399943D02*
X46044172Y64304705D01*
X46044172Y64304705D02*
X46044172Y64209467D01*
X46044172Y64209467D02*
X46091791Y64114229D01*
X46091791Y64114229D02*
X46139410Y64066610D01*
X46139410Y64066610D02*
X46234648Y64018991D01*
X46234648Y64018991D02*
X46567981Y64018991D01*
X45377505Y64495181D02*
X45187029Y64495181D01*
X45187029Y64495181D02*
X45091791Y64447562D01*
X45091791Y64447562D02*
X44996553Y64352324D01*
X44996553Y64352324D02*
X44948934Y64161848D01*
X44948934Y64161848D02*
X44948934Y63828515D01*
X44948934Y63828515D02*
X44996553Y63638039D01*
X44996553Y63638039D02*
X45091791Y63542800D01*
X45091791Y63542800D02*
X45187029Y63495181D01*
X45187029Y63495181D02*
X45377505Y63495181D01*
X45377505Y63495181D02*
X45472743Y63542800D01*
X45472743Y63542800D02*
X45567981Y63638039D01*
X45567981Y63638039D02*
X45615600Y63828515D01*
X45615600Y63828515D02*
X45615600Y64161848D01*
X45615600Y64161848D02*
X45567981Y64352324D01*
X45567981Y64352324D02*
X45472743Y64447562D01*
X45472743Y64447562D02*
X45377505Y64495181D01*
X44329886Y64495181D02*
X44139410Y64495181D01*
X44139410Y64495181D02*
X44044172Y64447562D01*
X44044172Y64447562D02*
X43948934Y64352324D01*
X43948934Y64352324D02*
X43901315Y64161848D01*
X43901315Y64161848D02*
X43901315Y63828515D01*
X43901315Y63828515D02*
X43948934Y63638039D01*
X43948934Y63638039D02*
X44044172Y63542800D01*
X44044172Y63542800D02*
X44139410Y63495181D01*
X44139410Y63495181D02*
X44329886Y63495181D01*
X44329886Y63495181D02*
X44425124Y63542800D01*
X44425124Y63542800D02*
X44520362Y63638039D01*
X44520362Y63638039D02*
X44567981Y63828515D01*
X44567981Y63828515D02*
X44567981Y64161848D01*
X44567981Y64161848D02*
X44520362Y64352324D01*
X44520362Y64352324D02*
X44425124Y64447562D01*
X44425124Y64447562D02*
X44329886Y64495181D01*
X43615600Y64495181D02*
X43044172Y64495181D01*
X43329886Y63495181D02*
X43329886Y64495181D01*
X41948933Y63495181D02*
X41948933Y64495181D01*
X41948933Y64114229D02*
X41853695Y64161848D01*
X41853695Y64161848D02*
X41663219Y64161848D01*
X41663219Y64161848D02*
X41567981Y64114229D01*
X41567981Y64114229D02*
X41520362Y64066610D01*
X41520362Y64066610D02*
X41472743Y63971372D01*
X41472743Y63971372D02*
X41472743Y63685658D01*
X41472743Y63685658D02*
X41520362Y63590420D01*
X41520362Y63590420D02*
X41567981Y63542800D01*
X41567981Y63542800D02*
X41663219Y63495181D01*
X41663219Y63495181D02*
X41853695Y63495181D01*
X41853695Y63495181D02*
X41948933Y63542800D01*
X40615600Y64161848D02*
X40615600Y63495181D01*
X41044171Y64161848D02*
X41044171Y63638039D01*
X41044171Y63638039D02*
X40996552Y63542800D01*
X40996552Y63542800D02*
X40901314Y63495181D01*
X40901314Y63495181D02*
X40758457Y63495181D01*
X40758457Y63495181D02*
X40663219Y63542800D01*
X40663219Y63542800D02*
X40615600Y63590420D01*
X40282266Y64161848D02*
X39901314Y64161848D01*
X40139409Y64495181D02*
X40139409Y63638039D01*
X40139409Y63638039D02*
X40091790Y63542800D01*
X40091790Y63542800D02*
X39996552Y63495181D01*
X39996552Y63495181D02*
X39901314Y63495181D01*
X39710837Y64161848D02*
X39329885Y64161848D01*
X39567980Y64495181D02*
X39567980Y63638039D01*
X39567980Y63638039D02*
X39520361Y63542800D01*
X39520361Y63542800D02*
X39425123Y63495181D01*
X39425123Y63495181D02*
X39329885Y63495181D01*
X38853694Y63495181D02*
X38948932Y63542800D01*
X38948932Y63542800D02*
X38996551Y63590420D01*
X38996551Y63590420D02*
X39044170Y63685658D01*
X39044170Y63685658D02*
X39044170Y63971372D01*
X39044170Y63971372D02*
X38996551Y64066610D01*
X38996551Y64066610D02*
X38948932Y64114229D01*
X38948932Y64114229D02*
X38853694Y64161848D01*
X38853694Y64161848D02*
X38710837Y64161848D01*
X38710837Y64161848D02*
X38615599Y64114229D01*
X38615599Y64114229D02*
X38567980Y64066610D01*
X38567980Y64066610D02*
X38520361Y63971372D01*
X38520361Y63971372D02*
X38520361Y63685658D01*
X38520361Y63685658D02*
X38567980Y63590420D01*
X38567980Y63590420D02*
X38615599Y63542800D01*
X38615599Y63542800D02*
X38710837Y63495181D01*
X38710837Y63495181D02*
X38853694Y63495181D01*
X38091789Y64161848D02*
X38091789Y63495181D01*
X38091789Y64066610D02*
X38044170Y64114229D01*
X38044170Y64114229D02*
X37948932Y64161848D01*
X37948932Y64161848D02*
X37806075Y64161848D01*
X37806075Y64161848D02*
X37710837Y64114229D01*
X37710837Y64114229D02*
X37663218Y64018991D01*
X37663218Y64018991D02*
X37663218Y63495181D01*
X37234646Y63542800D02*
X37139408Y63495181D01*
X37139408Y63495181D02*
X36948932Y63495181D01*
X36948932Y63495181D02*
X36853694Y63542800D01*
X36853694Y63542800D02*
X36806075Y63638039D01*
X36806075Y63638039D02*
X36806075Y63685658D01*
X36806075Y63685658D02*
X36853694Y63780896D01*
X36853694Y63780896D02*
X36948932Y63828515D01*
X36948932Y63828515D02*
X37091789Y63828515D01*
X37091789Y63828515D02*
X37187027Y63876134D01*
X37187027Y63876134D02*
X37234646Y63971372D01*
X37234646Y63971372D02*
X37234646Y64018991D01*
X37234646Y64018991D02*
X37187027Y64114229D01*
X37187027Y64114229D02*
X37091789Y64161848D01*
X37091789Y64161848D02*
X36948932Y64161848D01*
X36948932Y64161848D02*
X36853694Y64114229D01*
X53139411Y61645181D02*
X53710839Y61645181D01*
X53425125Y61645181D02*
X53425125Y62645181D01*
X53425125Y62645181D02*
X53520363Y62502324D01*
X53520363Y62502324D02*
X53615601Y62407086D01*
X53615601Y62407086D02*
X53710839Y62359467D01*
X52710839Y61645181D02*
X52710839Y62645181D01*
X52710839Y62645181D02*
X52377506Y61930896D01*
X52377506Y61930896D02*
X52044173Y62645181D01*
X52044173Y62645181D02*
X52044173Y61645181D01*
X50091792Y62692800D02*
X50948934Y61407086D01*
X48472744Y61645181D02*
X49044172Y61645181D01*
X48758458Y61645181D02*
X48758458Y62645181D01*
X48758458Y62645181D02*
X48853696Y62502324D01*
X48853696Y62502324D02*
X48948934Y62407086D01*
X48948934Y62407086D02*
X49044172Y62359467D01*
X48091791Y61645181D02*
X47329887Y62645181D01*
X47948934Y62645181D02*
X47853696Y62597562D01*
X47853696Y62597562D02*
X47806077Y62502324D01*
X47806077Y62502324D02*
X47853696Y62407086D01*
X47853696Y62407086D02*
X47948934Y62359467D01*
X47948934Y62359467D02*
X48044172Y62407086D01*
X48044172Y62407086D02*
X48091791Y62502324D01*
X48091791Y62502324D02*
X48044172Y62597562D01*
X48044172Y62597562D02*
X47948934Y62645181D01*
X47377506Y61692800D02*
X47329887Y61788039D01*
X47329887Y61788039D02*
X47377506Y61883277D01*
X47377506Y61883277D02*
X47472744Y61930896D01*
X47472744Y61930896D02*
X47567982Y61883277D01*
X47567982Y61883277D02*
X47615601Y61788039D01*
X47615601Y61788039D02*
X47567982Y61692800D01*
X47567982Y61692800D02*
X47472744Y61645181D01*
X47472744Y61645181D02*
X47377506Y61692800D01*
X53234649Y60461848D02*
X53234649Y59795181D01*
X53472744Y60842800D02*
X53710839Y60128515D01*
X53710839Y60128515D02*
X53091792Y60128515D01*
X52806077Y60795181D02*
X52139411Y60795181D01*
X52139411Y60795181D02*
X52567982Y59795181D01*
X51758458Y59795181D02*
X51758458Y60795181D01*
X51663220Y60176134D02*
X51377506Y59795181D01*
X51377506Y60461848D02*
X51758458Y60080896D01*
X49472744Y60842800D02*
X50329886Y59557086D01*
X47853696Y59795181D02*
X48425124Y59795181D01*
X48139410Y59795181D02*
X48139410Y60795181D01*
X48139410Y60795181D02*
X48234648Y60652324D01*
X48234648Y60652324D02*
X48329886Y60557086D01*
X48329886Y60557086D02*
X48425124Y60509467D01*
X47472743Y59795181D02*
X46710839Y60795181D01*
X47329886Y60795181D02*
X47234648Y60747562D01*
X47234648Y60747562D02*
X47187029Y60652324D01*
X47187029Y60652324D02*
X47234648Y60557086D01*
X47234648Y60557086D02*
X47329886Y60509467D01*
X47329886Y60509467D02*
X47425124Y60557086D01*
X47425124Y60557086D02*
X47472743Y60652324D01*
X47472743Y60652324D02*
X47425124Y60747562D01*
X47425124Y60747562D02*
X47329886Y60795181D01*
X46758458Y59842800D02*
X46710839Y59938039D01*
X46710839Y59938039D02*
X46758458Y60033277D01*
X46758458Y60033277D02*
X46853696Y60080896D01*
X46853696Y60080896D02*
X46948934Y60033277D01*
X46948934Y60033277D02*
X46996553Y59938039D01*
X46996553Y59938039D02*
X46948934Y59842800D01*
X46948934Y59842800D02*
X46853696Y59795181D01*
X46853696Y59795181D02*
X46758458Y59842800D01*
X53139411Y57945181D02*
X53710839Y57945181D01*
X53425125Y57945181D02*
X53425125Y58945181D01*
X53425125Y58945181D02*
X53520363Y58802324D01*
X53520363Y58802324D02*
X53615601Y58707086D01*
X53615601Y58707086D02*
X53710839Y58659467D01*
X52710839Y57945181D02*
X52710839Y58945181D01*
X52615601Y58326134D02*
X52329887Y57945181D01*
X52329887Y58611848D02*
X52710839Y58230896D01*
X53139411Y57047562D02*
X53234649Y57095181D01*
X53234649Y57095181D02*
X53377506Y57095181D01*
X53377506Y57095181D02*
X53520363Y57047562D01*
X53520363Y57047562D02*
X53615601Y56952324D01*
X53615601Y56952324D02*
X53663220Y56857086D01*
X53663220Y56857086D02*
X53710839Y56666610D01*
X53710839Y56666610D02*
X53710839Y56523753D01*
X53710839Y56523753D02*
X53663220Y56333277D01*
X53663220Y56333277D02*
X53615601Y56238039D01*
X53615601Y56238039D02*
X53520363Y56142800D01*
X53520363Y56142800D02*
X53377506Y56095181D01*
X53377506Y56095181D02*
X53282268Y56095181D01*
X53282268Y56095181D02*
X53139411Y56142800D01*
X53139411Y56142800D02*
X53091792Y56190420D01*
X53091792Y56190420D02*
X53091792Y56523753D01*
X53091792Y56523753D02*
X53282268Y56523753D01*
X52091792Y56095181D02*
X52425125Y56571372D01*
X52663220Y56095181D02*
X52663220Y57095181D01*
X52663220Y57095181D02*
X52282268Y57095181D01*
X52282268Y57095181D02*
X52187030Y57047562D01*
X52187030Y57047562D02*
X52139411Y56999943D01*
X52139411Y56999943D02*
X52091792Y56904705D01*
X52091792Y56904705D02*
X52091792Y56761848D01*
X52091792Y56761848D02*
X52139411Y56666610D01*
X52139411Y56666610D02*
X52187030Y56618991D01*
X52187030Y56618991D02*
X52282268Y56571372D01*
X52282268Y56571372D02*
X52663220Y56571372D01*
X51663220Y56618991D02*
X51329887Y56618991D01*
X51187030Y56095181D02*
X51663220Y56095181D01*
X51663220Y56095181D02*
X51663220Y57095181D01*
X51663220Y57095181D02*
X51187030Y57095181D01*
X50758458Y56618991D02*
X50425125Y56618991D01*
X50282268Y56095181D02*
X50758458Y56095181D01*
X50758458Y56095181D02*
X50758458Y57095181D01*
X50758458Y57095181D02*
X50282268Y57095181D01*
X49853696Y56095181D02*
X49853696Y57095181D01*
X49853696Y57095181D02*
X49282268Y56095181D01*
X49282268Y56095181D02*
X49282268Y57095181D01*
X47329887Y57142800D02*
X48187029Y55857086D01*
X46282267Y56142800D02*
X46187029Y56095181D01*
X46187029Y56095181D02*
X45996553Y56095181D01*
X45996553Y56095181D02*
X45901315Y56142800D01*
X45901315Y56142800D02*
X45853696Y56238039D01*
X45853696Y56238039D02*
X45853696Y56285658D01*
X45853696Y56285658D02*
X45901315Y56380896D01*
X45901315Y56380896D02*
X45996553Y56428515D01*
X45996553Y56428515D02*
X46139410Y56428515D01*
X46139410Y56428515D02*
X46234648Y56476134D01*
X46234648Y56476134D02*
X46282267Y56571372D01*
X46282267Y56571372D02*
X46282267Y56618991D01*
X46282267Y56618991D02*
X46234648Y56714229D01*
X46234648Y56714229D02*
X46139410Y56761848D01*
X46139410Y56761848D02*
X45996553Y56761848D01*
X45996553Y56761848D02*
X45901315Y56714229D01*
X45567981Y56761848D02*
X45187029Y56761848D01*
X45425124Y57095181D02*
X45425124Y56238039D01*
X45425124Y56238039D02*
X45377505Y56142800D01*
X45377505Y56142800D02*
X45282267Y56095181D01*
X45282267Y56095181D02*
X45187029Y56095181D01*
X44425124Y56095181D02*
X44425124Y56618991D01*
X44425124Y56618991D02*
X44472743Y56714229D01*
X44472743Y56714229D02*
X44567981Y56761848D01*
X44567981Y56761848D02*
X44758457Y56761848D01*
X44758457Y56761848D02*
X44853695Y56714229D01*
X44425124Y56142800D02*
X44520362Y56095181D01*
X44520362Y56095181D02*
X44758457Y56095181D01*
X44758457Y56095181D02*
X44853695Y56142800D01*
X44853695Y56142800D02*
X44901314Y56238039D01*
X44901314Y56238039D02*
X44901314Y56333277D01*
X44901314Y56333277D02*
X44853695Y56428515D01*
X44853695Y56428515D02*
X44758457Y56476134D01*
X44758457Y56476134D02*
X44520362Y56476134D01*
X44520362Y56476134D02*
X44425124Y56523753D01*
X44091790Y56761848D02*
X43710838Y56761848D01*
X43948933Y57095181D02*
X43948933Y56238039D01*
X43948933Y56238039D02*
X43901314Y56142800D01*
X43901314Y56142800D02*
X43806076Y56095181D01*
X43806076Y56095181D02*
X43710838Y56095181D01*
X42948933Y56761848D02*
X42948933Y56095181D01*
X43377504Y56761848D02*
X43377504Y56238039D01*
X43377504Y56238039D02*
X43329885Y56142800D01*
X43329885Y56142800D02*
X43234647Y56095181D01*
X43234647Y56095181D02*
X43091790Y56095181D01*
X43091790Y56095181D02*
X42996552Y56142800D01*
X42996552Y56142800D02*
X42948933Y56190420D01*
X42520361Y56142800D02*
X42425123Y56095181D01*
X42425123Y56095181D02*
X42234647Y56095181D01*
X42234647Y56095181D02*
X42139409Y56142800D01*
X42139409Y56142800D02*
X42091790Y56238039D01*
X42091790Y56238039D02*
X42091790Y56285658D01*
X42091790Y56285658D02*
X42139409Y56380896D01*
X42139409Y56380896D02*
X42234647Y56428515D01*
X42234647Y56428515D02*
X42377504Y56428515D01*
X42377504Y56428515D02*
X42472742Y56476134D01*
X42472742Y56476134D02*
X42520361Y56571372D01*
X42520361Y56571372D02*
X42520361Y56618991D01*
X42520361Y56618991D02*
X42472742Y56714229D01*
X42472742Y56714229D02*
X42377504Y56761848D01*
X42377504Y56761848D02*
X42234647Y56761848D01*
X42234647Y56761848D02*
X42139409Y56714229D01*
X53806077Y55245181D02*
X53234649Y55245181D01*
X53520363Y54245181D02*
X53520363Y55245181D01*
X52329887Y54340420D02*
X52377506Y54292800D01*
X52377506Y54292800D02*
X52520363Y54245181D01*
X52520363Y54245181D02*
X52615601Y54245181D01*
X52615601Y54245181D02*
X52758458Y54292800D01*
X52758458Y54292800D02*
X52853696Y54388039D01*
X52853696Y54388039D02*
X52901315Y54483277D01*
X52901315Y54483277D02*
X52948934Y54673753D01*
X52948934Y54673753D02*
X52948934Y54816610D01*
X52948934Y54816610D02*
X52901315Y55007086D01*
X52901315Y55007086D02*
X52853696Y55102324D01*
X52853696Y55102324D02*
X52758458Y55197562D01*
X52758458Y55197562D02*
X52615601Y55245181D01*
X52615601Y55245181D02*
X52520363Y55245181D01*
X52520363Y55245181D02*
X52377506Y55197562D01*
X52377506Y55197562D02*
X52329887Y55149943D01*
X51948934Y54530896D02*
X51472744Y54530896D01*
X52044172Y54245181D02*
X51710839Y55245181D01*
X51710839Y55245181D02*
X51377506Y54245181D01*
X51044172Y54245181D02*
X51044172Y55245181D01*
X51044172Y55245181D02*
X50472744Y54245181D01*
X50472744Y54245181D02*
X50472744Y55245181D01*
X50091791Y55245181D02*
X49472744Y55245181D01*
X49472744Y55245181D02*
X49806077Y54864229D01*
X49806077Y54864229D02*
X49663220Y54864229D01*
X49663220Y54864229D02*
X49567982Y54816610D01*
X49567982Y54816610D02*
X49520363Y54768991D01*
X49520363Y54768991D02*
X49472744Y54673753D01*
X49472744Y54673753D02*
X49472744Y54435658D01*
X49472744Y54435658D02*
X49520363Y54340420D01*
X49520363Y54340420D02*
X49567982Y54292800D01*
X49567982Y54292800D02*
X49663220Y54245181D01*
X49663220Y54245181D02*
X49948934Y54245181D01*
X49948934Y54245181D02*
X50044172Y54292800D01*
X50044172Y54292800D02*
X50091791Y54340420D01*
X48615601Y54911848D02*
X48615601Y54245181D01*
X48853696Y55292800D02*
X49091791Y54578515D01*
X49091791Y54578515D02*
X48472744Y54578515D01*
X47901315Y55245181D02*
X47806077Y55245181D01*
X47806077Y55245181D02*
X47710839Y55197562D01*
X47710839Y55197562D02*
X47663220Y55149943D01*
X47663220Y55149943D02*
X47615601Y55054705D01*
X47615601Y55054705D02*
X47567982Y54864229D01*
X47567982Y54864229D02*
X47567982Y54626134D01*
X47567982Y54626134D02*
X47615601Y54435658D01*
X47615601Y54435658D02*
X47663220Y54340420D01*
X47663220Y54340420D02*
X47710839Y54292800D01*
X47710839Y54292800D02*
X47806077Y54245181D01*
X47806077Y54245181D02*
X47901315Y54245181D01*
X47901315Y54245181D02*
X47996553Y54292800D01*
X47996553Y54292800D02*
X48044172Y54340420D01*
X48044172Y54340420D02*
X48091791Y54435658D01*
X48091791Y54435658D02*
X48139410Y54626134D01*
X48139410Y54626134D02*
X48139410Y54864229D01*
X48139410Y54864229D02*
X48091791Y55054705D01*
X48091791Y55054705D02*
X48044172Y55149943D01*
X48044172Y55149943D02*
X47996553Y55197562D01*
X47996553Y55197562D02*
X47901315Y55245181D01*
X46710839Y54911848D02*
X46710839Y54245181D01*
X46948934Y55292800D02*
X47187029Y54578515D01*
X47187029Y54578515D02*
X46567982Y54578515D01*
X46187029Y54245181D02*
X46187029Y55245181D01*
X46187029Y55245181D02*
X45948934Y55245181D01*
X45948934Y55245181D02*
X45806077Y55197562D01*
X45806077Y55197562D02*
X45710839Y55102324D01*
X45710839Y55102324D02*
X45663220Y55007086D01*
X45663220Y55007086D02*
X45615601Y54816610D01*
X45615601Y54816610D02*
X45615601Y54673753D01*
X45615601Y54673753D02*
X45663220Y54483277D01*
X45663220Y54483277D02*
X45710839Y54388039D01*
X45710839Y54388039D02*
X45806077Y54292800D01*
X45806077Y54292800D02*
X45948934Y54245181D01*
X45948934Y54245181D02*
X46187029Y54245181D01*
X44615601Y54245181D02*
X44948934Y54721372D01*
X45187029Y54245181D02*
X45187029Y55245181D01*
X45187029Y55245181D02*
X44806077Y55245181D01*
X44806077Y55245181D02*
X44710839Y55197562D01*
X44710839Y55197562D02*
X44663220Y55149943D01*
X44663220Y55149943D02*
X44615601Y55054705D01*
X44615601Y55054705D02*
X44615601Y54911848D01*
X44615601Y54911848D02*
X44663220Y54816610D01*
X44663220Y54816610D02*
X44710839Y54768991D01*
X44710839Y54768991D02*
X44806077Y54721372D01*
X44806077Y54721372D02*
X45187029Y54721372D01*
X43520363Y54149943D02*
X43615601Y54197562D01*
X43615601Y54197562D02*
X43710839Y54292800D01*
X43710839Y54292800D02*
X43853696Y54435658D01*
X43853696Y54435658D02*
X43948934Y54483277D01*
X43948934Y54483277D02*
X44044172Y54483277D01*
X43996553Y54245181D02*
X44091791Y54292800D01*
X44091791Y54292800D02*
X44187029Y54388039D01*
X44187029Y54388039D02*
X44234648Y54578515D01*
X44234648Y54578515D02*
X44234648Y54911848D01*
X44234648Y54911848D02*
X44187029Y55102324D01*
X44187029Y55102324D02*
X44091791Y55197562D01*
X44091791Y55197562D02*
X43996553Y55245181D01*
X43996553Y55245181D02*
X43806077Y55245181D01*
X43806077Y55245181D02*
X43710839Y55197562D01*
X43710839Y55197562D02*
X43615601Y55102324D01*
X43615601Y55102324D02*
X43567982Y54911848D01*
X43567982Y54911848D02*
X43567982Y54578515D01*
X43567982Y54578515D02*
X43615601Y54388039D01*
X43615601Y54388039D02*
X43710839Y54292800D01*
X43710839Y54292800D02*
X43806077Y54245181D01*
X43806077Y54245181D02*
X43996553Y54245181D01*
X42615601Y54245181D02*
X43187029Y54245181D01*
X42901315Y54245181D02*
X42901315Y55245181D01*
X42901315Y55245181D02*
X42996553Y55102324D01*
X42996553Y55102324D02*
X43091791Y55007086D01*
X43091791Y55007086D02*
X43187029Y54959467D01*
X53663220Y52395181D02*
X53663220Y53395181D01*
X53663220Y53395181D02*
X53282268Y53395181D01*
X53282268Y53395181D02*
X53187030Y53347562D01*
X53187030Y53347562D02*
X53139411Y53299943D01*
X53139411Y53299943D02*
X53091792Y53204705D01*
X53091792Y53204705D02*
X53091792Y53061848D01*
X53091792Y53061848D02*
X53139411Y52966610D01*
X53139411Y52966610D02*
X53187030Y52918991D01*
X53187030Y52918991D02*
X53282268Y52871372D01*
X53282268Y52871372D02*
X53663220Y52871372D01*
X52663220Y52918991D02*
X52329887Y52918991D01*
X52187030Y52395181D02*
X52663220Y52395181D01*
X52663220Y52395181D02*
X52663220Y53395181D01*
X52663220Y53395181D02*
X52187030Y53395181D01*
X51806077Y52442800D02*
X51663220Y52395181D01*
X51663220Y52395181D02*
X51425125Y52395181D01*
X51425125Y52395181D02*
X51329887Y52442800D01*
X51329887Y52442800D02*
X51282268Y52490420D01*
X51282268Y52490420D02*
X51234649Y52585658D01*
X51234649Y52585658D02*
X51234649Y52680896D01*
X51234649Y52680896D02*
X51282268Y52776134D01*
X51282268Y52776134D02*
X51329887Y52823753D01*
X51329887Y52823753D02*
X51425125Y52871372D01*
X51425125Y52871372D02*
X51615601Y52918991D01*
X51615601Y52918991D02*
X51710839Y52966610D01*
X51710839Y52966610D02*
X51758458Y53014229D01*
X51758458Y53014229D02*
X51806077Y53109467D01*
X51806077Y53109467D02*
X51806077Y53204705D01*
X51806077Y53204705D02*
X51758458Y53299943D01*
X51758458Y53299943D02*
X51710839Y53347562D01*
X51710839Y53347562D02*
X51615601Y53395181D01*
X51615601Y53395181D02*
X51377506Y53395181D01*
X51377506Y53395181D02*
X51234649Y53347562D01*
X50806077Y52395181D02*
X50806077Y53395181D01*
X50806077Y53395181D02*
X50567982Y53395181D01*
X50567982Y53395181D02*
X50425125Y53347562D01*
X50425125Y53347562D02*
X50329887Y53252324D01*
X50329887Y53252324D02*
X50282268Y53157086D01*
X50282268Y53157086D02*
X50234649Y52966610D01*
X50234649Y52966610D02*
X50234649Y52823753D01*
X50234649Y52823753D02*
X50282268Y52633277D01*
X50282268Y52633277D02*
X50329887Y52538039D01*
X50329887Y52538039D02*
X50425125Y52442800D01*
X50425125Y52442800D02*
X50567982Y52395181D01*
X50567982Y52395181D02*
X50806077Y52395181D01*
X49853696Y53299943D02*
X49806077Y53347562D01*
X49806077Y53347562D02*
X49710839Y53395181D01*
X49710839Y53395181D02*
X49472744Y53395181D01*
X49472744Y53395181D02*
X49377506Y53347562D01*
X49377506Y53347562D02*
X49329887Y53299943D01*
X49329887Y53299943D02*
X49282268Y53204705D01*
X49282268Y53204705D02*
X49282268Y53109467D01*
X49282268Y53109467D02*
X49329887Y52966610D01*
X49329887Y52966610D02*
X49901315Y52395181D01*
X49901315Y52395181D02*
X49282268Y52395181D01*
X48282268Y52490420D02*
X48329887Y52442800D01*
X48329887Y52442800D02*
X48472744Y52395181D01*
X48472744Y52395181D02*
X48567982Y52395181D01*
X48567982Y52395181D02*
X48710839Y52442800D01*
X48710839Y52442800D02*
X48806077Y52538039D01*
X48806077Y52538039D02*
X48853696Y52633277D01*
X48853696Y52633277D02*
X48901315Y52823753D01*
X48901315Y52823753D02*
X48901315Y52966610D01*
X48901315Y52966610D02*
X48853696Y53157086D01*
X48853696Y53157086D02*
X48806077Y53252324D01*
X48806077Y53252324D02*
X48710839Y53347562D01*
X48710839Y53347562D02*
X48567982Y53395181D01*
X48567982Y53395181D02*
X48472744Y53395181D01*
X48472744Y53395181D02*
X48329887Y53347562D01*
X48329887Y53347562D02*
X48282268Y53299943D01*
X47901315Y52680896D02*
X47425125Y52680896D01*
X47996553Y52395181D02*
X47663220Y53395181D01*
X47663220Y53395181D02*
X47329887Y52395181D01*
X46996553Y52395181D02*
X46996553Y53395181D01*
X46996553Y53395181D02*
X46425125Y52395181D01*
X46425125Y52395181D02*
X46425125Y53395181D01*
X53758458Y51545181D02*
X53139411Y51545181D01*
X53139411Y51545181D02*
X53472744Y51164229D01*
X53472744Y51164229D02*
X53329887Y51164229D01*
X53329887Y51164229D02*
X53234649Y51116610D01*
X53234649Y51116610D02*
X53187030Y51068991D01*
X53187030Y51068991D02*
X53139411Y50973753D01*
X53139411Y50973753D02*
X53139411Y50735658D01*
X53139411Y50735658D02*
X53187030Y50640420D01*
X53187030Y50640420D02*
X53234649Y50592800D01*
X53234649Y50592800D02*
X53329887Y50545181D01*
X53329887Y50545181D02*
X53615601Y50545181D01*
X53615601Y50545181D02*
X53710839Y50592800D01*
X53710839Y50592800D02*
X53758458Y50640420D01*
X52710839Y50926134D02*
X51948935Y50926134D01*
X51472744Y51211848D02*
X51472744Y50211848D01*
X51472744Y51164229D02*
X51377506Y51211848D01*
X51377506Y51211848D02*
X51187030Y51211848D01*
X51187030Y51211848D02*
X51091792Y51164229D01*
X51091792Y51164229D02*
X51044173Y51116610D01*
X51044173Y51116610D02*
X50996554Y51021372D01*
X50996554Y51021372D02*
X50996554Y50735658D01*
X50996554Y50735658D02*
X51044173Y50640420D01*
X51044173Y50640420D02*
X51091792Y50592800D01*
X51091792Y50592800D02*
X51187030Y50545181D01*
X51187030Y50545181D02*
X51377506Y50545181D01*
X51377506Y50545181D02*
X51472744Y50592800D01*
X50567982Y50545181D02*
X50567982Y51211848D01*
X50567982Y51545181D02*
X50615601Y51497562D01*
X50615601Y51497562D02*
X50567982Y51449943D01*
X50567982Y51449943D02*
X50520363Y51497562D01*
X50520363Y51497562D02*
X50567982Y51545181D01*
X50567982Y51545181D02*
X50567982Y51449943D01*
X50091792Y51211848D02*
X50091792Y50545181D01*
X50091792Y51116610D02*
X50044173Y51164229D01*
X50044173Y51164229D02*
X49948935Y51211848D01*
X49948935Y51211848D02*
X49806078Y51211848D01*
X49806078Y51211848D02*
X49710840Y51164229D01*
X49710840Y51164229D02*
X49663221Y51068991D01*
X49663221Y51068991D02*
X49663221Y50545181D01*
X48425125Y51545181D02*
X48425125Y50735658D01*
X48425125Y50735658D02*
X48377506Y50640420D01*
X48377506Y50640420D02*
X48329887Y50592800D01*
X48329887Y50592800D02*
X48234649Y50545181D01*
X48234649Y50545181D02*
X48044173Y50545181D01*
X48044173Y50545181D02*
X47948935Y50592800D01*
X47948935Y50592800D02*
X47901316Y50640420D01*
X47901316Y50640420D02*
X47853697Y50735658D01*
X47853697Y50735658D02*
X47853697Y51545181D01*
X47425125Y50830896D02*
X46948935Y50830896D01*
X47520363Y50545181D02*
X47187030Y51545181D01*
X47187030Y51545181D02*
X46853697Y50545181D01*
X45948935Y50545181D02*
X46282268Y51021372D01*
X46520363Y50545181D02*
X46520363Y51545181D01*
X46520363Y51545181D02*
X46139411Y51545181D01*
X46139411Y51545181D02*
X46044173Y51497562D01*
X46044173Y51497562D02*
X45996554Y51449943D01*
X45996554Y51449943D02*
X45948935Y51354705D01*
X45948935Y51354705D02*
X45948935Y51211848D01*
X45948935Y51211848D02*
X45996554Y51116610D01*
X45996554Y51116610D02*
X46044173Y51068991D01*
X46044173Y51068991D02*
X46139411Y51021372D01*
X46139411Y51021372D02*
X46520363Y51021372D01*
X45663220Y51545181D02*
X45091792Y51545181D01*
X45377506Y50545181D02*
X45377506Y51545181D01*
X53234649Y49361848D02*
X53234649Y48695181D01*
X53472744Y49742800D02*
X53710839Y49028515D01*
X53710839Y49028515D02*
X53091792Y49028515D01*
X52806077Y49695181D02*
X52139411Y49695181D01*
X52139411Y49695181D02*
X52567982Y48695181D01*
X51329887Y49361848D02*
X51329887Y48695181D01*
X51758458Y49361848D02*
X51758458Y48838039D01*
X51758458Y48838039D02*
X51710839Y48742800D01*
X51710839Y48742800D02*
X51615601Y48695181D01*
X51615601Y48695181D02*
X51472744Y48695181D01*
X51472744Y48695181D02*
X51377506Y48742800D01*
X51377506Y48742800D02*
X51329887Y48790420D01*
X50520363Y49218991D02*
X50853696Y49218991D01*
X50853696Y48695181D02*
X50853696Y49695181D01*
X50853696Y49695181D02*
X50377506Y49695181D01*
X48520363Y49742800D02*
X49377505Y48457086D01*
X46996553Y49695181D02*
X47187029Y49695181D01*
X47187029Y49695181D02*
X47282267Y49647562D01*
X47282267Y49647562D02*
X47329886Y49599943D01*
X47329886Y49599943D02*
X47425124Y49457086D01*
X47425124Y49457086D02*
X47472743Y49266610D01*
X47472743Y49266610D02*
X47472743Y48885658D01*
X47472743Y48885658D02*
X47425124Y48790420D01*
X47425124Y48790420D02*
X47377505Y48742800D01*
X47377505Y48742800D02*
X47282267Y48695181D01*
X47282267Y48695181D02*
X47091791Y48695181D01*
X47091791Y48695181D02*
X46996553Y48742800D01*
X46996553Y48742800D02*
X46948934Y48790420D01*
X46948934Y48790420D02*
X46901315Y48885658D01*
X46901315Y48885658D02*
X46901315Y49123753D01*
X46901315Y49123753D02*
X46948934Y49218991D01*
X46948934Y49218991D02*
X46996553Y49266610D01*
X46996553Y49266610D02*
X47091791Y49314229D01*
X47091791Y49314229D02*
X47282267Y49314229D01*
X47282267Y49314229D02*
X47377505Y49266610D01*
X47377505Y49266610D02*
X47425124Y49218991D01*
X47425124Y49218991D02*
X47472743Y49123753D01*
X46567981Y49695181D02*
X45948934Y49695181D01*
X45948934Y49695181D02*
X46282267Y49314229D01*
X46282267Y49314229D02*
X46139410Y49314229D01*
X46139410Y49314229D02*
X46044172Y49266610D01*
X46044172Y49266610D02*
X45996553Y49218991D01*
X45996553Y49218991D02*
X45948934Y49123753D01*
X45948934Y49123753D02*
X45948934Y48885658D01*
X45948934Y48885658D02*
X45996553Y48790420D01*
X45996553Y48790420D02*
X46044172Y48742800D01*
X46044172Y48742800D02*
X46139410Y48695181D01*
X46139410Y48695181D02*
X46425124Y48695181D01*
X46425124Y48695181D02*
X46520362Y48742800D01*
X46520362Y48742800D02*
X46567981Y48790420D01*
X45663219Y49695181D02*
X45329886Y48695181D01*
X45329886Y48695181D02*
X44996553Y49695181D01*
X53139411Y46845181D02*
X53710839Y46845181D01*
X53425125Y46845181D02*
X53425125Y47845181D01*
X53425125Y47845181D02*
X53520363Y47702324D01*
X53520363Y47702324D02*
X53615601Y47607086D01*
X53615601Y47607086D02*
X53710839Y47559467D01*
X52139411Y46845181D02*
X52472744Y47321372D01*
X52710839Y46845181D02*
X52710839Y47845181D01*
X52710839Y47845181D02*
X52329887Y47845181D01*
X52329887Y47845181D02*
X52234649Y47797562D01*
X52234649Y47797562D02*
X52187030Y47749943D01*
X52187030Y47749943D02*
X52139411Y47654705D01*
X52139411Y47654705D02*
X52139411Y47511848D01*
X52139411Y47511848D02*
X52187030Y47416610D01*
X52187030Y47416610D02*
X52234649Y47368991D01*
X52234649Y47368991D02*
X52329887Y47321372D01*
X52329887Y47321372D02*
X52710839Y47321372D01*
X50234649Y47892800D02*
X51091791Y46607086D01*
X48615601Y46845181D02*
X49187029Y46845181D01*
X48901315Y46845181D02*
X48901315Y47845181D01*
X48901315Y47845181D02*
X48996553Y47702324D01*
X48996553Y47702324D02*
X49091791Y47607086D01*
X49091791Y47607086D02*
X49187029Y47559467D01*
X48187029Y46940420D02*
X48139410Y46892800D01*
X48139410Y46892800D02*
X48187029Y46845181D01*
X48187029Y46845181D02*
X48234648Y46892800D01*
X48234648Y46892800D02*
X48187029Y46940420D01*
X48187029Y46940420D02*
X48187029Y46845181D01*
X47234649Y47845181D02*
X47710839Y47845181D01*
X47710839Y47845181D02*
X47758458Y47368991D01*
X47758458Y47368991D02*
X47710839Y47416610D01*
X47710839Y47416610D02*
X47615601Y47464229D01*
X47615601Y47464229D02*
X47377506Y47464229D01*
X47377506Y47464229D02*
X47282268Y47416610D01*
X47282268Y47416610D02*
X47234649Y47368991D01*
X47234649Y47368991D02*
X47187030Y47273753D01*
X47187030Y47273753D02*
X47187030Y47035658D01*
X47187030Y47035658D02*
X47234649Y46940420D01*
X47234649Y46940420D02*
X47282268Y46892800D01*
X47282268Y46892800D02*
X47377506Y46845181D01*
X47377506Y46845181D02*
X47615601Y46845181D01*
X47615601Y46845181D02*
X47710839Y46892800D01*
X47710839Y46892800D02*
X47758458Y46940420D01*
X46853696Y47845181D02*
X46615601Y46845181D01*
X46615601Y46845181D02*
X46425125Y47559467D01*
X46425125Y47559467D02*
X46234649Y46845181D01*
X46234649Y46845181D02*
X45996554Y47845181D01*
X53234649Y45995181D02*
X53425125Y45995181D01*
X53425125Y45995181D02*
X53520363Y45947562D01*
X53520363Y45947562D02*
X53567982Y45899943D01*
X53567982Y45899943D02*
X53663220Y45757086D01*
X53663220Y45757086D02*
X53710839Y45566610D01*
X53710839Y45566610D02*
X53710839Y45185658D01*
X53710839Y45185658D02*
X53663220Y45090420D01*
X53663220Y45090420D02*
X53615601Y45042800D01*
X53615601Y45042800D02*
X53520363Y44995181D01*
X53520363Y44995181D02*
X53329887Y44995181D01*
X53329887Y44995181D02*
X53234649Y45042800D01*
X53234649Y45042800D02*
X53187030Y45090420D01*
X53187030Y45090420D02*
X53139411Y45185658D01*
X53139411Y45185658D02*
X53139411Y45423753D01*
X53139411Y45423753D02*
X53187030Y45518991D01*
X53187030Y45518991D02*
X53234649Y45566610D01*
X53234649Y45566610D02*
X53329887Y45614229D01*
X53329887Y45614229D02*
X53520363Y45614229D01*
X53520363Y45614229D02*
X53615601Y45566610D01*
X53615601Y45566610D02*
X53663220Y45518991D01*
X53663220Y45518991D02*
X53710839Y45423753D01*
X52567982Y45566610D02*
X52663220Y45614229D01*
X52663220Y45614229D02*
X52710839Y45661848D01*
X52710839Y45661848D02*
X52758458Y45757086D01*
X52758458Y45757086D02*
X52758458Y45804705D01*
X52758458Y45804705D02*
X52710839Y45899943D01*
X52710839Y45899943D02*
X52663220Y45947562D01*
X52663220Y45947562D02*
X52567982Y45995181D01*
X52567982Y45995181D02*
X52377506Y45995181D01*
X52377506Y45995181D02*
X52282268Y45947562D01*
X52282268Y45947562D02*
X52234649Y45899943D01*
X52234649Y45899943D02*
X52187030Y45804705D01*
X52187030Y45804705D02*
X52187030Y45757086D01*
X52187030Y45757086D02*
X52234649Y45661848D01*
X52234649Y45661848D02*
X52282268Y45614229D01*
X52282268Y45614229D02*
X52377506Y45566610D01*
X52377506Y45566610D02*
X52567982Y45566610D01*
X52567982Y45566610D02*
X52663220Y45518991D01*
X52663220Y45518991D02*
X52710839Y45471372D01*
X52710839Y45471372D02*
X52758458Y45376134D01*
X52758458Y45376134D02*
X52758458Y45185658D01*
X52758458Y45185658D02*
X52710839Y45090420D01*
X52710839Y45090420D02*
X52663220Y45042800D01*
X52663220Y45042800D02*
X52567982Y44995181D01*
X52567982Y44995181D02*
X52377506Y44995181D01*
X52377506Y44995181D02*
X52282268Y45042800D01*
X52282268Y45042800D02*
X52234649Y45090420D01*
X52234649Y45090420D02*
X52187030Y45185658D01*
X52187030Y45185658D02*
X52187030Y45376134D01*
X52187030Y45376134D02*
X52234649Y45471372D01*
X52234649Y45471372D02*
X52282268Y45518991D01*
X52282268Y45518991D02*
X52377506Y45566610D01*
X51567982Y45995181D02*
X51472744Y45995181D01*
X51472744Y45995181D02*
X51377506Y45947562D01*
X51377506Y45947562D02*
X51329887Y45899943D01*
X51329887Y45899943D02*
X51282268Y45804705D01*
X51282268Y45804705D02*
X51234649Y45614229D01*
X51234649Y45614229D02*
X51234649Y45376134D01*
X51234649Y45376134D02*
X51282268Y45185658D01*
X51282268Y45185658D02*
X51329887Y45090420D01*
X51329887Y45090420D02*
X51377506Y45042800D01*
X51377506Y45042800D02*
X51472744Y44995181D01*
X51472744Y44995181D02*
X51567982Y44995181D01*
X51567982Y44995181D02*
X51663220Y45042800D01*
X51663220Y45042800D02*
X51710839Y45090420D01*
X51710839Y45090420D02*
X51758458Y45185658D01*
X51758458Y45185658D02*
X51806077Y45376134D01*
X51806077Y45376134D02*
X51806077Y45614229D01*
X51806077Y45614229D02*
X51758458Y45804705D01*
X51758458Y45804705D02*
X51710839Y45899943D01*
X51710839Y45899943D02*
X51663220Y45947562D01*
X51663220Y45947562D02*
X51567982Y45995181D01*
X50806077Y44995181D02*
X50806077Y45995181D01*
X50710839Y45376134D02*
X50425125Y44995181D01*
X50425125Y45661848D02*
X50806077Y45280896D01*
X48520363Y46042800D02*
X49377505Y44757086D01*
X47234648Y45995181D02*
X47139410Y45995181D01*
X47139410Y45995181D02*
X47044172Y45947562D01*
X47044172Y45947562D02*
X46996553Y45899943D01*
X46996553Y45899943D02*
X46948934Y45804705D01*
X46948934Y45804705D02*
X46901315Y45614229D01*
X46901315Y45614229D02*
X46901315Y45376134D01*
X46901315Y45376134D02*
X46948934Y45185658D01*
X46948934Y45185658D02*
X46996553Y45090420D01*
X46996553Y45090420D02*
X47044172Y45042800D01*
X47044172Y45042800D02*
X47139410Y44995181D01*
X47139410Y44995181D02*
X47234648Y44995181D01*
X47234648Y44995181D02*
X47329886Y45042800D01*
X47329886Y45042800D02*
X47377505Y45090420D01*
X47377505Y45090420D02*
X47425124Y45185658D01*
X47425124Y45185658D02*
X47472743Y45376134D01*
X47472743Y45376134D02*
X47472743Y45614229D01*
X47472743Y45614229D02*
X47425124Y45804705D01*
X47425124Y45804705D02*
X47377505Y45899943D01*
X47377505Y45899943D02*
X47329886Y45947562D01*
X47329886Y45947562D02*
X47234648Y45995181D01*
X46472743Y45090420D02*
X46425124Y45042800D01*
X46425124Y45042800D02*
X46472743Y44995181D01*
X46472743Y44995181D02*
X46520362Y45042800D01*
X46520362Y45042800D02*
X46472743Y45090420D01*
X46472743Y45090420D02*
X46472743Y44995181D01*
X45472744Y44995181D02*
X46044172Y44995181D01*
X45758458Y44995181D02*
X45758458Y45995181D01*
X45758458Y45995181D02*
X45853696Y45852324D01*
X45853696Y45852324D02*
X45948934Y45757086D01*
X45948934Y45757086D02*
X46044172Y45709467D01*
X45091791Y44995181D02*
X44329887Y45995181D01*
X44948934Y45995181D02*
X44853696Y45947562D01*
X44853696Y45947562D02*
X44806077Y45852324D01*
X44806077Y45852324D02*
X44853696Y45757086D01*
X44853696Y45757086D02*
X44948934Y45709467D01*
X44948934Y45709467D02*
X45044172Y45757086D01*
X45044172Y45757086D02*
X45091791Y45852324D01*
X45091791Y45852324D02*
X45044172Y45947562D01*
X45044172Y45947562D02*
X44948934Y45995181D01*
X44377506Y45042800D02*
X44329887Y45138039D01*
X44329887Y45138039D02*
X44377506Y45233277D01*
X44377506Y45233277D02*
X44472744Y45280896D01*
X44472744Y45280896D02*
X44567982Y45233277D01*
X44567982Y45233277D02*
X44615601Y45138039D01*
X44615601Y45138039D02*
X44567982Y45042800D01*
X44567982Y45042800D02*
X44472744Y44995181D01*
X44472744Y44995181D02*
X44377506Y45042800D01*
X53234649Y43811848D02*
X53234649Y43145181D01*
X53472744Y44192800D02*
X53710839Y43478515D01*
X53710839Y43478515D02*
X53091792Y43478515D01*
X52806077Y44145181D02*
X52139411Y44145181D01*
X52139411Y44145181D02*
X52567982Y43145181D01*
X51758458Y43145181D02*
X51758458Y44145181D01*
X51663220Y43526134D02*
X51377506Y43145181D01*
X51377506Y43811848D02*
X51758458Y43430896D01*
X49472744Y44192800D02*
X50329886Y42907086D01*
X48187029Y44145181D02*
X48091791Y44145181D01*
X48091791Y44145181D02*
X47996553Y44097562D01*
X47996553Y44097562D02*
X47948934Y44049943D01*
X47948934Y44049943D02*
X47901315Y43954705D01*
X47901315Y43954705D02*
X47853696Y43764229D01*
X47853696Y43764229D02*
X47853696Y43526134D01*
X47853696Y43526134D02*
X47901315Y43335658D01*
X47901315Y43335658D02*
X47948934Y43240420D01*
X47948934Y43240420D02*
X47996553Y43192800D01*
X47996553Y43192800D02*
X48091791Y43145181D01*
X48091791Y43145181D02*
X48187029Y43145181D01*
X48187029Y43145181D02*
X48282267Y43192800D01*
X48282267Y43192800D02*
X48329886Y43240420D01*
X48329886Y43240420D02*
X48377505Y43335658D01*
X48377505Y43335658D02*
X48425124Y43526134D01*
X48425124Y43526134D02*
X48425124Y43764229D01*
X48425124Y43764229D02*
X48377505Y43954705D01*
X48377505Y43954705D02*
X48329886Y44049943D01*
X48329886Y44049943D02*
X48282267Y44097562D01*
X48282267Y44097562D02*
X48187029Y44145181D01*
X47425124Y43240420D02*
X47377505Y43192800D01*
X47377505Y43192800D02*
X47425124Y43145181D01*
X47425124Y43145181D02*
X47472743Y43192800D01*
X47472743Y43192800D02*
X47425124Y43240420D01*
X47425124Y43240420D02*
X47425124Y43145181D01*
X46425125Y43145181D02*
X46996553Y43145181D01*
X46710839Y43145181D02*
X46710839Y44145181D01*
X46710839Y44145181D02*
X46806077Y44002324D01*
X46806077Y44002324D02*
X46901315Y43907086D01*
X46901315Y43907086D02*
X46996553Y43859467D01*
X46044172Y43145181D02*
X45282268Y44145181D01*
X45901315Y44145181D02*
X45806077Y44097562D01*
X45806077Y44097562D02*
X45758458Y44002324D01*
X45758458Y44002324D02*
X45806077Y43907086D01*
X45806077Y43907086D02*
X45901315Y43859467D01*
X45901315Y43859467D02*
X45996553Y43907086D01*
X45996553Y43907086D02*
X46044172Y44002324D01*
X46044172Y44002324D02*
X45996553Y44097562D01*
X45996553Y44097562D02*
X45901315Y44145181D01*
X45329887Y43192800D02*
X45282268Y43288039D01*
X45282268Y43288039D02*
X45329887Y43383277D01*
X45329887Y43383277D02*
X45425125Y43430896D01*
X45425125Y43430896D02*
X45520363Y43383277D01*
X45520363Y43383277D02*
X45567982Y43288039D01*
X45567982Y43288039D02*
X45520363Y43192800D01*
X45520363Y43192800D02*
X45425125Y43145181D01*
X45425125Y43145181D02*
X45329887Y43192800D01*
X53139411Y41295181D02*
X53710839Y41295181D01*
X53425125Y41295181D02*
X53425125Y42295181D01*
X53425125Y42295181D02*
X53520363Y42152324D01*
X53520363Y42152324D02*
X53615601Y42057086D01*
X53615601Y42057086D02*
X53710839Y42009467D01*
X52520363Y42295181D02*
X52425125Y42295181D01*
X52425125Y42295181D02*
X52329887Y42247562D01*
X52329887Y42247562D02*
X52282268Y42199943D01*
X52282268Y42199943D02*
X52234649Y42104705D01*
X52234649Y42104705D02*
X52187030Y41914229D01*
X52187030Y41914229D02*
X52187030Y41676134D01*
X52187030Y41676134D02*
X52234649Y41485658D01*
X52234649Y41485658D02*
X52282268Y41390420D01*
X52282268Y41390420D02*
X52329887Y41342800D01*
X52329887Y41342800D02*
X52425125Y41295181D01*
X52425125Y41295181D02*
X52520363Y41295181D01*
X52520363Y41295181D02*
X52615601Y41342800D01*
X52615601Y41342800D02*
X52663220Y41390420D01*
X52663220Y41390420D02*
X52710839Y41485658D01*
X52710839Y41485658D02*
X52758458Y41676134D01*
X52758458Y41676134D02*
X52758458Y41914229D01*
X52758458Y41914229D02*
X52710839Y42104705D01*
X52710839Y42104705D02*
X52663220Y42199943D01*
X52663220Y42199943D02*
X52615601Y42247562D01*
X52615601Y42247562D02*
X52520363Y42295181D01*
X51758458Y41295181D02*
X51758458Y42295181D01*
X51758458Y42295181D02*
X51425125Y41580896D01*
X51425125Y41580896D02*
X51091792Y42295181D01*
X51091792Y42295181D02*
X51091792Y41295181D01*
X49139411Y42342800D02*
X49996553Y41057086D01*
X47520363Y41295181D02*
X48091791Y41295181D01*
X47806077Y41295181D02*
X47806077Y42295181D01*
X47806077Y42295181D02*
X47901315Y42152324D01*
X47901315Y42152324D02*
X47996553Y42057086D01*
X47996553Y42057086D02*
X48091791Y42009467D01*
X47139410Y41295181D02*
X46377506Y42295181D01*
X46996553Y42295181D02*
X46901315Y42247562D01*
X46901315Y42247562D02*
X46853696Y42152324D01*
X46853696Y42152324D02*
X46901315Y42057086D01*
X46901315Y42057086D02*
X46996553Y42009467D01*
X46996553Y42009467D02*
X47091791Y42057086D01*
X47091791Y42057086D02*
X47139410Y42152324D01*
X47139410Y42152324D02*
X47091791Y42247562D01*
X47091791Y42247562D02*
X46996553Y42295181D01*
X46425125Y41342800D02*
X46377506Y41438039D01*
X46377506Y41438039D02*
X46425125Y41533277D01*
X46425125Y41533277D02*
X46520363Y41580896D01*
X46520363Y41580896D02*
X46615601Y41533277D01*
X46615601Y41533277D02*
X46663220Y41438039D01*
X46663220Y41438039D02*
X46615601Y41342800D01*
X46615601Y41342800D02*
X46520363Y41295181D01*
X46520363Y41295181D02*
X46425125Y41342800D01*
X53234649Y40111848D02*
X53234649Y39445181D01*
X53472744Y40492800D02*
X53710839Y39778515D01*
X53710839Y39778515D02*
X53091792Y39778515D01*
X52806077Y40445181D02*
X52139411Y40445181D01*
X52139411Y40445181D02*
X52567982Y39445181D01*
X51567982Y40445181D02*
X51472744Y40445181D01*
X51472744Y40445181D02*
X51377506Y40397562D01*
X51377506Y40397562D02*
X51329887Y40349943D01*
X51329887Y40349943D02*
X51282268Y40254705D01*
X51282268Y40254705D02*
X51234649Y40064229D01*
X51234649Y40064229D02*
X51234649Y39826134D01*
X51234649Y39826134D02*
X51282268Y39635658D01*
X51282268Y39635658D02*
X51329887Y39540420D01*
X51329887Y39540420D02*
X51377506Y39492800D01*
X51377506Y39492800D02*
X51472744Y39445181D01*
X51472744Y39445181D02*
X51567982Y39445181D01*
X51567982Y39445181D02*
X51663220Y39492800D01*
X51663220Y39492800D02*
X51710839Y39540420D01*
X51710839Y39540420D02*
X51758458Y39635658D01*
X51758458Y39635658D02*
X51806077Y39826134D01*
X51806077Y39826134D02*
X51806077Y40064229D01*
X51806077Y40064229D02*
X51758458Y40254705D01*
X51758458Y40254705D02*
X51710839Y40349943D01*
X51710839Y40349943D02*
X51663220Y40397562D01*
X51663220Y40397562D02*
X51567982Y40445181D01*
X50806077Y39445181D02*
X50806077Y40445181D01*
X50710839Y39826134D02*
X50425125Y39445181D01*
X50425125Y40111848D02*
X50806077Y39730896D01*
X48520363Y40492800D02*
X49377505Y39207086D01*
X46901315Y39445181D02*
X47472743Y39445181D01*
X47187029Y39445181D02*
X47187029Y40445181D01*
X47187029Y40445181D02*
X47282267Y40302324D01*
X47282267Y40302324D02*
X47377505Y40207086D01*
X47377505Y40207086D02*
X47472743Y40159467D01*
X46520362Y39445181D02*
X45758458Y40445181D01*
X46377505Y40445181D02*
X46282267Y40397562D01*
X46282267Y40397562D02*
X46234648Y40302324D01*
X46234648Y40302324D02*
X46282267Y40207086D01*
X46282267Y40207086D02*
X46377505Y40159467D01*
X46377505Y40159467D02*
X46472743Y40207086D01*
X46472743Y40207086D02*
X46520362Y40302324D01*
X46520362Y40302324D02*
X46472743Y40397562D01*
X46472743Y40397562D02*
X46377505Y40445181D01*
X45806077Y39492800D02*
X45758458Y39588039D01*
X45758458Y39588039D02*
X45806077Y39683277D01*
X45806077Y39683277D02*
X45901315Y39730896D01*
X45901315Y39730896D02*
X45996553Y39683277D01*
X45996553Y39683277D02*
X46044172Y39588039D01*
X46044172Y39588039D02*
X45996553Y39492800D01*
X45996553Y39492800D02*
X45901315Y39445181D01*
X45901315Y39445181D02*
X45806077Y39492800D01*
X92377506Y88545181D02*
X92377506Y87830896D01*
X92377506Y87830896D02*
X92425125Y87688039D01*
X92425125Y87688039D02*
X92520363Y87592800D01*
X92520363Y87592800D02*
X92663220Y87545181D01*
X92663220Y87545181D02*
X92758458Y87545181D01*
X91377506Y87545181D02*
X91948934Y87545181D01*
X91663220Y87545181D02*
X91663220Y88545181D01*
X91663220Y88545181D02*
X91758458Y88402324D01*
X91758458Y88402324D02*
X91853696Y88307086D01*
X91853696Y88307086D02*
X91948934Y88259467D01*
X92329887Y86218991D02*
X92663220Y86218991D01*
X92663220Y85695181D02*
X92663220Y86695181D01*
X92663220Y86695181D02*
X92187030Y86695181D01*
X91282268Y85695181D02*
X91853696Y85695181D01*
X91567982Y85695181D02*
X91567982Y86695181D01*
X91567982Y86695181D02*
X91663220Y86552324D01*
X91663220Y86552324D02*
X91758458Y86457086D01*
X91758458Y86457086D02*
X91853696Y86409467D01*
X92663220Y83845181D02*
X92663220Y84845181D01*
X92663220Y84845181D02*
X92425125Y84845181D01*
X92425125Y84845181D02*
X92282268Y84797562D01*
X92282268Y84797562D02*
X92187030Y84702324D01*
X92187030Y84702324D02*
X92139411Y84607086D01*
X92139411Y84607086D02*
X92091792Y84416610D01*
X92091792Y84416610D02*
X92091792Y84273753D01*
X92091792Y84273753D02*
X92139411Y84083277D01*
X92139411Y84083277D02*
X92187030Y83988039D01*
X92187030Y83988039D02*
X92282268Y83892800D01*
X92282268Y83892800D02*
X92425125Y83845181D01*
X92425125Y83845181D02*
X92663220Y83845181D01*
X91139411Y83845181D02*
X91710839Y83845181D01*
X91425125Y83845181D02*
X91425125Y84845181D01*
X91425125Y84845181D02*
X91520363Y84702324D01*
X91520363Y84702324D02*
X91615601Y84607086D01*
X91615601Y84607086D02*
X91710839Y84559467D01*
X92663220Y81995181D02*
X92663220Y82995181D01*
X92663220Y82995181D02*
X92425125Y82995181D01*
X92425125Y82995181D02*
X92282268Y82947562D01*
X92282268Y82947562D02*
X92187030Y82852324D01*
X92187030Y82852324D02*
X92139411Y82757086D01*
X92139411Y82757086D02*
X92091792Y82566610D01*
X92091792Y82566610D02*
X92091792Y82423753D01*
X92091792Y82423753D02*
X92139411Y82233277D01*
X92139411Y82233277D02*
X92187030Y82138039D01*
X92187030Y82138039D02*
X92282268Y82042800D01*
X92282268Y82042800D02*
X92425125Y81995181D01*
X92425125Y81995181D02*
X92663220Y81995181D01*
X91758458Y82995181D02*
X91139411Y82995181D01*
X91139411Y82995181D02*
X91472744Y82614229D01*
X91472744Y82614229D02*
X91329887Y82614229D01*
X91329887Y82614229D02*
X91234649Y82566610D01*
X91234649Y82566610D02*
X91187030Y82518991D01*
X91187030Y82518991D02*
X91139411Y82423753D01*
X91139411Y82423753D02*
X91139411Y82185658D01*
X91139411Y82185658D02*
X91187030Y82090420D01*
X91187030Y82090420D02*
X91234649Y82042800D01*
X91234649Y82042800D02*
X91329887Y81995181D01*
X91329887Y81995181D02*
X91615601Y81995181D01*
X91615601Y81995181D02*
X91710839Y82042800D01*
X91710839Y82042800D02*
X91758458Y82090420D01*
X92091792Y80240420D02*
X92139411Y80192800D01*
X92139411Y80192800D02*
X92282268Y80145181D01*
X92282268Y80145181D02*
X92377506Y80145181D01*
X92377506Y80145181D02*
X92520363Y80192800D01*
X92520363Y80192800D02*
X92615601Y80288039D01*
X92615601Y80288039D02*
X92663220Y80383277D01*
X92663220Y80383277D02*
X92710839Y80573753D01*
X92710839Y80573753D02*
X92710839Y80716610D01*
X92710839Y80716610D02*
X92663220Y80907086D01*
X92663220Y80907086D02*
X92615601Y81002324D01*
X92615601Y81002324D02*
X92520363Y81097562D01*
X92520363Y81097562D02*
X92377506Y81145181D01*
X92377506Y81145181D02*
X92282268Y81145181D01*
X92282268Y81145181D02*
X92139411Y81097562D01*
X92139411Y81097562D02*
X92091792Y81049943D01*
X91139411Y80145181D02*
X91710839Y80145181D01*
X91425125Y80145181D02*
X91425125Y81145181D01*
X91425125Y81145181D02*
X91520363Y81002324D01*
X91520363Y81002324D02*
X91615601Y80907086D01*
X91615601Y80907086D02*
X91710839Y80859467D01*
X92091792Y78390420D02*
X92139411Y78342800D01*
X92139411Y78342800D02*
X92282268Y78295181D01*
X92282268Y78295181D02*
X92377506Y78295181D01*
X92377506Y78295181D02*
X92520363Y78342800D01*
X92520363Y78342800D02*
X92615601Y78438039D01*
X92615601Y78438039D02*
X92663220Y78533277D01*
X92663220Y78533277D02*
X92710839Y78723753D01*
X92710839Y78723753D02*
X92710839Y78866610D01*
X92710839Y78866610D02*
X92663220Y79057086D01*
X92663220Y79057086D02*
X92615601Y79152324D01*
X92615601Y79152324D02*
X92520363Y79247562D01*
X92520363Y79247562D02*
X92377506Y79295181D01*
X92377506Y79295181D02*
X92282268Y79295181D01*
X92282268Y79295181D02*
X92139411Y79247562D01*
X92139411Y79247562D02*
X92091792Y79199943D01*
X91710839Y79199943D02*
X91663220Y79247562D01*
X91663220Y79247562D02*
X91567982Y79295181D01*
X91567982Y79295181D02*
X91329887Y79295181D01*
X91329887Y79295181D02*
X91234649Y79247562D01*
X91234649Y79247562D02*
X91187030Y79199943D01*
X91187030Y79199943D02*
X91139411Y79104705D01*
X91139411Y79104705D02*
X91139411Y79009467D01*
X91139411Y79009467D02*
X91187030Y78866610D01*
X91187030Y78866610D02*
X91758458Y78295181D01*
X91758458Y78295181D02*
X91139411Y78295181D01*
X89377506Y78390420D02*
X89425125Y78342800D01*
X89425125Y78342800D02*
X89567982Y78295181D01*
X89567982Y78295181D02*
X89663220Y78295181D01*
X89663220Y78295181D02*
X89806077Y78342800D01*
X89806077Y78342800D02*
X89901315Y78438039D01*
X89901315Y78438039D02*
X89948934Y78533277D01*
X89948934Y78533277D02*
X89996553Y78723753D01*
X89996553Y78723753D02*
X89996553Y78866610D01*
X89996553Y78866610D02*
X89948934Y79057086D01*
X89948934Y79057086D02*
X89901315Y79152324D01*
X89901315Y79152324D02*
X89806077Y79247562D01*
X89806077Y79247562D02*
X89663220Y79295181D01*
X89663220Y79295181D02*
X89567982Y79295181D01*
X89567982Y79295181D02*
X89425125Y79247562D01*
X89425125Y79247562D02*
X89377506Y79199943D01*
X88425125Y78295181D02*
X88996553Y78295181D01*
X88710839Y78295181D02*
X88710839Y79295181D01*
X88710839Y79295181D02*
X88806077Y79152324D01*
X88806077Y79152324D02*
X88901315Y79057086D01*
X88901315Y79057086D02*
X88996553Y79009467D01*
X87567982Y79295181D02*
X87758458Y79295181D01*
X87758458Y79295181D02*
X87853696Y79247562D01*
X87853696Y79247562D02*
X87901315Y79199943D01*
X87901315Y79199943D02*
X87996553Y79057086D01*
X87996553Y79057086D02*
X88044172Y78866610D01*
X88044172Y78866610D02*
X88044172Y78485658D01*
X88044172Y78485658D02*
X87996553Y78390420D01*
X87996553Y78390420D02*
X87948934Y78342800D01*
X87948934Y78342800D02*
X87853696Y78295181D01*
X87853696Y78295181D02*
X87663220Y78295181D01*
X87663220Y78295181D02*
X87567982Y78342800D01*
X87567982Y78342800D02*
X87520363Y78390420D01*
X87520363Y78390420D02*
X87472744Y78485658D01*
X87472744Y78485658D02*
X87472744Y78723753D01*
X87472744Y78723753D02*
X87520363Y78818991D01*
X87520363Y78818991D02*
X87567982Y78866610D01*
X87567982Y78866610D02*
X87663220Y78914229D01*
X87663220Y78914229D02*
X87853696Y78914229D01*
X87853696Y78914229D02*
X87948934Y78866610D01*
X87948934Y78866610D02*
X87996553Y78818991D01*
X87996553Y78818991D02*
X88044172Y78723753D01*
X92091792Y76540420D02*
X92139411Y76492800D01*
X92139411Y76492800D02*
X92282268Y76445181D01*
X92282268Y76445181D02*
X92377506Y76445181D01*
X92377506Y76445181D02*
X92520363Y76492800D01*
X92520363Y76492800D02*
X92615601Y76588039D01*
X92615601Y76588039D02*
X92663220Y76683277D01*
X92663220Y76683277D02*
X92710839Y76873753D01*
X92710839Y76873753D02*
X92710839Y77016610D01*
X92710839Y77016610D02*
X92663220Y77207086D01*
X92663220Y77207086D02*
X92615601Y77302324D01*
X92615601Y77302324D02*
X92520363Y77397562D01*
X92520363Y77397562D02*
X92377506Y77445181D01*
X92377506Y77445181D02*
X92282268Y77445181D01*
X92282268Y77445181D02*
X92139411Y77397562D01*
X92139411Y77397562D02*
X92091792Y77349943D01*
X91758458Y77445181D02*
X91139411Y77445181D01*
X91139411Y77445181D02*
X91472744Y77064229D01*
X91472744Y77064229D02*
X91329887Y77064229D01*
X91329887Y77064229D02*
X91234649Y77016610D01*
X91234649Y77016610D02*
X91187030Y76968991D01*
X91187030Y76968991D02*
X91139411Y76873753D01*
X91139411Y76873753D02*
X91139411Y76635658D01*
X91139411Y76635658D02*
X91187030Y76540420D01*
X91187030Y76540420D02*
X91234649Y76492800D01*
X91234649Y76492800D02*
X91329887Y76445181D01*
X91329887Y76445181D02*
X91615601Y76445181D01*
X91615601Y76445181D02*
X91710839Y76492800D01*
X91710839Y76492800D02*
X91758458Y76540420D01*
X89377506Y76540420D02*
X89425125Y76492800D01*
X89425125Y76492800D02*
X89567982Y76445181D01*
X89567982Y76445181D02*
X89663220Y76445181D01*
X89663220Y76445181D02*
X89806077Y76492800D01*
X89806077Y76492800D02*
X89901315Y76588039D01*
X89901315Y76588039D02*
X89948934Y76683277D01*
X89948934Y76683277D02*
X89996553Y76873753D01*
X89996553Y76873753D02*
X89996553Y77016610D01*
X89996553Y77016610D02*
X89948934Y77207086D01*
X89948934Y77207086D02*
X89901315Y77302324D01*
X89901315Y77302324D02*
X89806077Y77397562D01*
X89806077Y77397562D02*
X89663220Y77445181D01*
X89663220Y77445181D02*
X89567982Y77445181D01*
X89567982Y77445181D02*
X89425125Y77397562D01*
X89425125Y77397562D02*
X89377506Y77349943D01*
X88806077Y77016610D02*
X88901315Y77064229D01*
X88901315Y77064229D02*
X88948934Y77111848D01*
X88948934Y77111848D02*
X88996553Y77207086D01*
X88996553Y77207086D02*
X88996553Y77254705D01*
X88996553Y77254705D02*
X88948934Y77349943D01*
X88948934Y77349943D02*
X88901315Y77397562D01*
X88901315Y77397562D02*
X88806077Y77445181D01*
X88806077Y77445181D02*
X88615601Y77445181D01*
X88615601Y77445181D02*
X88520363Y77397562D01*
X88520363Y77397562D02*
X88472744Y77349943D01*
X88472744Y77349943D02*
X88425125Y77254705D01*
X88425125Y77254705D02*
X88425125Y77207086D01*
X88425125Y77207086D02*
X88472744Y77111848D01*
X88472744Y77111848D02*
X88520363Y77064229D01*
X88520363Y77064229D02*
X88615601Y77016610D01*
X88615601Y77016610D02*
X88806077Y77016610D01*
X88806077Y77016610D02*
X88901315Y76968991D01*
X88901315Y76968991D02*
X88948934Y76921372D01*
X88948934Y76921372D02*
X88996553Y76826134D01*
X88996553Y76826134D02*
X88996553Y76635658D01*
X88996553Y76635658D02*
X88948934Y76540420D01*
X88948934Y76540420D02*
X88901315Y76492800D01*
X88901315Y76492800D02*
X88806077Y76445181D01*
X88806077Y76445181D02*
X88615601Y76445181D01*
X88615601Y76445181D02*
X88520363Y76492800D01*
X88520363Y76492800D02*
X88472744Y76540420D01*
X88472744Y76540420D02*
X88425125Y76635658D01*
X88425125Y76635658D02*
X88425125Y76826134D01*
X88425125Y76826134D02*
X88472744Y76921372D01*
X88472744Y76921372D02*
X88520363Y76968991D01*
X88520363Y76968991D02*
X88615601Y77016610D01*
X92091792Y74690420D02*
X92139411Y74642800D01*
X92139411Y74642800D02*
X92282268Y74595181D01*
X92282268Y74595181D02*
X92377506Y74595181D01*
X92377506Y74595181D02*
X92520363Y74642800D01*
X92520363Y74642800D02*
X92615601Y74738039D01*
X92615601Y74738039D02*
X92663220Y74833277D01*
X92663220Y74833277D02*
X92710839Y75023753D01*
X92710839Y75023753D02*
X92710839Y75166610D01*
X92710839Y75166610D02*
X92663220Y75357086D01*
X92663220Y75357086D02*
X92615601Y75452324D01*
X92615601Y75452324D02*
X92520363Y75547562D01*
X92520363Y75547562D02*
X92377506Y75595181D01*
X92377506Y75595181D02*
X92282268Y75595181D01*
X92282268Y75595181D02*
X92139411Y75547562D01*
X92139411Y75547562D02*
X92091792Y75499943D01*
X91234649Y75261848D02*
X91234649Y74595181D01*
X91472744Y75642800D02*
X91710839Y74928515D01*
X91710839Y74928515D02*
X91091792Y74928515D01*
X89377506Y74690420D02*
X89425125Y74642800D01*
X89425125Y74642800D02*
X89567982Y74595181D01*
X89567982Y74595181D02*
X89663220Y74595181D01*
X89663220Y74595181D02*
X89806077Y74642800D01*
X89806077Y74642800D02*
X89901315Y74738039D01*
X89901315Y74738039D02*
X89948934Y74833277D01*
X89948934Y74833277D02*
X89996553Y75023753D01*
X89996553Y75023753D02*
X89996553Y75166610D01*
X89996553Y75166610D02*
X89948934Y75357086D01*
X89948934Y75357086D02*
X89901315Y75452324D01*
X89901315Y75452324D02*
X89806077Y75547562D01*
X89806077Y75547562D02*
X89663220Y75595181D01*
X89663220Y75595181D02*
X89567982Y75595181D01*
X89567982Y75595181D02*
X89425125Y75547562D01*
X89425125Y75547562D02*
X89377506Y75499943D01*
X88425125Y74595181D02*
X88996553Y74595181D01*
X88710839Y74595181D02*
X88710839Y75595181D01*
X88710839Y75595181D02*
X88806077Y75452324D01*
X88806077Y75452324D02*
X88901315Y75357086D01*
X88901315Y75357086D02*
X88996553Y75309467D01*
X87806077Y75595181D02*
X87710839Y75595181D01*
X87710839Y75595181D02*
X87615601Y75547562D01*
X87615601Y75547562D02*
X87567982Y75499943D01*
X87567982Y75499943D02*
X87520363Y75404705D01*
X87520363Y75404705D02*
X87472744Y75214229D01*
X87472744Y75214229D02*
X87472744Y74976134D01*
X87472744Y74976134D02*
X87520363Y74785658D01*
X87520363Y74785658D02*
X87567982Y74690420D01*
X87567982Y74690420D02*
X87615601Y74642800D01*
X87615601Y74642800D02*
X87710839Y74595181D01*
X87710839Y74595181D02*
X87806077Y74595181D01*
X87806077Y74595181D02*
X87901315Y74642800D01*
X87901315Y74642800D02*
X87948934Y74690420D01*
X87948934Y74690420D02*
X87996553Y74785658D01*
X87996553Y74785658D02*
X88044172Y74976134D01*
X88044172Y74976134D02*
X88044172Y75214229D01*
X88044172Y75214229D02*
X87996553Y75404705D01*
X87996553Y75404705D02*
X87948934Y75499943D01*
X87948934Y75499943D02*
X87901315Y75547562D01*
X87901315Y75547562D02*
X87806077Y75595181D01*
X85710839Y74690420D02*
X85758458Y74642800D01*
X85758458Y74642800D02*
X85901315Y74595181D01*
X85901315Y74595181D02*
X85996553Y74595181D01*
X85996553Y74595181D02*
X86139410Y74642800D01*
X86139410Y74642800D02*
X86234648Y74738039D01*
X86234648Y74738039D02*
X86282267Y74833277D01*
X86282267Y74833277D02*
X86329886Y75023753D01*
X86329886Y75023753D02*
X86329886Y75166610D01*
X86329886Y75166610D02*
X86282267Y75357086D01*
X86282267Y75357086D02*
X86234648Y75452324D01*
X86234648Y75452324D02*
X86139410Y75547562D01*
X86139410Y75547562D02*
X85996553Y75595181D01*
X85996553Y75595181D02*
X85901315Y75595181D01*
X85901315Y75595181D02*
X85758458Y75547562D01*
X85758458Y75547562D02*
X85710839Y75499943D01*
X84758458Y74595181D02*
X85329886Y74595181D01*
X85044172Y74595181D02*
X85044172Y75595181D01*
X85044172Y75595181D02*
X85139410Y75452324D01*
X85139410Y75452324D02*
X85234648Y75357086D01*
X85234648Y75357086D02*
X85329886Y75309467D01*
X83806077Y74595181D02*
X84377505Y74595181D01*
X84091791Y74595181D02*
X84091791Y75595181D01*
X84091791Y75595181D02*
X84187029Y75452324D01*
X84187029Y75452324D02*
X84282267Y75357086D01*
X84282267Y75357086D02*
X84377505Y75309467D01*
X82044172Y74690420D02*
X82091791Y74642800D01*
X82091791Y74642800D02*
X82234648Y74595181D01*
X82234648Y74595181D02*
X82329886Y74595181D01*
X82329886Y74595181D02*
X82472743Y74642800D01*
X82472743Y74642800D02*
X82567981Y74738039D01*
X82567981Y74738039D02*
X82615600Y74833277D01*
X82615600Y74833277D02*
X82663219Y75023753D01*
X82663219Y75023753D02*
X82663219Y75166610D01*
X82663219Y75166610D02*
X82615600Y75357086D01*
X82615600Y75357086D02*
X82567981Y75452324D01*
X82567981Y75452324D02*
X82472743Y75547562D01*
X82472743Y75547562D02*
X82329886Y75595181D01*
X82329886Y75595181D02*
X82234648Y75595181D01*
X82234648Y75595181D02*
X82091791Y75547562D01*
X82091791Y75547562D02*
X82044172Y75499943D01*
X81091791Y74595181D02*
X81663219Y74595181D01*
X81377505Y74595181D02*
X81377505Y75595181D01*
X81377505Y75595181D02*
X81472743Y75452324D01*
X81472743Y75452324D02*
X81567981Y75357086D01*
X81567981Y75357086D02*
X81663219Y75309467D01*
X80710838Y75499943D02*
X80663219Y75547562D01*
X80663219Y75547562D02*
X80567981Y75595181D01*
X80567981Y75595181D02*
X80329886Y75595181D01*
X80329886Y75595181D02*
X80234648Y75547562D01*
X80234648Y75547562D02*
X80187029Y75499943D01*
X80187029Y75499943D02*
X80139410Y75404705D01*
X80139410Y75404705D02*
X80139410Y75309467D01*
X80139410Y75309467D02*
X80187029Y75166610D01*
X80187029Y75166610D02*
X80758457Y74595181D01*
X80758457Y74595181D02*
X80139410Y74595181D01*
X78377505Y74690420D02*
X78425124Y74642800D01*
X78425124Y74642800D02*
X78567981Y74595181D01*
X78567981Y74595181D02*
X78663219Y74595181D01*
X78663219Y74595181D02*
X78806076Y74642800D01*
X78806076Y74642800D02*
X78901314Y74738039D01*
X78901314Y74738039D02*
X78948933Y74833277D01*
X78948933Y74833277D02*
X78996552Y75023753D01*
X78996552Y75023753D02*
X78996552Y75166610D01*
X78996552Y75166610D02*
X78948933Y75357086D01*
X78948933Y75357086D02*
X78901314Y75452324D01*
X78901314Y75452324D02*
X78806076Y75547562D01*
X78806076Y75547562D02*
X78663219Y75595181D01*
X78663219Y75595181D02*
X78567981Y75595181D01*
X78567981Y75595181D02*
X78425124Y75547562D01*
X78425124Y75547562D02*
X78377505Y75499943D01*
X77425124Y74595181D02*
X77996552Y74595181D01*
X77710838Y74595181D02*
X77710838Y75595181D01*
X77710838Y75595181D02*
X77806076Y75452324D01*
X77806076Y75452324D02*
X77901314Y75357086D01*
X77901314Y75357086D02*
X77996552Y75309467D01*
X77091790Y75595181D02*
X76472743Y75595181D01*
X76472743Y75595181D02*
X76806076Y75214229D01*
X76806076Y75214229D02*
X76663219Y75214229D01*
X76663219Y75214229D02*
X76567981Y75166610D01*
X76567981Y75166610D02*
X76520362Y75118991D01*
X76520362Y75118991D02*
X76472743Y75023753D01*
X76472743Y75023753D02*
X76472743Y74785658D01*
X76472743Y74785658D02*
X76520362Y74690420D01*
X76520362Y74690420D02*
X76567981Y74642800D01*
X76567981Y74642800D02*
X76663219Y74595181D01*
X76663219Y74595181D02*
X76948933Y74595181D01*
X76948933Y74595181D02*
X77044171Y74642800D01*
X77044171Y74642800D02*
X77091790Y74690420D01*
X74710838Y74690420D02*
X74758457Y74642800D01*
X74758457Y74642800D02*
X74901314Y74595181D01*
X74901314Y74595181D02*
X74996552Y74595181D01*
X74996552Y74595181D02*
X75139409Y74642800D01*
X75139409Y74642800D02*
X75234647Y74738039D01*
X75234647Y74738039D02*
X75282266Y74833277D01*
X75282266Y74833277D02*
X75329885Y75023753D01*
X75329885Y75023753D02*
X75329885Y75166610D01*
X75329885Y75166610D02*
X75282266Y75357086D01*
X75282266Y75357086D02*
X75234647Y75452324D01*
X75234647Y75452324D02*
X75139409Y75547562D01*
X75139409Y75547562D02*
X74996552Y75595181D01*
X74996552Y75595181D02*
X74901314Y75595181D01*
X74901314Y75595181D02*
X74758457Y75547562D01*
X74758457Y75547562D02*
X74710838Y75499943D01*
X73758457Y74595181D02*
X74329885Y74595181D01*
X74044171Y74595181D02*
X74044171Y75595181D01*
X74044171Y75595181D02*
X74139409Y75452324D01*
X74139409Y75452324D02*
X74234647Y75357086D01*
X74234647Y75357086D02*
X74329885Y75309467D01*
X72901314Y75261848D02*
X72901314Y74595181D01*
X73139409Y75642800D02*
X73377504Y74928515D01*
X73377504Y74928515D02*
X72758457Y74928515D01*
X71044171Y74690420D02*
X71091790Y74642800D01*
X71091790Y74642800D02*
X71234647Y74595181D01*
X71234647Y74595181D02*
X71329885Y74595181D01*
X71329885Y74595181D02*
X71472742Y74642800D01*
X71472742Y74642800D02*
X71567980Y74738039D01*
X71567980Y74738039D02*
X71615599Y74833277D01*
X71615599Y74833277D02*
X71663218Y75023753D01*
X71663218Y75023753D02*
X71663218Y75166610D01*
X71663218Y75166610D02*
X71615599Y75357086D01*
X71615599Y75357086D02*
X71567980Y75452324D01*
X71567980Y75452324D02*
X71472742Y75547562D01*
X71472742Y75547562D02*
X71329885Y75595181D01*
X71329885Y75595181D02*
X71234647Y75595181D01*
X71234647Y75595181D02*
X71091790Y75547562D01*
X71091790Y75547562D02*
X71044171Y75499943D01*
X70091790Y74595181D02*
X70663218Y74595181D01*
X70377504Y74595181D02*
X70377504Y75595181D01*
X70377504Y75595181D02*
X70472742Y75452324D01*
X70472742Y75452324D02*
X70567980Y75357086D01*
X70567980Y75357086D02*
X70663218Y75309467D01*
X69758456Y75595181D02*
X69091790Y75595181D01*
X69091790Y75595181D02*
X69520361Y74595181D01*
X67377504Y74690420D02*
X67425123Y74642800D01*
X67425123Y74642800D02*
X67567980Y74595181D01*
X67567980Y74595181D02*
X67663218Y74595181D01*
X67663218Y74595181D02*
X67806075Y74642800D01*
X67806075Y74642800D02*
X67901313Y74738039D01*
X67901313Y74738039D02*
X67948932Y74833277D01*
X67948932Y74833277D02*
X67996551Y75023753D01*
X67996551Y75023753D02*
X67996551Y75166610D01*
X67996551Y75166610D02*
X67948932Y75357086D01*
X67948932Y75357086D02*
X67901313Y75452324D01*
X67901313Y75452324D02*
X67806075Y75547562D01*
X67806075Y75547562D02*
X67663218Y75595181D01*
X67663218Y75595181D02*
X67567980Y75595181D01*
X67567980Y75595181D02*
X67425123Y75547562D01*
X67425123Y75547562D02*
X67377504Y75499943D01*
X66996551Y75499943D02*
X66948932Y75547562D01*
X66948932Y75547562D02*
X66853694Y75595181D01*
X66853694Y75595181D02*
X66615599Y75595181D01*
X66615599Y75595181D02*
X66520361Y75547562D01*
X66520361Y75547562D02*
X66472742Y75499943D01*
X66472742Y75499943D02*
X66425123Y75404705D01*
X66425123Y75404705D02*
X66425123Y75309467D01*
X66425123Y75309467D02*
X66472742Y75166610D01*
X66472742Y75166610D02*
X67044170Y74595181D01*
X67044170Y74595181D02*
X66425123Y74595181D01*
X65806075Y75595181D02*
X65710837Y75595181D01*
X65710837Y75595181D02*
X65615599Y75547562D01*
X65615599Y75547562D02*
X65567980Y75499943D01*
X65567980Y75499943D02*
X65520361Y75404705D01*
X65520361Y75404705D02*
X65472742Y75214229D01*
X65472742Y75214229D02*
X65472742Y74976134D01*
X65472742Y74976134D02*
X65520361Y74785658D01*
X65520361Y74785658D02*
X65567980Y74690420D01*
X65567980Y74690420D02*
X65615599Y74642800D01*
X65615599Y74642800D02*
X65710837Y74595181D01*
X65710837Y74595181D02*
X65806075Y74595181D01*
X65806075Y74595181D02*
X65901313Y74642800D01*
X65901313Y74642800D02*
X65948932Y74690420D01*
X65948932Y74690420D02*
X65996551Y74785658D01*
X65996551Y74785658D02*
X66044170Y74976134D01*
X66044170Y74976134D02*
X66044170Y75214229D01*
X66044170Y75214229D02*
X65996551Y75404705D01*
X65996551Y75404705D02*
X65948932Y75499943D01*
X65948932Y75499943D02*
X65901313Y75547562D01*
X65901313Y75547562D02*
X65806075Y75595181D01*
X92091792Y72840420D02*
X92139411Y72792800D01*
X92139411Y72792800D02*
X92282268Y72745181D01*
X92282268Y72745181D02*
X92377506Y72745181D01*
X92377506Y72745181D02*
X92520363Y72792800D01*
X92520363Y72792800D02*
X92615601Y72888039D01*
X92615601Y72888039D02*
X92663220Y72983277D01*
X92663220Y72983277D02*
X92710839Y73173753D01*
X92710839Y73173753D02*
X92710839Y73316610D01*
X92710839Y73316610D02*
X92663220Y73507086D01*
X92663220Y73507086D02*
X92615601Y73602324D01*
X92615601Y73602324D02*
X92520363Y73697562D01*
X92520363Y73697562D02*
X92377506Y73745181D01*
X92377506Y73745181D02*
X92282268Y73745181D01*
X92282268Y73745181D02*
X92139411Y73697562D01*
X92139411Y73697562D02*
X92091792Y73649943D01*
X91187030Y73745181D02*
X91663220Y73745181D01*
X91663220Y73745181D02*
X91710839Y73268991D01*
X91710839Y73268991D02*
X91663220Y73316610D01*
X91663220Y73316610D02*
X91567982Y73364229D01*
X91567982Y73364229D02*
X91329887Y73364229D01*
X91329887Y73364229D02*
X91234649Y73316610D01*
X91234649Y73316610D02*
X91187030Y73268991D01*
X91187030Y73268991D02*
X91139411Y73173753D01*
X91139411Y73173753D02*
X91139411Y72935658D01*
X91139411Y72935658D02*
X91187030Y72840420D01*
X91187030Y72840420D02*
X91234649Y72792800D01*
X91234649Y72792800D02*
X91329887Y72745181D01*
X91329887Y72745181D02*
X91567982Y72745181D01*
X91567982Y72745181D02*
X91663220Y72792800D01*
X91663220Y72792800D02*
X91710839Y72840420D01*
X89377506Y72840420D02*
X89425125Y72792800D01*
X89425125Y72792800D02*
X89567982Y72745181D01*
X89567982Y72745181D02*
X89663220Y72745181D01*
X89663220Y72745181D02*
X89806077Y72792800D01*
X89806077Y72792800D02*
X89901315Y72888039D01*
X89901315Y72888039D02*
X89948934Y72983277D01*
X89948934Y72983277D02*
X89996553Y73173753D01*
X89996553Y73173753D02*
X89996553Y73316610D01*
X89996553Y73316610D02*
X89948934Y73507086D01*
X89948934Y73507086D02*
X89901315Y73602324D01*
X89901315Y73602324D02*
X89806077Y73697562D01*
X89806077Y73697562D02*
X89663220Y73745181D01*
X89663220Y73745181D02*
X89567982Y73745181D01*
X89567982Y73745181D02*
X89425125Y73697562D01*
X89425125Y73697562D02*
X89377506Y73649943D01*
X88520363Y73745181D02*
X88710839Y73745181D01*
X88710839Y73745181D02*
X88806077Y73697562D01*
X88806077Y73697562D02*
X88853696Y73649943D01*
X88853696Y73649943D02*
X88948934Y73507086D01*
X88948934Y73507086D02*
X88996553Y73316610D01*
X88996553Y73316610D02*
X88996553Y72935658D01*
X88996553Y72935658D02*
X88948934Y72840420D01*
X88948934Y72840420D02*
X88901315Y72792800D01*
X88901315Y72792800D02*
X88806077Y72745181D01*
X88806077Y72745181D02*
X88615601Y72745181D01*
X88615601Y72745181D02*
X88520363Y72792800D01*
X88520363Y72792800D02*
X88472744Y72840420D01*
X88472744Y72840420D02*
X88425125Y72935658D01*
X88425125Y72935658D02*
X88425125Y73173753D01*
X88425125Y73173753D02*
X88472744Y73268991D01*
X88472744Y73268991D02*
X88520363Y73316610D01*
X88520363Y73316610D02*
X88615601Y73364229D01*
X88615601Y73364229D02*
X88806077Y73364229D01*
X88806077Y73364229D02*
X88901315Y73316610D01*
X88901315Y73316610D02*
X88948934Y73268991D01*
X88948934Y73268991D02*
X88996553Y73173753D01*
X86663220Y72840420D02*
X86710839Y72792800D01*
X86710839Y72792800D02*
X86853696Y72745181D01*
X86853696Y72745181D02*
X86948934Y72745181D01*
X86948934Y72745181D02*
X87091791Y72792800D01*
X87091791Y72792800D02*
X87187029Y72888039D01*
X87187029Y72888039D02*
X87234648Y72983277D01*
X87234648Y72983277D02*
X87282267Y73173753D01*
X87282267Y73173753D02*
X87282267Y73316610D01*
X87282267Y73316610D02*
X87234648Y73507086D01*
X87234648Y73507086D02*
X87187029Y73602324D01*
X87187029Y73602324D02*
X87091791Y73697562D01*
X87091791Y73697562D02*
X86948934Y73745181D01*
X86948934Y73745181D02*
X86853696Y73745181D01*
X86853696Y73745181D02*
X86710839Y73697562D01*
X86710839Y73697562D02*
X86663220Y73649943D01*
X86329886Y73745181D02*
X85663220Y73745181D01*
X85663220Y73745181D02*
X86091791Y72745181D01*
X92091792Y70895181D02*
X92425125Y71371372D01*
X92663220Y70895181D02*
X92663220Y71895181D01*
X92663220Y71895181D02*
X92282268Y71895181D01*
X92282268Y71895181D02*
X92187030Y71847562D01*
X92187030Y71847562D02*
X92139411Y71799943D01*
X92139411Y71799943D02*
X92091792Y71704705D01*
X92091792Y71704705D02*
X92091792Y71561848D01*
X92091792Y71561848D02*
X92139411Y71466610D01*
X92139411Y71466610D02*
X92187030Y71418991D01*
X92187030Y71418991D02*
X92282268Y71371372D01*
X92282268Y71371372D02*
X92663220Y71371372D01*
X91139411Y70895181D02*
X91710839Y70895181D01*
X91425125Y70895181D02*
X91425125Y71895181D01*
X91425125Y71895181D02*
X91520363Y71752324D01*
X91520363Y71752324D02*
X91615601Y71657086D01*
X91615601Y71657086D02*
X91710839Y71609467D01*
X89377506Y70895181D02*
X89710839Y71371372D01*
X89948934Y70895181D02*
X89948934Y71895181D01*
X89948934Y71895181D02*
X89567982Y71895181D01*
X89567982Y71895181D02*
X89472744Y71847562D01*
X89472744Y71847562D02*
X89425125Y71799943D01*
X89425125Y71799943D02*
X89377506Y71704705D01*
X89377506Y71704705D02*
X89377506Y71561848D01*
X89377506Y71561848D02*
X89425125Y71466610D01*
X89425125Y71466610D02*
X89472744Y71418991D01*
X89472744Y71418991D02*
X89567982Y71371372D01*
X89567982Y71371372D02*
X89948934Y71371372D01*
X88996553Y71799943D02*
X88948934Y71847562D01*
X88948934Y71847562D02*
X88853696Y71895181D01*
X88853696Y71895181D02*
X88615601Y71895181D01*
X88615601Y71895181D02*
X88520363Y71847562D01*
X88520363Y71847562D02*
X88472744Y71799943D01*
X88472744Y71799943D02*
X88425125Y71704705D01*
X88425125Y71704705D02*
X88425125Y71609467D01*
X88425125Y71609467D02*
X88472744Y71466610D01*
X88472744Y71466610D02*
X89044172Y70895181D01*
X89044172Y70895181D02*
X88425125Y70895181D01*
X87567982Y71895181D02*
X87758458Y71895181D01*
X87758458Y71895181D02*
X87853696Y71847562D01*
X87853696Y71847562D02*
X87901315Y71799943D01*
X87901315Y71799943D02*
X87996553Y71657086D01*
X87996553Y71657086D02*
X88044172Y71466610D01*
X88044172Y71466610D02*
X88044172Y71085658D01*
X88044172Y71085658D02*
X87996553Y70990420D01*
X87996553Y70990420D02*
X87948934Y70942800D01*
X87948934Y70942800D02*
X87853696Y70895181D01*
X87853696Y70895181D02*
X87663220Y70895181D01*
X87663220Y70895181D02*
X87567982Y70942800D01*
X87567982Y70942800D02*
X87520363Y70990420D01*
X87520363Y70990420D02*
X87472744Y71085658D01*
X87472744Y71085658D02*
X87472744Y71323753D01*
X87472744Y71323753D02*
X87520363Y71418991D01*
X87520363Y71418991D02*
X87567982Y71466610D01*
X87567982Y71466610D02*
X87663220Y71514229D01*
X87663220Y71514229D02*
X87853696Y71514229D01*
X87853696Y71514229D02*
X87948934Y71466610D01*
X87948934Y71466610D02*
X87996553Y71418991D01*
X87996553Y71418991D02*
X88044172Y71323753D01*
X92091792Y69045181D02*
X92425125Y69521372D01*
X92663220Y69045181D02*
X92663220Y70045181D01*
X92663220Y70045181D02*
X92282268Y70045181D01*
X92282268Y70045181D02*
X92187030Y69997562D01*
X92187030Y69997562D02*
X92139411Y69949943D01*
X92139411Y69949943D02*
X92091792Y69854705D01*
X92091792Y69854705D02*
X92091792Y69711848D01*
X92091792Y69711848D02*
X92139411Y69616610D01*
X92139411Y69616610D02*
X92187030Y69568991D01*
X92187030Y69568991D02*
X92282268Y69521372D01*
X92282268Y69521372D02*
X92663220Y69521372D01*
X91710839Y69949943D02*
X91663220Y69997562D01*
X91663220Y69997562D02*
X91567982Y70045181D01*
X91567982Y70045181D02*
X91329887Y70045181D01*
X91329887Y70045181D02*
X91234649Y69997562D01*
X91234649Y69997562D02*
X91187030Y69949943D01*
X91187030Y69949943D02*
X91139411Y69854705D01*
X91139411Y69854705D02*
X91139411Y69759467D01*
X91139411Y69759467D02*
X91187030Y69616610D01*
X91187030Y69616610D02*
X91758458Y69045181D01*
X91758458Y69045181D02*
X91139411Y69045181D01*
X92091792Y67195181D02*
X92425125Y67671372D01*
X92663220Y67195181D02*
X92663220Y68195181D01*
X92663220Y68195181D02*
X92282268Y68195181D01*
X92282268Y68195181D02*
X92187030Y68147562D01*
X92187030Y68147562D02*
X92139411Y68099943D01*
X92139411Y68099943D02*
X92091792Y68004705D01*
X92091792Y68004705D02*
X92091792Y67861848D01*
X92091792Y67861848D02*
X92139411Y67766610D01*
X92139411Y67766610D02*
X92187030Y67718991D01*
X92187030Y67718991D02*
X92282268Y67671372D01*
X92282268Y67671372D02*
X92663220Y67671372D01*
X91758458Y68195181D02*
X91139411Y68195181D01*
X91139411Y68195181D02*
X91472744Y67814229D01*
X91472744Y67814229D02*
X91329887Y67814229D01*
X91329887Y67814229D02*
X91234649Y67766610D01*
X91234649Y67766610D02*
X91187030Y67718991D01*
X91187030Y67718991D02*
X91139411Y67623753D01*
X91139411Y67623753D02*
X91139411Y67385658D01*
X91139411Y67385658D02*
X91187030Y67290420D01*
X91187030Y67290420D02*
X91234649Y67242800D01*
X91234649Y67242800D02*
X91329887Y67195181D01*
X91329887Y67195181D02*
X91615601Y67195181D01*
X91615601Y67195181D02*
X91710839Y67242800D01*
X91710839Y67242800D02*
X91758458Y67290420D01*
X89377506Y67195181D02*
X89710839Y67671372D01*
X89948934Y67195181D02*
X89948934Y68195181D01*
X89948934Y68195181D02*
X89567982Y68195181D01*
X89567982Y68195181D02*
X89472744Y68147562D01*
X89472744Y68147562D02*
X89425125Y68099943D01*
X89425125Y68099943D02*
X89377506Y68004705D01*
X89377506Y68004705D02*
X89377506Y67861848D01*
X89377506Y67861848D02*
X89425125Y67766610D01*
X89425125Y67766610D02*
X89472744Y67718991D01*
X89472744Y67718991D02*
X89567982Y67671372D01*
X89567982Y67671372D02*
X89948934Y67671372D01*
X88520363Y67861848D02*
X88520363Y67195181D01*
X88758458Y68242800D02*
X88996553Y67528515D01*
X88996553Y67528515D02*
X88377506Y67528515D01*
X86663220Y67195181D02*
X86996553Y67671372D01*
X87234648Y67195181D02*
X87234648Y68195181D01*
X87234648Y68195181D02*
X86853696Y68195181D01*
X86853696Y68195181D02*
X86758458Y68147562D01*
X86758458Y68147562D02*
X86710839Y68099943D01*
X86710839Y68099943D02*
X86663220Y68004705D01*
X86663220Y68004705D02*
X86663220Y67861848D01*
X86663220Y67861848D02*
X86710839Y67766610D01*
X86710839Y67766610D02*
X86758458Y67718991D01*
X86758458Y67718991D02*
X86853696Y67671372D01*
X86853696Y67671372D02*
X87234648Y67671372D01*
X85758458Y68195181D02*
X86234648Y68195181D01*
X86234648Y68195181D02*
X86282267Y67718991D01*
X86282267Y67718991D02*
X86234648Y67766610D01*
X86234648Y67766610D02*
X86139410Y67814229D01*
X86139410Y67814229D02*
X85901315Y67814229D01*
X85901315Y67814229D02*
X85806077Y67766610D01*
X85806077Y67766610D02*
X85758458Y67718991D01*
X85758458Y67718991D02*
X85710839Y67623753D01*
X85710839Y67623753D02*
X85710839Y67385658D01*
X85710839Y67385658D02*
X85758458Y67290420D01*
X85758458Y67290420D02*
X85806077Y67242800D01*
X85806077Y67242800D02*
X85901315Y67195181D01*
X85901315Y67195181D02*
X86139410Y67195181D01*
X86139410Y67195181D02*
X86234648Y67242800D01*
X86234648Y67242800D02*
X86282267Y67290420D01*
X83948934Y67195181D02*
X84282267Y67671372D01*
X84520362Y67195181D02*
X84520362Y68195181D01*
X84520362Y68195181D02*
X84139410Y68195181D01*
X84139410Y68195181D02*
X84044172Y68147562D01*
X84044172Y68147562D02*
X83996553Y68099943D01*
X83996553Y68099943D02*
X83948934Y68004705D01*
X83948934Y68004705D02*
X83948934Y67861848D01*
X83948934Y67861848D02*
X83996553Y67766610D01*
X83996553Y67766610D02*
X84044172Y67718991D01*
X84044172Y67718991D02*
X84139410Y67671372D01*
X84139410Y67671372D02*
X84520362Y67671372D01*
X83091791Y68195181D02*
X83282267Y68195181D01*
X83282267Y68195181D02*
X83377505Y68147562D01*
X83377505Y68147562D02*
X83425124Y68099943D01*
X83425124Y68099943D02*
X83520362Y67957086D01*
X83520362Y67957086D02*
X83567981Y67766610D01*
X83567981Y67766610D02*
X83567981Y67385658D01*
X83567981Y67385658D02*
X83520362Y67290420D01*
X83520362Y67290420D02*
X83472743Y67242800D01*
X83472743Y67242800D02*
X83377505Y67195181D01*
X83377505Y67195181D02*
X83187029Y67195181D01*
X83187029Y67195181D02*
X83091791Y67242800D01*
X83091791Y67242800D02*
X83044172Y67290420D01*
X83044172Y67290420D02*
X82996553Y67385658D01*
X82996553Y67385658D02*
X82996553Y67623753D01*
X82996553Y67623753D02*
X83044172Y67718991D01*
X83044172Y67718991D02*
X83091791Y67766610D01*
X83091791Y67766610D02*
X83187029Y67814229D01*
X83187029Y67814229D02*
X83377505Y67814229D01*
X83377505Y67814229D02*
X83472743Y67766610D01*
X83472743Y67766610D02*
X83520362Y67718991D01*
X83520362Y67718991D02*
X83567981Y67623753D01*
X81234648Y67195181D02*
X81567981Y67671372D01*
X81806076Y67195181D02*
X81806076Y68195181D01*
X81806076Y68195181D02*
X81425124Y68195181D01*
X81425124Y68195181D02*
X81329886Y68147562D01*
X81329886Y68147562D02*
X81282267Y68099943D01*
X81282267Y68099943D02*
X81234648Y68004705D01*
X81234648Y68004705D02*
X81234648Y67861848D01*
X81234648Y67861848D02*
X81282267Y67766610D01*
X81282267Y67766610D02*
X81329886Y67718991D01*
X81329886Y67718991D02*
X81425124Y67671372D01*
X81425124Y67671372D02*
X81806076Y67671372D01*
X80282267Y67195181D02*
X80853695Y67195181D01*
X80567981Y67195181D02*
X80567981Y68195181D01*
X80567981Y68195181D02*
X80663219Y68052324D01*
X80663219Y68052324D02*
X80758457Y67957086D01*
X80758457Y67957086D02*
X80853695Y67909467D01*
X79663219Y68195181D02*
X79567981Y68195181D01*
X79567981Y68195181D02*
X79472743Y68147562D01*
X79472743Y68147562D02*
X79425124Y68099943D01*
X79425124Y68099943D02*
X79377505Y68004705D01*
X79377505Y68004705D02*
X79329886Y67814229D01*
X79329886Y67814229D02*
X79329886Y67576134D01*
X79329886Y67576134D02*
X79377505Y67385658D01*
X79377505Y67385658D02*
X79425124Y67290420D01*
X79425124Y67290420D02*
X79472743Y67242800D01*
X79472743Y67242800D02*
X79567981Y67195181D01*
X79567981Y67195181D02*
X79663219Y67195181D01*
X79663219Y67195181D02*
X79758457Y67242800D01*
X79758457Y67242800D02*
X79806076Y67290420D01*
X79806076Y67290420D02*
X79853695Y67385658D01*
X79853695Y67385658D02*
X79901314Y67576134D01*
X79901314Y67576134D02*
X79901314Y67814229D01*
X79901314Y67814229D02*
X79853695Y68004705D01*
X79853695Y68004705D02*
X79806076Y68099943D01*
X79806076Y68099943D02*
X79758457Y68147562D01*
X79758457Y68147562D02*
X79663219Y68195181D01*
X77567981Y67195181D02*
X77901314Y67671372D01*
X78139409Y67195181D02*
X78139409Y68195181D01*
X78139409Y68195181D02*
X77758457Y68195181D01*
X77758457Y68195181D02*
X77663219Y68147562D01*
X77663219Y68147562D02*
X77615600Y68099943D01*
X77615600Y68099943D02*
X77567981Y68004705D01*
X77567981Y68004705D02*
X77567981Y67861848D01*
X77567981Y67861848D02*
X77615600Y67766610D01*
X77615600Y67766610D02*
X77663219Y67718991D01*
X77663219Y67718991D02*
X77758457Y67671372D01*
X77758457Y67671372D02*
X78139409Y67671372D01*
X77187028Y68099943D02*
X77139409Y68147562D01*
X77139409Y68147562D02*
X77044171Y68195181D01*
X77044171Y68195181D02*
X76806076Y68195181D01*
X76806076Y68195181D02*
X76710838Y68147562D01*
X76710838Y68147562D02*
X76663219Y68099943D01*
X76663219Y68099943D02*
X76615600Y68004705D01*
X76615600Y68004705D02*
X76615600Y67909467D01*
X76615600Y67909467D02*
X76663219Y67766610D01*
X76663219Y67766610D02*
X77234647Y67195181D01*
X77234647Y67195181D02*
X76615600Y67195181D01*
X75996552Y68195181D02*
X75901314Y68195181D01*
X75901314Y68195181D02*
X75806076Y68147562D01*
X75806076Y68147562D02*
X75758457Y68099943D01*
X75758457Y68099943D02*
X75710838Y68004705D01*
X75710838Y68004705D02*
X75663219Y67814229D01*
X75663219Y67814229D02*
X75663219Y67576134D01*
X75663219Y67576134D02*
X75710838Y67385658D01*
X75710838Y67385658D02*
X75758457Y67290420D01*
X75758457Y67290420D02*
X75806076Y67242800D01*
X75806076Y67242800D02*
X75901314Y67195181D01*
X75901314Y67195181D02*
X75996552Y67195181D01*
X75996552Y67195181D02*
X76091790Y67242800D01*
X76091790Y67242800D02*
X76139409Y67290420D01*
X76139409Y67290420D02*
X76187028Y67385658D01*
X76187028Y67385658D02*
X76234647Y67576134D01*
X76234647Y67576134D02*
X76234647Y67814229D01*
X76234647Y67814229D02*
X76187028Y68004705D01*
X76187028Y68004705D02*
X76139409Y68099943D01*
X76139409Y68099943D02*
X76091790Y68147562D01*
X76091790Y68147562D02*
X75996552Y68195181D01*
X92091792Y65440420D02*
X92139411Y65392800D01*
X92139411Y65392800D02*
X92282268Y65345181D01*
X92282268Y65345181D02*
X92377506Y65345181D01*
X92377506Y65345181D02*
X92520363Y65392800D01*
X92520363Y65392800D02*
X92615601Y65488039D01*
X92615601Y65488039D02*
X92663220Y65583277D01*
X92663220Y65583277D02*
X92710839Y65773753D01*
X92710839Y65773753D02*
X92710839Y65916610D01*
X92710839Y65916610D02*
X92663220Y66107086D01*
X92663220Y66107086D02*
X92615601Y66202324D01*
X92615601Y66202324D02*
X92520363Y66297562D01*
X92520363Y66297562D02*
X92377506Y66345181D01*
X92377506Y66345181D02*
X92282268Y66345181D01*
X92282268Y66345181D02*
X92139411Y66297562D01*
X92139411Y66297562D02*
X92091792Y66249943D01*
X91615601Y65345181D02*
X91425125Y65345181D01*
X91425125Y65345181D02*
X91329887Y65392800D01*
X91329887Y65392800D02*
X91282268Y65440420D01*
X91282268Y65440420D02*
X91187030Y65583277D01*
X91187030Y65583277D02*
X91139411Y65773753D01*
X91139411Y65773753D02*
X91139411Y66154705D01*
X91139411Y66154705D02*
X91187030Y66249943D01*
X91187030Y66249943D02*
X91234649Y66297562D01*
X91234649Y66297562D02*
X91329887Y66345181D01*
X91329887Y66345181D02*
X91520363Y66345181D01*
X91520363Y66345181D02*
X91615601Y66297562D01*
X91615601Y66297562D02*
X91663220Y66249943D01*
X91663220Y66249943D02*
X91710839Y66154705D01*
X91710839Y66154705D02*
X91710839Y65916610D01*
X91710839Y65916610D02*
X91663220Y65821372D01*
X91663220Y65821372D02*
X91615601Y65773753D01*
X91615601Y65773753D02*
X91520363Y65726134D01*
X91520363Y65726134D02*
X91329887Y65726134D01*
X91329887Y65726134D02*
X91234649Y65773753D01*
X91234649Y65773753D02*
X91187030Y65821372D01*
X91187030Y65821372D02*
X91139411Y65916610D01*
X89377506Y65440420D02*
X89425125Y65392800D01*
X89425125Y65392800D02*
X89567982Y65345181D01*
X89567982Y65345181D02*
X89663220Y65345181D01*
X89663220Y65345181D02*
X89806077Y65392800D01*
X89806077Y65392800D02*
X89901315Y65488039D01*
X89901315Y65488039D02*
X89948934Y65583277D01*
X89948934Y65583277D02*
X89996553Y65773753D01*
X89996553Y65773753D02*
X89996553Y65916610D01*
X89996553Y65916610D02*
X89948934Y66107086D01*
X89948934Y66107086D02*
X89901315Y66202324D01*
X89901315Y66202324D02*
X89806077Y66297562D01*
X89806077Y66297562D02*
X89663220Y66345181D01*
X89663220Y66345181D02*
X89567982Y66345181D01*
X89567982Y66345181D02*
X89425125Y66297562D01*
X89425125Y66297562D02*
X89377506Y66249943D01*
X88425125Y65345181D02*
X88996553Y65345181D01*
X88710839Y65345181D02*
X88710839Y66345181D01*
X88710839Y66345181D02*
X88806077Y66202324D01*
X88806077Y66202324D02*
X88901315Y66107086D01*
X88901315Y66107086D02*
X88996553Y66059467D01*
X87853696Y65916610D02*
X87948934Y65964229D01*
X87948934Y65964229D02*
X87996553Y66011848D01*
X87996553Y66011848D02*
X88044172Y66107086D01*
X88044172Y66107086D02*
X88044172Y66154705D01*
X88044172Y66154705D02*
X87996553Y66249943D01*
X87996553Y66249943D02*
X87948934Y66297562D01*
X87948934Y66297562D02*
X87853696Y66345181D01*
X87853696Y66345181D02*
X87663220Y66345181D01*
X87663220Y66345181D02*
X87567982Y66297562D01*
X87567982Y66297562D02*
X87520363Y66249943D01*
X87520363Y66249943D02*
X87472744Y66154705D01*
X87472744Y66154705D02*
X87472744Y66107086D01*
X87472744Y66107086D02*
X87520363Y66011848D01*
X87520363Y66011848D02*
X87567982Y65964229D01*
X87567982Y65964229D02*
X87663220Y65916610D01*
X87663220Y65916610D02*
X87853696Y65916610D01*
X87853696Y65916610D02*
X87948934Y65868991D01*
X87948934Y65868991D02*
X87996553Y65821372D01*
X87996553Y65821372D02*
X88044172Y65726134D01*
X88044172Y65726134D02*
X88044172Y65535658D01*
X88044172Y65535658D02*
X87996553Y65440420D01*
X87996553Y65440420D02*
X87948934Y65392800D01*
X87948934Y65392800D02*
X87853696Y65345181D01*
X87853696Y65345181D02*
X87663220Y65345181D01*
X87663220Y65345181D02*
X87567982Y65392800D01*
X87567982Y65392800D02*
X87520363Y65440420D01*
X87520363Y65440420D02*
X87472744Y65535658D01*
X87472744Y65535658D02*
X87472744Y65726134D01*
X87472744Y65726134D02*
X87520363Y65821372D01*
X87520363Y65821372D02*
X87567982Y65868991D01*
X87567982Y65868991D02*
X87663220Y65916610D01*
X85710839Y65440420D02*
X85758458Y65392800D01*
X85758458Y65392800D02*
X85901315Y65345181D01*
X85901315Y65345181D02*
X85996553Y65345181D01*
X85996553Y65345181D02*
X86139410Y65392800D01*
X86139410Y65392800D02*
X86234648Y65488039D01*
X86234648Y65488039D02*
X86282267Y65583277D01*
X86282267Y65583277D02*
X86329886Y65773753D01*
X86329886Y65773753D02*
X86329886Y65916610D01*
X86329886Y65916610D02*
X86282267Y66107086D01*
X86282267Y66107086D02*
X86234648Y66202324D01*
X86234648Y66202324D02*
X86139410Y66297562D01*
X86139410Y66297562D02*
X85996553Y66345181D01*
X85996553Y66345181D02*
X85901315Y66345181D01*
X85901315Y66345181D02*
X85758458Y66297562D01*
X85758458Y66297562D02*
X85710839Y66249943D01*
X84758458Y65345181D02*
X85329886Y65345181D01*
X85044172Y65345181D02*
X85044172Y66345181D01*
X85044172Y66345181D02*
X85139410Y66202324D01*
X85139410Y66202324D02*
X85234648Y66107086D01*
X85234648Y66107086D02*
X85329886Y66059467D01*
X84282267Y65345181D02*
X84091791Y65345181D01*
X84091791Y65345181D02*
X83996553Y65392800D01*
X83996553Y65392800D02*
X83948934Y65440420D01*
X83948934Y65440420D02*
X83853696Y65583277D01*
X83853696Y65583277D02*
X83806077Y65773753D01*
X83806077Y65773753D02*
X83806077Y66154705D01*
X83806077Y66154705D02*
X83853696Y66249943D01*
X83853696Y66249943D02*
X83901315Y66297562D01*
X83901315Y66297562D02*
X83996553Y66345181D01*
X83996553Y66345181D02*
X84187029Y66345181D01*
X84187029Y66345181D02*
X84282267Y66297562D01*
X84282267Y66297562D02*
X84329886Y66249943D01*
X84329886Y66249943D02*
X84377505Y66154705D01*
X84377505Y66154705D02*
X84377505Y65916610D01*
X84377505Y65916610D02*
X84329886Y65821372D01*
X84329886Y65821372D02*
X84282267Y65773753D01*
X84282267Y65773753D02*
X84187029Y65726134D01*
X84187029Y65726134D02*
X83996553Y65726134D01*
X83996553Y65726134D02*
X83901315Y65773753D01*
X83901315Y65773753D02*
X83853696Y65821372D01*
X83853696Y65821372D02*
X83806077Y65916610D01*
X92710839Y63542800D02*
X92567982Y63495181D01*
X92567982Y63495181D02*
X92329887Y63495181D01*
X92329887Y63495181D02*
X92234649Y63542800D01*
X92234649Y63542800D02*
X92187030Y63590420D01*
X92187030Y63590420D02*
X92139411Y63685658D01*
X92139411Y63685658D02*
X92139411Y63780896D01*
X92139411Y63780896D02*
X92187030Y63876134D01*
X92187030Y63876134D02*
X92234649Y63923753D01*
X92234649Y63923753D02*
X92329887Y63971372D01*
X92329887Y63971372D02*
X92520363Y64018991D01*
X92520363Y64018991D02*
X92615601Y64066610D01*
X92615601Y64066610D02*
X92663220Y64114229D01*
X92663220Y64114229D02*
X92710839Y64209467D01*
X92710839Y64209467D02*
X92710839Y64304705D01*
X92710839Y64304705D02*
X92663220Y64399943D01*
X92663220Y64399943D02*
X92615601Y64447562D01*
X92615601Y64447562D02*
X92520363Y64495181D01*
X92520363Y64495181D02*
X92282268Y64495181D01*
X92282268Y64495181D02*
X92139411Y64447562D01*
X91806077Y64495181D02*
X91567982Y63495181D01*
X91567982Y63495181D02*
X91377506Y64209467D01*
X91377506Y64209467D02*
X91187030Y63495181D01*
X91187030Y63495181D02*
X90948935Y64495181D01*
X90044173Y63495181D02*
X90615601Y63495181D01*
X90329887Y63495181D02*
X90329887Y64495181D01*
X90329887Y64495181D02*
X90425125Y64352324D01*
X90425125Y64352324D02*
X90520363Y64257086D01*
X90520363Y64257086D02*
X90615601Y64209467D01*
X88901315Y63542800D02*
X88758458Y63495181D01*
X88758458Y63495181D02*
X88520363Y63495181D01*
X88520363Y63495181D02*
X88425125Y63542800D01*
X88425125Y63542800D02*
X88377506Y63590420D01*
X88377506Y63590420D02*
X88329887Y63685658D01*
X88329887Y63685658D02*
X88329887Y63780896D01*
X88329887Y63780896D02*
X88377506Y63876134D01*
X88377506Y63876134D02*
X88425125Y63923753D01*
X88425125Y63923753D02*
X88520363Y63971372D01*
X88520363Y63971372D02*
X88710839Y64018991D01*
X88710839Y64018991D02*
X88806077Y64066610D01*
X88806077Y64066610D02*
X88853696Y64114229D01*
X88853696Y64114229D02*
X88901315Y64209467D01*
X88901315Y64209467D02*
X88901315Y64304705D01*
X88901315Y64304705D02*
X88853696Y64399943D01*
X88853696Y64399943D02*
X88806077Y64447562D01*
X88806077Y64447562D02*
X88710839Y64495181D01*
X88710839Y64495181D02*
X88472744Y64495181D01*
X88472744Y64495181D02*
X88329887Y64447562D01*
X87996553Y64495181D02*
X87758458Y63495181D01*
X87758458Y63495181D02*
X87567982Y64209467D01*
X87567982Y64209467D02*
X87377506Y63495181D01*
X87377506Y63495181D02*
X87139411Y64495181D01*
X86806077Y64399943D02*
X86758458Y64447562D01*
X86758458Y64447562D02*
X86663220Y64495181D01*
X86663220Y64495181D02*
X86425125Y64495181D01*
X86425125Y64495181D02*
X86329887Y64447562D01*
X86329887Y64447562D02*
X86282268Y64399943D01*
X86282268Y64399943D02*
X86234649Y64304705D01*
X86234649Y64304705D02*
X86234649Y64209467D01*
X86234649Y64209467D02*
X86282268Y64066610D01*
X86282268Y64066610D02*
X86853696Y63495181D01*
X86853696Y63495181D02*
X86234649Y63495181D01*
X92091792Y61645181D02*
X92425125Y62121372D01*
X92663220Y61645181D02*
X92663220Y62645181D01*
X92663220Y62645181D02*
X92282268Y62645181D01*
X92282268Y62645181D02*
X92187030Y62597562D01*
X92187030Y62597562D02*
X92139411Y62549943D01*
X92139411Y62549943D02*
X92091792Y62454705D01*
X92091792Y62454705D02*
X92091792Y62311848D01*
X92091792Y62311848D02*
X92139411Y62216610D01*
X92139411Y62216610D02*
X92187030Y62168991D01*
X92187030Y62168991D02*
X92282268Y62121372D01*
X92282268Y62121372D02*
X92663220Y62121372D01*
X91758458Y62645181D02*
X91091792Y62645181D01*
X91091792Y62645181D02*
X91520363Y61645181D01*
X92091792Y59795181D02*
X92425125Y60271372D01*
X92663220Y59795181D02*
X92663220Y60795181D01*
X92663220Y60795181D02*
X92282268Y60795181D01*
X92282268Y60795181D02*
X92187030Y60747562D01*
X92187030Y60747562D02*
X92139411Y60699943D01*
X92139411Y60699943D02*
X92091792Y60604705D01*
X92091792Y60604705D02*
X92091792Y60461848D01*
X92091792Y60461848D02*
X92139411Y60366610D01*
X92139411Y60366610D02*
X92187030Y60318991D01*
X92187030Y60318991D02*
X92282268Y60271372D01*
X92282268Y60271372D02*
X92663220Y60271372D01*
X91520363Y60366610D02*
X91615601Y60414229D01*
X91615601Y60414229D02*
X91663220Y60461848D01*
X91663220Y60461848D02*
X91710839Y60557086D01*
X91710839Y60557086D02*
X91710839Y60604705D01*
X91710839Y60604705D02*
X91663220Y60699943D01*
X91663220Y60699943D02*
X91615601Y60747562D01*
X91615601Y60747562D02*
X91520363Y60795181D01*
X91520363Y60795181D02*
X91329887Y60795181D01*
X91329887Y60795181D02*
X91234649Y60747562D01*
X91234649Y60747562D02*
X91187030Y60699943D01*
X91187030Y60699943D02*
X91139411Y60604705D01*
X91139411Y60604705D02*
X91139411Y60557086D01*
X91139411Y60557086D02*
X91187030Y60461848D01*
X91187030Y60461848D02*
X91234649Y60414229D01*
X91234649Y60414229D02*
X91329887Y60366610D01*
X91329887Y60366610D02*
X91520363Y60366610D01*
X91520363Y60366610D02*
X91615601Y60318991D01*
X91615601Y60318991D02*
X91663220Y60271372D01*
X91663220Y60271372D02*
X91710839Y60176134D01*
X91710839Y60176134D02*
X91710839Y59985658D01*
X91710839Y59985658D02*
X91663220Y59890420D01*
X91663220Y59890420D02*
X91615601Y59842800D01*
X91615601Y59842800D02*
X91520363Y59795181D01*
X91520363Y59795181D02*
X91329887Y59795181D01*
X91329887Y59795181D02*
X91234649Y59842800D01*
X91234649Y59842800D02*
X91187030Y59890420D01*
X91187030Y59890420D02*
X91139411Y59985658D01*
X91139411Y59985658D02*
X91139411Y60176134D01*
X91139411Y60176134D02*
X91187030Y60271372D01*
X91187030Y60271372D02*
X91234649Y60318991D01*
X91234649Y60318991D02*
X91329887Y60366610D01*
X92091792Y57945181D02*
X92425125Y58421372D01*
X92663220Y57945181D02*
X92663220Y58945181D01*
X92663220Y58945181D02*
X92282268Y58945181D01*
X92282268Y58945181D02*
X92187030Y58897562D01*
X92187030Y58897562D02*
X92139411Y58849943D01*
X92139411Y58849943D02*
X92091792Y58754705D01*
X92091792Y58754705D02*
X92091792Y58611848D01*
X92091792Y58611848D02*
X92139411Y58516610D01*
X92139411Y58516610D02*
X92187030Y58468991D01*
X92187030Y58468991D02*
X92282268Y58421372D01*
X92282268Y58421372D02*
X92663220Y58421372D01*
X91615601Y57945181D02*
X91425125Y57945181D01*
X91425125Y57945181D02*
X91329887Y57992800D01*
X91329887Y57992800D02*
X91282268Y58040420D01*
X91282268Y58040420D02*
X91187030Y58183277D01*
X91187030Y58183277D02*
X91139411Y58373753D01*
X91139411Y58373753D02*
X91139411Y58754705D01*
X91139411Y58754705D02*
X91187030Y58849943D01*
X91187030Y58849943D02*
X91234649Y58897562D01*
X91234649Y58897562D02*
X91329887Y58945181D01*
X91329887Y58945181D02*
X91520363Y58945181D01*
X91520363Y58945181D02*
X91615601Y58897562D01*
X91615601Y58897562D02*
X91663220Y58849943D01*
X91663220Y58849943D02*
X91710839Y58754705D01*
X91710839Y58754705D02*
X91710839Y58516610D01*
X91710839Y58516610D02*
X91663220Y58421372D01*
X91663220Y58421372D02*
X91615601Y58373753D01*
X91615601Y58373753D02*
X91520363Y58326134D01*
X91520363Y58326134D02*
X91329887Y58326134D01*
X91329887Y58326134D02*
X91234649Y58373753D01*
X91234649Y58373753D02*
X91187030Y58421372D01*
X91187030Y58421372D02*
X91139411Y58516610D01*
X89377506Y57945181D02*
X89710839Y58421372D01*
X89948934Y57945181D02*
X89948934Y58945181D01*
X89948934Y58945181D02*
X89567982Y58945181D01*
X89567982Y58945181D02*
X89472744Y58897562D01*
X89472744Y58897562D02*
X89425125Y58849943D01*
X89425125Y58849943D02*
X89377506Y58754705D01*
X89377506Y58754705D02*
X89377506Y58611848D01*
X89377506Y58611848D02*
X89425125Y58516610D01*
X89425125Y58516610D02*
X89472744Y58468991D01*
X89472744Y58468991D02*
X89567982Y58421372D01*
X89567982Y58421372D02*
X89948934Y58421372D01*
X88425125Y57945181D02*
X88996553Y57945181D01*
X88710839Y57945181D02*
X88710839Y58945181D01*
X88710839Y58945181D02*
X88806077Y58802324D01*
X88806077Y58802324D02*
X88901315Y58707086D01*
X88901315Y58707086D02*
X88996553Y58659467D01*
X87853696Y58516610D02*
X87948934Y58564229D01*
X87948934Y58564229D02*
X87996553Y58611848D01*
X87996553Y58611848D02*
X88044172Y58707086D01*
X88044172Y58707086D02*
X88044172Y58754705D01*
X88044172Y58754705D02*
X87996553Y58849943D01*
X87996553Y58849943D02*
X87948934Y58897562D01*
X87948934Y58897562D02*
X87853696Y58945181D01*
X87853696Y58945181D02*
X87663220Y58945181D01*
X87663220Y58945181D02*
X87567982Y58897562D01*
X87567982Y58897562D02*
X87520363Y58849943D01*
X87520363Y58849943D02*
X87472744Y58754705D01*
X87472744Y58754705D02*
X87472744Y58707086D01*
X87472744Y58707086D02*
X87520363Y58611848D01*
X87520363Y58611848D02*
X87567982Y58564229D01*
X87567982Y58564229D02*
X87663220Y58516610D01*
X87663220Y58516610D02*
X87853696Y58516610D01*
X87853696Y58516610D02*
X87948934Y58468991D01*
X87948934Y58468991D02*
X87996553Y58421372D01*
X87996553Y58421372D02*
X88044172Y58326134D01*
X88044172Y58326134D02*
X88044172Y58135658D01*
X88044172Y58135658D02*
X87996553Y58040420D01*
X87996553Y58040420D02*
X87948934Y57992800D01*
X87948934Y57992800D02*
X87853696Y57945181D01*
X87853696Y57945181D02*
X87663220Y57945181D01*
X87663220Y57945181D02*
X87567982Y57992800D01*
X87567982Y57992800D02*
X87520363Y58040420D01*
X87520363Y58040420D02*
X87472744Y58135658D01*
X87472744Y58135658D02*
X87472744Y58326134D01*
X87472744Y58326134D02*
X87520363Y58421372D01*
X87520363Y58421372D02*
X87567982Y58468991D01*
X87567982Y58468991D02*
X87663220Y58516610D01*
X85710839Y57945181D02*
X86044172Y58421372D01*
X86282267Y57945181D02*
X86282267Y58945181D01*
X86282267Y58945181D02*
X85901315Y58945181D01*
X85901315Y58945181D02*
X85806077Y58897562D01*
X85806077Y58897562D02*
X85758458Y58849943D01*
X85758458Y58849943D02*
X85710839Y58754705D01*
X85710839Y58754705D02*
X85710839Y58611848D01*
X85710839Y58611848D02*
X85758458Y58516610D01*
X85758458Y58516610D02*
X85806077Y58468991D01*
X85806077Y58468991D02*
X85901315Y58421372D01*
X85901315Y58421372D02*
X86282267Y58421372D01*
X84758458Y57945181D02*
X85329886Y57945181D01*
X85044172Y57945181D02*
X85044172Y58945181D01*
X85044172Y58945181D02*
X85139410Y58802324D01*
X85139410Y58802324D02*
X85234648Y58707086D01*
X85234648Y58707086D02*
X85329886Y58659467D01*
X84282267Y57945181D02*
X84091791Y57945181D01*
X84091791Y57945181D02*
X83996553Y57992800D01*
X83996553Y57992800D02*
X83948934Y58040420D01*
X83948934Y58040420D02*
X83853696Y58183277D01*
X83853696Y58183277D02*
X83806077Y58373753D01*
X83806077Y58373753D02*
X83806077Y58754705D01*
X83806077Y58754705D02*
X83853696Y58849943D01*
X83853696Y58849943D02*
X83901315Y58897562D01*
X83901315Y58897562D02*
X83996553Y58945181D01*
X83996553Y58945181D02*
X84187029Y58945181D01*
X84187029Y58945181D02*
X84282267Y58897562D01*
X84282267Y58897562D02*
X84329886Y58849943D01*
X84329886Y58849943D02*
X84377505Y58754705D01*
X84377505Y58754705D02*
X84377505Y58516610D01*
X84377505Y58516610D02*
X84329886Y58421372D01*
X84329886Y58421372D02*
X84282267Y58373753D01*
X84282267Y58373753D02*
X84187029Y58326134D01*
X84187029Y58326134D02*
X83996553Y58326134D01*
X83996553Y58326134D02*
X83901315Y58373753D01*
X83901315Y58373753D02*
X83853696Y58421372D01*
X83853696Y58421372D02*
X83806077Y58516610D01*
X92663220Y56095181D02*
X92663220Y57095181D01*
X92663220Y57095181D02*
X92425125Y57095181D01*
X92425125Y57095181D02*
X92282268Y57047562D01*
X92282268Y57047562D02*
X92187030Y56952324D01*
X92187030Y56952324D02*
X92139411Y56857086D01*
X92139411Y56857086D02*
X92091792Y56666610D01*
X92091792Y56666610D02*
X92091792Y56523753D01*
X92091792Y56523753D02*
X92139411Y56333277D01*
X92139411Y56333277D02*
X92187030Y56238039D01*
X92187030Y56238039D02*
X92282268Y56142800D01*
X92282268Y56142800D02*
X92425125Y56095181D01*
X92425125Y56095181D02*
X92663220Y56095181D01*
X91234649Y57095181D02*
X91425125Y57095181D01*
X91425125Y57095181D02*
X91520363Y57047562D01*
X91520363Y57047562D02*
X91567982Y56999943D01*
X91567982Y56999943D02*
X91663220Y56857086D01*
X91663220Y56857086D02*
X91710839Y56666610D01*
X91710839Y56666610D02*
X91710839Y56285658D01*
X91710839Y56285658D02*
X91663220Y56190420D01*
X91663220Y56190420D02*
X91615601Y56142800D01*
X91615601Y56142800D02*
X91520363Y56095181D01*
X91520363Y56095181D02*
X91329887Y56095181D01*
X91329887Y56095181D02*
X91234649Y56142800D01*
X91234649Y56142800D02*
X91187030Y56190420D01*
X91187030Y56190420D02*
X91139411Y56285658D01*
X91139411Y56285658D02*
X91139411Y56523753D01*
X91139411Y56523753D02*
X91187030Y56618991D01*
X91187030Y56618991D02*
X91234649Y56666610D01*
X91234649Y56666610D02*
X91329887Y56714229D01*
X91329887Y56714229D02*
X91520363Y56714229D01*
X91520363Y56714229D02*
X91615601Y56666610D01*
X91615601Y56666610D02*
X91663220Y56618991D01*
X91663220Y56618991D02*
X91710839Y56523753D01*
X92663220Y55245181D02*
X92663220Y54435658D01*
X92663220Y54435658D02*
X92615601Y54340420D01*
X92615601Y54340420D02*
X92567982Y54292800D01*
X92567982Y54292800D02*
X92472744Y54245181D01*
X92472744Y54245181D02*
X92282268Y54245181D01*
X92282268Y54245181D02*
X92187030Y54292800D01*
X92187030Y54292800D02*
X92139411Y54340420D01*
X92139411Y54340420D02*
X92091792Y54435658D01*
X92091792Y54435658D02*
X92091792Y55245181D01*
X91710839Y55245181D02*
X91091792Y55245181D01*
X91091792Y55245181D02*
X91425125Y54864229D01*
X91425125Y54864229D02*
X91282268Y54864229D01*
X91282268Y54864229D02*
X91187030Y54816610D01*
X91187030Y54816610D02*
X91139411Y54768991D01*
X91139411Y54768991D02*
X91091792Y54673753D01*
X91091792Y54673753D02*
X91091792Y54435658D01*
X91091792Y54435658D02*
X91139411Y54340420D01*
X91139411Y54340420D02*
X91187030Y54292800D01*
X91187030Y54292800D02*
X91282268Y54245181D01*
X91282268Y54245181D02*
X91567982Y54245181D01*
X91567982Y54245181D02*
X91663220Y54292800D01*
X91663220Y54292800D02*
X91710839Y54340420D01*
X92663220Y52395181D02*
X92663220Y53395181D01*
X92663220Y53395181D02*
X92425125Y53395181D01*
X92425125Y53395181D02*
X92282268Y53347562D01*
X92282268Y53347562D02*
X92187030Y53252324D01*
X92187030Y53252324D02*
X92139411Y53157086D01*
X92139411Y53157086D02*
X92091792Y52966610D01*
X92091792Y52966610D02*
X92091792Y52823753D01*
X92091792Y52823753D02*
X92139411Y52633277D01*
X92139411Y52633277D02*
X92187030Y52538039D01*
X92187030Y52538039D02*
X92282268Y52442800D01*
X92282268Y52442800D02*
X92425125Y52395181D01*
X92425125Y52395181D02*
X92663220Y52395181D01*
X91234649Y53061848D02*
X91234649Y52395181D01*
X91472744Y53442800D02*
X91710839Y52728515D01*
X91710839Y52728515D02*
X91091792Y52728515D01*
X92377506Y51545181D02*
X92377506Y50830896D01*
X92377506Y50830896D02*
X92425125Y50688039D01*
X92425125Y50688039D02*
X92520363Y50592800D01*
X92520363Y50592800D02*
X92663220Y50545181D01*
X92663220Y50545181D02*
X92758458Y50545181D01*
X91996553Y51545181D02*
X91377506Y51545181D01*
X91377506Y51545181D02*
X91710839Y51164229D01*
X91710839Y51164229D02*
X91567982Y51164229D01*
X91567982Y51164229D02*
X91472744Y51116610D01*
X91472744Y51116610D02*
X91425125Y51068991D01*
X91425125Y51068991D02*
X91377506Y50973753D01*
X91377506Y50973753D02*
X91377506Y50735658D01*
X91377506Y50735658D02*
X91425125Y50640420D01*
X91425125Y50640420D02*
X91472744Y50592800D01*
X91472744Y50592800D02*
X91567982Y50545181D01*
X91567982Y50545181D02*
X91853696Y50545181D01*
X91853696Y50545181D02*
X91948934Y50592800D01*
X91948934Y50592800D02*
X91996553Y50640420D01*
X92091792Y48790420D02*
X92139411Y48742800D01*
X92139411Y48742800D02*
X92282268Y48695181D01*
X92282268Y48695181D02*
X92377506Y48695181D01*
X92377506Y48695181D02*
X92520363Y48742800D01*
X92520363Y48742800D02*
X92615601Y48838039D01*
X92615601Y48838039D02*
X92663220Y48933277D01*
X92663220Y48933277D02*
X92710839Y49123753D01*
X92710839Y49123753D02*
X92710839Y49266610D01*
X92710839Y49266610D02*
X92663220Y49457086D01*
X92663220Y49457086D02*
X92615601Y49552324D01*
X92615601Y49552324D02*
X92520363Y49647562D01*
X92520363Y49647562D02*
X92377506Y49695181D01*
X92377506Y49695181D02*
X92282268Y49695181D01*
X92282268Y49695181D02*
X92139411Y49647562D01*
X92139411Y49647562D02*
X92091792Y49599943D01*
X91139411Y48695181D02*
X91710839Y48695181D01*
X91425125Y48695181D02*
X91425125Y49695181D01*
X91425125Y49695181D02*
X91520363Y49552324D01*
X91520363Y49552324D02*
X91615601Y49457086D01*
X91615601Y49457086D02*
X91710839Y49409467D01*
X90234649Y49695181D02*
X90710839Y49695181D01*
X90710839Y49695181D02*
X90758458Y49218991D01*
X90758458Y49218991D02*
X90710839Y49266610D01*
X90710839Y49266610D02*
X90615601Y49314229D01*
X90615601Y49314229D02*
X90377506Y49314229D01*
X90377506Y49314229D02*
X90282268Y49266610D01*
X90282268Y49266610D02*
X90234649Y49218991D01*
X90234649Y49218991D02*
X90187030Y49123753D01*
X90187030Y49123753D02*
X90187030Y48885658D01*
X90187030Y48885658D02*
X90234649Y48790420D01*
X90234649Y48790420D02*
X90282268Y48742800D01*
X90282268Y48742800D02*
X90377506Y48695181D01*
X90377506Y48695181D02*
X90615601Y48695181D01*
X90615601Y48695181D02*
X90710839Y48742800D01*
X90710839Y48742800D02*
X90758458Y48790420D01*
X92091792Y46845181D02*
X92425125Y47321372D01*
X92663220Y46845181D02*
X92663220Y47845181D01*
X92663220Y47845181D02*
X92282268Y47845181D01*
X92282268Y47845181D02*
X92187030Y47797562D01*
X92187030Y47797562D02*
X92139411Y47749943D01*
X92139411Y47749943D02*
X92091792Y47654705D01*
X92091792Y47654705D02*
X92091792Y47511848D01*
X92091792Y47511848D02*
X92139411Y47416610D01*
X92139411Y47416610D02*
X92187030Y47368991D01*
X92187030Y47368991D02*
X92282268Y47321372D01*
X92282268Y47321372D02*
X92663220Y47321372D01*
X91710839Y47749943D02*
X91663220Y47797562D01*
X91663220Y47797562D02*
X91567982Y47845181D01*
X91567982Y47845181D02*
X91329887Y47845181D01*
X91329887Y47845181D02*
X91234649Y47797562D01*
X91234649Y47797562D02*
X91187030Y47749943D01*
X91187030Y47749943D02*
X91139411Y47654705D01*
X91139411Y47654705D02*
X91139411Y47559467D01*
X91139411Y47559467D02*
X91187030Y47416610D01*
X91187030Y47416610D02*
X91758458Y46845181D01*
X91758458Y46845181D02*
X91139411Y46845181D01*
X90187030Y46845181D02*
X90758458Y46845181D01*
X90472744Y46845181D02*
X90472744Y47845181D01*
X90472744Y47845181D02*
X90567982Y47702324D01*
X90567982Y47702324D02*
X90663220Y47607086D01*
X90663220Y47607086D02*
X90758458Y47559467D01*
X92091792Y44995181D02*
X92425125Y45471372D01*
X92663220Y44995181D02*
X92663220Y45995181D01*
X92663220Y45995181D02*
X92282268Y45995181D01*
X92282268Y45995181D02*
X92187030Y45947562D01*
X92187030Y45947562D02*
X92139411Y45899943D01*
X92139411Y45899943D02*
X92091792Y45804705D01*
X92091792Y45804705D02*
X92091792Y45661848D01*
X92091792Y45661848D02*
X92139411Y45566610D01*
X92139411Y45566610D02*
X92187030Y45518991D01*
X92187030Y45518991D02*
X92282268Y45471372D01*
X92282268Y45471372D02*
X92663220Y45471372D01*
X91710839Y45899943D02*
X91663220Y45947562D01*
X91663220Y45947562D02*
X91567982Y45995181D01*
X91567982Y45995181D02*
X91329887Y45995181D01*
X91329887Y45995181D02*
X91234649Y45947562D01*
X91234649Y45947562D02*
X91187030Y45899943D01*
X91187030Y45899943D02*
X91139411Y45804705D01*
X91139411Y45804705D02*
X91139411Y45709467D01*
X91139411Y45709467D02*
X91187030Y45566610D01*
X91187030Y45566610D02*
X91758458Y44995181D01*
X91758458Y44995181D02*
X91139411Y44995181D01*
X90758458Y45899943D02*
X90710839Y45947562D01*
X90710839Y45947562D02*
X90615601Y45995181D01*
X90615601Y45995181D02*
X90377506Y45995181D01*
X90377506Y45995181D02*
X90282268Y45947562D01*
X90282268Y45947562D02*
X90234649Y45899943D01*
X90234649Y45899943D02*
X90187030Y45804705D01*
X90187030Y45804705D02*
X90187030Y45709467D01*
X90187030Y45709467D02*
X90234649Y45566610D01*
X90234649Y45566610D02*
X90806077Y44995181D01*
X90806077Y44995181D02*
X90187030Y44995181D01*
X92091792Y43145181D02*
X92425125Y43621372D01*
X92663220Y43145181D02*
X92663220Y44145181D01*
X92663220Y44145181D02*
X92282268Y44145181D01*
X92282268Y44145181D02*
X92187030Y44097562D01*
X92187030Y44097562D02*
X92139411Y44049943D01*
X92139411Y44049943D02*
X92091792Y43954705D01*
X92091792Y43954705D02*
X92091792Y43811848D01*
X92091792Y43811848D02*
X92139411Y43716610D01*
X92139411Y43716610D02*
X92187030Y43668991D01*
X92187030Y43668991D02*
X92282268Y43621372D01*
X92282268Y43621372D02*
X92663220Y43621372D01*
X91710839Y44049943D02*
X91663220Y44097562D01*
X91663220Y44097562D02*
X91567982Y44145181D01*
X91567982Y44145181D02*
X91329887Y44145181D01*
X91329887Y44145181D02*
X91234649Y44097562D01*
X91234649Y44097562D02*
X91187030Y44049943D01*
X91187030Y44049943D02*
X91139411Y43954705D01*
X91139411Y43954705D02*
X91139411Y43859467D01*
X91139411Y43859467D02*
X91187030Y43716610D01*
X91187030Y43716610D02*
X91758458Y43145181D01*
X91758458Y43145181D02*
X91139411Y43145181D01*
X90806077Y44145181D02*
X90187030Y44145181D01*
X90187030Y44145181D02*
X90520363Y43764229D01*
X90520363Y43764229D02*
X90377506Y43764229D01*
X90377506Y43764229D02*
X90282268Y43716610D01*
X90282268Y43716610D02*
X90234649Y43668991D01*
X90234649Y43668991D02*
X90187030Y43573753D01*
X90187030Y43573753D02*
X90187030Y43335658D01*
X90187030Y43335658D02*
X90234649Y43240420D01*
X90234649Y43240420D02*
X90282268Y43192800D01*
X90282268Y43192800D02*
X90377506Y43145181D01*
X90377506Y43145181D02*
X90663220Y43145181D01*
X90663220Y43145181D02*
X90758458Y43192800D01*
X90758458Y43192800D02*
X90806077Y43240420D01*
X92091792Y41295181D02*
X92425125Y41771372D01*
X92663220Y41295181D02*
X92663220Y42295181D01*
X92663220Y42295181D02*
X92282268Y42295181D01*
X92282268Y42295181D02*
X92187030Y42247562D01*
X92187030Y42247562D02*
X92139411Y42199943D01*
X92139411Y42199943D02*
X92091792Y42104705D01*
X92091792Y42104705D02*
X92091792Y41961848D01*
X92091792Y41961848D02*
X92139411Y41866610D01*
X92139411Y41866610D02*
X92187030Y41818991D01*
X92187030Y41818991D02*
X92282268Y41771372D01*
X92282268Y41771372D02*
X92663220Y41771372D01*
X91710839Y42199943D02*
X91663220Y42247562D01*
X91663220Y42247562D02*
X91567982Y42295181D01*
X91567982Y42295181D02*
X91329887Y42295181D01*
X91329887Y42295181D02*
X91234649Y42247562D01*
X91234649Y42247562D02*
X91187030Y42199943D01*
X91187030Y42199943D02*
X91139411Y42104705D01*
X91139411Y42104705D02*
X91139411Y42009467D01*
X91139411Y42009467D02*
X91187030Y41866610D01*
X91187030Y41866610D02*
X91758458Y41295181D01*
X91758458Y41295181D02*
X91139411Y41295181D01*
X90282268Y41961848D02*
X90282268Y41295181D01*
X90520363Y42342800D02*
X90758458Y41628515D01*
X90758458Y41628515D02*
X90139411Y41628515D01*
X92091792Y39445181D02*
X92425125Y39921372D01*
X92663220Y39445181D02*
X92663220Y40445181D01*
X92663220Y40445181D02*
X92282268Y40445181D01*
X92282268Y40445181D02*
X92187030Y40397562D01*
X92187030Y40397562D02*
X92139411Y40349943D01*
X92139411Y40349943D02*
X92091792Y40254705D01*
X92091792Y40254705D02*
X92091792Y40111848D01*
X92091792Y40111848D02*
X92139411Y40016610D01*
X92139411Y40016610D02*
X92187030Y39968991D01*
X92187030Y39968991D02*
X92282268Y39921372D01*
X92282268Y39921372D02*
X92663220Y39921372D01*
X91710839Y40349943D02*
X91663220Y40397562D01*
X91663220Y40397562D02*
X91567982Y40445181D01*
X91567982Y40445181D02*
X91329887Y40445181D01*
X91329887Y40445181D02*
X91234649Y40397562D01*
X91234649Y40397562D02*
X91187030Y40349943D01*
X91187030Y40349943D02*
X91139411Y40254705D01*
X91139411Y40254705D02*
X91139411Y40159467D01*
X91139411Y40159467D02*
X91187030Y40016610D01*
X91187030Y40016610D02*
X91758458Y39445181D01*
X91758458Y39445181D02*
X91139411Y39445181D01*
X90234649Y40445181D02*
X90710839Y40445181D01*
X90710839Y40445181D02*
X90758458Y39968991D01*
X90758458Y39968991D02*
X90710839Y40016610D01*
X90710839Y40016610D02*
X90615601Y40064229D01*
X90615601Y40064229D02*
X90377506Y40064229D01*
X90377506Y40064229D02*
X90282268Y40016610D01*
X90282268Y40016610D02*
X90234649Y39968991D01*
X90234649Y39968991D02*
X90187030Y39873753D01*
X90187030Y39873753D02*
X90187030Y39635658D01*
X90187030Y39635658D02*
X90234649Y39540420D01*
X90234649Y39540420D02*
X90282268Y39492800D01*
X90282268Y39492800D02*
X90377506Y39445181D01*
X90377506Y39445181D02*
X90615601Y39445181D01*
X90615601Y39445181D02*
X90710839Y39492800D01*
X90710839Y39492800D02*
X90758458Y39540420D01*
X45619048Y31640420D02*
X45666667Y31592800D01*
X45666667Y31592800D02*
X45809524Y31545181D01*
X45809524Y31545181D02*
X45904762Y31545181D01*
X45904762Y31545181D02*
X46047619Y31592800D01*
X46047619Y31592800D02*
X46142857Y31688039D01*
X46142857Y31688039D02*
X46190476Y31783277D01*
X46190476Y31783277D02*
X46238095Y31973753D01*
X46238095Y31973753D02*
X46238095Y32116610D01*
X46238095Y32116610D02*
X46190476Y32307086D01*
X46190476Y32307086D02*
X46142857Y32402324D01*
X46142857Y32402324D02*
X46047619Y32497562D01*
X46047619Y32497562D02*
X45904762Y32545181D01*
X45904762Y32545181D02*
X45809524Y32545181D01*
X45809524Y32545181D02*
X45666667Y32497562D01*
X45666667Y32497562D02*
X45619048Y32449943D01*
X45000000Y32545181D02*
X44809524Y32545181D01*
X44809524Y32545181D02*
X44714286Y32497562D01*
X44714286Y32497562D02*
X44619048Y32402324D01*
X44619048Y32402324D02*
X44571429Y32211848D01*
X44571429Y32211848D02*
X44571429Y31878515D01*
X44571429Y31878515D02*
X44619048Y31688039D01*
X44619048Y31688039D02*
X44714286Y31592800D01*
X44714286Y31592800D02*
X44809524Y31545181D01*
X44809524Y31545181D02*
X45000000Y31545181D01*
X45000000Y31545181D02*
X45095238Y31592800D01*
X45095238Y31592800D02*
X45190476Y31688039D01*
X45190476Y31688039D02*
X45238095Y31878515D01*
X45238095Y31878515D02*
X45238095Y32211848D01*
X45238095Y32211848D02*
X45190476Y32402324D01*
X45190476Y32402324D02*
X45095238Y32497562D01*
X45095238Y32497562D02*
X45000000Y32545181D01*
X44142857Y31545181D02*
X44142857Y32545181D01*
X44142857Y32545181D02*
X43809524Y31830896D01*
X43809524Y31830896D02*
X43476191Y32545181D01*
X43476191Y32545181D02*
X43476191Y31545181D01*
X43000000Y31545181D02*
X43000000Y32545181D01*
X43000000Y32545181D02*
X42619048Y32545181D01*
X42619048Y32545181D02*
X42523810Y32497562D01*
X42523810Y32497562D02*
X42476191Y32449943D01*
X42476191Y32449943D02*
X42428572Y32354705D01*
X42428572Y32354705D02*
X42428572Y32211848D01*
X42428572Y32211848D02*
X42476191Y32116610D01*
X42476191Y32116610D02*
X42523810Y32068991D01*
X42523810Y32068991D02*
X42619048Y32021372D01*
X42619048Y32021372D02*
X43000000Y32021372D01*
X41523810Y31545181D02*
X42000000Y31545181D01*
X42000000Y31545181D02*
X42000000Y32545181D01*
X41190476Y32068991D02*
X40857143Y32068991D01*
X40714286Y31545181D02*
X41190476Y31545181D01*
X41190476Y31545181D02*
X41190476Y32545181D01*
X41190476Y32545181D02*
X40714286Y32545181D01*
X40428571Y32545181D02*
X39857143Y32545181D01*
X40142857Y31545181D02*
X40142857Y32545181D01*
X39523809Y32068991D02*
X39190476Y32068991D01*
X39047619Y31545181D02*
X39523809Y31545181D01*
X39523809Y31545181D02*
X39523809Y32545181D01*
X39523809Y32545181D02*
X39047619Y32545181D01*
X37857142Y31545181D02*
X37857142Y32545181D01*
X37857142Y32068991D02*
X37285714Y32068991D01*
X37285714Y31545181D02*
X37285714Y32545181D01*
X36857142Y31830896D02*
X36380952Y31830896D01*
X36952380Y31545181D02*
X36619047Y32545181D01*
X36619047Y32545181D02*
X36285714Y31545181D01*
X35952380Y31545181D02*
X35952380Y32545181D01*
X35952380Y32545181D02*
X35380952Y31545181D01*
X35380952Y31545181D02*
X35380952Y32545181D01*
X34904761Y31545181D02*
X34904761Y32545181D01*
X34904761Y32545181D02*
X34666666Y32545181D01*
X34666666Y32545181D02*
X34523809Y32497562D01*
X34523809Y32497562D02*
X34428571Y32402324D01*
X34428571Y32402324D02*
X34380952Y32307086D01*
X34380952Y32307086D02*
X34333333Y32116610D01*
X34333333Y32116610D02*
X34333333Y31973753D01*
X34333333Y31973753D02*
X34380952Y31783277D01*
X34380952Y31783277D02*
X34428571Y31688039D01*
X34428571Y31688039D02*
X34523809Y31592800D01*
X34523809Y31592800D02*
X34666666Y31545181D01*
X34666666Y31545181D02*
X34904761Y31545181D01*
X33190475Y31830896D02*
X32714285Y31830896D01*
X33285713Y31545181D02*
X32952380Y32545181D01*
X32952380Y32545181D02*
X32619047Y31545181D01*
X32333332Y31592800D02*
X32190475Y31545181D01*
X32190475Y31545181D02*
X31952380Y31545181D01*
X31952380Y31545181D02*
X31857142Y31592800D01*
X31857142Y31592800D02*
X31809523Y31640420D01*
X31809523Y31640420D02*
X31761904Y31735658D01*
X31761904Y31735658D02*
X31761904Y31830896D01*
X31761904Y31830896D02*
X31809523Y31926134D01*
X31809523Y31926134D02*
X31857142Y31973753D01*
X31857142Y31973753D02*
X31952380Y32021372D01*
X31952380Y32021372D02*
X32142856Y32068991D01*
X32142856Y32068991D02*
X32238094Y32116610D01*
X32238094Y32116610D02*
X32285713Y32164229D01*
X32285713Y32164229D02*
X32333332Y32259467D01*
X32333332Y32259467D02*
X32333332Y32354705D01*
X32333332Y32354705D02*
X32285713Y32449943D01*
X32285713Y32449943D02*
X32238094Y32497562D01*
X32238094Y32497562D02*
X32142856Y32545181D01*
X32142856Y32545181D02*
X31904761Y32545181D01*
X31904761Y32545181D02*
X31761904Y32497562D01*
X31380951Y31592800D02*
X31238094Y31545181D01*
X31238094Y31545181D02*
X30999999Y31545181D01*
X30999999Y31545181D02*
X30904761Y31592800D01*
X30904761Y31592800D02*
X30857142Y31640420D01*
X30857142Y31640420D02*
X30809523Y31735658D01*
X30809523Y31735658D02*
X30809523Y31830896D01*
X30809523Y31830896D02*
X30857142Y31926134D01*
X30857142Y31926134D02*
X30904761Y31973753D01*
X30904761Y31973753D02*
X30999999Y32021372D01*
X30999999Y32021372D02*
X31190475Y32068991D01*
X31190475Y32068991D02*
X31285713Y32116610D01*
X31285713Y32116610D02*
X31333332Y32164229D01*
X31333332Y32164229D02*
X31380951Y32259467D01*
X31380951Y32259467D02*
X31380951Y32354705D01*
X31380951Y32354705D02*
X31333332Y32449943D01*
X31333332Y32449943D02*
X31285713Y32497562D01*
X31285713Y32497562D02*
X31190475Y32545181D01*
X31190475Y32545181D02*
X30952380Y32545181D01*
X30952380Y32545181D02*
X30809523Y32497562D01*
X30380951Y32068991D02*
X30047618Y32068991D01*
X29904761Y31545181D02*
X30380951Y31545181D01*
X30380951Y31545181D02*
X30380951Y32545181D01*
X30380951Y32545181D02*
X29904761Y32545181D01*
X29476189Y31545181D02*
X29476189Y32545181D01*
X29476189Y32545181D02*
X29142856Y31830896D01*
X29142856Y31830896D02*
X28809523Y32545181D01*
X28809523Y32545181D02*
X28809523Y31545181D01*
X27999999Y32068991D02*
X27857142Y32021372D01*
X27857142Y32021372D02*
X27809523Y31973753D01*
X27809523Y31973753D02*
X27761904Y31878515D01*
X27761904Y31878515D02*
X27761904Y31735658D01*
X27761904Y31735658D02*
X27809523Y31640420D01*
X27809523Y31640420D02*
X27857142Y31592800D01*
X27857142Y31592800D02*
X27952380Y31545181D01*
X27952380Y31545181D02*
X28333332Y31545181D01*
X28333332Y31545181D02*
X28333332Y32545181D01*
X28333332Y32545181D02*
X27999999Y32545181D01*
X27999999Y32545181D02*
X27904761Y32497562D01*
X27904761Y32497562D02*
X27857142Y32449943D01*
X27857142Y32449943D02*
X27809523Y32354705D01*
X27809523Y32354705D02*
X27809523Y32259467D01*
X27809523Y32259467D02*
X27857142Y32164229D01*
X27857142Y32164229D02*
X27904761Y32116610D01*
X27904761Y32116610D02*
X27999999Y32068991D01*
X27999999Y32068991D02*
X28333332Y32068991D01*
X26857142Y31545181D02*
X27333332Y31545181D01*
X27333332Y31545181D02*
X27333332Y32545181D01*
X26333332Y32021372D02*
X26333332Y31545181D01*
X26666665Y32545181D02*
X26333332Y32021372D01*
X26333332Y32021372D02*
X25999999Y32545181D01*
X24571427Y32068991D02*
X24428570Y32021372D01*
X24428570Y32021372D02*
X24380951Y31973753D01*
X24380951Y31973753D02*
X24333332Y31878515D01*
X24333332Y31878515D02*
X24333332Y31735658D01*
X24333332Y31735658D02*
X24380951Y31640420D01*
X24380951Y31640420D02*
X24428570Y31592800D01*
X24428570Y31592800D02*
X24523808Y31545181D01*
X24523808Y31545181D02*
X24904760Y31545181D01*
X24904760Y31545181D02*
X24904760Y32545181D01*
X24904760Y32545181D02*
X24571427Y32545181D01*
X24571427Y32545181D02*
X24476189Y32497562D01*
X24476189Y32497562D02*
X24428570Y32449943D01*
X24428570Y32449943D02*
X24380951Y32354705D01*
X24380951Y32354705D02*
X24380951Y32259467D01*
X24380951Y32259467D02*
X24428570Y32164229D01*
X24428570Y32164229D02*
X24476189Y32116610D01*
X24476189Y32116610D02*
X24571427Y32068991D01*
X24571427Y32068991D02*
X24904760Y32068991D01*
X23904760Y32068991D02*
X23571427Y32068991D01*
X23428570Y31545181D02*
X23904760Y31545181D01*
X23904760Y31545181D02*
X23904760Y32545181D01*
X23904760Y32545181D02*
X23428570Y32545181D01*
X22666665Y32068991D02*
X22999998Y32068991D01*
X22999998Y31545181D02*
X22999998Y32545181D01*
X22999998Y32545181D02*
X22523808Y32545181D01*
X21952379Y32545181D02*
X21761903Y32545181D01*
X21761903Y32545181D02*
X21666665Y32497562D01*
X21666665Y32497562D02*
X21571427Y32402324D01*
X21571427Y32402324D02*
X21523808Y32211848D01*
X21523808Y32211848D02*
X21523808Y31878515D01*
X21523808Y31878515D02*
X21571427Y31688039D01*
X21571427Y31688039D02*
X21666665Y31592800D01*
X21666665Y31592800D02*
X21761903Y31545181D01*
X21761903Y31545181D02*
X21952379Y31545181D01*
X21952379Y31545181D02*
X22047617Y31592800D01*
X22047617Y31592800D02*
X22142855Y31688039D01*
X22142855Y31688039D02*
X22190474Y31878515D01*
X22190474Y31878515D02*
X22190474Y32211848D01*
X22190474Y32211848D02*
X22142855Y32402324D01*
X22142855Y32402324D02*
X22047617Y32497562D01*
X22047617Y32497562D02*
X21952379Y32545181D01*
X20523808Y31545181D02*
X20857141Y32021372D01*
X21095236Y31545181D02*
X21095236Y32545181D01*
X21095236Y32545181D02*
X20714284Y32545181D01*
X20714284Y32545181D02*
X20619046Y32497562D01*
X20619046Y32497562D02*
X20571427Y32449943D01*
X20571427Y32449943D02*
X20523808Y32354705D01*
X20523808Y32354705D02*
X20523808Y32211848D01*
X20523808Y32211848D02*
X20571427Y32116610D01*
X20571427Y32116610D02*
X20619046Y32068991D01*
X20619046Y32068991D02*
X20714284Y32021372D01*
X20714284Y32021372D02*
X21095236Y32021372D01*
X20095236Y32068991D02*
X19761903Y32068991D01*
X19619046Y31545181D02*
X20095236Y31545181D01*
X20095236Y31545181D02*
X20095236Y32545181D01*
X20095236Y32545181D02*
X19619046Y32545181D01*
X18428569Y31545181D02*
X18428569Y32545181D01*
X18428569Y32545181D02*
X18047617Y32545181D01*
X18047617Y32545181D02*
X17952379Y32497562D01*
X17952379Y32497562D02*
X17904760Y32449943D01*
X17904760Y32449943D02*
X17857141Y32354705D01*
X17857141Y32354705D02*
X17857141Y32211848D01*
X17857141Y32211848D02*
X17904760Y32116610D01*
X17904760Y32116610D02*
X17952379Y32068991D01*
X17952379Y32068991D02*
X18047617Y32021372D01*
X18047617Y32021372D02*
X18428569Y32021372D01*
X17238093Y32545181D02*
X17047617Y32545181D01*
X17047617Y32545181D02*
X16952379Y32497562D01*
X16952379Y32497562D02*
X16857141Y32402324D01*
X16857141Y32402324D02*
X16809522Y32211848D01*
X16809522Y32211848D02*
X16809522Y31878515D01*
X16809522Y31878515D02*
X16857141Y31688039D01*
X16857141Y31688039D02*
X16952379Y31592800D01*
X16952379Y31592800D02*
X17047617Y31545181D01*
X17047617Y31545181D02*
X17238093Y31545181D01*
X17238093Y31545181D02*
X17333331Y31592800D01*
X17333331Y31592800D02*
X17428569Y31688039D01*
X17428569Y31688039D02*
X17476188Y31878515D01*
X17476188Y31878515D02*
X17476188Y32211848D01*
X17476188Y32211848D02*
X17428569Y32402324D01*
X17428569Y32402324D02*
X17333331Y32497562D01*
X17333331Y32497562D02*
X17238093Y32545181D01*
X16476188Y32545181D02*
X16238093Y31545181D01*
X16238093Y31545181D02*
X16047617Y32259467D01*
X16047617Y32259467D02*
X15857141Y31545181D01*
X15857141Y31545181D02*
X15619046Y32545181D01*
X15238093Y32068991D02*
X14904760Y32068991D01*
X14761903Y31545181D02*
X15238093Y31545181D01*
X15238093Y31545181D02*
X15238093Y32545181D01*
X15238093Y32545181D02*
X14761903Y32545181D01*
X13761903Y31545181D02*
X14095236Y32021372D01*
X14333331Y31545181D02*
X14333331Y32545181D01*
X14333331Y32545181D02*
X13952379Y32545181D01*
X13952379Y32545181D02*
X13857141Y32497562D01*
X13857141Y32497562D02*
X13809522Y32449943D01*
X13809522Y32449943D02*
X13761903Y32354705D01*
X13761903Y32354705D02*
X13761903Y32211848D01*
X13761903Y32211848D02*
X13809522Y32116610D01*
X13809522Y32116610D02*
X13857141Y32068991D01*
X13857141Y32068991D02*
X13952379Y32021372D01*
X13952379Y32021372D02*
X14333331Y32021372D01*
X61023810Y37068991D02*
X61357143Y37068991D01*
X61357143Y36545181D02*
X61357143Y37545181D01*
X61357143Y37545181D02*
X60880953Y37545181D01*
X60547619Y36830896D02*
X60071429Y36830896D01*
X60642857Y36545181D02*
X60309524Y37545181D01*
X60309524Y37545181D02*
X59976191Y36545181D01*
X59071429Y36640420D02*
X59119048Y36592800D01*
X59119048Y36592800D02*
X59261905Y36545181D01*
X59261905Y36545181D02*
X59357143Y36545181D01*
X59357143Y36545181D02*
X59500000Y36592800D01*
X59500000Y36592800D02*
X59595238Y36688039D01*
X59595238Y36688039D02*
X59642857Y36783277D01*
X59642857Y36783277D02*
X59690476Y36973753D01*
X59690476Y36973753D02*
X59690476Y37116610D01*
X59690476Y37116610D02*
X59642857Y37307086D01*
X59642857Y37307086D02*
X59595238Y37402324D01*
X59595238Y37402324D02*
X59500000Y37497562D01*
X59500000Y37497562D02*
X59357143Y37545181D01*
X59357143Y37545181D02*
X59261905Y37545181D01*
X59261905Y37545181D02*
X59119048Y37497562D01*
X59119048Y37497562D02*
X59071429Y37449943D01*
X58785714Y37545181D02*
X58214286Y37545181D01*
X58500000Y36545181D02*
X58500000Y37545181D01*
X57690476Y37545181D02*
X57500000Y37545181D01*
X57500000Y37545181D02*
X57404762Y37497562D01*
X57404762Y37497562D02*
X57309524Y37402324D01*
X57309524Y37402324D02*
X57261905Y37211848D01*
X57261905Y37211848D02*
X57261905Y36878515D01*
X57261905Y36878515D02*
X57309524Y36688039D01*
X57309524Y36688039D02*
X57404762Y36592800D01*
X57404762Y36592800D02*
X57500000Y36545181D01*
X57500000Y36545181D02*
X57690476Y36545181D01*
X57690476Y36545181D02*
X57785714Y36592800D01*
X57785714Y36592800D02*
X57880952Y36688039D01*
X57880952Y36688039D02*
X57928571Y36878515D01*
X57928571Y36878515D02*
X57928571Y37211848D01*
X57928571Y37211848D02*
X57880952Y37402324D01*
X57880952Y37402324D02*
X57785714Y37497562D01*
X57785714Y37497562D02*
X57690476Y37545181D01*
X56261905Y36545181D02*
X56595238Y37021372D01*
X56833333Y36545181D02*
X56833333Y37545181D01*
X56833333Y37545181D02*
X56452381Y37545181D01*
X56452381Y37545181D02*
X56357143Y37497562D01*
X56357143Y37497562D02*
X56309524Y37449943D01*
X56309524Y37449943D02*
X56261905Y37354705D01*
X56261905Y37354705D02*
X56261905Y37211848D01*
X56261905Y37211848D02*
X56309524Y37116610D01*
X56309524Y37116610D02*
X56357143Y37068991D01*
X56357143Y37068991D02*
X56452381Y37021372D01*
X56452381Y37021372D02*
X56833333Y37021372D01*
X55642857Y37021372D02*
X55642857Y36545181D01*
X55976190Y37545181D02*
X55642857Y37021372D01*
X55642857Y37021372D02*
X55309524Y37545181D01*
X54976190Y36640420D02*
X54928571Y36592800D01*
X54928571Y36592800D02*
X54976190Y36545181D01*
X54976190Y36545181D02*
X55023809Y36592800D01*
X55023809Y36592800D02*
X54976190Y36640420D01*
X54976190Y36640420D02*
X54976190Y36545181D01*
X54976190Y37164229D02*
X54928571Y37116610D01*
X54928571Y37116610D02*
X54976190Y37068991D01*
X54976190Y37068991D02*
X55023809Y37116610D01*
X55023809Y37116610D02*
X54976190Y37164229D01*
X54976190Y37164229D02*
X54976190Y37068991D01*
X53738095Y37545181D02*
X53738095Y36735658D01*
X53738095Y36735658D02*
X53690476Y36640420D01*
X53690476Y36640420D02*
X53642857Y36592800D01*
X53642857Y36592800D02*
X53547619Y36545181D01*
X53547619Y36545181D02*
X53357143Y36545181D01*
X53357143Y36545181D02*
X53261905Y36592800D01*
X53261905Y36592800D02*
X53214286Y36640420D01*
X53214286Y36640420D02*
X53166667Y36735658D01*
X53166667Y36735658D02*
X53166667Y37545181D01*
X52166667Y36545181D02*
X52738095Y36545181D01*
X52452381Y36545181D02*
X52452381Y37545181D01*
X52452381Y37545181D02*
X52547619Y37402324D01*
X52547619Y37402324D02*
X52642857Y37307086D01*
X52642857Y37307086D02*
X52738095Y37259467D01*
X50976190Y37545181D02*
X50976190Y36735658D01*
X50976190Y36735658D02*
X50928571Y36640420D01*
X50928571Y36640420D02*
X50880952Y36592800D01*
X50880952Y36592800D02*
X50785714Y36545181D01*
X50785714Y36545181D02*
X50595238Y36545181D01*
X50595238Y36545181D02*
X50500000Y36592800D01*
X50500000Y36592800D02*
X50452381Y36640420D01*
X50452381Y36640420D02*
X50404762Y36735658D01*
X50404762Y36735658D02*
X50404762Y37545181D01*
X49976190Y37449943D02*
X49928571Y37497562D01*
X49928571Y37497562D02*
X49833333Y37545181D01*
X49833333Y37545181D02*
X49595238Y37545181D01*
X49595238Y37545181D02*
X49500000Y37497562D01*
X49500000Y37497562D02*
X49452381Y37449943D01*
X49452381Y37449943D02*
X49404762Y37354705D01*
X49404762Y37354705D02*
X49404762Y37259467D01*
X49404762Y37259467D02*
X49452381Y37116610D01*
X49452381Y37116610D02*
X50023809Y36545181D01*
X50023809Y36545181D02*
X49404762Y36545181D01*
X48214285Y37545181D02*
X48214285Y36735658D01*
X48214285Y36735658D02*
X48166666Y36640420D01*
X48166666Y36640420D02*
X48119047Y36592800D01*
X48119047Y36592800D02*
X48023809Y36545181D01*
X48023809Y36545181D02*
X47833333Y36545181D01*
X47833333Y36545181D02*
X47738095Y36592800D01*
X47738095Y36592800D02*
X47690476Y36640420D01*
X47690476Y36640420D02*
X47642857Y36735658D01*
X47642857Y36735658D02*
X47642857Y37545181D01*
X46738095Y37211848D02*
X46738095Y36545181D01*
X46976190Y37592800D02*
X47214285Y36878515D01*
X47214285Y36878515D02*
X46595238Y36878515D01*
X45452380Y37545181D02*
X45452380Y36735658D01*
X45452380Y36735658D02*
X45404761Y36640420D01*
X45404761Y36640420D02*
X45357142Y36592800D01*
X45357142Y36592800D02*
X45261904Y36545181D01*
X45261904Y36545181D02*
X45071428Y36545181D01*
X45071428Y36545181D02*
X44976190Y36592800D01*
X44976190Y36592800D02*
X44928571Y36640420D01*
X44928571Y36640420D02*
X44880952Y36735658D01*
X44880952Y36735658D02*
X44880952Y37545181D01*
X43928571Y37545181D02*
X44404761Y37545181D01*
X44404761Y37545181D02*
X44452380Y37068991D01*
X44452380Y37068991D02*
X44404761Y37116610D01*
X44404761Y37116610D02*
X44309523Y37164229D01*
X44309523Y37164229D02*
X44071428Y37164229D01*
X44071428Y37164229D02*
X43976190Y37116610D01*
X43976190Y37116610D02*
X43928571Y37068991D01*
X43928571Y37068991D02*
X43880952Y36973753D01*
X43880952Y36973753D02*
X43880952Y36735658D01*
X43880952Y36735658D02*
X43928571Y36640420D01*
X43928571Y36640420D02*
X43976190Y36592800D01*
X43976190Y36592800D02*
X44071428Y36545181D01*
X44071428Y36545181D02*
X44309523Y36545181D01*
X44309523Y36545181D02*
X44404761Y36592800D01*
X44404761Y36592800D02*
X44452380Y36640420D01*
X42690475Y37545181D02*
X42690475Y36735658D01*
X42690475Y36735658D02*
X42642856Y36640420D01*
X42642856Y36640420D02*
X42595237Y36592800D01*
X42595237Y36592800D02*
X42499999Y36545181D01*
X42499999Y36545181D02*
X42309523Y36545181D01*
X42309523Y36545181D02*
X42214285Y36592800D01*
X42214285Y36592800D02*
X42166666Y36640420D01*
X42166666Y36640420D02*
X42119047Y36735658D01*
X42119047Y36735658D02*
X42119047Y37545181D01*
X41214285Y37545181D02*
X41404761Y37545181D01*
X41404761Y37545181D02*
X41499999Y37497562D01*
X41499999Y37497562D02*
X41547618Y37449943D01*
X41547618Y37449943D02*
X41642856Y37307086D01*
X41642856Y37307086D02*
X41690475Y37116610D01*
X41690475Y37116610D02*
X41690475Y36735658D01*
X41690475Y36735658D02*
X41642856Y36640420D01*
X41642856Y36640420D02*
X41595237Y36592800D01*
X41595237Y36592800D02*
X41499999Y36545181D01*
X41499999Y36545181D02*
X41309523Y36545181D01*
X41309523Y36545181D02*
X41214285Y36592800D01*
X41214285Y36592800D02*
X41166666Y36640420D01*
X41166666Y36640420D02*
X41119047Y36735658D01*
X41119047Y36735658D02*
X41119047Y36973753D01*
X41119047Y36973753D02*
X41166666Y37068991D01*
X41166666Y37068991D02*
X41214285Y37116610D01*
X41214285Y37116610D02*
X41309523Y37164229D01*
X41309523Y37164229D02*
X41499999Y37164229D01*
X41499999Y37164229D02*
X41595237Y37116610D01*
X41595237Y37116610D02*
X41642856Y37068991D01*
X41642856Y37068991D02*
X41690475Y36973753D01*
X39452380Y36545181D02*
X39928570Y36545181D01*
X39928570Y36545181D02*
X39928570Y37545181D01*
X38595237Y36545181D02*
X39166665Y36545181D01*
X38880951Y36545181D02*
X38880951Y37545181D01*
X38880951Y37545181D02*
X38976189Y37402324D01*
X38976189Y37402324D02*
X39071427Y37307086D01*
X39071427Y37307086D02*
X39166665Y37259467D01*
X79785713Y22545181D02*
X79785713Y23545181D01*
X79785713Y23545181D02*
X79214285Y22545181D01*
X79214285Y22545181D02*
X79214285Y23545181D01*
X78547618Y23545181D02*
X78357142Y23545181D01*
X78357142Y23545181D02*
X78261904Y23497562D01*
X78261904Y23497562D02*
X78166666Y23402324D01*
X78166666Y23402324D02*
X78119047Y23211848D01*
X78119047Y23211848D02*
X78119047Y22878515D01*
X78119047Y22878515D02*
X78166666Y22688039D01*
X78166666Y22688039D02*
X78261904Y22592800D01*
X78261904Y22592800D02*
X78357142Y22545181D01*
X78357142Y22545181D02*
X78547618Y22545181D01*
X78547618Y22545181D02*
X78642856Y22592800D01*
X78642856Y22592800D02*
X78738094Y22688039D01*
X78738094Y22688039D02*
X78785713Y22878515D01*
X78785713Y22878515D02*
X78785713Y23211848D01*
X78785713Y23211848D02*
X78738094Y23402324D01*
X78738094Y23402324D02*
X78642856Y23497562D01*
X78642856Y23497562D02*
X78547618Y23545181D01*
X76357142Y22640420D02*
X76404761Y22592800D01*
X76404761Y22592800D02*
X76547618Y22545181D01*
X76547618Y22545181D02*
X76642856Y22545181D01*
X76642856Y22545181D02*
X76785713Y22592800D01*
X76785713Y22592800D02*
X76880951Y22688039D01*
X76880951Y22688039D02*
X76928570Y22783277D01*
X76928570Y22783277D02*
X76976189Y22973753D01*
X76976189Y22973753D02*
X76976189Y23116610D01*
X76976189Y23116610D02*
X76928570Y23307086D01*
X76928570Y23307086D02*
X76880951Y23402324D01*
X76880951Y23402324D02*
X76785713Y23497562D01*
X76785713Y23497562D02*
X76642856Y23545181D01*
X76642856Y23545181D02*
X76547618Y23545181D01*
X76547618Y23545181D02*
X76404761Y23497562D01*
X76404761Y23497562D02*
X76357142Y23449943D01*
X75976189Y22830896D02*
X75499999Y22830896D01*
X76071427Y22545181D02*
X75738094Y23545181D01*
X75738094Y23545181D02*
X75404761Y22545181D01*
X75071427Y22545181D02*
X75071427Y23545181D01*
X75071427Y23545181D02*
X74499999Y22545181D01*
X74499999Y22545181D02*
X74499999Y23545181D01*
X73404760Y23545181D02*
X72833332Y23545181D01*
X73119046Y22545181D02*
X73119046Y23545181D01*
X72499998Y23068991D02*
X72166665Y23068991D01*
X72023808Y22545181D02*
X72499998Y22545181D01*
X72499998Y22545181D02*
X72499998Y23545181D01*
X72499998Y23545181D02*
X72023808Y23545181D01*
X71023808Y22545181D02*
X71357141Y23021372D01*
X71595236Y22545181D02*
X71595236Y23545181D01*
X71595236Y23545181D02*
X71214284Y23545181D01*
X71214284Y23545181D02*
X71119046Y23497562D01*
X71119046Y23497562D02*
X71071427Y23449943D01*
X71071427Y23449943D02*
X71023808Y23354705D01*
X71023808Y23354705D02*
X71023808Y23211848D01*
X71023808Y23211848D02*
X71071427Y23116610D01*
X71071427Y23116610D02*
X71119046Y23068991D01*
X71119046Y23068991D02*
X71214284Y23021372D01*
X71214284Y23021372D02*
X71595236Y23021372D01*
X70595236Y22545181D02*
X70595236Y23545181D01*
X70595236Y23545181D02*
X70261903Y22830896D01*
X70261903Y22830896D02*
X69928570Y23545181D01*
X69928570Y23545181D02*
X69928570Y22545181D01*
X69452379Y22545181D02*
X69452379Y23545181D01*
X68976189Y22545181D02*
X68976189Y23545181D01*
X68976189Y23545181D02*
X68404761Y22545181D01*
X68404761Y22545181D02*
X68404761Y23545181D01*
X67976189Y22830896D02*
X67499999Y22830896D01*
X68071427Y22545181D02*
X67738094Y23545181D01*
X67738094Y23545181D02*
X67404761Y22545181D01*
X67214284Y23545181D02*
X66642856Y23545181D01*
X66928570Y22545181D02*
X66928570Y23545181D01*
X66309522Y22545181D02*
X66309522Y23545181D01*
X65642856Y23545181D02*
X65452380Y23545181D01*
X65452380Y23545181D02*
X65357142Y23497562D01*
X65357142Y23497562D02*
X65261904Y23402324D01*
X65261904Y23402324D02*
X65214285Y23211848D01*
X65214285Y23211848D02*
X65214285Y22878515D01*
X65214285Y22878515D02*
X65261904Y22688039D01*
X65261904Y22688039D02*
X65357142Y22592800D01*
X65357142Y22592800D02*
X65452380Y22545181D01*
X65452380Y22545181D02*
X65642856Y22545181D01*
X65642856Y22545181D02*
X65738094Y22592800D01*
X65738094Y22592800D02*
X65833332Y22688039D01*
X65833332Y22688039D02*
X65880951Y22878515D01*
X65880951Y22878515D02*
X65880951Y23211848D01*
X65880951Y23211848D02*
X65833332Y23402324D01*
X65833332Y23402324D02*
X65738094Y23497562D01*
X65738094Y23497562D02*
X65642856Y23545181D01*
X64785713Y22545181D02*
X64785713Y23545181D01*
X64785713Y23545181D02*
X64214285Y22545181D01*
X64214285Y22545181D02*
X64214285Y23545181D01*
X83404761Y20545181D02*
X83404761Y19735658D01*
X83404761Y19735658D02*
X83357142Y19640420D01*
X83357142Y19640420D02*
X83309523Y19592800D01*
X83309523Y19592800D02*
X83214285Y19545181D01*
X83214285Y19545181D02*
X83023809Y19545181D01*
X83023809Y19545181D02*
X82928571Y19592800D01*
X82928571Y19592800D02*
X82880952Y19640420D01*
X82880952Y19640420D02*
X82833333Y19735658D01*
X82833333Y19735658D02*
X82833333Y20545181D01*
X82404761Y19830896D02*
X81928571Y19830896D01*
X82499999Y19545181D02*
X82166666Y20545181D01*
X82166666Y20545181D02*
X81833333Y19545181D01*
X80928571Y19545181D02*
X81261904Y20021372D01*
X81499999Y19545181D02*
X81499999Y20545181D01*
X81499999Y20545181D02*
X81119047Y20545181D01*
X81119047Y20545181D02*
X81023809Y20497562D01*
X81023809Y20497562D02*
X80976190Y20449943D01*
X80976190Y20449943D02*
X80928571Y20354705D01*
X80928571Y20354705D02*
X80928571Y20211848D01*
X80928571Y20211848D02*
X80976190Y20116610D01*
X80976190Y20116610D02*
X81023809Y20068991D01*
X81023809Y20068991D02*
X81119047Y20021372D01*
X81119047Y20021372D02*
X81499999Y20021372D01*
X80642856Y20545181D02*
X80071428Y20545181D01*
X80357142Y19545181D02*
X80357142Y20545181D01*
X78976189Y19545181D02*
X78976189Y20545181D01*
X78976189Y20068991D02*
X78404761Y20068991D01*
X78404761Y19545181D02*
X78404761Y20545181D01*
X77976189Y19830896D02*
X77499999Y19830896D01*
X78071427Y19545181D02*
X77738094Y20545181D01*
X77738094Y20545181D02*
X77404761Y19545181D01*
X77119046Y19592800D02*
X76976189Y19545181D01*
X76976189Y19545181D02*
X76738094Y19545181D01*
X76738094Y19545181D02*
X76642856Y19592800D01*
X76642856Y19592800D02*
X76595237Y19640420D01*
X76595237Y19640420D02*
X76547618Y19735658D01*
X76547618Y19735658D02*
X76547618Y19830896D01*
X76547618Y19830896D02*
X76595237Y19926134D01*
X76595237Y19926134D02*
X76642856Y19973753D01*
X76642856Y19973753D02*
X76738094Y20021372D01*
X76738094Y20021372D02*
X76928570Y20068991D01*
X76928570Y20068991D02*
X77023808Y20116610D01*
X77023808Y20116610D02*
X77071427Y20164229D01*
X77071427Y20164229D02*
X77119046Y20259467D01*
X77119046Y20259467D02*
X77119046Y20354705D01*
X77119046Y20354705D02*
X77071427Y20449943D01*
X77071427Y20449943D02*
X77023808Y20497562D01*
X77023808Y20497562D02*
X76928570Y20545181D01*
X76928570Y20545181D02*
X76690475Y20545181D01*
X76690475Y20545181D02*
X76547618Y20497562D01*
X75357141Y19545181D02*
X75357141Y20545181D01*
X75357141Y20545181D02*
X74785713Y19545181D01*
X74785713Y19545181D02*
X74785713Y20545181D01*
X74119046Y20545181D02*
X73928570Y20545181D01*
X73928570Y20545181D02*
X73833332Y20497562D01*
X73833332Y20497562D02*
X73738094Y20402324D01*
X73738094Y20402324D02*
X73690475Y20211848D01*
X73690475Y20211848D02*
X73690475Y19878515D01*
X73690475Y19878515D02*
X73738094Y19688039D01*
X73738094Y19688039D02*
X73833332Y19592800D01*
X73833332Y19592800D02*
X73928570Y19545181D01*
X73928570Y19545181D02*
X74119046Y19545181D01*
X74119046Y19545181D02*
X74214284Y19592800D01*
X74214284Y19592800D02*
X74309522Y19688039D01*
X74309522Y19688039D02*
X74357141Y19878515D01*
X74357141Y19878515D02*
X74357141Y20211848D01*
X74357141Y20211848D02*
X74309522Y20402324D01*
X74309522Y20402324D02*
X74214284Y20497562D01*
X74214284Y20497562D02*
X74119046Y20545181D01*
X72499998Y19545181D02*
X72499998Y20545181D01*
X72499998Y20545181D02*
X72119046Y20545181D01*
X72119046Y20545181D02*
X72023808Y20497562D01*
X72023808Y20497562D02*
X71976189Y20449943D01*
X71976189Y20449943D02*
X71928570Y20354705D01*
X71928570Y20354705D02*
X71928570Y20211848D01*
X71928570Y20211848D02*
X71976189Y20116610D01*
X71976189Y20116610D02*
X72023808Y20068991D01*
X72023808Y20068991D02*
X72119046Y20021372D01*
X72119046Y20021372D02*
X72499998Y20021372D01*
X71309522Y20545181D02*
X71119046Y20545181D01*
X71119046Y20545181D02*
X71023808Y20497562D01*
X71023808Y20497562D02*
X70928570Y20402324D01*
X70928570Y20402324D02*
X70880951Y20211848D01*
X70880951Y20211848D02*
X70880951Y19878515D01*
X70880951Y19878515D02*
X70928570Y19688039D01*
X70928570Y19688039D02*
X71023808Y19592800D01*
X71023808Y19592800D02*
X71119046Y19545181D01*
X71119046Y19545181D02*
X71309522Y19545181D01*
X71309522Y19545181D02*
X71404760Y19592800D01*
X71404760Y19592800D02*
X71499998Y19688039D01*
X71499998Y19688039D02*
X71547617Y19878515D01*
X71547617Y19878515D02*
X71547617Y20211848D01*
X71547617Y20211848D02*
X71499998Y20402324D01*
X71499998Y20402324D02*
X71404760Y20497562D01*
X71404760Y20497562D02*
X71309522Y20545181D01*
X70547617Y20545181D02*
X70309522Y19545181D01*
X70309522Y19545181D02*
X70119046Y20259467D01*
X70119046Y20259467D02*
X69928570Y19545181D01*
X69928570Y19545181D02*
X69690475Y20545181D01*
X69309522Y20068991D02*
X68976189Y20068991D01*
X68833332Y19545181D02*
X69309522Y19545181D01*
X69309522Y19545181D02*
X69309522Y20545181D01*
X69309522Y20545181D02*
X68833332Y20545181D01*
X67833332Y19545181D02*
X68166665Y20021372D01*
X68404760Y19545181D02*
X68404760Y20545181D01*
X68404760Y20545181D02*
X68023808Y20545181D01*
X68023808Y20545181D02*
X67928570Y20497562D01*
X67928570Y20497562D02*
X67880951Y20449943D01*
X67880951Y20449943D02*
X67833332Y20354705D01*
X67833332Y20354705D02*
X67833332Y20211848D01*
X67833332Y20211848D02*
X67880951Y20116610D01*
X67880951Y20116610D02*
X67928570Y20068991D01*
X67928570Y20068991D02*
X68023808Y20021372D01*
X68023808Y20021372D02*
X68404760Y20021372D01*
X66642855Y19545181D02*
X66642855Y20545181D01*
X66642855Y20545181D02*
X66261903Y20545181D01*
X66261903Y20545181D02*
X66166665Y20497562D01*
X66166665Y20497562D02*
X66119046Y20449943D01*
X66119046Y20449943D02*
X66071427Y20354705D01*
X66071427Y20354705D02*
X66071427Y20211848D01*
X66071427Y20211848D02*
X66119046Y20116610D01*
X66119046Y20116610D02*
X66166665Y20068991D01*
X66166665Y20068991D02*
X66261903Y20021372D01*
X66261903Y20021372D02*
X66642855Y20021372D01*
X65642855Y19545181D02*
X65642855Y20545181D01*
X65166665Y19545181D02*
X65166665Y20545181D01*
X65166665Y20545181D02*
X64595237Y19545181D01*
X64595237Y19545181D02*
X64595237Y20545181D01*
X69654760Y92406396D02*
X70088093Y93025443D01*
X70397617Y92406396D02*
X70397617Y93706396D01*
X70397617Y93706396D02*
X69902379Y93706396D01*
X69902379Y93706396D02*
X69778569Y93644491D01*
X69778569Y93644491D02*
X69716664Y93582586D01*
X69716664Y93582586D02*
X69654760Y93458777D01*
X69654760Y93458777D02*
X69654760Y93273062D01*
X69654760Y93273062D02*
X69716664Y93149253D01*
X69716664Y93149253D02*
X69778569Y93087348D01*
X69778569Y93087348D02*
X69902379Y93025443D01*
X69902379Y93025443D02*
X70397617Y93025443D01*
X69097617Y93087348D02*
X68664283Y93087348D01*
X68478569Y92406396D02*
X69097617Y92406396D01*
X69097617Y92406396D02*
X69097617Y93706396D01*
X69097617Y93706396D02*
X68478569Y93706396D01*
X68107141Y93706396D02*
X67673808Y92406396D01*
X67673808Y92406396D02*
X67240474Y93706396D01*
X65135712Y93644491D02*
X65259522Y93706396D01*
X65259522Y93706396D02*
X65445236Y93706396D01*
X65445236Y93706396D02*
X65630950Y93644491D01*
X65630950Y93644491D02*
X65754760Y93520681D01*
X65754760Y93520681D02*
X65816665Y93396872D01*
X65816665Y93396872D02*
X65878569Y93149253D01*
X65878569Y93149253D02*
X65878569Y92963539D01*
X65878569Y92963539D02*
X65816665Y92715920D01*
X65816665Y92715920D02*
X65754760Y92592110D01*
X65754760Y92592110D02*
X65630950Y92468300D01*
X65630950Y92468300D02*
X65445236Y92406396D01*
X65445236Y92406396D02*
X65321427Y92406396D01*
X65321427Y92406396D02*
X65135712Y92468300D01*
X65135712Y92468300D02*
X65073808Y92530205D01*
X65073808Y92530205D02*
X65073808Y92963539D01*
X65073808Y92963539D02*
X65321427Y92963539D01*
X64516665Y92530205D02*
X64454760Y92468300D01*
X64454760Y92468300D02*
X64516665Y92406396D01*
X64516665Y92406396D02*
X64578569Y92468300D01*
X64578569Y92468300D02*
X64516665Y92530205D01*
X64516665Y92530205D02*
X64516665Y92406396D01*
X63278569Y93706396D02*
X63897617Y93706396D01*
X63897617Y93706396D02*
X63959521Y93087348D01*
X63959521Y93087348D02*
X63897617Y93149253D01*
X63897617Y93149253D02*
X63773807Y93211158D01*
X63773807Y93211158D02*
X63464283Y93211158D01*
X63464283Y93211158D02*
X63340474Y93149253D01*
X63340474Y93149253D02*
X63278569Y93087348D01*
X63278569Y93087348D02*
X63216664Y92963539D01*
X63216664Y92963539D02*
X63216664Y92654015D01*
X63216664Y92654015D02*
X63278569Y92530205D01*
X63278569Y92530205D02*
X63340474Y92468300D01*
X63340474Y92468300D02*
X63464283Y92406396D01*
X63464283Y92406396D02*
X63773807Y92406396D01*
X63773807Y92406396D02*
X63897617Y92468300D01*
X63897617Y92468300D02*
X63959521Y92530205D01*
X60740474Y93768300D02*
X61854760Y92096872D01*
X58635712Y92406396D02*
X59378569Y92406396D01*
X59007141Y92406396D02*
X59007141Y93706396D01*
X59007141Y93706396D02*
X59130950Y93520681D01*
X59130950Y93520681D02*
X59254760Y93396872D01*
X59254760Y93396872D02*
X59378569Y93334967D01*
X57830951Y93706396D02*
X57707141Y93706396D01*
X57707141Y93706396D02*
X57583332Y93644491D01*
X57583332Y93644491D02*
X57521427Y93582586D01*
X57521427Y93582586D02*
X57459522Y93458777D01*
X57459522Y93458777D02*
X57397617Y93211158D01*
X57397617Y93211158D02*
X57397617Y92901634D01*
X57397617Y92901634D02*
X57459522Y92654015D01*
X57459522Y92654015D02*
X57521427Y92530205D01*
X57521427Y92530205D02*
X57583332Y92468300D01*
X57583332Y92468300D02*
X57707141Y92406396D01*
X57707141Y92406396D02*
X57830951Y92406396D01*
X57830951Y92406396D02*
X57954760Y92468300D01*
X57954760Y92468300D02*
X58016665Y92530205D01*
X58016665Y92530205D02*
X58078570Y92654015D01*
X58078570Y92654015D02*
X58140474Y92901634D01*
X58140474Y92901634D02*
X58140474Y93211158D01*
X58140474Y93211158D02*
X58078570Y93458777D01*
X58078570Y93458777D02*
X58016665Y93582586D01*
X58016665Y93582586D02*
X57954760Y93644491D01*
X57954760Y93644491D02*
X57830951Y93706396D01*
X56592856Y93706396D02*
X56469046Y93706396D01*
X56469046Y93706396D02*
X56345237Y93644491D01*
X56345237Y93644491D02*
X56283332Y93582586D01*
X56283332Y93582586D02*
X56221427Y93458777D01*
X56221427Y93458777D02*
X56159522Y93211158D01*
X56159522Y93211158D02*
X56159522Y92901634D01*
X56159522Y92901634D02*
X56221427Y92654015D01*
X56221427Y92654015D02*
X56283332Y92530205D01*
X56283332Y92530205D02*
X56345237Y92468300D01*
X56345237Y92468300D02*
X56469046Y92406396D01*
X56469046Y92406396D02*
X56592856Y92406396D01*
X56592856Y92406396D02*
X56716665Y92468300D01*
X56716665Y92468300D02*
X56778570Y92530205D01*
X56778570Y92530205D02*
X56840475Y92654015D01*
X56840475Y92654015D02*
X56902379Y92901634D01*
X56902379Y92901634D02*
X56902379Y93211158D01*
X56902379Y93211158D02*
X56840475Y93458777D01*
X56840475Y93458777D02*
X56778570Y93582586D01*
X56778570Y93582586D02*
X56716665Y93644491D01*
X56716665Y93644491D02*
X56592856Y93706396D01*
X54735713Y92406396D02*
X54054761Y93273062D01*
X54735713Y93273062D02*
X54054761Y92406396D01*
X51888094Y92406396D02*
X52630951Y92406396D01*
X52259523Y92406396D02*
X52259523Y93706396D01*
X52259523Y93706396D02*
X52383332Y93520681D01*
X52383332Y93520681D02*
X52507142Y93396872D01*
X52507142Y93396872D02*
X52630951Y93334967D01*
X51083333Y93706396D02*
X50959523Y93706396D01*
X50959523Y93706396D02*
X50835714Y93644491D01*
X50835714Y93644491D02*
X50773809Y93582586D01*
X50773809Y93582586D02*
X50711904Y93458777D01*
X50711904Y93458777D02*
X50649999Y93211158D01*
X50649999Y93211158D02*
X50649999Y92901634D01*
X50649999Y92901634D02*
X50711904Y92654015D01*
X50711904Y92654015D02*
X50773809Y92530205D01*
X50773809Y92530205D02*
X50835714Y92468300D01*
X50835714Y92468300D02*
X50959523Y92406396D01*
X50959523Y92406396D02*
X51083333Y92406396D01*
X51083333Y92406396D02*
X51207142Y92468300D01*
X51207142Y92468300D02*
X51269047Y92530205D01*
X51269047Y92530205D02*
X51330952Y92654015D01*
X51330952Y92654015D02*
X51392856Y92901634D01*
X51392856Y92901634D02*
X51392856Y93211158D01*
X51392856Y93211158D02*
X51330952Y93458777D01*
X51330952Y93458777D02*
X51269047Y93582586D01*
X51269047Y93582586D02*
X51207142Y93644491D01*
X51207142Y93644491D02*
X51083333Y93706396D01*
X49845238Y93706396D02*
X49721428Y93706396D01*
X49721428Y93706396D02*
X49597619Y93644491D01*
X49597619Y93644491D02*
X49535714Y93582586D01*
X49535714Y93582586D02*
X49473809Y93458777D01*
X49473809Y93458777D02*
X49411904Y93211158D01*
X49411904Y93211158D02*
X49411904Y92901634D01*
X49411904Y92901634D02*
X49473809Y92654015D01*
X49473809Y92654015D02*
X49535714Y92530205D01*
X49535714Y92530205D02*
X49597619Y92468300D01*
X49597619Y92468300D02*
X49721428Y92406396D01*
X49721428Y92406396D02*
X49845238Y92406396D01*
X49845238Y92406396D02*
X49969047Y92468300D01*
X49969047Y92468300D02*
X50030952Y92530205D01*
X50030952Y92530205D02*
X50092857Y92654015D01*
X50092857Y92654015D02*
X50154761Y92901634D01*
X50154761Y92901634D02*
X50154761Y93211158D01*
X50154761Y93211158D02*
X50092857Y93458777D01*
X50092857Y93458777D02*
X50030952Y93582586D01*
X50030952Y93582586D02*
X49969047Y93644491D01*
X49969047Y93644491D02*
X49845238Y93706396D01*
X47864286Y92406396D02*
X47864286Y93273062D01*
X47864286Y93149253D02*
X47802381Y93211158D01*
X47802381Y93211158D02*
X47678571Y93273062D01*
X47678571Y93273062D02*
X47492857Y93273062D01*
X47492857Y93273062D02*
X47369048Y93211158D01*
X47369048Y93211158D02*
X47307143Y93087348D01*
X47307143Y93087348D02*
X47307143Y92406396D01*
X47307143Y93087348D02*
X47245238Y93211158D01*
X47245238Y93211158D02*
X47121429Y93273062D01*
X47121429Y93273062D02*
X46935714Y93273062D01*
X46935714Y93273062D02*
X46811905Y93211158D01*
X46811905Y93211158D02*
X46750000Y93087348D01*
X46750000Y93087348D02*
X46750000Y92406396D01*
X46130953Y92406396D02*
X46130953Y93273062D01*
X46130953Y93149253D02*
X46069048Y93211158D01*
X46069048Y93211158D02*
X45945238Y93273062D01*
X45945238Y93273062D02*
X45759524Y93273062D01*
X45759524Y93273062D02*
X45635715Y93211158D01*
X45635715Y93211158D02*
X45573810Y93087348D01*
X45573810Y93087348D02*
X45573810Y92406396D01*
X45573810Y93087348D02*
X45511905Y93211158D01*
X45511905Y93211158D02*
X45388096Y93273062D01*
X45388096Y93273062D02*
X45202381Y93273062D01*
X45202381Y93273062D02*
X45078572Y93211158D01*
X45078572Y93211158D02*
X45016667Y93087348D01*
X45016667Y93087348D02*
X45016667Y92406396D01*
X42478572Y93768300D02*
X43592858Y92096872D01*
X41054763Y92406396D02*
X41054763Y93706396D01*
X41054763Y93087348D02*
X40311906Y93087348D01*
X40311906Y92406396D02*
X40311906Y93706396D01*
X39754762Y92777824D02*
X39135715Y92777824D01*
X39878572Y92406396D02*
X39445239Y93706396D01*
X39445239Y93706396D02*
X39011905Y92406396D01*
X38578572Y92406396D02*
X38578572Y93706396D01*
X38578572Y93706396D02*
X37835715Y92406396D01*
X37835715Y92406396D02*
X37835715Y93706396D01*
X37216667Y92406396D02*
X37216667Y93706396D01*
X37216667Y93706396D02*
X36907143Y93706396D01*
X36907143Y93706396D02*
X36721429Y93644491D01*
X36721429Y93644491D02*
X36597619Y93520681D01*
X36597619Y93520681D02*
X36535714Y93396872D01*
X36535714Y93396872D02*
X36473810Y93149253D01*
X36473810Y93149253D02*
X36473810Y92963539D01*
X36473810Y92963539D02*
X36535714Y92715920D01*
X36535714Y92715920D02*
X36597619Y92592110D01*
X36597619Y92592110D02*
X36721429Y92468300D01*
X36721429Y92468300D02*
X36907143Y92406396D01*
X36907143Y92406396D02*
X37216667Y92406396D01*
X34926191Y92406396D02*
X34926191Y93706396D01*
X34926191Y93706396D02*
X34430953Y93706396D01*
X34430953Y93706396D02*
X34307143Y93644491D01*
X34307143Y93644491D02*
X34245238Y93582586D01*
X34245238Y93582586D02*
X34183334Y93458777D01*
X34183334Y93458777D02*
X34183334Y93273062D01*
X34183334Y93273062D02*
X34245238Y93149253D01*
X34245238Y93149253D02*
X34307143Y93087348D01*
X34307143Y93087348D02*
X34430953Y93025443D01*
X34430953Y93025443D02*
X34926191Y93025443D01*
X33688095Y92777824D02*
X33069048Y92777824D01*
X33811905Y92406396D02*
X33378572Y93706396D01*
X33378572Y93706396D02*
X32945238Y92406396D01*
X31769048Y92406396D02*
X32202381Y93025443D01*
X32511905Y92406396D02*
X32511905Y93706396D01*
X32511905Y93706396D02*
X32016667Y93706396D01*
X32016667Y93706396D02*
X31892857Y93644491D01*
X31892857Y93644491D02*
X31830952Y93582586D01*
X31830952Y93582586D02*
X31769048Y93458777D01*
X31769048Y93458777D02*
X31769048Y93273062D01*
X31769048Y93273062D02*
X31830952Y93149253D01*
X31830952Y93149253D02*
X31892857Y93087348D01*
X31892857Y93087348D02*
X32016667Y93025443D01*
X32016667Y93025443D02*
X32511905Y93025443D01*
X31397619Y93706396D02*
X30654762Y93706396D01*
X31026190Y92406396D02*
X31026190Y93706396D01*
X30283333Y92468300D02*
X30097619Y92406396D01*
X30097619Y92406396D02*
X29788095Y92406396D01*
X29788095Y92406396D02*
X29664286Y92468300D01*
X29664286Y92468300D02*
X29602381Y92530205D01*
X29602381Y92530205D02*
X29540476Y92654015D01*
X29540476Y92654015D02*
X29540476Y92777824D01*
X29540476Y92777824D02*
X29602381Y92901634D01*
X29602381Y92901634D02*
X29664286Y92963539D01*
X29664286Y92963539D02*
X29788095Y93025443D01*
X29788095Y93025443D02*
X30035714Y93087348D01*
X30035714Y93087348D02*
X30159524Y93149253D01*
X30159524Y93149253D02*
X30221429Y93211158D01*
X30221429Y93211158D02*
X30283333Y93334967D01*
X30283333Y93334967D02*
X30283333Y93458777D01*
X30283333Y93458777D02*
X30221429Y93582586D01*
X30221429Y93582586D02*
X30159524Y93644491D01*
X30159524Y93644491D02*
X30035714Y93706396D01*
X30035714Y93706396D02*
X29726191Y93706396D01*
X29726191Y93706396D02*
X29540476Y93644491D01*
%LPC*%
D11*
%TO.C,SW2*%
X78000000Y35000000D03*
X84500000Y35000000D03*
X78000000Y30500000D03*
X84500000Y30500000D03*
%TD*%
D12*
%TO.C,U2*%
X72860000Y92350000D03*
X72860000Y91250000D03*
X73410000Y92900000D03*
X73410000Y91800000D03*
X73410000Y90700000D03*
X73960000Y92350000D03*
X73960000Y91250000D03*
X74510000Y92900000D03*
X74510000Y91800000D03*
X74510000Y90700000D03*
X75060000Y92350000D03*
X75060000Y91250000D03*
%TD*%
D13*
%TO.C,TP4*%
X37000000Y58000000D03*
%TD*%
D14*
%TO.C,J1*%
X16000000Y9000000D03*
D15*
X18770000Y9000000D03*
X21540000Y9000000D03*
X24310000Y9000000D03*
X27080000Y9000000D03*
X17385000Y6160000D03*
X20155000Y6160000D03*
X22925000Y6160000D03*
X25695000Y6160000D03*
D16*
X9045001Y7580000D03*
X34035000Y7580000D03*
%TD*%
D17*
%TO.C,C15*%
X11000000Y68000000D03*
D15*
X13500000Y68000000D03*
%TD*%
D18*
%TO.C,H1*%
X4000000Y96000000D03*
%TD*%
D11*
%TO.C,SW1*%
X59000000Y35000000D03*
X65500000Y35000000D03*
X59000000Y30500000D03*
X65500000Y30500000D03*
%TD*%
D13*
%TO.C,TP1*%
X4000000Y66000000D03*
%TD*%
%TO.C,TP2*%
X49000000Y9000000D03*
%TD*%
%TO.C,TP5*%
X9000000Y17000000D03*
%TD*%
D18*
%TO.C,H3*%
X45000000Y4000000D03*
%TD*%
D13*
%TO.C,TP7*%
X54000000Y32000000D03*
%TD*%
D19*
%TO.C,U1*%
X23350000Y82300000D03*
X23350000Y81000000D03*
X23350000Y79700000D03*
X24650000Y82300000D03*
X24650000Y81000000D03*
X24650000Y79700000D03*
%TD*%
D18*
%TO.C,H2*%
X96000000Y96000000D03*
%TD*%
%TO.C,H4*%
X96000000Y4000000D03*
%TD*%
D13*
%TO.C,TP6*%
X9000000Y24000000D03*
%TD*%
D20*
%TO.C,J3*%
X73000000Y8000000D03*
D21*
X75540000Y8000000D03*
X78080000Y8000000D03*
%TD*%
D13*
%TO.C,TP3*%
X29000000Y47000000D03*
%TD*%
%LPD*%
M02*
