M48
; DRILL file KiCad 10.0.6 date 2026-09-22T09:21:39
; FORMAT={-:-/ absolute / metric / decimal}
; #@! TF.CreationDate,2026-09-22T09:21:39+02:00
; #@! TF.GenerationSoftware,Kicad,Pcbnew,10.0.6
; #@! TF.FileFunction,Plated,1,4,PTH
FMAT,2
METRIC
; #@! TA.AperFunction,Plated,PTH,ViaDrill
T1C0.300
; #@! TA.AperFunction,Plated,PTH,ComponentDrill
T2C0.300
; #@! TA.AperFunction,Plated,PTH,ComponentDrill
T3C0.330
; #@! TA.AperFunction,Plated,PTH,ComponentDrill
T4C0.800
; #@! TA.AperFunction,Plated,PTH,ComponentDrill
T5C1.000
; #@! TA.AperFunction,Plated,PTH,ComponentDrill
T6C1.100
; #@! TA.AperFunction,Plated,PTH,ComponentDrill
T7C1.200
; #@! TA.AperFunction,Plated,PTH,ComponentDrill
T8C1.500
; #@! TA.AperFunction,Plated,PTH,ComponentDrill
T9C3.200
%
G90
G05
T1
X3.0Y60.0
X3.0Y50.0
X3.0Y40.0
X3.0Y30.0
X3.0Y20.0
X3.0Y10.0
X3.0Y3.0
X7.2Y61.55
X7.2Y51.45
X7.4Y47.562
X7.425Y58.45
X7.425Y54.55
X7.95Y77.5
X8.0Y50.0
X8.0Y40.0
X8.0Y30.0
X8.0Y20.0
X8.0Y3.0
X12.0Y85.0
X13.3Y57.5
X13.3Y56.0
X14.0Y47.0
X14.075Y64.0
X14.8Y53.5
X15.0Y79.2
X15.075Y23.0
X15.438Y84.0
X17.2Y64.0
X17.2Y47.0
X18.2Y23.0
X18.383Y80.101
X19.8Y54.7
X20.0Y84.5
X20.0Y62.5
X20.0Y60.0
X20.0Y57.0
X20.0Y50.0
X20.0Y40.0
X20.0Y30.0
X20.0Y20.0
X20.0Y3.0
X20.7Y58.0
X20.7Y56.0
X20.91Y68.264
X22.9Y18.5
X23.0Y60.55
X23.438Y52.6
X24.095Y27.175
X24.142Y32.825
X24.765Y39.562
X24.765Y36.438
X25.2Y51.0
X25.365Y24.265
X26.365Y34.85
X26.5Y20.365
X27.635Y34.85
X27.7Y72.45
X30.607Y43.536
X31.5Y75.537
X35.0Y60.0
X35.0Y50.0
X35.0Y40.0
X35.0Y30.0
X35.0Y20.0
X35.1Y24.0
X40.075Y89.0
X40.075Y80.0
X40.075Y71.0
X41.15Y44.15
X41.15Y39.85
X41.4Y33.0
X43.0Y12.0
X43.2Y89.0
X43.2Y80.0
X43.2Y71.0
X48.0Y97.0
X48.0Y90.0
X48.0Y80.0
X48.0Y70.0
X48.0Y60.0
X48.0Y50.0
X48.0Y40.0
X48.0Y30.0
X48.0Y20.0
X48.0Y3.0
X51.075Y90.0
X51.1Y72.0
X52.958Y53.0
X54.0Y71.567
X54.2Y90.0
X54.2Y81.0
X55.1Y63.0
X56.465Y85.556
X56.695Y51.061
X57.575Y97.0
X60.0Y80.0
X60.0Y70.0
X60.0Y60.0
X60.0Y50.0
X60.0Y40.0
X60.0Y20.0
X60.0Y10.0
X60.0Y3.0
X60.7Y97.0
X60.87Y89.0
X60.87Y62.93
X62.8Y86.0
X62.857Y36.409
X65.075Y53.0
X65.506Y94.193
X65.7Y98.0
X66.183Y95.253
X67.189Y19.115
X68.1Y63.0
X70.5Y60.0
X74.2Y68.0
X74.7Y75.95
X74.7Y72.05
X75.0Y97.0
X75.0Y80.0
X75.0Y70.0
X75.0Y60.0
X75.0Y50.0
X75.0Y40.0
X75.0Y30.0
X75.0Y20.0
X75.0Y10.0
X75.0Y3.0
X75.21Y21.562
X75.21Y18.438
X76.81Y15.5
X76.81Y10.5
X77.1Y46.0
X79.091Y96.5
X80.425Y72.05
X83.27Y87.5
X84.623Y88.788
X84.623Y55.0
X85.556Y95.0
X85.556Y66.55
X85.556Y50.001
X86.6Y79.062
X86.6Y75.938
X88.0Y97.0
X88.0Y90.0
X88.0Y80.0
X88.0Y70.0
X88.0Y60.0
X88.0Y50.0
X88.0Y40.0
X88.0Y30.0
X88.0Y20.0
X88.0Y10.0
X88.0Y3.0
X88.1Y84.0
X89.425Y77.55
X89.425Y63.45
X89.45Y44.0
X91.2Y92.0
X92.021Y44.539
X97.0Y90.0
X97.0Y80.0
X97.0Y70.0
X97.0Y60.0
X97.0Y50.0
X97.0Y40.0
X97.0Y30.0
X97.0Y20.0
X97.0Y10.0
T2
X72.86Y92.35
X72.86Y91.25
X73.41Y92.9
X73.41Y91.8
X73.41Y90.7
X73.96Y92.35
X73.96Y91.25
X74.51Y92.9
X74.51Y91.8
X74.51Y90.7
X75.06Y92.35
X75.06Y91.25
T3
X23.35Y82.3
X23.35Y81.0
X23.35Y79.7
X24.65Y82.3
X24.65Y81.0
X24.65Y79.7
T4
X11.0Y68.0
X13.5Y68.0
T5
X73.0Y8.0
X75.54Y8.0
X78.08Y8.0
T6
X59.0Y35.0
X59.0Y30.5
X65.5Y35.0
X65.5Y30.5
X78.0Y35.0
X78.0Y30.5
X84.5Y35.0
X84.5Y30.5
T7
X16.0Y9.0
X17.385Y6.16
X18.77Y9.0
X20.155Y6.16
X21.54Y9.0
X22.925Y6.16
X24.31Y9.0
X25.695Y6.16
X27.08Y9.0
T8
X4.0Y66.0
X9.0Y24.0
X9.0Y17.0
X29.0Y47.0
X37.0Y58.0
X49.0Y9.0
X54.0Y32.0
T9
X9.045Y7.58
X34.035Y7.58
M30
