%TF.GenerationSoftware,KiCad,Pcbnew,10.0.6*%
%TF.CreationDate,2026-09-22T09:21:39+02:00*%
%TF.ProjectId,leaf-heat-v7,6c656166-2d68-4656-9174-2d76372e6b69,G.5*%
%TF.SameCoordinates,Original*%
%TF.FileFunction,Soldermask,Top*%
%TF.FilePolarity,Negative*%
%FSLAX46Y46*%
G04 Gerber Fmt 4.6, Leading zero omitted, Abs format (unit mm)*
G04 Created by KiCad (PCBNEW 10.0.6) date 2026-09-22 09:21:39*
%MOMM*%
%LPD*%
G01*
G04 APERTURE LIST*
G04 Aperture macros list*
%AMRoundRect*
0 Rectangle with rounded corners*
0 $1 Rounding radius*
0 $2 $3 $4 $5 $6 $7 $8 $9 X,Y pos of 4 corners*
0 Add a 4 corners polygon primitive as box body*
4,1,4,$2,$3,$4,$5,$6,$7,$8,$9,$2,$3,0*
0 Add four circle primitives for the rounded corners*
1,1,$1+$1,$2,$3*
1,1,$1+$1,$4,$5*
1,1,$1+$1,$6,$7*
1,1,$1+$1,$8,$9*
0 Add four rect primitives between the rounded corners*
20,1,$1+$1,$2,$3,$4,$5,0*
20,1,$1+$1,$4,$5,$6,$7,0*
20,1,$1+$1,$6,$7,$8,$9,0*
20,1,$1+$1,$8,$9,$2,$3,0*%
G04 Aperture macros list end*
%ADD10RoundRect,0.250000X0.625000X-0.400000X0.625000X0.400000X-0.625000X0.400000X-0.625000X-0.400000X0*%
%ADD11RoundRect,0.250000X0.400000X0.625000X-0.400000X0.625000X-0.400000X-0.625000X0.400000X-0.625000X0*%
%ADD12C,2.000000*%
%ADD13R,2.700000X2.700000*%
%ADD14R,1.500000X0.900000*%
%ADD15RoundRect,0.250000X-0.412500X-1.100000X0.412500X-1.100000X0.412500X1.100000X-0.412500X1.100000X0*%
%ADD16C,3.000000*%
%ADD17RoundRect,0.250000X-0.400000X-0.625000X0.400000X-0.625000X0.400000X0.625000X-0.400000X0.625000X0*%
%ADD18RoundRect,0.250000X-0.412500X-0.650000X0.412500X-0.650000X0.412500X0.650000X-0.412500X0.650000X0*%
%ADD19R,1.600000X1.600000*%
%ADD20C,1.600000*%
%ADD21C,4.000000*%
%ADD22RoundRect,0.250000X0.412500X0.650000X-0.412500X0.650000X-0.412500X-0.650000X0.412500X-0.650000X0*%
%ADD23RoundRect,0.250000X-0.550000X-0.550000X0.550000X-0.550000X0.550000X0.550000X-0.550000X0.550000X0*%
%ADD24R,3.150000X1.960000*%
%ADD25C,2.700000*%
%ADD26RoundRect,0.250000X0.650000X-0.412500X0.650000X0.412500X-0.650000X0.412500X-0.650000X-0.412500X0*%
%ADD27RoundRect,0.250000X-0.625000X0.400000X-0.625000X-0.400000X0.625000X-0.400000X0.625000X0.400000X0*%
%ADD28RoundRect,0.250000X0.900000X-1.000000X0.900000X1.000000X-0.900000X1.000000X-0.900000X-1.000000X0*%
%ADD29RoundRect,0.250000X-0.650000X1.000000X-0.650000X-1.000000X0.650000X-1.000000X0.650000X1.000000X0*%
%ADD30R,2.350000X5.100000*%
%ADD31RoundRect,0.100000X-0.637500X-0.100000X0.637500X-0.100000X0.637500X0.100000X-0.637500X0.100000X0*%
%ADD32RoundRect,0.250000X-0.650000X0.412500X-0.650000X-0.412500X0.650000X-0.412500X0.650000X0.412500X0*%
%ADD33RoundRect,0.200000X0.200000X-0.750000X0.200000X0.750000X-0.200000X0.750000X-0.200000X-0.750000X0*%
%ADD34RoundRect,0.249999X-0.450001X-1.425001X0.450001X-1.425001X0.450001X1.425001X-0.450001X1.425001X0*%
%ADD35RoundRect,0.250001X0.462499X0.624999X-0.462499X0.624999X-0.462499X-0.624999X0.462499X-0.624999X0*%
%ADD36R,2.710000X3.400000*%
%ADD37RoundRect,0.070000X-1.100000X-0.250000X1.100000X-0.250000X1.100000X0.250000X-1.100000X0.250000X0*%
%ADD38RoundRect,0.150000X0.150000X-0.512500X0.150000X0.512500X-0.150000X0.512500X-0.150000X-0.512500X0*%
%ADD39R,1.700000X1.700000*%
%ADD40C,1.700000*%
%ADD41RoundRect,0.150000X-0.150000X1.175000X-0.150000X-1.175000X0.150000X-1.175000X0.150000X1.175000X0*%
%ADD42RoundRect,0.045000X-0.480000X-0.105000X0.480000X-0.105000X0.480000X0.105000X-0.480000X0.105000X0*%
%ADD43RoundRect,0.250000X1.100000X-0.412500X1.100000X0.412500X-1.100000X0.412500X-1.100000X-0.412500X0*%
G04 APERTURE END LIST*
D10*
%TO.C,R25*%
X25000000Y64450000D03*
X25000000Y67550000D03*
%TD*%
D11*
%TO.C,R19*%
X92550000Y46000000D03*
X89450000Y46000000D03*
%TD*%
D12*
%TO.C,SW2*%
X78000000Y35000000D03*
X84500000Y35000000D03*
X78000000Y30500000D03*
X84500000Y30500000D03*
%TD*%
D13*
%TO.C,U2*%
X73960000Y91800000D03*
D14*
X64250000Y98000000D03*
X64250000Y96500000D03*
X64250000Y95000000D03*
X64250000Y93500000D03*
X64250000Y92000000D03*
X64250000Y90500000D03*
X64250000Y89000000D03*
X64250000Y87500000D03*
X64250000Y86000000D03*
X81750000Y86000000D03*
X81750000Y87500000D03*
X81750000Y89000000D03*
X81750000Y90500000D03*
X81750000Y92000000D03*
X81750000Y93500000D03*
X81750000Y95000000D03*
X81750000Y96500000D03*
X81750000Y98000000D03*
%TD*%
D15*
%TO.C,C5*%
X41437500Y89000000D03*
X44562500Y89000000D03*
%TD*%
D16*
%TO.C,TP4*%
X37000000Y58000000D03*
%TD*%
D17*
%TO.C,R5*%
X56450000Y63000000D03*
X59550000Y63000000D03*
%TD*%
D18*
%TO.C,C16*%
X15437500Y64000000D03*
X18562500Y64000000D03*
%TD*%
D19*
%TO.C,J1*%
X16000000Y9000000D03*
D20*
X18770000Y9000000D03*
X21540000Y9000000D03*
X24310000Y9000000D03*
X27080000Y9000000D03*
X17385000Y6160000D03*
X20155000Y6160000D03*
X22925000Y6160000D03*
X25695000Y6160000D03*
D21*
X9045001Y7580000D03*
X34035000Y7580000D03*
%TD*%
D22*
%TO.C,C10*%
X62062500Y97000000D03*
X58937500Y97000000D03*
%TD*%
D23*
%TO.C,C15*%
X11000000Y68000000D03*
D20*
X13500000Y68000000D03*
%TD*%
D24*
%TO.C,F1*%
X43000000Y15545000D03*
X43000000Y20455000D03*
%TD*%
D25*
%TO.C,H1*%
X4000000Y96000000D03*
%TD*%
D22*
%TO.C,C2*%
X18562500Y81635000D03*
X15437500Y81635000D03*
%TD*%
D15*
%TO.C,C6*%
X41437500Y80000000D03*
X44562500Y80000000D03*
%TD*%
D18*
%TO.C,C19*%
X15437500Y47000000D03*
X18562500Y47000000D03*
%TD*%
D26*
%TO.C,C14*%
X76810000Y18437500D03*
X76810000Y21562500D03*
%TD*%
%TO.C,C12*%
X26365000Y36437500D03*
X26365000Y39562500D03*
%TD*%
D10*
%TO.C,R24*%
X25000000Y57450000D03*
X25000000Y60550000D03*
%TD*%
D22*
%TO.C,C13*%
X19562500Y23000000D03*
X16437500Y23000000D03*
%TD*%
D18*
%TO.C,C11*%
X89437500Y92000000D03*
X92562500Y92000000D03*
%TD*%
D12*
%TO.C,SW1*%
X59000000Y35000000D03*
X65500000Y35000000D03*
X59000000Y30500000D03*
X65500000Y30500000D03*
%TD*%
D26*
%TO.C,C17*%
X9000000Y44437500D03*
X9000000Y47562500D03*
%TD*%
D27*
%TO.C,R2*%
X25700000Y75550000D03*
X25700000Y72450000D03*
%TD*%
D28*
%TO.C,D3*%
X43000000Y39850000D03*
X43000000Y44150000D03*
%TD*%
D17*
%TO.C,R6*%
X69450000Y63000000D03*
X72550000Y63000000D03*
%TD*%
%TO.C,R7*%
X89450000Y84000000D03*
X92550000Y84000000D03*
%TD*%
D16*
%TO.C,TP1*%
X4000000Y66000000D03*
%TD*%
D18*
%TO.C,C18*%
X23437500Y51000000D03*
X26562500Y51000000D03*
%TD*%
D29*
%TO.C,D1*%
X43000000Y33000000D03*
X43000000Y29000000D03*
%TD*%
D18*
%TO.C,C8*%
X52437500Y81000000D03*
X55562500Y81000000D03*
%TD*%
D17*
%TO.C,R3*%
X52450000Y72000000D03*
X55550000Y72000000D03*
%TD*%
D16*
%TO.C,TP2*%
X49000000Y9000000D03*
%TD*%
D30*
%TO.C,L1*%
X27925000Y89000000D03*
X32075000Y89000000D03*
%TD*%
D16*
%TO.C,TP5*%
X9000000Y17000000D03*
%TD*%
D15*
%TO.C,C7*%
X41437500Y71000000D03*
X44562500Y71000000D03*
%TD*%
D31*
%TO.C,U6*%
X76137500Y75950000D03*
X76137500Y75300000D03*
X76137500Y74650000D03*
X76137500Y74000000D03*
X76137500Y73350000D03*
X76137500Y72700000D03*
X76137500Y72050000D03*
X81862500Y72050000D03*
X81862500Y72700000D03*
X81862500Y73350000D03*
X81862500Y74000000D03*
X81862500Y74650000D03*
X81862500Y75300000D03*
X81862500Y75950000D03*
%TD*%
D32*
%TO.C,C3*%
X29500000Y78662500D03*
X29500000Y75537500D03*
%TD*%
D17*
%TO.C,R10*%
X36450000Y24000000D03*
X39550000Y24000000D03*
%TD*%
D26*
%TO.C,C4*%
X31000000Y80937500D03*
X31000000Y84062500D03*
%TD*%
D33*
%TO.C,D4*%
X23050000Y15500000D03*
X24950000Y15500000D03*
X24000000Y18500000D03*
%TD*%
D25*
%TO.C,H3*%
X45000000Y4000000D03*
%TD*%
D17*
%TO.C,R20*%
X78450000Y46000000D03*
X81550000Y46000000D03*
%TD*%
D34*
%TO.C,R21*%
X7950000Y75000000D03*
X14050000Y75000000D03*
%TD*%
D35*
%TO.C,D6*%
X66487500Y53000000D03*
X63512500Y53000000D03*
%TD*%
D17*
%TO.C,R1*%
X18650000Y74000000D03*
X21750000Y74000000D03*
%TD*%
D16*
%TO.C,TP7*%
X54000000Y32000000D03*
%TD*%
D36*
%TO.C,U1*%
X24000000Y81000000D03*
D37*
X21125000Y82905000D03*
X21125000Y81635000D03*
X21125000Y80365000D03*
X21125000Y79095000D03*
X26875000Y79095000D03*
X26875000Y80365000D03*
X26875000Y81635000D03*
X26875000Y82905000D03*
%TD*%
D17*
%TO.C,R18*%
X89450000Y55000000D03*
X92550000Y55000000D03*
%TD*%
D25*
%TO.C,H2*%
X96000000Y96000000D03*
%TD*%
D17*
%TO.C,R9*%
X51450000Y53000000D03*
X54550000Y53000000D03*
%TD*%
D26*
%TO.C,C20*%
X85000000Y75937500D03*
X85000000Y79062500D03*
%TD*%
D10*
%TO.C,R8*%
X91000000Y74450000D03*
X91000000Y77550000D03*
%TD*%
D38*
%TO.C,U4*%
X75860000Y11862500D03*
X76810000Y11862500D03*
X77760000Y11862500D03*
X77760000Y14137500D03*
X76810000Y14137500D03*
X75860000Y14137500D03*
%TD*%
D10*
%TO.C,R4*%
X91000000Y63450000D03*
X91000000Y66550000D03*
%TD*%
%TO.C,R22*%
X9000000Y58450000D03*
X9000000Y61550000D03*
%TD*%
D25*
%TO.C,H4*%
X96000000Y4000000D03*
%TD*%
D16*
%TO.C,TP6*%
X9000000Y24000000D03*
%TD*%
D39*
%TO.C,J3*%
X73000000Y8000000D03*
D40*
X75540000Y8000000D03*
X78080000Y8000000D03*
%TD*%
D41*
%TO.C,U3*%
X28905000Y32825000D03*
X27635000Y32825000D03*
X26365000Y32825000D03*
X25095000Y32825000D03*
X25095000Y27175000D03*
X26365000Y27175000D03*
X27635000Y27175000D03*
X28905000Y27175000D03*
%TD*%
D10*
%TO.C,R23*%
X9000000Y51450000D03*
X9000000Y54550000D03*
%TD*%
D42*
%TO.C,U5*%
X15500000Y58500000D03*
X15500000Y58000000D03*
X15500000Y57500000D03*
X15500000Y57000000D03*
X15500000Y56500000D03*
X15500000Y56000000D03*
X15500000Y55500000D03*
X18500000Y55500000D03*
X18500000Y56000000D03*
X18500000Y56500000D03*
X18500000Y57000000D03*
X18500000Y57500000D03*
X18500000Y58000000D03*
X18500000Y58500000D03*
%TD*%
D43*
%TO.C,C1*%
X12000000Y80137500D03*
X12000000Y83262500D03*
%TD*%
D16*
%TO.C,TP3*%
X29000000Y47000000D03*
%TD*%
D17*
%TO.C,R26*%
X72450000Y68000000D03*
X75550000Y68000000D03*
%TD*%
D22*
%TO.C,C9*%
X55562500Y90000000D03*
X52437500Y90000000D03*
%TD*%
M02*
