%TF.GenerationSoftware,KiCad,Pcbnew,10.0.6*%
%TF.CreationDate,2026-09-11T23:53:40+02:00*%
%TF.ProjectId,leaf-heat-v2,6c656166-2d68-4656-9174-2d76322e6b69,B*%
%TF.SameCoordinates,Original*%
%TF.FileFunction,Copper,L3,Inr*%
%TF.FilePolarity,Positive*%
%FSLAX46Y46*%
G04 Gerber Fmt 4.6, Leading zero omitted, Abs format (unit mm)*
G04 Created by KiCad (PCBNEW 10.0.6) date 2026-09-11 23:53:40*
%MOMM*%
%LPD*%
G01*
G04 APERTURE LIST*
%TA.AperFunction,ComponentPad*%
%ADD10R,1.600000X1.600000*%
%TD*%
%TA.AperFunction,ComponentPad*%
%ADD11C,1.600000*%
%TD*%
%TA.AperFunction,ComponentPad*%
%ADD12C,4.000000*%
%TD*%
%TA.AperFunction,ComponentPad*%
%ADD13C,0.630000*%
%TD*%
%TA.AperFunction,HeatsinkPad*%
%ADD14C,0.650000*%
%TD*%
%TA.AperFunction,ComponentPad*%
%ADD15O,1.000000X2.100000*%
%TD*%
%TA.AperFunction,ComponentPad*%
%ADD16O,1.000000X1.800000*%
%TD*%
%TA.AperFunction,ViaPad*%
%ADD17C,0.650000*%
%TD*%
G04 APERTURE END LIST*
D10*
%TO.N,unconnected-(J1-Pad1)*%
%TO.C,J1*%
X11000000Y11000000D03*
D11*
%TO.N,/CAN_L*%
X13770000Y11000000D03*
%TO.N,/GND*%
X16540000Y11000000D03*
%TO.N,unconnected-(J1-Pad4)*%
X19310000Y11000000D03*
%TO.N,unconnected-(J1-Pad5)*%
X22080000Y11000000D03*
%TO.N,unconnected-(J1-Pad6)*%
X12385000Y8160000D03*
%TO.N,/CAN_H*%
X15155000Y8160000D03*
%TO.N,unconnected-(J1-Pad8)*%
X17925000Y8160000D03*
%TO.N,/CAR_12V*%
X20695000Y8160000D03*
D12*
%TO.N,/GND*%
X4045001Y9580000D03*
X29035000Y9580000D03*
%TD*%
D13*
%TO.N,/GND*%
%TO.C,U1*%
X18350000Y39300000D03*
X18350000Y38000000D03*
X18350000Y36700000D03*
X19650000Y39300000D03*
X19650000Y38000000D03*
X19650000Y36700000D03*
%TD*%
D14*
%TO.N,/GND*%
%TO.C,U2*%
X47860000Y42350000D03*
X47860000Y41250000D03*
X48410000Y42900000D03*
X48410000Y41800000D03*
X48410000Y40700000D03*
X48960000Y42350000D03*
X48960000Y41250000D03*
X49510000Y42900000D03*
X49510000Y41800000D03*
X49510000Y40700000D03*
X50060000Y42350000D03*
X50060000Y41250000D03*
%TD*%
D15*
%TO.N,/GND*%
%TO.C,J2*%
X51680000Y6105000D03*
D16*
X51680000Y1925000D03*
D15*
X60320000Y6105000D03*
D16*
X60320000Y1925000D03*
%TD*%
D17*
%TO.N,/VPWR*%
X44262900Y24104300D03*
X8250000Y27850000D03*
X22500000Y28000000D03*
X25500000Y29500000D03*
X8550000Y36525000D03*
X29549000Y23850000D03*
X58206100Y46684700D03*
%TO.N,/USB_5V*%
X29900000Y29500000D03*
X58400000Y8180000D03*
X51525000Y12175000D03*
X58525000Y9625000D03*
X56500000Y8600000D03*
X49300000Y11350000D03*
X46425000Y12175000D03*
X53600000Y8180000D03*
%TO.N,/GND*%
X2000000Y18000000D03*
X37000000Y18000000D03*
X37550000Y47800000D03*
X14500000Y15700000D03*
X26125000Y34500000D03*
X7000000Y43000000D03*
X60925000Y46025000D03*
X37000000Y23000000D03*
X31799999Y40500000D03*
X49000000Y23000000D03*
X44000000Y48000000D03*
X60260660Y7740661D03*
X63000000Y3000000D03*
X7000000Y18000000D03*
X37000000Y28000000D03*
X56500000Y13400000D03*
X16125000Y40755000D03*
X60000000Y23000000D03*
X49000000Y33000000D03*
X44000000Y3000000D03*
X51525000Y13825000D03*
X32000000Y23000000D03*
X57300000Y2300000D03*
X37000000Y3000000D03*
X63525000Y42400000D03*
X44000000Y18000000D03*
X13600000Y41320000D03*
X37175000Y30000000D03*
X16335000Y26050000D03*
X32000000Y48000000D03*
X2000000Y13000000D03*
X60000000Y13000000D03*
X7000000Y13000000D03*
X63000000Y18000000D03*
X8550000Y39475000D03*
X59200000Y7855001D03*
X2000000Y23000000D03*
X2000000Y33000000D03*
X60000000Y28000000D03*
X32000000Y3000000D03*
X51739339Y7740661D03*
X7000000Y48000000D03*
X8250000Y32150000D03*
X55750000Y2300000D03*
X58000000Y4200000D03*
X2000000Y43000000D03*
X32000000Y13000000D03*
X32000000Y33000000D03*
X49000000Y48000000D03*
X37400000Y22100000D03*
X7000000Y33000000D03*
X37825000Y45500000D03*
X60000000Y33000000D03*
X46425000Y10825000D03*
X37000000Y13000000D03*
X49625000Y7000000D03*
X31799999Y44500000D03*
X44000000Y43000000D03*
X60000000Y18000000D03*
X49000000Y18000000D03*
X7000000Y28000000D03*
X27025000Y37000000D03*
X17300000Y41400000D03*
X49000000Y3000000D03*
X58525000Y11175000D03*
X44000000Y28000000D03*
X63825000Y12500000D03*
X54000000Y3400000D03*
X37000000Y33000000D03*
X2000000Y48000000D03*
X52800000Y7855001D03*
X37825000Y40900000D03*
X26400000Y22100000D03*
X44000000Y33000000D03*
X63000000Y48000000D03*
X8975000Y19500000D03*
X2000000Y28000000D03*
X44000000Y13000000D03*
X7000000Y3000000D03*
X7000000Y23000000D03*
X2000000Y3000000D03*
X31799999Y36500000D03*
X49000000Y28000000D03*
X13990000Y28275000D03*
X49300000Y14650000D03*
X32000000Y18000000D03*
X49000000Y13000000D03*
%TO.N,/3V3*%
X34175000Y45500000D03*
X28849999Y44500000D03*
X15065000Y22900000D03*
X13795000Y21100000D03*
X34175000Y38500000D03*
X34175000Y36000000D03*
X40600000Y48000000D03*
X33449999Y47800000D03*
X12625000Y19500000D03*
X28849999Y40500000D03*
X13990000Y26725000D03*
X18674999Y21000000D03*
X28849999Y36500000D03*
X60075000Y44175000D03*
X34175000Y43200000D03*
%TO.N,/CC2*%
X58283100Y13013100D03*
X57782500Y5400000D03*
%TO.N,/CAR_12V*%
X24000000Y14500000D03*
%TO.N,/STATUS_LED*%
X37685600Y39850000D03*
X32709200Y29773500D03*
%TO.N,/USB_CONN_P*%
X55650000Y4200000D03*
X57050000Y4200000D03*
%TO.N,/ESP_EN*%
X36825000Y42025000D03*
X40400000Y46500000D03*
%TO.N,/CAN_TX*%
X41814800Y45393800D03*
X33010000Y27314500D03*
%TO.N,/CAN_RX*%
X37702200Y44450000D03*
X25207300Y30500000D03*
%TO.N,/USB_CONN_N*%
X56350000Y3400000D03*
X54950000Y3400000D03*
%TD*%
%TA.AperFunction,Conductor*%
%TO.N,/3V3*%
G36*
X60978326Y48778326D02*
G01*
X61000000Y48726000D01*
X61000000Y46674500D01*
X60978326Y46622174D01*
X60926000Y46600500D01*
X60849232Y46600500D01*
X60702869Y46561283D01*
X60702860Y46561279D01*
X60571637Y46485517D01*
X60464483Y46378363D01*
X60388721Y46247140D01*
X60388717Y46247131D01*
X60349500Y46100769D01*
X60349500Y45949232D01*
X60388717Y45802870D01*
X60388721Y45802861D01*
X60435331Y45722131D01*
X60464485Y45671635D01*
X60571635Y45564485D01*
X60702865Y45488719D01*
X60849231Y45449501D01*
X60849232Y45449500D01*
X60926000Y45449500D01*
X60978326Y45427826D01*
X61000000Y45375500D01*
X61000000Y43874000D01*
X60978326Y43821674D01*
X60926000Y43800000D01*
X51000000Y43800000D01*
X51000000Y18074000D01*
X50978326Y18021674D01*
X50926000Y18000000D01*
X49649500Y18000000D01*
X49597174Y18021674D01*
X49576727Y18071038D01*
X49576133Y18070959D01*
X49575841Y18073177D01*
X49575500Y18074000D01*
X49575500Y18075768D01*
X49575499Y18075769D01*
X49564158Y18118093D01*
X49536281Y18222135D01*
X49460515Y18353365D01*
X49353365Y18460515D01*
X49353362Y18460517D01*
X49222139Y18536279D01*
X49222130Y18536283D01*
X49075768Y18575500D01*
X49075766Y18575500D01*
X48924234Y18575500D01*
X48924232Y18575500D01*
X48777869Y18536283D01*
X48777860Y18536279D01*
X48646637Y18460517D01*
X48539483Y18353363D01*
X48463721Y18222140D01*
X48463717Y18222131D01*
X48424500Y18075769D01*
X48424500Y18074000D01*
X48424158Y18073177D01*
X48423867Y18070959D01*
X48423272Y18071038D01*
X48402826Y18021674D01*
X48350500Y18000000D01*
X47574500Y18000000D01*
X47522174Y18021674D01*
X47500500Y18074000D01*
X47500500Y18118093D01*
X47484021Y18222135D01*
X47463553Y18351368D01*
X47463551Y18351373D01*
X47463550Y18351379D01*
X47390570Y18575987D01*
X47390568Y18575990D01*
X47390568Y18575992D01*
X47283343Y18786433D01*
X47144517Y18977510D01*
X46977510Y19144517D01*
X46977507Y19144520D01*
X46977505Y19144521D01*
X46786432Y19283344D01*
X46575986Y19390571D01*
X46351378Y19463551D01*
X46351365Y19463554D01*
X46118093Y19500500D01*
X46118092Y19500500D01*
X45881908Y19500500D01*
X45881907Y19500500D01*
X45648634Y19463554D01*
X45648621Y19463551D01*
X45424013Y19390571D01*
X45213567Y19283344D01*
X45022494Y19144521D01*
X44855479Y18977506D01*
X44716656Y18786433D01*
X44609430Y18575988D01*
X44555630Y18410411D01*
X44518847Y18367344D01*
X44462384Y18362901D01*
X44432928Y18380952D01*
X44353365Y18460515D01*
X44353362Y18460517D01*
X44222139Y18536279D01*
X44222130Y18536283D01*
X44075768Y18575500D01*
X44075766Y18575500D01*
X43924234Y18575500D01*
X43924232Y18575500D01*
X43777869Y18536283D01*
X43777860Y18536279D01*
X43646637Y18460517D01*
X43539483Y18353363D01*
X43463721Y18222140D01*
X43463717Y18222131D01*
X43424500Y18075769D01*
X43424500Y18074000D01*
X43424158Y18073177D01*
X43423867Y18070959D01*
X43423272Y18071038D01*
X43402826Y18021674D01*
X43350500Y18000000D01*
X37649500Y18000000D01*
X37597174Y18021674D01*
X37576727Y18071038D01*
X37576133Y18070959D01*
X37575841Y18073177D01*
X37575500Y18074000D01*
X37575500Y18075768D01*
X37575499Y18075769D01*
X37564158Y18118093D01*
X37536281Y18222135D01*
X37460515Y18353365D01*
X37353365Y18460515D01*
X37353362Y18460517D01*
X37222139Y18536279D01*
X37222130Y18536283D01*
X37075768Y18575500D01*
X37075766Y18575500D01*
X36924234Y18575500D01*
X36924232Y18575500D01*
X36777869Y18536283D01*
X36777860Y18536279D01*
X36646637Y18460517D01*
X36539483Y18353363D01*
X36463721Y18222140D01*
X36463717Y18222131D01*
X36424500Y18075769D01*
X36424500Y18074000D01*
X36424158Y18073177D01*
X36423867Y18070959D01*
X36423272Y18071038D01*
X36402826Y18021674D01*
X36350500Y18000000D01*
X32649500Y18000000D01*
X32597174Y18021674D01*
X32576727Y18071038D01*
X32576133Y18070959D01*
X32575841Y18073177D01*
X32575500Y18074000D01*
X32575500Y18075768D01*
X32575499Y18075769D01*
X32564158Y18118093D01*
X32536281Y18222135D01*
X32460515Y18353365D01*
X32353365Y18460515D01*
X32353362Y18460517D01*
X32222139Y18536279D01*
X32222130Y18536283D01*
X32075768Y18575500D01*
X32075766Y18575500D01*
X31924234Y18575500D01*
X31924232Y18575500D01*
X31777869Y18536283D01*
X31777860Y18536279D01*
X31646637Y18460517D01*
X31539483Y18353363D01*
X31463721Y18222140D01*
X31463717Y18222131D01*
X31424500Y18075769D01*
X31424500Y18074000D01*
X31424158Y18073177D01*
X31423867Y18070959D01*
X31423272Y18071038D01*
X31402826Y18021674D01*
X31350500Y18000000D01*
X8074000Y18000000D01*
X8021674Y18021674D01*
X8000000Y18074000D01*
X8000000Y19575769D01*
X8399500Y19575769D01*
X8399500Y19424232D01*
X8438717Y19277870D01*
X8438718Y19277867D01*
X8438719Y19277865D01*
X8514485Y19146635D01*
X8621635Y19039485D01*
X8752865Y18963719D01*
X8899231Y18924501D01*
X8899232Y18924500D01*
X8899234Y18924500D01*
X9050768Y18924500D01*
X9050768Y18924501D01*
X9197135Y18963719D01*
X9328365Y19039485D01*
X9435515Y19146635D01*
X9511281Y19277865D01*
X9550499Y19424232D01*
X9550500Y19424232D01*
X9550500Y19575768D01*
X9550499Y19575769D01*
X9511282Y19722131D01*
X9511281Y19722135D01*
X9435515Y19853365D01*
X9328365Y19960515D01*
X9328362Y19960517D01*
X9197139Y20036279D01*
X9197130Y20036283D01*
X9050768Y20075500D01*
X9050766Y20075500D01*
X8899234Y20075500D01*
X8899232Y20075500D01*
X8752869Y20036283D01*
X8752860Y20036279D01*
X8621637Y19960517D01*
X8514483Y19853363D01*
X8438721Y19722140D01*
X8438717Y19722131D01*
X8399500Y19575769D01*
X8000000Y19575769D01*
X8000000Y22175769D01*
X25824500Y22175769D01*
X25824500Y22024232D01*
X25863717Y21877870D01*
X25863718Y21877867D01*
X25863719Y21877865D01*
X25939485Y21746635D01*
X26046635Y21639485D01*
X26177865Y21563719D01*
X26324231Y21524501D01*
X26324232Y21524500D01*
X26324234Y21524500D01*
X26475768Y21524500D01*
X26475768Y21524501D01*
X26622135Y21563719D01*
X26753365Y21639485D01*
X26860515Y21746635D01*
X26936281Y21877865D01*
X26975499Y22024232D01*
X26975500Y22024232D01*
X26975500Y22175768D01*
X26975499Y22175769D01*
X26936282Y22322131D01*
X26936281Y22322135D01*
X26860515Y22453365D01*
X26753365Y22560515D01*
X26753362Y22560517D01*
X26622139Y22636279D01*
X26622130Y22636283D01*
X26475768Y22675500D01*
X26475766Y22675500D01*
X26324234Y22675500D01*
X26324232Y22675500D01*
X26177869Y22636283D01*
X26177860Y22636279D01*
X26046637Y22560517D01*
X25939483Y22453363D01*
X25863721Y22322140D01*
X25863717Y22322131D01*
X25824500Y22175769D01*
X8000000Y22175769D01*
X8000000Y23075769D01*
X31424500Y23075769D01*
X31424500Y22924232D01*
X31463717Y22777870D01*
X31463721Y22777861D01*
X31523009Y22675172D01*
X31539485Y22646635D01*
X31646635Y22539485D01*
X31777865Y22463719D01*
X31924231Y22424501D01*
X31924232Y22424500D01*
X31924234Y22424500D01*
X32075768Y22424500D01*
X32075768Y22424501D01*
X32222135Y22463719D01*
X32353365Y22539485D01*
X32460515Y22646635D01*
X32536281Y22777865D01*
X32575499Y22924232D01*
X32575500Y22924232D01*
X32575500Y23075768D01*
X32575499Y23075769D01*
X36424500Y23075769D01*
X36424500Y22924232D01*
X36463717Y22777870D01*
X36463721Y22777861D01*
X36523009Y22675172D01*
X36539485Y22646635D01*
X36646635Y22539485D01*
X36777865Y22463719D01*
X36829857Y22449789D01*
X36874789Y22415310D01*
X36882182Y22359157D01*
X36874790Y22341312D01*
X36863720Y22322139D01*
X36863717Y22322131D01*
X36824500Y22175769D01*
X36824500Y22024232D01*
X36863717Y21877870D01*
X36863718Y21877867D01*
X36863719Y21877865D01*
X36939485Y21746635D01*
X37046635Y21639485D01*
X37177865Y21563719D01*
X37324231Y21524501D01*
X37324232Y21524500D01*
X37324234Y21524500D01*
X37475768Y21524500D01*
X37475768Y21524501D01*
X37622135Y21563719D01*
X37753365Y21639485D01*
X37860515Y21746635D01*
X37936281Y21877865D01*
X37975499Y22024232D01*
X37975500Y22024232D01*
X37975500Y22175768D01*
X37975499Y22175769D01*
X37936282Y22322131D01*
X37936281Y22322135D01*
X37860515Y22453365D01*
X37753365Y22560515D01*
X37753362Y22560517D01*
X37622139Y22636279D01*
X37622130Y22636283D01*
X37570143Y22650213D01*
X37525210Y22684692D01*
X37517818Y22740844D01*
X37525208Y22758688D01*
X37536281Y22777865D01*
X37575500Y22924234D01*
X37575500Y23075766D01*
X37575500Y23075768D01*
X37575499Y23075769D01*
X48424500Y23075769D01*
X48424500Y22924232D01*
X48463717Y22777870D01*
X48463721Y22777861D01*
X48523009Y22675172D01*
X48539485Y22646635D01*
X48646635Y22539485D01*
X48777865Y22463719D01*
X48924231Y22424501D01*
X48924232Y22424500D01*
X48924234Y22424500D01*
X49075768Y22424500D01*
X49075768Y22424501D01*
X49222135Y22463719D01*
X49353365Y22539485D01*
X49460515Y22646635D01*
X49536281Y22777865D01*
X49575499Y22924232D01*
X49575500Y22924232D01*
X49575500Y23075768D01*
X49575499Y23075769D01*
X49536282Y23222131D01*
X49536281Y23222135D01*
X49460515Y23353365D01*
X49353365Y23460515D01*
X49290804Y23496635D01*
X49222139Y23536279D01*
X49222130Y23536283D01*
X49075768Y23575500D01*
X49075766Y23575500D01*
X48924234Y23575500D01*
X48924232Y23575500D01*
X48777869Y23536283D01*
X48777860Y23536279D01*
X48646637Y23460517D01*
X48539483Y23353363D01*
X48463721Y23222140D01*
X48463717Y23222131D01*
X48424500Y23075769D01*
X37575499Y23075769D01*
X37536282Y23222131D01*
X37536281Y23222135D01*
X37460515Y23353365D01*
X37353365Y23460515D01*
X37290804Y23496635D01*
X37222139Y23536279D01*
X37222130Y23536283D01*
X37075768Y23575500D01*
X37075766Y23575500D01*
X36924234Y23575500D01*
X36924232Y23575500D01*
X36777869Y23536283D01*
X36777860Y23536279D01*
X36646637Y23460517D01*
X36539483Y23353363D01*
X36463721Y23222140D01*
X36463717Y23222131D01*
X36424500Y23075769D01*
X32575499Y23075769D01*
X32536282Y23222131D01*
X32536281Y23222135D01*
X32460515Y23353365D01*
X32353365Y23460515D01*
X32290804Y23496635D01*
X32222139Y23536279D01*
X32222130Y23536283D01*
X32075768Y23575500D01*
X32075766Y23575500D01*
X31924234Y23575500D01*
X31924232Y23575500D01*
X31777869Y23536283D01*
X31777860Y23536279D01*
X31646637Y23460517D01*
X31539483Y23353363D01*
X31463721Y23222140D01*
X31463717Y23222131D01*
X31424500Y23075769D01*
X8000000Y23075769D01*
X8000000Y23925769D01*
X28973500Y23925769D01*
X28973500Y23774232D01*
X29012717Y23627870D01*
X29012721Y23627861D01*
X29047271Y23568019D01*
X29088485Y23496635D01*
X29195635Y23389485D01*
X29326865Y23313719D01*
X29473231Y23274501D01*
X29473232Y23274500D01*
X29473234Y23274500D01*
X29624768Y23274500D01*
X29624768Y23274501D01*
X29771135Y23313719D01*
X29902365Y23389485D01*
X30009515Y23496635D01*
X30085281Y23627865D01*
X30124499Y23774232D01*
X30124500Y23774232D01*
X30124500Y23925768D01*
X30124499Y23925769D01*
X30085282Y24072131D01*
X30085281Y24072135D01*
X30022965Y24180069D01*
X43687400Y24180069D01*
X43687400Y24028532D01*
X43726617Y23882170D01*
X43726618Y23882167D01*
X43726619Y23882165D01*
X43802385Y23750935D01*
X43909535Y23643785D01*
X44040765Y23568019D01*
X44187131Y23528801D01*
X44187132Y23528800D01*
X44187134Y23528800D01*
X44338668Y23528800D01*
X44338668Y23528801D01*
X44485035Y23568019D01*
X44616265Y23643785D01*
X44723415Y23750935D01*
X44799181Y23882165D01*
X44838399Y24028532D01*
X44838400Y24028532D01*
X44838400Y24180068D01*
X44838399Y24180069D01*
X44832157Y24203363D01*
X44799181Y24326435D01*
X44723415Y24457665D01*
X44616265Y24564815D01*
X44616262Y24564817D01*
X44485039Y24640579D01*
X44485030Y24640583D01*
X44338668Y24679800D01*
X44338666Y24679800D01*
X44187134Y24679800D01*
X44187132Y24679800D01*
X44040769Y24640583D01*
X44040760Y24640579D01*
X43909537Y24564817D01*
X43802383Y24457663D01*
X43726621Y24326440D01*
X43726617Y24326431D01*
X43687400Y24180069D01*
X30022965Y24180069D01*
X30009515Y24203365D01*
X29902365Y24310515D01*
X29874791Y24326435D01*
X29771139Y24386279D01*
X29771130Y24386283D01*
X29624768Y24425500D01*
X29624766Y24425500D01*
X29473234Y24425500D01*
X29473232Y24425500D01*
X29326869Y24386283D01*
X29326860Y24386279D01*
X29195637Y24310517D01*
X29088483Y24203363D01*
X29012721Y24072140D01*
X29012717Y24072131D01*
X28973500Y23925769D01*
X8000000Y23925769D01*
X8000000Y26125769D01*
X15759500Y26125769D01*
X15759500Y25974232D01*
X15798717Y25827870D01*
X15798718Y25827867D01*
X15798719Y25827865D01*
X15874485Y25696635D01*
X15981635Y25589485D01*
X16112865Y25513719D01*
X16259231Y25474501D01*
X16259232Y25474500D01*
X16259234Y25474500D01*
X16410768Y25474500D01*
X16410768Y25474501D01*
X16557135Y25513719D01*
X16688365Y25589485D01*
X16795515Y25696635D01*
X16871281Y25827865D01*
X16910499Y25974232D01*
X16910500Y25974232D01*
X16910500Y26125768D01*
X16910499Y26125769D01*
X16871282Y26272131D01*
X16871281Y26272135D01*
X16795515Y26403365D01*
X16688365Y26510515D01*
X16688362Y26510517D01*
X16557139Y26586279D01*
X16557130Y26586283D01*
X16410768Y26625500D01*
X16410766Y26625500D01*
X16259234Y26625500D01*
X16259232Y26625500D01*
X16112869Y26586283D01*
X16112860Y26586279D01*
X15981637Y26510517D01*
X15874483Y26403363D01*
X15798721Y26272140D01*
X15798717Y26272131D01*
X15759500Y26125769D01*
X8000000Y26125769D01*
X8000000Y27224748D01*
X8021674Y27277074D01*
X8074000Y27298748D01*
X8093148Y27296227D01*
X8174231Y27274501D01*
X8174232Y27274500D01*
X8174234Y27274500D01*
X8325768Y27274500D01*
X8325768Y27274501D01*
X8472135Y27313719D01*
X8603365Y27389485D01*
X8604149Y27390269D01*
X32434500Y27390269D01*
X32434500Y27238732D01*
X32473717Y27092370D01*
X32473718Y27092367D01*
X32473719Y27092365D01*
X32549485Y26961135D01*
X32656635Y26853985D01*
X32787865Y26778219D01*
X32934231Y26739001D01*
X32934232Y26739000D01*
X32934234Y26739000D01*
X33085768Y26739000D01*
X33085768Y26739001D01*
X33232135Y26778219D01*
X33363365Y26853985D01*
X33470515Y26961135D01*
X33546281Y27092365D01*
X33585499Y27238732D01*
X33585500Y27238732D01*
X33585500Y27390268D01*
X33585499Y27390269D01*
X33565818Y27463719D01*
X33546281Y27536635D01*
X33470515Y27667865D01*
X33363365Y27775015D01*
X33295003Y27814484D01*
X33232139Y27850779D01*
X33232130Y27850783D01*
X33085768Y27890000D01*
X33085766Y27890000D01*
X32934234Y27890000D01*
X32934232Y27890000D01*
X32787869Y27850783D01*
X32787860Y27850779D01*
X32656637Y27775017D01*
X32549483Y27667863D01*
X32473721Y27536640D01*
X32473717Y27536631D01*
X32434500Y27390269D01*
X8604149Y27390269D01*
X8710515Y27496635D01*
X8786281Y27627865D01*
X8825499Y27774232D01*
X8825500Y27774232D01*
X8825500Y27925768D01*
X8825499Y27925769D01*
X8786282Y28072131D01*
X8786281Y28072135D01*
X8710515Y28203365D01*
X8603365Y28310515D01*
X8533649Y28350766D01*
X8533644Y28350769D01*
X13414500Y28350769D01*
X13414500Y28199232D01*
X13453717Y28052870D01*
X13453721Y28052861D01*
X13529483Y27921638D01*
X13529485Y27921635D01*
X13636635Y27814485D01*
X13767865Y27738719D01*
X13914231Y27699501D01*
X13914232Y27699500D01*
X13914234Y27699500D01*
X14065768Y27699500D01*
X14065768Y27699501D01*
X14212135Y27738719D01*
X14343365Y27814485D01*
X14450515Y27921635D01*
X14526281Y28052865D01*
X14532418Y28075769D01*
X21924500Y28075769D01*
X21924500Y27924232D01*
X21963717Y27777870D01*
X21963721Y27777861D01*
X22008963Y27699500D01*
X22039485Y27646635D01*
X22146635Y27539485D01*
X22277865Y27463719D01*
X22424231Y27424501D01*
X22424232Y27424500D01*
X22424234Y27424500D01*
X22575768Y27424500D01*
X22575768Y27424501D01*
X22722135Y27463719D01*
X22853365Y27539485D01*
X22960515Y27646635D01*
X23036281Y27777865D01*
X23075499Y27924232D01*
X23075500Y27924232D01*
X23075500Y28075768D01*
X23075499Y28075769D01*
X36424500Y28075769D01*
X36424500Y27924232D01*
X36463717Y27777870D01*
X36463721Y27777861D01*
X36508963Y27699500D01*
X36539485Y27646635D01*
X36646635Y27539485D01*
X36777865Y27463719D01*
X36924231Y27424501D01*
X36924232Y27424500D01*
X36924234Y27424500D01*
X37075768Y27424500D01*
X37075768Y27424501D01*
X37222135Y27463719D01*
X37353365Y27539485D01*
X37460515Y27646635D01*
X37536281Y27777865D01*
X37575499Y27924232D01*
X37575500Y27924232D01*
X37575500Y28075768D01*
X37575499Y28075769D01*
X43424500Y28075769D01*
X43424500Y27924232D01*
X43463717Y27777870D01*
X43463721Y27777861D01*
X43508963Y27699500D01*
X43539485Y27646635D01*
X43646635Y27539485D01*
X43777865Y27463719D01*
X43924231Y27424501D01*
X43924232Y27424500D01*
X43924234Y27424500D01*
X44075768Y27424500D01*
X44075768Y27424501D01*
X44222135Y27463719D01*
X44353365Y27539485D01*
X44460515Y27646635D01*
X44536281Y27777865D01*
X44575499Y27924232D01*
X44575500Y27924232D01*
X44575500Y28075768D01*
X44575499Y28075769D01*
X48424500Y28075769D01*
X48424500Y27924232D01*
X48463717Y27777870D01*
X48463721Y27777861D01*
X48508963Y27699500D01*
X48539485Y27646635D01*
X48646635Y27539485D01*
X48777865Y27463719D01*
X48924231Y27424501D01*
X48924232Y27424500D01*
X48924234Y27424500D01*
X49075768Y27424500D01*
X49075768Y27424501D01*
X49222135Y27463719D01*
X49353365Y27539485D01*
X49460515Y27646635D01*
X49536281Y27777865D01*
X49575499Y27924232D01*
X49575500Y27924232D01*
X49575500Y28075768D01*
X49575499Y28075769D01*
X49536282Y28222131D01*
X49536281Y28222135D01*
X49460515Y28353365D01*
X49353365Y28460515D01*
X49353362Y28460517D01*
X49222139Y28536279D01*
X49222130Y28536283D01*
X49075768Y28575500D01*
X49075766Y28575500D01*
X48924234Y28575500D01*
X48924232Y28575500D01*
X48777869Y28536283D01*
X48777860Y28536279D01*
X48646637Y28460517D01*
X48539483Y28353363D01*
X48463721Y28222140D01*
X48463717Y28222131D01*
X48424500Y28075769D01*
X44575499Y28075769D01*
X44536282Y28222131D01*
X44536281Y28222135D01*
X44460515Y28353365D01*
X44353365Y28460515D01*
X44353362Y28460517D01*
X44222139Y28536279D01*
X44222130Y28536283D01*
X44075768Y28575500D01*
X44075766Y28575500D01*
X43924234Y28575500D01*
X43924232Y28575500D01*
X43777869Y28536283D01*
X43777860Y28536279D01*
X43646637Y28460517D01*
X43539483Y28353363D01*
X43463721Y28222140D01*
X43463717Y28222131D01*
X43424500Y28075769D01*
X37575499Y28075769D01*
X37536282Y28222131D01*
X37536281Y28222135D01*
X37460515Y28353365D01*
X37353365Y28460515D01*
X37353362Y28460517D01*
X37222139Y28536279D01*
X37222130Y28536283D01*
X37075768Y28575500D01*
X37075766Y28575500D01*
X36924234Y28575500D01*
X36924232Y28575500D01*
X36777869Y28536283D01*
X36777860Y28536279D01*
X36646637Y28460517D01*
X36539483Y28353363D01*
X36463721Y28222140D01*
X36463717Y28222131D01*
X36424500Y28075769D01*
X23075499Y28075769D01*
X23036282Y28222131D01*
X23036281Y28222135D01*
X22960515Y28353365D01*
X22853365Y28460515D01*
X22853362Y28460517D01*
X22722139Y28536279D01*
X22722130Y28536283D01*
X22575768Y28575500D01*
X22575766Y28575500D01*
X22424234Y28575500D01*
X22424232Y28575500D01*
X22277869Y28536283D01*
X22277860Y28536279D01*
X22146637Y28460517D01*
X22039483Y28353363D01*
X21963721Y28222140D01*
X21963717Y28222131D01*
X21924500Y28075769D01*
X14532418Y28075769D01*
X14565499Y28199232D01*
X14565500Y28199232D01*
X14565500Y28350768D01*
X14565499Y28350769D01*
X14564803Y28353365D01*
X14526281Y28497135D01*
X14450515Y28628365D01*
X14343365Y28735515D01*
X14343362Y28735517D01*
X14212139Y28811279D01*
X14212130Y28811283D01*
X14065768Y28850500D01*
X14065766Y28850500D01*
X13914234Y28850500D01*
X13914232Y28850500D01*
X13767869Y28811283D01*
X13767860Y28811279D01*
X13636637Y28735517D01*
X13529483Y28628363D01*
X13453721Y28497140D01*
X13453717Y28497131D01*
X13414500Y28350769D01*
X8533644Y28350769D01*
X8472139Y28386279D01*
X8472130Y28386283D01*
X8325768Y28425500D01*
X8325766Y28425500D01*
X8174234Y28425500D01*
X8174232Y28425500D01*
X8093153Y28403775D01*
X8037000Y28411167D01*
X8002522Y28456100D01*
X8000000Y28475253D01*
X8000000Y30575769D01*
X24631800Y30575769D01*
X24631800Y30424232D01*
X24671017Y30277870D01*
X24671021Y30277861D01*
X24696336Y30234015D01*
X24746785Y30146635D01*
X24853935Y30039485D01*
X24985165Y29963719D01*
X24994230Y29961291D01*
X25039163Y29926814D01*
X25046558Y29870662D01*
X25039165Y29852812D01*
X24963721Y29722140D01*
X24963717Y29722131D01*
X24924500Y29575769D01*
X24924500Y29424232D01*
X24963717Y29277870D01*
X24963721Y29277861D01*
X25009829Y29198000D01*
X25039485Y29146635D01*
X25146635Y29039485D01*
X25277865Y28963719D01*
X25424231Y28924501D01*
X25424232Y28924500D01*
X25424234Y28924500D01*
X25575768Y28924500D01*
X25575768Y28924501D01*
X25722135Y28963719D01*
X25853365Y29039485D01*
X25960515Y29146635D01*
X26036281Y29277865D01*
X26075499Y29424232D01*
X26075500Y29424232D01*
X26075500Y29575768D01*
X26075499Y29575769D01*
X29324500Y29575769D01*
X29324500Y29424232D01*
X29363717Y29277870D01*
X29363721Y29277861D01*
X29409829Y29198000D01*
X29439485Y29146635D01*
X29546635Y29039485D01*
X29677865Y28963719D01*
X29824231Y28924501D01*
X29824232Y28924500D01*
X29824234Y28924500D01*
X29975768Y28924500D01*
X29975768Y28924501D01*
X30122135Y28963719D01*
X30253365Y29039485D01*
X30360515Y29146635D01*
X30436281Y29277865D01*
X30475499Y29424232D01*
X30475500Y29424232D01*
X30475500Y29575768D01*
X30475499Y29575769D01*
X30436282Y29722131D01*
X30436281Y29722135D01*
X30362880Y29849269D01*
X32133700Y29849269D01*
X32133700Y29697732D01*
X32172917Y29551370D01*
X32172921Y29551361D01*
X32248683Y29420138D01*
X32248685Y29420135D01*
X32355835Y29312985D01*
X32487065Y29237219D01*
X32633431Y29198001D01*
X32633432Y29198000D01*
X32633434Y29198000D01*
X32784968Y29198000D01*
X32784968Y29198001D01*
X32931335Y29237219D01*
X33062565Y29312985D01*
X33169715Y29420135D01*
X33245481Y29551365D01*
X33284699Y29697732D01*
X33284700Y29697732D01*
X33284700Y29849268D01*
X33284699Y29849269D01*
X33283601Y29853365D01*
X33245481Y29995635D01*
X33199215Y30075769D01*
X36599500Y30075769D01*
X36599500Y29924232D01*
X36638717Y29777870D01*
X36638721Y29777861D01*
X36670895Y29722135D01*
X36714485Y29646635D01*
X36821635Y29539485D01*
X36952865Y29463719D01*
X37099231Y29424501D01*
X37099232Y29424500D01*
X37099234Y29424500D01*
X37250768Y29424500D01*
X37250768Y29424501D01*
X37397135Y29463719D01*
X37528365Y29539485D01*
X37635515Y29646635D01*
X37711281Y29777865D01*
X37750499Y29924232D01*
X37750500Y29924232D01*
X37750500Y30075768D01*
X37750499Y30075769D01*
X37736144Y30129342D01*
X37711281Y30222135D01*
X37635515Y30353365D01*
X37528365Y30460515D01*
X37528362Y30460517D01*
X37397139Y30536279D01*
X37397130Y30536283D01*
X37250768Y30575500D01*
X37250766Y30575500D01*
X37099234Y30575500D01*
X37099232Y30575500D01*
X36952869Y30536283D01*
X36952860Y30536279D01*
X36821637Y30460517D01*
X36714483Y30353363D01*
X36638721Y30222140D01*
X36638717Y30222131D01*
X36599500Y30075769D01*
X33199215Y30075769D01*
X33169715Y30126865D01*
X33062565Y30234015D01*
X32986615Y30277865D01*
X32931339Y30309779D01*
X32931330Y30309783D01*
X32784968Y30349000D01*
X32784966Y30349000D01*
X32633434Y30349000D01*
X32633432Y30349000D01*
X32487069Y30309783D01*
X32487060Y30309779D01*
X32355837Y30234017D01*
X32248683Y30126863D01*
X32172921Y29995640D01*
X32172917Y29995631D01*
X32133700Y29849269D01*
X30362880Y29849269D01*
X30360515Y29853365D01*
X30253365Y29960515D01*
X30247816Y29963719D01*
X30122139Y30036279D01*
X30122130Y30036283D01*
X29975768Y30075500D01*
X29975766Y30075500D01*
X29824234Y30075500D01*
X29824232Y30075500D01*
X29677869Y30036283D01*
X29677860Y30036279D01*
X29546637Y29960517D01*
X29439483Y29853363D01*
X29363721Y29722140D01*
X29363717Y29722131D01*
X29324500Y29575769D01*
X26075499Y29575769D01*
X26036282Y29722131D01*
X26036281Y29722135D01*
X25960515Y29853365D01*
X25853365Y29960515D01*
X25847816Y29963719D01*
X25722136Y30036281D01*
X25722131Y30036283D01*
X25713068Y30038711D01*
X25668135Y30073190D01*
X25660743Y30129342D01*
X25668135Y30147189D01*
X25681344Y30170069D01*
X25743581Y30277865D01*
X25782799Y30424232D01*
X25782800Y30424232D01*
X25782800Y30575768D01*
X25782799Y30575769D01*
X25743582Y30722131D01*
X25743581Y30722135D01*
X25667815Y30853365D01*
X25560665Y30960515D01*
X25560662Y30960517D01*
X25429439Y31036279D01*
X25429430Y31036283D01*
X25283068Y31075500D01*
X25283066Y31075500D01*
X25131534Y31075500D01*
X25131532Y31075500D01*
X24985169Y31036283D01*
X24985160Y31036279D01*
X24853937Y30960517D01*
X24746783Y30853363D01*
X24671021Y30722140D01*
X24671017Y30722131D01*
X24631800Y30575769D01*
X8000000Y30575769D01*
X8000000Y31524748D01*
X8021674Y31577074D01*
X8074000Y31598748D01*
X8093148Y31596227D01*
X8174231Y31574501D01*
X8174232Y31574500D01*
X8174234Y31574500D01*
X8325768Y31574500D01*
X8325768Y31574501D01*
X8472135Y31613719D01*
X8603365Y31689485D01*
X8710515Y31796635D01*
X8786281Y31927865D01*
X8790913Y31945153D01*
X8825390Y31990085D01*
X8862391Y32000000D01*
X20000000Y32000000D01*
X20000000Y33075769D01*
X31424500Y33075769D01*
X31424500Y32924232D01*
X31463717Y32777870D01*
X31463718Y32777867D01*
X31463719Y32777865D01*
X31539485Y32646635D01*
X31646635Y32539485D01*
X31777865Y32463719D01*
X31924231Y32424501D01*
X31924232Y32424500D01*
X31924234Y32424500D01*
X32075768Y32424500D01*
X32075768Y32424501D01*
X32222135Y32463719D01*
X32353365Y32539485D01*
X32460515Y32646635D01*
X32536281Y32777865D01*
X32575499Y32924232D01*
X32575500Y32924232D01*
X32575500Y33075768D01*
X32575499Y33075769D01*
X36424500Y33075769D01*
X36424500Y32924232D01*
X36463717Y32777870D01*
X36463718Y32777867D01*
X36463719Y32777865D01*
X36539485Y32646635D01*
X36646635Y32539485D01*
X36777865Y32463719D01*
X36924231Y32424501D01*
X36924232Y32424500D01*
X36924234Y32424500D01*
X37075768Y32424500D01*
X37075768Y32424501D01*
X37222135Y32463719D01*
X37353365Y32539485D01*
X37460515Y32646635D01*
X37536281Y32777865D01*
X37575499Y32924232D01*
X37575500Y32924232D01*
X37575500Y33075768D01*
X37575499Y33075769D01*
X43424500Y33075769D01*
X43424500Y32924232D01*
X43463717Y32777870D01*
X43463718Y32777867D01*
X43463719Y32777865D01*
X43539485Y32646635D01*
X43646635Y32539485D01*
X43777865Y32463719D01*
X43924231Y32424501D01*
X43924232Y32424500D01*
X43924234Y32424500D01*
X44075768Y32424500D01*
X44075768Y32424501D01*
X44222135Y32463719D01*
X44353365Y32539485D01*
X44460515Y32646635D01*
X44536281Y32777865D01*
X44575499Y32924232D01*
X44575500Y32924232D01*
X44575500Y33075768D01*
X44575499Y33075769D01*
X48424500Y33075769D01*
X48424500Y32924232D01*
X48463717Y32777870D01*
X48463718Y32777867D01*
X48463719Y32777865D01*
X48539485Y32646635D01*
X48646635Y32539485D01*
X48777865Y32463719D01*
X48924231Y32424501D01*
X48924232Y32424500D01*
X48924234Y32424500D01*
X49075768Y32424500D01*
X49075768Y32424501D01*
X49222135Y32463719D01*
X49353365Y32539485D01*
X49460515Y32646635D01*
X49536281Y32777865D01*
X49575499Y32924232D01*
X49575500Y32924232D01*
X49575500Y33075768D01*
X49575499Y33075769D01*
X49536282Y33222131D01*
X49536281Y33222135D01*
X49460515Y33353365D01*
X49353365Y33460515D01*
X49353362Y33460517D01*
X49222139Y33536279D01*
X49222130Y33536283D01*
X49075768Y33575500D01*
X49075766Y33575500D01*
X48924234Y33575500D01*
X48924232Y33575500D01*
X48777869Y33536283D01*
X48777860Y33536279D01*
X48646637Y33460517D01*
X48539483Y33353363D01*
X48463721Y33222140D01*
X48463717Y33222131D01*
X48424500Y33075769D01*
X44575499Y33075769D01*
X44536282Y33222131D01*
X44536281Y33222135D01*
X44460515Y33353365D01*
X44353365Y33460515D01*
X44353362Y33460517D01*
X44222139Y33536279D01*
X44222130Y33536283D01*
X44075768Y33575500D01*
X44075766Y33575500D01*
X43924234Y33575500D01*
X43924232Y33575500D01*
X43777869Y33536283D01*
X43777860Y33536279D01*
X43646637Y33460517D01*
X43539483Y33353363D01*
X43463721Y33222140D01*
X43463717Y33222131D01*
X43424500Y33075769D01*
X37575499Y33075769D01*
X37536282Y33222131D01*
X37536281Y33222135D01*
X37460515Y33353365D01*
X37353365Y33460515D01*
X37353362Y33460517D01*
X37222139Y33536279D01*
X37222130Y33536283D01*
X37075768Y33575500D01*
X37075766Y33575500D01*
X36924234Y33575500D01*
X36924232Y33575500D01*
X36777869Y33536283D01*
X36777860Y33536279D01*
X36646637Y33460517D01*
X36539483Y33353363D01*
X36463721Y33222140D01*
X36463717Y33222131D01*
X36424500Y33075769D01*
X32575499Y33075769D01*
X32536282Y33222131D01*
X32536281Y33222135D01*
X32460515Y33353365D01*
X32353365Y33460515D01*
X32353362Y33460517D01*
X32222139Y33536279D01*
X32222130Y33536283D01*
X32075768Y33575500D01*
X32075766Y33575500D01*
X31924234Y33575500D01*
X31924232Y33575500D01*
X31777869Y33536283D01*
X31777860Y33536279D01*
X31646637Y33460517D01*
X31539483Y33353363D01*
X31463721Y33222140D01*
X31463717Y33222131D01*
X31424500Y33075769D01*
X20000000Y33075769D01*
X20000000Y34575769D01*
X25549500Y34575769D01*
X25549500Y34424232D01*
X25588717Y34277870D01*
X25588718Y34277867D01*
X25588719Y34277865D01*
X25664485Y34146635D01*
X25771635Y34039485D01*
X25902865Y33963719D01*
X26049231Y33924501D01*
X26049232Y33924500D01*
X26049234Y33924500D01*
X26200768Y33924500D01*
X26200768Y33924501D01*
X26347135Y33963719D01*
X26478365Y34039485D01*
X26585515Y34146635D01*
X26661281Y34277865D01*
X26700499Y34424232D01*
X26700500Y34424232D01*
X26700500Y34575768D01*
X26700499Y34575769D01*
X26661282Y34722131D01*
X26661281Y34722135D01*
X26585515Y34853365D01*
X26478365Y34960515D01*
X26478362Y34960517D01*
X26347139Y35036279D01*
X26347130Y35036283D01*
X26200768Y35075500D01*
X26200766Y35075500D01*
X26049234Y35075500D01*
X26049232Y35075500D01*
X25902869Y35036283D01*
X25902860Y35036279D01*
X25771637Y34960517D01*
X25664483Y34853363D01*
X25588721Y34722140D01*
X25588717Y34722131D01*
X25549500Y34575769D01*
X20000000Y34575769D01*
X20000000Y36219610D01*
X20021674Y36271936D01*
X20052603Y36302865D01*
X20102513Y36352775D01*
X20176962Y36481725D01*
X20215499Y36625548D01*
X20215500Y36625548D01*
X20215500Y36774452D01*
X20215499Y36774453D01*
X20214583Y36777870D01*
X20176962Y36918275D01*
X20152574Y36960517D01*
X20108976Y37036032D01*
X20108974Y37036035D01*
X20102513Y37047225D01*
X20073969Y37075769D01*
X26449500Y37075769D01*
X26449500Y36924232D01*
X26488717Y36777870D01*
X26488721Y36777861D01*
X26506461Y36747135D01*
X26564485Y36646635D01*
X26671635Y36539485D01*
X26802865Y36463719D01*
X26949231Y36424501D01*
X26949232Y36424500D01*
X26949234Y36424500D01*
X27100768Y36424500D01*
X27100768Y36424501D01*
X27247135Y36463719D01*
X27378365Y36539485D01*
X27414649Y36575769D01*
X31224499Y36575769D01*
X31224499Y36424232D01*
X31263716Y36277870D01*
X31263720Y36277861D01*
X31324240Y36173038D01*
X31339484Y36146635D01*
X31446634Y36039485D01*
X31577864Y35963719D01*
X31724230Y35924501D01*
X31724231Y35924500D01*
X31724233Y35924500D01*
X31875767Y35924500D01*
X31875767Y35924501D01*
X32022134Y35963719D01*
X32153364Y36039485D01*
X32260514Y36146635D01*
X32336280Y36277865D01*
X32375498Y36424232D01*
X32375499Y36424232D01*
X32375499Y36575768D01*
X32375498Y36575769D01*
X32362159Y36625550D01*
X32336280Y36722135D01*
X32260514Y36853365D01*
X32153364Y36960515D01*
X32110063Y36985515D01*
X32022138Y37036279D01*
X32022129Y37036283D01*
X31875767Y37075500D01*
X31875765Y37075500D01*
X31724233Y37075500D01*
X31724231Y37075500D01*
X31577868Y37036283D01*
X31577859Y37036279D01*
X31446636Y36960517D01*
X31339482Y36853363D01*
X31263720Y36722140D01*
X31263716Y36722131D01*
X31224499Y36575769D01*
X27414649Y36575769D01*
X27485515Y36646635D01*
X27561281Y36777865D01*
X27600499Y36924232D01*
X27600500Y36924232D01*
X27600500Y37075768D01*
X27600499Y37075769D01*
X27593872Y37100500D01*
X27561281Y37222135D01*
X27485515Y37353365D01*
X27378365Y37460515D01*
X27276010Y37519610D01*
X27247139Y37536279D01*
X27247130Y37536283D01*
X27100768Y37575500D01*
X27100766Y37575500D01*
X26949234Y37575500D01*
X26949232Y37575500D01*
X26802869Y37536283D01*
X26802860Y37536279D01*
X26671637Y37460517D01*
X26564483Y37353363D01*
X26488721Y37222140D01*
X26488717Y37222131D01*
X26449500Y37075769D01*
X20073969Y37075769D01*
X20020992Y37128746D01*
X20020323Y37129451D01*
X20010495Y37155051D01*
X20000000Y37180390D01*
X20000000Y37519610D01*
X20021674Y37571936D01*
X20025238Y37575500D01*
X20102513Y37652775D01*
X20176962Y37781725D01*
X20215499Y37925548D01*
X20215500Y37925548D01*
X20215500Y38074452D01*
X20215499Y38074453D01*
X20176963Y38218272D01*
X20176961Y38218277D01*
X20102512Y38347226D01*
X20021674Y38428064D01*
X20000000Y38480390D01*
X20000000Y38819610D01*
X20021674Y38871936D01*
X20049238Y38899500D01*
X20102513Y38952775D01*
X20176962Y39081725D01*
X20215499Y39225548D01*
X20215500Y39225548D01*
X20215500Y39374452D01*
X20215499Y39374453D01*
X20211471Y39389484D01*
X20196231Y39446363D01*
X20176963Y39518272D01*
X20176961Y39518277D01*
X20157013Y39552828D01*
X20102513Y39647225D01*
X20021674Y39728064D01*
X20000000Y39780390D01*
X20000000Y40575769D01*
X31224499Y40575769D01*
X31224499Y40424232D01*
X31263716Y40277870D01*
X31263720Y40277861D01*
X31329621Y40163718D01*
X31339484Y40146635D01*
X31446634Y40039485D01*
X31577864Y39963719D01*
X31724230Y39924501D01*
X31724231Y39924500D01*
X31724233Y39924500D01*
X31875767Y39924500D01*
X31875767Y39924501D01*
X31880499Y39925769D01*
X37110100Y39925769D01*
X37110100Y39774232D01*
X37149317Y39627870D01*
X37149318Y39627867D01*
X37149319Y39627865D01*
X37225085Y39496635D01*
X37332235Y39389485D01*
X37463465Y39313719D01*
X37609831Y39274501D01*
X37609832Y39274500D01*
X37609834Y39274500D01*
X37761368Y39274500D01*
X37761368Y39274501D01*
X37907735Y39313719D01*
X38038965Y39389485D01*
X38146115Y39496635D01*
X38221881Y39627865D01*
X38261099Y39774232D01*
X38261100Y39774232D01*
X38261100Y39925768D01*
X38261099Y39925769D01*
X38250930Y39963719D01*
X38221881Y40072135D01*
X38146115Y40203365D01*
X38076416Y40273064D01*
X38054743Y40325388D01*
X38076417Y40377714D01*
X38091740Y40389473D01*
X38178365Y40439485D01*
X38285515Y40546635D01*
X38361281Y40677865D01*
X38400499Y40824232D01*
X38400500Y40824232D01*
X38400500Y40975768D01*
X38400499Y40975769D01*
X38361282Y41122131D01*
X38361281Y41122135D01*
X38285515Y41253365D01*
X38178365Y41360515D01*
X38117309Y41395766D01*
X38047139Y41436279D01*
X38047130Y41436283D01*
X37900768Y41475500D01*
X37900766Y41475500D01*
X37749234Y41475500D01*
X37749232Y41475500D01*
X37602869Y41436283D01*
X37602860Y41436279D01*
X37471637Y41360517D01*
X37364483Y41253363D01*
X37288721Y41122140D01*
X37288717Y41122131D01*
X37249500Y40975769D01*
X37249500Y40824232D01*
X37288717Y40677870D01*
X37288721Y40677861D01*
X37320621Y40622609D01*
X37364485Y40546635D01*
X37434182Y40476938D01*
X37455856Y40424613D01*
X37434182Y40372287D01*
X37418857Y40360528D01*
X37332238Y40310518D01*
X37332238Y40310517D01*
X37332235Y40310515D01*
X37261205Y40239485D01*
X37225083Y40203363D01*
X37149321Y40072140D01*
X37149317Y40072131D01*
X37110100Y39925769D01*
X31880499Y39925769D01*
X32022134Y39963719D01*
X32153364Y40039485D01*
X32260514Y40146635D01*
X32336280Y40277865D01*
X32375498Y40424232D01*
X32375499Y40424232D01*
X32375499Y40575768D01*
X32375498Y40575769D01*
X32362947Y40622609D01*
X32336280Y40722135D01*
X32260514Y40853365D01*
X32153364Y40960515D01*
X32126949Y40975766D01*
X32022138Y41036279D01*
X32022129Y41036283D01*
X31875767Y41075500D01*
X31875765Y41075500D01*
X31724233Y41075500D01*
X31724231Y41075500D01*
X31577868Y41036283D01*
X31577859Y41036279D01*
X31446636Y40960517D01*
X31339482Y40853363D01*
X31263720Y40722140D01*
X31263716Y40722131D01*
X31224499Y40575769D01*
X20000000Y40575769D01*
X20000000Y42100769D01*
X36249500Y42100769D01*
X36249500Y41949232D01*
X36288717Y41802870D01*
X36288721Y41802861D01*
X36363486Y41673365D01*
X36364485Y41671635D01*
X36471635Y41564485D01*
X36602865Y41488719D01*
X36749231Y41449501D01*
X36749232Y41449500D01*
X36749234Y41449500D01*
X36900768Y41449500D01*
X36900768Y41449501D01*
X37047135Y41488719D01*
X37178365Y41564485D01*
X37285515Y41671635D01*
X37361281Y41802865D01*
X37400499Y41949232D01*
X37400500Y41949232D01*
X37400500Y42100768D01*
X37400499Y42100769D01*
X37393237Y42127870D01*
X37361281Y42247135D01*
X37285515Y42378365D01*
X37178365Y42485515D01*
X37162453Y42494702D01*
X37047139Y42561279D01*
X37047130Y42561283D01*
X36900768Y42600500D01*
X36900766Y42600500D01*
X36749234Y42600500D01*
X36749232Y42600500D01*
X36602869Y42561283D01*
X36602860Y42561279D01*
X36471637Y42485517D01*
X36364483Y42378363D01*
X36288721Y42247140D01*
X36288717Y42247131D01*
X36249500Y42100769D01*
X20000000Y42100769D01*
X20000000Y43075769D01*
X43424500Y43075769D01*
X43424500Y42924232D01*
X43463717Y42777870D01*
X43463721Y42777861D01*
X43506733Y42703363D01*
X43539485Y42646635D01*
X43646635Y42539485D01*
X43777865Y42463719D01*
X43924231Y42424501D01*
X43924232Y42424500D01*
X43924234Y42424500D01*
X44075768Y42424500D01*
X44075768Y42424501D01*
X44080500Y42425769D01*
X47284500Y42425769D01*
X47284500Y42274232D01*
X47323717Y42127870D01*
X47323721Y42127861D01*
X47399483Y41996638D01*
X47399485Y41996635D01*
X47506635Y41889485D01*
X47506637Y41889484D01*
X47550627Y41864086D01*
X47585106Y41819152D01*
X47577713Y41763000D01*
X47550627Y41735914D01*
X47506637Y41710517D01*
X47399483Y41603363D01*
X47323721Y41472140D01*
X47323717Y41472131D01*
X47284500Y41325769D01*
X47284500Y41174232D01*
X47323717Y41027870D01*
X47323721Y41027861D01*
X47374745Y40939485D01*
X47399485Y40896635D01*
X47506635Y40789485D01*
X47637865Y40713719D01*
X47782610Y40674936D01*
X47827542Y40640457D01*
X47834934Y40622610D01*
X47873717Y40477870D01*
X47873721Y40477861D01*
X47941464Y40360528D01*
X47949485Y40346635D01*
X48056635Y40239485D01*
X48187865Y40163719D01*
X48334231Y40124501D01*
X48334232Y40124500D01*
X48334234Y40124500D01*
X48485768Y40124500D01*
X48485768Y40124501D01*
X48632135Y40163719D01*
X48763365Y40239485D01*
X48870515Y40346635D01*
X48895914Y40390629D01*
X48940847Y40425106D01*
X48997000Y40417714D01*
X49024084Y40390630D01*
X49049485Y40346635D01*
X49156635Y40239485D01*
X49287865Y40163719D01*
X49434231Y40124501D01*
X49434232Y40124500D01*
X49434234Y40124500D01*
X49585768Y40124500D01*
X49585768Y40124501D01*
X49732135Y40163719D01*
X49863365Y40239485D01*
X49970515Y40346635D01*
X50046281Y40477865D01*
X50085064Y40622611D01*
X50119543Y40667543D01*
X50137386Y40674935D01*
X50282135Y40713719D01*
X50413365Y40789485D01*
X50520515Y40896635D01*
X50596281Y41027865D01*
X50635499Y41174232D01*
X50635500Y41174232D01*
X50635500Y41325768D01*
X50635499Y41325769D01*
X50634231Y41330500D01*
X50596281Y41472135D01*
X50520515Y41603365D01*
X50413365Y41710515D01*
X50369371Y41735915D01*
X50334894Y41780847D01*
X50342286Y41837000D01*
X50369370Y41864085D01*
X50413365Y41889485D01*
X50520515Y41996635D01*
X50596281Y42127865D01*
X50635499Y42274232D01*
X50635500Y42274232D01*
X50635500Y42425768D01*
X50635499Y42425769D01*
X50625330Y42463719D01*
X50596281Y42572135D01*
X50520515Y42703365D01*
X50413365Y42810515D01*
X50413362Y42810517D01*
X50282139Y42886279D01*
X50282130Y42886283D01*
X50137390Y42925066D01*
X50092457Y42959544D01*
X50085065Y42977387D01*
X50046281Y43122135D01*
X49970515Y43253365D01*
X49863365Y43360515D01*
X49863362Y43360517D01*
X49732139Y43436279D01*
X49732130Y43436283D01*
X49585768Y43475500D01*
X49585766Y43475500D01*
X49434234Y43475500D01*
X49434232Y43475500D01*
X49287869Y43436283D01*
X49287860Y43436279D01*
X49156637Y43360517D01*
X49049483Y43253363D01*
X49024086Y43209373D01*
X48979152Y43174894D01*
X48923000Y43182287D01*
X48895914Y43209373D01*
X48870516Y43253363D01*
X48870515Y43253365D01*
X48763365Y43360515D01*
X48763362Y43360517D01*
X48632139Y43436279D01*
X48632130Y43436283D01*
X48485768Y43475500D01*
X48485766Y43475500D01*
X48334234Y43475500D01*
X48334232Y43475500D01*
X48187869Y43436283D01*
X48187860Y43436279D01*
X48056637Y43360517D01*
X47949483Y43253363D01*
X47873721Y43122140D01*
X47873717Y43122131D01*
X47834934Y42977391D01*
X47800456Y42932458D01*
X47782609Y42925066D01*
X47637869Y42886283D01*
X47637860Y42886279D01*
X47506637Y42810517D01*
X47399483Y42703363D01*
X47323721Y42572140D01*
X47323717Y42572131D01*
X47284500Y42425769D01*
X44080500Y42425769D01*
X44222135Y42463719D01*
X44353365Y42539485D01*
X44460515Y42646635D01*
X44536281Y42777865D01*
X44575499Y42924232D01*
X44575500Y42924232D01*
X44575500Y43075768D01*
X44575499Y43075769D01*
X44563075Y43122135D01*
X44536281Y43222135D01*
X44460515Y43353365D01*
X44353365Y43460515D01*
X44353362Y43460517D01*
X44222139Y43536279D01*
X44222130Y43536283D01*
X44075768Y43575500D01*
X44075766Y43575500D01*
X43924234Y43575500D01*
X43924232Y43575500D01*
X43777869Y43536283D01*
X43777860Y43536279D01*
X43646637Y43460517D01*
X43539483Y43353363D01*
X43463721Y43222140D01*
X43463717Y43222131D01*
X43424500Y43075769D01*
X20000000Y43075769D01*
X20000000Y44575769D01*
X31224499Y44575769D01*
X31224499Y44424232D01*
X31263716Y44277870D01*
X31263720Y44277861D01*
X31292588Y44227861D01*
X31339484Y44146635D01*
X31446634Y44039485D01*
X31577864Y43963719D01*
X31724230Y43924501D01*
X31724231Y43924500D01*
X31724233Y43924500D01*
X31875767Y43924500D01*
X31875767Y43924501D01*
X32022134Y43963719D01*
X32153364Y44039485D01*
X32260514Y44146635D01*
X32336280Y44277865D01*
X32375498Y44424232D01*
X32375499Y44424232D01*
X32375499Y44525769D01*
X37126700Y44525769D01*
X37126700Y44374232D01*
X37165917Y44227870D01*
X37165921Y44227861D01*
X37212817Y44146635D01*
X37241685Y44096635D01*
X37348835Y43989485D01*
X37480065Y43913719D01*
X37626431Y43874501D01*
X37626432Y43874500D01*
X37626434Y43874500D01*
X37777968Y43874500D01*
X37777968Y43874501D01*
X37924335Y43913719D01*
X38055565Y43989485D01*
X38162715Y44096635D01*
X38238481Y44227865D01*
X38277699Y44374232D01*
X38277700Y44374232D01*
X38277700Y44525768D01*
X38277699Y44525769D01*
X38238482Y44672131D01*
X38238481Y44672135D01*
X38162715Y44803365D01*
X38086940Y44879140D01*
X38065267Y44931464D01*
X38086941Y44983790D01*
X38102264Y44995549D01*
X38178365Y45039485D01*
X38285515Y45146635D01*
X38361281Y45277865D01*
X38400499Y45424232D01*
X38400500Y45424232D01*
X38400500Y45469569D01*
X41239300Y45469569D01*
X41239300Y45318032D01*
X41278517Y45171670D01*
X41278518Y45171667D01*
X41278519Y45171665D01*
X41354285Y45040435D01*
X41461435Y44933285D01*
X41592665Y44857519D01*
X41739031Y44818301D01*
X41739032Y44818300D01*
X41739034Y44818300D01*
X41890568Y44818300D01*
X41890568Y44818301D01*
X42036935Y44857519D01*
X42168165Y44933285D01*
X42275315Y45040435D01*
X42351081Y45171665D01*
X42390299Y45318032D01*
X42390300Y45318032D01*
X42390300Y45469568D01*
X42390299Y45469569D01*
X42361843Y45575768D01*
X42351081Y45615935D01*
X42275315Y45747165D01*
X42168165Y45854315D01*
X42046600Y45924501D01*
X42036939Y45930079D01*
X42036930Y45930083D01*
X41890568Y45969300D01*
X41890566Y45969300D01*
X41739034Y45969300D01*
X41739032Y45969300D01*
X41592669Y45930083D01*
X41592660Y45930079D01*
X41461437Y45854317D01*
X41354283Y45747163D01*
X41278521Y45615940D01*
X41278517Y45615931D01*
X41239300Y45469569D01*
X38400500Y45469569D01*
X38400500Y45575768D01*
X38400499Y45575769D01*
X38389735Y45615940D01*
X38361281Y45722135D01*
X38285515Y45853365D01*
X38178365Y45960515D01*
X38178362Y45960517D01*
X38047139Y46036279D01*
X38047130Y46036283D01*
X37900768Y46075500D01*
X37900766Y46075500D01*
X37749234Y46075500D01*
X37749232Y46075500D01*
X37602869Y46036283D01*
X37602860Y46036279D01*
X37471637Y45960517D01*
X37364483Y45853363D01*
X37288721Y45722140D01*
X37288717Y45722131D01*
X37249500Y45575769D01*
X37249500Y45424232D01*
X37288717Y45277870D01*
X37288718Y45277867D01*
X37288719Y45277865D01*
X37364485Y45146635D01*
X37440258Y45070862D01*
X37461932Y45018537D01*
X37440258Y44966211D01*
X37424933Y44954452D01*
X37348838Y44910518D01*
X37348838Y44910517D01*
X37348835Y44910515D01*
X37291685Y44853365D01*
X37241683Y44803363D01*
X37165921Y44672140D01*
X37165917Y44672131D01*
X37126700Y44525769D01*
X32375499Y44525769D01*
X32375499Y44575768D01*
X32375498Y44575769D01*
X32336281Y44722131D01*
X32336280Y44722135D01*
X32260514Y44853365D01*
X32153364Y44960515D01*
X32147815Y44963719D01*
X32022138Y45036279D01*
X32022129Y45036283D01*
X31875767Y45075500D01*
X31875765Y45075500D01*
X31724233Y45075500D01*
X31724231Y45075500D01*
X31577868Y45036283D01*
X31577859Y45036279D01*
X31446636Y44960517D01*
X31339482Y44853363D01*
X31263720Y44722140D01*
X31263716Y44722131D01*
X31224499Y44575769D01*
X20000000Y44575769D01*
X20000000Y46575769D01*
X39824500Y46575769D01*
X39824500Y46424232D01*
X39863717Y46277870D01*
X39863721Y46277861D01*
X39939483Y46146638D01*
X39939485Y46146635D01*
X40046635Y46039485D01*
X40177865Y45963719D01*
X40324231Y45924501D01*
X40324232Y45924500D01*
X40324234Y45924500D01*
X40475768Y45924500D01*
X40475768Y45924501D01*
X40622135Y45963719D01*
X40753365Y46039485D01*
X40860515Y46146635D01*
X40936281Y46277865D01*
X40975499Y46424232D01*
X40975500Y46424232D01*
X40975500Y46575768D01*
X40975499Y46575769D01*
X40968872Y46600500D01*
X40936281Y46722135D01*
X40936279Y46722138D01*
X40936277Y46722144D01*
X40932714Y46728314D01*
X40932712Y46728316D01*
X40914148Y46760469D01*
X57630600Y46760469D01*
X57630600Y46608932D01*
X57669817Y46462570D01*
X57669821Y46462561D01*
X57718432Y46378365D01*
X57745585Y46331335D01*
X57852735Y46224185D01*
X57983965Y46148419D01*
X58130331Y46109201D01*
X58130332Y46109200D01*
X58130334Y46109200D01*
X58281868Y46109200D01*
X58281868Y46109201D01*
X58428235Y46148419D01*
X58559465Y46224185D01*
X58666615Y46331335D01*
X58742381Y46462565D01*
X58781599Y46608932D01*
X58781600Y46608932D01*
X58781600Y46760468D01*
X58781599Y46760469D01*
X58756708Y46853363D01*
X58742381Y46906835D01*
X58666615Y47038065D01*
X58559465Y47145215D01*
X58559462Y47145217D01*
X58428239Y47220979D01*
X58428230Y47220983D01*
X58281868Y47260200D01*
X58281866Y47260200D01*
X58130334Y47260200D01*
X58130332Y47260200D01*
X57983969Y47220983D01*
X57983960Y47220979D01*
X57852737Y47145217D01*
X57745583Y47038063D01*
X57669821Y46906840D01*
X57669817Y46906831D01*
X57630600Y46760469D01*
X40914148Y46760469D01*
X40860515Y46853365D01*
X40753365Y46960515D01*
X40753362Y46960517D01*
X40622139Y47036279D01*
X40622130Y47036283D01*
X40475768Y47075500D01*
X40475766Y47075500D01*
X40324234Y47075500D01*
X40324232Y47075500D01*
X40177869Y47036283D01*
X40177860Y47036279D01*
X40046637Y46960517D01*
X39939483Y46853363D01*
X39863721Y46722140D01*
X39863717Y46722131D01*
X39824500Y46575769D01*
X20000000Y46575769D01*
X20000000Y48075769D01*
X31424500Y48075769D01*
X31424500Y47924232D01*
X31463717Y47777870D01*
X31463718Y47777867D01*
X31463719Y47777865D01*
X31539485Y47646635D01*
X31646635Y47539485D01*
X31777865Y47463719D01*
X31924231Y47424501D01*
X31924232Y47424500D01*
X31924234Y47424500D01*
X32075768Y47424500D01*
X32075768Y47424501D01*
X32222135Y47463719D01*
X32353365Y47539485D01*
X32460515Y47646635D01*
X32536281Y47777865D01*
X32562514Y47875769D01*
X36974500Y47875769D01*
X36974500Y47724232D01*
X37013717Y47577870D01*
X37013721Y47577861D01*
X37079622Y47463718D01*
X37089485Y47446635D01*
X37196635Y47339485D01*
X37327865Y47263719D01*
X37474231Y47224501D01*
X37474232Y47224500D01*
X37474234Y47224500D01*
X37625768Y47224500D01*
X37625768Y47224501D01*
X37772135Y47263719D01*
X37903365Y47339485D01*
X38010515Y47446635D01*
X38086281Y47577865D01*
X38125499Y47724232D01*
X38125500Y47724232D01*
X38125500Y47875768D01*
X38125499Y47875769D01*
X38086282Y48022131D01*
X38086281Y48022135D01*
X38055315Y48075769D01*
X43424500Y48075769D01*
X43424500Y47924232D01*
X43463717Y47777870D01*
X43463718Y47777867D01*
X43463719Y47777865D01*
X43539485Y47646635D01*
X43646635Y47539485D01*
X43777865Y47463719D01*
X43924231Y47424501D01*
X43924232Y47424500D01*
X43924234Y47424500D01*
X44075768Y47424500D01*
X44075768Y47424501D01*
X44222135Y47463719D01*
X44353365Y47539485D01*
X44460515Y47646635D01*
X44536281Y47777865D01*
X44575499Y47924232D01*
X44575500Y47924232D01*
X44575500Y48075768D01*
X44575499Y48075769D01*
X48424500Y48075769D01*
X48424500Y47924232D01*
X48463717Y47777870D01*
X48463718Y47777867D01*
X48463719Y47777865D01*
X48539485Y47646635D01*
X48646635Y47539485D01*
X48777865Y47463719D01*
X48924231Y47424501D01*
X48924232Y47424500D01*
X48924234Y47424500D01*
X49075768Y47424500D01*
X49075768Y47424501D01*
X49222135Y47463719D01*
X49353365Y47539485D01*
X49460515Y47646635D01*
X49536281Y47777865D01*
X49575499Y47924232D01*
X49575500Y47924232D01*
X49575500Y48075768D01*
X49575499Y48075769D01*
X49536282Y48222131D01*
X49536281Y48222135D01*
X49460515Y48353365D01*
X49353365Y48460515D01*
X49353362Y48460517D01*
X49222139Y48536279D01*
X49222130Y48536283D01*
X49075768Y48575500D01*
X49075766Y48575500D01*
X48924234Y48575500D01*
X48924232Y48575500D01*
X48777869Y48536283D01*
X48777860Y48536279D01*
X48646637Y48460517D01*
X48539483Y48353363D01*
X48463721Y48222140D01*
X48463717Y48222131D01*
X48424500Y48075769D01*
X44575499Y48075769D01*
X44536282Y48222131D01*
X44536281Y48222135D01*
X44460515Y48353365D01*
X44353365Y48460515D01*
X44353362Y48460517D01*
X44222139Y48536279D01*
X44222130Y48536283D01*
X44075768Y48575500D01*
X44075766Y48575500D01*
X43924234Y48575500D01*
X43924232Y48575500D01*
X43777869Y48536283D01*
X43777860Y48536279D01*
X43646637Y48460517D01*
X43539483Y48353363D01*
X43463721Y48222140D01*
X43463717Y48222131D01*
X43424500Y48075769D01*
X38055315Y48075769D01*
X38010515Y48153365D01*
X37903365Y48260515D01*
X37903362Y48260517D01*
X37772139Y48336279D01*
X37772130Y48336283D01*
X37625768Y48375500D01*
X37625766Y48375500D01*
X37474234Y48375500D01*
X37474232Y48375500D01*
X37327869Y48336283D01*
X37327860Y48336279D01*
X37196637Y48260517D01*
X37089483Y48153363D01*
X37013721Y48022140D01*
X37013717Y48022131D01*
X36974500Y47875769D01*
X32562514Y47875769D01*
X32575499Y47924232D01*
X32575500Y47924232D01*
X32575500Y48075768D01*
X32575499Y48075769D01*
X32536282Y48222131D01*
X32536281Y48222135D01*
X32460515Y48353365D01*
X32353365Y48460515D01*
X32353362Y48460517D01*
X32222139Y48536279D01*
X32222130Y48536283D01*
X32075768Y48575500D01*
X32075766Y48575500D01*
X31924234Y48575500D01*
X31924232Y48575500D01*
X31777869Y48536283D01*
X31777860Y48536279D01*
X31646637Y48460517D01*
X31539483Y48353363D01*
X31463721Y48222140D01*
X31463717Y48222131D01*
X31424500Y48075769D01*
X20000000Y48075769D01*
X20000000Y48726000D01*
X20021674Y48778326D01*
X20074000Y48800000D01*
X60926000Y48800000D01*
X60978326Y48778326D01*
G37*
%TD.AperFunction*%
%TD*%
%TA.AperFunction,Conductor*%
%TO.N,/GND*%
G36*
X33939591Y49693871D02*
G01*
X33950003Y49689558D01*
X33990053Y49649515D01*
X33990056Y49649508D01*
X33994367Y49639100D01*
X34000000Y49610782D01*
X34000000Y49129500D01*
X33978326Y49077174D01*
X33926000Y49055500D01*
X20074002Y49055500D01*
X20074000Y49055500D01*
X20046282Y49049987D01*
X19976230Y49036053D01*
X19976220Y49036050D01*
X19927263Y49015771D01*
X19924508Y49014786D01*
X19841008Y48958992D01*
X19841007Y48958991D01*
X19785622Y48876101D01*
X19763950Y48823780D01*
X19763947Y48823770D01*
X19744500Y48725999D01*
X19744500Y39780392D01*
X19763947Y39682621D01*
X19763950Y39682611D01*
X19784230Y39633652D01*
X19785215Y39630899D01*
X19841007Y39547399D01*
X19891172Y39497234D01*
X19902932Y39481907D01*
X19934002Y39428091D01*
X19941394Y39410246D01*
X19957478Y39350224D01*
X19960000Y39331070D01*
X19960000Y39268930D01*
X19957478Y39249776D01*
X19941395Y39189757D01*
X19934003Y39171911D01*
X19902930Y39118091D01*
X19891171Y39102766D01*
X19839267Y39050862D01*
X19836959Y39046542D01*
X19785622Y38969711D01*
X19763950Y38917390D01*
X19763947Y38917380D01*
X19744500Y38819609D01*
X19744500Y38480392D01*
X19763947Y38382621D01*
X19763950Y38382611D01*
X19784230Y38333652D01*
X19785215Y38330899D01*
X19841007Y38247399D01*
X19891174Y38197232D01*
X19902934Y38181906D01*
X19934002Y38128095D01*
X19941394Y38110249D01*
X19957478Y38050226D01*
X19960000Y38031072D01*
X19960000Y37968930D01*
X19957478Y37949776D01*
X19941395Y37889757D01*
X19934003Y37871911D01*
X19902930Y37818091D01*
X19891171Y37802766D01*
X19839267Y37750862D01*
X19836959Y37746542D01*
X19785622Y37669711D01*
X19763950Y37617390D01*
X19763947Y37617380D01*
X19744500Y37519609D01*
X19744500Y37180391D01*
X19763944Y37082626D01*
X19763947Y37082618D01*
X19772804Y37061231D01*
X19773517Y37059443D01*
X19780163Y37042134D01*
X19781797Y37037879D01*
X19834987Y36953579D01*
X19835656Y36952874D01*
X19839955Y36948461D01*
X19840325Y36948081D01*
X19891172Y36897234D01*
X19902932Y36881908D01*
X19934003Y36828091D01*
X19941395Y36810245D01*
X19943949Y36800715D01*
X19954606Y36760941D01*
X19957478Y36750226D01*
X19960000Y36731072D01*
X19960000Y36668930D01*
X19957478Y36649776D01*
X19941395Y36589757D01*
X19934004Y36571912D01*
X19926790Y36559417D01*
X19922249Y36551550D01*
X19916813Y36542135D01*
X19916811Y36542132D01*
X19902929Y36518089D01*
X19891171Y36502766D01*
X19839267Y36450862D01*
X19836959Y36446542D01*
X19785622Y36369711D01*
X19763950Y36317390D01*
X19763947Y36317380D01*
X19744500Y36219609D01*
X19744500Y32329500D01*
X19722826Y32277174D01*
X19670500Y32255500D01*
X8862391Y32255500D01*
X8852364Y32254180D01*
X8796261Y32246794D01*
X8759261Y32236879D01*
X8759251Y32236876D01*
X8697639Y32211355D01*
X8622689Y32145625D01*
X8622684Y32145619D01*
X8588213Y32100695D01*
X8588208Y32100687D01*
X8588187Y32100646D01*
X8572732Y32069304D01*
X8570449Y32065033D01*
X8510937Y31961957D01*
X8499177Y31946631D01*
X8453369Y31900823D01*
X8438042Y31889063D01*
X8381950Y31856679D01*
X8364105Y31849287D01*
X8317895Y31836905D01*
X8301540Y31832522D01*
X8282388Y31830000D01*
X8217615Y31830000D01*
X8198463Y31832521D01*
X8159274Y31843022D01*
X8159256Y31843026D01*
X8126511Y31849539D01*
X8126486Y31849543D01*
X8107353Y31852062D01*
X8107344Y31852063D01*
X8074003Y31854249D01*
X7976230Y31834801D01*
X7976220Y31834798D01*
X7927263Y31814519D01*
X7924508Y31813534D01*
X7841008Y31757740D01*
X7841007Y31757739D01*
X7785622Y31674849D01*
X7763950Y31622528D01*
X7763947Y31622518D01*
X7744500Y31524747D01*
X7744500Y28475229D01*
X7746686Y28441910D01*
X7746687Y28441892D01*
X7749208Y28422751D01*
X7749208Y28422747D01*
X7755727Y28389976D01*
X7755728Y28389973D01*
X7791648Y28317134D01*
X7799821Y28300560D01*
X7805376Y28293321D01*
X7829159Y28262326D01*
X7843818Y28207620D01*
X7831244Y28177257D01*
X7831920Y28176866D01*
X7760311Y28052836D01*
X7757443Y28042132D01*
X7724500Y27919186D01*
X7724500Y27780815D01*
X7751513Y27680000D01*
X7760311Y27647166D01*
X7831920Y27523135D01*
X7830082Y27522075D01*
X7842881Y27474267D01*
X7831046Y27442831D01*
X7805666Y27404846D01*
X7785623Y27374849D01*
X7785621Y27374847D01*
X7785621Y27374845D01*
X7778078Y27356634D01*
X7763950Y27322528D01*
X7763947Y27322518D01*
X7744500Y27224747D01*
X7744500Y18074002D01*
X7763947Y17976231D01*
X7763950Y17976221D01*
X7784229Y17927264D01*
X7785215Y17924508D01*
X7841008Y17841009D01*
X7841009Y17841008D01*
X7923899Y17785623D01*
X7976225Y17763949D01*
X8074000Y17744500D01*
X31350498Y17744500D01*
X31350500Y17744500D01*
X31448275Y17763949D01*
X31498193Y17784626D01*
X31499762Y17785212D01*
X31500601Y17785623D01*
X31500607Y17785625D01*
X31583496Y17841012D01*
X31638879Y17923903D01*
X31659325Y17973267D01*
X31659324Y17973268D01*
X31660074Y17975076D01*
X31660097Y17975132D01*
X31660439Y17975955D01*
X31660551Y17976224D01*
X31660782Y17977387D01*
X31669964Y18009999D01*
X31671294Y18009642D01*
X31699412Y18114583D01*
X31699533Y18115012D01*
X31699797Y18115348D01*
X31706673Y18131949D01*
X31739062Y18188048D01*
X31750815Y18203365D01*
X31796635Y18249185D01*
X31811952Y18260938D01*
X31868051Y18293327D01*
X31885888Y18300715D01*
X31933099Y18313364D01*
X31948459Y18317479D01*
X31967610Y18320000D01*
X32032384Y18320000D01*
X32051535Y18317480D01*
X32114109Y18300713D01*
X32131955Y18293321D01*
X32188044Y18260938D01*
X32203369Y18249178D01*
X32249175Y18203373D01*
X32260936Y18188047D01*
X32293319Y18131958D01*
X32300463Y18115015D01*
X32300604Y18114514D01*
X32317363Y18051967D01*
X32317365Y18051959D01*
X32328707Y18009634D01*
X32330035Y18009991D01*
X32339239Y17977301D01*
X32339459Y17976199D01*
X32339742Y17975515D01*
X32339745Y17975506D01*
X32340908Y17972699D01*
X32340910Y17972695D01*
X32361122Y17923898D01*
X32416508Y17841009D01*
X32416509Y17841008D01*
X32499399Y17785623D01*
X32551725Y17763949D01*
X32649500Y17744500D01*
X36350498Y17744500D01*
X36350500Y17744500D01*
X36448275Y17763949D01*
X36498193Y17784626D01*
X36499762Y17785212D01*
X36500601Y17785623D01*
X36500607Y17785625D01*
X36583496Y17841012D01*
X36638879Y17923903D01*
X36659325Y17973267D01*
X36659324Y17973268D01*
X36660074Y17975076D01*
X36660097Y17975132D01*
X36660439Y17975955D01*
X36660551Y17976224D01*
X36660782Y17977387D01*
X36669964Y18009999D01*
X36671294Y18009642D01*
X36699412Y18114583D01*
X36699533Y18115012D01*
X36699797Y18115348D01*
X36706673Y18131949D01*
X36739062Y18188048D01*
X36750815Y18203365D01*
X36796635Y18249185D01*
X36811952Y18260938D01*
X36868051Y18293327D01*
X36885888Y18300715D01*
X36933099Y18313364D01*
X36948459Y18317479D01*
X36967610Y18320000D01*
X37032384Y18320000D01*
X37051535Y18317480D01*
X37114109Y18300713D01*
X37131955Y18293321D01*
X37188044Y18260938D01*
X37203369Y18249178D01*
X37249175Y18203373D01*
X37260936Y18188047D01*
X37293319Y18131958D01*
X37300463Y18115015D01*
X37300604Y18114514D01*
X37317363Y18051967D01*
X37317365Y18051959D01*
X37328707Y18009634D01*
X37330035Y18009991D01*
X37339239Y17977301D01*
X37339459Y17976199D01*
X37339742Y17975515D01*
X37339745Y17975506D01*
X37340908Y17972699D01*
X37340910Y17972695D01*
X37361122Y17923898D01*
X37416508Y17841009D01*
X37416509Y17841008D01*
X37499399Y17785623D01*
X37551725Y17763949D01*
X37649500Y17744500D01*
X43350498Y17744500D01*
X43350500Y17744500D01*
X43448275Y17763949D01*
X43498193Y17784626D01*
X43499762Y17785212D01*
X43500601Y17785623D01*
X43500607Y17785625D01*
X43583496Y17841012D01*
X43638879Y17923903D01*
X43659325Y17973267D01*
X43659324Y17973268D01*
X43660074Y17975076D01*
X43660097Y17975132D01*
X43660439Y17975955D01*
X43660551Y17976224D01*
X43660782Y17977387D01*
X43669964Y18009999D01*
X43671294Y18009642D01*
X43699412Y18114583D01*
X43699533Y18115012D01*
X43699797Y18115348D01*
X43706673Y18131949D01*
X43739062Y18188048D01*
X43750815Y18203365D01*
X43796635Y18249185D01*
X43811952Y18260938D01*
X43868051Y18293327D01*
X43885888Y18300715D01*
X43933099Y18313364D01*
X43948459Y18317479D01*
X43967610Y18320000D01*
X44032384Y18320000D01*
X44051535Y18317480D01*
X44114109Y18300713D01*
X44131955Y18293321D01*
X44188044Y18260938D01*
X44203366Y18249181D01*
X44252263Y18200285D01*
X44299428Y18163104D01*
X44328884Y18145053D01*
X44383427Y18119907D01*
X44434200Y18113897D01*
X44483614Y18086224D01*
X44499500Y18040411D01*
X44499500Y17881908D01*
X44518182Y17763949D01*
X44536447Y17648630D01*
X44536453Y17648606D01*
X44609424Y17424025D01*
X44610018Y17422542D01*
X44611309Y17420323D01*
X44716657Y17213567D01*
X44855483Y17022490D01*
X45022490Y16855483D01*
X45022493Y16855481D01*
X45022494Y16855480D01*
X45213567Y16716657D01*
X45213576Y16716652D01*
X45420163Y16611390D01*
X45421102Y16610841D01*
X45423299Y16609777D01*
X45424528Y16609167D01*
X45426767Y16608535D01*
X45646303Y16537203D01*
X45647867Y16536637D01*
X45648039Y16536586D01*
X45648477Y16536472D01*
X45648630Y16536448D01*
X45648632Y16536447D01*
X45804149Y16511816D01*
X45823589Y16508737D01*
X45881906Y16499500D01*
X46118093Y16499500D01*
X46118094Y16499500D01*
X46132672Y16501810D01*
X46176411Y16508737D01*
X46351368Y16536447D01*
X46351367Y16536447D01*
X46351507Y16536469D01*
X46352564Y16536793D01*
X46353242Y16536989D01*
X46354553Y16537482D01*
X46570742Y16607726D01*
X46571005Y16607791D01*
X46575678Y16609330D01*
X46575986Y16609430D01*
X46575986Y16609431D01*
X46575988Y16609432D01*
X46575992Y16609432D01*
X46575995Y16609434D01*
X46576036Y16609447D01*
X46586294Y16612781D01*
X46591812Y16617494D01*
X46786433Y16716657D01*
X46977510Y16855483D01*
X47144517Y17022490D01*
X47283343Y17213567D01*
X47390568Y17424008D01*
X47463553Y17648632D01*
X47469621Y17686951D01*
X47499213Y17735241D01*
X47554285Y17748463D01*
X47557144Y17747953D01*
X47574500Y17744500D01*
X48350498Y17744500D01*
X48350500Y17744500D01*
X48448275Y17763949D01*
X48498193Y17784626D01*
X48499762Y17785212D01*
X48500601Y17785623D01*
X48500607Y17785625D01*
X48583496Y17841012D01*
X48638879Y17923903D01*
X48659325Y17973267D01*
X48659324Y17973268D01*
X48660074Y17975076D01*
X48660097Y17975132D01*
X48660439Y17975955D01*
X48660551Y17976224D01*
X48660782Y17977387D01*
X48669964Y18009999D01*
X48671294Y18009642D01*
X48699412Y18114583D01*
X48699533Y18115012D01*
X48699797Y18115348D01*
X48706673Y18131949D01*
X48739062Y18188048D01*
X48750815Y18203365D01*
X48796635Y18249185D01*
X48811952Y18260938D01*
X48868051Y18293327D01*
X48885888Y18300715D01*
X48933099Y18313364D01*
X48948459Y18317479D01*
X48967610Y18320000D01*
X49032384Y18320000D01*
X49051535Y18317480D01*
X49114109Y18300713D01*
X49131955Y18293321D01*
X49188044Y18260938D01*
X49203369Y18249178D01*
X49249175Y18203373D01*
X49260936Y18188047D01*
X49293319Y18131958D01*
X49300463Y18115015D01*
X49300604Y18114514D01*
X49317363Y18051967D01*
X49317365Y18051959D01*
X49328707Y18009634D01*
X49330035Y18009991D01*
X49339239Y17977301D01*
X49339459Y17976199D01*
X49339742Y17975515D01*
X49339745Y17975506D01*
X49340908Y17972699D01*
X49340910Y17972695D01*
X49361122Y17923898D01*
X49416508Y17841009D01*
X49416509Y17841008D01*
X49499399Y17785623D01*
X49551725Y17763949D01*
X49649500Y17744500D01*
X50925998Y17744500D01*
X50926000Y17744500D01*
X51023775Y17763949D01*
X51072757Y17784238D01*
X51075496Y17785219D01*
X51076101Y17785623D01*
X51076102Y17785623D01*
X51158992Y17841009D01*
X51214377Y17923899D01*
X51236051Y17976225D01*
X51255500Y18074000D01*
X51255500Y43470500D01*
X51277174Y43522826D01*
X51329500Y43544500D01*
X60925998Y43544500D01*
X60926000Y43544500D01*
X61023775Y43563949D01*
X61072757Y43584238D01*
X61075496Y43585219D01*
X61076101Y43585623D01*
X61076102Y43585623D01*
X61158992Y43641009D01*
X61214377Y43723899D01*
X61236051Y43776225D01*
X61255500Y43874000D01*
X61255500Y45375500D01*
X61236051Y45473275D01*
X61215764Y45522251D01*
X61214782Y45524996D01*
X61158991Y45608492D01*
X61158990Y45608493D01*
X61076100Y45663878D01*
X61023779Y45685550D01*
X61023769Y45685553D01*
X60958294Y45698577D01*
X60926000Y45705000D01*
X60925998Y45705000D01*
X60892611Y45705000D01*
X60873458Y45707522D01*
X60850883Y45713572D01*
X60810893Y45724287D01*
X60793048Y45731679D01*
X60736956Y45764063D01*
X60721629Y45775823D01*
X60675823Y45821629D01*
X60664063Y45836955D01*
X60638109Y45881908D01*
X60631675Y45893052D01*
X60624283Y45910900D01*
X60607521Y45973461D01*
X60605000Y45992612D01*
X60605000Y46057391D01*
X60607521Y46076543D01*
X60624285Y46139112D01*
X60631675Y46156951D01*
X60664062Y46213048D01*
X60675815Y46228365D01*
X60721635Y46274185D01*
X60736952Y46285938D01*
X60793051Y46318327D01*
X60810888Y46325715D01*
X60858099Y46338364D01*
X60873459Y46342479D01*
X60892610Y46345000D01*
X60925998Y46345000D01*
X60926000Y46345000D01*
X61023775Y46364449D01*
X61072757Y46384738D01*
X61075496Y46385719D01*
X61076101Y46386123D01*
X61076102Y46386123D01*
X61158992Y46441509D01*
X61214377Y46524399D01*
X61236051Y46576725D01*
X61255500Y46674500D01*
X61255500Y48726000D01*
X61236051Y48823775D01*
X61215764Y48872751D01*
X61214782Y48875496D01*
X61158991Y48958992D01*
X61158990Y48958993D01*
X61150791Y48964471D01*
X61119325Y49011563D01*
X61130374Y49067112D01*
X61177466Y49098578D01*
X61191903Y49100000D01*
X62000000Y49100000D01*
X62000000Y49610782D01*
X62005629Y49639091D01*
X62009943Y49649506D01*
X62049982Y49689552D01*
X62060411Y49693872D01*
X62088719Y49699500D01*
X64610781Y49699500D01*
X64639091Y49693871D01*
X64649503Y49689558D01*
X64689553Y49649515D01*
X64689556Y49649508D01*
X64693867Y49639100D01*
X64699500Y49610782D01*
X64699500Y389219D01*
X64693867Y360901D01*
X64689556Y350493D01*
X64649508Y310445D01*
X64649507Y310444D01*
X64639099Y306133D01*
X64610781Y300500D01*
X389219Y300500D01*
X360904Y306132D01*
X350495Y310443D01*
X310446Y350487D01*
X306129Y360909D01*
X300500Y389219D01*
X300500Y4118093D01*
X37499500Y4118093D01*
X37499500Y3881908D01*
X37532349Y3674500D01*
X37536447Y3648630D01*
X37536453Y3648606D01*
X37609426Y3424020D01*
X37716655Y3213568D01*
X37815635Y3077335D01*
X37855480Y3022493D01*
X37855483Y3022490D01*
X38022490Y2855483D01*
X38022493Y2855481D01*
X38022494Y2855480D01*
X38213567Y2716657D01*
X38213576Y2716652D01*
X38420163Y2611390D01*
X38421102Y2610841D01*
X38423299Y2609777D01*
X38424528Y2609167D01*
X38426767Y2608535D01*
X38646303Y2537203D01*
X38647867Y2536637D01*
X38648039Y2536586D01*
X38648477Y2536472D01*
X38648630Y2536448D01*
X38648632Y2536447D01*
X38804149Y2511816D01*
X38823589Y2508737D01*
X38881906Y2499500D01*
X39118093Y2499500D01*
X39118094Y2499500D01*
X39132672Y2501810D01*
X39176411Y2508737D01*
X39351368Y2536447D01*
X39351367Y2536447D01*
X39351507Y2536469D01*
X39352564Y2536793D01*
X39353242Y2536989D01*
X39354553Y2537482D01*
X39570742Y2607726D01*
X39571005Y2607791D01*
X39575678Y2609330D01*
X39575986Y2609430D01*
X39575986Y2609431D01*
X39575988Y2609432D01*
X39575992Y2609432D01*
X39575995Y2609434D01*
X39576036Y2609447D01*
X39586294Y2612781D01*
X39591812Y2617494D01*
X39786433Y2716657D01*
X39977510Y2855483D01*
X40144517Y3022490D01*
X40283343Y3213567D01*
X40390568Y3424008D01*
X40405247Y3469186D01*
X54424500Y3469186D01*
X54424500Y3330815D01*
X54460310Y3197169D01*
X54460312Y3197164D01*
X54529495Y3077335D01*
X54627335Y2979495D01*
X54747164Y2910312D01*
X54876133Y2875756D01*
X54879831Y2874500D01*
X55019185Y2874500D01*
X55029448Y2874500D01*
X55038336Y2879633D01*
X55152836Y2910312D01*
X55272665Y2979495D01*
X55370505Y3077335D01*
X55439688Y3197164D01*
X55470367Y3311664D01*
X55475500Y3320553D01*
X55475500Y3471418D01*
X55474243Y3473873D01*
X55468072Y3496902D01*
X55445066Y3582764D01*
X55443178Y3611572D01*
X55444648Y3622741D01*
X55472962Y3671789D01*
X55473727Y3672376D01*
X55518701Y3687610D01*
X55522145Y3687610D01*
X55541296Y3685089D01*
X55559472Y3680219D01*
X55559473Y3680219D01*
X55559477Y3680218D01*
X55576133Y3675756D01*
X55579831Y3674500D01*
X55719185Y3674500D01*
X55729449Y3674500D01*
X55738340Y3679634D01*
X55745463Y3681543D01*
X55753895Y3683801D01*
X55782697Y3685690D01*
X55793872Y3684219D01*
X55842907Y3655922D01*
X55843434Y3655235D01*
X55858742Y3610167D01*
X55858742Y3606725D01*
X55856221Y3587573D01*
X55831927Y3496901D01*
X55824501Y3469184D01*
X55824500Y3469182D01*
X55824500Y3330815D01*
X55860310Y3197169D01*
X55860312Y3197164D01*
X55929495Y3077335D01*
X56027335Y2979495D01*
X56147164Y2910312D01*
X56276133Y2875756D01*
X56279831Y2874500D01*
X56419185Y2874500D01*
X56429448Y2874500D01*
X56438336Y2879633D01*
X56552836Y2910312D01*
X56672665Y2979495D01*
X56770505Y3077335D01*
X56839688Y3197164D01*
X56870367Y3311664D01*
X56875500Y3320553D01*
X56875500Y3471418D01*
X56874243Y3473873D01*
X56868072Y3496902D01*
X56845066Y3582764D01*
X56843178Y3611572D01*
X56844648Y3622741D01*
X56872962Y3671789D01*
X56873727Y3672376D01*
X56918701Y3687610D01*
X56922145Y3687610D01*
X56941296Y3685089D01*
X56959472Y3680219D01*
X56959473Y3680219D01*
X56959477Y3680218D01*
X56976133Y3675756D01*
X56979831Y3674500D01*
X57119185Y3674500D01*
X57129448Y3674500D01*
X57138336Y3679633D01*
X57252836Y3710312D01*
X57372665Y3779495D01*
X57470505Y3877335D01*
X57539688Y3997164D01*
X57570367Y4111664D01*
X57575500Y4120553D01*
X57575500Y4270170D01*
X57574244Y4273867D01*
X57539838Y4402274D01*
X57539701Y4402803D01*
X57539689Y4402834D01*
X57470504Y4522666D01*
X57372665Y4620505D01*
X57252834Y4689689D01*
X57252832Y4689690D01*
X57252831Y4689690D01*
X57119185Y4725500D01*
X57119184Y4725500D01*
X56980816Y4725500D01*
X56980815Y4725500D01*
X56847168Y4689690D01*
X56847166Y4689690D01*
X56847165Y4689689D01*
X56727333Y4620505D01*
X56629495Y4522667D01*
X56560311Y4402836D01*
X56560310Y4402832D01*
X56524500Y4269186D01*
X56524500Y4130815D01*
X56527250Y4120553D01*
X56554932Y4017238D01*
X56556820Y3988430D01*
X56555350Y3977261D01*
X56527034Y3928211D01*
X56527011Y3928193D01*
X56526325Y3927667D01*
X56481297Y3912391D01*
X56477854Y3912391D01*
X56458704Y3914912D01*
X56419184Y3925500D01*
X56419183Y3925500D01*
X56280817Y3925500D01*
X56280816Y3925500D01*
X56246103Y3916200D01*
X56217292Y3914312D01*
X56206121Y3915783D01*
X56157073Y3944103D01*
X56156531Y3944810D01*
X56141256Y3989836D01*
X56141256Y3993280D01*
X56143775Y4012424D01*
X56170368Y4111667D01*
X56175500Y4120554D01*
X56175500Y4270170D01*
X56174244Y4273867D01*
X56139838Y4402274D01*
X56139701Y4402803D01*
X56139689Y4402834D01*
X56070504Y4522666D01*
X55972665Y4620505D01*
X55852834Y4689689D01*
X55852832Y4689690D01*
X55852831Y4689690D01*
X55719185Y4725500D01*
X55719184Y4725500D01*
X55580816Y4725500D01*
X55580815Y4725500D01*
X55447168Y4689690D01*
X55447166Y4689690D01*
X55447165Y4689689D01*
X55327333Y4620505D01*
X55229495Y4522667D01*
X55160311Y4402836D01*
X55160310Y4402832D01*
X55124500Y4269186D01*
X55124500Y4130815D01*
X55127250Y4120553D01*
X55154932Y4017238D01*
X55156820Y3988430D01*
X55155350Y3977261D01*
X55127034Y3928211D01*
X55127011Y3928193D01*
X55126325Y3927667D01*
X55081297Y3912391D01*
X55077854Y3912391D01*
X55058704Y3914912D01*
X55019184Y3925500D01*
X55019183Y3925500D01*
X54880817Y3925500D01*
X54880815Y3925500D01*
X54747168Y3889690D01*
X54747166Y3889690D01*
X54747165Y3889689D01*
X54627333Y3820505D01*
X54529495Y3722667D01*
X54460311Y3602836D01*
X54460310Y3602832D01*
X54424500Y3469186D01*
X40405247Y3469186D01*
X40414253Y3496901D01*
X40414253Y3496902D01*
X40414256Y3496910D01*
X40416051Y3502434D01*
X40416054Y3502446D01*
X40442151Y3582764D01*
X40462518Y3645447D01*
X40463011Y3646758D01*
X40463207Y3647436D01*
X40463531Y3648493D01*
X40500500Y3881908D01*
X40500500Y4118093D01*
X40476413Y4270170D01*
X40463553Y4351368D01*
X40463552Y4351370D01*
X40463528Y4351523D01*
X40463414Y4351961D01*
X40463363Y4352133D01*
X40462795Y4353702D01*
X40446830Y4402836D01*
X40391465Y4573233D01*
X40390833Y4575472D01*
X40390223Y4576701D01*
X40389159Y4578898D01*
X40388610Y4579837D01*
X40283348Y4786424D01*
X40283343Y4786433D01*
X40144520Y4977506D01*
X40144519Y4977507D01*
X40144517Y4977510D01*
X39977510Y5144517D01*
X39977507Y5144520D01*
X39977504Y5144523D01*
X39977476Y5144543D01*
X39977251Y5144706D01*
X39786432Y5283345D01*
X39575980Y5390574D01*
X39351394Y5463547D01*
X39351370Y5463553D01*
X39351367Y5463554D01*
X39351365Y5463554D01*
X39164273Y5493186D01*
X39118094Y5500500D01*
X39118093Y5500500D01*
X39118092Y5500500D01*
X38881908Y5500500D01*
X38881907Y5500500D01*
X38881906Y5500500D01*
X38648628Y5463553D01*
X38648604Y5463547D01*
X38424018Y5390574D01*
X38213566Y5283345D01*
X38022498Y5144525D01*
X37855475Y4977502D01*
X37716655Y4786434D01*
X37609426Y4575982D01*
X37536453Y4351396D01*
X37536447Y4351372D01*
X37499890Y4120553D01*
X37499500Y4118093D01*
X300500Y4118093D01*
X300500Y5667607D01*
X52634500Y5667607D01*
X52634500Y5542395D01*
X52666902Y5421469D01*
X52666903Y5421467D01*
X52666904Y5421465D01*
X52687446Y5385885D01*
X52687447Y5385884D01*
X52729504Y5313037D01*
X52818036Y5224505D01*
X52883640Y5186629D01*
X52896438Y5169950D01*
X52991327Y5144524D01*
X52991333Y5144523D01*
X52991341Y5144521D01*
X53042719Y5130755D01*
X53046414Y5129500D01*
X53172603Y5129500D01*
X53182865Y5129500D01*
X53191753Y5134633D01*
X53293536Y5161905D01*
X53401964Y5224505D01*
X53490495Y5313036D01*
X53553095Y5421464D01*
X53558242Y5440674D01*
X53563390Y5459883D01*
X53563390Y5459884D01*
X53564507Y5464051D01*
X53565883Y5469186D01*
X57257000Y5469186D01*
X57257000Y5330815D01*
X57292810Y5197169D01*
X57292812Y5197164D01*
X57361995Y5077335D01*
X57459835Y4979495D01*
X57579664Y4910312D01*
X57708633Y4875756D01*
X57712331Y4874500D01*
X57851685Y4874500D01*
X57861948Y4874500D01*
X57870836Y4879633D01*
X57985336Y4910312D01*
X58105165Y4979495D01*
X58203005Y5077335D01*
X58272188Y5197164D01*
X58302867Y5311664D01*
X58308000Y5320553D01*
X58308000Y5371166D01*
X58313631Y5399480D01*
X58316681Y5406844D01*
X58356728Y5446891D01*
X58413358Y5446895D01*
X58414936Y5446242D01*
X58450711Y5414872D01*
X58509505Y5313036D01*
X58598036Y5224505D01*
X58663640Y5186629D01*
X58676438Y5169950D01*
X58771327Y5144524D01*
X58771333Y5144523D01*
X58771341Y5144521D01*
X58822719Y5130755D01*
X58826414Y5129500D01*
X58952603Y5129500D01*
X58962865Y5129500D01*
X58971753Y5134633D01*
X59073536Y5161905D01*
X59181964Y5224505D01*
X59270495Y5313036D01*
X59333095Y5421464D01*
X59360367Y5523247D01*
X59365500Y5532136D01*
X59365500Y5668587D01*
X59364245Y5672281D01*
X59333095Y5788536D01*
X59270495Y5896964D01*
X59181963Y5985496D01*
X59116357Y6023373D01*
X59103559Y6040052D01*
X58952605Y6080500D01*
X58952603Y6080500D01*
X58952601Y6080500D01*
X58827399Y6080500D01*
X58827397Y6080500D01*
X58827395Y6080500D01*
X58706468Y6048098D01*
X58706459Y6048094D01*
X58598036Y5985497D01*
X58509503Y5896964D01*
X58446903Y5788536D01*
X58414500Y5667607D01*
X58414500Y5646006D01*
X58408864Y5617681D01*
X58405815Y5610322D01*
X58365763Y5570277D01*
X58309166Y5570266D01*
X58308945Y5570358D01*
X58275707Y5597618D01*
X58274912Y5598808D01*
X58273331Y5601173D01*
X58270769Y5605293D01*
X58255761Y5631288D01*
X58255760Y5631289D01*
X58203005Y5722665D01*
X58105165Y5820505D01*
X57985334Y5889689D01*
X57985332Y5889690D01*
X57985331Y5889690D01*
X57851685Y5925500D01*
X57851684Y5925500D01*
X57713316Y5925500D01*
X57713315Y5925500D01*
X57579668Y5889690D01*
X57579666Y5889690D01*
X57579665Y5889689D01*
X57459833Y5820505D01*
X57361995Y5722667D01*
X57292811Y5602836D01*
X57292810Y5602832D01*
X57257000Y5469186D01*
X53565883Y5469186D01*
X53572314Y5493187D01*
X53580367Y5523243D01*
X53585500Y5532133D01*
X53585500Y5668587D01*
X53584245Y5672281D01*
X53553095Y5788536D01*
X53490495Y5896964D01*
X53401963Y5985496D01*
X53336357Y6023373D01*
X53323559Y6040052D01*
X53172605Y6080500D01*
X53172603Y6080500D01*
X53172601Y6080500D01*
X53047399Y6080500D01*
X53047397Y6080500D01*
X53047395Y6080500D01*
X52926468Y6048098D01*
X52926459Y6048094D01*
X52818036Y5985497D01*
X52729503Y5896964D01*
X52666903Y5788536D01*
X52634500Y5667607D01*
X300500Y5667607D01*
X300500Y8258540D01*
X11384500Y8258540D01*
X11384500Y8061461D01*
X11394046Y8013469D01*
X11422946Y7868173D01*
X11422949Y7868162D01*
X11422951Y7868157D01*
X11498366Y7686089D01*
X11498367Y7686087D01*
X11498368Y7686086D01*
X11518632Y7655758D01*
X11607861Y7522218D01*
X11747218Y7382861D01*
X11911086Y7273368D01*
X12093165Y7197949D01*
X12286459Y7159500D01*
X12286461Y7159500D01*
X12483539Y7159500D01*
X12483541Y7159500D01*
X12676835Y7197949D01*
X12858914Y7273368D01*
X13022782Y7382861D01*
X13162139Y7522218D01*
X13271632Y7686086D01*
X13347051Y7868165D01*
X13385500Y8061459D01*
X13385500Y8258540D01*
X14154500Y8258540D01*
X14154500Y8061461D01*
X14164046Y8013469D01*
X14192946Y7868173D01*
X14192949Y7868162D01*
X14192951Y7868157D01*
X14268366Y7686089D01*
X14268367Y7686087D01*
X14268368Y7686086D01*
X14288632Y7655758D01*
X14377861Y7522218D01*
X14517218Y7382861D01*
X14681086Y7273368D01*
X14863165Y7197949D01*
X15056459Y7159500D01*
X15056461Y7159500D01*
X15253539Y7159500D01*
X15253541Y7159500D01*
X15446835Y7197949D01*
X15628914Y7273368D01*
X15792782Y7382861D01*
X15932139Y7522218D01*
X16041632Y7686086D01*
X16117051Y7868165D01*
X16155500Y8061459D01*
X16155500Y8258540D01*
X16924500Y8258540D01*
X16924500Y8061461D01*
X16934046Y8013469D01*
X16962946Y7868173D01*
X16962949Y7868162D01*
X16962951Y7868157D01*
X17038366Y7686089D01*
X17038367Y7686087D01*
X17038368Y7686086D01*
X17058632Y7655758D01*
X17147861Y7522218D01*
X17287218Y7382861D01*
X17451086Y7273368D01*
X17633165Y7197949D01*
X17826459Y7159500D01*
X17826461Y7159500D01*
X18023539Y7159500D01*
X18023541Y7159500D01*
X18216835Y7197949D01*
X18398914Y7273368D01*
X18562782Y7382861D01*
X18702139Y7522218D01*
X18811632Y7686086D01*
X18887051Y7868165D01*
X18925500Y8061459D01*
X18925500Y8258540D01*
X19694500Y8258540D01*
X19694500Y8061461D01*
X19704046Y8013469D01*
X19732946Y7868173D01*
X19732949Y7868162D01*
X19732951Y7868157D01*
X19808366Y7686089D01*
X19808367Y7686087D01*
X19808368Y7686086D01*
X19828632Y7655758D01*
X19917861Y7522218D01*
X20057218Y7382861D01*
X20221086Y7273368D01*
X20403165Y7197949D01*
X20596459Y7159500D01*
X20596461Y7159500D01*
X20793539Y7159500D01*
X20793541Y7159500D01*
X20986835Y7197949D01*
X21168914Y7273368D01*
X21332782Y7382861D01*
X21472139Y7522218D01*
X21581632Y7686086D01*
X21657051Y7868165D01*
X21695500Y8061459D01*
X21695500Y8249186D01*
X53074500Y8249186D01*
X53074500Y8110815D01*
X53110310Y7977169D01*
X53110312Y7977164D01*
X53179495Y7857335D01*
X53277335Y7759495D01*
X53397164Y7690312D01*
X53526133Y7655756D01*
X53529831Y7654500D01*
X53669185Y7654500D01*
X53679448Y7654500D01*
X53688336Y7659633D01*
X53802836Y7690312D01*
X53922665Y7759495D01*
X54020505Y7857335D01*
X54089688Y7977164D01*
X54120367Y8091664D01*
X54125500Y8100553D01*
X54125500Y8250172D01*
X54124240Y8253884D01*
X54122991Y8258545D01*
X54122991Y8258544D01*
X54089688Y8382836D01*
X54020505Y8502665D01*
X53922665Y8600505D01*
X53906305Y8609951D01*
X53906057Y8610094D01*
X53803705Y8669186D01*
X55974500Y8669186D01*
X55974500Y8530815D01*
X56010310Y8397169D01*
X56010312Y8397164D01*
X56079495Y8277335D01*
X56177335Y8179495D01*
X56297164Y8110312D01*
X56426133Y8075756D01*
X56429831Y8074500D01*
X56569185Y8074500D01*
X56579448Y8074500D01*
X56588336Y8079633D01*
X56702836Y8110312D01*
X56822665Y8179495D01*
X56892356Y8249186D01*
X57874500Y8249186D01*
X57874500Y8110815D01*
X57910310Y7977169D01*
X57910312Y7977164D01*
X57979495Y7857335D01*
X58077335Y7759495D01*
X58197164Y7690312D01*
X58326133Y7655756D01*
X58329831Y7654500D01*
X58469185Y7654500D01*
X58479448Y7654500D01*
X58488336Y7659633D01*
X58602836Y7690312D01*
X58722665Y7759495D01*
X58820505Y7857335D01*
X58889688Y7977164D01*
X58920367Y8091664D01*
X58925500Y8100553D01*
X58925500Y8250172D01*
X58924240Y8253884D01*
X58922991Y8258545D01*
X58922991Y8258544D01*
X58889688Y8382836D01*
X58820505Y8502665D01*
X58722665Y8600505D01*
X58602836Y8669688D01*
X58602831Y8669690D01*
X58469185Y8705500D01*
X58469184Y8705500D01*
X58330816Y8705500D01*
X58330815Y8705500D01*
X58197168Y8669690D01*
X58197166Y8669690D01*
X58197165Y8669689D01*
X58077333Y8600505D01*
X57979495Y8502667D01*
X57910311Y8382836D01*
X57910310Y8382832D01*
X57874500Y8249186D01*
X56892356Y8249186D01*
X56920505Y8277335D01*
X56989688Y8397164D01*
X57020367Y8511664D01*
X57025500Y8520553D01*
X57025500Y8670170D01*
X57024241Y8673878D01*
X57015768Y8705500D01*
X56989688Y8802836D01*
X56920505Y8922665D01*
X56822665Y9020505D01*
X56702836Y9089688D01*
X56702831Y9089690D01*
X56569185Y9125500D01*
X56569184Y9125500D01*
X56430816Y9125500D01*
X56430815Y9125500D01*
X56297168Y9089690D01*
X56297166Y9089690D01*
X56297165Y9089689D01*
X56177333Y9020505D01*
X56079495Y8922667D01*
X56010311Y8802836D01*
X56010310Y8802832D01*
X55974500Y8669186D01*
X53803705Y8669186D01*
X53802836Y8669688D01*
X53802833Y8669689D01*
X53802831Y8669690D01*
X53669185Y8705500D01*
X53669184Y8705500D01*
X53530816Y8705500D01*
X53530815Y8705500D01*
X53397168Y8669690D01*
X53397166Y8669690D01*
X53397165Y8669689D01*
X53277333Y8600505D01*
X53179495Y8502667D01*
X53110311Y8382836D01*
X53110310Y8382832D01*
X53074500Y8249186D01*
X21695500Y8249186D01*
X21695500Y8258541D01*
X21657051Y8451835D01*
X21632270Y8511661D01*
X21581632Y8633914D01*
X21472139Y8797782D01*
X21332781Y8937140D01*
X21211624Y9018094D01*
X21204415Y9028882D01*
X21168915Y9046632D01*
X21168910Y9046634D01*
X21168899Y9046639D01*
X20986843Y9122049D01*
X20986838Y9122051D01*
X20986825Y9122055D01*
X20986826Y9122055D01*
X20857388Y9147800D01*
X20857387Y9147801D01*
X20806240Y9157975D01*
X20793541Y9160500D01*
X20793540Y9160500D01*
X20596459Y9160500D01*
X20541662Y9149602D01*
X20541662Y9149601D01*
X20514115Y9144122D01*
X20403171Y9122054D01*
X20403161Y9122051D01*
X20403155Y9122049D01*
X20221086Y9046634D01*
X20056948Y8936961D01*
X20055567Y8935489D01*
X19919511Y8799433D01*
X19918039Y8798052D01*
X19808366Y8633914D01*
X19732951Y8451845D01*
X19732949Y8451839D01*
X19732946Y8451829D01*
X19700964Y8291036D01*
X19694500Y8258540D01*
X18925500Y8258540D01*
X18925500Y8258541D01*
X18887051Y8451835D01*
X18862270Y8511661D01*
X18811632Y8633914D01*
X18702139Y8797782D01*
X18562781Y8937140D01*
X18441624Y9018094D01*
X18434415Y9028882D01*
X18398915Y9046632D01*
X18398910Y9046634D01*
X18398899Y9046639D01*
X18216843Y9122049D01*
X18216838Y9122051D01*
X18216825Y9122055D01*
X18216826Y9122055D01*
X18087388Y9147800D01*
X18087387Y9147801D01*
X18036240Y9157975D01*
X18023541Y9160500D01*
X18023540Y9160500D01*
X17826459Y9160500D01*
X17771662Y9149602D01*
X17771662Y9149601D01*
X17744115Y9144122D01*
X17633171Y9122054D01*
X17633161Y9122051D01*
X17633155Y9122049D01*
X17451086Y9046634D01*
X17286948Y8936961D01*
X17285567Y8935489D01*
X17149511Y8799433D01*
X17148039Y8798052D01*
X17038366Y8633914D01*
X16962951Y8451845D01*
X16962949Y8451839D01*
X16962946Y8451829D01*
X16930964Y8291036D01*
X16924500Y8258540D01*
X16155500Y8258540D01*
X16155500Y8258541D01*
X16117051Y8451835D01*
X16092270Y8511661D01*
X16041632Y8633914D01*
X15932139Y8797782D01*
X15792781Y8937140D01*
X15671624Y9018094D01*
X15664415Y9028882D01*
X15628915Y9046632D01*
X15628910Y9046634D01*
X15628899Y9046639D01*
X15446843Y9122049D01*
X15446838Y9122051D01*
X15446825Y9122055D01*
X15446826Y9122055D01*
X15317388Y9147800D01*
X15317387Y9147801D01*
X15266240Y9157975D01*
X15253541Y9160500D01*
X15253540Y9160500D01*
X15056459Y9160500D01*
X15001662Y9149602D01*
X15001662Y9149601D01*
X14974115Y9144122D01*
X14863171Y9122054D01*
X14863161Y9122051D01*
X14863155Y9122049D01*
X14681086Y9046634D01*
X14516948Y8936961D01*
X14515567Y8935489D01*
X14379511Y8799433D01*
X14378039Y8798052D01*
X14268366Y8633914D01*
X14192951Y8451845D01*
X14192949Y8451839D01*
X14192946Y8451829D01*
X14160964Y8291036D01*
X14154500Y8258540D01*
X13385500Y8258540D01*
X13385500Y8258541D01*
X13347051Y8451835D01*
X13322270Y8511661D01*
X13271632Y8633914D01*
X13162139Y8797782D01*
X13022781Y8937140D01*
X12901624Y9018094D01*
X12894415Y9028882D01*
X12858915Y9046632D01*
X12858910Y9046634D01*
X12858899Y9046639D01*
X12676843Y9122049D01*
X12676838Y9122051D01*
X12676825Y9122055D01*
X12676826Y9122055D01*
X12547388Y9147800D01*
X12547387Y9147801D01*
X12496240Y9157975D01*
X12483541Y9160500D01*
X12483540Y9160500D01*
X12286459Y9160500D01*
X12231662Y9149602D01*
X12231662Y9149601D01*
X12204115Y9144122D01*
X12093171Y9122054D01*
X12093161Y9122051D01*
X12093155Y9122049D01*
X11911086Y9046634D01*
X11746948Y8936961D01*
X11745567Y8935489D01*
X11609511Y8799433D01*
X11608039Y8798052D01*
X11498366Y8633914D01*
X11422951Y8451845D01*
X11422949Y8451839D01*
X11422946Y8451829D01*
X11390964Y8291036D01*
X11384500Y8258540D01*
X300500Y8258540D01*
X300500Y9694186D01*
X57999500Y9694186D01*
X57999500Y9555815D01*
X58035310Y9422169D01*
X58035312Y9422164D01*
X58104495Y9302335D01*
X58202335Y9204495D01*
X58322164Y9135312D01*
X58451133Y9100756D01*
X58454831Y9099500D01*
X58594185Y9099500D01*
X58604448Y9099500D01*
X58613336Y9104633D01*
X58727836Y9135312D01*
X58847665Y9204495D01*
X58945505Y9302335D01*
X59014688Y9422164D01*
X59045367Y9536664D01*
X59050500Y9545553D01*
X59050500Y9695170D01*
X59049244Y9698867D01*
X59014838Y9827274D01*
X59014701Y9827803D01*
X59014689Y9827834D01*
X58945504Y9947666D01*
X58847665Y10045505D01*
X58730122Y10113368D01*
X58727836Y10114688D01*
X58727831Y10114690D01*
X58594185Y10150500D01*
X58594184Y10150500D01*
X58455816Y10150500D01*
X58455815Y10150500D01*
X58322168Y10114690D01*
X58322163Y10114688D01*
X58319877Y10113368D01*
X58202333Y10045505D01*
X58104495Y9947667D01*
X58035311Y9827836D01*
X58035310Y9827832D01*
X57999500Y9694186D01*
X300500Y9694186D01*
X300500Y11819747D01*
X9999500Y11819747D01*
X9999500Y10180254D01*
X10001813Y10168622D01*
X10011132Y10121769D01*
X10011133Y10121768D01*
X10015863Y10114690D01*
X10055448Y10055448D01*
X10099559Y10025974D01*
X10099560Y10025973D01*
X10115710Y10015181D01*
X10118539Y10012860D01*
X10118562Y10012847D01*
X10121698Y10010967D01*
X10125258Y10010075D01*
X10125273Y10010071D01*
X10128910Y10009712D01*
X10180252Y9999500D01*
X10180254Y9999500D01*
X11819746Y9999500D01*
X11819748Y9999500D01*
X11878231Y10011133D01*
X11878232Y10011134D01*
X11944552Y10055448D01*
X11988867Y10121769D01*
X12000500Y10180252D01*
X12000500Y11098540D01*
X12769500Y11098540D01*
X12769500Y10901461D01*
X12777685Y10860313D01*
X12807946Y10708173D01*
X12807949Y10708162D01*
X12807951Y10708157D01*
X12883366Y10526088D01*
X12883368Y10526086D01*
X12992860Y10362219D01*
X13132218Y10222861D01*
X13296086Y10113368D01*
X13296091Y10113366D01*
X13296090Y10113366D01*
X13435913Y10055450D01*
X13478165Y10037949D01*
X13671459Y9999500D01*
X13671461Y9999500D01*
X13868539Y9999500D01*
X13868541Y9999500D01*
X14061835Y10037949D01*
X14243914Y10113368D01*
X14407782Y10222861D01*
X14547139Y10362218D01*
X14656632Y10526086D01*
X14732051Y10708165D01*
X14770500Y10901459D01*
X14770500Y11098540D01*
X18309500Y11098540D01*
X18309500Y10901461D01*
X18317685Y10860313D01*
X18347946Y10708173D01*
X18347949Y10708162D01*
X18347951Y10708157D01*
X18423366Y10526088D01*
X18423368Y10526086D01*
X18532860Y10362219D01*
X18672218Y10222861D01*
X18836086Y10113368D01*
X18836091Y10113366D01*
X18836090Y10113366D01*
X18975913Y10055450D01*
X19018165Y10037949D01*
X19211459Y9999500D01*
X19211461Y9999500D01*
X19408539Y9999500D01*
X19408541Y9999500D01*
X19601835Y10037949D01*
X19783914Y10113368D01*
X19947782Y10222861D01*
X20087139Y10362218D01*
X20196632Y10526086D01*
X20272051Y10708165D01*
X20310500Y10901459D01*
X20310500Y11098540D01*
X21079500Y11098540D01*
X21079500Y10901461D01*
X21087685Y10860313D01*
X21117946Y10708173D01*
X21117949Y10708162D01*
X21117951Y10708157D01*
X21193366Y10526088D01*
X21193368Y10526086D01*
X21302860Y10362219D01*
X21442218Y10222861D01*
X21606086Y10113368D01*
X21606091Y10113366D01*
X21606090Y10113366D01*
X21745913Y10055450D01*
X21788165Y10037949D01*
X21981459Y9999500D01*
X21981461Y9999500D01*
X22178539Y9999500D01*
X22178541Y9999500D01*
X22371835Y10037949D01*
X22553914Y10113368D01*
X22717782Y10222861D01*
X22857139Y10362218D01*
X22966632Y10526086D01*
X23042051Y10708165D01*
X23080500Y10901459D01*
X23080500Y11098541D01*
X23042051Y11291835D01*
X22989301Y11419185D01*
X22989301Y11419186D01*
X48774500Y11419186D01*
X48774500Y11280815D01*
X48810310Y11147169D01*
X48810312Y11147164D01*
X48879495Y11027335D01*
X48977335Y10929495D01*
X49097164Y10860312D01*
X49226133Y10825756D01*
X49229831Y10824500D01*
X49369185Y10824500D01*
X49379448Y10824500D01*
X49388336Y10829633D01*
X49502836Y10860312D01*
X49622665Y10929495D01*
X49720505Y11027335D01*
X49789688Y11147164D01*
X49820367Y11261664D01*
X49825500Y11270553D01*
X49825500Y11420170D01*
X49824244Y11423867D01*
X49789838Y11552274D01*
X49789701Y11552803D01*
X49789689Y11552834D01*
X49789687Y11552837D01*
X49720505Y11672665D01*
X49622665Y11770505D01*
X49502836Y11839688D01*
X49502831Y11839690D01*
X49369185Y11875500D01*
X49369184Y11875500D01*
X49230816Y11875500D01*
X49230815Y11875500D01*
X49097168Y11839690D01*
X49097166Y11839690D01*
X49097165Y11839689D01*
X48977333Y11770505D01*
X48879495Y11672667D01*
X48810311Y11552836D01*
X48810310Y11552832D01*
X48774500Y11419186D01*
X22989301Y11419186D01*
X22966632Y11473914D01*
X22857139Y11637782D01*
X22857138Y11637783D01*
X22809608Y11685313D01*
X22717782Y11777139D01*
X22717778Y11777142D01*
X22717776Y11777144D01*
X22654014Y11819748D01*
X22553912Y11886634D01*
X22371843Y11962049D01*
X22371838Y11962051D01*
X22371827Y11962054D01*
X22237023Y11988867D01*
X22233328Y11989602D01*
X22178541Y12000500D01*
X22178539Y12000500D01*
X21981459Y12000500D01*
X21926662Y11989602D01*
X21926662Y11989601D01*
X21899429Y11984184D01*
X21788171Y11962054D01*
X21788161Y11962051D01*
X21788155Y11962049D01*
X21606086Y11886634D01*
X21441948Y11776961D01*
X21440567Y11775489D01*
X21304511Y11639433D01*
X21303039Y11638052D01*
X21193366Y11473914D01*
X21117951Y11291845D01*
X21117949Y11291839D01*
X21117946Y11291829D01*
X21089173Y11147169D01*
X21079500Y11098540D01*
X20310500Y11098540D01*
X20310500Y11098541D01*
X20272051Y11291835D01*
X20196632Y11473914D01*
X20087139Y11637782D01*
X19947782Y11777139D01*
X19947778Y11777142D01*
X19947776Y11777144D01*
X19884014Y11819748D01*
X19783912Y11886634D01*
X19601843Y11962049D01*
X19601838Y11962051D01*
X19601827Y11962054D01*
X19467023Y11988867D01*
X19463328Y11989602D01*
X19408541Y12000500D01*
X19408539Y12000500D01*
X19211459Y12000500D01*
X19156662Y11989602D01*
X19156662Y11989601D01*
X19129429Y11984184D01*
X19018171Y11962054D01*
X19018161Y11962051D01*
X19018155Y11962049D01*
X18836086Y11886634D01*
X18671948Y11776961D01*
X18670567Y11775489D01*
X18534511Y11639433D01*
X18533039Y11638052D01*
X18423366Y11473914D01*
X18347951Y11291845D01*
X18347949Y11291839D01*
X18347946Y11291829D01*
X18319173Y11147169D01*
X18309500Y11098540D01*
X14770500Y11098540D01*
X14770500Y11098541D01*
X14732051Y11291835D01*
X14656632Y11473914D01*
X14547139Y11637782D01*
X14407782Y11777139D01*
X14407778Y11777142D01*
X14407776Y11777144D01*
X14344014Y11819748D01*
X14243912Y11886634D01*
X14061843Y11962049D01*
X14061838Y11962051D01*
X14061827Y11962054D01*
X13927023Y11988867D01*
X13923328Y11989602D01*
X13868541Y12000500D01*
X13868539Y12000500D01*
X13671459Y12000500D01*
X13616662Y11989602D01*
X13616662Y11989601D01*
X13589429Y11984184D01*
X13478171Y11962054D01*
X13478161Y11962051D01*
X13478155Y11962049D01*
X13296086Y11886634D01*
X13131948Y11776961D01*
X13130567Y11775489D01*
X12994511Y11639433D01*
X12993039Y11638052D01*
X12883366Y11473914D01*
X12807951Y11291845D01*
X12807949Y11291839D01*
X12807946Y11291829D01*
X12779173Y11147169D01*
X12769500Y11098540D01*
X12000500Y11098540D01*
X12000500Y11819748D01*
X11988867Y11878231D01*
X11944552Y11944552D01*
X11918360Y11962053D01*
X11918357Y11962058D01*
X11918356Y11962056D01*
X11915106Y11964228D01*
X11901774Y11984184D01*
X11878232Y11988867D01*
X11878233Y11988867D01*
X11848989Y11994684D01*
X11848988Y11994685D01*
X11819748Y12000500D01*
X10180252Y12000500D01*
X10151010Y11994685D01*
X10151010Y11994684D01*
X10143749Y11993240D01*
X10121769Y11988868D01*
X10121766Y11988867D01*
X10055451Y11944555D01*
X10055448Y11944553D01*
X10011133Y11878234D01*
X10003467Y11839689D01*
X9999500Y11819747D01*
X300500Y11819747D01*
X300500Y12244186D01*
X45899500Y12244186D01*
X45899500Y12105815D01*
X45935310Y11972169D01*
X45935312Y11972164D01*
X46004495Y11852335D01*
X46102335Y11754495D01*
X46222164Y11685312D01*
X46351133Y11650756D01*
X46354831Y11649500D01*
X46494185Y11649500D01*
X46504448Y11649500D01*
X46513336Y11654633D01*
X46627836Y11685312D01*
X46747665Y11754495D01*
X46845505Y11852335D01*
X46914688Y11972164D01*
X46945367Y12086664D01*
X46950500Y12095553D01*
X46950500Y12241746D01*
X46950500Y12244185D01*
X46950499Y12244186D01*
X50999500Y12244186D01*
X50999500Y12105815D01*
X51035310Y11972169D01*
X51035312Y11972164D01*
X51104495Y11852335D01*
X51202335Y11754495D01*
X51322164Y11685312D01*
X51451133Y11650756D01*
X51454831Y11649500D01*
X51594185Y11649500D01*
X51604448Y11649500D01*
X51613336Y11654633D01*
X51727836Y11685312D01*
X51847665Y11754495D01*
X51945505Y11852335D01*
X52014688Y11972164D01*
X52045367Y12086664D01*
X52050500Y12095553D01*
X52050500Y12245170D01*
X52049244Y12248867D01*
X52014838Y12377274D01*
X52014701Y12377803D01*
X52014689Y12377834D01*
X51951315Y12487601D01*
X51945505Y12497665D01*
X51847665Y12595505D01*
X51727836Y12664688D01*
X51727831Y12664690D01*
X51594185Y12700500D01*
X51594184Y12700500D01*
X51455816Y12700500D01*
X51455815Y12700500D01*
X51322168Y12664690D01*
X51322166Y12664690D01*
X51322165Y12664689D01*
X51202333Y12595505D01*
X51104495Y12497667D01*
X51035311Y12377836D01*
X51035310Y12377832D01*
X50999500Y12244186D01*
X46950499Y12244186D01*
X46914838Y12377274D01*
X46914701Y12377803D01*
X46914689Y12377834D01*
X46851315Y12487601D01*
X46845505Y12497665D01*
X46747665Y12595505D01*
X46627836Y12664688D01*
X46627831Y12664690D01*
X46494185Y12700500D01*
X46494184Y12700500D01*
X46355816Y12700500D01*
X46355815Y12700500D01*
X46222168Y12664690D01*
X46222166Y12664690D01*
X46222165Y12664689D01*
X46102333Y12595505D01*
X46004495Y12497667D01*
X45935311Y12377836D01*
X45935310Y12377832D01*
X45899500Y12244186D01*
X300500Y12244186D01*
X300500Y13082286D01*
X57757600Y13082286D01*
X57757600Y12943915D01*
X57793410Y12810269D01*
X57793412Y12810264D01*
X57862595Y12690435D01*
X57960435Y12592595D01*
X58080264Y12523412D01*
X58209233Y12488856D01*
X58212931Y12487600D01*
X58352285Y12487600D01*
X58362548Y12487600D01*
X58371436Y12492733D01*
X58485936Y12523412D01*
X58605765Y12592595D01*
X58703605Y12690435D01*
X58772788Y12810264D01*
X58803467Y12924764D01*
X58808600Y12933653D01*
X58808600Y13083270D01*
X58807344Y13086967D01*
X58772938Y13215374D01*
X58772801Y13215903D01*
X58772789Y13215934D01*
X58703604Y13335766D01*
X58605765Y13433605D01*
X58485934Y13502789D01*
X58485932Y13502790D01*
X58485931Y13502790D01*
X58352285Y13538600D01*
X58352284Y13538600D01*
X58213916Y13538600D01*
X58213915Y13538600D01*
X58080268Y13502790D01*
X58080266Y13502790D01*
X58080265Y13502789D01*
X57960433Y13433605D01*
X57862595Y13335767D01*
X57793411Y13215936D01*
X57793410Y13215932D01*
X57757600Y13082286D01*
X300500Y13082286D01*
X300500Y14569186D01*
X23474500Y14569186D01*
X23474500Y14430815D01*
X23510310Y14297169D01*
X23510312Y14297164D01*
X23579495Y14177335D01*
X23677335Y14079495D01*
X23797164Y14010312D01*
X23926133Y13975756D01*
X23929831Y13974500D01*
X24069185Y13974500D01*
X24079448Y13974500D01*
X24088336Y13979633D01*
X24202836Y14010312D01*
X24322665Y14079495D01*
X24420505Y14177335D01*
X24489688Y14297164D01*
X24520367Y14411664D01*
X24525500Y14420553D01*
X24525500Y14570170D01*
X24524244Y14573867D01*
X24489838Y14702274D01*
X24489701Y14702803D01*
X24489689Y14702834D01*
X24420504Y14822666D01*
X24322665Y14920505D01*
X24202834Y14989689D01*
X24202832Y14989690D01*
X24202831Y14989690D01*
X24069185Y15025500D01*
X24069184Y15025500D01*
X23930816Y15025500D01*
X23930815Y15025500D01*
X23797168Y14989690D01*
X23797166Y14989690D01*
X23797165Y14989689D01*
X23677333Y14920505D01*
X23579495Y14822667D01*
X23510311Y14702836D01*
X23510310Y14702832D01*
X23474500Y14569186D01*
X300500Y14569186D01*
X300500Y36594186D01*
X8024500Y36594186D01*
X8024500Y36455815D01*
X8060310Y36322169D01*
X8060312Y36322164D01*
X8129495Y36202335D01*
X8227335Y36104495D01*
X8347164Y36035312D01*
X8476133Y36000756D01*
X8479831Y35999500D01*
X8619185Y35999500D01*
X8629448Y35999500D01*
X8638336Y36004633D01*
X8752836Y36035312D01*
X8872665Y36104495D01*
X8970505Y36202335D01*
X9039688Y36322164D01*
X9070367Y36436664D01*
X9075500Y36445553D01*
X9075500Y36595170D01*
X9074244Y36598867D01*
X9039838Y36727274D01*
X9039701Y36727803D01*
X9039689Y36727834D01*
X9033206Y36739063D01*
X8970505Y36847665D01*
X8872665Y36945505D01*
X8752836Y37014688D01*
X8752831Y37014690D01*
X8619185Y37050500D01*
X8619184Y37050500D01*
X8480816Y37050500D01*
X8480815Y37050500D01*
X8347168Y37014690D01*
X8347166Y37014690D01*
X8347165Y37014689D01*
X8227333Y36945505D01*
X8129495Y36847667D01*
X8060311Y36727836D01*
X8060310Y36727832D01*
X8024500Y36594186D01*
X300500Y36594186D01*
X300500Y46118093D01*
X2499500Y46118093D01*
X2499500Y45881908D01*
X2530599Y45685550D01*
X2536447Y45648630D01*
X2536453Y45648606D01*
X2609426Y45424020D01*
X2716655Y45213568D01*
X2814065Y45079496D01*
X2855480Y45022493D01*
X3022549Y44855424D01*
X3022682Y44855312D01*
X3023705Y44854600D01*
X3067660Y44822665D01*
X3213567Y44716657D01*
X3213576Y44716652D01*
X3420163Y44611390D01*
X3421102Y44610841D01*
X3423299Y44609777D01*
X3424528Y44609167D01*
X3426767Y44608535D01*
X3646303Y44537203D01*
X3647867Y44536637D01*
X3648039Y44536586D01*
X3648477Y44536472D01*
X3648630Y44536448D01*
X3648632Y44536447D01*
X3804149Y44511816D01*
X3823589Y44508737D01*
X3881906Y44499500D01*
X4118093Y44499500D01*
X4118094Y44499500D01*
X4132672Y44501810D01*
X4176411Y44508737D01*
X4351368Y44536447D01*
X4351368Y44536448D01*
X4351512Y44536470D01*
X4352561Y44536791D01*
X4353230Y44536985D01*
X4354550Y44537481D01*
X4533129Y44595505D01*
X4573228Y44608534D01*
X4575986Y44609430D01*
X4575986Y44609431D01*
X4575992Y44609432D01*
X4786433Y44716657D01*
X4977510Y44855483D01*
X5144517Y45022490D01*
X5283343Y45213567D01*
X5390568Y45424008D01*
X5394444Y45435935D01*
X5403232Y45462982D01*
X5422485Y45522236D01*
X5446745Y45596900D01*
X5462524Y45645468D01*
X5463015Y45646771D01*
X5463209Y45647441D01*
X5463530Y45648489D01*
X5465968Y45663877D01*
X5500500Y45881908D01*
X5500500Y46118092D01*
X5463553Y46351368D01*
X5463552Y46351370D01*
X5463528Y46351523D01*
X5463414Y46351961D01*
X5463363Y46352133D01*
X5462795Y46353702D01*
X5459303Y46364448D01*
X5398635Y46551166D01*
X5392779Y46569186D01*
X5392782Y46569187D01*
X5392774Y46569200D01*
X5390568Y46575992D01*
X5283343Y46786433D01*
X5144517Y46977510D01*
X4977510Y47144517D01*
X4977507Y47144520D01*
X4977504Y47144523D01*
X4977476Y47144543D01*
X4977251Y47144706D01*
X4786432Y47283345D01*
X4575980Y47390574D01*
X4351394Y47463547D01*
X4351370Y47463553D01*
X4351367Y47463554D01*
X4351365Y47463554D01*
X4218910Y47484533D01*
X4118094Y47500500D01*
X4118093Y47500500D01*
X4118092Y47500500D01*
X3881908Y47500500D01*
X3881907Y47500500D01*
X3881906Y47500500D01*
X3648628Y47463553D01*
X3648604Y47463547D01*
X3424018Y47390574D01*
X3213566Y47283345D01*
X3022498Y47144525D01*
X2855475Y46977502D01*
X2716655Y46786434D01*
X2609426Y46575982D01*
X2536453Y46351396D01*
X2536448Y46351373D01*
X2536446Y46351366D01*
X2532384Y46325716D01*
X2504319Y46148517D01*
X2499500Y46118093D01*
X300500Y46118093D01*
X300500Y49610782D01*
X306129Y49639091D01*
X310443Y49649506D01*
X350482Y49689552D01*
X360911Y49693872D01*
X389219Y49699500D01*
X33911281Y49699500D01*
X33939591Y49693871D01*
G37*
%TD.AperFunction*%
%TA.AperFunction,Conductor*%
G36*
X9026535Y19817480D02*
G01*
X9089109Y19800713D01*
X9106955Y19793321D01*
X9163044Y19760938D01*
X9178366Y19749181D01*
X9224175Y19703373D01*
X9235934Y19688048D01*
X9268321Y19631954D01*
X9275714Y19614106D01*
X9292478Y19551544D01*
X9295000Y19532391D01*
X9295000Y19467612D01*
X9292478Y19448458D01*
X9275713Y19385895D01*
X9268321Y19368050D01*
X9235937Y19311958D01*
X9224177Y19296631D01*
X9178369Y19250823D01*
X9163042Y19239063D01*
X9106950Y19206679D01*
X9089105Y19199287D01*
X9042895Y19186905D01*
X9026540Y19182522D01*
X9007388Y19180000D01*
X8942611Y19180000D01*
X8923458Y19182522D01*
X8900883Y19188572D01*
X8860893Y19199287D01*
X8843048Y19206679D01*
X8786956Y19239063D01*
X8771629Y19250823D01*
X8725821Y19296631D01*
X8714061Y19311958D01*
X8681679Y19368047D01*
X8674286Y19385893D01*
X8657521Y19448461D01*
X8655000Y19467614D01*
X8655000Y19532391D01*
X8657521Y19551543D01*
X8674284Y19614106D01*
X8674285Y19614112D01*
X8681677Y19631954D01*
X8714062Y19688048D01*
X8725815Y19703365D01*
X8771635Y19749185D01*
X8786952Y19760938D01*
X8843051Y19793327D01*
X8860888Y19800715D01*
X8908099Y19813364D01*
X8923459Y19817479D01*
X8942610Y19820000D01*
X9007384Y19820000D01*
X9026535Y19817480D01*
G37*
%TD.AperFunction*%
%TA.AperFunction,Conductor*%
G36*
X26451535Y22417480D02*
G01*
X26514109Y22400713D01*
X26531955Y22393321D01*
X26588044Y22360938D01*
X26603366Y22349181D01*
X26649175Y22303373D01*
X26660934Y22288048D01*
X26693321Y22231954D01*
X26700714Y22214106D01*
X26717478Y22151544D01*
X26720000Y22132391D01*
X26720000Y22067612D01*
X26717478Y22048458D01*
X26700713Y21985895D01*
X26693321Y21968050D01*
X26660937Y21911958D01*
X26649177Y21896631D01*
X26603369Y21850823D01*
X26588042Y21839063D01*
X26531950Y21806679D01*
X26514105Y21799287D01*
X26467895Y21786905D01*
X26451540Y21782522D01*
X26432388Y21780000D01*
X26367611Y21780000D01*
X26348458Y21782522D01*
X26325883Y21788572D01*
X26285893Y21799287D01*
X26268048Y21806679D01*
X26211956Y21839063D01*
X26196629Y21850823D01*
X26150821Y21896631D01*
X26139061Y21911958D01*
X26106679Y21968047D01*
X26099286Y21985893D01*
X26082521Y22048461D01*
X26080000Y22067614D01*
X26080000Y22132391D01*
X26082521Y22151543D01*
X26099284Y22214106D01*
X26099285Y22214112D01*
X26106677Y22231954D01*
X26139062Y22288048D01*
X26150815Y22303365D01*
X26196635Y22349185D01*
X26211952Y22360938D01*
X26268051Y22393327D01*
X26285888Y22400715D01*
X26333099Y22413364D01*
X26348459Y22417479D01*
X26367610Y22420000D01*
X26432384Y22420000D01*
X26451535Y22417480D01*
G37*
%TD.AperFunction*%
%TA.AperFunction,Conductor*%
G36*
X37051535Y23317479D02*
G01*
X37087758Y23307774D01*
X37114105Y23300715D01*
X37131953Y23293322D01*
X37188045Y23260937D01*
X37203371Y23249177D01*
X37249177Y23203371D01*
X37260937Y23188044D01*
X37293321Y23131952D01*
X37300713Y23114107D01*
X37317478Y23051544D01*
X37320000Y23032390D01*
X37320000Y22967616D01*
X37317478Y22948463D01*
X37299080Y22879802D01*
X37293974Y22866233D01*
X37289158Y22856467D01*
X37289151Y22856450D01*
X37281758Y22838599D01*
X37281756Y22838595D01*
X37271025Y22806978D01*
X37264504Y22707495D01*
X37271895Y22651347D01*
X37271896Y22651343D01*
X37303936Y22556949D01*
X37303938Y22556946D01*
X37303939Y22556944D01*
X37369669Y22481992D01*
X37414596Y22447517D01*
X37414598Y22447516D01*
X37414602Y22447513D01*
X37414604Y22447512D01*
X37445662Y22432196D01*
X37504009Y22403421D01*
X37504011Y22403421D01*
X37504014Y22403419D01*
X37514102Y22400716D01*
X37531952Y22393323D01*
X37588046Y22360936D01*
X37603366Y22349181D01*
X37649175Y22303373D01*
X37660934Y22288048D01*
X37693321Y22231954D01*
X37700714Y22214106D01*
X37717478Y22151544D01*
X37720000Y22132391D01*
X37720000Y22067612D01*
X37717478Y22048458D01*
X37700713Y21985895D01*
X37693321Y21968050D01*
X37660937Y21911958D01*
X37649177Y21896631D01*
X37603369Y21850823D01*
X37588042Y21839063D01*
X37531950Y21806679D01*
X37514105Y21799287D01*
X37467895Y21786905D01*
X37451540Y21782522D01*
X37432388Y21780000D01*
X37367611Y21780000D01*
X37348458Y21782522D01*
X37325883Y21788572D01*
X37285893Y21799287D01*
X37268048Y21806679D01*
X37211956Y21839063D01*
X37196629Y21850823D01*
X37150821Y21896631D01*
X37139061Y21911958D01*
X37106679Y21968047D01*
X37099286Y21985893D01*
X37082521Y22048461D01*
X37080000Y22067614D01*
X37080000Y22132391D01*
X37082521Y22151543D01*
X37100915Y22220194D01*
X37106029Y22233778D01*
X37110839Y22243530D01*
X37110840Y22243532D01*
X37118232Y22261377D01*
X37128976Y22293030D01*
X37135496Y22392508D01*
X37128103Y22448661D01*
X37096061Y22543055D01*
X37030332Y22618009D01*
X36985400Y22652488D01*
X36985391Y22652494D01*
X36985388Y22652496D01*
X36895986Y22696582D01*
X36895982Y22696583D01*
X36895980Y22696584D01*
X36885887Y22699289D01*
X36868046Y22706679D01*
X36811955Y22739063D01*
X36796629Y22750823D01*
X36750823Y22796629D01*
X36739063Y22811955D01*
X36739061Y22811958D01*
X36706675Y22868052D01*
X36699283Y22885900D01*
X36682521Y22948461D01*
X36680000Y22967612D01*
X36680000Y23032391D01*
X36682521Y23051543D01*
X36699284Y23114106D01*
X36699285Y23114112D01*
X36706676Y23131952D01*
X36739062Y23188048D01*
X36750815Y23203365D01*
X36796635Y23249185D01*
X36811952Y23260938D01*
X36868051Y23293327D01*
X36885888Y23300715D01*
X36933099Y23313364D01*
X36948459Y23317479D01*
X36967610Y23320000D01*
X37032384Y23320000D01*
X37051535Y23317479D01*
G37*
%TD.AperFunction*%
%TA.AperFunction,Conductor*%
G36*
X32051535Y23317479D02*
G01*
X32087758Y23307774D01*
X32114105Y23300715D01*
X32131953Y23293322D01*
X32188045Y23260937D01*
X32203371Y23249177D01*
X32249177Y23203371D01*
X32260937Y23188044D01*
X32293321Y23131952D01*
X32300713Y23114107D01*
X32317478Y23051544D01*
X32320000Y23032390D01*
X32320000Y22967612D01*
X32317478Y22948458D01*
X32300713Y22885895D01*
X32293321Y22868050D01*
X32260937Y22811958D01*
X32249177Y22796631D01*
X32203369Y22750823D01*
X32188042Y22739063D01*
X32131950Y22706679D01*
X32114105Y22699287D01*
X32067895Y22686905D01*
X32051540Y22682522D01*
X32032388Y22680000D01*
X31967611Y22680000D01*
X31948458Y22682522D01*
X31925883Y22688572D01*
X31885893Y22699287D01*
X31868048Y22706679D01*
X31811956Y22739063D01*
X31796629Y22750823D01*
X31750823Y22796629D01*
X31739063Y22811955D01*
X31739061Y22811958D01*
X31706675Y22868052D01*
X31699283Y22885900D01*
X31682521Y22948461D01*
X31680000Y22967612D01*
X31680000Y23032391D01*
X31682521Y23051543D01*
X31699284Y23114106D01*
X31699285Y23114112D01*
X31706676Y23131952D01*
X31739062Y23188048D01*
X31750815Y23203365D01*
X31796635Y23249185D01*
X31811952Y23260938D01*
X31868051Y23293327D01*
X31885888Y23300715D01*
X31933099Y23313364D01*
X31948459Y23317479D01*
X31967610Y23320000D01*
X32032384Y23320000D01*
X32051535Y23317479D01*
G37*
%TD.AperFunction*%
%TA.AperFunction,Conductor*%
G36*
X49051535Y23317479D02*
G01*
X49087758Y23307774D01*
X49114105Y23300715D01*
X49131953Y23293322D01*
X49188045Y23260937D01*
X49203371Y23249177D01*
X49249177Y23203371D01*
X49260937Y23188045D01*
X49293320Y23131955D01*
X49293322Y23131953D01*
X49300714Y23114106D01*
X49317478Y23051544D01*
X49320000Y23032391D01*
X49320000Y22967612D01*
X49317478Y22948458D01*
X49300713Y22885895D01*
X49293321Y22868050D01*
X49260937Y22811958D01*
X49249177Y22796631D01*
X49203369Y22750823D01*
X49188042Y22739063D01*
X49131950Y22706679D01*
X49114105Y22699287D01*
X49067895Y22686905D01*
X49051540Y22682522D01*
X49032388Y22680000D01*
X48967611Y22680000D01*
X48948458Y22682522D01*
X48925883Y22688572D01*
X48885893Y22699287D01*
X48868048Y22706679D01*
X48811956Y22739063D01*
X48796629Y22750823D01*
X48750823Y22796629D01*
X48739063Y22811955D01*
X48739061Y22811958D01*
X48706675Y22868052D01*
X48699283Y22885900D01*
X48682521Y22948461D01*
X48680000Y22967612D01*
X48680000Y23032391D01*
X48682521Y23051543D01*
X48699284Y23114106D01*
X48699285Y23114112D01*
X48706676Y23131952D01*
X48739062Y23188048D01*
X48750815Y23203365D01*
X48796635Y23249185D01*
X48811952Y23260938D01*
X48868051Y23293327D01*
X48885888Y23300715D01*
X48933099Y23313364D01*
X48948459Y23317479D01*
X48967610Y23320000D01*
X49032384Y23320000D01*
X49051535Y23317479D01*
G37*
%TD.AperFunction*%
%TA.AperFunction,Conductor*%
G36*
X16386535Y26367480D02*
G01*
X16449109Y26350713D01*
X16466955Y26343321D01*
X16523044Y26310938D01*
X16538366Y26299181D01*
X16584175Y26253373D01*
X16595934Y26238048D01*
X16628321Y26181954D01*
X16635714Y26164106D01*
X16652478Y26101544D01*
X16655000Y26082391D01*
X16655000Y26017612D01*
X16652478Y25998458D01*
X16635713Y25935895D01*
X16628321Y25918050D01*
X16595937Y25861958D01*
X16584177Y25846631D01*
X16538369Y25800823D01*
X16523042Y25789063D01*
X16466950Y25756679D01*
X16449105Y25749287D01*
X16402895Y25736905D01*
X16386540Y25732522D01*
X16367388Y25730000D01*
X16302611Y25730000D01*
X16283458Y25732522D01*
X16260883Y25738572D01*
X16220893Y25749287D01*
X16203048Y25756679D01*
X16146956Y25789063D01*
X16131629Y25800823D01*
X16085821Y25846631D01*
X16074061Y25861958D01*
X16041679Y25918047D01*
X16034286Y25935893D01*
X16017521Y25998461D01*
X16015000Y26017614D01*
X16015000Y26082391D01*
X16017521Y26101543D01*
X16034284Y26164106D01*
X16034285Y26164112D01*
X16041677Y26181954D01*
X16074062Y26238048D01*
X16085815Y26253365D01*
X16131635Y26299185D01*
X16146952Y26310938D01*
X16203051Y26343327D01*
X16220888Y26350715D01*
X16268099Y26363364D01*
X16283459Y26367479D01*
X16302610Y26370000D01*
X16367384Y26370000D01*
X16386535Y26367480D01*
G37*
%TD.AperFunction*%
%TA.AperFunction,Conductor*%
G36*
X37051535Y28317480D02*
G01*
X37114109Y28300713D01*
X37131955Y28293321D01*
X37188044Y28260938D01*
X37203366Y28249181D01*
X37229087Y28223461D01*
X37249175Y28203373D01*
X37260935Y28188047D01*
X37293321Y28131953D01*
X37300713Y28114107D01*
X37307988Y28086958D01*
X37317132Y28052832D01*
X37317478Y28051544D01*
X37320000Y28032390D01*
X37320000Y27967612D01*
X37317478Y27948458D01*
X37300713Y27885895D01*
X37293321Y27868050D01*
X37260937Y27811958D01*
X37249177Y27796631D01*
X37203369Y27750823D01*
X37188042Y27739063D01*
X37131950Y27706679D01*
X37114105Y27699287D01*
X37067895Y27686905D01*
X37051540Y27682522D01*
X37032388Y27680000D01*
X36967611Y27680000D01*
X36948458Y27682522D01*
X36925883Y27688572D01*
X36885893Y27699287D01*
X36868048Y27706679D01*
X36811956Y27739063D01*
X36796629Y27750823D01*
X36750823Y27796629D01*
X36739063Y27811955D01*
X36739061Y27811958D01*
X36706675Y27868052D01*
X36699283Y27885900D01*
X36682521Y27948461D01*
X36680000Y27967612D01*
X36680000Y28032391D01*
X36682521Y28051543D01*
X36682866Y28052832D01*
X36699285Y28114112D01*
X36706675Y28131951D01*
X36739062Y28188048D01*
X36750815Y28203365D01*
X36796635Y28249185D01*
X36811952Y28260938D01*
X36868051Y28293327D01*
X36885888Y28300715D01*
X36947171Y28317134D01*
X36948459Y28317479D01*
X36967610Y28320000D01*
X37032384Y28320000D01*
X37051535Y28317480D01*
G37*
%TD.AperFunction*%
%TA.AperFunction,Conductor*%
G36*
X44051535Y28317480D02*
G01*
X44114109Y28300713D01*
X44131955Y28293321D01*
X44188044Y28260938D01*
X44203366Y28249181D01*
X44229087Y28223461D01*
X44249175Y28203373D01*
X44260935Y28188047D01*
X44293321Y28131953D01*
X44300713Y28114107D01*
X44307988Y28086958D01*
X44317132Y28052832D01*
X44317478Y28051544D01*
X44320000Y28032390D01*
X44320000Y27967612D01*
X44317478Y27948458D01*
X44300713Y27885895D01*
X44293321Y27868050D01*
X44260937Y27811958D01*
X44249177Y27796631D01*
X44203369Y27750823D01*
X44188042Y27739063D01*
X44131950Y27706679D01*
X44114105Y27699287D01*
X44067895Y27686905D01*
X44051540Y27682522D01*
X44032388Y27680000D01*
X43967611Y27680000D01*
X43948458Y27682522D01*
X43925883Y27688572D01*
X43885893Y27699287D01*
X43868048Y27706679D01*
X43811956Y27739063D01*
X43796629Y27750823D01*
X43750823Y27796629D01*
X43739063Y27811955D01*
X43739061Y27811958D01*
X43706675Y27868052D01*
X43699283Y27885900D01*
X43682521Y27948461D01*
X43680000Y27967612D01*
X43680000Y28032391D01*
X43682521Y28051543D01*
X43682866Y28052832D01*
X43699285Y28114112D01*
X43706675Y28131951D01*
X43739062Y28188048D01*
X43750815Y28203365D01*
X43796635Y28249185D01*
X43811952Y28260938D01*
X43868051Y28293327D01*
X43885888Y28300715D01*
X43947171Y28317134D01*
X43948459Y28317479D01*
X43967610Y28320000D01*
X44032384Y28320000D01*
X44051535Y28317480D01*
G37*
%TD.AperFunction*%
%TA.AperFunction,Conductor*%
G36*
X49051535Y28317480D02*
G01*
X49114109Y28300713D01*
X49131955Y28293321D01*
X49188044Y28260938D01*
X49203366Y28249181D01*
X49229087Y28223461D01*
X49249175Y28203373D01*
X49260934Y28188048D01*
X49293321Y28131954D01*
X49300713Y28114108D01*
X49317132Y28052836D01*
X49317478Y28051544D01*
X49320000Y28032391D01*
X49320000Y27967612D01*
X49317478Y27948458D01*
X49300713Y27885895D01*
X49293321Y27868050D01*
X49260937Y27811958D01*
X49249177Y27796631D01*
X49203369Y27750823D01*
X49188042Y27739063D01*
X49131950Y27706679D01*
X49114105Y27699287D01*
X49067895Y27686905D01*
X49051540Y27682522D01*
X49032388Y27680000D01*
X48967611Y27680000D01*
X48948458Y27682522D01*
X48925883Y27688572D01*
X48885893Y27699287D01*
X48868048Y27706679D01*
X48811956Y27739063D01*
X48796629Y27750823D01*
X48750823Y27796629D01*
X48739063Y27811955D01*
X48739061Y27811958D01*
X48706675Y27868052D01*
X48699283Y27885900D01*
X48682521Y27948461D01*
X48680000Y27967612D01*
X48680000Y28032391D01*
X48682521Y28051543D01*
X48682866Y28052832D01*
X48699285Y28114112D01*
X48706675Y28131951D01*
X48739062Y28188048D01*
X48750815Y28203365D01*
X48796635Y28249185D01*
X48811952Y28260938D01*
X48868051Y28293327D01*
X48885888Y28300715D01*
X48947171Y28317134D01*
X48948459Y28317479D01*
X48967610Y28320000D01*
X49032384Y28320000D01*
X49051535Y28317480D01*
G37*
%TD.AperFunction*%
%TA.AperFunction,Conductor*%
G36*
X14041535Y28592480D02*
G01*
X14104109Y28575713D01*
X14121955Y28568321D01*
X14178044Y28535938D01*
X14193369Y28524178D01*
X14239174Y28478374D01*
X14250935Y28463047D01*
X14283319Y28406955D01*
X14290711Y28389110D01*
X14307478Y28326539D01*
X14310000Y28307385D01*
X14310000Y28242612D01*
X14307478Y28223458D01*
X14290713Y28160895D01*
X14283321Y28143050D01*
X14250937Y28086958D01*
X14239178Y28071632D01*
X14209682Y28042135D01*
X14209679Y28042132D01*
X14193367Y28025821D01*
X14178042Y28014063D01*
X14121950Y27981679D01*
X14104105Y27974287D01*
X14057895Y27961905D01*
X14041540Y27957522D01*
X14022388Y27955000D01*
X13957611Y27955000D01*
X13938458Y27957522D01*
X13915883Y27963572D01*
X13875893Y27974287D01*
X13858048Y27981679D01*
X13801956Y28014063D01*
X13786629Y28025823D01*
X13740823Y28071629D01*
X13729063Y28086955D01*
X13729061Y28086958D01*
X13696675Y28143052D01*
X13689283Y28160900D01*
X13672521Y28223461D01*
X13670000Y28242612D01*
X13670000Y28307391D01*
X13672521Y28326543D01*
X13689285Y28389112D01*
X13696675Y28406951D01*
X13729062Y28463048D01*
X13740815Y28478365D01*
X13786635Y28524185D01*
X13801952Y28535938D01*
X13858051Y28568327D01*
X13875888Y28575715D01*
X13923099Y28588364D01*
X13938459Y28592479D01*
X13957610Y28595000D01*
X14022384Y28595000D01*
X14041535Y28592480D01*
G37*
%TD.AperFunction*%
%TA.AperFunction,Conductor*%
G36*
X37226535Y30317480D02*
G01*
X37289109Y30300713D01*
X37306955Y30293321D01*
X37363044Y30260938D01*
X37378369Y30249178D01*
X37424175Y30203373D01*
X37435936Y30188047D01*
X37468319Y30131958D01*
X37475712Y30114110D01*
X37489633Y30062154D01*
X37489645Y30062113D01*
X37492478Y30051541D01*
X37495000Y30032387D01*
X37495000Y29967612D01*
X37492478Y29948458D01*
X37475713Y29885895D01*
X37468321Y29868050D01*
X37435937Y29811958D01*
X37424177Y29796631D01*
X37378369Y29750823D01*
X37363042Y29739063D01*
X37306950Y29706679D01*
X37289105Y29699287D01*
X37242895Y29686905D01*
X37226540Y29682522D01*
X37207388Y29680000D01*
X37142611Y29680000D01*
X37123458Y29682522D01*
X37100883Y29688572D01*
X37060893Y29699287D01*
X37043048Y29706679D01*
X36986956Y29739063D01*
X36971629Y29750823D01*
X36925823Y29796629D01*
X36914063Y29811955D01*
X36914061Y29811958D01*
X36881675Y29868052D01*
X36874283Y29885900D01*
X36857521Y29948461D01*
X36855000Y29967612D01*
X36855000Y30032391D01*
X36857521Y30051543D01*
X36860649Y30063216D01*
X36874285Y30114112D01*
X36881675Y30131951D01*
X36914062Y30188048D01*
X36925815Y30203365D01*
X36971635Y30249185D01*
X36986952Y30260938D01*
X37043051Y30293327D01*
X37060888Y30300715D01*
X37108099Y30313364D01*
X37123459Y30317479D01*
X37142610Y30320000D01*
X37207384Y30320000D01*
X37226535Y30317480D01*
G37*
%TD.AperFunction*%
%TA.AperFunction,Conductor*%
G36*
X32051535Y33317480D02*
G01*
X32114109Y33300713D01*
X32131955Y33293321D01*
X32188044Y33260938D01*
X32203366Y33249181D01*
X32249175Y33203373D01*
X32260935Y33188047D01*
X32293321Y33131953D01*
X32300713Y33114107D01*
X32317478Y33051544D01*
X32320000Y33032390D01*
X32320000Y32967612D01*
X32317478Y32948458D01*
X32300713Y32885895D01*
X32293321Y32868050D01*
X32260937Y32811958D01*
X32249177Y32796631D01*
X32203369Y32750823D01*
X32188042Y32739063D01*
X32131950Y32706679D01*
X32114105Y32699287D01*
X32067895Y32686905D01*
X32051540Y32682522D01*
X32032388Y32680000D01*
X31967611Y32680000D01*
X31948458Y32682522D01*
X31925883Y32688572D01*
X31885893Y32699287D01*
X31868048Y32706679D01*
X31811956Y32739063D01*
X31796629Y32750823D01*
X31750821Y32796631D01*
X31739061Y32811958D01*
X31706679Y32868047D01*
X31699286Y32885893D01*
X31682521Y32948461D01*
X31680000Y32967614D01*
X31680000Y33032391D01*
X31682521Y33051543D01*
X31699284Y33114106D01*
X31699285Y33114112D01*
X31706675Y33131951D01*
X31739062Y33188048D01*
X31750815Y33203365D01*
X31796635Y33249185D01*
X31811952Y33260938D01*
X31868051Y33293327D01*
X31885888Y33300715D01*
X31933099Y33313364D01*
X31948459Y33317479D01*
X31967610Y33320000D01*
X32032384Y33320000D01*
X32051535Y33317480D01*
G37*
%TD.AperFunction*%
%TA.AperFunction,Conductor*%
G36*
X37051535Y33317480D02*
G01*
X37114109Y33300713D01*
X37131955Y33293321D01*
X37188044Y33260938D01*
X37203366Y33249181D01*
X37249175Y33203373D01*
X37260935Y33188047D01*
X37293321Y33131953D01*
X37300713Y33114107D01*
X37317478Y33051544D01*
X37320000Y33032390D01*
X37320000Y32967612D01*
X37317478Y32948458D01*
X37300713Y32885895D01*
X37293321Y32868050D01*
X37260937Y32811958D01*
X37249177Y32796631D01*
X37203369Y32750823D01*
X37188042Y32739063D01*
X37131950Y32706679D01*
X37114105Y32699287D01*
X37067895Y32686905D01*
X37051540Y32682522D01*
X37032388Y32680000D01*
X36967611Y32680000D01*
X36948458Y32682522D01*
X36925883Y32688572D01*
X36885893Y32699287D01*
X36868048Y32706679D01*
X36811956Y32739063D01*
X36796629Y32750823D01*
X36750821Y32796631D01*
X36739061Y32811958D01*
X36706679Y32868047D01*
X36699286Y32885893D01*
X36682521Y32948461D01*
X36680000Y32967614D01*
X36680000Y33032391D01*
X36682521Y33051543D01*
X36699284Y33114106D01*
X36699285Y33114112D01*
X36706675Y33131951D01*
X36739062Y33188048D01*
X36750815Y33203365D01*
X36796635Y33249185D01*
X36811952Y33260938D01*
X36868051Y33293327D01*
X36885888Y33300715D01*
X36933099Y33313364D01*
X36948459Y33317479D01*
X36967610Y33320000D01*
X37032384Y33320000D01*
X37051535Y33317480D01*
G37*
%TD.AperFunction*%
%TA.AperFunction,Conductor*%
G36*
X44051535Y33317480D02*
G01*
X44114109Y33300713D01*
X44131955Y33293321D01*
X44188044Y33260938D01*
X44203366Y33249181D01*
X44249175Y33203373D01*
X44260935Y33188047D01*
X44293321Y33131953D01*
X44300713Y33114107D01*
X44317478Y33051544D01*
X44320000Y33032390D01*
X44320000Y32967612D01*
X44317478Y32948458D01*
X44300713Y32885895D01*
X44293321Y32868050D01*
X44260937Y32811958D01*
X44249177Y32796631D01*
X44203369Y32750823D01*
X44188042Y32739063D01*
X44131950Y32706679D01*
X44114105Y32699287D01*
X44067895Y32686905D01*
X44051540Y32682522D01*
X44032388Y32680000D01*
X43967611Y32680000D01*
X43948458Y32682522D01*
X43925883Y32688572D01*
X43885893Y32699287D01*
X43868048Y32706679D01*
X43811956Y32739063D01*
X43796629Y32750823D01*
X43750821Y32796631D01*
X43739061Y32811958D01*
X43706679Y32868047D01*
X43699286Y32885893D01*
X43682521Y32948461D01*
X43680000Y32967614D01*
X43680000Y33032391D01*
X43682521Y33051543D01*
X43699284Y33114106D01*
X43699285Y33114112D01*
X43706675Y33131951D01*
X43739062Y33188048D01*
X43750815Y33203365D01*
X43796635Y33249185D01*
X43811952Y33260938D01*
X43868051Y33293327D01*
X43885888Y33300715D01*
X43933099Y33313364D01*
X43948459Y33317479D01*
X43967610Y33320000D01*
X44032384Y33320000D01*
X44051535Y33317480D01*
G37*
%TD.AperFunction*%
%TA.AperFunction,Conductor*%
G36*
X49051535Y33317480D02*
G01*
X49114109Y33300713D01*
X49131955Y33293321D01*
X49188044Y33260938D01*
X49203366Y33249181D01*
X49249175Y33203373D01*
X49260934Y33188048D01*
X49293321Y33131954D01*
X49300714Y33114106D01*
X49317478Y33051544D01*
X49320000Y33032391D01*
X49320000Y32967612D01*
X49317478Y32948458D01*
X49300713Y32885895D01*
X49293321Y32868050D01*
X49260937Y32811958D01*
X49249177Y32796631D01*
X49203369Y32750823D01*
X49188042Y32739063D01*
X49131950Y32706679D01*
X49114105Y32699287D01*
X49067895Y32686905D01*
X49051540Y32682522D01*
X49032388Y32680000D01*
X48967611Y32680000D01*
X48948458Y32682522D01*
X48925883Y32688572D01*
X48885893Y32699287D01*
X48868048Y32706679D01*
X48811956Y32739063D01*
X48796629Y32750823D01*
X48750821Y32796631D01*
X48739061Y32811958D01*
X48706679Y32868047D01*
X48699286Y32885893D01*
X48682521Y32948461D01*
X48680000Y32967614D01*
X48680000Y33032391D01*
X48682521Y33051543D01*
X48699284Y33114106D01*
X48699285Y33114112D01*
X48706675Y33131951D01*
X48739062Y33188048D01*
X48750815Y33203365D01*
X48796635Y33249185D01*
X48811952Y33260938D01*
X48868051Y33293327D01*
X48885888Y33300715D01*
X48933099Y33313364D01*
X48948459Y33317479D01*
X48967610Y33320000D01*
X49032384Y33320000D01*
X49051535Y33317480D01*
G37*
%TD.AperFunction*%
%TA.AperFunction,Conductor*%
G36*
X26176535Y34817480D02*
G01*
X26239109Y34800713D01*
X26256955Y34793321D01*
X26313044Y34760938D01*
X26328366Y34749181D01*
X26374175Y34703373D01*
X26385934Y34688048D01*
X26418321Y34631954D01*
X26425714Y34614106D01*
X26442478Y34551544D01*
X26445000Y34532391D01*
X26445000Y34467612D01*
X26442478Y34448458D01*
X26425713Y34385895D01*
X26418321Y34368050D01*
X26385937Y34311958D01*
X26374177Y34296631D01*
X26328369Y34250823D01*
X26313042Y34239063D01*
X26256950Y34206679D01*
X26239105Y34199287D01*
X26192895Y34186905D01*
X26176540Y34182522D01*
X26157388Y34180000D01*
X26092611Y34180000D01*
X26073458Y34182522D01*
X26050883Y34188572D01*
X26010893Y34199287D01*
X25993048Y34206679D01*
X25936956Y34239063D01*
X25921629Y34250823D01*
X25875821Y34296631D01*
X25864061Y34311958D01*
X25831679Y34368047D01*
X25824286Y34385893D01*
X25807521Y34448461D01*
X25805000Y34467614D01*
X25805000Y34532391D01*
X25807521Y34551543D01*
X25824284Y34614106D01*
X25824285Y34614112D01*
X25831677Y34631954D01*
X25864062Y34688048D01*
X25875815Y34703365D01*
X25921635Y34749185D01*
X25936952Y34760938D01*
X25993051Y34793327D01*
X26010888Y34800715D01*
X26058099Y34813364D01*
X26073459Y34817479D01*
X26092610Y34820000D01*
X26157384Y34820000D01*
X26176535Y34817480D01*
G37*
%TD.AperFunction*%
%TA.AperFunction,Conductor*%
G36*
X31851534Y36817479D02*
G01*
X31878534Y36810245D01*
X31914104Y36800715D01*
X31931952Y36793322D01*
X31988044Y36760937D01*
X32003370Y36749177D01*
X32049176Y36703371D01*
X32060936Y36688045D01*
X32093318Y36631958D01*
X32100711Y36614110D01*
X32115522Y36558834D01*
X32115607Y36558515D01*
X32117474Y36551550D01*
X32119999Y36532386D01*
X32119999Y36467612D01*
X32117477Y36448460D01*
X32114316Y36436661D01*
X32100712Y36385895D01*
X32093320Y36368050D01*
X32060936Y36311958D01*
X32049176Y36296631D01*
X32003368Y36250823D01*
X31988041Y36239063D01*
X31931949Y36206679D01*
X31914104Y36199287D01*
X31867894Y36186905D01*
X31851539Y36182522D01*
X31832387Y36180000D01*
X31767610Y36180000D01*
X31748457Y36182522D01*
X31725882Y36188572D01*
X31685892Y36199287D01*
X31668047Y36206679D01*
X31611955Y36239063D01*
X31596628Y36250823D01*
X31550822Y36296629D01*
X31539062Y36311955D01*
X31539060Y36311958D01*
X31506674Y36368052D01*
X31499282Y36385900D01*
X31482520Y36448461D01*
X31479999Y36467612D01*
X31479999Y36532391D01*
X31482520Y36551543D01*
X31487978Y36571912D01*
X31499284Y36614112D01*
X31506674Y36631951D01*
X31539061Y36688048D01*
X31550814Y36703365D01*
X31596634Y36749185D01*
X31611951Y36760938D01*
X31668050Y36793327D01*
X31685887Y36800715D01*
X31733098Y36813364D01*
X31748458Y36817479D01*
X31767609Y36820000D01*
X31832383Y36820000D01*
X31851534Y36817479D01*
G37*
%TD.AperFunction*%
%TA.AperFunction,Conductor*%
G36*
X27076535Y37317479D02*
G01*
X27112758Y37307774D01*
X27139105Y37300715D01*
X27156953Y37293322D01*
X27213045Y37260937D01*
X27228371Y37249177D01*
X27274177Y37203371D01*
X27285937Y37188045D01*
X27318319Y37131958D01*
X27325711Y37114111D01*
X27342478Y37051536D01*
X27345000Y37032383D01*
X27345000Y36967612D01*
X27342478Y36948460D01*
X27338095Y36932105D01*
X27325713Y36885895D01*
X27318321Y36868049D01*
X27285935Y36811954D01*
X27274176Y36796629D01*
X27233986Y36756438D01*
X27233980Y36756432D01*
X27228366Y36750819D01*
X27213044Y36739064D01*
X27156950Y36706679D01*
X27139105Y36699287D01*
X27097153Y36688045D01*
X27076540Y36682522D01*
X27057388Y36680000D01*
X26992611Y36680000D01*
X26973458Y36682522D01*
X26950883Y36688572D01*
X26910893Y36699287D01*
X26893048Y36706679D01*
X26836956Y36739063D01*
X26821629Y36750823D01*
X26775823Y36796629D01*
X26764063Y36811955D01*
X26759617Y36819655D01*
X26731675Y36868052D01*
X26724283Y36885900D01*
X26707521Y36948461D01*
X26705000Y36967612D01*
X26705000Y37032391D01*
X26707521Y37051543D01*
X26724285Y37114112D01*
X26731675Y37131951D01*
X26764062Y37188048D01*
X26775815Y37203365D01*
X26821635Y37249185D01*
X26836952Y37260938D01*
X26893051Y37293327D01*
X26910888Y37300715D01*
X26958099Y37313364D01*
X26973459Y37317479D01*
X26992610Y37320000D01*
X27057384Y37320000D01*
X27076535Y37317479D01*
G37*
%TD.AperFunction*%
%TA.AperFunction,Conductor*%
G36*
X31851534Y40817479D02*
G01*
X31887757Y40807774D01*
X31914104Y40800715D01*
X31931951Y40793323D01*
X31975720Y40768052D01*
X31988044Y40760937D01*
X32003370Y40749177D01*
X32049176Y40703371D01*
X32060936Y40688045D01*
X32093318Y40631958D01*
X32100710Y40614111D01*
X32116153Y40556479D01*
X32117476Y40551543D01*
X32119999Y40532385D01*
X32119999Y40467612D01*
X32117477Y40448460D01*
X32113574Y40433892D01*
X32100712Y40385895D01*
X32093320Y40368050D01*
X32060936Y40311958D01*
X32049176Y40296631D01*
X32003368Y40250823D01*
X31988041Y40239063D01*
X31931949Y40206679D01*
X31914104Y40199287D01*
X31867894Y40186905D01*
X31851539Y40182522D01*
X31832387Y40180000D01*
X31767610Y40180000D01*
X31748457Y40182522D01*
X31725882Y40188572D01*
X31685892Y40199287D01*
X31668047Y40206679D01*
X31611955Y40239063D01*
X31596628Y40250823D01*
X31550822Y40296629D01*
X31539062Y40311955D01*
X31539060Y40311958D01*
X31506674Y40368052D01*
X31499282Y40385900D01*
X31482520Y40448461D01*
X31479999Y40467612D01*
X31479999Y40532391D01*
X31482520Y40551543D01*
X31486943Y40568050D01*
X31499284Y40614112D01*
X31506674Y40631951D01*
X31539061Y40688048D01*
X31550814Y40703365D01*
X31596634Y40749185D01*
X31611951Y40760938D01*
X31668050Y40793327D01*
X31685887Y40800715D01*
X31733098Y40813364D01*
X31748458Y40817479D01*
X31767609Y40820000D01*
X31832383Y40820000D01*
X31851534Y40817479D01*
G37*
%TD.AperFunction*%
%TA.AperFunction,Conductor*%
G36*
X48461535Y43217480D02*
G01*
X48524109Y43200713D01*
X48541955Y43193321D01*
X48598044Y43160938D01*
X48613369Y43149178D01*
X48659173Y43103375D01*
X48670933Y43088052D01*
X48674645Y43081622D01*
X48715248Y43028707D01*
X48715252Y43028703D01*
X48742339Y43001616D01*
X48795244Y42961021D01*
X48795246Y42961021D01*
X48795248Y42961019D01*
X48889649Y42928973D01*
X48945801Y42921580D01*
X48945802Y42921580D01*
X49045280Y42928100D01*
X49134690Y42972192D01*
X49177688Y43005186D01*
X49179005Y43006129D01*
X49179624Y43006671D01*
X49179627Y43006673D01*
X49245357Y43081625D01*
X49249064Y43088048D01*
X49260820Y43103370D01*
X49306635Y43149185D01*
X49321952Y43160938D01*
X49378051Y43193327D01*
X49395888Y43200715D01*
X49443099Y43213364D01*
X49458459Y43217479D01*
X49477610Y43220000D01*
X49542384Y43220000D01*
X49561535Y43217480D01*
X49624109Y43200713D01*
X49641955Y43193321D01*
X49698044Y43160938D01*
X49713369Y43149178D01*
X49759174Y43103374D01*
X49770935Y43088047D01*
X49803317Y43031958D01*
X49810709Y43014112D01*
X49838269Y42911259D01*
X49846881Y42885895D01*
X49849019Y42879598D01*
X49856411Y42861755D01*
X49871188Y42831793D01*
X49919312Y42776918D01*
X49936919Y42756842D01*
X49981852Y42722364D01*
X50071262Y42678272D01*
X50174109Y42650715D01*
X50191954Y42643322D01*
X50248045Y42610937D01*
X50263369Y42599178D01*
X50309175Y42553373D01*
X50320936Y42538047D01*
X50353319Y42481958D01*
X50360712Y42464110D01*
X50377479Y42401534D01*
X50380000Y42382382D01*
X50380000Y42317612D01*
X50377478Y42298458D01*
X50360713Y42235895D01*
X50353321Y42218050D01*
X50320937Y42161958D01*
X50309177Y42146631D01*
X50263371Y42100825D01*
X50248050Y42089068D01*
X50241627Y42085360D01*
X50241626Y42085359D01*
X50188700Y42044747D01*
X50161621Y42017667D01*
X50121013Y41964745D01*
X50088970Y41870346D01*
X50088970Y41870345D01*
X50081579Y41814196D01*
X50088099Y41714722D01*
X50132192Y41625308D01*
X50132195Y41625303D01*
X50166662Y41580384D01*
X50166670Y41580376D01*
X50166683Y41580364D01*
X50241616Y41514650D01*
X50241621Y41514646D01*
X50247253Y41511394D01*
X50248045Y41510937D01*
X50263370Y41499178D01*
X50309177Y41453371D01*
X50320937Y41438044D01*
X50353321Y41381952D01*
X50360713Y41364107D01*
X50377478Y41301543D01*
X50380000Y41282389D01*
X50380000Y41217612D01*
X50377478Y41198458D01*
X50360713Y41135895D01*
X50353321Y41118050D01*
X50320937Y41061958D01*
X50309177Y41046631D01*
X50263369Y41000823D01*
X50248043Y40989063D01*
X50191956Y40956681D01*
X50174109Y40949289D01*
X50071259Y40921731D01*
X50039605Y40910984D01*
X50039601Y40910983D01*
X50039597Y40910981D01*
X50025054Y40904957D01*
X50021749Y40903587D01*
X49991799Y40888817D01*
X49916843Y40823086D01*
X49882365Y40778154D01*
X49882356Y40778138D01*
X49838271Y40688744D01*
X49838269Y40688738D01*
X49810712Y40585892D01*
X49803319Y40568044D01*
X49770937Y40511957D01*
X49759177Y40496631D01*
X49713369Y40450823D01*
X49698042Y40439063D01*
X49641950Y40406679D01*
X49624105Y40399287D01*
X49577895Y40386905D01*
X49561540Y40382522D01*
X49542388Y40380000D01*
X49477611Y40380000D01*
X49458458Y40382522D01*
X49435883Y40388572D01*
X49395893Y40399287D01*
X49378048Y40406679D01*
X49321956Y40439063D01*
X49306629Y40450823D01*
X49260821Y40496631D01*
X49249059Y40511961D01*
X49245355Y40518376D01*
X49245352Y40518382D01*
X49204750Y40571296D01*
X49177666Y40598380D01*
X49177663Y40598383D01*
X49139315Y40627807D01*
X49124747Y40638985D01*
X49124745Y40638986D01*
X49030344Y40671030D01*
X48974195Y40678421D01*
X48974193Y40678421D01*
X48924458Y40675161D01*
X48874721Y40671901D01*
X48785314Y40627812D01*
X48785306Y40627807D01*
X48740382Y40593337D01*
X48740380Y40593335D01*
X48740373Y40593330D01*
X48674642Y40518375D01*
X48670929Y40511945D01*
X48659174Y40496628D01*
X48613369Y40450823D01*
X48598042Y40439063D01*
X48541950Y40406679D01*
X48524105Y40399287D01*
X48477895Y40386905D01*
X48461540Y40382522D01*
X48442388Y40380000D01*
X48377611Y40380000D01*
X48358458Y40382522D01*
X48335883Y40388572D01*
X48295893Y40399287D01*
X48278048Y40406679D01*
X48221956Y40439063D01*
X48206629Y40450823D01*
X48160823Y40496629D01*
X48149063Y40511955D01*
X48145356Y40518375D01*
X48116675Y40568052D01*
X48109283Y40585898D01*
X48107605Y40592162D01*
X48081728Y40688738D01*
X48070987Y40720380D01*
X48063595Y40738227D01*
X48048814Y40768202D01*
X47983085Y40843156D01*
X47938153Y40877635D01*
X47938147Y40877639D01*
X47885525Y40903589D01*
X47848737Y40921731D01*
X47848733Y40921732D01*
X47745890Y40949288D01*
X47728042Y40956681D01*
X47671955Y40989063D01*
X47656629Y41000823D01*
X47610823Y41046629D01*
X47599063Y41061955D01*
X47599061Y41061958D01*
X47566675Y41118052D01*
X47559283Y41135900D01*
X47542521Y41198461D01*
X47540000Y41217612D01*
X47540000Y41282391D01*
X47542521Y41301543D01*
X47559285Y41364112D01*
X47566676Y41381952D01*
X47599062Y41438048D01*
X47610815Y41453365D01*
X47656630Y41499180D01*
X47671955Y41510937D01*
X47678375Y41514643D01*
X47688542Y41522445D01*
X47731287Y41555243D01*
X47731288Y41555245D01*
X47731293Y41555248D01*
X47758379Y41582334D01*
X47791356Y41625310D01*
X47798979Y41635245D01*
X47798979Y41635246D01*
X47798981Y41635248D01*
X47831027Y41729649D01*
X47838420Y41785801D01*
X47838420Y41785802D01*
X47831900Y41885280D01*
X47787808Y41974690D01*
X47753329Y42019624D01*
X47678378Y42085355D01*
X47678375Y42085357D01*
X47678377Y42085357D01*
X47671949Y42089068D01*
X47656630Y42100823D01*
X47610823Y42146629D01*
X47599065Y42161953D01*
X47566677Y42218049D01*
X47559283Y42235899D01*
X47542521Y42298461D01*
X47540000Y42317612D01*
X47540000Y42382391D01*
X47542521Y42401543D01*
X47559285Y42464112D01*
X47566675Y42481951D01*
X47599062Y42538048D01*
X47610815Y42553365D01*
X47656635Y42599185D01*
X47671952Y42610938D01*
X47728049Y42643325D01*
X47745888Y42650715D01*
X47848737Y42678272D01*
X47880379Y42689013D01*
X47898226Y42696405D01*
X47928207Y42711189D01*
X48003158Y42776920D01*
X48037636Y42821853D01*
X48081728Y42911263D01*
X48109285Y43014112D01*
X48116675Y43031951D01*
X48149064Y43088050D01*
X48160815Y43103365D01*
X48206635Y43149185D01*
X48221952Y43160938D01*
X48278051Y43193327D01*
X48295888Y43200715D01*
X48343099Y43213364D01*
X48358459Y43217479D01*
X48377610Y43220000D01*
X48442384Y43220000D01*
X48461535Y43217480D01*
G37*
%TD.AperFunction*%
%TA.AperFunction,Conductor*%
G36*
X37876535Y41217479D02*
G01*
X37912395Y41207871D01*
X37939105Y41200715D01*
X37956953Y41193322D01*
X38013045Y41160937D01*
X38028371Y41149177D01*
X38074177Y41103371D01*
X38085937Y41088045D01*
X38118320Y41031955D01*
X38118322Y41031953D01*
X38125714Y41014106D01*
X38142478Y40951544D01*
X38145000Y40932391D01*
X38145000Y40867612D01*
X38142478Y40848458D01*
X38125713Y40785895D01*
X38118321Y40768050D01*
X38085937Y40711958D01*
X38074177Y40696631D01*
X38028372Y40650826D01*
X38013047Y40639067D01*
X37964001Y40610750D01*
X37963982Y40610738D01*
X37936207Y40592179D01*
X37936183Y40592162D01*
X37920880Y40580419D01*
X37920875Y40580415D01*
X37895751Y40558379D01*
X37895749Y40558378D01*
X37840363Y40475486D01*
X37840362Y40475484D01*
X37839719Y40473931D01*
X37839319Y40473532D01*
X37838653Y40472285D01*
X37838274Y40472488D01*
X37799661Y40433892D01*
X37743024Y40433906D01*
X37702985Y40473964D01*
X37698781Y40487831D01*
X37691909Y40522382D01*
X37691905Y40522395D01*
X37670235Y40574712D01*
X37634755Y40627812D01*
X37614848Y40657604D01*
X37575819Y40696633D01*
X37564063Y40711955D01*
X37564061Y40711958D01*
X37542571Y40749181D01*
X37531676Y40768052D01*
X37524283Y40785900D01*
X37507521Y40848461D01*
X37505000Y40867612D01*
X37505000Y40932391D01*
X37507521Y40951543D01*
X37524284Y41014106D01*
X37524285Y41014112D01*
X37531675Y41031951D01*
X37564062Y41088048D01*
X37575815Y41103365D01*
X37621635Y41149185D01*
X37636952Y41160938D01*
X37693051Y41193327D01*
X37710888Y41200715D01*
X37758099Y41213364D01*
X37773459Y41217479D01*
X37792610Y41220000D01*
X37857384Y41220000D01*
X37876535Y41217479D01*
G37*
%TD.AperFunction*%
%TA.AperFunction,Conductor*%
G36*
X44051535Y43317480D02*
G01*
X44114109Y43300713D01*
X44131955Y43293321D01*
X44188044Y43260938D01*
X44203369Y43249178D01*
X44249175Y43203373D01*
X44260936Y43188047D01*
X44293319Y43131958D01*
X44300711Y43114111D01*
X44316280Y43056006D01*
X44316281Y43056006D01*
X44317477Y43051544D01*
X44320000Y43032385D01*
X44320000Y42967612D01*
X44317478Y42948458D01*
X44300713Y42885895D01*
X44293321Y42868050D01*
X44260937Y42811958D01*
X44249177Y42796631D01*
X44203369Y42750823D01*
X44188042Y42739063D01*
X44131950Y42706679D01*
X44114105Y42699287D01*
X44075765Y42689013D01*
X44051540Y42682522D01*
X44032388Y42680000D01*
X43967611Y42680000D01*
X43948458Y42682522D01*
X43924211Y42689019D01*
X43885893Y42699287D01*
X43868048Y42706679D01*
X43811956Y42739063D01*
X43796629Y42750823D01*
X43750823Y42796629D01*
X43739063Y42811955D01*
X43739061Y42811958D01*
X43706675Y42868052D01*
X43699283Y42885900D01*
X43682521Y42948461D01*
X43680000Y42967612D01*
X43680000Y43032391D01*
X43682521Y43051543D01*
X43683718Y43056009D01*
X43699285Y43114112D01*
X43706675Y43131951D01*
X43739062Y43188048D01*
X43750815Y43203365D01*
X43796635Y43249185D01*
X43811952Y43260938D01*
X43868051Y43293327D01*
X43885888Y43300715D01*
X43933099Y43313364D01*
X43948459Y43317479D01*
X43967610Y43320000D01*
X44032384Y43320000D01*
X44051535Y43317480D01*
G37*
%TD.AperFunction*%
%TA.AperFunction,Conductor*%
G36*
X31851534Y44817479D02*
G01*
X31887757Y44807774D01*
X31914104Y44800715D01*
X31931952Y44793322D01*
X31988044Y44760937D01*
X32003370Y44749177D01*
X32049176Y44703371D01*
X32060936Y44688045D01*
X32093319Y44631955D01*
X32093321Y44631953D01*
X32100713Y44614106D01*
X32117477Y44551544D01*
X32119999Y44532391D01*
X32119999Y44467612D01*
X32117477Y44448458D01*
X32100712Y44385895D01*
X32093320Y44368050D01*
X32060936Y44311958D01*
X32049176Y44296631D01*
X32003368Y44250823D01*
X31988041Y44239063D01*
X31931949Y44206679D01*
X31914104Y44199287D01*
X31867894Y44186905D01*
X31851539Y44182522D01*
X31832387Y44180000D01*
X31767610Y44180000D01*
X31748457Y44182522D01*
X31725882Y44188572D01*
X31685892Y44199287D01*
X31668047Y44206679D01*
X31611955Y44239063D01*
X31596628Y44250823D01*
X31550822Y44296629D01*
X31539062Y44311955D01*
X31539060Y44311958D01*
X31506674Y44368052D01*
X31499282Y44385900D01*
X31482520Y44448461D01*
X31479999Y44467612D01*
X31479999Y44532391D01*
X31482520Y44551543D01*
X31497790Y44608534D01*
X31499284Y44614112D01*
X31506674Y44631951D01*
X31539061Y44688048D01*
X31550814Y44703365D01*
X31596634Y44749185D01*
X31611951Y44760938D01*
X31668050Y44793327D01*
X31685887Y44800715D01*
X31733098Y44813364D01*
X31748458Y44817479D01*
X31767609Y44820000D01*
X31832383Y44820000D01*
X31851534Y44817479D01*
G37*
%TD.AperFunction*%
%TA.AperFunction,Conductor*%
G36*
X37876535Y45817480D02*
G01*
X37939109Y45800713D01*
X37956954Y45793322D01*
X38007631Y45764063D01*
X38013044Y45760938D01*
X38028369Y45749178D01*
X38074175Y45703373D01*
X38085936Y45688047D01*
X38118319Y45631958D01*
X38125711Y45614111D01*
X38142478Y45551536D01*
X38145000Y45532383D01*
X38145000Y45467616D01*
X38142479Y45448464D01*
X38139122Y45435935D01*
X38139121Y45435934D01*
X38125713Y45385896D01*
X38118321Y45368050D01*
X38085937Y45311958D01*
X38074177Y45296631D01*
X38028372Y45250826D01*
X38013047Y45239067D01*
X37974525Y45216826D01*
X37974506Y45216814D01*
X37946731Y45198255D01*
X37946707Y45198238D01*
X37931404Y45186495D01*
X37931399Y45186491D01*
X37906275Y45164455D01*
X37906273Y45164454D01*
X37850890Y45081566D01*
X37845613Y45068825D01*
X37805565Y45028777D01*
X37748927Y45028777D01*
X37708879Y45068825D01*
X37704668Y45082707D01*
X37697984Y45116309D01*
X37697983Y45116310D01*
X37697983Y45116314D01*
X37678043Y45164454D01*
X37676311Y45168636D01*
X37620926Y45251525D01*
X37620924Y45251528D01*
X37620920Y45251532D01*
X37575822Y45296631D01*
X37564062Y45311956D01*
X37531679Y45368046D01*
X37524286Y45385893D01*
X37507521Y45448461D01*
X37505000Y45467614D01*
X37505000Y45532391D01*
X37507521Y45551543D01*
X37524285Y45614112D01*
X37531675Y45631951D01*
X37564062Y45688048D01*
X37575815Y45703365D01*
X37621635Y45749185D01*
X37636952Y45760938D01*
X37693051Y45793327D01*
X37710888Y45800715D01*
X37758099Y45813364D01*
X37773459Y45817479D01*
X37792610Y45820000D01*
X37857384Y45820000D01*
X37876535Y45817480D01*
G37*
%TD.AperFunction*%
%TA.AperFunction,Conductor*%
G36*
X37601535Y48117480D02*
G01*
X37664109Y48100713D01*
X37681954Y48093322D01*
X37738042Y48060939D01*
X37753366Y48049181D01*
X37760413Y48042134D01*
X37799175Y48003373D01*
X37810933Y47988050D01*
X37836469Y47943819D01*
X37836472Y47943815D01*
X37843322Y47931951D01*
X37850714Y47914104D01*
X37863055Y47868049D01*
X37867478Y47851545D01*
X37870000Y47832392D01*
X37870000Y47767612D01*
X37867478Y47748458D01*
X37850713Y47685895D01*
X37843321Y47668050D01*
X37810937Y47611958D01*
X37799177Y47596631D01*
X37753369Y47550823D01*
X37738042Y47539063D01*
X37681950Y47506679D01*
X37664105Y47499287D01*
X37617895Y47486905D01*
X37601540Y47482522D01*
X37582388Y47480000D01*
X37517611Y47480000D01*
X37498458Y47482522D01*
X37475883Y47488572D01*
X37435893Y47499287D01*
X37418048Y47506679D01*
X37361956Y47539063D01*
X37346629Y47550823D01*
X37300823Y47596629D01*
X37289063Y47611955D01*
X37289061Y47611958D01*
X37256675Y47668052D01*
X37249283Y47685900D01*
X37232521Y47748461D01*
X37230000Y47767612D01*
X37230000Y47832391D01*
X37232521Y47851543D01*
X37241725Y47885895D01*
X37249285Y47914112D01*
X37256675Y47931951D01*
X37289064Y47988050D01*
X37300815Y48003365D01*
X37346635Y48049185D01*
X37361952Y48060938D01*
X37418051Y48093327D01*
X37435888Y48100715D01*
X37485873Y48114107D01*
X37498459Y48117479D01*
X37517610Y48120000D01*
X37582384Y48120000D01*
X37601535Y48117480D01*
G37*
%TD.AperFunction*%
%TA.AperFunction,Conductor*%
G36*
X32051535Y48317480D02*
G01*
X32114109Y48300713D01*
X32131955Y48293321D01*
X32188044Y48260938D01*
X32203366Y48249181D01*
X32249175Y48203373D01*
X32260934Y48188048D01*
X32293321Y48131954D01*
X32300713Y48114108D01*
X32314960Y48060941D01*
X32317478Y48051544D01*
X32320000Y48032391D01*
X32320000Y47967614D01*
X32317480Y47948470D01*
X32315720Y47941897D01*
X32300714Y47885896D01*
X32293322Y47868049D01*
X32278360Y47842134D01*
X32260937Y47811957D01*
X32249177Y47796631D01*
X32203369Y47750823D01*
X32188042Y47739063D01*
X32131950Y47706679D01*
X32114105Y47699287D01*
X32067895Y47686905D01*
X32051540Y47682522D01*
X32032388Y47680000D01*
X31967611Y47680000D01*
X31948458Y47682522D01*
X31925883Y47688572D01*
X31885893Y47699287D01*
X31868048Y47706679D01*
X31811956Y47739063D01*
X31796629Y47750823D01*
X31750821Y47796631D01*
X31739061Y47811958D01*
X31706679Y47868047D01*
X31699286Y47885893D01*
X31682521Y47948461D01*
X31680000Y47967614D01*
X31680000Y48032391D01*
X31682521Y48051543D01*
X31682521Y48051544D01*
X31699285Y48114112D01*
X31706675Y48131951D01*
X31739062Y48188048D01*
X31750815Y48203365D01*
X31796635Y48249185D01*
X31811952Y48260938D01*
X31868051Y48293327D01*
X31885888Y48300715D01*
X31933099Y48313364D01*
X31948459Y48317479D01*
X31967610Y48320000D01*
X32032384Y48320000D01*
X32051535Y48317480D01*
G37*
%TD.AperFunction*%
%TA.AperFunction,Conductor*%
G36*
X44051535Y48317480D02*
G01*
X44114109Y48300713D01*
X44131955Y48293321D01*
X44188044Y48260938D01*
X44203366Y48249181D01*
X44249175Y48203373D01*
X44260935Y48188047D01*
X44293321Y48131953D01*
X44300713Y48114107D01*
X44306283Y48093321D01*
X44316265Y48056068D01*
X44317478Y48051544D01*
X44320000Y48032390D01*
X44320000Y47967612D01*
X44317478Y47948458D01*
X44300713Y47885895D01*
X44293321Y47868050D01*
X44260937Y47811958D01*
X44249177Y47796631D01*
X44203369Y47750823D01*
X44188042Y47739063D01*
X44131950Y47706679D01*
X44114105Y47699287D01*
X44067895Y47686905D01*
X44051540Y47682522D01*
X44032388Y47680000D01*
X43967611Y47680000D01*
X43948458Y47682522D01*
X43925883Y47688572D01*
X43885893Y47699287D01*
X43868048Y47706679D01*
X43811956Y47739063D01*
X43796629Y47750823D01*
X43750821Y47796631D01*
X43739061Y47811958D01*
X43706679Y47868047D01*
X43699286Y47885893D01*
X43682521Y47948461D01*
X43680000Y47967614D01*
X43680000Y48032391D01*
X43682521Y48051543D01*
X43682521Y48051544D01*
X43699285Y48114112D01*
X43706675Y48131951D01*
X43739062Y48188048D01*
X43750815Y48203365D01*
X43796635Y48249185D01*
X43811952Y48260938D01*
X43868051Y48293327D01*
X43885888Y48300715D01*
X43933099Y48313364D01*
X43948459Y48317479D01*
X43967610Y48320000D01*
X44032384Y48320000D01*
X44051535Y48317480D01*
G37*
%TD.AperFunction*%
%TA.AperFunction,Conductor*%
G36*
X49051535Y48317480D02*
G01*
X49114109Y48300713D01*
X49131955Y48293321D01*
X49188044Y48260938D01*
X49203366Y48249181D01*
X49249175Y48203373D01*
X49260934Y48188048D01*
X49293321Y48131954D01*
X49300713Y48114108D01*
X49314960Y48060941D01*
X49317478Y48051544D01*
X49320000Y48032391D01*
X49320000Y47967612D01*
X49317478Y47948458D01*
X49300713Y47885895D01*
X49293321Y47868050D01*
X49260937Y47811958D01*
X49249177Y47796631D01*
X49203369Y47750823D01*
X49188042Y47739063D01*
X49131950Y47706679D01*
X49114105Y47699287D01*
X49067895Y47686905D01*
X49051540Y47682522D01*
X49032388Y47680000D01*
X48967611Y47680000D01*
X48948458Y47682522D01*
X48925883Y47688572D01*
X48885893Y47699287D01*
X48868048Y47706679D01*
X48811956Y47739063D01*
X48796629Y47750823D01*
X48750821Y47796631D01*
X48739061Y47811958D01*
X48706679Y47868047D01*
X48699286Y47885893D01*
X48682521Y47948461D01*
X48680000Y47967614D01*
X48680000Y48032391D01*
X48682521Y48051543D01*
X48682521Y48051544D01*
X48699285Y48114112D01*
X48706675Y48131951D01*
X48739062Y48188048D01*
X48750815Y48203365D01*
X48796635Y48249185D01*
X48811952Y48260938D01*
X48868051Y48293327D01*
X48885888Y48300715D01*
X48933099Y48313364D01*
X48948459Y48317479D01*
X48967610Y48320000D01*
X49032384Y48320000D01*
X49051535Y48317480D01*
G37*
%TD.AperFunction*%
%TD*%
M02*
