%TF.GenerationSoftware,KiCad,Pcbnew,10.0.6*%
%TF.CreationDate,2026-09-11T23:53:40+02:00*%
%TF.ProjectId,leaf-heat-v2,6c656166-2d68-4656-9174-2d76322e6b69,B*%
%TF.SameCoordinates,Original*%
%TF.FileFunction,Copper,L2,Inr*%
%TF.FilePolarity,Positive*%
%FSLAX46Y46*%
G04 Gerber Fmt 4.6, Leading zero omitted, Abs format (unit mm)*
G04 Created by KiCad (PCBNEW 10.0.6) date 2026-09-11 23:53:40*
%MOMM*%
%LPD*%
G01*
G04 APERTURE LIST*
%TA.AperFunction,ComponentPad*%
%ADD10R,1.600000X1.600000*%
%TD*%
%TA.AperFunction,ComponentPad*%
%ADD11C,1.600000*%
%TD*%
%TA.AperFunction,ComponentPad*%
%ADD12C,4.000000*%
%TD*%
%TA.AperFunction,ComponentPad*%
%ADD13C,0.630000*%
%TD*%
%TA.AperFunction,HeatsinkPad*%
%ADD14C,0.650000*%
%TD*%
%TA.AperFunction,ComponentPad*%
%ADD15O,1.000000X2.100000*%
%TD*%
%TA.AperFunction,ComponentPad*%
%ADD16O,1.000000X1.800000*%
%TD*%
%TA.AperFunction,ViaPad*%
%ADD17C,0.650000*%
%TD*%
G04 APERTURE END LIST*
D10*
%TO.N,unconnected-(J1-Pad1)*%
%TO.C,J1*%
X11000000Y11000000D03*
D11*
%TO.N,/CAN_L*%
X13770000Y11000000D03*
%TO.N,/GND*%
X16540000Y11000000D03*
%TO.N,unconnected-(J1-Pad4)*%
X19310000Y11000000D03*
%TO.N,unconnected-(J1-Pad5)*%
X22080000Y11000000D03*
%TO.N,unconnected-(J1-Pad6)*%
X12385000Y8160000D03*
%TO.N,/CAN_H*%
X15155000Y8160000D03*
%TO.N,unconnected-(J1-Pad8)*%
X17925000Y8160000D03*
%TO.N,/CAR_12V*%
X20695000Y8160000D03*
D12*
%TO.N,/GND*%
X4045001Y9580000D03*
X29035000Y9580000D03*
%TD*%
D13*
%TO.N,/GND*%
%TO.C,U1*%
X18350000Y39300000D03*
X18350000Y38000000D03*
X18350000Y36700000D03*
X19650000Y39300000D03*
X19650000Y38000000D03*
X19650000Y36700000D03*
%TD*%
D14*
%TO.N,/GND*%
%TO.C,U2*%
X47860000Y42350000D03*
X47860000Y41250000D03*
X48410000Y42900000D03*
X48410000Y41800000D03*
X48410000Y40700000D03*
X48960000Y42350000D03*
X48960000Y41250000D03*
X49510000Y42900000D03*
X49510000Y41800000D03*
X49510000Y40700000D03*
X50060000Y42350000D03*
X50060000Y41250000D03*
%TD*%
D15*
%TO.N,/GND*%
%TO.C,J2*%
X51680000Y6105000D03*
D16*
X51680000Y1925000D03*
D15*
X60320000Y6105000D03*
D16*
X60320000Y1925000D03*
%TD*%
D17*
%TO.N,/VPWR*%
X44262900Y24104300D03*
X8250000Y27850000D03*
X22500000Y28000000D03*
X25500000Y29500000D03*
X8550000Y36525000D03*
X29549000Y23850000D03*
X58206100Y46684700D03*
%TO.N,/USB_5V*%
X29900000Y29500000D03*
X58400000Y8180000D03*
X51525000Y12175000D03*
X58525000Y9625000D03*
X56500000Y8600000D03*
X49300000Y11350000D03*
X46425000Y12175000D03*
X53600000Y8180000D03*
%TO.N,/GND*%
X2000000Y18000000D03*
X37000000Y18000000D03*
X37550000Y47800000D03*
X14500000Y15700000D03*
X26125000Y34500000D03*
X7000000Y43000000D03*
X60925000Y46025000D03*
X37000000Y23000000D03*
X31799999Y40500000D03*
X49000000Y23000000D03*
X44000000Y48000000D03*
X60260660Y7740661D03*
X63000000Y3000000D03*
X7000000Y18000000D03*
X37000000Y28000000D03*
X56500000Y13400000D03*
X16125000Y40755000D03*
X60000000Y23000000D03*
X49000000Y33000000D03*
X44000000Y3000000D03*
X51525000Y13825000D03*
X32000000Y23000000D03*
X57300000Y2300000D03*
X37000000Y3000000D03*
X63525000Y42400000D03*
X44000000Y18000000D03*
X13600000Y41320000D03*
X37175000Y30000000D03*
X16335000Y26050000D03*
X32000000Y48000000D03*
X2000000Y13000000D03*
X60000000Y13000000D03*
X7000000Y13000000D03*
X63000000Y18000000D03*
X8550000Y39475000D03*
X59200000Y7855001D03*
X2000000Y23000000D03*
X2000000Y33000000D03*
X60000000Y28000000D03*
X32000000Y3000000D03*
X51739339Y7740661D03*
X7000000Y48000000D03*
X8250000Y32150000D03*
X55750000Y2300000D03*
X58000000Y4200000D03*
X2000000Y43000000D03*
X32000000Y13000000D03*
X32000000Y33000000D03*
X49000000Y48000000D03*
X37400000Y22100000D03*
X7000000Y33000000D03*
X37825000Y45500000D03*
X60000000Y33000000D03*
X46425000Y10825000D03*
X37000000Y13000000D03*
X49625000Y7000000D03*
X31799999Y44500000D03*
X44000000Y43000000D03*
X60000000Y18000000D03*
X49000000Y18000000D03*
X7000000Y28000000D03*
X27025000Y37000000D03*
X17300000Y41400000D03*
X49000000Y3000000D03*
X58525000Y11175000D03*
X44000000Y28000000D03*
X63825000Y12500000D03*
X54000000Y3400000D03*
X37000000Y33000000D03*
X2000000Y48000000D03*
X52800000Y7855001D03*
X37825000Y40900000D03*
X26400000Y22100000D03*
X44000000Y33000000D03*
X63000000Y48000000D03*
X8975000Y19500000D03*
X2000000Y28000000D03*
X44000000Y13000000D03*
X7000000Y3000000D03*
X7000000Y23000000D03*
X2000000Y3000000D03*
X31799999Y36500000D03*
X49000000Y28000000D03*
X13990000Y28275000D03*
X49300000Y14650000D03*
X32000000Y18000000D03*
X49000000Y13000000D03*
%TO.N,/3V3*%
X34175000Y45500000D03*
X28849999Y44500000D03*
X15065000Y22900000D03*
X13795000Y21100000D03*
X34175000Y38500000D03*
X34175000Y36000000D03*
X40600000Y48000000D03*
X33449999Y47800000D03*
X12625000Y19500000D03*
X28849999Y40500000D03*
X13990000Y26725000D03*
X18674999Y21000000D03*
X28849999Y36500000D03*
X60075000Y44175000D03*
X34175000Y43200000D03*
%TO.N,/CC2*%
X58283100Y13013100D03*
X57782500Y5400000D03*
%TO.N,/CAR_12V*%
X24000000Y14500000D03*
%TO.N,/STATUS_LED*%
X37685600Y39850000D03*
X32709200Y29773500D03*
%TO.N,/USB_CONN_P*%
X55650000Y4200000D03*
X57050000Y4200000D03*
%TO.N,/ESP_EN*%
X36825000Y42025000D03*
X40400000Y46500000D03*
%TO.N,/CAN_TX*%
X41814800Y45393800D03*
X33010000Y27314500D03*
%TO.N,/CAN_RX*%
X37702200Y44450000D03*
X25207300Y30500000D03*
%TO.N,/USB_CONN_N*%
X56350000Y3400000D03*
X54950000Y3400000D03*
%TD*%
%TA.AperFunction,Conductor*%
%TO.N,/GND*%
G36*
X33978326Y49677826D02*
G01*
X34000000Y49625500D01*
X34000000Y49100000D01*
X62000000Y49100000D01*
X62000000Y49625500D01*
X62021674Y49677826D01*
X62074000Y49699500D01*
X64625500Y49699500D01*
X64677826Y49677826D01*
X64699500Y49625500D01*
X64699500Y374500D01*
X64677826Y322174D01*
X64625500Y300500D01*
X374500Y300500D01*
X322174Y322174D01*
X300500Y374500D01*
X300500Y4118093D01*
X37499500Y4118093D01*
X37499500Y3881908D01*
X37536446Y3648635D01*
X37536449Y3648622D01*
X37609429Y3424014D01*
X37716656Y3213568D01*
X37815635Y3077335D01*
X37855483Y3022490D01*
X38022490Y2855483D01*
X38213567Y2716657D01*
X38424008Y2609432D01*
X38424010Y2609432D01*
X38424013Y2609430D01*
X38648621Y2536450D01*
X38648627Y2536449D01*
X38648632Y2536447D01*
X38804149Y2511816D01*
X38881907Y2499500D01*
X38881908Y2499500D01*
X39118093Y2499500D01*
X39176411Y2508737D01*
X39351368Y2536447D01*
X39351375Y2536450D01*
X39351378Y2536450D01*
X39575986Y2609430D01*
X39575986Y2609431D01*
X39575992Y2609432D01*
X39786433Y2716657D01*
X39977510Y2855483D01*
X40144517Y3022490D01*
X40283343Y3213567D01*
X40390568Y3424008D01*
X40405247Y3469186D01*
X54424500Y3469186D01*
X54424500Y3330815D01*
X54460310Y3197169D01*
X54460312Y3197164D01*
X54529495Y3077335D01*
X54627335Y2979495D01*
X54747164Y2910312D01*
X54880814Y2874501D01*
X54880815Y2874500D01*
X54880817Y2874500D01*
X55019185Y2874500D01*
X55019185Y2874501D01*
X55152836Y2910312D01*
X55272665Y2979495D01*
X55370505Y3077335D01*
X55439688Y3197164D01*
X55475499Y3330815D01*
X55475500Y3330815D01*
X55475500Y3469185D01*
X55475499Y3469186D01*
X55441257Y3596979D01*
X55448649Y3653132D01*
X55493582Y3687610D01*
X55531888Y3687610D01*
X55559477Y3680218D01*
X55580814Y3674501D01*
X55580815Y3674500D01*
X55580817Y3674500D01*
X55719185Y3674500D01*
X55719185Y3674501D01*
X55756775Y3684573D01*
X55768111Y3687610D01*
X55824264Y3680218D01*
X55858742Y3635285D01*
X55858742Y3596981D01*
X55831927Y3496901D01*
X55824500Y3469182D01*
X55824500Y3330815D01*
X55860310Y3197169D01*
X55860312Y3197164D01*
X55929495Y3077335D01*
X56027335Y2979495D01*
X56147164Y2910312D01*
X56280814Y2874501D01*
X56280815Y2874500D01*
X56280817Y2874500D01*
X56419185Y2874500D01*
X56419185Y2874501D01*
X56552836Y2910312D01*
X56672665Y2979495D01*
X56770505Y3077335D01*
X56839688Y3197164D01*
X56875499Y3330815D01*
X56875500Y3330815D01*
X56875500Y3469185D01*
X56875499Y3469186D01*
X56841257Y3596979D01*
X56848649Y3653132D01*
X56893582Y3687610D01*
X56931888Y3687610D01*
X56959477Y3680218D01*
X56980814Y3674501D01*
X56980815Y3674500D01*
X56980817Y3674500D01*
X57119185Y3674500D01*
X57119185Y3674501D01*
X57252836Y3710312D01*
X57372665Y3779495D01*
X57470505Y3877335D01*
X57539688Y3997164D01*
X57575499Y4130815D01*
X57575500Y4130815D01*
X57575500Y4269185D01*
X57575499Y4269186D01*
X57539689Y4402832D01*
X57539688Y4402836D01*
X57470505Y4522665D01*
X57372665Y4620505D01*
X57252836Y4689688D01*
X57252831Y4689690D01*
X57119185Y4725500D01*
X57119183Y4725500D01*
X56980817Y4725500D01*
X56980815Y4725500D01*
X56847168Y4689690D01*
X56847163Y4689688D01*
X56727334Y4620505D01*
X56629495Y4522666D01*
X56560312Y4402837D01*
X56560310Y4402832D01*
X56524500Y4269186D01*
X56524500Y4130815D01*
X56558742Y4003022D01*
X56551350Y3946869D01*
X56506417Y3912391D01*
X56468112Y3912390D01*
X56419183Y3925500D01*
X56280817Y3925500D01*
X56231887Y3912390D01*
X56175734Y3919784D01*
X56141256Y3964717D01*
X56141256Y4003020D01*
X56175499Y4130815D01*
X56175500Y4130815D01*
X56175500Y4269185D01*
X56175499Y4269186D01*
X56139689Y4402832D01*
X56139688Y4402836D01*
X56070505Y4522665D01*
X55972665Y4620505D01*
X55852836Y4689688D01*
X55852831Y4689690D01*
X55719185Y4725500D01*
X55719183Y4725500D01*
X55580817Y4725500D01*
X55580815Y4725500D01*
X55447168Y4689690D01*
X55447163Y4689688D01*
X55327334Y4620505D01*
X55229495Y4522666D01*
X55160312Y4402837D01*
X55160310Y4402832D01*
X55124500Y4269186D01*
X55124500Y4130815D01*
X55158742Y4003022D01*
X55151350Y3946869D01*
X55106417Y3912391D01*
X55068112Y3912390D01*
X55019183Y3925500D01*
X54880817Y3925500D01*
X54880815Y3925500D01*
X54747168Y3889690D01*
X54747163Y3889688D01*
X54627334Y3820505D01*
X54529495Y3722666D01*
X54460312Y3602837D01*
X54460310Y3602832D01*
X54424500Y3469186D01*
X40405247Y3469186D01*
X40414253Y3496901D01*
X40414253Y3496902D01*
X40463550Y3648622D01*
X40463550Y3648625D01*
X40463553Y3648632D01*
X40500500Y3881908D01*
X40500500Y4118092D01*
X40463553Y4351368D01*
X40463551Y4351373D01*
X40463550Y4351379D01*
X40390570Y4575987D01*
X40390568Y4575990D01*
X40390568Y4575992D01*
X40283343Y4786433D01*
X40144517Y4977510D01*
X39977510Y5144517D01*
X39977507Y5144520D01*
X39977505Y5144521D01*
X39786432Y5283344D01*
X39575986Y5390571D01*
X39351378Y5463551D01*
X39351365Y5463554D01*
X39118093Y5500500D01*
X39118092Y5500500D01*
X38881908Y5500500D01*
X38881907Y5500500D01*
X38648634Y5463554D01*
X38648621Y5463551D01*
X38424013Y5390571D01*
X38213567Y5283344D01*
X38022494Y5144521D01*
X37855479Y4977506D01*
X37716656Y4786433D01*
X37609429Y4575987D01*
X37536449Y4351379D01*
X37536446Y4351366D01*
X37499500Y4118093D01*
X300500Y4118093D01*
X300500Y5667604D01*
X52634500Y5667604D01*
X52634500Y5542397D01*
X52666904Y5421465D01*
X52687447Y5385884D01*
X52729505Y5313036D01*
X52818036Y5224505D01*
X52926464Y5161905D01*
X52926463Y5161905D01*
X52991341Y5144521D01*
X53047396Y5129501D01*
X53047397Y5129500D01*
X53047399Y5129500D01*
X53172603Y5129500D01*
X53172603Y5129501D01*
X53293536Y5161905D01*
X53401964Y5224505D01*
X53490495Y5313036D01*
X53553095Y5421464D01*
X53563390Y5459884D01*
X53565883Y5469186D01*
X57257000Y5469186D01*
X57257000Y5330815D01*
X57292810Y5197169D01*
X57292812Y5197164D01*
X57361995Y5077335D01*
X57459835Y4979495D01*
X57579664Y4910312D01*
X57713314Y4874501D01*
X57713315Y4874500D01*
X57713317Y4874500D01*
X57851685Y4874500D01*
X57851685Y4874501D01*
X57985336Y4910312D01*
X58105165Y4979495D01*
X58203005Y5077335D01*
X58272188Y5197164D01*
X58307999Y5330815D01*
X58308000Y5330815D01*
X58308000Y5385884D01*
X58329674Y5438210D01*
X58382000Y5459884D01*
X58434326Y5438210D01*
X58446086Y5422883D01*
X58446904Y5421465D01*
X58446905Y5421464D01*
X58509505Y5313036D01*
X58598036Y5224505D01*
X58706464Y5161905D01*
X58706463Y5161905D01*
X58771341Y5144521D01*
X58827396Y5129501D01*
X58827397Y5129500D01*
X58827399Y5129500D01*
X58952603Y5129500D01*
X58952603Y5129501D01*
X59073536Y5161905D01*
X59181964Y5224505D01*
X59270495Y5313036D01*
X59333095Y5421464D01*
X59365499Y5542397D01*
X59365500Y5542397D01*
X59365500Y5667603D01*
X59365499Y5667604D01*
X59333095Y5788536D01*
X59270495Y5896964D01*
X59181963Y5985496D01*
X59073534Y6048096D01*
X59073536Y6048096D01*
X58952603Y6080500D01*
X58952601Y6080500D01*
X58827399Y6080500D01*
X58827397Y6080500D01*
X58706464Y6048096D01*
X58598036Y5985496D01*
X58509504Y5896964D01*
X58446904Y5788536D01*
X58414500Y5667604D01*
X58414500Y5631287D01*
X58392826Y5578961D01*
X58340500Y5557287D01*
X58288174Y5578961D01*
X58274912Y5598808D01*
X58274613Y5598635D01*
X58255761Y5631287D01*
X58203005Y5722665D01*
X58105165Y5820505D01*
X57985336Y5889688D01*
X57985331Y5889690D01*
X57851685Y5925500D01*
X57851683Y5925500D01*
X57713317Y5925500D01*
X57713315Y5925500D01*
X57579668Y5889690D01*
X57579663Y5889688D01*
X57459834Y5820505D01*
X57361995Y5722666D01*
X57292812Y5602837D01*
X57292810Y5602832D01*
X57257000Y5469186D01*
X53565883Y5469186D01*
X53572314Y5493186D01*
X53585499Y5542397D01*
X53585500Y5542397D01*
X53585500Y5667603D01*
X53585499Y5667604D01*
X53553095Y5788536D01*
X53490495Y5896964D01*
X53401963Y5985496D01*
X53293534Y6048096D01*
X53293536Y6048096D01*
X53172603Y6080500D01*
X53172601Y6080500D01*
X53047399Y6080500D01*
X53047397Y6080500D01*
X52926464Y6048096D01*
X52818036Y5985496D01*
X52729504Y5896964D01*
X52666904Y5788536D01*
X52634500Y5667604D01*
X300500Y5667604D01*
X300500Y8258540D01*
X11384500Y8258540D01*
X11384500Y8061461D01*
X11422947Y7868171D01*
X11422950Y7868161D01*
X11498367Y7686087D01*
X11498368Y7686086D01*
X11607861Y7522218D01*
X11747218Y7382861D01*
X11911086Y7273368D01*
X12093165Y7197949D01*
X12286459Y7159500D01*
X12286461Y7159500D01*
X12483539Y7159500D01*
X12483541Y7159500D01*
X12676835Y7197949D01*
X12858914Y7273368D01*
X13022782Y7382861D01*
X13162139Y7522218D01*
X13271632Y7686086D01*
X13347051Y7868165D01*
X13385500Y8061459D01*
X13385500Y8258540D01*
X14154500Y8258540D01*
X14154500Y8061461D01*
X14192947Y7868171D01*
X14192950Y7868161D01*
X14268367Y7686087D01*
X14268368Y7686086D01*
X14377861Y7522218D01*
X14517218Y7382861D01*
X14681086Y7273368D01*
X14863165Y7197949D01*
X15056459Y7159500D01*
X15056461Y7159500D01*
X15253539Y7159500D01*
X15253541Y7159500D01*
X15446835Y7197949D01*
X15628914Y7273368D01*
X15792782Y7382861D01*
X15932139Y7522218D01*
X16041632Y7686086D01*
X16117051Y7868165D01*
X16155500Y8061459D01*
X16155500Y8258540D01*
X16924500Y8258540D01*
X16924500Y8061461D01*
X16962947Y7868171D01*
X16962950Y7868161D01*
X17038367Y7686087D01*
X17038368Y7686086D01*
X17147861Y7522218D01*
X17287218Y7382861D01*
X17451086Y7273368D01*
X17633165Y7197949D01*
X17826459Y7159500D01*
X17826461Y7159500D01*
X18023539Y7159500D01*
X18023541Y7159500D01*
X18216835Y7197949D01*
X18398914Y7273368D01*
X18562782Y7382861D01*
X18702139Y7522218D01*
X18811632Y7686086D01*
X18887051Y7868165D01*
X18925500Y8061459D01*
X18925500Y8258540D01*
X19694500Y8258540D01*
X19694500Y8061461D01*
X19732947Y7868171D01*
X19732950Y7868161D01*
X19808367Y7686087D01*
X19808368Y7686086D01*
X19917861Y7522218D01*
X20057218Y7382861D01*
X20221086Y7273368D01*
X20403165Y7197949D01*
X20596459Y7159500D01*
X20596461Y7159500D01*
X20793539Y7159500D01*
X20793541Y7159500D01*
X20986835Y7197949D01*
X21168914Y7273368D01*
X21332782Y7382861D01*
X21472139Y7522218D01*
X21581632Y7686086D01*
X21657051Y7868165D01*
X21695500Y8061459D01*
X21695500Y8249186D01*
X53074500Y8249186D01*
X53074500Y8110815D01*
X53110310Y7977169D01*
X53110312Y7977164D01*
X53179495Y7857335D01*
X53277335Y7759495D01*
X53397164Y7690312D01*
X53530814Y7654501D01*
X53530815Y7654500D01*
X53530817Y7654500D01*
X53669185Y7654500D01*
X53669185Y7654501D01*
X53802836Y7690312D01*
X53922665Y7759495D01*
X54020505Y7857335D01*
X54089688Y7977164D01*
X54125499Y8110815D01*
X54125500Y8110815D01*
X54125500Y8249185D01*
X54125499Y8249186D01*
X54122992Y8258541D01*
X54089688Y8382836D01*
X54020505Y8502665D01*
X53922665Y8600505D01*
X53803705Y8669186D01*
X55974500Y8669186D01*
X55974500Y8530815D01*
X56010310Y8397169D01*
X56010312Y8397164D01*
X56079495Y8277335D01*
X56177335Y8179495D01*
X56297164Y8110312D01*
X56430814Y8074501D01*
X56430815Y8074500D01*
X56430817Y8074500D01*
X56569185Y8074500D01*
X56569185Y8074501D01*
X56702836Y8110312D01*
X56822665Y8179495D01*
X56892356Y8249186D01*
X57874500Y8249186D01*
X57874500Y8110815D01*
X57910310Y7977169D01*
X57910312Y7977164D01*
X57979495Y7857335D01*
X58077335Y7759495D01*
X58197164Y7690312D01*
X58330814Y7654501D01*
X58330815Y7654500D01*
X58330817Y7654500D01*
X58469185Y7654500D01*
X58469185Y7654501D01*
X58602836Y7690312D01*
X58722665Y7759495D01*
X58820505Y7857335D01*
X58889688Y7977164D01*
X58925499Y8110815D01*
X58925500Y8110815D01*
X58925500Y8249185D01*
X58925499Y8249186D01*
X58922992Y8258541D01*
X58889688Y8382836D01*
X58820505Y8502665D01*
X58722665Y8600505D01*
X58602836Y8669688D01*
X58602831Y8669690D01*
X58469185Y8705500D01*
X58469183Y8705500D01*
X58330817Y8705500D01*
X58330815Y8705500D01*
X58197168Y8669690D01*
X58197163Y8669688D01*
X58077334Y8600505D01*
X57979495Y8502666D01*
X57910312Y8382837D01*
X57910310Y8382832D01*
X57874500Y8249186D01*
X56892356Y8249186D01*
X56920505Y8277335D01*
X56989688Y8397164D01*
X57025499Y8530815D01*
X57025500Y8530815D01*
X57025500Y8669185D01*
X57025499Y8669186D01*
X57025364Y8669688D01*
X56989688Y8802836D01*
X56920505Y8922665D01*
X56822665Y9020505D01*
X56702836Y9089688D01*
X56702831Y9089690D01*
X56569185Y9125500D01*
X56569183Y9125500D01*
X56430817Y9125500D01*
X56430815Y9125500D01*
X56297168Y9089690D01*
X56297163Y9089688D01*
X56177334Y9020505D01*
X56079495Y8922666D01*
X56010312Y8802837D01*
X56010310Y8802832D01*
X55974500Y8669186D01*
X53803705Y8669186D01*
X53802836Y8669688D01*
X53802833Y8669689D01*
X53802831Y8669690D01*
X53669185Y8705500D01*
X53669183Y8705500D01*
X53530817Y8705500D01*
X53530815Y8705500D01*
X53397168Y8669690D01*
X53397163Y8669688D01*
X53277334Y8600505D01*
X53179495Y8502666D01*
X53110312Y8382837D01*
X53110310Y8382832D01*
X53074500Y8249186D01*
X21695500Y8249186D01*
X21695500Y8258541D01*
X21657051Y8451835D01*
X21581632Y8633914D01*
X21472139Y8797782D01*
X21332782Y8937139D01*
X21168914Y9046632D01*
X21168915Y9046632D01*
X21168913Y9046633D01*
X20986839Y9122050D01*
X20986829Y9122053D01*
X20857388Y9147800D01*
X20793541Y9160500D01*
X20596459Y9160500D01*
X20541662Y9149601D01*
X20403170Y9122053D01*
X20403160Y9122050D01*
X20221086Y9046633D01*
X20057218Y8937140D01*
X20057217Y8937138D01*
X19917862Y8797783D01*
X19917860Y8797782D01*
X19808367Y8633914D01*
X19732950Y8451840D01*
X19732947Y8451830D01*
X19694500Y8258540D01*
X18925500Y8258540D01*
X18925500Y8258541D01*
X18887051Y8451835D01*
X18811632Y8633914D01*
X18702139Y8797782D01*
X18562782Y8937139D01*
X18398914Y9046632D01*
X18398915Y9046632D01*
X18398913Y9046633D01*
X18216839Y9122050D01*
X18216829Y9122053D01*
X18087388Y9147800D01*
X18023541Y9160500D01*
X17826459Y9160500D01*
X17771662Y9149601D01*
X17633170Y9122053D01*
X17633160Y9122050D01*
X17451086Y9046633D01*
X17287218Y8937140D01*
X17287217Y8937138D01*
X17147862Y8797783D01*
X17147860Y8797782D01*
X17038367Y8633914D01*
X16962950Y8451840D01*
X16962947Y8451830D01*
X16924500Y8258540D01*
X16155500Y8258540D01*
X16155500Y8258541D01*
X16117051Y8451835D01*
X16041632Y8633914D01*
X15932139Y8797782D01*
X15792782Y8937139D01*
X15628914Y9046632D01*
X15628915Y9046632D01*
X15628913Y9046633D01*
X15446839Y9122050D01*
X15446829Y9122053D01*
X15317388Y9147800D01*
X15253541Y9160500D01*
X15056459Y9160500D01*
X15001662Y9149601D01*
X14863170Y9122053D01*
X14863160Y9122050D01*
X14681086Y9046633D01*
X14517218Y8937140D01*
X14517217Y8937138D01*
X14377862Y8797783D01*
X14377860Y8797782D01*
X14268367Y8633914D01*
X14192950Y8451840D01*
X14192947Y8451830D01*
X14154500Y8258540D01*
X13385500Y8258540D01*
X13385500Y8258541D01*
X13347051Y8451835D01*
X13271632Y8633914D01*
X13162139Y8797782D01*
X13022782Y8937139D01*
X12858914Y9046632D01*
X12858915Y9046632D01*
X12858913Y9046633D01*
X12676839Y9122050D01*
X12676829Y9122053D01*
X12547388Y9147800D01*
X12483541Y9160500D01*
X12286459Y9160500D01*
X12231662Y9149601D01*
X12093170Y9122053D01*
X12093160Y9122050D01*
X11911086Y9046633D01*
X11747218Y8937140D01*
X11747217Y8937138D01*
X11607862Y8797783D01*
X11607860Y8797782D01*
X11498367Y8633914D01*
X11422950Y8451840D01*
X11422947Y8451830D01*
X11384500Y8258540D01*
X300500Y8258540D01*
X300500Y9694186D01*
X57999500Y9694186D01*
X57999500Y9555815D01*
X58035310Y9422169D01*
X58035312Y9422164D01*
X58104495Y9302335D01*
X58202335Y9204495D01*
X58322164Y9135312D01*
X58455814Y9099501D01*
X58455815Y9099500D01*
X58455817Y9099500D01*
X58594185Y9099500D01*
X58594185Y9099501D01*
X58727836Y9135312D01*
X58847665Y9204495D01*
X58945505Y9302335D01*
X59014688Y9422164D01*
X59050499Y9555815D01*
X59050500Y9555815D01*
X59050500Y9694185D01*
X59050499Y9694186D01*
X59014689Y9827832D01*
X59014688Y9827836D01*
X58945505Y9947665D01*
X58847665Y10045505D01*
X58727836Y10114688D01*
X58727831Y10114690D01*
X58594185Y10150500D01*
X58594183Y10150500D01*
X58455817Y10150500D01*
X58455815Y10150500D01*
X58322168Y10114690D01*
X58322163Y10114688D01*
X58202334Y10045505D01*
X58104495Y9947666D01*
X58035312Y9827837D01*
X58035310Y9827832D01*
X57999500Y9694186D01*
X300500Y9694186D01*
X300500Y11819747D01*
X9999500Y11819747D01*
X9999500Y10180254D01*
X10011133Y10121768D01*
X10015863Y10114690D01*
X10055448Y10055448D01*
X10099560Y10025973D01*
X10121767Y10011134D01*
X10121768Y10011134D01*
X10121769Y10011133D01*
X10180252Y9999500D01*
X10180254Y9999500D01*
X11819746Y9999500D01*
X11819748Y9999500D01*
X11878231Y10011133D01*
X11944552Y10055448D01*
X11988867Y10121769D01*
X12000500Y10180252D01*
X12000500Y11098540D01*
X12769500Y11098540D01*
X12769500Y10901461D01*
X12807947Y10708171D01*
X12807950Y10708161D01*
X12883367Y10526087D01*
X12992860Y10362219D01*
X13132218Y10222861D01*
X13296086Y10113368D01*
X13435913Y10055450D01*
X13478165Y10037949D01*
X13671459Y9999500D01*
X13671461Y9999500D01*
X13868539Y9999500D01*
X13868541Y9999500D01*
X14061835Y10037949D01*
X14243914Y10113368D01*
X14407782Y10222861D01*
X14547139Y10362218D01*
X14656632Y10526086D01*
X14732051Y10708165D01*
X14770500Y10901459D01*
X14770500Y11098540D01*
X18309500Y11098540D01*
X18309500Y10901461D01*
X18347947Y10708171D01*
X18347950Y10708161D01*
X18423367Y10526087D01*
X18532860Y10362219D01*
X18672218Y10222861D01*
X18836086Y10113368D01*
X18975913Y10055450D01*
X19018165Y10037949D01*
X19211459Y9999500D01*
X19211461Y9999500D01*
X19408539Y9999500D01*
X19408541Y9999500D01*
X19601835Y10037949D01*
X19783914Y10113368D01*
X19947782Y10222861D01*
X20087139Y10362218D01*
X20196632Y10526086D01*
X20272051Y10708165D01*
X20310500Y10901459D01*
X20310500Y11098540D01*
X21079500Y11098540D01*
X21079500Y10901461D01*
X21117947Y10708171D01*
X21117950Y10708161D01*
X21193367Y10526087D01*
X21302860Y10362219D01*
X21442218Y10222861D01*
X21606086Y10113368D01*
X21745913Y10055450D01*
X21788165Y10037949D01*
X21981459Y9999500D01*
X21981461Y9999500D01*
X22178539Y9999500D01*
X22178541Y9999500D01*
X22371835Y10037949D01*
X22553914Y10113368D01*
X22717782Y10222861D01*
X22857139Y10362218D01*
X22966632Y10526086D01*
X23042051Y10708165D01*
X23080500Y10901459D01*
X23080500Y11098541D01*
X23042051Y11291835D01*
X22989301Y11419186D01*
X48774500Y11419186D01*
X48774500Y11280815D01*
X48810310Y11147169D01*
X48810312Y11147164D01*
X48879495Y11027335D01*
X48977335Y10929495D01*
X49097164Y10860312D01*
X49230814Y10824501D01*
X49230815Y10824500D01*
X49230817Y10824500D01*
X49369185Y10824500D01*
X49369185Y10824501D01*
X49502836Y10860312D01*
X49622665Y10929495D01*
X49720505Y11027335D01*
X49789688Y11147164D01*
X49825499Y11280815D01*
X49825500Y11280815D01*
X49825500Y11419185D01*
X49825499Y11419186D01*
X49789689Y11552832D01*
X49789688Y11552836D01*
X49720505Y11672665D01*
X49622665Y11770505D01*
X49502836Y11839688D01*
X49502831Y11839690D01*
X49369185Y11875500D01*
X49369183Y11875500D01*
X49230817Y11875500D01*
X49230815Y11875500D01*
X49097168Y11839690D01*
X49097163Y11839688D01*
X48977334Y11770505D01*
X48879495Y11672666D01*
X48810312Y11552837D01*
X48810310Y11552832D01*
X48774500Y11419186D01*
X22989301Y11419186D01*
X22966632Y11473914D01*
X22857139Y11637782D01*
X22717782Y11777139D01*
X22654014Y11819748D01*
X22553913Y11886633D01*
X22371839Y11962050D01*
X22371829Y11962053D01*
X22237023Y11988867D01*
X22178541Y12000500D01*
X21981459Y12000500D01*
X21926662Y11989601D01*
X21788170Y11962053D01*
X21788160Y11962050D01*
X21606086Y11886633D01*
X21442218Y11777140D01*
X21442217Y11777138D01*
X21302862Y11637783D01*
X21302860Y11637782D01*
X21193367Y11473914D01*
X21117950Y11291840D01*
X21117947Y11291830D01*
X21079500Y11098540D01*
X20310500Y11098540D01*
X20310500Y11098541D01*
X20272051Y11291835D01*
X20196632Y11473914D01*
X20087139Y11637782D01*
X19947782Y11777139D01*
X19884014Y11819748D01*
X19783913Y11886633D01*
X19601839Y11962050D01*
X19601829Y11962053D01*
X19467023Y11988867D01*
X19408541Y12000500D01*
X19211459Y12000500D01*
X19156662Y11989601D01*
X19018170Y11962053D01*
X19018160Y11962050D01*
X18836086Y11886633D01*
X18672218Y11777140D01*
X18672217Y11777138D01*
X18532862Y11637783D01*
X18532860Y11637782D01*
X18423367Y11473914D01*
X18347950Y11291840D01*
X18347947Y11291830D01*
X18309500Y11098540D01*
X14770500Y11098540D01*
X14770500Y11098541D01*
X14732051Y11291835D01*
X14656632Y11473914D01*
X14547139Y11637782D01*
X14407782Y11777139D01*
X14344014Y11819748D01*
X14243913Y11886633D01*
X14061839Y11962050D01*
X14061829Y11962053D01*
X13927023Y11988867D01*
X13868541Y12000500D01*
X13671459Y12000500D01*
X13616662Y11989601D01*
X13478170Y11962053D01*
X13478160Y11962050D01*
X13296086Y11886633D01*
X13132218Y11777140D01*
X13132217Y11777138D01*
X12992862Y11637783D01*
X12992860Y11637782D01*
X12883367Y11473914D01*
X12807950Y11291840D01*
X12807947Y11291830D01*
X12769500Y11098540D01*
X12000500Y11098540D01*
X12000500Y11819748D01*
X11988867Y11878231D01*
X11944552Y11944552D01*
X11918360Y11962053D01*
X11878232Y11988867D01*
X11878233Y11988867D01*
X11848989Y11994684D01*
X11819748Y12000500D01*
X10180252Y12000500D01*
X10151010Y11994684D01*
X10121767Y11988867D01*
X10055449Y11944553D01*
X10055447Y11944551D01*
X10011133Y11878233D01*
X9999500Y11819747D01*
X300500Y11819747D01*
X300500Y12244186D01*
X45899500Y12244186D01*
X45899500Y12105815D01*
X45935310Y11972169D01*
X45935312Y11972164D01*
X46004495Y11852335D01*
X46102335Y11754495D01*
X46222164Y11685312D01*
X46355814Y11649501D01*
X46355815Y11649500D01*
X46355817Y11649500D01*
X46494185Y11649500D01*
X46494185Y11649501D01*
X46627836Y11685312D01*
X46747665Y11754495D01*
X46845505Y11852335D01*
X46914688Y11972164D01*
X46950499Y12105815D01*
X46950500Y12105815D01*
X46950500Y12244185D01*
X46950499Y12244186D01*
X50999500Y12244186D01*
X50999500Y12105815D01*
X51035310Y11972169D01*
X51035312Y11972164D01*
X51104495Y11852335D01*
X51202335Y11754495D01*
X51322164Y11685312D01*
X51455814Y11649501D01*
X51455815Y11649500D01*
X51455817Y11649500D01*
X51594185Y11649500D01*
X51594185Y11649501D01*
X51727836Y11685312D01*
X51847665Y11754495D01*
X51945505Y11852335D01*
X52014688Y11972164D01*
X52050499Y12105815D01*
X52050500Y12105815D01*
X52050500Y12244185D01*
X52050499Y12244186D01*
X52014689Y12377832D01*
X52014688Y12377836D01*
X51945505Y12497665D01*
X51847665Y12595505D01*
X51727836Y12664688D01*
X51727831Y12664690D01*
X51594185Y12700500D01*
X51594183Y12700500D01*
X51455817Y12700500D01*
X51455815Y12700500D01*
X51322168Y12664690D01*
X51322163Y12664688D01*
X51202334Y12595505D01*
X51104495Y12497666D01*
X51035312Y12377837D01*
X51035310Y12377832D01*
X50999500Y12244186D01*
X46950499Y12244186D01*
X46914689Y12377832D01*
X46914688Y12377836D01*
X46845505Y12497665D01*
X46747665Y12595505D01*
X46627836Y12664688D01*
X46627831Y12664690D01*
X46494185Y12700500D01*
X46494183Y12700500D01*
X46355817Y12700500D01*
X46355815Y12700500D01*
X46222168Y12664690D01*
X46222163Y12664688D01*
X46102334Y12595505D01*
X46004495Y12497666D01*
X45935312Y12377837D01*
X45935310Y12377832D01*
X45899500Y12244186D01*
X300500Y12244186D01*
X300500Y13082286D01*
X57757600Y13082286D01*
X57757600Y12943915D01*
X57793410Y12810269D01*
X57793412Y12810264D01*
X57862595Y12690435D01*
X57960435Y12592595D01*
X58080264Y12523412D01*
X58213914Y12487601D01*
X58213915Y12487600D01*
X58213917Y12487600D01*
X58352285Y12487600D01*
X58352285Y12487601D01*
X58485936Y12523412D01*
X58605765Y12592595D01*
X58703605Y12690435D01*
X58772788Y12810264D01*
X58808599Y12943915D01*
X58808600Y12943915D01*
X58808600Y13082285D01*
X58808599Y13082286D01*
X58772789Y13215932D01*
X58772788Y13215936D01*
X58703605Y13335765D01*
X58605765Y13433605D01*
X58485936Y13502788D01*
X58485931Y13502790D01*
X58352285Y13538600D01*
X58352283Y13538600D01*
X58213917Y13538600D01*
X58213915Y13538600D01*
X58080268Y13502790D01*
X58080263Y13502788D01*
X57960434Y13433605D01*
X57862595Y13335766D01*
X57793412Y13215937D01*
X57793410Y13215932D01*
X57757600Y13082286D01*
X300500Y13082286D01*
X300500Y14569186D01*
X23474500Y14569186D01*
X23474500Y14430815D01*
X23510310Y14297169D01*
X23510312Y14297164D01*
X23579495Y14177335D01*
X23677335Y14079495D01*
X23797164Y14010312D01*
X23930814Y13974501D01*
X23930815Y13974500D01*
X23930817Y13974500D01*
X24069185Y13974500D01*
X24069185Y13974501D01*
X24202836Y14010312D01*
X24322665Y14079495D01*
X24420505Y14177335D01*
X24489688Y14297164D01*
X24525499Y14430815D01*
X24525500Y14430815D01*
X24525500Y14569185D01*
X24525499Y14569186D01*
X24489689Y14702832D01*
X24489688Y14702836D01*
X24420505Y14822665D01*
X24322665Y14920505D01*
X24202836Y14989688D01*
X24202831Y14989690D01*
X24069185Y15025500D01*
X24069183Y15025500D01*
X23930817Y15025500D01*
X23930815Y15025500D01*
X23797168Y14989690D01*
X23797163Y14989688D01*
X23677334Y14920505D01*
X23579495Y14822666D01*
X23510312Y14702837D01*
X23510310Y14702832D01*
X23474500Y14569186D01*
X300500Y14569186D01*
X300500Y18118093D01*
X44499500Y18118093D01*
X44499500Y17881908D01*
X44536446Y17648635D01*
X44536449Y17648622D01*
X44609429Y17424014D01*
X44609431Y17424009D01*
X44609432Y17424008D01*
X44716657Y17213567D01*
X44855483Y17022490D01*
X45022490Y16855483D01*
X45213567Y16716657D01*
X45424008Y16609432D01*
X45424010Y16609432D01*
X45424013Y16609430D01*
X45648621Y16536450D01*
X45648627Y16536449D01*
X45648632Y16536447D01*
X45804149Y16511816D01*
X45881907Y16499500D01*
X45881908Y16499500D01*
X46118093Y16499500D01*
X46176411Y16508737D01*
X46351368Y16536447D01*
X46351375Y16536450D01*
X46351378Y16536450D01*
X46575986Y16609430D01*
X46575986Y16609431D01*
X46575992Y16609432D01*
X46786433Y16716657D01*
X46977510Y16855483D01*
X47144517Y17022490D01*
X47283343Y17213567D01*
X47390568Y17424008D01*
X47463553Y17648632D01*
X47500500Y17881908D01*
X47500500Y18118092D01*
X47463553Y18351368D01*
X47463551Y18351373D01*
X47463550Y18351379D01*
X47390570Y18575987D01*
X47390568Y18575990D01*
X47390568Y18575992D01*
X47283343Y18786433D01*
X47144517Y18977510D01*
X46977510Y19144517D01*
X46977507Y19144520D01*
X46977505Y19144521D01*
X46786432Y19283344D01*
X46575986Y19390571D01*
X46351378Y19463551D01*
X46351365Y19463554D01*
X46118093Y19500500D01*
X46118092Y19500500D01*
X45881908Y19500500D01*
X45881907Y19500500D01*
X45648634Y19463554D01*
X45648621Y19463551D01*
X45424013Y19390571D01*
X45213567Y19283344D01*
X45022494Y19144521D01*
X44855479Y18977506D01*
X44716656Y18786433D01*
X44609429Y18575987D01*
X44536449Y18351379D01*
X44536446Y18351366D01*
X44499500Y18118093D01*
X300500Y18118093D01*
X300500Y19569186D01*
X12099500Y19569186D01*
X12099500Y19430815D01*
X12135310Y19297169D01*
X12135312Y19297164D01*
X12204495Y19177335D01*
X12302335Y19079495D01*
X12422164Y19010312D01*
X12555814Y18974501D01*
X12555815Y18974500D01*
X12555817Y18974500D01*
X12694185Y18974500D01*
X12694185Y18974501D01*
X12827836Y19010312D01*
X12947665Y19079495D01*
X13045505Y19177335D01*
X13114688Y19297164D01*
X13150499Y19430815D01*
X13150500Y19430815D01*
X13150500Y19569185D01*
X13150499Y19569186D01*
X13114689Y19702832D01*
X13114688Y19702836D01*
X13045505Y19822665D01*
X12947665Y19920505D01*
X12827836Y19989688D01*
X12827831Y19989690D01*
X12694185Y20025500D01*
X12694183Y20025500D01*
X12555817Y20025500D01*
X12555815Y20025500D01*
X12422168Y19989690D01*
X12422163Y19989688D01*
X12302334Y19920505D01*
X12204495Y19822666D01*
X12135312Y19702837D01*
X12135310Y19702832D01*
X12099500Y19569186D01*
X300500Y19569186D01*
X300500Y21169186D01*
X13269500Y21169186D01*
X13269500Y21030815D01*
X13305310Y20897169D01*
X13305312Y20897164D01*
X13374495Y20777335D01*
X13472335Y20679495D01*
X13592164Y20610312D01*
X13725814Y20574501D01*
X13725815Y20574500D01*
X13725817Y20574500D01*
X13864185Y20574500D01*
X13864185Y20574501D01*
X13997836Y20610312D01*
X14117665Y20679495D01*
X14215505Y20777335D01*
X14284688Y20897164D01*
X14320499Y21030815D01*
X14320500Y21030815D01*
X14320500Y21069186D01*
X18149499Y21069186D01*
X18149499Y20930815D01*
X18185309Y20797169D01*
X18185311Y20797164D01*
X18254494Y20677335D01*
X18352334Y20579495D01*
X18472163Y20510312D01*
X18605813Y20474501D01*
X18605814Y20474500D01*
X18605816Y20474500D01*
X18744184Y20474500D01*
X18744184Y20474501D01*
X18877835Y20510312D01*
X18997664Y20579495D01*
X19095504Y20677335D01*
X19164687Y20797164D01*
X19200498Y20930815D01*
X19200499Y20930815D01*
X19200499Y21069185D01*
X19200498Y21069186D01*
X19164688Y21202832D01*
X19164687Y21202836D01*
X19095504Y21322665D01*
X18997664Y21420505D01*
X18877835Y21489688D01*
X18877830Y21489690D01*
X18744184Y21525500D01*
X18744182Y21525500D01*
X18605816Y21525500D01*
X18605814Y21525500D01*
X18472167Y21489690D01*
X18472162Y21489688D01*
X18352333Y21420505D01*
X18254494Y21322666D01*
X18185311Y21202837D01*
X18185309Y21202832D01*
X18149499Y21069186D01*
X14320500Y21069186D01*
X14320500Y21169185D01*
X14320499Y21169186D01*
X14284689Y21302832D01*
X14284688Y21302836D01*
X14215505Y21422665D01*
X14117665Y21520505D01*
X13997836Y21589688D01*
X13997831Y21589690D01*
X13864185Y21625500D01*
X13864183Y21625500D01*
X13725817Y21625500D01*
X13725815Y21625500D01*
X13592168Y21589690D01*
X13592163Y21589688D01*
X13472334Y21520505D01*
X13374495Y21422666D01*
X13305312Y21302837D01*
X13305310Y21302832D01*
X13269500Y21169186D01*
X300500Y21169186D01*
X300500Y22969186D01*
X14539500Y22969186D01*
X14539500Y22830815D01*
X14575310Y22697169D01*
X14575312Y22697164D01*
X14644495Y22577335D01*
X14742335Y22479495D01*
X14862164Y22410312D01*
X14995814Y22374501D01*
X14995815Y22374500D01*
X14995817Y22374500D01*
X15134185Y22374500D01*
X15134185Y22374501D01*
X15267836Y22410312D01*
X15387665Y22479495D01*
X15485505Y22577335D01*
X15554688Y22697164D01*
X15590499Y22830815D01*
X15590500Y22830815D01*
X15590500Y22969185D01*
X15590499Y22969186D01*
X15554689Y23102832D01*
X15554688Y23102836D01*
X15485505Y23222665D01*
X15387665Y23320505D01*
X15267836Y23389688D01*
X15267831Y23389690D01*
X15134185Y23425500D01*
X15134183Y23425500D01*
X14995817Y23425500D01*
X14995815Y23425500D01*
X14862168Y23389690D01*
X14862163Y23389688D01*
X14742334Y23320505D01*
X14644495Y23222666D01*
X14575312Y23102837D01*
X14575310Y23102832D01*
X14539500Y22969186D01*
X300500Y22969186D01*
X300500Y23919186D01*
X29023500Y23919186D01*
X29023500Y23780815D01*
X29059310Y23647169D01*
X29059312Y23647164D01*
X29128495Y23527335D01*
X29226335Y23429495D01*
X29346164Y23360312D01*
X29479814Y23324501D01*
X29479815Y23324500D01*
X29479817Y23324500D01*
X29618185Y23324500D01*
X29618185Y23324501D01*
X29751836Y23360312D01*
X29871665Y23429495D01*
X29969505Y23527335D01*
X30038688Y23647164D01*
X30074499Y23780815D01*
X30074500Y23780815D01*
X30074500Y23919185D01*
X30074499Y23919186D01*
X30038689Y24052832D01*
X30038688Y24052836D01*
X29969505Y24172665D01*
X29968684Y24173486D01*
X43737400Y24173486D01*
X43737400Y24035115D01*
X43773210Y23901469D01*
X43773212Y23901464D01*
X43842395Y23781635D01*
X43940235Y23683795D01*
X44060064Y23614612D01*
X44193714Y23578801D01*
X44193715Y23578800D01*
X44193717Y23578800D01*
X44332085Y23578800D01*
X44332085Y23578801D01*
X44465736Y23614612D01*
X44585565Y23683795D01*
X44683405Y23781635D01*
X44752588Y23901464D01*
X44788399Y24035115D01*
X44788400Y24035115D01*
X44788400Y24173485D01*
X44788399Y24173486D01*
X44752589Y24307132D01*
X44752588Y24307136D01*
X44683405Y24426965D01*
X44585565Y24524805D01*
X44465736Y24593988D01*
X44465731Y24593990D01*
X44332085Y24629800D01*
X44332083Y24629800D01*
X44193717Y24629800D01*
X44193715Y24629800D01*
X44060068Y24593990D01*
X44060063Y24593988D01*
X43940234Y24524805D01*
X43842395Y24426966D01*
X43773212Y24307137D01*
X43773210Y24307132D01*
X43737400Y24173486D01*
X29968684Y24173486D01*
X29871665Y24270505D01*
X29751836Y24339688D01*
X29751831Y24339690D01*
X29618185Y24375500D01*
X29618183Y24375500D01*
X29479817Y24375500D01*
X29479815Y24375500D01*
X29346168Y24339690D01*
X29346163Y24339688D01*
X29226334Y24270505D01*
X29128495Y24172666D01*
X29059312Y24052837D01*
X29059310Y24052832D01*
X29023500Y23919186D01*
X300500Y23919186D01*
X300500Y26794186D01*
X13464500Y26794186D01*
X13464500Y26655815D01*
X13500310Y26522169D01*
X13500312Y26522164D01*
X13569495Y26402335D01*
X13667335Y26304495D01*
X13787164Y26235312D01*
X13920814Y26199501D01*
X13920815Y26199500D01*
X13920817Y26199500D01*
X14059185Y26199500D01*
X14059185Y26199501D01*
X14192836Y26235312D01*
X14312665Y26304495D01*
X14410505Y26402335D01*
X14479688Y26522164D01*
X14515499Y26655815D01*
X14515500Y26655815D01*
X14515500Y26794185D01*
X14515499Y26794186D01*
X14479689Y26927832D01*
X14479688Y26927836D01*
X14410505Y27047665D01*
X14312665Y27145505D01*
X14192836Y27214688D01*
X14192831Y27214690D01*
X14059185Y27250500D01*
X14059183Y27250500D01*
X13920817Y27250500D01*
X13920815Y27250500D01*
X13787168Y27214690D01*
X13787163Y27214688D01*
X13667334Y27145505D01*
X13569495Y27047666D01*
X13500312Y26927837D01*
X13500310Y26927832D01*
X13464500Y26794186D01*
X300500Y26794186D01*
X300500Y27919186D01*
X7724500Y27919186D01*
X7724500Y27780815D01*
X7760310Y27647169D01*
X7760312Y27647164D01*
X7829495Y27527335D01*
X7927335Y27429495D01*
X8047164Y27360312D01*
X8180814Y27324501D01*
X8180815Y27324500D01*
X8180817Y27324500D01*
X8319185Y27324500D01*
X8319185Y27324501D01*
X8452836Y27360312D01*
X8493321Y27383686D01*
X32484500Y27383686D01*
X32484500Y27245315D01*
X32520310Y27111669D01*
X32520312Y27111664D01*
X32589495Y26991835D01*
X32687335Y26893995D01*
X32807164Y26824812D01*
X32940814Y26789001D01*
X32940815Y26789000D01*
X32940817Y26789000D01*
X33079185Y26789000D01*
X33079185Y26789001D01*
X33212836Y26824812D01*
X33332665Y26893995D01*
X33430505Y26991835D01*
X33499688Y27111664D01*
X33535499Y27245315D01*
X33535500Y27245315D01*
X33535500Y27383685D01*
X33535499Y27383686D01*
X33523224Y27429496D01*
X33499688Y27517336D01*
X33430505Y27637165D01*
X33332665Y27735005D01*
X33212836Y27804188D01*
X33212831Y27804190D01*
X33079185Y27840000D01*
X33079183Y27840000D01*
X32940817Y27840000D01*
X32940815Y27840000D01*
X32807168Y27804190D01*
X32807163Y27804188D01*
X32687334Y27735005D01*
X32589495Y27637166D01*
X32520312Y27517337D01*
X32520310Y27517332D01*
X32484500Y27383686D01*
X8493321Y27383686D01*
X8572665Y27429495D01*
X8670505Y27527335D01*
X8739688Y27647164D01*
X8775499Y27780815D01*
X8775500Y27780815D01*
X8775500Y27919185D01*
X8775499Y27919186D01*
X8772383Y27930815D01*
X8739688Y28052836D01*
X8730248Y28069186D01*
X21974500Y28069186D01*
X21974500Y27930815D01*
X22010310Y27797169D01*
X22010312Y27797164D01*
X22079495Y27677335D01*
X22177335Y27579495D01*
X22297164Y27510312D01*
X22430814Y27474501D01*
X22430815Y27474500D01*
X22430817Y27474500D01*
X22569185Y27474500D01*
X22569185Y27474501D01*
X22702836Y27510312D01*
X22822665Y27579495D01*
X22920505Y27677335D01*
X22989688Y27797164D01*
X23025499Y27930815D01*
X23025500Y27930815D01*
X23025500Y28069185D01*
X23025499Y28069186D01*
X22989689Y28202832D01*
X22989688Y28202836D01*
X22920505Y28322665D01*
X22822665Y28420505D01*
X22702836Y28489688D01*
X22702831Y28489690D01*
X22569185Y28525500D01*
X22569183Y28525500D01*
X22430817Y28525500D01*
X22430815Y28525500D01*
X22297168Y28489690D01*
X22297163Y28489688D01*
X22177334Y28420505D01*
X22079495Y28322666D01*
X22010312Y28202837D01*
X22010310Y28202832D01*
X21974500Y28069186D01*
X8730248Y28069186D01*
X8670505Y28172665D01*
X8572665Y28270505D01*
X8452836Y28339688D01*
X8452831Y28339690D01*
X8319185Y28375500D01*
X8319183Y28375500D01*
X8180817Y28375500D01*
X8180815Y28375500D01*
X8047168Y28339690D01*
X8047163Y28339688D01*
X7927334Y28270505D01*
X7829495Y28172666D01*
X7760312Y28052837D01*
X7760310Y28052832D01*
X7724500Y27919186D01*
X300500Y27919186D01*
X300500Y30569186D01*
X24681800Y30569186D01*
X24681800Y30430815D01*
X24717610Y30297169D01*
X24717612Y30297164D01*
X24786795Y30177335D01*
X24884635Y30079495D01*
X25004464Y30010312D01*
X25087828Y29987975D01*
X25132760Y29953497D01*
X25140153Y29897344D01*
X25121000Y29864172D01*
X25079496Y29822668D01*
X25010312Y29702837D01*
X25010310Y29702832D01*
X24974500Y29569186D01*
X24974500Y29430815D01*
X25010310Y29297169D01*
X25010312Y29297164D01*
X25079495Y29177335D01*
X25177335Y29079495D01*
X25297164Y29010312D01*
X25430814Y28974501D01*
X25430815Y28974500D01*
X25430817Y28974500D01*
X25569185Y28974500D01*
X25569185Y28974501D01*
X25702836Y29010312D01*
X25822665Y29079495D01*
X25920505Y29177335D01*
X25989688Y29297164D01*
X26025499Y29430815D01*
X26025500Y29430815D01*
X26025500Y29569185D01*
X26025499Y29569186D01*
X29374500Y29569186D01*
X29374500Y29430815D01*
X29410310Y29297169D01*
X29410312Y29297164D01*
X29479495Y29177335D01*
X29577335Y29079495D01*
X29697164Y29010312D01*
X29830814Y28974501D01*
X29830815Y28974500D01*
X29830817Y28974500D01*
X29969185Y28974500D01*
X29969185Y28974501D01*
X30102836Y29010312D01*
X30222665Y29079495D01*
X30320505Y29177335D01*
X30389688Y29297164D01*
X30425499Y29430815D01*
X30425500Y29430815D01*
X30425500Y29569185D01*
X30425499Y29569186D01*
X30389689Y29702832D01*
X30389688Y29702836D01*
X30320505Y29822665D01*
X30300484Y29842686D01*
X32183700Y29842686D01*
X32183700Y29704315D01*
X32219510Y29570669D01*
X32219512Y29570664D01*
X32288695Y29450835D01*
X32386535Y29352995D01*
X32506364Y29283812D01*
X32640014Y29248001D01*
X32640015Y29248000D01*
X32640017Y29248000D01*
X32778385Y29248000D01*
X32778385Y29248001D01*
X32912036Y29283812D01*
X33031865Y29352995D01*
X33129705Y29450835D01*
X33198888Y29570664D01*
X33234699Y29704315D01*
X33234700Y29704315D01*
X33234700Y29842685D01*
X33234699Y29842686D01*
X33198889Y29976332D01*
X33198888Y29976336D01*
X33129705Y30096165D01*
X33031865Y30194005D01*
X32912036Y30263188D01*
X32912031Y30263190D01*
X32778385Y30299000D01*
X32778383Y30299000D01*
X32640017Y30299000D01*
X32640015Y30299000D01*
X32506368Y30263190D01*
X32506363Y30263188D01*
X32386534Y30194005D01*
X32288695Y30096166D01*
X32219512Y29976337D01*
X32219510Y29976332D01*
X32183700Y29842686D01*
X30300484Y29842686D01*
X30222665Y29920505D01*
X30102836Y29989688D01*
X30102831Y29989690D01*
X29969185Y30025500D01*
X29969183Y30025500D01*
X29830817Y30025500D01*
X29830815Y30025500D01*
X29697168Y29989690D01*
X29697163Y29989688D01*
X29577334Y29920505D01*
X29479495Y29822666D01*
X29410312Y29702837D01*
X29410310Y29702832D01*
X29374500Y29569186D01*
X26025499Y29569186D01*
X25989689Y29702832D01*
X25989688Y29702836D01*
X25920505Y29822665D01*
X25822665Y29920505D01*
X25702836Y29989688D01*
X25702831Y29989690D01*
X25619472Y30012026D01*
X25574539Y30046504D01*
X25567147Y30102657D01*
X25586300Y30135830D01*
X25627803Y30177333D01*
X25627805Y30177335D01*
X25696988Y30297164D01*
X25732799Y30430815D01*
X25732800Y30430815D01*
X25732800Y30569185D01*
X25732799Y30569186D01*
X25696989Y30702832D01*
X25696988Y30702836D01*
X25627805Y30822665D01*
X25529965Y30920505D01*
X25410136Y30989688D01*
X25410131Y30989690D01*
X25276485Y31025500D01*
X25276483Y31025500D01*
X25138117Y31025500D01*
X25138115Y31025500D01*
X25004468Y30989690D01*
X25004463Y30989688D01*
X24884634Y30920505D01*
X24786795Y30822666D01*
X24717612Y30702837D01*
X24717610Y30702832D01*
X24681800Y30569186D01*
X300500Y30569186D01*
X300500Y36594186D01*
X8024500Y36594186D01*
X8024500Y36455815D01*
X8060310Y36322169D01*
X8060312Y36322164D01*
X8129495Y36202335D01*
X8227335Y36104495D01*
X8347164Y36035312D01*
X8480814Y35999501D01*
X8480815Y35999500D01*
X8480817Y35999500D01*
X8619185Y35999500D01*
X8619185Y35999501D01*
X8752836Y36035312D01*
X8872665Y36104495D01*
X8970505Y36202335D01*
X9039688Y36322164D01*
X9075499Y36455815D01*
X9075500Y36455815D01*
X9075500Y36569186D01*
X28324499Y36569186D01*
X28324499Y36430815D01*
X28360309Y36297169D01*
X28360311Y36297164D01*
X28429494Y36177335D01*
X28527334Y36079495D01*
X28647163Y36010312D01*
X28780813Y35974501D01*
X28780814Y35974500D01*
X28780816Y35974500D01*
X28919184Y35974500D01*
X28919184Y35974501D01*
X29052835Y36010312D01*
X29154808Y36069186D01*
X33649500Y36069186D01*
X33649500Y35930815D01*
X33685310Y35797169D01*
X33685312Y35797164D01*
X33754495Y35677335D01*
X33852335Y35579495D01*
X33972164Y35510312D01*
X34105814Y35474501D01*
X34105815Y35474500D01*
X34105817Y35474500D01*
X34244185Y35474500D01*
X34244185Y35474501D01*
X34377836Y35510312D01*
X34497665Y35579495D01*
X34595505Y35677335D01*
X34664688Y35797164D01*
X34700499Y35930815D01*
X34700500Y35930815D01*
X34700500Y36069185D01*
X34700499Y36069186D01*
X34697736Y36079496D01*
X34664688Y36202836D01*
X34595505Y36322665D01*
X34497665Y36420505D01*
X34377836Y36489688D01*
X34377831Y36489690D01*
X34244185Y36525500D01*
X34244183Y36525500D01*
X34105817Y36525500D01*
X34105815Y36525500D01*
X33972168Y36489690D01*
X33972163Y36489688D01*
X33852334Y36420505D01*
X33754495Y36322666D01*
X33685312Y36202837D01*
X33685310Y36202832D01*
X33649500Y36069186D01*
X29154808Y36069186D01*
X29172664Y36079495D01*
X29270504Y36177335D01*
X29339687Y36297164D01*
X29375498Y36430815D01*
X29375499Y36430815D01*
X29375499Y36569185D01*
X29375498Y36569186D01*
X29368799Y36594186D01*
X29339687Y36702836D01*
X29270504Y36822665D01*
X29172664Y36920505D01*
X29052835Y36989688D01*
X29052830Y36989690D01*
X28919184Y37025500D01*
X28919182Y37025500D01*
X28780816Y37025500D01*
X28780814Y37025500D01*
X28647167Y36989690D01*
X28647162Y36989688D01*
X28527333Y36920505D01*
X28429494Y36822666D01*
X28360311Y36702837D01*
X28360309Y36702832D01*
X28324499Y36569186D01*
X9075500Y36569186D01*
X9075500Y36594185D01*
X9075499Y36594186D01*
X9039689Y36727832D01*
X9039688Y36727836D01*
X8970505Y36847665D01*
X8872665Y36945505D01*
X8752836Y37014688D01*
X8752831Y37014690D01*
X8619185Y37050500D01*
X8619183Y37050500D01*
X8480817Y37050500D01*
X8480815Y37050500D01*
X8347168Y37014690D01*
X8347163Y37014688D01*
X8227334Y36945505D01*
X8129495Y36847666D01*
X8060312Y36727837D01*
X8060310Y36727832D01*
X8024500Y36594186D01*
X300500Y36594186D01*
X300500Y38569186D01*
X33649500Y38569186D01*
X33649500Y38430815D01*
X33685310Y38297169D01*
X33685312Y38297164D01*
X33754495Y38177335D01*
X33852335Y38079495D01*
X33972164Y38010312D01*
X34105814Y37974501D01*
X34105815Y37974500D01*
X34105817Y37974500D01*
X34244185Y37974500D01*
X34244185Y37974501D01*
X34377836Y38010312D01*
X34497665Y38079495D01*
X34595505Y38177335D01*
X34664688Y38297164D01*
X34700499Y38430815D01*
X34700500Y38430815D01*
X34700500Y38569185D01*
X34700499Y38569186D01*
X34664689Y38702832D01*
X34664688Y38702836D01*
X34595505Y38822665D01*
X34497665Y38920505D01*
X34377836Y38989688D01*
X34377831Y38989690D01*
X34244185Y39025500D01*
X34244183Y39025500D01*
X34105817Y39025500D01*
X34105815Y39025500D01*
X33972168Y38989690D01*
X33972163Y38989688D01*
X33852334Y38920505D01*
X33754495Y38822666D01*
X33685312Y38702837D01*
X33685310Y38702832D01*
X33649500Y38569186D01*
X300500Y38569186D01*
X300500Y39919186D01*
X37160100Y39919186D01*
X37160100Y39780815D01*
X37195910Y39647169D01*
X37195912Y39647164D01*
X37265095Y39527335D01*
X37362935Y39429495D01*
X37482764Y39360312D01*
X37616414Y39324501D01*
X37616415Y39324500D01*
X37616417Y39324500D01*
X37754785Y39324500D01*
X37754785Y39324501D01*
X37888436Y39360312D01*
X38008265Y39429495D01*
X38106105Y39527335D01*
X38175288Y39647164D01*
X38211099Y39780815D01*
X38211100Y39780815D01*
X38211100Y39919185D01*
X38211099Y39919186D01*
X38175289Y40052832D01*
X38175288Y40052836D01*
X38106105Y40172665D01*
X38008265Y40270505D01*
X37888436Y40339688D01*
X37888431Y40339690D01*
X37754785Y40375500D01*
X37754783Y40375500D01*
X37616417Y40375500D01*
X37616415Y40375500D01*
X37482768Y40339690D01*
X37482763Y40339688D01*
X37362934Y40270505D01*
X37265095Y40172666D01*
X37195912Y40052837D01*
X37195910Y40052832D01*
X37160100Y39919186D01*
X300500Y39919186D01*
X300500Y40569186D01*
X28324499Y40569186D01*
X28324499Y40430815D01*
X28360309Y40297169D01*
X28360311Y40297164D01*
X28429494Y40177335D01*
X28527334Y40079495D01*
X28647163Y40010312D01*
X28780813Y39974501D01*
X28780814Y39974500D01*
X28780816Y39974500D01*
X28919184Y39974500D01*
X28919184Y39974501D01*
X28962366Y39986072D01*
X28997598Y39995511D01*
X29026710Y40003312D01*
X29052835Y40010312D01*
X29172664Y40079495D01*
X29270504Y40177335D01*
X29339687Y40297164D01*
X29375498Y40430815D01*
X29375499Y40430815D01*
X29375499Y40569185D01*
X29375498Y40569186D01*
X29339688Y40702832D01*
X29339687Y40702836D01*
X29270504Y40822665D01*
X29172664Y40920505D01*
X29052835Y40989688D01*
X29052830Y40989690D01*
X28919184Y41025500D01*
X28919182Y41025500D01*
X28780816Y41025500D01*
X28780814Y41025500D01*
X28647167Y40989690D01*
X28647162Y40989688D01*
X28527333Y40920505D01*
X28429494Y40822666D01*
X28360311Y40702837D01*
X28360309Y40702832D01*
X28324499Y40569186D01*
X300500Y40569186D01*
X300500Y42094186D01*
X36299500Y42094186D01*
X36299500Y41955815D01*
X36335310Y41822169D01*
X36335312Y41822164D01*
X36404495Y41702335D01*
X36502335Y41604495D01*
X36622164Y41535312D01*
X36755814Y41499501D01*
X36755815Y41499500D01*
X36755817Y41499500D01*
X36894185Y41499500D01*
X36894185Y41499501D01*
X37027836Y41535312D01*
X37147665Y41604495D01*
X37245505Y41702335D01*
X37314688Y41822164D01*
X37350499Y41955815D01*
X37350500Y41955815D01*
X37350500Y42094185D01*
X37350499Y42094186D01*
X37314689Y42227832D01*
X37314688Y42227836D01*
X37245505Y42347665D01*
X37147665Y42445505D01*
X37027836Y42514688D01*
X37027831Y42514690D01*
X36894185Y42550500D01*
X36894183Y42550500D01*
X36755817Y42550500D01*
X36755815Y42550500D01*
X36622168Y42514690D01*
X36622163Y42514688D01*
X36502334Y42445505D01*
X36404495Y42347666D01*
X36335312Y42227837D01*
X36335310Y42227832D01*
X36299500Y42094186D01*
X300500Y42094186D01*
X300500Y43269186D01*
X33649500Y43269186D01*
X33649500Y43130815D01*
X33685310Y42997169D01*
X33685312Y42997164D01*
X33754495Y42877335D01*
X33852335Y42779495D01*
X33972164Y42710312D01*
X34105814Y42674501D01*
X34105815Y42674500D01*
X34105817Y42674500D01*
X34244185Y42674500D01*
X34244185Y42674501D01*
X34377836Y42710312D01*
X34497665Y42779495D01*
X34595505Y42877335D01*
X34664688Y42997164D01*
X34700499Y43130815D01*
X34700500Y43130815D01*
X34700500Y43269185D01*
X34700499Y43269186D01*
X34664689Y43402832D01*
X34664688Y43402836D01*
X34595505Y43522665D01*
X34497665Y43620505D01*
X34377836Y43689688D01*
X34377831Y43689690D01*
X34244185Y43725500D01*
X34244183Y43725500D01*
X34105817Y43725500D01*
X34105815Y43725500D01*
X33972168Y43689690D01*
X33972163Y43689688D01*
X33852334Y43620505D01*
X33754495Y43522666D01*
X33685312Y43402837D01*
X33685310Y43402832D01*
X33649500Y43269186D01*
X300500Y43269186D01*
X300500Y46118093D01*
X2499500Y46118093D01*
X2499500Y45881908D01*
X2536446Y45648635D01*
X2536449Y45648622D01*
X2609429Y45424014D01*
X2716656Y45213568D01*
X2814065Y45079496D01*
X2855483Y45022490D01*
X3022490Y44855483D01*
X3022493Y44855481D01*
X3022494Y44855480D01*
X3067660Y44822665D01*
X3213567Y44716657D01*
X3424008Y44609432D01*
X3424010Y44609432D01*
X3424013Y44609430D01*
X3648621Y44536450D01*
X3648627Y44536449D01*
X3648632Y44536447D01*
X3804149Y44511816D01*
X3881907Y44499500D01*
X3881908Y44499500D01*
X4118093Y44499500D01*
X4176411Y44508737D01*
X4351368Y44536447D01*
X4351375Y44536450D01*
X4351378Y44536450D01*
X4452128Y44569186D01*
X28324499Y44569186D01*
X28324499Y44430815D01*
X28360309Y44297169D01*
X28360311Y44297164D01*
X28429494Y44177335D01*
X28527334Y44079495D01*
X28647163Y44010312D01*
X28780813Y43974501D01*
X28780814Y43974500D01*
X28780816Y43974500D01*
X28919184Y43974500D01*
X28919184Y43974501D01*
X29052835Y44010312D01*
X29172664Y44079495D01*
X29270504Y44177335D01*
X29339687Y44297164D01*
X29375498Y44430815D01*
X29375499Y44430815D01*
X29375499Y44519186D01*
X37176700Y44519186D01*
X37176700Y44380815D01*
X37212510Y44247169D01*
X37212512Y44247164D01*
X37281695Y44127335D01*
X37379535Y44029495D01*
X37499364Y43960312D01*
X37633014Y43924501D01*
X37633015Y43924500D01*
X37633017Y43924500D01*
X37771385Y43924500D01*
X37771385Y43924501D01*
X37905036Y43960312D01*
X38024865Y44029495D01*
X38122705Y44127335D01*
X38190169Y44244186D01*
X59549500Y44244186D01*
X59549500Y44105815D01*
X59585310Y43972169D01*
X59585312Y43972164D01*
X59654495Y43852335D01*
X59752335Y43754495D01*
X59872164Y43685312D01*
X60005814Y43649501D01*
X60005815Y43649500D01*
X60005817Y43649500D01*
X60144185Y43649500D01*
X60144185Y43649501D01*
X60277836Y43685312D01*
X60397665Y43754495D01*
X60495505Y43852335D01*
X60564688Y43972164D01*
X60600499Y44105815D01*
X60600500Y44105815D01*
X60600500Y44244185D01*
X60600499Y44244186D01*
X60586302Y44297169D01*
X60564688Y44377836D01*
X60495505Y44497665D01*
X60397665Y44595505D01*
X60277836Y44664688D01*
X60277831Y44664690D01*
X60144185Y44700500D01*
X60144183Y44700500D01*
X60005817Y44700500D01*
X60005815Y44700500D01*
X59872168Y44664690D01*
X59872163Y44664688D01*
X59752334Y44595505D01*
X59654495Y44497666D01*
X59585312Y44377837D01*
X59585310Y44377832D01*
X59549500Y44244186D01*
X38190169Y44244186D01*
X38191888Y44247164D01*
X38227699Y44380815D01*
X38227700Y44380815D01*
X38227700Y44519185D01*
X38227699Y44519186D01*
X38214302Y44569183D01*
X38191888Y44652836D01*
X38122705Y44772665D01*
X38024865Y44870505D01*
X37905036Y44939688D01*
X37905031Y44939690D01*
X37771385Y44975500D01*
X37771383Y44975500D01*
X37633017Y44975500D01*
X37633015Y44975500D01*
X37499368Y44939690D01*
X37499363Y44939688D01*
X37379534Y44870505D01*
X37281695Y44772666D01*
X37212512Y44652837D01*
X37212510Y44652832D01*
X37176700Y44519186D01*
X29375499Y44519186D01*
X29375499Y44569185D01*
X29375498Y44569186D01*
X29364714Y44609431D01*
X29339687Y44702836D01*
X29270504Y44822665D01*
X29172664Y44920505D01*
X29052835Y44989688D01*
X29052830Y44989690D01*
X28919184Y45025500D01*
X28919182Y45025500D01*
X28780816Y45025500D01*
X28780814Y45025500D01*
X28647167Y44989690D01*
X28647162Y44989688D01*
X28527333Y44920505D01*
X28429494Y44822666D01*
X28360311Y44702837D01*
X28360309Y44702832D01*
X28324499Y44569186D01*
X4452128Y44569186D01*
X4533129Y44595505D01*
X4575992Y44609432D01*
X4786433Y44716657D01*
X4977510Y44855483D01*
X5144517Y45022490D01*
X5283343Y45213567D01*
X5390568Y45424008D01*
X5403232Y45462983D01*
X5437740Y45569186D01*
X33649500Y45569186D01*
X33649500Y45430815D01*
X33685310Y45297169D01*
X33685312Y45297164D01*
X33754495Y45177335D01*
X33852335Y45079495D01*
X33972164Y45010312D01*
X34105814Y44974501D01*
X34105815Y44974500D01*
X34105817Y44974500D01*
X34244185Y44974500D01*
X34244185Y44974501D01*
X34377836Y45010312D01*
X34497665Y45079495D01*
X34595505Y45177335D01*
X34664688Y45297164D01*
X34700499Y45430815D01*
X34700500Y45430815D01*
X34700500Y45462986D01*
X41289300Y45462986D01*
X41289300Y45324615D01*
X41325110Y45190969D01*
X41325112Y45190964D01*
X41394295Y45071135D01*
X41492135Y44973295D01*
X41611964Y44904112D01*
X41745614Y44868301D01*
X41745615Y44868300D01*
X41745617Y44868300D01*
X41883985Y44868300D01*
X41883985Y44868301D01*
X42017636Y44904112D01*
X42137465Y44973295D01*
X42235305Y45071135D01*
X42304488Y45190964D01*
X42340299Y45324615D01*
X42340300Y45324615D01*
X42340300Y45462985D01*
X42340299Y45462986D01*
X42304489Y45596632D01*
X42304488Y45596636D01*
X42235305Y45716465D01*
X42137465Y45814305D01*
X42017636Y45883488D01*
X42017631Y45883490D01*
X41883985Y45919300D01*
X41883983Y45919300D01*
X41745617Y45919300D01*
X41745615Y45919300D01*
X41611968Y45883490D01*
X41611963Y45883488D01*
X41492134Y45814305D01*
X41394295Y45716466D01*
X41325112Y45596637D01*
X41325110Y45596632D01*
X41289300Y45462986D01*
X34700500Y45462986D01*
X34700500Y45569185D01*
X34700499Y45569186D01*
X34679214Y45648622D01*
X34664688Y45702836D01*
X34595505Y45822665D01*
X34497665Y45920505D01*
X34377836Y45989688D01*
X34377831Y45989690D01*
X34244185Y46025500D01*
X34244183Y46025500D01*
X34105817Y46025500D01*
X34105815Y46025500D01*
X33972168Y45989690D01*
X33972163Y45989688D01*
X33852334Y45920505D01*
X33754495Y45822666D01*
X33685312Y45702837D01*
X33685310Y45702832D01*
X33649500Y45569186D01*
X5437740Y45569186D01*
X5446745Y45596900D01*
X5463550Y45648622D01*
X5463550Y45648625D01*
X5463553Y45648632D01*
X5500500Y45881908D01*
X5500500Y46118092D01*
X5463553Y46351368D01*
X5463551Y46351373D01*
X5463550Y46351379D01*
X5398635Y46551166D01*
X5392779Y46569186D01*
X39874500Y46569186D01*
X39874500Y46430815D01*
X39910310Y46297169D01*
X39910312Y46297164D01*
X39979495Y46177335D01*
X40077335Y46079495D01*
X40197164Y46010312D01*
X40330814Y45974501D01*
X40330815Y45974500D01*
X40330817Y45974500D01*
X40469185Y45974500D01*
X40469185Y45974501D01*
X40602836Y46010312D01*
X40722665Y46079495D01*
X40820505Y46177335D01*
X40889688Y46297164D01*
X40925499Y46430815D01*
X40925500Y46430815D01*
X40925500Y46569185D01*
X40925499Y46569186D01*
X40923676Y46575988D01*
X40889688Y46702836D01*
X40860214Y46753886D01*
X57680600Y46753886D01*
X57680600Y46615515D01*
X57716410Y46481869D01*
X57716412Y46481864D01*
X57785595Y46362035D01*
X57883435Y46264195D01*
X58003264Y46195012D01*
X58136914Y46159201D01*
X58136915Y46159200D01*
X58136917Y46159200D01*
X58275285Y46159200D01*
X58275285Y46159201D01*
X58408936Y46195012D01*
X58528765Y46264195D01*
X58626605Y46362035D01*
X58695788Y46481864D01*
X58731599Y46615515D01*
X58731600Y46615515D01*
X58731600Y46753885D01*
X58731599Y46753886D01*
X58695789Y46887532D01*
X58695788Y46887536D01*
X58626605Y47007365D01*
X58528765Y47105205D01*
X58408936Y47174388D01*
X58408931Y47174390D01*
X58275285Y47210200D01*
X58275283Y47210200D01*
X58136917Y47210200D01*
X58136915Y47210200D01*
X58003268Y47174390D01*
X58003263Y47174388D01*
X57883434Y47105205D01*
X57785595Y47007366D01*
X57716412Y46887537D01*
X57716410Y46887532D01*
X57680600Y46753886D01*
X40860214Y46753886D01*
X40820505Y46822665D01*
X40722665Y46920505D01*
X40602836Y46989688D01*
X40602831Y46989690D01*
X40469185Y47025500D01*
X40469183Y47025500D01*
X40330817Y47025500D01*
X40330815Y47025500D01*
X40197168Y46989690D01*
X40197163Y46989688D01*
X40077334Y46920505D01*
X39979495Y46822666D01*
X39910312Y46702837D01*
X39910310Y46702832D01*
X39874500Y46569186D01*
X5392779Y46569186D01*
X5390568Y46575992D01*
X5283343Y46786433D01*
X5144517Y46977510D01*
X4977510Y47144517D01*
X4977507Y47144520D01*
X4977505Y47144521D01*
X4786432Y47283344D01*
X4575986Y47390571D01*
X4351378Y47463551D01*
X4351365Y47463554D01*
X4118093Y47500500D01*
X4118092Y47500500D01*
X3881908Y47500500D01*
X3881907Y47500500D01*
X3648634Y47463554D01*
X3648621Y47463551D01*
X3424013Y47390571D01*
X3213567Y47283344D01*
X3022494Y47144521D01*
X2855479Y46977506D01*
X2716656Y46786433D01*
X2609429Y46575987D01*
X2536449Y46351379D01*
X2536446Y46351366D01*
X2499500Y46118093D01*
X300500Y46118093D01*
X300500Y47869186D01*
X32924499Y47869186D01*
X32924499Y47730815D01*
X32960309Y47597169D01*
X32960311Y47597164D01*
X33029494Y47477335D01*
X33127334Y47379495D01*
X33247163Y47310312D01*
X33380813Y47274501D01*
X33380814Y47274500D01*
X33380816Y47274500D01*
X33519184Y47274500D01*
X33519184Y47274501D01*
X33652835Y47310312D01*
X33772664Y47379495D01*
X33870504Y47477335D01*
X33939687Y47597164D01*
X33975498Y47730815D01*
X33975499Y47730815D01*
X33975499Y47869185D01*
X33975498Y47869186D01*
X33939688Y48002832D01*
X33939687Y48002836D01*
X33901380Y48069186D01*
X40074500Y48069186D01*
X40074500Y47930815D01*
X40110310Y47797169D01*
X40110312Y47797164D01*
X40179495Y47677335D01*
X40277335Y47579495D01*
X40397164Y47510312D01*
X40530814Y47474501D01*
X40530815Y47474500D01*
X40530817Y47474500D01*
X40669185Y47474500D01*
X40669185Y47474501D01*
X40802836Y47510312D01*
X40922665Y47579495D01*
X41020505Y47677335D01*
X41089688Y47797164D01*
X41125499Y47930815D01*
X41125500Y47930815D01*
X41125500Y48069185D01*
X41125499Y48069186D01*
X41111169Y48122665D01*
X41089688Y48202836D01*
X41020505Y48322665D01*
X40922665Y48420505D01*
X40802836Y48489688D01*
X40802831Y48489690D01*
X40669185Y48525500D01*
X40669183Y48525500D01*
X40530817Y48525500D01*
X40530815Y48525500D01*
X40397168Y48489690D01*
X40397163Y48489688D01*
X40277334Y48420505D01*
X40179495Y48322666D01*
X40110312Y48202837D01*
X40110310Y48202832D01*
X40074500Y48069186D01*
X33901380Y48069186D01*
X33870504Y48122665D01*
X33772664Y48220505D01*
X33652835Y48289688D01*
X33652830Y48289690D01*
X33519184Y48325500D01*
X33519182Y48325500D01*
X33380816Y48325500D01*
X33380814Y48325500D01*
X33247167Y48289690D01*
X33247162Y48289688D01*
X33127333Y48220505D01*
X33029494Y48122666D01*
X32960311Y48002837D01*
X32960309Y48002832D01*
X32924499Y47869186D01*
X300500Y47869186D01*
X300500Y49625500D01*
X322174Y49677826D01*
X374500Y49699500D01*
X33926000Y49699500D01*
X33978326Y49677826D01*
G37*
%TD.AperFunction*%
%TD*%
M02*
