%TF.GenerationSoftware,KiCad,Pcbnew,10.0.6*%
%TF.CreationDate,2026-09-11T23:53:40+02:00*%
%TF.ProjectId,leaf-heat-v2,6c656166-2d68-4656-9174-2d76322e6b69,B*%
%TF.SameCoordinates,Original*%
%TF.FileFunction,Copper,L4,Bot*%
%TF.FilePolarity,Positive*%
%FSLAX46Y46*%
G04 Gerber Fmt 4.6, Leading zero omitted, Abs format (unit mm)*
G04 Created by KiCad (PCBNEW 10.0.6) date 2026-09-11 23:53:40*
%MOMM*%
%LPD*%
G01*
G04 APERTURE LIST*
%TA.AperFunction,ComponentPad*%
%ADD10R,1.600000X1.600000*%
%TD*%
%TA.AperFunction,ComponentPad*%
%ADD11C,1.600000*%
%TD*%
%TA.AperFunction,ComponentPad*%
%ADD12C,4.000000*%
%TD*%
%TA.AperFunction,ComponentPad*%
%ADD13C,0.630000*%
%TD*%
%TA.AperFunction,SMDPad,CuDef*%
%ADD14R,2.600000X3.300000*%
%TD*%
%TA.AperFunction,HeatsinkPad*%
%ADD15C,0.650000*%
%TD*%
%TA.AperFunction,ComponentPad*%
%ADD16O,1.000000X2.100000*%
%TD*%
%TA.AperFunction,ComponentPad*%
%ADD17O,1.000000X1.800000*%
%TD*%
%TA.AperFunction,ViaPad*%
%ADD18C,0.650000*%
%TD*%
%TA.AperFunction,Conductor*%
%ADD19C,0.800000*%
%TD*%
%TA.AperFunction,Conductor*%
%ADD20C,0.250000*%
%TD*%
%TA.AperFunction,Conductor*%
%ADD21C,1.000000*%
%TD*%
%TA.AperFunction,Conductor*%
%ADD22C,0.200000*%
%TD*%
G04 APERTURE END LIST*
D10*
%TO.P,J1,1*%
%TO.N,unconnected-(J1-Pad1)*%
X11000000Y11000000D03*
D11*
%TO.P,J1,2*%
%TO.N,/CAN_L*%
X13770000Y11000000D03*
%TO.P,J1,3*%
%TO.N,/GND*%
X16540000Y11000000D03*
%TO.P,J1,4*%
%TO.N,unconnected-(J1-Pad4)*%
X19310000Y11000000D03*
%TO.P,J1,5*%
%TO.N,unconnected-(J1-Pad5)*%
X22080000Y11000000D03*
%TO.P,J1,6*%
%TO.N,unconnected-(J1-Pad6)*%
X12385000Y8160000D03*
%TO.P,J1,7*%
%TO.N,/CAN_H*%
X15155000Y8160000D03*
%TO.P,J1,8*%
%TO.N,unconnected-(J1-Pad8)*%
X17925000Y8160000D03*
%TO.P,J1,9*%
%TO.N,/CAR_12V*%
X20695000Y8160000D03*
D12*
%TO.P,J1,SH*%
%TO.N,/GND*%
X4045001Y9580000D03*
X29035000Y9580000D03*
%TD*%
D13*
%TO.P,U1,9*%
%TO.N,/GND*%
X18350000Y39300000D03*
X18350000Y38000000D03*
X18350000Y36700000D03*
D14*
X19000000Y38000000D03*
D13*
X19650000Y39300000D03*
X19650000Y38000000D03*
X19650000Y36700000D03*
%TD*%
D15*
%TO.P,U2,19*%
%TO.N,/GND*%
X47860000Y42350000D03*
X47860000Y41250000D03*
X48410000Y42900000D03*
X48410000Y41800000D03*
X48410000Y40700000D03*
X48960000Y42350000D03*
X48960000Y41250000D03*
X49510000Y42900000D03*
X49510000Y41800000D03*
X49510000Y40700000D03*
X50060000Y42350000D03*
X50060000Y41250000D03*
%TD*%
D16*
%TO.P,J2,SH*%
%TO.N,/GND*%
X51680000Y6105000D03*
D17*
X51680000Y1925000D03*
D16*
X60320000Y6105000D03*
D17*
X60320000Y1925000D03*
%TD*%
D18*
%TO.N,/VPWR*%
X44262900Y24104300D03*
X8250000Y27850000D03*
X22500000Y28000000D03*
X25500000Y29500000D03*
X8550000Y36525000D03*
X29549000Y23850000D03*
X58206100Y46684700D03*
%TO.N,/USB_5V*%
X29900000Y29500000D03*
X58400000Y8180000D03*
X51525000Y12175000D03*
X58525000Y9625000D03*
X56500000Y8600000D03*
X49300000Y11350000D03*
X46425000Y12175000D03*
X53600000Y8180000D03*
%TO.N,/GND*%
X2000000Y18000000D03*
X37000000Y18000000D03*
X37550000Y47800000D03*
X14500000Y15700000D03*
X26125000Y34500000D03*
X7000000Y43000000D03*
X60925000Y46025000D03*
X37000000Y23000000D03*
X31799999Y40500000D03*
X49000000Y23000000D03*
X44000000Y48000000D03*
X60260660Y7740661D03*
X63000000Y3000000D03*
X7000000Y18000000D03*
X37000000Y28000000D03*
X56500000Y13400000D03*
X16125000Y40755000D03*
X60000000Y23000000D03*
X49000000Y33000000D03*
X44000000Y3000000D03*
X51525000Y13825000D03*
X32000000Y23000000D03*
X57300000Y2300000D03*
X37000000Y3000000D03*
X63525000Y42400000D03*
X44000000Y18000000D03*
X13600000Y41320000D03*
X37175000Y30000000D03*
X16335000Y26050000D03*
X32000000Y48000000D03*
X2000000Y13000000D03*
X60000000Y13000000D03*
X7000000Y13000000D03*
X63000000Y18000000D03*
X8550000Y39475000D03*
X59200000Y7855001D03*
X2000000Y23000000D03*
X2000000Y33000000D03*
X60000000Y28000000D03*
X32000000Y3000000D03*
X51739339Y7740661D03*
X7000000Y48000000D03*
X8250000Y32150000D03*
X55750000Y2300000D03*
X58000000Y4200000D03*
X2000000Y43000000D03*
X32000000Y13000000D03*
X32000000Y33000000D03*
X49000000Y48000000D03*
X37400000Y22100000D03*
X7000000Y33000000D03*
X37825000Y45500000D03*
X60000000Y33000000D03*
X46425000Y10825000D03*
X37000000Y13000000D03*
X49625000Y7000000D03*
X31799999Y44500000D03*
X44000000Y43000000D03*
X60000000Y18000000D03*
X49000000Y18000000D03*
X7000000Y28000000D03*
X27025000Y37000000D03*
X17300000Y41400000D03*
X49000000Y3000000D03*
X58525000Y11175000D03*
X44000000Y28000000D03*
X63825000Y12500000D03*
X54000000Y3400000D03*
X37000000Y33000000D03*
X2000000Y48000000D03*
X52800000Y7855001D03*
X37825000Y40900000D03*
X26400000Y22100000D03*
X44000000Y33000000D03*
X63000000Y48000000D03*
X8975000Y19500000D03*
X2000000Y28000000D03*
X44000000Y13000000D03*
X7000000Y3000000D03*
X7000000Y23000000D03*
X2000000Y3000000D03*
X31799999Y36500000D03*
X49000000Y28000000D03*
X13990000Y28275000D03*
X49300000Y14650000D03*
X32000000Y18000000D03*
X49000000Y13000000D03*
%TO.N,/3V3*%
X34175000Y45500000D03*
X28849999Y44500000D03*
X15065000Y22900000D03*
X13795000Y21100000D03*
X34175000Y38500000D03*
X34175000Y36000000D03*
X40600000Y48000000D03*
X33449999Y47800000D03*
X12625000Y19500000D03*
X28849999Y40500000D03*
X13990000Y26725000D03*
X18674999Y21000000D03*
X28849999Y36500000D03*
X60075000Y44175000D03*
X34175000Y43200000D03*
%TO.N,/CC2*%
X58283100Y13013100D03*
X57782500Y5400000D03*
%TO.N,/CAR_12V*%
X24000000Y14500000D03*
%TO.N,/STATUS_LED*%
X37685600Y39850000D03*
X32709200Y29773500D03*
%TO.N,/USB_CONN_P*%
X55650000Y4200000D03*
X57050000Y4200000D03*
%TO.N,/ESP_EN*%
X36825000Y42025000D03*
X40400000Y46500000D03*
%TO.N,/CAN_TX*%
X41814800Y45393800D03*
X33010000Y27314500D03*
%TO.N,/CAN_RX*%
X37702200Y44450000D03*
X25207300Y30500000D03*
%TO.N,/USB_CONN_N*%
X56350000Y3400000D03*
X54950000Y3400000D03*
%TD*%
%TO.N,/VPWR*%
D19*
X44262900Y26648400D02*
X58206100Y40591600D01*
X44262900Y24104300D02*
X44262900Y26648400D01*
X29549000Y24338800D02*
X29549000Y23850000D01*
X58206100Y40591600D02*
X58206100Y46684700D01*
X27542800Y26345000D02*
X29549000Y24338800D01*
%TO.N,/CC2*%
D20*
X57733100Y12463100D02*
X57733100Y5449400D01*
X57733100Y5449400D02*
X57782500Y5400000D01*
X58283100Y13013100D02*
X57733100Y12463100D01*
%TO.N,/CAR_12V*%
D21*
X20695000Y8160000D02*
X24000000Y8160000D01*
X24000000Y8160000D02*
X24000000Y14500000D01*
%TO.N,/STATUS_LED*%
D20*
X37685600Y39850000D02*
X37685600Y34749900D01*
X37685600Y34749900D02*
X32709200Y29773500D01*
%TO.N,/USB_CONN_P*%
D22*
X56750000Y5175736D02*
X57050000Y4875736D01*
X57050000Y4875736D02*
X57050000Y4200000D01*
X55650000Y4200000D02*
X55650000Y4875736D01*
X55950000Y5175736D02*
X56750000Y5175736D01*
X55650000Y4875736D02*
X55950000Y5175736D01*
%TO.N,/ESP_EN*%
D20*
X40400000Y46500000D02*
X40400000Y42025000D01*
X40400000Y42025000D02*
X36825000Y42025000D01*
%TO.N,/CAN_TX*%
X41814800Y36119300D02*
X41814800Y45393800D01*
X33010000Y27314500D02*
X41814800Y36119300D01*
%TO.N,/CAN_RX*%
X25207300Y31932300D02*
X37702200Y44427200D01*
X37702200Y44427200D02*
X37702200Y44450000D01*
X25207300Y30500000D02*
X25207300Y31932300D01*
%TO.N,/USB_CONN_N*%
D22*
X54950000Y3400000D02*
X56350000Y3400000D01*
%TD*%
%TA.AperFunction,Conductor*%
%TO.N,/USB_5V*%
G36*
X32021674Y30478326D02*
G01*
X32293939Y30206061D01*
X32315613Y30153735D01*
X32293939Y30101409D01*
X32288695Y30096166D01*
X32219512Y29976337D01*
X32219510Y29976332D01*
X32183700Y29842686D01*
X32183700Y29704315D01*
X32219510Y29570669D01*
X32219512Y29570664D01*
X32288695Y29450835D01*
X32386535Y29352995D01*
X32506364Y29283812D01*
X32640014Y29248001D01*
X32640015Y29248000D01*
X32640017Y29248000D01*
X32778385Y29248000D01*
X32778385Y29248001D01*
X32912036Y29283812D01*
X33031865Y29352995D01*
X33037109Y29358239D01*
X33089435Y29379913D01*
X33141761Y29358239D01*
X33815260Y28684740D01*
X33836934Y28632414D01*
X33815260Y28580088D01*
X33096847Y27861674D01*
X33044521Y27840000D01*
X32940815Y27840000D01*
X32807168Y27804190D01*
X32807163Y27804188D01*
X32687334Y27735005D01*
X32589495Y27637166D01*
X32520312Y27517337D01*
X32520310Y27517332D01*
X32484500Y27383686D01*
X32484500Y27245315D01*
X32520310Y27111669D01*
X32520312Y27111664D01*
X32589495Y26991835D01*
X32687335Y26893995D01*
X32807164Y26824812D01*
X32940814Y26789001D01*
X32940815Y26789000D01*
X32940817Y26789000D01*
X33079185Y26789000D01*
X33079185Y26789001D01*
X33212836Y26824812D01*
X33332665Y26893995D01*
X33430505Y26991835D01*
X33499688Y27111664D01*
X33535499Y27245315D01*
X33535500Y27245315D01*
X33535500Y27349022D01*
X33557174Y27401348D01*
X34275587Y28119761D01*
X34327913Y28141435D01*
X34380239Y28119761D01*
X43874637Y18625363D01*
X43896311Y18573037D01*
X43874637Y18520711D01*
X43841465Y18501559D01*
X43797167Y18489689D01*
X43797163Y18489688D01*
X43677334Y18420505D01*
X43579495Y18322666D01*
X43510312Y18202837D01*
X43510310Y18202832D01*
X43474500Y18069186D01*
X43474500Y17930815D01*
X43510310Y17797169D01*
X43510312Y17797164D01*
X43579495Y17677335D01*
X43677335Y17579495D01*
X43797164Y17510312D01*
X43930814Y17474501D01*
X43930815Y17474500D01*
X43930817Y17474500D01*
X44000000Y17474500D01*
X44000000Y15866667D01*
X37532422Y21471901D01*
X37507076Y21522549D01*
X37524967Y21576286D01*
X37561732Y21599299D01*
X37602836Y21610312D01*
X37722665Y21679495D01*
X37820505Y21777335D01*
X37889688Y21897164D01*
X37925499Y22030815D01*
X37925500Y22030815D01*
X37925500Y22169185D01*
X37925499Y22169186D01*
X37889689Y22302832D01*
X37889688Y22302835D01*
X37889688Y22302836D01*
X37820505Y22422665D01*
X37722665Y22520505D01*
X37602836Y22589688D01*
X37602831Y22589690D01*
X37494261Y22618781D01*
X37449328Y22653259D01*
X37441936Y22709412D01*
X37449326Y22727256D01*
X37489688Y22797164D01*
X37525499Y22930815D01*
X37525500Y22930815D01*
X37525500Y23069185D01*
X37525499Y23069186D01*
X37489689Y23202832D01*
X37489688Y23202836D01*
X37420505Y23322665D01*
X37322665Y23420505D01*
X37202836Y23489688D01*
X37202831Y23489690D01*
X37069185Y23525500D01*
X37069183Y23525500D01*
X36930817Y23525500D01*
X36930815Y23525500D01*
X36797168Y23489690D01*
X36797163Y23489688D01*
X36677334Y23420505D01*
X36579495Y23322666D01*
X36510312Y23202837D01*
X36510310Y23202832D01*
X36474500Y23069186D01*
X36474500Y22930815D01*
X36510310Y22797169D01*
X36510312Y22797164D01*
X36579495Y22677335D01*
X36677335Y22579495D01*
X36797164Y22510312D01*
X36905738Y22481220D01*
X36950671Y22446742D01*
X36958064Y22390590D01*
X36950672Y22372743D01*
X36929342Y22335798D01*
X36910312Y22302836D01*
X36910312Y22302835D01*
X36910310Y22302832D01*
X36877464Y22180251D01*
X36842985Y22135318D01*
X36786833Y22127926D01*
X36757521Y22143483D01*
X32833798Y25544042D01*
X30000000Y28000000D01*
X29999999Y28000000D01*
X29574000Y28000000D01*
X29521674Y28021674D01*
X29500000Y28074000D01*
X29500000Y30426000D01*
X29521674Y30478326D01*
X29574000Y30500000D01*
X31969348Y30500000D01*
X32021674Y30478326D01*
G37*
%TD.AperFunction*%
%TD*%
%TA.AperFunction,Conductor*%
%TO.N,/VPWR*%
G36*
X11939591Y37194371D02*
G01*
X11950003Y37190058D01*
X11990053Y37150015D01*
X11990056Y37150008D01*
X11994367Y37139600D01*
X12000000Y37111282D01*
X12000000Y31000000D01*
X24770759Y31000000D01*
X24799073Y30994369D01*
X24806436Y30991319D01*
X24846484Y30951272D01*
X24846487Y30894638D01*
X24843439Y30887278D01*
X24827395Y30863266D01*
X24786800Y30822673D01*
X24786793Y30822664D01*
X24717611Y30702836D01*
X24717610Y30702832D01*
X24681800Y30569186D01*
X24681800Y30430815D01*
X24717610Y30297169D01*
X24717612Y30297164D01*
X24786795Y30177335D01*
X24884635Y30079495D01*
X25004464Y30010312D01*
X25133433Y29975756D01*
X25137131Y29974500D01*
X25276485Y29974500D01*
X25286748Y29974500D01*
X25295636Y29979633D01*
X25410136Y30010312D01*
X25529965Y30079495D01*
X25627805Y30177335D01*
X25696988Y30297164D01*
X25727667Y30411664D01*
X25732800Y30420553D01*
X25732800Y30570170D01*
X25731544Y30573867D01*
X25697138Y30702274D01*
X25697001Y30702803D01*
X25696989Y30702834D01*
X25696987Y30702837D01*
X25627805Y30822665D01*
X25587203Y30863267D01*
X25571163Y30887273D01*
X25568113Y30894637D01*
X25568115Y30951272D01*
X25608162Y30991319D01*
X25615527Y30994370D01*
X25643841Y31000000D01*
X28311281Y31000000D01*
X28339591Y30994371D01*
X28350003Y30990058D01*
X28390053Y30950015D01*
X28390056Y30950008D01*
X28394367Y30939600D01*
X28400000Y30911282D01*
X28400000Y25088719D01*
X28394367Y25060401D01*
X28390056Y25049993D01*
X28350008Y25009945D01*
X28350007Y25009944D01*
X28339599Y25005633D01*
X28311281Y25000000D01*
X7588719Y25000000D01*
X7560404Y25005632D01*
X7549995Y25009943D01*
X7509946Y25049987D01*
X7505629Y25060409D01*
X7500000Y25088719D01*
X7500000Y26119186D01*
X15809500Y26119186D01*
X15809500Y25980815D01*
X15845310Y25847169D01*
X15845312Y25847164D01*
X15914495Y25727335D01*
X16012335Y25629495D01*
X16132164Y25560312D01*
X16261133Y25525756D01*
X16264831Y25524500D01*
X16404185Y25524500D01*
X16414448Y25524500D01*
X16423336Y25529633D01*
X16537836Y25560312D01*
X16657665Y25629495D01*
X16755505Y25727335D01*
X16824688Y25847164D01*
X16855367Y25961664D01*
X16860500Y25970553D01*
X16860500Y26120169D01*
X16859245Y26123863D01*
X16829383Y26235312D01*
X16824688Y26252836D01*
X16755505Y26372665D01*
X16657665Y26470505D01*
X16537836Y26539688D01*
X16537831Y26539690D01*
X16404185Y26575500D01*
X16404184Y26575500D01*
X16265816Y26575500D01*
X16265815Y26575500D01*
X16132168Y26539690D01*
X16132166Y26539690D01*
X16132165Y26539689D01*
X16012333Y26470505D01*
X15914495Y26372667D01*
X15845311Y26252836D01*
X15845310Y26252832D01*
X15809500Y26119186D01*
X7500000Y26119186D01*
X7500000Y26794186D01*
X13464500Y26794186D01*
X13464500Y26655815D01*
X13500310Y26522169D01*
X13500312Y26522164D01*
X13569495Y26402335D01*
X13667335Y26304495D01*
X13787164Y26235312D01*
X13916133Y26200756D01*
X13919831Y26199500D01*
X14059185Y26199500D01*
X14069448Y26199500D01*
X14078336Y26204633D01*
X14192836Y26235312D01*
X14312665Y26304495D01*
X14410505Y26402335D01*
X14479688Y26522164D01*
X14510367Y26636664D01*
X14515500Y26645553D01*
X14515500Y26795170D01*
X14514244Y26798867D01*
X14479838Y26927274D01*
X14479701Y26927803D01*
X14479689Y26927834D01*
X14410504Y27047666D01*
X14312665Y27145505D01*
X14192834Y27214689D01*
X14192832Y27214690D01*
X14192831Y27214690D01*
X14059185Y27250500D01*
X14059184Y27250500D01*
X13920816Y27250500D01*
X13920815Y27250500D01*
X13787168Y27214690D01*
X13787166Y27214690D01*
X13787165Y27214689D01*
X13667333Y27145505D01*
X13569495Y27047667D01*
X13500311Y26927836D01*
X13500310Y26927832D01*
X13464500Y26794186D01*
X7500000Y26794186D01*
X7500000Y27821056D01*
X7500633Y27830717D01*
X7501889Y27840255D01*
X7503777Y27849745D01*
X7508597Y27867736D01*
X7520366Y27911662D01*
X7525500Y27920552D01*
X7525500Y28069182D01*
X7524700Y28072166D01*
X7503774Y28150266D01*
X7501888Y28159747D01*
X7500631Y28169298D01*
X7500000Y28178944D01*
X7500000Y28344186D01*
X13464500Y28344186D01*
X13464500Y28205815D01*
X13500310Y28072169D01*
X13500312Y28072164D01*
X13569495Y27952335D01*
X13667335Y27854495D01*
X13787164Y27785312D01*
X13916133Y27750756D01*
X13919831Y27749500D01*
X14059185Y27749500D01*
X14069448Y27749500D01*
X14078336Y27754633D01*
X14192836Y27785312D01*
X14312665Y27854495D01*
X14410505Y27952335D01*
X14479688Y28072164D01*
X14510367Y28186664D01*
X14515500Y28195553D01*
X14515500Y28345170D01*
X14514244Y28348867D01*
X14479838Y28477274D01*
X14479701Y28477803D01*
X14479689Y28477834D01*
X14410504Y28597666D01*
X14312665Y28695505D01*
X14192834Y28764689D01*
X14192832Y28764690D01*
X14192831Y28764690D01*
X14059185Y28800500D01*
X14059184Y28800500D01*
X13920816Y28800500D01*
X13920815Y28800500D01*
X13787168Y28764690D01*
X13787166Y28764690D01*
X13787165Y28764689D01*
X13667333Y28695505D01*
X13569495Y28597667D01*
X13500311Y28477836D01*
X13500310Y28477832D01*
X13464500Y28344186D01*
X7500000Y28344186D01*
X7500000Y32219186D01*
X7724500Y32219186D01*
X7724500Y32080815D01*
X7760310Y31947169D01*
X7760312Y31947164D01*
X7829495Y31827335D01*
X7927335Y31729495D01*
X8047164Y31660312D01*
X8176133Y31625756D01*
X8179831Y31624500D01*
X8319185Y31624500D01*
X8329448Y31624500D01*
X8338336Y31629633D01*
X8452836Y31660312D01*
X8572665Y31729495D01*
X8670505Y31827335D01*
X8739688Y31947164D01*
X8770367Y32061664D01*
X8775500Y32070553D01*
X8775500Y32220170D01*
X8774244Y32223867D01*
X8739838Y32352274D01*
X8739701Y32352803D01*
X8739689Y32352834D01*
X8670504Y32472666D01*
X8572665Y32570505D01*
X8452834Y32639689D01*
X8452832Y32639690D01*
X8452831Y32639690D01*
X8319185Y32675500D01*
X8319184Y32675500D01*
X8180816Y32675500D01*
X8180815Y32675500D01*
X8047168Y32639690D01*
X8047166Y32639690D01*
X8047165Y32639689D01*
X7927333Y32570505D01*
X7829495Y32472667D01*
X7760311Y32352836D01*
X7760310Y32352832D01*
X7724500Y32219186D01*
X7500000Y32219186D01*
X7500000Y32821056D01*
X7500633Y32830717D01*
X7501889Y32840255D01*
X7503777Y32849745D01*
X7508597Y32867736D01*
X7520366Y32911662D01*
X7525500Y32920552D01*
X7525500Y33069182D01*
X7503775Y33150262D01*
X7501888Y33159747D01*
X7500631Y33169298D01*
X7500000Y33178944D01*
X7500000Y37111282D01*
X7505629Y37139591D01*
X7509943Y37150006D01*
X7549982Y37190052D01*
X7560411Y37194372D01*
X7588719Y37200000D01*
X11911281Y37200000D01*
X11939591Y37194371D01*
G37*
%TD.AperFunction*%
%TD*%
%TA.AperFunction,Conductor*%
%TO.N,/USB_5V*%
G36*
X48452826Y17978326D02*
G01*
X48470687Y17935206D01*
X48473867Y17935624D01*
X48474500Y17930815D01*
X48510310Y17797169D01*
X48510312Y17797164D01*
X48579495Y17677335D01*
X48677335Y17579495D01*
X48797164Y17510312D01*
X48930814Y17474501D01*
X48930815Y17474500D01*
X48930817Y17474500D01*
X49069185Y17474500D01*
X49069185Y17474501D01*
X49202836Y17510312D01*
X49322665Y17579495D01*
X49420505Y17677335D01*
X49489688Y17797164D01*
X49525500Y17930817D01*
X49525500Y17930823D01*
X49526133Y17935624D01*
X49529312Y17935206D01*
X49547174Y17978326D01*
X49599500Y18000000D01*
X59400500Y18000000D01*
X59452826Y17978326D01*
X59470687Y17935206D01*
X59473867Y17935624D01*
X59474500Y17930815D01*
X59510310Y17797169D01*
X59510312Y17797164D01*
X59579495Y17677335D01*
X59677335Y17579495D01*
X59797164Y17510312D01*
X59930817Y17474500D01*
X59930822Y17474500D01*
X59935624Y17473867D01*
X59935205Y17470688D01*
X59978326Y17452826D01*
X60000000Y17400500D01*
X60000000Y13599500D01*
X59978326Y13547174D01*
X59935205Y13529313D01*
X59935624Y13526133D01*
X59930814Y13525500D01*
X59797168Y13489690D01*
X59797163Y13489688D01*
X59677334Y13420505D01*
X59579495Y13322666D01*
X59510312Y13202837D01*
X59510310Y13202832D01*
X59474500Y13069186D01*
X59474500Y12930815D01*
X59510310Y12797169D01*
X59510312Y12797164D01*
X59579495Y12677335D01*
X59677335Y12579495D01*
X59797164Y12510312D01*
X59930817Y12474500D01*
X59930822Y12474500D01*
X59935624Y12473867D01*
X59935205Y12470688D01*
X59978326Y12452826D01*
X60000000Y12400500D01*
X60000000Y8239690D01*
X59978326Y8187364D01*
X59963001Y8175605D01*
X59938000Y8161171D01*
X59937999Y8161170D01*
X59840153Y8063325D01*
X59825704Y8038298D01*
X59780770Y8003820D01*
X59724618Y8011214D01*
X59692103Y8053590D01*
X59691543Y8053357D01*
X59690676Y8055449D01*
X59690140Y8056147D01*
X59689688Y8057837D01*
X59620505Y8177666D01*
X59522665Y8275506D01*
X59402836Y8344689D01*
X59402831Y8344691D01*
X59269185Y8380501D01*
X59269183Y8380501D01*
X59130817Y8380501D01*
X59130815Y8380501D01*
X58997168Y8344691D01*
X58997163Y8344689D01*
X58877334Y8275506D01*
X58779495Y8177667D01*
X58710312Y8057838D01*
X58710310Y8057833D01*
X58674500Y7924187D01*
X58674500Y7874000D01*
X58652826Y7821674D01*
X58600500Y7800000D01*
X58132600Y7800000D01*
X58080274Y7821674D01*
X58058600Y7874000D01*
X58058600Y10719578D01*
X58080274Y10771904D01*
X58132600Y10793578D01*
X58184926Y10771904D01*
X58202335Y10754495D01*
X58322164Y10685312D01*
X58455814Y10649501D01*
X58455815Y10649500D01*
X58455817Y10649500D01*
X58594185Y10649500D01*
X58594185Y10649501D01*
X58727836Y10685312D01*
X58847665Y10754495D01*
X58945505Y10852335D01*
X59014688Y10972164D01*
X59050499Y11105815D01*
X59050500Y11105815D01*
X59050500Y11244185D01*
X59050499Y11244186D01*
X59014689Y11377832D01*
X59014688Y11377836D01*
X58945505Y11497665D01*
X58847665Y11595505D01*
X58727836Y11664688D01*
X58727831Y11664690D01*
X58594185Y11700500D01*
X58594183Y11700500D01*
X58455817Y11700500D01*
X58455815Y11700500D01*
X58322168Y11664690D01*
X58322163Y11664688D01*
X58202334Y11595505D01*
X58184926Y11578096D01*
X58132600Y11556422D01*
X58080274Y11578096D01*
X58058600Y11630422D01*
X58058600Y12297621D01*
X58080274Y12349947D01*
X58196253Y12465926D01*
X58248579Y12487600D01*
X58352285Y12487600D01*
X58352285Y12487601D01*
X58485936Y12523412D01*
X58605765Y12592595D01*
X58703605Y12690435D01*
X58772788Y12810264D01*
X58808599Y12943915D01*
X58808600Y12943915D01*
X58808600Y13082285D01*
X58808599Y13082286D01*
X58777816Y13197169D01*
X58772788Y13215936D01*
X58703605Y13335765D01*
X58605765Y13433605D01*
X58485936Y13502788D01*
X58485931Y13502790D01*
X58352285Y13538600D01*
X58352283Y13538600D01*
X58213917Y13538600D01*
X58213915Y13538600D01*
X58080268Y13502790D01*
X58080263Y13502788D01*
X57960434Y13433605D01*
X57862595Y13335766D01*
X57793412Y13215937D01*
X57793410Y13215932D01*
X57757600Y13082286D01*
X57757600Y12978579D01*
X57735926Y12926253D01*
X57472632Y12662959D01*
X57429781Y12588739D01*
X57429782Y12588738D01*
X57407600Y12505953D01*
X57407600Y7874000D01*
X57385926Y7821674D01*
X57333600Y7800000D01*
X53399500Y7800000D01*
X53347174Y7821674D01*
X53325500Y7874000D01*
X53325500Y7924186D01*
X53325499Y7924187D01*
X53302181Y8011210D01*
X53289688Y8057837D01*
X53220505Y8177666D01*
X53122665Y8275506D01*
X53002836Y8344689D01*
X53002831Y8344691D01*
X52869185Y8380501D01*
X52869183Y8380501D01*
X52730817Y8380501D01*
X52730815Y8380501D01*
X52597168Y8344691D01*
X52597163Y8344689D01*
X52477334Y8275506D01*
X52379495Y8177667D01*
X52310312Y8057838D01*
X52310312Y8057837D01*
X52309860Y8056148D01*
X52309858Y8056141D01*
X52309319Y8055440D01*
X52308457Y8053357D01*
X52307898Y8053589D01*
X52275377Y8011210D01*
X52219224Y8003819D01*
X52174294Y8038298D01*
X52159844Y8063326D01*
X52062004Y8161166D01*
X51942175Y8230349D01*
X51942170Y8230351D01*
X51808524Y8266161D01*
X51808522Y8266161D01*
X51670156Y8266161D01*
X51670154Y8266161D01*
X51536507Y8230351D01*
X51536502Y8230349D01*
X51416673Y8161166D01*
X51318834Y8063327D01*
X51249651Y7943498D01*
X51249649Y7943493D01*
X51225897Y7854847D01*
X51191419Y7809914D01*
X51154419Y7800000D01*
X44074000Y7800000D01*
X44021674Y7821674D01*
X44000000Y7874000D01*
X44000000Y10894186D01*
X45899500Y10894186D01*
X45899500Y10755815D01*
X45935310Y10622169D01*
X45935312Y10622164D01*
X46004495Y10502335D01*
X46102335Y10404495D01*
X46222164Y10335312D01*
X46355814Y10299501D01*
X46355815Y10299500D01*
X46355817Y10299500D01*
X46494185Y10299500D01*
X46494185Y10299501D01*
X46627836Y10335312D01*
X46747665Y10404495D01*
X46845505Y10502335D01*
X46914688Y10622164D01*
X46950499Y10755815D01*
X46950500Y10755815D01*
X46950500Y10894185D01*
X46950499Y10894186D01*
X46914689Y11027832D01*
X46914688Y11027836D01*
X46845505Y11147665D01*
X46747665Y11245505D01*
X46627836Y11314688D01*
X46627831Y11314690D01*
X46494185Y11350500D01*
X46494183Y11350500D01*
X46355817Y11350500D01*
X46355815Y11350500D01*
X46222168Y11314690D01*
X46222163Y11314688D01*
X46102334Y11245505D01*
X46004495Y11147666D01*
X45935312Y11027837D01*
X45935310Y11027832D01*
X45899500Y10894186D01*
X44000000Y10894186D01*
X44000000Y12400500D01*
X44021674Y12452826D01*
X44064794Y12470688D01*
X44064376Y12473867D01*
X44069177Y12474500D01*
X44069183Y12474500D01*
X44202836Y12510312D01*
X44322665Y12579495D01*
X44420505Y12677335D01*
X44489688Y12797164D01*
X44525499Y12930815D01*
X44525500Y12930815D01*
X44525500Y13069185D01*
X44525499Y13069186D01*
X48474500Y13069186D01*
X48474500Y12930815D01*
X48510310Y12797169D01*
X48510312Y12797164D01*
X48579495Y12677335D01*
X48677335Y12579495D01*
X48797164Y12510312D01*
X48930814Y12474501D01*
X48930815Y12474500D01*
X48930817Y12474500D01*
X49069185Y12474500D01*
X49069185Y12474501D01*
X49202836Y12510312D01*
X49322665Y12579495D01*
X49420505Y12677335D01*
X49489688Y12797164D01*
X49525499Y12930815D01*
X49525500Y12930815D01*
X49525500Y13069185D01*
X49525499Y13069186D01*
X49489689Y13202832D01*
X49489688Y13202836D01*
X49420505Y13322665D01*
X49322665Y13420505D01*
X49202836Y13489688D01*
X49202831Y13489690D01*
X49069185Y13525500D01*
X49069183Y13525500D01*
X48930817Y13525500D01*
X48930815Y13525500D01*
X48797168Y13489690D01*
X48797163Y13489688D01*
X48677334Y13420505D01*
X48579495Y13322666D01*
X48510312Y13202837D01*
X48510310Y13202832D01*
X48474500Y13069186D01*
X44525499Y13069186D01*
X44489689Y13202832D01*
X44489688Y13202836D01*
X44420505Y13322665D01*
X44322665Y13420505D01*
X44202836Y13489688D01*
X44202831Y13489690D01*
X44069185Y13525500D01*
X44064376Y13526133D01*
X44064794Y13529313D01*
X44021674Y13547174D01*
X44000000Y13599500D01*
X44000000Y13894186D01*
X50999500Y13894186D01*
X50999500Y13755815D01*
X51035310Y13622169D01*
X51035312Y13622164D01*
X51104495Y13502335D01*
X51202335Y13404495D01*
X51322164Y13335312D01*
X51455814Y13299501D01*
X51455815Y13299500D01*
X51455817Y13299500D01*
X51594185Y13299500D01*
X51594185Y13299501D01*
X51727836Y13335312D01*
X51847665Y13404495D01*
X51912356Y13469186D01*
X55974500Y13469186D01*
X55974500Y13330815D01*
X56010310Y13197169D01*
X56010312Y13197164D01*
X56079495Y13077335D01*
X56177335Y12979495D01*
X56297164Y12910312D01*
X56430814Y12874501D01*
X56430815Y12874500D01*
X56430817Y12874500D01*
X56569185Y12874500D01*
X56569185Y12874501D01*
X56702836Y12910312D01*
X56822665Y12979495D01*
X56920505Y13077335D01*
X56989688Y13197164D01*
X57025499Y13330815D01*
X57025500Y13330815D01*
X57025500Y13469185D01*
X57025499Y13469186D01*
X57016495Y13502788D01*
X56989688Y13602836D01*
X56920505Y13722665D01*
X56822665Y13820505D01*
X56702836Y13889688D01*
X56702831Y13889690D01*
X56569185Y13925500D01*
X56569183Y13925500D01*
X56430817Y13925500D01*
X56430815Y13925500D01*
X56297168Y13889690D01*
X56297163Y13889688D01*
X56177334Y13820505D01*
X56079495Y13722666D01*
X56010312Y13602837D01*
X56010310Y13602832D01*
X55974500Y13469186D01*
X51912356Y13469186D01*
X51945505Y13502335D01*
X51947863Y13506421D01*
X51950528Y13511034D01*
X51971393Y13547174D01*
X52014688Y13622164D01*
X52050499Y13755815D01*
X52050500Y13755815D01*
X52050500Y13894185D01*
X52050499Y13894186D01*
X52014689Y14027832D01*
X52014688Y14027836D01*
X51945505Y14147665D01*
X51847665Y14245505D01*
X51727836Y14314688D01*
X51727831Y14314690D01*
X51594185Y14350500D01*
X51594183Y14350500D01*
X51455817Y14350500D01*
X51455815Y14350500D01*
X51322168Y14314690D01*
X51322163Y14314688D01*
X51202334Y14245505D01*
X51104495Y14147666D01*
X51035312Y14027837D01*
X51035310Y14027832D01*
X50999500Y13894186D01*
X44000000Y13894186D01*
X44000000Y14719186D01*
X48774500Y14719186D01*
X48774500Y14580815D01*
X48810310Y14447169D01*
X48810312Y14447164D01*
X48879495Y14327335D01*
X48977335Y14229495D01*
X49097164Y14160312D01*
X49230814Y14124501D01*
X49230815Y14124500D01*
X49230817Y14124500D01*
X49369185Y14124500D01*
X49369185Y14124501D01*
X49502836Y14160312D01*
X49622665Y14229495D01*
X49720505Y14327335D01*
X49789688Y14447164D01*
X49825499Y14580815D01*
X49825500Y14580815D01*
X49825500Y14719185D01*
X49825499Y14719186D01*
X49789689Y14852832D01*
X49789688Y14852836D01*
X49720505Y14972665D01*
X49622665Y15070505D01*
X49502836Y15139688D01*
X49502831Y15139690D01*
X49369185Y15175500D01*
X49369183Y15175500D01*
X49230817Y15175500D01*
X49230815Y15175500D01*
X49097168Y15139690D01*
X49097163Y15139688D01*
X48977334Y15070505D01*
X48879495Y14972666D01*
X48810312Y14852837D01*
X48810310Y14852832D01*
X48774500Y14719186D01*
X44000000Y14719186D01*
X44000000Y15866666D01*
X44000000Y17474500D01*
X44069185Y17474500D01*
X44069185Y17474501D01*
X44202836Y17510312D01*
X44322665Y17579495D01*
X44415587Y17672418D01*
X44467912Y17694091D01*
X44520238Y17672417D01*
X44538290Y17642958D01*
X44609429Y17424014D01*
X44609431Y17424009D01*
X44609432Y17424008D01*
X44716657Y17213567D01*
X44855483Y17022490D01*
X45022490Y16855483D01*
X45213567Y16716657D01*
X45424008Y16609432D01*
X45424010Y16609432D01*
X45424013Y16609430D01*
X45648621Y16536450D01*
X45648627Y16536449D01*
X45648632Y16536447D01*
X45804149Y16511816D01*
X45881907Y16499500D01*
X45881908Y16499500D01*
X46118093Y16499500D01*
X46176411Y16508737D01*
X46351368Y16536447D01*
X46351375Y16536450D01*
X46351378Y16536450D01*
X46575986Y16609430D01*
X46575986Y16609431D01*
X46575992Y16609432D01*
X46786433Y16716657D01*
X46977510Y16855483D01*
X47144517Y17022490D01*
X47283343Y17213567D01*
X47390568Y17424008D01*
X47441089Y17579496D01*
X47463550Y17648622D01*
X47463550Y17648625D01*
X47463553Y17648632D01*
X47500500Y17881908D01*
X47500500Y17926000D01*
X47522174Y17978326D01*
X47574500Y18000000D01*
X48400500Y18000000D01*
X48452826Y17978326D01*
G37*
%TD.AperFunction*%
%TD*%
%TA.AperFunction,Conductor*%
%TO.N,/GND*%
G36*
X46476538Y11142479D02*
G01*
X46499125Y11136428D01*
X46539107Y11125715D01*
X46556948Y11118325D01*
X46613049Y11085935D01*
X46628374Y11074176D01*
X46674174Y11028376D01*
X46685934Y11013049D01*
X46718320Y10956953D01*
X46725712Y10939108D01*
X46742478Y10876541D01*
X46745000Y10857387D01*
X46745000Y10792618D01*
X46742478Y10773464D01*
X46725711Y10710892D01*
X46718319Y10693047D01*
X46685934Y10636953D01*
X46674174Y10621626D01*
X46628374Y10575826D01*
X46613047Y10564066D01*
X46556950Y10531679D01*
X46539105Y10524287D01*
X46491878Y10511633D01*
X46476539Y10507522D01*
X46457387Y10505000D01*
X46392614Y10505000D01*
X46373461Y10507522D01*
X46351095Y10513515D01*
X46310892Y10524288D01*
X46293047Y10531680D01*
X46236951Y10564066D01*
X46221624Y10575826D01*
X46175824Y10621626D01*
X46164064Y10636952D01*
X46131675Y10693052D01*
X46124284Y10710896D01*
X46107521Y10773463D01*
X46105000Y10792614D01*
X46105000Y10857389D01*
X46107521Y10876540D01*
X46118880Y10918937D01*
X46124286Y10939112D01*
X46131673Y10956949D01*
X46164067Y11013056D01*
X46175820Y11028373D01*
X46221627Y11074180D01*
X46236944Y11085933D01*
X46293052Y11118327D01*
X46310889Y11125714D01*
X46357088Y11138093D01*
X46373461Y11142479D01*
X46392612Y11145000D01*
X46457387Y11145000D01*
X46476538Y11142479D01*
G37*
%TD.AperFunction*%
%TA.AperFunction,Conductor*%
G36*
X58576538Y11492479D02*
G01*
X58599125Y11486428D01*
X58639107Y11475715D01*
X58656948Y11468325D01*
X58713049Y11435935D01*
X58728374Y11424176D01*
X58774174Y11378376D01*
X58785934Y11363049D01*
X58818320Y11306953D01*
X58825712Y11289108D01*
X58842478Y11226541D01*
X58845000Y11207387D01*
X58845000Y11142618D01*
X58842478Y11123464D01*
X58825711Y11060892D01*
X58818319Y11043047D01*
X58785934Y10986953D01*
X58774174Y10971626D01*
X58728374Y10925826D01*
X58713047Y10914066D01*
X58656950Y10881679D01*
X58639105Y10874287D01*
X58591878Y10861633D01*
X58576539Y10857522D01*
X58557387Y10855000D01*
X58492614Y10855000D01*
X58473461Y10857522D01*
X58451095Y10863515D01*
X58410892Y10874288D01*
X58393046Y10881680D01*
X58324316Y10921361D01*
X58320205Y10923918D01*
X58263567Y10961761D01*
X58263562Y10961764D01*
X58211239Y10983436D01*
X58144126Y10998755D01*
X58136837Y10998959D01*
X58136887Y11000752D01*
X58089773Y11011511D01*
X58059644Y11059470D01*
X58058600Y11071858D01*
X58058600Y11278143D01*
X58080274Y11330469D01*
X58120204Y11351097D01*
X58121076Y11351246D01*
X58121077Y11351245D01*
X58211241Y11366565D01*
X58263567Y11388239D01*
X58320216Y11426093D01*
X58324311Y11428640D01*
X58393052Y11468327D01*
X58410889Y11475714D01*
X58457088Y11488093D01*
X58473461Y11492479D01*
X58492612Y11495000D01*
X58557387Y11495000D01*
X58576538Y11492479D01*
G37*
%TD.AperFunction*%
%TA.AperFunction,Conductor*%
G36*
X49051538Y13317479D02*
G01*
X49074125Y13311428D01*
X49114107Y13300715D01*
X49131948Y13293325D01*
X49188049Y13260935D01*
X49203374Y13249176D01*
X49249174Y13203376D01*
X49260934Y13188049D01*
X49293320Y13131953D01*
X49300712Y13114108D01*
X49317478Y13051541D01*
X49320000Y13032387D01*
X49320000Y12967618D01*
X49317478Y12948464D01*
X49300711Y12885892D01*
X49293319Y12868047D01*
X49260934Y12811953D01*
X49249174Y12796626D01*
X49203374Y12750826D01*
X49188047Y12739066D01*
X49131950Y12706679D01*
X49114105Y12699287D01*
X49066878Y12686633D01*
X49051539Y12682522D01*
X49032387Y12680000D01*
X48967614Y12680000D01*
X48948461Y12682522D01*
X48926095Y12688515D01*
X48885892Y12699288D01*
X48868047Y12706680D01*
X48811951Y12739066D01*
X48796624Y12750826D01*
X48750824Y12796626D01*
X48739064Y12811952D01*
X48706675Y12868052D01*
X48699284Y12885896D01*
X48682521Y12948463D01*
X48680000Y12967614D01*
X48680000Y13032389D01*
X48682521Y13051540D01*
X48690822Y13082522D01*
X48699286Y13114112D01*
X48706673Y13131949D01*
X48739067Y13188056D01*
X48750820Y13203373D01*
X48796627Y13249180D01*
X48811944Y13260933D01*
X48868052Y13293327D01*
X48885889Y13300714D01*
X48932088Y13313093D01*
X48948461Y13317479D01*
X48967612Y13320000D01*
X49032387Y13320000D01*
X49051538Y13317479D01*
G37*
%TD.AperFunction*%
%TA.AperFunction,Conductor*%
G36*
X56551538Y13717479D02*
G01*
X56574125Y13711428D01*
X56614107Y13700715D01*
X56631948Y13693325D01*
X56688049Y13660935D01*
X56703374Y13649176D01*
X56749174Y13603376D01*
X56760932Y13588054D01*
X56793322Y13531953D01*
X56800713Y13514109D01*
X56817479Y13451535D01*
X56820000Y13432383D01*
X56820000Y13367618D01*
X56817478Y13348464D01*
X56800711Y13285892D01*
X56793319Y13268047D01*
X56760934Y13211953D01*
X56749174Y13196626D01*
X56703374Y13150826D01*
X56688047Y13139066D01*
X56631950Y13106679D01*
X56614105Y13099287D01*
X56566878Y13086633D01*
X56551539Y13082522D01*
X56532387Y13080000D01*
X56467614Y13080000D01*
X56448461Y13082522D01*
X56426095Y13088515D01*
X56385892Y13099288D01*
X56368047Y13106680D01*
X56311951Y13139066D01*
X56296624Y13150826D01*
X56250824Y13196626D01*
X56239064Y13211952D01*
X56206675Y13268052D01*
X56199284Y13285896D01*
X56195313Y13300716D01*
X56186536Y13333476D01*
X56182521Y13348463D01*
X56180000Y13367614D01*
X56180000Y13432389D01*
X56182521Y13451540D01*
X56187075Y13468538D01*
X56199286Y13514112D01*
X56206673Y13531949D01*
X56239067Y13588056D01*
X56250820Y13603373D01*
X56296627Y13649180D01*
X56311944Y13660933D01*
X56368052Y13693327D01*
X56385889Y13700714D01*
X56432088Y13713093D01*
X56448461Y13717479D01*
X56467612Y13720000D01*
X56532387Y13720000D01*
X56551538Y13717479D01*
G37*
%TD.AperFunction*%
%TA.AperFunction,Conductor*%
G36*
X51576538Y14142479D02*
G01*
X51599125Y14136428D01*
X51639107Y14125715D01*
X51656948Y14118325D01*
X51713049Y14085935D01*
X51728374Y14074176D01*
X51774174Y14028376D01*
X51785934Y14013049D01*
X51818320Y13956953D01*
X51825712Y13939108D01*
X51842478Y13876541D01*
X51845000Y13857387D01*
X51845000Y13792614D01*
X51842478Y13773460D01*
X51825713Y13710896D01*
X51818323Y13693053D01*
X51804994Y13669965D01*
X51793424Y13649923D01*
X51793424Y13649922D01*
X51785930Y13636945D01*
X51774180Y13621631D01*
X51767048Y13614498D01*
X51767043Y13614493D01*
X51728376Y13575827D01*
X51713051Y13564068D01*
X51656951Y13531679D01*
X51639105Y13524287D01*
X51591878Y13511633D01*
X51576539Y13507522D01*
X51557387Y13505000D01*
X51492614Y13505000D01*
X51473461Y13507522D01*
X51448878Y13514109D01*
X51410892Y13524288D01*
X51393047Y13531680D01*
X51336951Y13564066D01*
X51321624Y13575826D01*
X51275824Y13621626D01*
X51264064Y13636952D01*
X51260091Y13643834D01*
X51231675Y13693052D01*
X51224284Y13710896D01*
X51222520Y13717479D01*
X51216520Y13739875D01*
X51207521Y13773463D01*
X51205000Y13792614D01*
X51205000Y13857389D01*
X51207521Y13876540D01*
X51211907Y13892913D01*
X51224286Y13939112D01*
X51231673Y13956949D01*
X51264067Y14013056D01*
X51275820Y14028373D01*
X51321627Y14074180D01*
X51336944Y14085933D01*
X51393052Y14118327D01*
X51410889Y14125714D01*
X51457088Y14138093D01*
X51473461Y14142479D01*
X51492612Y14145000D01*
X51557387Y14145000D01*
X51576538Y14142479D01*
G37*
%TD.AperFunction*%
%TA.AperFunction,Conductor*%
G36*
X49351538Y14967479D02*
G01*
X49374125Y14961428D01*
X49414107Y14950715D01*
X49431948Y14943325D01*
X49488049Y14910935D01*
X49503374Y14899176D01*
X49549174Y14853376D01*
X49560934Y14838049D01*
X49593320Y14781953D01*
X49600712Y14764108D01*
X49611287Y14724643D01*
X49616732Y14704323D01*
X49617478Y14701541D01*
X49620000Y14682387D01*
X49620000Y14617618D01*
X49617478Y14598464D01*
X49600711Y14535892D01*
X49593319Y14518047D01*
X49560934Y14461953D01*
X49549174Y14446626D01*
X49503374Y14400826D01*
X49488047Y14389066D01*
X49431950Y14356679D01*
X49414105Y14349287D01*
X49366878Y14336633D01*
X49351539Y14332522D01*
X49332387Y14330000D01*
X49267614Y14330000D01*
X49248461Y14332522D01*
X49226095Y14338515D01*
X49185892Y14349288D01*
X49168047Y14356680D01*
X49111951Y14389066D01*
X49096624Y14400826D01*
X49050824Y14446626D01*
X49039064Y14461952D01*
X49006675Y14518052D01*
X48999284Y14535896D01*
X48982521Y14598463D01*
X48980000Y14617614D01*
X48980000Y14682389D01*
X48982521Y14701540D01*
X48986907Y14717913D01*
X48999286Y14764112D01*
X49006673Y14781949D01*
X49039067Y14838056D01*
X49050820Y14853373D01*
X49096627Y14899180D01*
X49111944Y14910933D01*
X49168052Y14943327D01*
X49185889Y14950714D01*
X49232088Y14963093D01*
X49248461Y14967479D01*
X49267612Y14970000D01*
X49332387Y14970000D01*
X49351538Y14967479D01*
G37*
%TD.AperFunction*%
%TA.AperFunction,Conductor*%
G36*
X16386538Y26367479D02*
G01*
X16409125Y26361428D01*
X16449107Y26350715D01*
X16466948Y26343325D01*
X16523049Y26310935D01*
X16538374Y26299176D01*
X16584174Y26253376D01*
X16595934Y26238050D01*
X16628319Y26181957D01*
X16635711Y26164110D01*
X16652478Y26101536D01*
X16655000Y26082383D01*
X16655000Y26017618D01*
X16652478Y25998465D01*
X16635712Y25935894D01*
X16628320Y25918047D01*
X16595934Y25861952D01*
X16584174Y25846626D01*
X16538374Y25800826D01*
X16523048Y25789066D01*
X16466953Y25756680D01*
X16449106Y25749288D01*
X16386536Y25732522D01*
X16367383Y25730000D01*
X16302617Y25730000D01*
X16283465Y25732521D01*
X16220892Y25749287D01*
X16203044Y25756680D01*
X16146950Y25789066D01*
X16131624Y25800826D01*
X16085824Y25846626D01*
X16074064Y25861952D01*
X16041675Y25918052D01*
X16034284Y25935896D01*
X16017521Y25998463D01*
X16015000Y26017614D01*
X16015000Y26082389D01*
X16017521Y26101540D01*
X16033770Y26162187D01*
X16034286Y26164112D01*
X16041673Y26181949D01*
X16074068Y26238058D01*
X16085823Y26253376D01*
X16131624Y26299178D01*
X16146940Y26310931D01*
X16203053Y26343326D01*
X16220890Y26350715D01*
X16268101Y26363364D01*
X16283461Y26367479D01*
X16302612Y26370000D01*
X16367387Y26370000D01*
X16386538Y26367479D01*
G37*
%TD.AperFunction*%
%TA.AperFunction,Conductor*%
G36*
X14041538Y28592480D02*
G01*
X14104107Y28575715D01*
X14121947Y28568325D01*
X14178051Y28535934D01*
X14193375Y28524175D01*
X14239173Y28478377D01*
X14250933Y28463050D01*
X14283319Y28406954D01*
X14290711Y28389109D01*
X14307478Y28326538D01*
X14310000Y28307384D01*
X14310000Y28242618D01*
X14307478Y28223465D01*
X14290712Y28160894D01*
X14283320Y28143047D01*
X14250934Y28086952D01*
X14239174Y28071626D01*
X14193374Y28025826D01*
X14178048Y28014066D01*
X14121953Y27981680D01*
X14104106Y27974288D01*
X14041536Y27957522D01*
X14022383Y27955000D01*
X13957617Y27955000D01*
X13938465Y27957521D01*
X13875892Y27974287D01*
X13858044Y27981680D01*
X13801950Y28014066D01*
X13786624Y28025826D01*
X13740824Y28071626D01*
X13729064Y28086952D01*
X13723216Y28097081D01*
X13696675Y28143052D01*
X13689284Y28160896D01*
X13688042Y28165530D01*
X13681520Y28189875D01*
X13672521Y28223463D01*
X13670000Y28242614D01*
X13670000Y28307389D01*
X13672521Y28326540D01*
X13684091Y28369724D01*
X13689286Y28389112D01*
X13696673Y28406949D01*
X13729068Y28463058D01*
X13740821Y28478375D01*
X13786624Y28524178D01*
X13801940Y28535931D01*
X13858053Y28568326D01*
X13875890Y28575715D01*
X13923101Y28588364D01*
X13938461Y28592479D01*
X13957612Y28595000D01*
X14022387Y28595000D01*
X14041538Y28592480D01*
G37*
%TD.AperFunction*%
%TA.AperFunction,Conductor*%
G36*
X8301538Y32467480D02*
G01*
X8364107Y32450715D01*
X8381947Y32443325D01*
X8438051Y32410934D01*
X8453375Y32399175D01*
X8499173Y32353377D01*
X8510933Y32338050D01*
X8543319Y32281954D01*
X8550711Y32264109D01*
X8567478Y32201538D01*
X8570000Y32182384D01*
X8570000Y32117618D01*
X8567478Y32098465D01*
X8550712Y32035894D01*
X8543320Y32018047D01*
X8510934Y31961952D01*
X8499174Y31946626D01*
X8453374Y31900826D01*
X8438048Y31889066D01*
X8381953Y31856680D01*
X8364106Y31849288D01*
X8301536Y31832522D01*
X8282383Y31830000D01*
X8217617Y31830000D01*
X8198465Y31832521D01*
X8135892Y31849287D01*
X8118044Y31856680D01*
X8061950Y31889066D01*
X8046624Y31900826D01*
X8000824Y31946626D01*
X7989064Y31961952D01*
X7956675Y32018052D01*
X7949284Y32035896D01*
X7944884Y32052317D01*
X7941520Y32064875D01*
X7932521Y32098463D01*
X7930000Y32117614D01*
X7930000Y32182389D01*
X7932521Y32201540D01*
X7936907Y32217913D01*
X7949286Y32264112D01*
X7956673Y32281949D01*
X7989068Y32338058D01*
X8000821Y32353375D01*
X8046624Y32399178D01*
X8061940Y32410931D01*
X8118053Y32443326D01*
X8135890Y32450715D01*
X8183101Y32463364D01*
X8198461Y32467479D01*
X8217612Y32470000D01*
X8282387Y32470000D01*
X8301538Y32467480D01*
G37*
%TD.AperFunction*%
%TA.AperFunction,Conductor*%
G36*
X33939591Y49693871D02*
G01*
X33950003Y49689558D01*
X33990053Y49649515D01*
X33990056Y49649508D01*
X33994367Y49639100D01*
X34000000Y49610782D01*
X34000000Y49100000D01*
X62000000Y49100000D01*
X62000000Y49610782D01*
X62005629Y49639091D01*
X62009943Y49649506D01*
X62049982Y49689552D01*
X62060411Y49693872D01*
X62088719Y49699500D01*
X64610781Y49699500D01*
X64639091Y49693871D01*
X64649503Y49689558D01*
X64689553Y49649515D01*
X64689556Y49649508D01*
X64693867Y49639100D01*
X64699500Y49610782D01*
X64699500Y389219D01*
X64693867Y360901D01*
X64689556Y350493D01*
X64649508Y310445D01*
X64649507Y310444D01*
X64639099Y306133D01*
X64610781Y300500D01*
X389219Y300500D01*
X360904Y306132D01*
X350495Y310443D01*
X310446Y350487D01*
X306129Y360909D01*
X300500Y389219D01*
X300500Y4118093D01*
X37499500Y4118093D01*
X37499500Y3881908D01*
X37532349Y3674500D01*
X37536447Y3648630D01*
X37536453Y3648606D01*
X37609426Y3424020D01*
X37716655Y3213568D01*
X37815635Y3077335D01*
X37855480Y3022493D01*
X37855483Y3022490D01*
X38022490Y2855483D01*
X38022493Y2855481D01*
X38022494Y2855480D01*
X38213567Y2716657D01*
X38213576Y2716652D01*
X38420163Y2611390D01*
X38421102Y2610841D01*
X38423299Y2609777D01*
X38424528Y2609167D01*
X38426767Y2608535D01*
X38646303Y2537203D01*
X38647867Y2536637D01*
X38648039Y2536586D01*
X38648477Y2536472D01*
X38648630Y2536448D01*
X38648632Y2536447D01*
X38804149Y2511816D01*
X38823589Y2508737D01*
X38881906Y2499500D01*
X39118093Y2499500D01*
X39118094Y2499500D01*
X39132672Y2501810D01*
X39176411Y2508737D01*
X39351368Y2536447D01*
X39351367Y2536447D01*
X39351507Y2536469D01*
X39352564Y2536793D01*
X39353242Y2536989D01*
X39354553Y2537482D01*
X39570742Y2607726D01*
X39571005Y2607791D01*
X39575678Y2609330D01*
X39575986Y2609430D01*
X39575986Y2609431D01*
X39575988Y2609432D01*
X39575992Y2609432D01*
X39575995Y2609434D01*
X39576036Y2609447D01*
X39586294Y2612781D01*
X39591812Y2617494D01*
X39786433Y2716657D01*
X39977510Y2855483D01*
X40144517Y3022490D01*
X40283343Y3213567D01*
X40390568Y3424008D01*
X40405247Y3469186D01*
X40414253Y3496901D01*
X40416049Y3502427D01*
X40416054Y3502446D01*
X40446770Y3596979D01*
X40462518Y3645447D01*
X40463011Y3646758D01*
X40463207Y3647436D01*
X40463531Y3648493D01*
X40500500Y3881908D01*
X40500500Y4118093D01*
X40476413Y4270170D01*
X40463553Y4351368D01*
X40463552Y4351370D01*
X40463528Y4351523D01*
X40463414Y4351961D01*
X40463363Y4352133D01*
X40462795Y4353702D01*
X40446830Y4402836D01*
X40391465Y4573233D01*
X40390833Y4575472D01*
X40390223Y4576701D01*
X40389159Y4578898D01*
X40388610Y4579837D01*
X40283348Y4786424D01*
X40283343Y4786433D01*
X40144520Y4977506D01*
X40144519Y4977507D01*
X40144517Y4977510D01*
X39977510Y5144517D01*
X39977507Y5144520D01*
X39977504Y5144523D01*
X39977476Y5144543D01*
X39977251Y5144706D01*
X39786432Y5283345D01*
X39575980Y5390574D01*
X39351394Y5463547D01*
X39351370Y5463553D01*
X39351367Y5463554D01*
X39351365Y5463554D01*
X39218910Y5484533D01*
X39118094Y5500500D01*
X39118093Y5500500D01*
X39118092Y5500500D01*
X38881908Y5500500D01*
X38881907Y5500500D01*
X38881906Y5500500D01*
X38648628Y5463553D01*
X38648604Y5463547D01*
X38424018Y5390574D01*
X38213566Y5283345D01*
X38022498Y5144525D01*
X37855475Y4977502D01*
X37716655Y4786434D01*
X37609426Y4575982D01*
X37536453Y4351396D01*
X37536447Y4351372D01*
X37499890Y4120553D01*
X37499500Y4118093D01*
X300500Y4118093D01*
X300500Y5667607D01*
X52634500Y5667607D01*
X52634500Y5542395D01*
X52666902Y5421469D01*
X52666903Y5421467D01*
X52666904Y5421465D01*
X52687446Y5385885D01*
X52687447Y5385884D01*
X52729504Y5313037D01*
X52818036Y5224505D01*
X52883640Y5186629D01*
X52896438Y5169950D01*
X52991327Y5144524D01*
X52991333Y5144523D01*
X52991341Y5144521D01*
X53042719Y5130755D01*
X53046414Y5129500D01*
X53172603Y5129500D01*
X53182865Y5129500D01*
X53191753Y5134633D01*
X53293536Y5161905D01*
X53401964Y5224505D01*
X53490495Y5313036D01*
X53553095Y5421464D01*
X53580367Y5523247D01*
X53585500Y5532136D01*
X53585500Y5668587D01*
X53584245Y5672281D01*
X53553095Y5788536D01*
X53533301Y5822820D01*
X53490495Y5896964D01*
X53401963Y5985496D01*
X53336357Y6023373D01*
X53323559Y6040052D01*
X53172605Y6080500D01*
X53172603Y6080500D01*
X53172601Y6080500D01*
X53047399Y6080500D01*
X53047397Y6080500D01*
X53047395Y6080500D01*
X52926468Y6048098D01*
X52926459Y6048094D01*
X52818036Y5985497D01*
X52729503Y5896964D01*
X52666903Y5788536D01*
X52634500Y5667607D01*
X300500Y5667607D01*
X300500Y8258541D01*
X11384500Y8258541D01*
X11384500Y8258540D01*
X11384500Y8061461D01*
X11385161Y8058140D01*
X11422946Y7868173D01*
X11422949Y7868162D01*
X11422951Y7868157D01*
X11498366Y7686089D01*
X11498367Y7686087D01*
X11498368Y7686086D01*
X11548261Y7611415D01*
X11607861Y7522218D01*
X11747218Y7382861D01*
X11911086Y7273368D01*
X12093165Y7197949D01*
X12286459Y7159500D01*
X12286461Y7159500D01*
X12483539Y7159500D01*
X12483541Y7159500D01*
X12676835Y7197949D01*
X12858914Y7273368D01*
X13022782Y7382861D01*
X13162139Y7522218D01*
X13271632Y7686086D01*
X13347051Y7868165D01*
X13385500Y8061459D01*
X13385500Y8258541D01*
X14154500Y8258541D01*
X14154500Y8258540D01*
X14154500Y8061461D01*
X14155161Y8058140D01*
X14192946Y7868173D01*
X14192949Y7868162D01*
X14192951Y7868157D01*
X14268366Y7686089D01*
X14268367Y7686087D01*
X14268368Y7686086D01*
X14318261Y7611415D01*
X14377861Y7522218D01*
X14517218Y7382861D01*
X14681086Y7273368D01*
X14863165Y7197949D01*
X15056459Y7159500D01*
X15056461Y7159500D01*
X15253539Y7159500D01*
X15253541Y7159500D01*
X15446835Y7197949D01*
X15628914Y7273368D01*
X15792782Y7382861D01*
X15932139Y7522218D01*
X16041632Y7686086D01*
X16117051Y7868165D01*
X16155500Y8061459D01*
X16155500Y8258541D01*
X16924500Y8258541D01*
X16924500Y8258540D01*
X16924500Y8061461D01*
X16925161Y8058140D01*
X16962946Y7868173D01*
X16962949Y7868162D01*
X16962951Y7868157D01*
X17038366Y7686089D01*
X17038367Y7686087D01*
X17038368Y7686086D01*
X17088261Y7611415D01*
X17147861Y7522218D01*
X17287218Y7382861D01*
X17451086Y7273368D01*
X17633165Y7197949D01*
X17826459Y7159500D01*
X17826461Y7159500D01*
X18023539Y7159500D01*
X18023541Y7159500D01*
X18216835Y7197949D01*
X18398914Y7273368D01*
X18562782Y7382861D01*
X18702139Y7522218D01*
X18811632Y7686086D01*
X18887051Y7868165D01*
X18925500Y8061459D01*
X18925500Y8258541D01*
X19694500Y8258541D01*
X19694500Y8258540D01*
X19694500Y8061461D01*
X19695161Y8058140D01*
X19732946Y7868173D01*
X19732949Y7868162D01*
X19732951Y7868157D01*
X19808366Y7686089D01*
X19808367Y7686087D01*
X19808368Y7686086D01*
X19858261Y7611415D01*
X19917861Y7522218D01*
X20057218Y7382861D01*
X20221086Y7273368D01*
X20403165Y7197949D01*
X20596459Y7159500D01*
X20596461Y7159500D01*
X20793539Y7159500D01*
X20793541Y7159500D01*
X20986835Y7197949D01*
X21168914Y7273368D01*
X21332782Y7382861D01*
X21377339Y7427418D01*
X21401345Y7443459D01*
X21426476Y7453869D01*
X21454792Y7459500D01*
X24068991Y7459500D01*
X24068993Y7459500D01*
X24204328Y7486420D01*
X24331811Y7539225D01*
X24446542Y7615886D01*
X24544114Y7713458D01*
X24620775Y7828189D01*
X24673580Y7955672D01*
X24700500Y8091007D01*
X24700500Y14568993D01*
X24673580Y14704328D01*
X24648819Y14764107D01*
X24620776Y14831809D01*
X24616605Y14838051D01*
X24544114Y14946542D01*
X24446542Y15044114D01*
X24446536Y15044118D01*
X24332905Y15120044D01*
X24331956Y15120703D01*
X24331808Y15120777D01*
X24331794Y15120783D01*
X24204336Y15173578D01*
X24204331Y15173580D01*
X24204318Y15173584D01*
X24204319Y15173584D01*
X24113694Y15191609D01*
X24113694Y15191610D01*
X24068993Y15200500D01*
X23931007Y15200500D01*
X23892642Y15192869D01*
X23795678Y15173583D01*
X23795668Y15173580D01*
X23795662Y15173578D01*
X23668191Y15120778D01*
X23553461Y15044118D01*
X23553460Y15044116D01*
X23455884Y14946540D01*
X23455882Y14946539D01*
X23379222Y14831809D01*
X23326422Y14704338D01*
X23326420Y14704332D01*
X23326417Y14704322D01*
X23299500Y14568992D01*
X23299500Y8949219D01*
X23293867Y8920901D01*
X23289556Y8910493D01*
X23249508Y8870445D01*
X23249507Y8870444D01*
X23239099Y8866133D01*
X23210781Y8860500D01*
X21454792Y8860500D01*
X21426474Y8866133D01*
X21401345Y8876542D01*
X21377339Y8892582D01*
X21332780Y8937141D01*
X21168912Y9046634D01*
X20986843Y9122049D01*
X20986838Y9122051D01*
X20986825Y9122055D01*
X20986826Y9122055D01*
X20857388Y9147800D01*
X20857387Y9147801D01*
X20806240Y9157975D01*
X20793541Y9160500D01*
X20793540Y9160500D01*
X20596459Y9160500D01*
X20541662Y9149602D01*
X20541662Y9149601D01*
X20514115Y9144122D01*
X20403171Y9122054D01*
X20403161Y9122051D01*
X20403155Y9122049D01*
X20221086Y9046634D01*
X20056948Y8936961D01*
X20055567Y8935489D01*
X19919511Y8799433D01*
X19918039Y8798052D01*
X19808366Y8633914D01*
X19732951Y8451845D01*
X19732949Y8451839D01*
X19732946Y8451829D01*
X19694500Y8258541D01*
X18925500Y8258541D01*
X18887051Y8451835D01*
X18811632Y8633914D01*
X18702139Y8797782D01*
X18562782Y8937139D01*
X18562779Y8937141D01*
X18441624Y9018094D01*
X18434415Y9028882D01*
X18398915Y9046632D01*
X18398910Y9046634D01*
X18398899Y9046639D01*
X18216843Y9122049D01*
X18216838Y9122051D01*
X18216825Y9122055D01*
X18216826Y9122055D01*
X18087388Y9147800D01*
X18087387Y9147801D01*
X18036240Y9157975D01*
X18023541Y9160500D01*
X18023540Y9160500D01*
X17826459Y9160500D01*
X17771662Y9149602D01*
X17771662Y9149601D01*
X17744115Y9144122D01*
X17633171Y9122054D01*
X17633161Y9122051D01*
X17633155Y9122049D01*
X17451086Y9046634D01*
X17286948Y8936961D01*
X17285567Y8935489D01*
X17149511Y8799433D01*
X17148039Y8798052D01*
X17038366Y8633914D01*
X16962951Y8451845D01*
X16962949Y8451839D01*
X16962946Y8451829D01*
X16924500Y8258541D01*
X16155500Y8258541D01*
X16117051Y8451835D01*
X16041632Y8633914D01*
X15932139Y8797782D01*
X15792782Y8937139D01*
X15792779Y8937141D01*
X15671624Y9018094D01*
X15664415Y9028882D01*
X15628915Y9046632D01*
X15628910Y9046634D01*
X15628899Y9046639D01*
X15446843Y9122049D01*
X15446838Y9122051D01*
X15446825Y9122055D01*
X15446826Y9122055D01*
X15317388Y9147800D01*
X15317387Y9147801D01*
X15266240Y9157975D01*
X15253541Y9160500D01*
X15253540Y9160500D01*
X15056459Y9160500D01*
X15001662Y9149602D01*
X15001662Y9149601D01*
X14974115Y9144122D01*
X14863171Y9122054D01*
X14863161Y9122051D01*
X14863155Y9122049D01*
X14681086Y9046634D01*
X14516948Y8936961D01*
X14515567Y8935489D01*
X14379511Y8799433D01*
X14378039Y8798052D01*
X14268366Y8633914D01*
X14192951Y8451845D01*
X14192949Y8451839D01*
X14192946Y8451829D01*
X14154500Y8258541D01*
X13385500Y8258541D01*
X13347051Y8451835D01*
X13271632Y8633914D01*
X13162139Y8797782D01*
X13022782Y8937139D01*
X13022779Y8937141D01*
X12901624Y9018094D01*
X12894415Y9028882D01*
X12858915Y9046632D01*
X12858910Y9046634D01*
X12858899Y9046639D01*
X12676843Y9122049D01*
X12676838Y9122051D01*
X12676825Y9122055D01*
X12676826Y9122055D01*
X12547388Y9147800D01*
X12547387Y9147801D01*
X12496240Y9157975D01*
X12483541Y9160500D01*
X12483540Y9160500D01*
X12286459Y9160500D01*
X12231662Y9149602D01*
X12231662Y9149601D01*
X12204115Y9144122D01*
X12093171Y9122054D01*
X12093161Y9122051D01*
X12093155Y9122049D01*
X11911086Y9046634D01*
X11746948Y8936961D01*
X11745567Y8935489D01*
X11609511Y8799433D01*
X11608039Y8798052D01*
X11498366Y8633914D01*
X11422951Y8451845D01*
X11422949Y8451839D01*
X11422946Y8451829D01*
X11384500Y8258541D01*
X300500Y8258541D01*
X300500Y11819747D01*
X9999500Y11819747D01*
X9999500Y10180254D01*
X10001813Y10168622D01*
X10011132Y10121769D01*
X10011133Y10121768D01*
X10015863Y10114690D01*
X10055448Y10055448D01*
X10099559Y10025974D01*
X10099560Y10025973D01*
X10115710Y10015181D01*
X10118539Y10012860D01*
X10118562Y10012847D01*
X10121698Y10010967D01*
X10125258Y10010075D01*
X10125273Y10010071D01*
X10128910Y10009712D01*
X10180252Y9999500D01*
X10180254Y9999500D01*
X11819746Y9999500D01*
X11819748Y9999500D01*
X11878231Y10011133D01*
X11878232Y10011134D01*
X11944552Y10055448D01*
X11988867Y10121769D01*
X12000500Y10180252D01*
X12000500Y11098540D01*
X12769500Y11098540D01*
X12769500Y10901461D01*
X12774404Y10876808D01*
X12807946Y10708173D01*
X12807949Y10708162D01*
X12807951Y10708157D01*
X12883366Y10526088D01*
X12895772Y10507522D01*
X12992860Y10362219D01*
X13132218Y10222861D01*
X13296086Y10113368D01*
X13296091Y10113366D01*
X13296090Y10113366D01*
X13435913Y10055450D01*
X13478165Y10037949D01*
X13671459Y9999500D01*
X13671461Y9999500D01*
X13868539Y9999500D01*
X13868541Y9999500D01*
X14061835Y10037949D01*
X14243914Y10113368D01*
X14407782Y10222861D01*
X14547139Y10362218D01*
X14656632Y10526086D01*
X14732051Y10708165D01*
X14770500Y10901459D01*
X14770500Y11098540D01*
X18309500Y11098540D01*
X18309500Y10901461D01*
X18314404Y10876808D01*
X18347946Y10708173D01*
X18347949Y10708162D01*
X18347951Y10708157D01*
X18423366Y10526088D01*
X18435772Y10507522D01*
X18532860Y10362219D01*
X18672218Y10222861D01*
X18836086Y10113368D01*
X18836091Y10113366D01*
X18836090Y10113366D01*
X18975913Y10055450D01*
X19018165Y10037949D01*
X19211459Y9999500D01*
X19211461Y9999500D01*
X19408539Y9999500D01*
X19408541Y9999500D01*
X19601835Y10037949D01*
X19783914Y10113368D01*
X19947782Y10222861D01*
X20087139Y10362218D01*
X20196632Y10526086D01*
X20272051Y10708165D01*
X20310500Y10901459D01*
X20310500Y11098540D01*
X21079500Y11098540D01*
X21079500Y10901461D01*
X21084404Y10876808D01*
X21117946Y10708173D01*
X21117949Y10708162D01*
X21117951Y10708157D01*
X21193366Y10526088D01*
X21205772Y10507522D01*
X21302860Y10362219D01*
X21442218Y10222861D01*
X21606086Y10113368D01*
X21606091Y10113366D01*
X21606090Y10113366D01*
X21745913Y10055450D01*
X21788165Y10037949D01*
X21981459Y9999500D01*
X21981461Y9999500D01*
X22178539Y9999500D01*
X22178541Y9999500D01*
X22371835Y10037949D01*
X22553914Y10113368D01*
X22717782Y10222861D01*
X22857139Y10362218D01*
X22966632Y10526086D01*
X23042051Y10708165D01*
X23080500Y10901459D01*
X23080500Y11098541D01*
X23042051Y11291835D01*
X23002119Y11388239D01*
X22966632Y11473914D01*
X22857139Y11637782D01*
X22857138Y11637783D01*
X22855488Y11639433D01*
X22717782Y11777139D01*
X22717778Y11777142D01*
X22717776Y11777144D01*
X22654014Y11819748D01*
X22553912Y11886634D01*
X22371843Y11962049D01*
X22371838Y11962051D01*
X22371827Y11962054D01*
X22237023Y11988867D01*
X22233328Y11989602D01*
X22178541Y12000500D01*
X22178539Y12000500D01*
X21981459Y12000500D01*
X21926662Y11989602D01*
X21926662Y11989601D01*
X21899429Y11984184D01*
X21788171Y11962054D01*
X21788161Y11962051D01*
X21788155Y11962049D01*
X21606086Y11886634D01*
X21441948Y11776961D01*
X21440567Y11775489D01*
X21304511Y11639433D01*
X21303039Y11638052D01*
X21193366Y11473914D01*
X21117951Y11291845D01*
X21117949Y11291839D01*
X21117946Y11291829D01*
X21084404Y11123194D01*
X21079500Y11098540D01*
X20310500Y11098540D01*
X20310500Y11098541D01*
X20272051Y11291835D01*
X20232119Y11388239D01*
X20196632Y11473914D01*
X20087139Y11637782D01*
X20087138Y11637783D01*
X20085488Y11639433D01*
X19947782Y11777139D01*
X19947778Y11777142D01*
X19947776Y11777144D01*
X19884014Y11819748D01*
X19783912Y11886634D01*
X19601843Y11962049D01*
X19601838Y11962051D01*
X19601827Y11962054D01*
X19467023Y11988867D01*
X19463328Y11989602D01*
X19408541Y12000500D01*
X19408539Y12000500D01*
X19211459Y12000500D01*
X19156662Y11989602D01*
X19156662Y11989601D01*
X19129429Y11984184D01*
X19018171Y11962054D01*
X19018161Y11962051D01*
X19018155Y11962049D01*
X18836086Y11886634D01*
X18671948Y11776961D01*
X18670567Y11775489D01*
X18534511Y11639433D01*
X18533039Y11638052D01*
X18423366Y11473914D01*
X18347951Y11291845D01*
X18347949Y11291839D01*
X18347946Y11291829D01*
X18314404Y11123194D01*
X18309500Y11098540D01*
X14770500Y11098540D01*
X14770500Y11098541D01*
X14732051Y11291835D01*
X14692119Y11388239D01*
X14656632Y11473914D01*
X14547139Y11637782D01*
X14547138Y11637783D01*
X14545488Y11639433D01*
X14407782Y11777139D01*
X14407778Y11777142D01*
X14407776Y11777144D01*
X14344014Y11819748D01*
X14243912Y11886634D01*
X14061843Y11962049D01*
X14061838Y11962051D01*
X14061827Y11962054D01*
X13927023Y11988867D01*
X13923328Y11989602D01*
X13868541Y12000500D01*
X13868539Y12000500D01*
X13671459Y12000500D01*
X13616662Y11989602D01*
X13616662Y11989601D01*
X13589429Y11984184D01*
X13478171Y11962054D01*
X13478161Y11962051D01*
X13478155Y11962049D01*
X13296086Y11886634D01*
X13131948Y11776961D01*
X13130567Y11775489D01*
X12994511Y11639433D01*
X12993039Y11638052D01*
X12883366Y11473914D01*
X12807951Y11291845D01*
X12807949Y11291839D01*
X12807946Y11291829D01*
X12774404Y11123194D01*
X12769500Y11098540D01*
X12000500Y11098540D01*
X12000500Y11819748D01*
X11988867Y11878231D01*
X11944552Y11944552D01*
X11918360Y11962053D01*
X11918357Y11962058D01*
X11918356Y11962056D01*
X11915106Y11964228D01*
X11901774Y11984184D01*
X11878232Y11988867D01*
X11878233Y11988867D01*
X11848989Y11994684D01*
X11848988Y11994685D01*
X11819748Y12000500D01*
X10180252Y12000500D01*
X10151010Y11994685D01*
X10151010Y11994684D01*
X10143749Y11993240D01*
X10121769Y11988868D01*
X10121766Y11988867D01*
X10055451Y11944555D01*
X10055448Y11944553D01*
X10011133Y11878234D01*
X10011133Y11878231D01*
X9999500Y11819747D01*
X300500Y11819747D01*
X300500Y19569186D01*
X12099500Y19569186D01*
X12099500Y19430815D01*
X12135310Y19297169D01*
X12135312Y19297164D01*
X12204495Y19177335D01*
X12302335Y19079495D01*
X12422164Y19010312D01*
X12551133Y18975756D01*
X12554831Y18974500D01*
X12694185Y18974500D01*
X12704448Y18974500D01*
X12713336Y18979633D01*
X12827836Y19010312D01*
X12947665Y19079495D01*
X13045505Y19177335D01*
X13114688Y19297164D01*
X13145367Y19411664D01*
X13150500Y19420553D01*
X13150500Y19570170D01*
X13149244Y19573867D01*
X13114838Y19702274D01*
X13114701Y19702803D01*
X13114689Y19702834D01*
X13045504Y19822666D01*
X12947665Y19920505D01*
X12827834Y19989689D01*
X12827832Y19989690D01*
X12827831Y19989690D01*
X12694185Y20025500D01*
X12694184Y20025500D01*
X12555816Y20025500D01*
X12555815Y20025500D01*
X12422168Y19989690D01*
X12422166Y19989690D01*
X12422165Y19989689D01*
X12302333Y19920505D01*
X12204495Y19822667D01*
X12135311Y19702836D01*
X12135310Y19702832D01*
X12099500Y19569186D01*
X300500Y19569186D01*
X300500Y21169186D01*
X13269500Y21169186D01*
X13269500Y21030815D01*
X13305310Y20897169D01*
X13305312Y20897164D01*
X13374495Y20777335D01*
X13472335Y20679495D01*
X13592164Y20610312D01*
X13721133Y20575756D01*
X13724831Y20574500D01*
X13864185Y20574500D01*
X13874448Y20574500D01*
X13883336Y20579633D01*
X13997836Y20610312D01*
X14117665Y20679495D01*
X14215505Y20777335D01*
X14284688Y20897164D01*
X14320499Y21030815D01*
X14320500Y21030815D01*
X14320500Y21069186D01*
X18149499Y21069186D01*
X18149499Y20930815D01*
X18185309Y20797169D01*
X18185311Y20797164D01*
X18254494Y20677335D01*
X18352334Y20579495D01*
X18472163Y20510312D01*
X18601132Y20475756D01*
X18604830Y20474500D01*
X18744184Y20474500D01*
X18754447Y20474500D01*
X18763335Y20479633D01*
X18877835Y20510312D01*
X18997664Y20579495D01*
X19095504Y20677335D01*
X19164687Y20797164D01*
X19195366Y20911664D01*
X19200499Y20920553D01*
X19200499Y21070170D01*
X19199243Y21073867D01*
X19164837Y21202274D01*
X19164700Y21202803D01*
X19164688Y21202834D01*
X19106971Y21302803D01*
X19095504Y21322665D01*
X18997664Y21420505D01*
X18877835Y21489688D01*
X18877830Y21489690D01*
X18744184Y21525500D01*
X18744183Y21525500D01*
X18605815Y21525500D01*
X18605814Y21525500D01*
X18472167Y21489690D01*
X18472165Y21489690D01*
X18472164Y21489689D01*
X18352332Y21420505D01*
X18254494Y21322667D01*
X18185310Y21202836D01*
X18185309Y21202832D01*
X18149499Y21069186D01*
X14320500Y21069186D01*
X14320500Y21169185D01*
X14320500Y21170170D01*
X14319244Y21173867D01*
X14284838Y21302274D01*
X14284701Y21302803D01*
X14284689Y21302834D01*
X14273239Y21322666D01*
X14215505Y21422665D01*
X14117665Y21520505D01*
X13997836Y21589688D01*
X13997831Y21589690D01*
X13864185Y21625500D01*
X13864184Y21625500D01*
X13725816Y21625500D01*
X13725815Y21625500D01*
X13592168Y21589690D01*
X13592166Y21589690D01*
X13592165Y21589689D01*
X13472333Y21520505D01*
X13374495Y21422667D01*
X13305311Y21302836D01*
X13305310Y21302832D01*
X13269500Y21169186D01*
X300500Y21169186D01*
X300500Y22969186D01*
X14539500Y22969186D01*
X14539500Y22830815D01*
X14575310Y22697169D01*
X14575312Y22697164D01*
X14644495Y22577335D01*
X14742335Y22479495D01*
X14862164Y22410312D01*
X14991133Y22375756D01*
X14994831Y22374500D01*
X15134185Y22374500D01*
X15144448Y22374500D01*
X15153336Y22379633D01*
X15267836Y22410312D01*
X15387665Y22479495D01*
X15485505Y22577335D01*
X15554688Y22697164D01*
X15585367Y22811664D01*
X15590500Y22820553D01*
X15590500Y22970170D01*
X15589244Y22973867D01*
X15554838Y23102274D01*
X15554701Y23102803D01*
X15554689Y23102834D01*
X15537877Y23131953D01*
X15485505Y23222665D01*
X15387665Y23320505D01*
X15267836Y23389688D01*
X15267831Y23389690D01*
X15134185Y23425500D01*
X15134184Y23425500D01*
X14995816Y23425500D01*
X14995815Y23425500D01*
X14862168Y23389690D01*
X14862166Y23389690D01*
X14862165Y23389689D01*
X14742333Y23320505D01*
X14644495Y23222667D01*
X14575311Y23102836D01*
X14575310Y23102832D01*
X14539500Y22969186D01*
X300500Y22969186D01*
X300500Y37111283D01*
X7294500Y37111283D01*
X7294500Y33178958D01*
X7294939Y33165510D01*
X7295568Y33155895D01*
X7296890Y33142468D01*
X7298142Y33132952D01*
X7300341Y33119628D01*
X7302223Y33110166D01*
X7305271Y33097096D01*
X7317479Y33051536D01*
X7320000Y33032384D01*
X7320000Y32967619D01*
X7317479Y32948467D01*
X7310385Y32921991D01*
X7310385Y32921989D01*
X7305276Y32902922D01*
X7302223Y32889829D01*
X7300338Y32880350D01*
X7298148Y32867091D01*
X7296891Y32857546D01*
X7295572Y32844140D01*
X7294939Y32834492D01*
X7294500Y32821069D01*
X7294500Y28178958D01*
X7294939Y28165510D01*
X7295568Y28155895D01*
X7296890Y28142468D01*
X7298141Y28132957D01*
X7298145Y28132933D01*
X7300337Y28119654D01*
X7300341Y28119635D01*
X7302223Y28110167D01*
X7305270Y28097101D01*
X7317479Y28051538D01*
X7320000Y28032386D01*
X7320000Y27967619D01*
X7317479Y27948467D01*
X7310385Y27921991D01*
X7310385Y27921989D01*
X7305276Y27902922D01*
X7302223Y27889829D01*
X7300338Y27880350D01*
X7298148Y27867091D01*
X7296891Y27857546D01*
X7295572Y27844140D01*
X7294939Y27834492D01*
X7294500Y27821069D01*
X7294500Y25088719D01*
X7298444Y25048656D01*
X7298449Y25048628D01*
X7304073Y25020340D01*
X7304075Y25020330D01*
X7315766Y24981784D01*
X7315774Y24981762D01*
X7320086Y24971349D01*
X7320089Y24971345D01*
X7364642Y24904671D01*
X7364650Y24904661D01*
X7404658Y24864659D01*
X7404694Y24864623D01*
X7471362Y24820082D01*
X7481771Y24815771D01*
X7520314Y24804080D01*
X7548629Y24798448D01*
X7582203Y24795142D01*
X7588718Y24794500D01*
X7588719Y24794500D01*
X28213413Y24794500D01*
X28265739Y24772826D01*
X28916417Y24122148D01*
X28932457Y24098143D01*
X28942866Y24073016D01*
X28948500Y24044695D01*
X28948500Y23770939D01*
X28989421Y23618219D01*
X29068480Y23481284D01*
X29180284Y23369480D01*
X29317216Y23290423D01*
X29465264Y23250754D01*
X29468957Y23249500D01*
X29628059Y23249500D01*
X29638322Y23249500D01*
X29647210Y23254633D01*
X29780784Y23290423D01*
X29917716Y23369480D01*
X30029520Y23481284D01*
X30108577Y23618216D01*
X30144367Y23751790D01*
X30149500Y23760679D01*
X30149500Y24417855D01*
X30149500Y24417857D01*
X30146002Y24430914D01*
X30108577Y24570585D01*
X30074389Y24629800D01*
X30029520Y24707516D01*
X29917716Y24819320D01*
X29915137Y24821899D01*
X29915126Y24821909D01*
X28627174Y26109861D01*
X28605500Y26162187D01*
X28605500Y30426000D01*
X29294500Y30426000D01*
X29294500Y28074000D01*
X29298968Y28051538D01*
X29310141Y27995365D01*
X29310144Y27995355D01*
X29331814Y27943038D01*
X29331816Y27943034D01*
X29331817Y27943033D01*
X29368445Y27884739D01*
X29374627Y27880353D01*
X29443033Y27831817D01*
X29469012Y27821056D01*
X29495359Y27810143D01*
X29574000Y27794500D01*
X29895737Y27794500D01*
X29944202Y27776421D01*
X32699210Y25388748D01*
X36597519Y22010214D01*
X36622933Y21988189D01*
X36661182Y21961964D01*
X36690494Y21946407D01*
X36722598Y21932723D01*
X36813654Y21924184D01*
X36869806Y21931576D01*
X36935593Y21951868D01*
X37006018Y22010216D01*
X37040497Y22055149D01*
X37075962Y22127063D01*
X37099285Y22214109D01*
X37106706Y22232003D01*
X37107311Y22233049D01*
X37128641Y22269994D01*
X37140531Y22294106D01*
X37147923Y22311953D01*
X37153268Y22326358D01*
X37161806Y22417415D01*
X37154413Y22473567D01*
X37134120Y22539352D01*
X37110822Y22567472D01*
X37110821Y22567474D01*
X37075770Y22609778D01*
X37030839Y22644254D01*
X37030838Y22644255D01*
X37006427Y22656293D01*
X36958927Y22679718D01*
X36958918Y22679721D01*
X36885893Y22699288D01*
X36868047Y22706680D01*
X36811951Y22739066D01*
X36796624Y22750826D01*
X36750824Y22796626D01*
X36739064Y22811952D01*
X36728637Y22830012D01*
X36706675Y22868052D01*
X36699284Y22885896D01*
X36682521Y22948463D01*
X36680000Y22967614D01*
X36680000Y23032389D01*
X36682521Y23051540D01*
X36696101Y23102226D01*
X36699286Y23114112D01*
X36706673Y23131949D01*
X36739067Y23188056D01*
X36750820Y23203373D01*
X36796627Y23249180D01*
X36811944Y23260933D01*
X36868052Y23293327D01*
X36885889Y23300714D01*
X36932088Y23313093D01*
X36948461Y23317479D01*
X36967612Y23320000D01*
X37032387Y23320000D01*
X37051538Y23317479D01*
X37074125Y23311428D01*
X37114107Y23300715D01*
X37131948Y23293325D01*
X37188049Y23260935D01*
X37203374Y23249176D01*
X37249174Y23203376D01*
X37260934Y23188049D01*
X37293320Y23131953D01*
X37300712Y23114108D01*
X37317478Y23051541D01*
X37320000Y23032387D01*
X37320000Y22967614D01*
X37317478Y22948461D01*
X37300713Y22885896D01*
X37293321Y22868050D01*
X37271360Y22830012D01*
X37259469Y22805898D01*
X37259466Y22805891D01*
X37252073Y22788040D01*
X37246734Y22773650D01*
X37246734Y22773649D01*
X37244594Y22750826D01*
X37238194Y22682591D01*
X37245586Y22626438D01*
X37265879Y22560649D01*
X37324228Y22490224D01*
X37369161Y22455746D01*
X37441074Y22420283D01*
X37514107Y22400715D01*
X37531951Y22393324D01*
X37588049Y22360935D01*
X37603374Y22349176D01*
X37649174Y22303376D01*
X37660934Y22288049D01*
X37693320Y22231953D01*
X37700712Y22214108D01*
X37717478Y22151541D01*
X37720000Y22132387D01*
X37720000Y22067618D01*
X37717478Y22048464D01*
X37700711Y21985892D01*
X37693319Y21968047D01*
X37660934Y21911953D01*
X37649174Y21896626D01*
X37603374Y21850826D01*
X37588047Y21839066D01*
X37531953Y21806681D01*
X37514118Y21799292D01*
X37508555Y21797801D01*
X37508549Y21797799D01*
X37452701Y21773490D01*
X37452698Y21773488D01*
X37415933Y21750475D01*
X37415928Y21750472D01*
X37415928Y21750471D01*
X37377463Y21719369D01*
X37329989Y21641201D01*
X37312099Y21587467D01*
X37312097Y21587460D01*
X37301599Y21519429D01*
X37301600Y21519425D01*
X37323302Y21430585D01*
X37323302Y21430584D01*
X37323303Y21430583D01*
X37348649Y21379935D01*
X37397834Y21316607D01*
X43768965Y15794961D01*
X43794312Y15744313D01*
X43794500Y15739041D01*
X43794500Y13599500D01*
X43799209Y13575827D01*
X43810141Y13520865D01*
X43810144Y13520855D01*
X43831814Y13468538D01*
X43831816Y13468534D01*
X43831817Y13468533D01*
X43868444Y13410240D01*
X43943032Y13357317D01*
X43943038Y13357315D01*
X43943041Y13357313D01*
X43992723Y13336734D01*
X43998464Y13331700D01*
X44015998Y13327003D01*
X44015998Y13327002D01*
X44114106Y13300715D01*
X44131951Y13293324D01*
X44188049Y13260935D01*
X44203374Y13249176D01*
X44249174Y13203376D01*
X44260934Y13188049D01*
X44293320Y13131953D01*
X44300712Y13114108D01*
X44317478Y13051541D01*
X44320000Y13032387D01*
X44320000Y12967618D01*
X44317478Y12948464D01*
X44300711Y12885892D01*
X44293319Y12868047D01*
X44260934Y12811953D01*
X44249174Y12796626D01*
X44203374Y12750826D01*
X44188047Y12739066D01*
X44131951Y12706680D01*
X44114105Y12699288D01*
X43994528Y12667247D01*
X43992917Y12666544D01*
X43985420Y12661637D01*
X43973223Y12655192D01*
X43943031Y12642684D01*
X43943029Y12642684D01*
X43884741Y12606057D01*
X43884740Y12606056D01*
X43884739Y12606055D01*
X43873177Y12589759D01*
X43831815Y12531465D01*
X43810144Y12479146D01*
X43810141Y12479136D01*
X43797083Y12413488D01*
X43794500Y12400500D01*
X43794500Y7874000D01*
X43796454Y7864177D01*
X43810141Y7795365D01*
X43810144Y7795355D01*
X43831814Y7743038D01*
X43831816Y7743034D01*
X43831817Y7743033D01*
X43868445Y7684739D01*
X43891410Y7668445D01*
X43943033Y7631817D01*
X43955951Y7626466D01*
X43995359Y7610143D01*
X44074000Y7594500D01*
X51154418Y7594500D01*
X51154419Y7594500D01*
X51207606Y7601502D01*
X51207610Y7601504D01*
X51207615Y7601504D01*
X51222548Y7605506D01*
X51244606Y7611416D01*
X51284029Y7626465D01*
X51354454Y7684814D01*
X51388932Y7729747D01*
X51424395Y7801661D01*
X51438624Y7854770D01*
X51446016Y7872614D01*
X51453812Y7886117D01*
X51478404Y7928713D01*
X51490159Y7944034D01*
X51535966Y7989841D01*
X51551283Y8001594D01*
X51607391Y8033988D01*
X51625228Y8041375D01*
X51671427Y8053754D01*
X51687800Y8058140D01*
X51706951Y8060661D01*
X51771726Y8060661D01*
X51790877Y8058140D01*
X51813464Y8052089D01*
X51853446Y8041376D01*
X51871287Y8033986D01*
X51927388Y8001596D01*
X51942713Y7989837D01*
X51990329Y7942221D01*
X51993783Y7938150D01*
X51993931Y7938279D01*
X52039682Y7886107D01*
X52049187Y7875269D01*
X52094117Y7840790D01*
X52154985Y7808618D01*
X52246041Y7800076D01*
X52246042Y7800077D01*
X52246044Y7800076D01*
X52302187Y7807466D01*
X52302189Y7807467D01*
X52302194Y7807467D01*
X52367980Y7827757D01*
X52438407Y7886104D01*
X52470928Y7928483D01*
X52470927Y7928484D01*
X52472228Y7930179D01*
X52472229Y7930178D01*
X52472768Y7930879D01*
X52472770Y7930885D01*
X52474826Y7933557D01*
X52474880Y7933635D01*
X52476851Y7936203D01*
X52478035Y7936995D01*
X52481923Y7942812D01*
X52483292Y7944597D01*
X52483855Y7947425D01*
X52488279Y7955089D01*
X52488280Y7955088D01*
X52539066Y8043055D01*
X52550819Y8058373D01*
X52596627Y8104181D01*
X52611944Y8115934D01*
X52668052Y8148328D01*
X52685889Y8155715D01*
X52732088Y8168094D01*
X52748461Y8172480D01*
X52767612Y8175001D01*
X52832387Y8175001D01*
X52851538Y8172480D01*
X52874125Y8166429D01*
X52914107Y8155716D01*
X52931948Y8148326D01*
X52988049Y8115936D01*
X53003374Y8104177D01*
X53049174Y8058377D01*
X53060934Y8043051D01*
X53093320Y7986956D01*
X53100712Y7969111D01*
X53102426Y7962715D01*
X53102429Y7962698D01*
X53111537Y7928711D01*
X53117477Y7906541D01*
X53117478Y7906540D01*
X53120000Y7887386D01*
X53120000Y7874000D01*
X53121954Y7864177D01*
X53135641Y7795365D01*
X53135644Y7795355D01*
X53157314Y7743038D01*
X53157316Y7743034D01*
X53157317Y7743033D01*
X53193945Y7684739D01*
X53216910Y7668445D01*
X53268533Y7631817D01*
X53281451Y7626466D01*
X53320859Y7610143D01*
X53399500Y7594500D01*
X53399502Y7594500D01*
X57333600Y7594500D01*
X57385926Y7572826D01*
X57407600Y7520500D01*
X57407600Y5813641D01*
X57401966Y5785320D01*
X57391558Y5760195D01*
X57375519Y5736192D01*
X57361996Y5722670D01*
X57361994Y5722667D01*
X57292811Y5602836D01*
X57292810Y5602832D01*
X57265391Y5500500D01*
X57257000Y5469185D01*
X57257000Y5330814D01*
X57268499Y5287896D01*
X57270388Y5259091D01*
X57269349Y5251195D01*
X57241033Y5202144D01*
X57186327Y5187481D01*
X57186323Y5187482D01*
X57184629Y5187705D01*
X57141961Y5208746D01*
X57039046Y5311661D01*
X56934511Y5416196D01*
X56934508Y5416198D01*
X56934507Y5416199D01*
X56865988Y5455759D01*
X56865984Y5455760D01*
X56789566Y5476236D01*
X56789564Y5476236D01*
X56789562Y5476236D01*
X55910438Y5476236D01*
X55910436Y5476236D01*
X55910434Y5476236D01*
X55834018Y5455761D01*
X55834009Y5455758D01*
X55765491Y5416199D01*
X55409537Y5060245D01*
X55369977Y4991726D01*
X55369977Y4991725D01*
X55369976Y4991722D01*
X55369976Y4991721D01*
X55349500Y4915304D01*
X55349500Y4688041D01*
X55343867Y4659725D01*
X55333460Y4634598D01*
X55333459Y4634595D01*
X55317418Y4610589D01*
X55229494Y4522665D01*
X55160311Y4402836D01*
X55160310Y4402832D01*
X55124500Y4269186D01*
X55124500Y4130815D01*
X55127250Y4120553D01*
X55154932Y4017238D01*
X55156820Y3988430D01*
X55155350Y3977261D01*
X55127034Y3928211D01*
X55127011Y3928193D01*
X55126325Y3927667D01*
X55081297Y3912391D01*
X55077854Y3912391D01*
X55058704Y3914912D01*
X55019184Y3925500D01*
X55019183Y3925500D01*
X54880817Y3925500D01*
X54880815Y3925500D01*
X54747168Y3889690D01*
X54747166Y3889690D01*
X54747165Y3889689D01*
X54627333Y3820505D01*
X54529495Y3722667D01*
X54460311Y3602836D01*
X54460310Y3602832D01*
X54424500Y3469186D01*
X54424500Y3330815D01*
X54460310Y3197169D01*
X54460312Y3197164D01*
X54529495Y3077335D01*
X54627335Y2979495D01*
X54747164Y2910312D01*
X54876133Y2875756D01*
X54879831Y2874500D01*
X55019185Y2874500D01*
X55029448Y2874500D01*
X55038336Y2879633D01*
X55152836Y2910312D01*
X55272665Y2979495D01*
X55360591Y3067422D01*
X55384594Y3083459D01*
X55409725Y3093869D01*
X55438041Y3099500D01*
X55861959Y3099500D01*
X55890273Y3093869D01*
X55915405Y3083459D01*
X55939411Y3067419D01*
X56027335Y2979495D01*
X56147164Y2910312D01*
X56276133Y2875756D01*
X56279831Y2874500D01*
X56419185Y2874500D01*
X56429448Y2874500D01*
X56438336Y2879633D01*
X56552836Y2910312D01*
X56672665Y2979495D01*
X56770505Y3077335D01*
X56839688Y3197164D01*
X56870367Y3311664D01*
X56875500Y3320553D01*
X56875500Y3471418D01*
X56874243Y3473873D01*
X56868072Y3496902D01*
X56845066Y3582764D01*
X56843178Y3611572D01*
X56844648Y3622741D01*
X56872962Y3671789D01*
X56873727Y3672376D01*
X56918701Y3687610D01*
X56922145Y3687610D01*
X56941297Y3685089D01*
X56964926Y3678758D01*
X56964925Y3678758D01*
X56970218Y3677340D01*
X56976124Y3675758D01*
X56979830Y3674500D01*
X57119185Y3674500D01*
X57129448Y3674500D01*
X57138336Y3679633D01*
X57252836Y3710312D01*
X57372665Y3779495D01*
X57470505Y3877335D01*
X57539688Y3997164D01*
X57570367Y4111664D01*
X57575500Y4120553D01*
X57575500Y4270170D01*
X57574244Y4273867D01*
X57539838Y4402274D01*
X57539701Y4402803D01*
X57539689Y4402834D01*
X57470504Y4522666D01*
X57382581Y4610589D01*
X57366541Y4634595D01*
X57356131Y4659727D01*
X57350500Y4688041D01*
X57350500Y4899730D01*
X57356129Y4928039D01*
X57360443Y4938454D01*
X57400482Y4978500D01*
X57401352Y4978861D01*
X57448764Y4981947D01*
X57452090Y4981056D01*
X57469935Y4973665D01*
X57579664Y4910312D01*
X57708633Y4875756D01*
X57712331Y4874500D01*
X57851685Y4874500D01*
X57861948Y4874500D01*
X57870836Y4879633D01*
X57985336Y4910312D01*
X58105165Y4979495D01*
X58203005Y5077335D01*
X58272188Y5197164D01*
X58302867Y5311664D01*
X58308000Y5320553D01*
X58308000Y5371166D01*
X58313631Y5399480D01*
X58316681Y5406844D01*
X58356728Y5446891D01*
X58413358Y5446895D01*
X58414936Y5446242D01*
X58450711Y5414872D01*
X58509505Y5313036D01*
X58598036Y5224505D01*
X58663640Y5186629D01*
X58676438Y5169950D01*
X58771327Y5144524D01*
X58771333Y5144523D01*
X58771341Y5144521D01*
X58822719Y5130755D01*
X58826414Y5129500D01*
X58952603Y5129500D01*
X58962865Y5129500D01*
X58971753Y5134633D01*
X59073536Y5161905D01*
X59181964Y5224505D01*
X59270495Y5313036D01*
X59333095Y5421464D01*
X59360367Y5523247D01*
X59365500Y5532136D01*
X59365500Y5668587D01*
X59364245Y5672281D01*
X59333095Y5788536D01*
X59313301Y5822820D01*
X59270495Y5896964D01*
X59181963Y5985496D01*
X59116357Y6023373D01*
X59103559Y6040052D01*
X58952605Y6080500D01*
X58952603Y6080500D01*
X58952601Y6080500D01*
X58827399Y6080500D01*
X58827397Y6080500D01*
X58827395Y6080500D01*
X58706468Y6048098D01*
X58706459Y6048094D01*
X58598036Y5985497D01*
X58509503Y5896964D01*
X58446903Y5788536D01*
X58414500Y5667607D01*
X58414500Y5646006D01*
X58408864Y5617681D01*
X58405815Y5610322D01*
X58365763Y5570277D01*
X58309166Y5570266D01*
X58308945Y5570358D01*
X58275707Y5597618D01*
X58274912Y5598808D01*
X58273331Y5601173D01*
X58270769Y5605293D01*
X58255761Y5631288D01*
X58255760Y5631289D01*
X58203005Y5722665D01*
X58105164Y5820506D01*
X58105162Y5820507D01*
X58105158Y5820510D01*
X58105153Y5820513D01*
X58104725Y5820796D01*
X58104324Y5821170D01*
X58103515Y5821742D01*
X58103383Y5821841D01*
X58103440Y5821919D01*
X58102341Y5822820D01*
X58102432Y5822932D01*
X58086797Y5837499D01*
X58073888Y5854325D01*
X58058600Y5899369D01*
X58058600Y7520500D01*
X58080274Y7572826D01*
X58132600Y7594500D01*
X58600498Y7594500D01*
X58600500Y7594500D01*
X58679141Y7610143D01*
X58731467Y7631817D01*
X58789761Y7668445D01*
X58842683Y7743033D01*
X58864357Y7795359D01*
X58880000Y7874000D01*
X58880000Y7887390D01*
X58882521Y7906541D01*
X58890680Y7936995D01*
X58899286Y7969113D01*
X58906673Y7986950D01*
X58939067Y8043057D01*
X58950820Y8058374D01*
X58996627Y8104181D01*
X59011944Y8115934D01*
X59068052Y8148328D01*
X59085889Y8155715D01*
X59132088Y8168094D01*
X59148461Y8172480D01*
X59167612Y8175001D01*
X59232387Y8175001D01*
X59251538Y8172480D01*
X59274125Y8166429D01*
X59314107Y8155716D01*
X59331948Y8148326D01*
X59388049Y8115936D01*
X59403374Y8104177D01*
X59449174Y8058377D01*
X59460934Y8043051D01*
X59485589Y8000348D01*
X59510025Y7958022D01*
X59516142Y7947428D01*
X59516703Y7944606D01*
X59518063Y7942834D01*
X59522392Y7936353D01*
X59527743Y7929659D01*
X59530199Y7927017D01*
X59551307Y7899509D01*
X59561583Y7886115D01*
X59612045Y7839291D01*
X59612046Y7839291D01*
X59612047Y7839290D01*
X59697790Y7807473D01*
X59753942Y7800079D01*
X59753949Y7800080D01*
X59753952Y7800079D01*
X59811274Y7802224D01*
X59822741Y7802652D01*
X59905868Y7840784D01*
X59950802Y7875262D01*
X60003673Y7935550D01*
X60003673Y7935551D01*
X60006075Y7938289D01*
X60006226Y7938157D01*
X60009669Y7942221D01*
X60058594Y7991147D01*
X60069808Y8000348D01*
X60071678Y8001597D01*
X60088100Y8012569D01*
X60103425Y8024328D01*
X60115261Y8034135D01*
X60168183Y8108723D01*
X60189857Y8161049D01*
X60205500Y8239690D01*
X60205500Y12400500D01*
X60189857Y12479141D01*
X60168183Y12531467D01*
X60131557Y12589758D01*
X60108586Y12606057D01*
X60056971Y12642681D01*
X60056970Y12642682D01*
X60013849Y12660544D01*
X60013848Y12660544D01*
X60007281Y12663264D01*
X60001540Y12668300D01*
X59885893Y12699288D01*
X59868047Y12706680D01*
X59811951Y12739066D01*
X59796624Y12750826D01*
X59750824Y12796626D01*
X59739064Y12811952D01*
X59706675Y12868052D01*
X59699284Y12885896D01*
X59682521Y12948463D01*
X59680000Y12967614D01*
X59680000Y13032389D01*
X59682521Y13051540D01*
X59690822Y13082522D01*
X59699286Y13114112D01*
X59706673Y13131949D01*
X59739067Y13188056D01*
X59750820Y13203373D01*
X59796627Y13249180D01*
X59811944Y13260933D01*
X59868049Y13293325D01*
X59885888Y13300714D01*
X59984001Y13327002D01*
X59984000Y13327003D01*
X60005491Y13332761D01*
X60007125Y13333475D01*
X60007132Y13333476D01*
X60014606Y13338372D01*
X60026831Y13344835D01*
X60056966Y13357316D01*
X60115261Y13393945D01*
X60168183Y13468533D01*
X60189857Y13520859D01*
X60205500Y13599500D01*
X60205500Y17400500D01*
X60189857Y17479141D01*
X60168183Y17531467D01*
X60131557Y17589758D01*
X60056970Y17642682D01*
X60013849Y17660544D01*
X60013848Y17660544D01*
X60007281Y17663264D01*
X60001540Y17668300D01*
X59885893Y17699288D01*
X59868047Y17706680D01*
X59811951Y17739066D01*
X59796624Y17750826D01*
X59750824Y17796626D01*
X59739064Y17811952D01*
X59739063Y17811953D01*
X59706676Y17868049D01*
X59699284Y17885896D01*
X59696928Y17894689D01*
X59672998Y17984002D01*
X59672996Y17984002D01*
X59667246Y18005465D01*
X59666545Y18007074D01*
X59661635Y18014577D01*
X59655188Y18026779D01*
X59642683Y18056967D01*
X59642682Y18056969D01*
X59606056Y18115259D01*
X59606055Y18115261D01*
X59531467Y18168183D01*
X59531466Y18168184D01*
X59531464Y18168185D01*
X59479145Y18189856D01*
X59479135Y18189859D01*
X59426474Y18200334D01*
X59400500Y18205500D01*
X59400498Y18205500D01*
X49599502Y18205500D01*
X49599500Y18205500D01*
X49577207Y18201066D01*
X49520864Y18189859D01*
X49520854Y18189856D01*
X49468539Y18168186D01*
X49468527Y18168180D01*
X49410242Y18131559D01*
X49357322Y18056979D01*
X49357313Y18056962D01*
X49336732Y18007278D01*
X49331701Y18001541D01*
X49300712Y17885894D01*
X49293320Y17868049D01*
X49260934Y17811953D01*
X49249174Y17796626D01*
X49203374Y17750826D01*
X49188047Y17739066D01*
X49131950Y17706679D01*
X49114105Y17699287D01*
X49066878Y17686633D01*
X49051539Y17682522D01*
X49032387Y17680000D01*
X48967614Y17680000D01*
X48948461Y17682522D01*
X48926095Y17688515D01*
X48885892Y17699288D01*
X48868047Y17706680D01*
X48811951Y17739066D01*
X48796624Y17750826D01*
X48750824Y17796626D01*
X48739064Y17811952D01*
X48739063Y17811953D01*
X48706676Y17868049D01*
X48699284Y17885896D01*
X48696928Y17894689D01*
X48672998Y17984002D01*
X48672996Y17984002D01*
X48667246Y18005465D01*
X48666545Y18007074D01*
X48661635Y18014577D01*
X48655188Y18026779D01*
X48642683Y18056967D01*
X48642682Y18056969D01*
X48606056Y18115259D01*
X48606055Y18115261D01*
X48531467Y18168183D01*
X48531466Y18168184D01*
X48531464Y18168185D01*
X48479145Y18189856D01*
X48479135Y18189859D01*
X48426474Y18200334D01*
X48400500Y18205500D01*
X48400498Y18205500D01*
X47574501Y18205500D01*
X47574500Y18205500D01*
X47571794Y18204962D01*
X47564820Y18203575D01*
X47509272Y18214628D01*
X47477809Y18261722D01*
X47477299Y18264578D01*
X47464919Y18342743D01*
X47463553Y18351368D01*
X47463552Y18351370D01*
X47463528Y18351523D01*
X47463414Y18351961D01*
X47463363Y18352133D01*
X47462795Y18353702D01*
X47434082Y18442070D01*
X47391465Y18573233D01*
X47390833Y18575472D01*
X47390223Y18576701D01*
X47389159Y18578898D01*
X47388610Y18579837D01*
X47283348Y18786424D01*
X47283343Y18786433D01*
X47144520Y18977506D01*
X47144519Y18977507D01*
X47144517Y18977510D01*
X46977510Y19144517D01*
X46977507Y19144520D01*
X46977504Y19144523D01*
X46977476Y19144543D01*
X46977251Y19144706D01*
X46786432Y19283345D01*
X46575980Y19390574D01*
X46351394Y19463547D01*
X46351370Y19463553D01*
X46351367Y19463554D01*
X46351365Y19463554D01*
X46218910Y19484533D01*
X46118094Y19500500D01*
X46118093Y19500500D01*
X46118092Y19500500D01*
X45881908Y19500500D01*
X45881907Y19500500D01*
X45881906Y19500500D01*
X45648628Y19463553D01*
X45648604Y19463547D01*
X45424018Y19390574D01*
X45213566Y19283345D01*
X45022498Y19144525D01*
X44855475Y18977502D01*
X44716655Y18786434D01*
X44609426Y18575982D01*
X44536453Y18351396D01*
X44536448Y18351373D01*
X44536446Y18351366D01*
X44528796Y18303065D01*
X44499500Y18118094D01*
X44499500Y17965165D01*
X44477826Y17912839D01*
X44437896Y17892211D01*
X44389277Y17883950D01*
X44389264Y17883947D01*
X44336948Y17862277D01*
X44270274Y17817727D01*
X44270272Y17817725D01*
X44203370Y17750824D01*
X44188045Y17739065D01*
X44131951Y17706679D01*
X44114105Y17699287D01*
X44066878Y17686633D01*
X44051539Y17682522D01*
X44032387Y17680000D01*
X44000000Y17680000D01*
X43967614Y17680000D01*
X43948461Y17682522D01*
X43926095Y17688515D01*
X43885892Y17699288D01*
X43868047Y17706680D01*
X43811951Y17739066D01*
X43796624Y17750826D01*
X43750824Y17796626D01*
X43739064Y17811952D01*
X43706675Y17868052D01*
X43699284Y17885896D01*
X43695701Y17899268D01*
X43691520Y17914875D01*
X43682521Y17948463D01*
X43680000Y17967614D01*
X43680000Y18032389D01*
X43682521Y18051540D01*
X43686907Y18067913D01*
X43699286Y18114112D01*
X43706673Y18131949D01*
X43739067Y18188056D01*
X43750820Y18203373D01*
X43796627Y18249180D01*
X43811948Y18260935D01*
X43834223Y18273796D01*
X43868047Y18293323D01*
X43885893Y18300715D01*
X43894654Y18303062D01*
X43894659Y18303065D01*
X43894662Y18303065D01*
X43909582Y18309246D01*
X43944216Y18323591D01*
X43977388Y18342743D01*
X44011572Y18367482D01*
X44064494Y18442070D01*
X44086168Y18494396D01*
X44101488Y18561514D01*
X44086168Y18651678D01*
X44064494Y18704004D01*
X44019947Y18770673D01*
X36063157Y26727463D01*
X43662399Y26727463D01*
X43662399Y26561965D01*
X43662400Y26561939D01*
X43662400Y24025239D01*
X43703321Y23872519D01*
X43773025Y23751787D01*
X43782380Y23735584D01*
X43894184Y23623780D01*
X44031116Y23544723D01*
X44179164Y23505054D01*
X44182857Y23503800D01*
X44341959Y23503800D01*
X44352222Y23503800D01*
X44361110Y23508933D01*
X44494684Y23544723D01*
X44631616Y23623780D01*
X44743420Y23735584D01*
X44822477Y23872516D01*
X44858267Y24006090D01*
X44863400Y24014979D01*
X44863400Y26354295D01*
X44869031Y26382609D01*
X44879442Y26407744D01*
X44895478Y26431744D01*
X50595897Y32132162D01*
X58686620Y40222884D01*
X58765677Y40359816D01*
X58801468Y40493391D01*
X58806601Y40502280D01*
X58806601Y40676177D01*
X58806600Y40676251D01*
X58806600Y44244186D01*
X59549500Y44244186D01*
X59549500Y44105815D01*
X59585310Y43972169D01*
X59585312Y43972164D01*
X59654495Y43852335D01*
X59752335Y43754495D01*
X59872164Y43685312D01*
X60001133Y43650756D01*
X60004831Y43649500D01*
X60144185Y43649500D01*
X60154448Y43649500D01*
X60163336Y43654633D01*
X60277836Y43685312D01*
X60397665Y43754495D01*
X60495505Y43852335D01*
X60564688Y43972164D01*
X60595367Y44086664D01*
X60600500Y44095553D01*
X60600500Y44245168D01*
X60599247Y44248859D01*
X60586302Y44297169D01*
X60564688Y44377836D01*
X60495505Y44497665D01*
X60397665Y44595505D01*
X60277836Y44664688D01*
X60277831Y44664690D01*
X60144185Y44700500D01*
X60144184Y44700500D01*
X60005816Y44700500D01*
X60005815Y44700500D01*
X59872168Y44664690D01*
X59872166Y44664690D01*
X59872165Y44664689D01*
X59752333Y44595505D01*
X59654495Y44497667D01*
X59585311Y44377836D01*
X59585310Y44377832D01*
X59549500Y44244186D01*
X58806600Y44244186D01*
X58806600Y46764745D01*
X58805343Y46768446D01*
X58800526Y46786424D01*
X58765818Y46915957D01*
X58765690Y46916452D01*
X58765678Y46916482D01*
X58765676Y46916486D01*
X58686620Y47053416D01*
X58574816Y47165220D01*
X58437881Y47244279D01*
X58285161Y47285200D01*
X58285159Y47285200D01*
X58285157Y47285200D01*
X58127043Y47285200D01*
X58127041Y47285200D01*
X58127039Y47285200D01*
X57974326Y47244281D01*
X57974321Y47244280D01*
X57974320Y47244279D01*
X57974318Y47244279D01*
X57974315Y47244277D01*
X57974310Y47244275D01*
X57837382Y47165220D01*
X57725580Y47053418D01*
X57646525Y46916490D01*
X57646520Y46916479D01*
X57605600Y46763763D01*
X57605600Y40885707D01*
X57599967Y40857391D01*
X57589559Y40832261D01*
X57573518Y40808255D01*
X43782379Y27017117D01*
X43737981Y26940214D01*
X43737980Y26940212D01*
X43714304Y26899208D01*
X43703321Y26880184D01*
X43703320Y26880182D01*
X43703320Y26880181D01*
X43662399Y26727463D01*
X36063157Y26727463D01*
X34525549Y28265071D01*
X34525546Y28265073D01*
X34503873Y28317398D01*
X34525546Y28369723D01*
X42014659Y35858834D01*
X42014662Y35858835D01*
X42075265Y35919438D01*
X42118118Y35993662D01*
X42129278Y36035312D01*
X42140301Y36076448D01*
X42140301Y36162153D01*
X42140301Y36166682D01*
X42140301Y36167672D01*
X42140300Y36167746D01*
X42140300Y44930760D01*
X42145931Y44959074D01*
X42156342Y44984209D01*
X42172383Y45008213D01*
X42189670Y45025500D01*
X42235305Y45071135D01*
X42304488Y45190964D01*
X42335167Y45305464D01*
X42340300Y45314353D01*
X42340300Y45463970D01*
X42339044Y45467667D01*
X42304638Y45596074D01*
X42304501Y45596603D01*
X42304489Y45596634D01*
X42304487Y45596637D01*
X42235305Y45716465D01*
X42137465Y45814305D01*
X42017636Y45883488D01*
X42017631Y45883490D01*
X41883985Y45919300D01*
X41883984Y45919300D01*
X41745616Y45919300D01*
X41745615Y45919300D01*
X41611968Y45883490D01*
X41611963Y45883488D01*
X41586642Y45868870D01*
X41492133Y45814305D01*
X41394295Y45716467D01*
X41325111Y45596636D01*
X41325110Y45596632D01*
X41289300Y45462986D01*
X41289300Y45324615D01*
X41319055Y45213568D01*
X41325111Y45190966D01*
X41394295Y45071135D01*
X41457218Y45008212D01*
X41473257Y44984209D01*
X41483668Y44959075D01*
X41489300Y44930760D01*
X41489300Y36299498D01*
X41483667Y36271182D01*
X41473259Y36246052D01*
X41457218Y36222046D01*
X34065221Y28830050D01*
X34012895Y28808376D01*
X33960570Y28830050D01*
X33287071Y29503549D01*
X33241115Y29534256D01*
X33209650Y29581347D01*
X33210749Y29614935D01*
X33229567Y29685163D01*
X33234700Y29694052D01*
X33234700Y29793303D01*
X33240331Y29821617D01*
X33250742Y29846752D01*
X33266778Y29870752D01*
X35528189Y32132162D01*
X37946065Y34550038D01*
X37988917Y34624261D01*
X37988918Y34624262D01*
X38005967Y34687894D01*
X38011100Y34696783D01*
X38011100Y39386960D01*
X38016731Y39415274D01*
X38027142Y39440409D01*
X38043178Y39464409D01*
X38106105Y39527335D01*
X38175288Y39647164D01*
X38205967Y39761664D01*
X38211100Y39770553D01*
X38211100Y39920170D01*
X38209844Y39923867D01*
X38175438Y40052274D01*
X38175301Y40052803D01*
X38175289Y40052834D01*
X38106104Y40172666D01*
X38008265Y40270505D01*
X37962090Y40297164D01*
X37888436Y40339688D01*
X37888431Y40339690D01*
X37754785Y40375500D01*
X37754784Y40375500D01*
X37616416Y40375500D01*
X37616415Y40375500D01*
X37482768Y40339690D01*
X37482766Y40339690D01*
X37482765Y40339689D01*
X37362933Y40270505D01*
X37265095Y40172667D01*
X37195911Y40052836D01*
X37195910Y40052832D01*
X37160100Y39919186D01*
X37160100Y39780815D01*
X37195910Y39647169D01*
X37195911Y39647166D01*
X37265095Y39527335D01*
X37328018Y39464412D01*
X37344057Y39440409D01*
X37354468Y39415275D01*
X37360100Y39386960D01*
X37360100Y34930098D01*
X37354467Y34901782D01*
X37344059Y34876652D01*
X37328018Y34852646D01*
X32806454Y30331082D01*
X32782448Y30315042D01*
X32757318Y30304633D01*
X32729002Y30299000D01*
X32640015Y30299000D01*
X32550635Y30275051D01*
X32494483Y30282444D01*
X32469954Y30305418D01*
X32439251Y30351368D01*
X32439249Y30351371D01*
X32166984Y30623636D01*
X32155135Y30631553D01*
X32100312Y30668185D01*
X32047993Y30689856D01*
X32047983Y30689859D01*
X31995322Y30700334D01*
X31969348Y30705500D01*
X31969346Y30705500D01*
X29574002Y30705500D01*
X29574000Y30705500D01*
X29551707Y30701066D01*
X29495364Y30689859D01*
X29495354Y30689856D01*
X29443037Y30668186D01*
X29384739Y30631555D01*
X29384737Y30631553D01*
X29331816Y30556967D01*
X29310144Y30504646D01*
X29310141Y30504636D01*
X29297083Y30438988D01*
X29294500Y30426000D01*
X28605500Y30426000D01*
X28605500Y30911283D01*
X28601551Y30951370D01*
X28601551Y30951374D01*
X28598754Y30965434D01*
X28595921Y30979681D01*
X28595917Y30979697D01*
X28591280Y30994979D01*
X28584225Y31018239D01*
X28579914Y31028647D01*
X28578940Y31030958D01*
X28578937Y31030965D01*
X28535351Y31095338D01*
X28495301Y31135381D01*
X28494429Y31135964D01*
X28428649Y31179914D01*
X28428642Y31179917D01*
X28418236Y31184227D01*
X28379667Y31195925D01*
X28379663Y31195926D01*
X28379656Y31195928D01*
X28351372Y31201551D01*
X28351357Y31201554D01*
X28351352Y31201555D01*
X28351344Y31201556D01*
X28311282Y31205500D01*
X28311281Y31205500D01*
X25643841Y31205500D01*
X25643840Y31205500D01*
X25614051Y31202567D01*
X25559853Y31219010D01*
X25533156Y31268960D01*
X25532800Y31276211D01*
X25532800Y31752103D01*
X25538431Y31780417D01*
X25548842Y31805552D01*
X25564878Y31829552D01*
X29804512Y36069186D01*
X33649500Y36069186D01*
X33649500Y35930815D01*
X33685310Y35797169D01*
X33685312Y35797164D01*
X33754495Y35677335D01*
X33852335Y35579495D01*
X33972164Y35510312D01*
X34101133Y35475756D01*
X34104831Y35474500D01*
X34244185Y35474500D01*
X34254448Y35474500D01*
X34263336Y35479633D01*
X34377836Y35510312D01*
X34497665Y35579495D01*
X34595505Y35677335D01*
X34664688Y35797164D01*
X34695367Y35911664D01*
X34700500Y35920553D01*
X34700500Y36070170D01*
X34699243Y36073871D01*
X34697736Y36079496D01*
X34664688Y36202836D01*
X34595505Y36322665D01*
X34497665Y36420505D01*
X34377836Y36489688D01*
X34377831Y36489690D01*
X34244185Y36525500D01*
X34244184Y36525500D01*
X34105816Y36525500D01*
X34105815Y36525500D01*
X33972168Y36489690D01*
X33972166Y36489690D01*
X33972165Y36489689D01*
X33852333Y36420505D01*
X33754495Y36322667D01*
X33685311Y36202836D01*
X33685310Y36202832D01*
X33649500Y36069186D01*
X29804512Y36069186D01*
X32304512Y38569186D01*
X33649500Y38569186D01*
X33649500Y38430815D01*
X33685310Y38297169D01*
X33685312Y38297164D01*
X33754495Y38177335D01*
X33852335Y38079495D01*
X33972164Y38010312D01*
X34101133Y37975756D01*
X34104831Y37974500D01*
X34244185Y37974500D01*
X34254448Y37974500D01*
X34263336Y37979633D01*
X34377836Y38010312D01*
X34497665Y38079495D01*
X34595505Y38177335D01*
X34664688Y38297164D01*
X34695367Y38411664D01*
X34700500Y38420553D01*
X34700500Y38570170D01*
X34699244Y38573867D01*
X34664838Y38702274D01*
X34664701Y38702803D01*
X34664689Y38702834D01*
X34595504Y38822666D01*
X34497665Y38920505D01*
X34377834Y38989689D01*
X34377832Y38989690D01*
X34377831Y38989690D01*
X34244185Y39025500D01*
X34244184Y39025500D01*
X34105816Y39025500D01*
X34105815Y39025500D01*
X33972168Y38989690D01*
X33972166Y38989690D01*
X33972165Y38989689D01*
X33852333Y38920505D01*
X33754495Y38822667D01*
X33685311Y38702836D01*
X33685310Y38702832D01*
X33649500Y38569186D01*
X32304512Y38569186D01*
X35829512Y42094186D01*
X36299500Y42094186D01*
X36299500Y41955815D01*
X36335310Y41822169D01*
X36335312Y41822164D01*
X36404495Y41702335D01*
X36502335Y41604495D01*
X36622164Y41535312D01*
X36751133Y41500756D01*
X36754831Y41499500D01*
X36894185Y41499500D01*
X36904448Y41499500D01*
X36913336Y41504633D01*
X37027836Y41535312D01*
X37147665Y41604495D01*
X37210591Y41667422D01*
X37234594Y41683459D01*
X37259725Y41693869D01*
X37288041Y41699500D01*
X40453118Y41699500D01*
X40462006Y41704633D01*
X40525638Y41721682D01*
X40599862Y41764535D01*
X40660465Y41825138D01*
X40703318Y41899362D01*
X40720367Y41962994D01*
X40725500Y41971883D01*
X40725500Y46036960D01*
X40731131Y46065274D01*
X40741542Y46090409D01*
X40757585Y46114416D01*
X40761263Y46118093D01*
X40820505Y46177335D01*
X40889688Y46297164D01*
X40920367Y46411664D01*
X40925500Y46420553D01*
X40925500Y46570171D01*
X40924242Y46573877D01*
X40923674Y46575996D01*
X40923674Y46575995D01*
X40889688Y46702836D01*
X40820505Y46822665D01*
X40722665Y46920505D01*
X40602836Y46989688D01*
X40602831Y46989690D01*
X40469185Y47025500D01*
X40469184Y47025500D01*
X40330816Y47025500D01*
X40330815Y47025500D01*
X40197168Y46989690D01*
X40197166Y46989690D01*
X40197165Y46989689D01*
X40077333Y46920505D01*
X39979495Y46822667D01*
X39910311Y46702836D01*
X39910310Y46702832D01*
X39874500Y46569186D01*
X39874500Y46430815D01*
X39895788Y46351368D01*
X39910311Y46297166D01*
X39979495Y46177335D01*
X40042418Y46114412D01*
X40058457Y46090409D01*
X40068868Y46065275D01*
X40074500Y46036960D01*
X40074500Y42439219D01*
X40068867Y42410901D01*
X40064556Y42400493D01*
X40024508Y42360445D01*
X40024507Y42360444D01*
X40014099Y42356133D01*
X39985781Y42350500D01*
X37288041Y42350500D01*
X37259723Y42356133D01*
X37234594Y42366542D01*
X37210588Y42382582D01*
X37147665Y42445505D01*
X37027834Y42514689D01*
X37027832Y42514690D01*
X37027831Y42514690D01*
X36894185Y42550500D01*
X36894184Y42550500D01*
X36755816Y42550500D01*
X36755815Y42550500D01*
X36622168Y42514690D01*
X36622166Y42514690D01*
X36622165Y42514689D01*
X36502333Y42445505D01*
X36404495Y42347667D01*
X36335311Y42227836D01*
X36335310Y42227832D01*
X36299500Y42094186D01*
X35829512Y42094186D01*
X37627748Y43892422D01*
X37651751Y43908459D01*
X37676882Y43918869D01*
X37705198Y43924500D01*
X37781648Y43924500D01*
X37790536Y43929633D01*
X37905036Y43960312D01*
X38024865Y44029495D01*
X38122705Y44127335D01*
X38191888Y44247164D01*
X38222567Y44361664D01*
X38227700Y44370553D01*
X38227700Y44520170D01*
X38226441Y44523879D01*
X38223073Y44536447D01*
X38214302Y44569183D01*
X38191888Y44652836D01*
X38122705Y44772665D01*
X38024865Y44870505D01*
X37905036Y44939688D01*
X37905031Y44939690D01*
X37771385Y44975500D01*
X37771384Y44975500D01*
X37633016Y44975500D01*
X37633015Y44975500D01*
X37499368Y44939690D01*
X37499366Y44939690D01*
X37499365Y44939689D01*
X37379533Y44870505D01*
X37281695Y44772667D01*
X37212511Y44652836D01*
X37212510Y44652832D01*
X37177958Y44523879D01*
X37176700Y44519185D01*
X37176700Y44407399D01*
X37171067Y44379083D01*
X37170550Y44377832D01*
X37160659Y44353953D01*
X37144618Y44329947D01*
X29478303Y36663632D01*
X29454297Y36647592D01*
X29443890Y36643281D01*
X29387278Y36643269D01*
X29386477Y36643601D01*
X29350689Y36674971D01*
X29348961Y36677963D01*
X29341573Y36695798D01*
X29339818Y36702346D01*
X29339699Y36702807D01*
X29339688Y36702834D01*
X29270503Y36822666D01*
X29172664Y36920505D01*
X29052833Y36989689D01*
X29052831Y36989690D01*
X29052830Y36989690D01*
X28919184Y37025500D01*
X28919183Y37025500D01*
X28780815Y37025500D01*
X28780814Y37025500D01*
X28647167Y36989690D01*
X28647165Y36989690D01*
X28647164Y36989689D01*
X28527332Y36920505D01*
X28429494Y36822667D01*
X28360310Y36702836D01*
X28360309Y36702832D01*
X28324499Y36569186D01*
X28324499Y36430815D01*
X28360309Y36297169D01*
X28360311Y36297164D01*
X28429494Y36177335D01*
X28527334Y36079495D01*
X28647163Y36010312D01*
X28647165Y36010311D01*
X28647195Y36010299D01*
X28647741Y36010157D01*
X28649397Y36009714D01*
X28675275Y35996950D01*
X28684215Y35990091D01*
X28712535Y35941044D01*
X28712537Y35941022D01*
X28712650Y35940162D01*
X28703372Y35893530D01*
X28701652Y35890550D01*
X28689887Y35875216D01*
X24946832Y32132160D01*
X24900734Y32052317D01*
X24900171Y32043720D01*
X24881800Y31975155D01*
X24881800Y31276211D01*
X24860126Y31223885D01*
X24807800Y31202211D01*
X24800549Y31202567D01*
X24770760Y31205500D01*
X24770759Y31205500D01*
X12279500Y31205500D01*
X12227174Y31227174D01*
X12205500Y31279500D01*
X12205500Y37111283D01*
X12204710Y37119301D01*
X12201551Y37151374D01*
X12198754Y37165434D01*
X12195921Y37179681D01*
X12195917Y37179697D01*
X12191280Y37194979D01*
X12184225Y37218239D01*
X12179914Y37228647D01*
X12178940Y37230958D01*
X12178937Y37230965D01*
X12135351Y37295338D01*
X12095301Y37335381D01*
X12094429Y37335964D01*
X12028649Y37379914D01*
X12028642Y37379917D01*
X12018236Y37384227D01*
X12018233Y37384228D01*
X11979667Y37395925D01*
X11979663Y37395926D01*
X11979656Y37395928D01*
X11951372Y37401551D01*
X11951357Y37401554D01*
X11951352Y37401555D01*
X11951344Y37401556D01*
X11911282Y37405500D01*
X11911281Y37405500D01*
X7588719Y37405500D01*
X7588718Y37405500D01*
X7548639Y37401555D01*
X7520353Y37395930D01*
X7520335Y37395926D01*
X7481765Y37384228D01*
X7471339Y37379909D01*
X7404657Y37335350D01*
X7364620Y37295304D01*
X7364617Y37295301D01*
X7320087Y37228649D01*
X7315770Y37218230D01*
X7304074Y37179669D01*
X7298446Y37151365D01*
X7298445Y37151358D01*
X7294500Y37111283D01*
X300500Y37111283D01*
X300500Y40569186D01*
X28324499Y40569186D01*
X28324499Y40430815D01*
X28360309Y40297169D01*
X28360311Y40297164D01*
X28429494Y40177335D01*
X28527334Y40079495D01*
X28647163Y40010312D01*
X28776132Y39975756D01*
X28779830Y39974500D01*
X28919184Y39974500D01*
X28929447Y39974500D01*
X28938335Y39979633D01*
X29052835Y40010312D01*
X29172664Y40079495D01*
X29270504Y40177335D01*
X29339687Y40297164D01*
X29370366Y40411664D01*
X29375499Y40420553D01*
X29375499Y40570170D01*
X29374243Y40573867D01*
X29339837Y40702274D01*
X29339700Y40702803D01*
X29339688Y40702834D01*
X29339686Y40702837D01*
X29270504Y40822665D01*
X29172664Y40920505D01*
X29052835Y40989688D01*
X29052830Y40989690D01*
X28919184Y41025500D01*
X28919183Y41025500D01*
X28780815Y41025500D01*
X28780814Y41025500D01*
X28647167Y40989690D01*
X28647165Y40989690D01*
X28647164Y40989689D01*
X28527332Y40920505D01*
X28429494Y40822667D01*
X28360310Y40702836D01*
X28360309Y40702832D01*
X28324499Y40569186D01*
X300500Y40569186D01*
X300500Y43269186D01*
X33649500Y43269186D01*
X33649500Y43130815D01*
X33685310Y42997169D01*
X33685312Y42997164D01*
X33754495Y42877335D01*
X33852335Y42779495D01*
X33972164Y42710312D01*
X34101133Y42675756D01*
X34104831Y42674500D01*
X34244185Y42674500D01*
X34254448Y42674500D01*
X34263336Y42679633D01*
X34377836Y42710312D01*
X34497665Y42779495D01*
X34595505Y42877335D01*
X34664688Y42997164D01*
X34695367Y43111664D01*
X34700500Y43120553D01*
X34700500Y43270170D01*
X34699244Y43273867D01*
X34664838Y43402274D01*
X34664701Y43402803D01*
X34664689Y43402834D01*
X34595504Y43522666D01*
X34497665Y43620505D01*
X34445265Y43650758D01*
X34377836Y43689688D01*
X34377831Y43689690D01*
X34244185Y43725500D01*
X34244184Y43725500D01*
X34105816Y43725500D01*
X34105815Y43725500D01*
X33972168Y43689690D01*
X33972166Y43689690D01*
X33972165Y43689689D01*
X33852333Y43620505D01*
X33754495Y43522667D01*
X33685311Y43402836D01*
X33685310Y43402832D01*
X33649500Y43269186D01*
X300500Y43269186D01*
X300500Y46118093D01*
X2499500Y46118093D01*
X2499500Y45881908D01*
X2527861Y45702837D01*
X2536447Y45648630D01*
X2536449Y45648621D01*
X2609426Y45424020D01*
X2716655Y45213568D01*
X2814065Y45079496D01*
X2855480Y45022493D01*
X3022549Y44855424D01*
X3022682Y44855312D01*
X3023705Y44854600D01*
X3067660Y44822665D01*
X3213567Y44716657D01*
X3213576Y44716652D01*
X3420163Y44611390D01*
X3421102Y44610841D01*
X3423299Y44609777D01*
X3424528Y44609167D01*
X3426767Y44608535D01*
X3646303Y44537203D01*
X3647867Y44536637D01*
X3648039Y44536586D01*
X3648477Y44536472D01*
X3648630Y44536448D01*
X3648632Y44536447D01*
X3804149Y44511816D01*
X3823589Y44508737D01*
X3881906Y44499500D01*
X4118093Y44499500D01*
X4118094Y44499500D01*
X4132672Y44501810D01*
X4176411Y44508737D01*
X4351368Y44536447D01*
X4351368Y44536448D01*
X4351512Y44536470D01*
X4352561Y44536791D01*
X4353230Y44536985D01*
X4354550Y44537481D01*
X4452128Y44569186D01*
X28324499Y44569186D01*
X28324499Y44430815D01*
X28360309Y44297169D01*
X28360311Y44297164D01*
X28429494Y44177335D01*
X28527334Y44079495D01*
X28647163Y44010312D01*
X28776132Y43975756D01*
X28779830Y43974500D01*
X28919184Y43974500D01*
X28929447Y43974500D01*
X28938335Y43979633D01*
X29052835Y44010312D01*
X29172664Y44079495D01*
X29270504Y44177335D01*
X29339687Y44297164D01*
X29370366Y44411664D01*
X29375499Y44420553D01*
X29375499Y44570170D01*
X29374240Y44573879D01*
X29368445Y44595505D01*
X29364714Y44609431D01*
X29339687Y44702836D01*
X29270504Y44822665D01*
X29172664Y44920505D01*
X29052835Y44989688D01*
X29052830Y44989690D01*
X28919184Y45025500D01*
X28919183Y45025500D01*
X28780815Y45025500D01*
X28780814Y45025500D01*
X28647167Y44989690D01*
X28647165Y44989690D01*
X28647164Y44989689D01*
X28527332Y44920505D01*
X28429494Y44822667D01*
X28360310Y44702836D01*
X28360309Y44702832D01*
X28324499Y44569186D01*
X4452128Y44569186D01*
X4533129Y44595505D01*
X4575992Y44609432D01*
X4786433Y44716657D01*
X4977510Y44855483D01*
X5144517Y45022490D01*
X5283343Y45213567D01*
X5390568Y45424008D01*
X5392781Y45430817D01*
X5403232Y45462982D01*
X5420721Y45516811D01*
X5437740Y45569186D01*
X33649500Y45569186D01*
X33649500Y45430815D01*
X33685310Y45297169D01*
X33685312Y45297164D01*
X33754495Y45177335D01*
X33852335Y45079495D01*
X33972164Y45010312D01*
X34101133Y44975756D01*
X34104831Y44974500D01*
X34244185Y44974500D01*
X34254448Y44974500D01*
X34263336Y44979633D01*
X34377836Y45010312D01*
X34497665Y45079495D01*
X34595505Y45177335D01*
X34664688Y45297164D01*
X34695367Y45411664D01*
X34700500Y45420553D01*
X34700500Y45570168D01*
X34699247Y45573858D01*
X34679214Y45648622D01*
X34679211Y45648632D01*
X34664689Y45702832D01*
X34664688Y45702836D01*
X34595505Y45822665D01*
X34497665Y45920505D01*
X34377836Y45989688D01*
X34377831Y45989690D01*
X34244185Y46025500D01*
X34244184Y46025500D01*
X34105816Y46025500D01*
X34105815Y46025500D01*
X33972168Y45989690D01*
X33972166Y45989690D01*
X33972165Y45989689D01*
X33852333Y45920505D01*
X33754495Y45822667D01*
X33685311Y45702836D01*
X33685310Y45702832D01*
X33649500Y45569186D01*
X5437740Y45569186D01*
X5446745Y45596900D01*
X5462524Y45645468D01*
X5463015Y45646771D01*
X5463209Y45647441D01*
X5463530Y45648489D01*
X5474297Y45716465D01*
X5500500Y45881908D01*
X5500500Y46118092D01*
X5463553Y46351368D01*
X5463552Y46351370D01*
X5463528Y46351523D01*
X5463414Y46351961D01*
X5463363Y46352133D01*
X5462795Y46353702D01*
X5437739Y46430815D01*
X5391465Y46573233D01*
X5390833Y46575472D01*
X5390223Y46576701D01*
X5389159Y46578898D01*
X5388610Y46579837D01*
X5283348Y46786424D01*
X5283343Y46786433D01*
X5144520Y46977506D01*
X5144519Y46977507D01*
X5144517Y46977510D01*
X4977510Y47144517D01*
X4977507Y47144520D01*
X4977504Y47144523D01*
X4977476Y47144543D01*
X4977251Y47144706D01*
X4786432Y47283345D01*
X4575980Y47390574D01*
X4351394Y47463547D01*
X4351370Y47463553D01*
X4351367Y47463554D01*
X4351365Y47463554D01*
X4218910Y47484533D01*
X4118094Y47500500D01*
X4118093Y47500500D01*
X4118092Y47500500D01*
X3881908Y47500500D01*
X3881907Y47500500D01*
X3881906Y47500500D01*
X3648628Y47463553D01*
X3648604Y47463547D01*
X3424018Y47390574D01*
X3213566Y47283345D01*
X3022498Y47144525D01*
X2855475Y46977502D01*
X2716655Y46786434D01*
X2609426Y46575982D01*
X2536453Y46351396D01*
X2536448Y46351373D01*
X2536446Y46351366D01*
X2499500Y46118093D01*
X300500Y46118093D01*
X300500Y47869186D01*
X32924499Y47869186D01*
X32924499Y47730815D01*
X32960309Y47597169D01*
X32960311Y47597164D01*
X33029494Y47477335D01*
X33127334Y47379495D01*
X33247163Y47310312D01*
X33376132Y47275756D01*
X33379830Y47274500D01*
X33519184Y47274500D01*
X33529447Y47274500D01*
X33538335Y47279633D01*
X33652835Y47310312D01*
X33772664Y47379495D01*
X33870504Y47477335D01*
X33939687Y47597164D01*
X33970366Y47711664D01*
X33975499Y47720553D01*
X33975499Y47870170D01*
X33974243Y47873867D01*
X33939688Y48002832D01*
X33939687Y48002836D01*
X33901380Y48069186D01*
X40074500Y48069186D01*
X40074500Y47930815D01*
X40110310Y47797169D01*
X40110312Y47797164D01*
X40179495Y47677335D01*
X40277335Y47579495D01*
X40397164Y47510312D01*
X40526133Y47475756D01*
X40529831Y47474500D01*
X40669185Y47474500D01*
X40679448Y47474500D01*
X40688336Y47479633D01*
X40802836Y47510312D01*
X40922665Y47579495D01*
X41020505Y47677335D01*
X41089688Y47797164D01*
X41120367Y47911664D01*
X41125500Y47920553D01*
X41125500Y48070170D01*
X41124241Y48073879D01*
X41111169Y48122664D01*
X41111169Y48122665D01*
X41089688Y48202836D01*
X41020505Y48322665D01*
X40922665Y48420505D01*
X40802836Y48489688D01*
X40802831Y48489690D01*
X40669185Y48525500D01*
X40669184Y48525500D01*
X40530816Y48525500D01*
X40530815Y48525500D01*
X40397168Y48489690D01*
X40397166Y48489690D01*
X40397165Y48489689D01*
X40277333Y48420505D01*
X40179495Y48322667D01*
X40110311Y48202836D01*
X40110310Y48202832D01*
X40074500Y48069186D01*
X33901380Y48069186D01*
X33870504Y48122665D01*
X33772664Y48220505D01*
X33652835Y48289688D01*
X33652830Y48289690D01*
X33519184Y48325500D01*
X33519183Y48325500D01*
X33380815Y48325500D01*
X33380814Y48325500D01*
X33247167Y48289690D01*
X33247165Y48289690D01*
X33247164Y48289689D01*
X33127332Y48220505D01*
X33029494Y48122667D01*
X32960310Y48002836D01*
X32960309Y48002832D01*
X32924499Y47869186D01*
X300500Y47869186D01*
X300500Y49610782D01*
X306129Y49639091D01*
X310443Y49649506D01*
X350482Y49689552D01*
X360911Y49693872D01*
X389219Y49699500D01*
X33911281Y49699500D01*
X33939591Y49693871D01*
G37*
%TD.AperFunction*%
%TD*%
M02*
