%TF.GenerationSoftware,KiCad,Pcbnew,10.0.6*%
%TF.CreationDate,2026-09-11T23:53:40+02:00*%
%TF.ProjectId,leaf-heat-v2,6c656166-2d68-4656-9174-2d76322e6b69,B*%
%TF.SameCoordinates,Original*%
%TF.FileFunction,Paste,Top*%
%TF.FilePolarity,Positive*%
%FSLAX46Y46*%
G04 Gerber Fmt 4.6, Leading zero omitted, Abs format (unit mm)*
G04 Created by KiCad (PCBNEW 10.0.6) date 2026-09-11 23:53:40*
%MOMM*%
%LPD*%
G01*
G04 APERTURE LIST*
G04 Aperture macros list*
%AMRoundRect*
0 Rectangle with rounded corners*
0 $1 Rounding radius*
0 $2 $3 $4 $5 $6 $7 $8 $9 X,Y pos of 4 corners*
0 Add a 4 corners polygon primitive as box body*
4,1,4,$2,$3,$4,$5,$6,$7,$8,$9,$2,$3,0*
0 Add four circle primitives for the rounded corners*
1,1,$1+$1,$2,$3*
1,1,$1+$1,$4,$5*
1,1,$1+$1,$6,$7*
1,1,$1+$1,$8,$9*
0 Add four rect primitives between the rounded corners*
20,1,$1+$1,$2,$3,$4,$5,0*
20,1,$1+$1,$4,$5,$6,$7,0*
20,1,$1+$1,$6,$7,$8,$9,0*
20,1,$1+$1,$8,$9,$2,$3,0*%
G04 Aperture macros list end*
%ADD10RoundRect,0.225000X0.250000X-0.225000X0.250000X0.225000X-0.250000X0.225000X-0.250000X-0.225000X0*%
%ADD11RoundRect,0.250000X-0.450000X-0.800000X0.450000X-0.800000X0.450000X0.800000X-0.450000X0.800000X0*%
%ADD12RoundRect,0.250000X-0.650000X1.000000X-0.650000X-1.000000X0.650000X-1.000000X0.650000X1.000000X0*%
%ADD13RoundRect,0.218750X-0.218750X-0.256250X0.218750X-0.256250X0.218750X0.256250X-0.218750X0.256250X0*%
%ADD14RoundRect,0.200000X-0.200000X-0.275000X0.200000X-0.275000X0.200000X0.275000X-0.200000X0.275000X0*%
%ADD15RoundRect,0.200000X0.275000X-0.200000X0.275000X0.200000X-0.275000X0.200000X-0.275000X-0.200000X0*%
%ADD16RoundRect,0.225000X0.375000X-0.225000X0.375000X0.225000X-0.375000X0.225000X-0.375000X-0.225000X0*%
%ADD17RoundRect,0.250000X-0.325000X-1.100000X0.325000X-1.100000X0.325000X1.100000X-0.325000X1.100000X0*%
%ADD18R,2.350000X5.100000*%
%ADD19RoundRect,0.225000X-0.225000X-0.250000X0.225000X-0.250000X0.225000X0.250000X-0.225000X0.250000X0*%
%ADD20RoundRect,0.250000X1.100000X-0.325000X1.100000X0.325000X-1.100000X0.325000X-1.100000X-0.325000X0*%
%ADD21RoundRect,0.250000X-0.250000X-0.475000X0.250000X-0.475000X0.250000X0.475000X-0.250000X0.475000X0*%
%ADD22RoundRect,0.200000X0.200000X0.275000X-0.200000X0.275000X-0.200000X-0.275000X0.200000X-0.275000X0*%
%ADD23RoundRect,0.250000X0.900000X-1.000000X0.900000X1.000000X-0.900000X1.000000X-0.900000X-1.000000X0*%
%ADD24RoundRect,0.250000X0.475000X-0.250000X0.475000X0.250000X-0.475000X0.250000X-0.475000X-0.250000X0*%
%ADD25R,3.150000X1.960000*%
%ADD26R,1.700000X1.000000*%
%ADD27R,2.400000X3.100000*%
%ADD28R,2.200000X0.500000*%
%ADD29R,0.700000X0.700000*%
%ADD30R,1.500000X0.900000*%
%ADD31RoundRect,0.225000X0.225000X0.250000X-0.225000X0.250000X-0.225000X-0.250000X0.225000X-0.250000X0*%
%ADD32RoundRect,0.150000X0.150000X-0.587500X0.150000X0.587500X-0.150000X0.587500X-0.150000X-0.587500X0*%
%ADD33RoundRect,0.150000X-0.150000X0.825000X-0.150000X-0.825000X0.150000X-0.825000X0.150000X0.825000X0*%
%ADD34RoundRect,0.150000X-0.150000X0.512500X-0.150000X-0.512500X0.150000X-0.512500X0.150000X0.512500X0*%
%ADD35RoundRect,0.150000X-0.150000X-0.425000X0.150000X-0.425000X0.150000X0.425000X-0.150000X0.425000X0*%
%ADD36RoundRect,0.075000X-0.075000X-0.500000X0.075000X-0.500000X0.075000X0.500000X-0.075000X0.500000X0*%
%ADD37O,1.000000X2.100000*%
%ADD38O,1.000000X1.800000*%
G04 APERTURE END LIST*
D10*
%TO.C,C4*%
X24000000Y38495000D03*
X24000000Y40045000D03*
%TD*%
D11*
%TO.C,D2*%
X26800000Y29500000D03*
X31200000Y29500000D03*
%TD*%
D12*
%TO.C,D1*%
X24000000Y28000000D03*
X24000000Y24000000D03*
%TD*%
D13*
%TO.C,D6*%
X38212500Y30000000D03*
X39787500Y30000000D03*
%TD*%
D14*
%TO.C,R2*%
X23475000Y34500000D03*
X25125000Y34500000D03*
%TD*%
%TO.C,R10*%
X19675000Y21000000D03*
X21325000Y21000000D03*
%TD*%
D15*
%TO.C,R15*%
X47500000Y12175000D03*
X47500000Y13825000D03*
%TD*%
D16*
%TO.C,D5*%
X50500000Y11350000D03*
X50500000Y14650000D03*
%TD*%
D14*
%TO.C,R12*%
X61175000Y12500000D03*
X62825000Y12500000D03*
%TD*%
D15*
%TO.C,R4*%
X59000000Y44175000D03*
X59000000Y45825000D03*
%TD*%
D17*
%TO.C,C6*%
X30025000Y40500000D03*
X32975000Y40500000D03*
%TD*%
D10*
%TO.C,C14*%
X59600000Y9625000D03*
X59600000Y11175000D03*
%TD*%
D18*
%TO.C,L1*%
X22925000Y44500000D03*
X27075000Y44500000D03*
%TD*%
D19*
%TO.C,C11*%
X60925000Y42400000D03*
X62475000Y42400000D03*
%TD*%
D20*
%TO.C,C1*%
X10500000Y36525000D03*
X10500000Y39475000D03*
%TD*%
D21*
%TO.C,C9*%
X34550000Y47800000D03*
X36450000Y47800000D03*
%TD*%
D14*
%TO.C,R9*%
X34175000Y30000000D03*
X35825000Y30000000D03*
%TD*%
D15*
%TO.C,R17*%
X52600000Y12175000D03*
X52600000Y13825000D03*
%TD*%
D17*
%TO.C,C7*%
X30025000Y36500000D03*
X32975000Y36500000D03*
%TD*%
%TO.C,C5*%
X30025000Y44500000D03*
X32975000Y44500000D03*
%TD*%
D22*
%TO.C,R14*%
X60625000Y40000000D03*
X58975000Y40000000D03*
%TD*%
D23*
%TO.C,D3*%
X10000000Y27850000D03*
X10000000Y32150000D03*
%TD*%
D24*
%TO.C,C2*%
X13600000Y38320000D03*
X13600000Y40220000D03*
%TD*%
D25*
%TO.C,F1*%
X24000000Y16045000D03*
X24000000Y20955000D03*
%TD*%
D14*
%TO.C,R3*%
X35175000Y43200000D03*
X36825000Y43200000D03*
%TD*%
D26*
%TO.C,SW1*%
X27850000Y25900000D03*
X34150000Y25900000D03*
X27850000Y22100000D03*
X34150000Y22100000D03*
%TD*%
D19*
%TO.C,C8*%
X35225000Y40900000D03*
X36775000Y40900000D03*
%TD*%
D14*
%TO.C,R5*%
X35175000Y38500000D03*
X36825000Y38500000D03*
%TD*%
D27*
%TO.C,U1*%
X19000000Y38000000D03*
D28*
X16125000Y39905000D03*
X16125000Y38635000D03*
X16125000Y37365000D03*
X16125000Y36095000D03*
X21875000Y36095000D03*
X21875000Y37365000D03*
X21875000Y38635000D03*
X21875000Y39905000D03*
%TD*%
D10*
%TO.C,C12*%
X15065000Y26725000D03*
X15065000Y28275000D03*
%TD*%
D15*
%TO.C,R8*%
X62000000Y44375000D03*
X62000000Y46025000D03*
%TD*%
D14*
%TO.C,R7*%
X59175000Y47500000D03*
X60825000Y47500000D03*
%TD*%
D29*
%TO.C,U2*%
X47860000Y42900000D03*
X47860000Y41800000D03*
X47860000Y40700000D03*
X48960000Y42900000D03*
X48960000Y41800000D03*
X48960000Y40700000D03*
X50060000Y42900000D03*
X50060000Y41800000D03*
X50060000Y40700000D03*
D30*
X39250000Y48000000D03*
X39250000Y46500000D03*
X39250000Y45000000D03*
X39250000Y43500000D03*
X39250000Y42000000D03*
X39250000Y40500000D03*
X39250000Y39000000D03*
X39250000Y37500000D03*
X39250000Y36000000D03*
X56750000Y36000000D03*
X56750000Y37500000D03*
X56750000Y39000000D03*
X56750000Y40500000D03*
X56750000Y42000000D03*
X56750000Y43500000D03*
X56750000Y45000000D03*
X56750000Y46500000D03*
X56750000Y48000000D03*
%TD*%
D31*
%TO.C,C13*%
X11575000Y19500000D03*
X10025000Y19500000D03*
%TD*%
D32*
%TO.C,D4*%
X13550000Y14862500D03*
X15450000Y14862500D03*
X14500000Y16737500D03*
%TD*%
D33*
%TO.C,U3*%
X17605000Y24475000D03*
X16335000Y24475000D03*
X15065000Y24475000D03*
X13795000Y24475000D03*
X13795000Y19525000D03*
X15065000Y19525000D03*
X16335000Y19525000D03*
X17605000Y19525000D03*
%TD*%
D19*
%TO.C,C10*%
X35225000Y45500000D03*
X36775000Y45500000D03*
%TD*%
D14*
%TO.C,R6*%
X35175000Y36000000D03*
X36825000Y36000000D03*
%TD*%
D34*
%TO.C,U4*%
X57450000Y12137500D03*
X56500000Y12137500D03*
X55550000Y12137500D03*
X55550000Y9862500D03*
X56500000Y9862500D03*
X57450000Y9862500D03*
%TD*%
D26*
%TO.C,SW2*%
X38850000Y25900000D03*
X45150000Y25900000D03*
X38850000Y22100000D03*
X45150000Y22100000D03*
%TD*%
D19*
%TO.C,C3*%
X24425000Y37000000D03*
X25975000Y37000000D03*
%TD*%
D22*
%TO.C,R13*%
X60625000Y38500000D03*
X58975000Y38500000D03*
%TD*%
D15*
%TO.C,R1*%
X21900000Y32175000D03*
X21900000Y33825000D03*
%TD*%
D35*
%TO.C,J2*%
X52800000Y6680000D03*
X53600000Y6680000D03*
D36*
X54750000Y6680000D03*
X55750000Y6680000D03*
X56250000Y6680000D03*
X57250000Y6680000D03*
D35*
X58400000Y6680000D03*
X59200000Y6680000D03*
X59200000Y6680000D03*
X58400000Y6680000D03*
D36*
X57750000Y6680000D03*
X56750000Y6680000D03*
X55250000Y6680000D03*
X54250000Y6680000D03*
D35*
X53600000Y6680000D03*
X52800000Y6680000D03*
D37*
X51680000Y6105000D03*
D38*
X51680000Y1925000D03*
D37*
X60320000Y6105000D03*
D38*
X60320000Y1925000D03*
%TD*%
D14*
%TO.C,R11*%
X46975000Y7000000D03*
X48625000Y7000000D03*
%TD*%
D15*
%TO.C,R16*%
X47500000Y9175000D03*
X47500000Y10825000D03*
%TD*%
M02*
