%TF.GenerationSoftware,KiCad,Pcbnew,10.0.6*%
%TF.CreationDate,2026-09-12T11:52:21+02:00*%
%TF.ProjectId,leaf-heat-v4,6c656166-2d68-4656-9174-2d76342e6b69,D*%
%TF.SameCoordinates,Original*%
%TF.FileFunction,Soldermask,Top*%
%TF.FilePolarity,Negative*%
%FSLAX46Y46*%
G04 Gerber Fmt 4.6, Leading zero omitted, Abs format (unit mm)*
G04 Created by KiCad (PCBNEW 10.0.6) date 2026-09-12 11:52:21*
%MOMM*%
%LPD*%
G01*
G04 APERTURE LIST*
G04 Aperture macros list*
%AMRoundRect*
0 Rectangle with rounded corners*
0 $1 Rounding radius*
0 $2 $3 $4 $5 $6 $7 $8 $9 X,Y pos of 4 corners*
0 Add a 4 corners polygon primitive as box body*
4,1,4,$2,$3,$4,$5,$6,$7,$8,$9,$2,$3,0*
0 Add four circle primitives for the rounded corners*
1,1,$1+$1,$2,$3*
1,1,$1+$1,$4,$5*
1,1,$1+$1,$6,$7*
1,1,$1+$1,$8,$9*
0 Add four rect primitives between the rounded corners*
20,1,$1+$1,$2,$3,$4,$5,0*
20,1,$1+$1,$4,$5,$6,$7,0*
20,1,$1+$1,$6,$7,$8,$9,0*
20,1,$1+$1,$8,$9,$2,$3,0*%
G04 Aperture macros list end*
%ADD10RoundRect,0.250000X0.400000X0.625000X-0.400000X0.625000X-0.400000X-0.625000X0.400000X-0.625000X0*%
%ADD11C,2.000000*%
%ADD12R,1.500000X0.900000*%
%ADD13C,0.650000*%
%ADD14R,2.900000X2.900000*%
%ADD15RoundRect,0.250000X-0.412500X-1.100000X0.412500X-1.100000X0.412500X1.100000X-0.412500X1.100000X0*%
%ADD16C,3.000000*%
%ADD17RoundRect,0.250000X-0.400000X-0.625000X0.400000X-0.625000X0.400000X0.625000X-0.400000X0.625000X0*%
%ADD18R,1.600000X1.600000*%
%ADD19C,1.600000*%
%ADD20C,4.000000*%
%ADD21RoundRect,0.250000X0.412500X0.650000X-0.412500X0.650000X-0.412500X-0.650000X0.412500X-0.650000X0*%
%ADD22R,3.150000X1.960000*%
%ADD23C,2.700000*%
%ADD24RoundRect,0.250000X0.650000X-0.412500X0.650000X0.412500X-0.650000X0.412500X-0.650000X-0.412500X0*%
%ADD25RoundRect,0.250000X-0.412500X-0.650000X0.412500X-0.650000X0.412500X0.650000X-0.412500X0.650000X0*%
%ADD26RoundRect,0.250000X0.900000X-1.000000X0.900000X1.000000X-0.900000X1.000000X-0.900000X-1.000000X0*%
%ADD27RoundRect,0.250000X-0.650000X1.000000X-0.650000X-1.000000X0.650000X-1.000000X0.650000X1.000000X0*%
%ADD28R,2.350000X5.100000*%
%ADD29RoundRect,0.200000X0.200000X-0.750000X0.200000X0.750000X-0.200000X0.750000X-0.200000X-0.750000X0*%
%ADD30RoundRect,0.250001X0.462499X0.624999X-0.462499X0.624999X-0.462499X-0.624999X0.462499X-0.624999X0*%
%ADD31RoundRect,0.250000X0.625000X-0.400000X0.625000X0.400000X-0.625000X0.400000X-0.625000X-0.400000X0*%
%ADD32R,2.400000X3.100000*%
%ADD33RoundRect,0.070000X-1.100000X-0.250000X1.100000X-0.250000X1.100000X0.250000X-1.100000X0.250000X0*%
%ADD34C,0.770000*%
%ADD35RoundRect,0.150000X0.150000X-0.512500X0.150000X0.512500X-0.150000X0.512500X-0.150000X-0.512500X0*%
%ADD36R,1.700000X1.700000*%
%ADD37C,1.700000*%
%ADD38RoundRect,0.150000X-0.150000X1.175000X-0.150000X-1.175000X0.150000X-1.175000X0.150000X1.175000X0*%
%ADD39RoundRect,0.250000X1.100000X-0.412500X1.100000X0.412500X-1.100000X0.412500X-1.100000X-0.412500X0*%
G04 APERTURE END LIST*
D10*
%TO.C,R19*%
X139550000Y123000000D03*
X136450000Y123000000D03*
%TD*%
D11*
%TO.C,SW2*%
X122000000Y36000000D03*
X128500000Y36000000D03*
X122000000Y31500000D03*
X128500000Y31500000D03*
%TD*%
D12*
%TO.C,U2*%
X113250000Y148000000D03*
X113250000Y146500000D03*
X113250000Y145000000D03*
X113250000Y143500000D03*
X113250000Y142000000D03*
X113250000Y140500000D03*
X113250000Y139000000D03*
X113250000Y137500000D03*
X113250000Y136000000D03*
X130750000Y136000000D03*
X130750000Y137500000D03*
X130750000Y139000000D03*
X130750000Y140500000D03*
X130750000Y142000000D03*
X130750000Y143500000D03*
X130750000Y145000000D03*
X130750000Y146500000D03*
X130750000Y148000000D03*
D13*
X121860000Y142350000D03*
X121860000Y141250000D03*
X122410000Y142900000D03*
X122410000Y141800000D03*
X122410000Y140700000D03*
X122960000Y142350000D03*
D14*
X122960000Y141800000D03*
D13*
X122960000Y141250000D03*
X123510000Y142900000D03*
X123510000Y141800000D03*
X123510000Y140700000D03*
X124060000Y142350000D03*
X124060000Y141250000D03*
%TD*%
D15*
%TO.C,C5*%
X38437500Y139000000D03*
X41562500Y139000000D03*
%TD*%
D16*
%TO.C,TP4*%
X45000000Y115000000D03*
%TD*%
D17*
%TO.C,R5*%
X112450000Y124000000D03*
X115550000Y124000000D03*
%TD*%
D18*
%TO.C,J1*%
X15000000Y11000000D03*
D19*
X17770000Y11000000D03*
X20540000Y11000000D03*
X23310000Y11000000D03*
X26080000Y11000000D03*
X16385000Y8160000D03*
X19155000Y8160000D03*
X21925000Y8160000D03*
X24695000Y8160000D03*
D20*
X8045001Y9580000D03*
X33035000Y9580000D03*
%TD*%
D21*
%TO.C,C10*%
X111062500Y147000000D03*
X107937500Y147000000D03*
%TD*%
D22*
%TO.C,F1*%
X38000000Y19545000D03*
X38000000Y24455000D03*
%TD*%
D23*
%TO.C,H1*%
X4000000Y146000000D03*
%TD*%
D24*
%TO.C,C2*%
X18000000Y130737500D03*
X18000000Y133862500D03*
%TD*%
D15*
%TO.C,C6*%
X38437500Y132000000D03*
X41562500Y132000000D03*
%TD*%
D24*
%TO.C,C14*%
X134810000Y18437500D03*
X134810000Y21562500D03*
%TD*%
%TO.C,C12*%
X25365000Y37437500D03*
X25365000Y40562500D03*
%TD*%
D21*
%TO.C,C13*%
X22562500Y26000000D03*
X19437500Y26000000D03*
%TD*%
D25*
%TO.C,C11*%
X136437500Y142000000D03*
X139562500Y142000000D03*
%TD*%
D11*
%TO.C,SW1*%
X107000000Y36000000D03*
X113500000Y36000000D03*
X107000000Y31500000D03*
X113500000Y31500000D03*
%TD*%
D17*
%TO.C,R2*%
X25450000Y121000000D03*
X28550000Y121000000D03*
%TD*%
D26*
%TO.C,D3*%
X18000000Y35850000D03*
X18000000Y40150000D03*
%TD*%
D17*
%TO.C,R6*%
X122450000Y124000000D03*
X125550000Y124000000D03*
%TD*%
%TO.C,R7*%
X136450000Y147000000D03*
X139550000Y147000000D03*
%TD*%
D16*
%TO.C,TP1*%
X10000000Y115000000D03*
%TD*%
D27*
%TO.C,D1*%
X38000000Y35000000D03*
X38000000Y31000000D03*
%TD*%
D25*
%TO.C,C8*%
X104437500Y128000000D03*
X107562500Y128000000D03*
%TD*%
D17*
%TO.C,R3*%
X104450000Y134000000D03*
X107550000Y134000000D03*
%TD*%
D16*
%TO.C,TP2*%
X44000000Y11000000D03*
%TD*%
D28*
%TO.C,L1*%
X27925000Y139000000D03*
X32075000Y139000000D03*
%TD*%
D16*
%TO.C,TP5*%
X12000000Y21000000D03*
%TD*%
D15*
%TO.C,C7*%
X38437500Y125000000D03*
X41562500Y125000000D03*
%TD*%
D25*
%TO.C,C3*%
X31437500Y125000000D03*
X34562500Y125000000D03*
%TD*%
D17*
%TO.C,R10*%
X31450000Y26000000D03*
X34550000Y26000000D03*
%TD*%
D24*
%TO.C,C4*%
X32000000Y130437500D03*
X32000000Y133562500D03*
%TD*%
D29*
%TO.C,D4*%
X22050000Y17500000D03*
X23950000Y17500000D03*
X23000000Y20500000D03*
%TD*%
D23*
%TO.C,H3*%
X45000000Y4000000D03*
%TD*%
D17*
%TO.C,R20*%
X125450000Y118000000D03*
X128550000Y118000000D03*
%TD*%
D30*
%TO.C,D6*%
X119487500Y116000000D03*
X116512500Y116000000D03*
%TD*%
D31*
%TO.C,R1*%
X22000000Y119450000D03*
X22000000Y122550000D03*
%TD*%
D16*
%TO.C,TP7*%
X103000000Y37000000D03*
%TD*%
D32*
%TO.C,U1*%
X24000000Y131000000D03*
D33*
X21125000Y132905000D03*
X21125000Y131635000D03*
X21125000Y130365000D03*
X21125000Y129095000D03*
X26875000Y129095000D03*
X26875000Y130365000D03*
X26875000Y131635000D03*
X26875000Y132905000D03*
D34*
X23350000Y132300000D03*
X23350000Y131000000D03*
X23350000Y129700000D03*
X24650000Y132300000D03*
X24650000Y131000000D03*
X24650000Y129700000D03*
%TD*%
D17*
%TO.C,R18*%
X136450000Y129000000D03*
X139550000Y129000000D03*
%TD*%
D23*
%TO.C,H2*%
X146000000Y4000000D03*
%TD*%
D17*
%TO.C,R9*%
X107450000Y116000000D03*
X110550000Y116000000D03*
%TD*%
D31*
%TO.C,R8*%
X145000000Y141450000D03*
X145000000Y144550000D03*
%TD*%
D35*
%TO.C,U4*%
X133860000Y11862500D03*
X134810000Y11862500D03*
X135760000Y11862500D03*
X135760000Y14137500D03*
X134810000Y14137500D03*
X133860000Y14137500D03*
%TD*%
D31*
%TO.C,R4*%
X138000000Y134450000D03*
X138000000Y137550000D03*
%TD*%
D23*
%TO.C,H4*%
X146000000Y106000000D03*
%TD*%
D16*
%TO.C,TP6*%
X12000000Y27000000D03*
%TD*%
D36*
%TO.C,J3*%
X131000000Y9000000D03*
D37*
X133540000Y9000000D03*
X136080000Y9000000D03*
%TD*%
D38*
%TO.C,U3*%
X27905000Y34825000D03*
X26635000Y34825000D03*
X25365000Y34825000D03*
X24095000Y34825000D03*
X24095000Y29175000D03*
X25365000Y29175000D03*
X26635000Y29175000D03*
X27905000Y29175000D03*
%TD*%
D39*
%TO.C,C1*%
X11500000Y127437500D03*
X11500000Y130562500D03*
%TD*%
D16*
%TO.C,TP3*%
X10000000Y37000000D03*
%TD*%
D21*
%TO.C,C9*%
X106562500Y142000000D03*
X103437500Y142000000D03*
%TD*%
M02*
