M48
; DRILL file KiCad 10.0.6 date 2026-09-12T11:52:21
; FORMAT={-:-/ absolute / metric / decimal}
; #@! TF.CreationDate,2026-09-12T11:52:21+02:00
; #@! TF.GenerationSoftware,Kicad,Pcbnew,10.0.6
; #@! TF.FileFunction,Plated,1,4,PTH
FMAT,2
METRIC
; #@! TA.AperFunction,Plated,PTH,ViaDrill
T1C0.300
; #@! TA.AperFunction,Plated,PTH,ComponentDrill
T2C0.300
; #@! TA.AperFunction,Plated,PTH,ComponentDrill
T3C0.330
; #@! TA.AperFunction,Plated,PTH,ComponentDrill
T4C1.000
; #@! TA.AperFunction,Plated,PTH,ComponentDrill
T5C1.100
; #@! TA.AperFunction,Plated,PTH,ComponentDrill
T6C1.200
; #@! TA.AperFunction,Plated,PTH,ComponentDrill
T7C1.500
; #@! TA.AperFunction,Plated,PTH,ComponentDrill
T8C3.200
%
G90
G05
T1
X3.0Y140.0
X3.0Y130.0
X3.0Y120.0
X3.0Y110.0
X3.0Y95.0
X3.0Y80.0
X3.0Y65.0
X3.0Y50.0
X3.0Y40.0
X3.0Y30.0
X3.0Y20.0
X3.0Y10.0
X3.0Y3.0
X8.0Y147.0
X8.0Y140.0
X8.0Y130.0
X8.0Y120.0
X8.0Y110.0
X8.0Y95.0
X8.0Y80.0
X8.0Y65.0
X8.0Y50.0
X8.0Y40.0
X8.0Y30.0
X8.0Y20.0
X8.0Y3.0
X9.45Y130.562
X9.45Y127.438
X16.15Y40.15
X16.15Y35.85
X16.4Y133.862
X16.4Y130.737
X18.075Y26.0
X21.125Y133.855
X21.2Y26.0
X23.0Y18.85
X23.095Y29.175
X23.765Y40.562
X23.765Y37.438
X23.95Y19.5
X25.365Y32.8
X25.365Y26.0
X26.1Y128.048
X26.635Y32.8
X27.2Y121.0
X30.1Y26.0
X30.745Y126.866
X33.2Y125.0
X36.4Y35.0
X37.075Y139.0
X37.075Y132.0
X37.075Y125.0
X38.0Y17.0
X40.2Y139.0
X40.2Y132.0
X40.2Y125.0
X45.0Y147.0
X45.0Y140.0
X45.0Y130.0
X45.0Y120.0
X45.0Y110.0
X45.0Y95.0
X45.0Y80.0
X45.0Y65.0
X45.0Y50.0
X45.0Y40.0
X45.0Y30.0
X45.0Y20.0
X60.0Y147.0
X60.0Y140.0
X60.0Y130.0
X60.0Y120.0
X60.0Y110.0
X60.0Y95.0
X60.0Y80.0
X60.0Y65.0
X60.0Y50.0
X60.0Y40.0
X60.0Y30.0
X60.0Y20.0
X60.0Y10.0
X60.0Y3.0
X75.0Y147.0
X75.0Y140.0
X75.0Y130.0
X75.0Y120.0
X75.0Y110.0
X75.0Y95.0
X75.0Y80.0
X75.0Y65.0
X75.0Y50.0
X75.0Y40.0
X75.0Y30.0
X75.0Y20.0
X75.0Y10.0
X75.0Y3.0
X90.0Y147.0
X90.0Y140.0
X90.0Y130.0
X90.0Y120.0
X90.0Y110.0
X90.0Y95.0
X90.0Y80.0
X90.0Y65.0
X90.0Y50.0
X90.0Y40.0
X90.0Y30.0
X90.0Y20.0
X90.0Y10.0
X90.0Y3.0
X102.075Y142.0
X103.0Y128.0
X103.1Y134.0
X105.2Y142.0
X106.2Y128.0
X106.575Y147.0
X109.054Y140.094
X109.054Y68.61
X109.152Y64.282
X109.7Y147.0
X110.0Y140.0
X110.0Y130.0
X110.0Y120.0
X110.0Y110.0
X110.0Y95.0
X110.0Y80.0
X110.0Y65.0
X110.0Y50.0
X110.0Y40.0
X110.0Y30.0
X110.0Y20.0
X110.0Y10.0
X110.0Y3.0
X111.003Y140.5
X111.003Y118.946
X111.1Y124.0
X111.8Y136.0
X114.362Y124.0
X114.7Y148.0
X114.72Y139.076
X116.547Y145.309
X118.075Y116.0
X121.1Y124.0
X122.938Y136.465
X122.938Y62.218
X123.862Y117.115
X124.1Y118.0
X124.69Y125.378
X125.0Y147.0
X125.0Y140.0
X125.0Y130.0
X125.0Y120.0
X125.0Y110.0
X125.0Y95.0
X125.0Y80.0
X125.0Y65.0
X125.0Y50.0
X125.0Y40.0
X125.0Y30.0
X125.0Y20.0
X125.0Y10.0
X125.0Y3.0
X133.21Y21.562
X133.21Y18.438
X134.81Y15.5
X134.81Y10.5
X135.1Y147.0
X136.425Y134.45
X137.993Y123.0
X138.2Y142.0
X138.917Y127.399
X140.0Y140.0
X140.0Y120.0
X140.0Y110.0
X140.0Y95.0
X140.0Y80.0
X140.0Y65.0
X140.0Y50.0
X140.0Y40.0
X140.0Y30.0
X140.0Y20.0
X140.0Y10.0
X140.0Y3.0
X143.425Y144.55
X147.0Y147.0
X147.0Y140.0
X147.0Y130.0
X147.0Y120.0
X147.0Y110.0
X147.0Y95.0
X147.0Y80.0
X147.0Y65.0
X147.0Y50.0
X147.0Y40.0
X147.0Y30.0
X147.0Y20.0
X147.0Y10.0
T2
X121.86Y142.35
X121.86Y141.25
X122.41Y142.9
X122.41Y141.8
X122.41Y140.7
X122.96Y142.35
X122.96Y141.25
X123.51Y142.9
X123.51Y141.8
X123.51Y140.7
X124.06Y142.35
X124.06Y141.25
T3
X23.35Y132.3
X23.35Y131.0
X23.35Y129.7
X24.65Y132.3
X24.65Y131.0
X24.65Y129.7
T4
X131.0Y9.0
X133.54Y9.0
X136.08Y9.0
T5
X107.0Y36.0
X107.0Y31.5
X113.5Y36.0
X113.5Y31.5
X122.0Y36.0
X122.0Y31.5
X128.5Y36.0
X128.5Y31.5
T6
X15.0Y11.0
X16.385Y8.16
X17.77Y11.0
X19.155Y8.16
X20.54Y11.0
X21.925Y8.16
X23.31Y11.0
X24.695Y8.16
X26.08Y11.0
T7
X10.0Y115.0
X10.0Y37.0
X12.0Y27.0
X12.0Y21.0
X44.0Y11.0
X45.0Y115.0
X103.0Y37.0
T8
X8.045Y9.58
X33.035Y9.58
M30
