%TF.GenerationSoftware,KiCad,Pcbnew,10.0.6*%
%TF.CreationDate,2026-09-12T11:52:21+02:00*%
%TF.ProjectId,leaf-heat-v4,6c656166-2d68-4656-9174-2d76342e6b69,D*%
%TF.SameCoordinates,Original*%
%TF.FileFunction,Paste,Top*%
%TF.FilePolarity,Positive*%
%FSLAX46Y46*%
G04 Gerber Fmt 4.6, Leading zero omitted, Abs format (unit mm)*
G04 Created by KiCad (PCBNEW 10.0.6) date 2026-09-12 11:52:21*
%MOMM*%
%LPD*%
G01*
G04 APERTURE LIST*
G04 Aperture macros list*
%AMRoundRect*
0 Rectangle with rounded corners*
0 $1 Rounding radius*
0 $2 $3 $4 $5 $6 $7 $8 $9 X,Y pos of 4 corners*
0 Add a 4 corners polygon primitive as box body*
4,1,4,$2,$3,$4,$5,$6,$7,$8,$9,$2,$3,0*
0 Add four circle primitives for the rounded corners*
1,1,$1+$1,$2,$3*
1,1,$1+$1,$4,$5*
1,1,$1+$1,$6,$7*
1,1,$1+$1,$8,$9*
0 Add four rect primitives between the rounded corners*
20,1,$1+$1,$2,$3,$4,$5,0*
20,1,$1+$1,$4,$5,$6,$7,0*
20,1,$1+$1,$6,$7,$8,$9,0*
20,1,$1+$1,$8,$9,$2,$3,0*%
G04 Aperture macros list end*
%ADD10R,0.700000X0.700000*%
%ADD11R,1.500000X0.900000*%
%ADD12R,2.350000X5.100000*%
%ADD13R,2.400000X3.100000*%
%ADD14R,2.200000X0.500000*%
%ADD15RoundRect,0.150000X0.150000X-0.512500X0.150000X0.512500X-0.150000X0.512500X-0.150000X-0.512500X0*%
G04 APERTURE END LIST*
D10*
%TO.C,U2*%
X121860000Y142900000D03*
X121860000Y141800000D03*
X121860000Y140700000D03*
X122960000Y142900000D03*
X122960000Y141800000D03*
X122960000Y140700000D03*
X124060000Y142900000D03*
X124060000Y141800000D03*
X124060000Y140700000D03*
D11*
X113250000Y148000000D03*
X113250000Y146500000D03*
X113250000Y145000000D03*
X113250000Y143500000D03*
X113250000Y142000000D03*
X113250000Y140500000D03*
X113250000Y139000000D03*
X113250000Y137500000D03*
X113250000Y136000000D03*
X130750000Y136000000D03*
X130750000Y137500000D03*
X130750000Y139000000D03*
X130750000Y140500000D03*
X130750000Y142000000D03*
X130750000Y143500000D03*
X130750000Y145000000D03*
X130750000Y146500000D03*
X130750000Y148000000D03*
%TD*%
D12*
%TO.C,L1*%
X27925000Y139000000D03*
X32075000Y139000000D03*
%TD*%
D13*
%TO.C,U1*%
X24000000Y131000000D03*
D14*
X21125000Y132905000D03*
X21125000Y131635000D03*
X21125000Y130365000D03*
X21125000Y129095000D03*
X26875000Y129095000D03*
X26875000Y130365000D03*
X26875000Y131635000D03*
X26875000Y132905000D03*
%TD*%
D15*
%TO.C,U4*%
X133860000Y11862500D03*
X134810000Y11862500D03*
X135760000Y11862500D03*
X135760000Y14137500D03*
X134810000Y14137500D03*
X133860000Y14137500D03*
%TD*%
M02*
