%TF.GenerationSoftware,KiCad,Pcbnew,10.0.6*%
%TF.CreationDate,2026-09-12T11:52:21+02:00*%
%TF.ProjectId,leaf-heat-v4,6c656166-2d68-4656-9174-2d76342e6b69,D*%
%TF.SameCoordinates,Original*%
%TF.FileFunction,Soldermask,Bot*%
%TF.FilePolarity,Negative*%
%FSLAX46Y46*%
G04 Gerber Fmt 4.6, Leading zero omitted, Abs format (unit mm)*
G04 Created by KiCad (PCBNEW 10.0.6) date 2026-09-12 11:52:21*
%MOMM*%
%LPD*%
G01*
G04 APERTURE LIST*
%ADD10C,2.000000*%
%ADD11C,0.650000*%
%ADD12C,3.000000*%
%ADD13R,1.600000X1.600000*%
%ADD14C,1.600000*%
%ADD15C,4.000000*%
%ADD16C,2.700000*%
%ADD17C,0.770000*%
%ADD18R,1.700000X1.700000*%
%ADD19C,1.700000*%
G04 APERTURE END LIST*
D10*
%TO.C,SW2*%
X122000000Y36000000D03*
X128500000Y36000000D03*
X122000000Y31500000D03*
X128500000Y31500000D03*
%TD*%
D11*
%TO.C,U2*%
X121860000Y142350000D03*
X121860000Y141250000D03*
X122410000Y142900000D03*
X122410000Y141800000D03*
X122410000Y140700000D03*
X122960000Y142350000D03*
X122960000Y141250000D03*
X123510000Y142900000D03*
X123510000Y141800000D03*
X123510000Y140700000D03*
X124060000Y142350000D03*
X124060000Y141250000D03*
%TD*%
D12*
%TO.C,TP4*%
X45000000Y115000000D03*
%TD*%
D13*
%TO.C,J1*%
X15000000Y11000000D03*
D14*
X17770000Y11000000D03*
X20540000Y11000000D03*
X23310000Y11000000D03*
X26080000Y11000000D03*
X16385000Y8160000D03*
X19155000Y8160000D03*
X21925000Y8160000D03*
X24695000Y8160000D03*
D15*
X8045001Y9580000D03*
X33035000Y9580000D03*
%TD*%
D16*
%TO.C,H1*%
X4000000Y146000000D03*
%TD*%
D10*
%TO.C,SW1*%
X107000000Y36000000D03*
X113500000Y36000000D03*
X107000000Y31500000D03*
X113500000Y31500000D03*
%TD*%
D12*
%TO.C,TP1*%
X10000000Y115000000D03*
%TD*%
%TO.C,TP2*%
X44000000Y11000000D03*
%TD*%
%TO.C,TP5*%
X12000000Y21000000D03*
%TD*%
D16*
%TO.C,H3*%
X45000000Y4000000D03*
%TD*%
D12*
%TO.C,TP7*%
X103000000Y37000000D03*
%TD*%
D17*
%TO.C,U1*%
X23350000Y132300000D03*
X23350000Y131000000D03*
X23350000Y129700000D03*
X24650000Y132300000D03*
X24650000Y131000000D03*
X24650000Y129700000D03*
%TD*%
D16*
%TO.C,H2*%
X146000000Y4000000D03*
%TD*%
%TO.C,H4*%
X146000000Y106000000D03*
%TD*%
D12*
%TO.C,TP6*%
X12000000Y27000000D03*
%TD*%
D18*
%TO.C,J3*%
X131000000Y9000000D03*
D19*
X133540000Y9000000D03*
X136080000Y9000000D03*
%TD*%
D12*
%TO.C,TP3*%
X10000000Y37000000D03*
%TD*%
M02*
