%TF.GenerationSoftware,KiCad,Pcbnew,10.0.6*%
%TF.CreationDate,2026-09-12T19:29:29+02:00*%
%TF.ProjectId,leaf-heat-v5,6c656166-2d68-4656-9174-2d76352e6b69,E*%
%TF.SameCoordinates,Original*%
%TF.FileFunction,Soldermask,Bot*%
%TF.FilePolarity,Negative*%
%FSLAX46Y46*%
G04 Gerber Fmt 4.6, Leading zero omitted, Abs format (unit mm)*
G04 Created by KiCad (PCBNEW 10.0.6) date 2026-09-12 19:29:29*
%MOMM*%
%LPD*%
G01*
G04 APERTURE LIST*
%ADD10C,2.000000*%
%ADD11C,0.650000*%
%ADD12C,3.000000*%
%ADD13R,1.600000X1.600000*%
%ADD14C,1.600000*%
%ADD15C,4.000000*%
%ADD16C,2.700000*%
%ADD17C,0.770000*%
%ADD18R,1.700000X1.700000*%
%ADD19C,1.700000*%
G04 APERTURE END LIST*
D10*
%TO.C,SW2*%
X78000000Y35000000D03*
X84500000Y35000000D03*
X78000000Y30500000D03*
X84500000Y30500000D03*
%TD*%
D11*
%TO.C,U2*%
X72860000Y92350000D03*
X72860000Y91250000D03*
X73410000Y92900000D03*
X73410000Y91800000D03*
X73410000Y90700000D03*
X73960000Y92350000D03*
X73960000Y91250000D03*
X74510000Y92900000D03*
X74510000Y91800000D03*
X74510000Y90700000D03*
X75060000Y92350000D03*
X75060000Y91250000D03*
%TD*%
D12*
%TO.C,TP4*%
X37000000Y58000000D03*
%TD*%
D13*
%TO.C,J1*%
X16000000Y9000000D03*
D14*
X18770000Y9000000D03*
X21540000Y9000000D03*
X24310000Y9000000D03*
X27080000Y9000000D03*
X17385000Y6160000D03*
X20155000Y6160000D03*
X22925000Y6160000D03*
X25695000Y6160000D03*
D15*
X9045001Y7580000D03*
X34035000Y7580000D03*
%TD*%
D16*
%TO.C,H1*%
X4000000Y96000000D03*
%TD*%
D10*
%TO.C,SW1*%
X59000000Y35000000D03*
X65500000Y35000000D03*
X59000000Y30500000D03*
X65500000Y30500000D03*
%TD*%
D12*
%TO.C,TP1*%
X8000000Y58000000D03*
%TD*%
%TO.C,TP2*%
X49000000Y9000000D03*
%TD*%
%TO.C,TP5*%
X9000000Y17000000D03*
%TD*%
D16*
%TO.C,H3*%
X45000000Y4000000D03*
%TD*%
D12*
%TO.C,TP7*%
X54000000Y32000000D03*
%TD*%
D17*
%TO.C,U1*%
X23350000Y82300000D03*
X23350000Y81000000D03*
X23350000Y79700000D03*
X24650000Y82300000D03*
X24650000Y81000000D03*
X24650000Y79700000D03*
%TD*%
D16*
%TO.C,H2*%
X96000000Y96000000D03*
%TD*%
%TO.C,H4*%
X96000000Y4000000D03*
%TD*%
D12*
%TO.C,TP6*%
X9000000Y24000000D03*
%TD*%
D18*
%TO.C,J3*%
X73000000Y8000000D03*
D19*
X75540000Y8000000D03*
X78080000Y8000000D03*
%TD*%
D12*
%TO.C,TP3*%
X29000000Y47000000D03*
%TD*%
M02*
