M48
; DRILL file KiCad 10.0.6 date 2026-09-11T22:25:59
; FORMAT={-:-/ absolute / metric / decimal}
; #@! TF.CreationDate,2026-09-11T22:25:59+02:00
; #@! TF.GenerationSoftware,Kicad,Pcbnew,10.0.6
; #@! TF.FileFunction,Plated,1,2,PTH
FMAT,2
METRIC
; #@! TA.AperFunction,Plated,PTH,ViaDrill
T1C0.300
; #@! TA.AperFunction,Plated,PTH,ComponentDrill
T2C0.300
; #@! TA.AperFunction,Plated,PTH,ComponentDrill
T3C0.330
; #@! TA.AperFunction,Plated,PTH,ComponentDrill
T4C0.600
; #@! TA.AperFunction,Plated,PTH,ComponentDrill
T5C1.200
; #@! TA.AperFunction,Plated,PTH,ComponentDrill
T6C3.200
%
G90
G05
T1
X6.5Y36.15
X9.0Y43.0
X10.8Y37.85
X13.218Y25.733
X14.433Y35.786
X14.954Y21.651
X15.782Y21.084
X16.125Y41.1
X16.365Y17.842
X16.462Y22.991
X16.877Y26.503
X20.695Y14.858
X22.003Y33.6
X27.1Y37.0
X27.973Y18.062
X29.236Y26.109
X31.524Y45.88
X34.0Y44.5
X34.0Y40.5
X34.0Y36.5
X34.93Y30.755
X36.054Y44.662
X36.825Y34.992
X37.97Y37.5
X38.02Y42.735
X40.542Y45.0
X40.544Y40.5
X40.601Y47.901
X41.206Y46.28
X43.981Y14.019
X50.434Y9.759
X52.116Y8.001
X53.106Y46.251
X54.3Y3.8
X55.05Y13.6
X55.25Y5.5
X55.45Y41.852
X55.456Y43.5
X55.466Y40.5
X56.0Y13.3
X56.0Y9.05
X56.25Y5.5
X57.3Y8.7
X57.6Y13.2
X58.095Y46.43
X58.236Y32.589
X58.4Y4.7
X59.0Y28.9
X59.675Y43.991
X60.736Y32.589
X62.5Y29.5
X63.205Y21.897
T2
X47.86Y42.35
X47.86Y41.25
X48.41Y42.9
X48.41Y41.8
X48.41Y40.7
X48.96Y42.35
X48.96Y41.25
X49.51Y42.9
X49.51Y41.8
X49.51Y40.7
X50.06Y42.35
X50.06Y41.25
T3
X18.35Y39.3
X18.35Y38.0
X18.35Y36.7
X19.65Y39.3
X19.65Y38.0
X19.65Y36.7
T5
X11.0Y11.0
X12.385Y8.16
X13.77Y11.0
X15.155Y8.16
X16.54Y11.0
X17.925Y8.16
X19.31Y11.0
X20.695Y8.16
X22.08Y11.0
T6
X4.045Y9.58
X29.035Y9.58
T4
X51.68Y6.655G85X51.68Y5.555
G05
X51.68Y2.325G85X51.68Y1.525
G05
X60.32Y6.655G85X60.32Y5.555
G05
X60.32Y2.325G85X60.32Y1.525
G05
M30
