%TF.GenerationSoftware,KiCad,Pcbnew,10.0.6*%
%TF.CreationDate,2026-09-11T22:25:59+02:00*%
%TF.ProjectId,leaf-heat-v1,6c656166-2d68-4656-9174-2d76312e6b69,rev?*%
%TF.SameCoordinates,Original*%
%TF.FileFunction,Legend,Bot*%
%TF.FilePolarity,Positive*%
%FSLAX46Y46*%
G04 Gerber Fmt 4.6, Leading zero omitted, Abs format (unit mm)*
G04 Created by KiCad (PCBNEW 10.0.6) date 2026-09-11 22:25:59*
%MOMM*%
%LPD*%
G01*
G04 APERTURE LIST*
%ADD10C,0.130000*%
G04 APERTURE END LIST*
D10*
X33357143Y20544141D02*
X33357143Y21544141D01*
X33357143Y21544141D02*
X32785715Y20544141D01*
X32785715Y20544141D02*
X32785715Y21544141D01*
X32309524Y20544141D02*
X32309524Y21210808D01*
X32309524Y21544141D02*
X32357143Y21496522D01*
X32357143Y21496522D02*
X32309524Y21448903D01*
X32309524Y21448903D02*
X32261905Y21496522D01*
X32261905Y21496522D02*
X32309524Y21544141D01*
X32309524Y21544141D02*
X32309524Y21448903D01*
X31880953Y20591760D02*
X31785715Y20544141D01*
X31785715Y20544141D02*
X31595239Y20544141D01*
X31595239Y20544141D02*
X31500001Y20591760D01*
X31500001Y20591760D02*
X31452382Y20686999D01*
X31452382Y20686999D02*
X31452382Y20734618D01*
X31452382Y20734618D02*
X31500001Y20829856D01*
X31500001Y20829856D02*
X31595239Y20877475D01*
X31595239Y20877475D02*
X31738096Y20877475D01*
X31738096Y20877475D02*
X31833334Y20925094D01*
X31833334Y20925094D02*
X31880953Y21020332D01*
X31880953Y21020332D02*
X31880953Y21067951D01*
X31880953Y21067951D02*
X31833334Y21163189D01*
X31833334Y21163189D02*
X31738096Y21210808D01*
X31738096Y21210808D02*
X31595239Y21210808D01*
X31595239Y21210808D02*
X31500001Y21163189D01*
X31071429Y20591760D02*
X30976191Y20544141D01*
X30976191Y20544141D02*
X30785715Y20544141D01*
X30785715Y20544141D02*
X30690477Y20591760D01*
X30690477Y20591760D02*
X30642858Y20686999D01*
X30642858Y20686999D02*
X30642858Y20734618D01*
X30642858Y20734618D02*
X30690477Y20829856D01*
X30690477Y20829856D02*
X30785715Y20877475D01*
X30785715Y20877475D02*
X30928572Y20877475D01*
X30928572Y20877475D02*
X31023810Y20925094D01*
X31023810Y20925094D02*
X31071429Y21020332D01*
X31071429Y21020332D02*
X31071429Y21067951D01*
X31071429Y21067951D02*
X31023810Y21163189D01*
X31023810Y21163189D02*
X30928572Y21210808D01*
X30928572Y21210808D02*
X30785715Y21210808D01*
X30785715Y21210808D02*
X30690477Y21163189D01*
X29785715Y20544141D02*
X29785715Y21067951D01*
X29785715Y21067951D02*
X29833334Y21163189D01*
X29833334Y21163189D02*
X29928572Y21210808D01*
X29928572Y21210808D02*
X30119048Y21210808D01*
X30119048Y21210808D02*
X30214286Y21163189D01*
X29785715Y20591760D02*
X29880953Y20544141D01*
X29880953Y20544141D02*
X30119048Y20544141D01*
X30119048Y20544141D02*
X30214286Y20591760D01*
X30214286Y20591760D02*
X30261905Y20686999D01*
X30261905Y20686999D02*
X30261905Y20782237D01*
X30261905Y20782237D02*
X30214286Y20877475D01*
X30214286Y20877475D02*
X30119048Y20925094D01*
X30119048Y20925094D02*
X29880953Y20925094D01*
X29880953Y20925094D02*
X29785715Y20972713D01*
X29309524Y21210808D02*
X29309524Y20544141D01*
X29309524Y21115570D02*
X29261905Y21163189D01*
X29261905Y21163189D02*
X29166667Y21210808D01*
X29166667Y21210808D02*
X29023810Y21210808D01*
X29023810Y21210808D02*
X28928572Y21163189D01*
X28928572Y21163189D02*
X28880953Y21067951D01*
X28880953Y21067951D02*
X28880953Y20544141D01*
X27738095Y21544141D02*
X27071429Y21544141D01*
X27071429Y21544141D02*
X27738095Y20544141D01*
X27738095Y20544141D02*
X27071429Y20544141D01*
X26690476Y21067951D02*
X26357143Y21067951D01*
X26214286Y20544141D02*
X26690476Y20544141D01*
X26690476Y20544141D02*
X26690476Y21544141D01*
X26690476Y21544141D02*
X26214286Y21544141D01*
X25595238Y21544141D02*
X25500000Y21544141D01*
X25500000Y21544141D02*
X25404762Y21496522D01*
X25404762Y21496522D02*
X25357143Y21448903D01*
X25357143Y21448903D02*
X25309524Y21353665D01*
X25309524Y21353665D02*
X25261905Y21163189D01*
X25261905Y21163189D02*
X25261905Y20925094D01*
X25261905Y20925094D02*
X25309524Y20734618D01*
X25309524Y20734618D02*
X25357143Y20639380D01*
X25357143Y20639380D02*
X25404762Y20591760D01*
X25404762Y20591760D02*
X25500000Y20544141D01*
X25500000Y20544141D02*
X25595238Y20544141D01*
X25595238Y20544141D02*
X25690476Y20591760D01*
X25690476Y20591760D02*
X25738095Y20639380D01*
X25738095Y20639380D02*
X25785714Y20734618D01*
X25785714Y20734618D02*
X25833333Y20925094D01*
X25833333Y20925094D02*
X25833333Y21163189D01*
X25833333Y21163189D02*
X25785714Y21353665D01*
X25785714Y21353665D02*
X25738095Y21448903D01*
X25738095Y21448903D02*
X25690476Y21496522D01*
X25690476Y21496522D02*
X25595238Y21544141D01*
X23642857Y20591760D02*
X23738095Y20544141D01*
X23738095Y20544141D02*
X23928571Y20544141D01*
X23928571Y20544141D02*
X24023809Y20591760D01*
X24023809Y20591760D02*
X24071428Y20639380D01*
X24071428Y20639380D02*
X24119047Y20734618D01*
X24119047Y20734618D02*
X24119047Y21020332D01*
X24119047Y21020332D02*
X24071428Y21115570D01*
X24071428Y21115570D02*
X24023809Y21163189D01*
X24023809Y21163189D02*
X23928571Y21210808D01*
X23928571Y21210808D02*
X23738095Y21210808D01*
X23738095Y21210808D02*
X23642857Y21163189D01*
X22785714Y20544141D02*
X22785714Y21067951D01*
X22785714Y21067951D02*
X22833333Y21163189D01*
X22833333Y21163189D02*
X22928571Y21210808D01*
X22928571Y21210808D02*
X23119047Y21210808D01*
X23119047Y21210808D02*
X23214285Y21163189D01*
X22785714Y20591760D02*
X22880952Y20544141D01*
X22880952Y20544141D02*
X23119047Y20544141D01*
X23119047Y20544141D02*
X23214285Y20591760D01*
X23214285Y20591760D02*
X23261904Y20686999D01*
X23261904Y20686999D02*
X23261904Y20782237D01*
X23261904Y20782237D02*
X23214285Y20877475D01*
X23214285Y20877475D02*
X23119047Y20925094D01*
X23119047Y20925094D02*
X22880952Y20925094D01*
X22880952Y20925094D02*
X22785714Y20972713D01*
X22309523Y20544141D02*
X22309523Y21544141D01*
X22309523Y21163189D02*
X22214285Y21210808D01*
X22214285Y21210808D02*
X22023809Y21210808D01*
X22023809Y21210808D02*
X21928571Y21163189D01*
X21928571Y21163189D02*
X21880952Y21115570D01*
X21880952Y21115570D02*
X21833333Y21020332D01*
X21833333Y21020332D02*
X21833333Y20734618D01*
X21833333Y20734618D02*
X21880952Y20639380D01*
X21880952Y20639380D02*
X21928571Y20591760D01*
X21928571Y20591760D02*
X22023809Y20544141D01*
X22023809Y20544141D02*
X22214285Y20544141D01*
X22214285Y20544141D02*
X22309523Y20591760D01*
X21261904Y20544141D02*
X21357142Y20591760D01*
X21357142Y20591760D02*
X21404761Y20686999D01*
X21404761Y20686999D02*
X21404761Y21544141D01*
X20499999Y20591760D02*
X20595237Y20544141D01*
X20595237Y20544141D02*
X20785713Y20544141D01*
X20785713Y20544141D02*
X20880951Y20591760D01*
X20880951Y20591760D02*
X20928570Y20686999D01*
X20928570Y20686999D02*
X20928570Y21067951D01*
X20928570Y21067951D02*
X20880951Y21163189D01*
X20880951Y21163189D02*
X20785713Y21210808D01*
X20785713Y21210808D02*
X20595237Y21210808D01*
X20595237Y21210808D02*
X20499999Y21163189D01*
X20499999Y21163189D02*
X20452380Y21067951D01*
X20452380Y21067951D02*
X20452380Y20972713D01*
X20452380Y20972713D02*
X20928570Y20877475D01*
X19119046Y20544141D02*
X19214284Y20591760D01*
X19214284Y20591760D02*
X19261903Y20639380D01*
X19261903Y20639380D02*
X19309522Y20734618D01*
X19309522Y20734618D02*
X19309522Y21020332D01*
X19309522Y21020332D02*
X19261903Y21115570D01*
X19261903Y21115570D02*
X19214284Y21163189D01*
X19214284Y21163189D02*
X19119046Y21210808D01*
X19119046Y21210808D02*
X18976189Y21210808D01*
X18976189Y21210808D02*
X18880951Y21163189D01*
X18880951Y21163189D02*
X18833332Y21115570D01*
X18833332Y21115570D02*
X18785713Y21020332D01*
X18785713Y21020332D02*
X18785713Y20734618D01*
X18785713Y20734618D02*
X18833332Y20639380D01*
X18833332Y20639380D02*
X18880951Y20591760D01*
X18880951Y20591760D02*
X18976189Y20544141D01*
X18976189Y20544141D02*
X19119046Y20544141D01*
X18357141Y21210808D02*
X18357141Y20544141D01*
X18357141Y21115570D02*
X18309522Y21163189D01*
X18309522Y21163189D02*
X18214284Y21210808D01*
X18214284Y21210808D02*
X18071427Y21210808D01*
X18071427Y21210808D02*
X17976189Y21163189D01*
X17976189Y21163189D02*
X17928570Y21067951D01*
X17928570Y21067951D02*
X17928570Y20544141D01*
X17309522Y20544141D02*
X17404760Y20591760D01*
X17404760Y20591760D02*
X17452379Y20686999D01*
X17452379Y20686999D02*
X17452379Y21544141D01*
X17023807Y21210808D02*
X16785712Y20544141D01*
X16547617Y21210808D02*
X16785712Y20544141D01*
X16785712Y20544141D02*
X16880950Y20306046D01*
X16880950Y20306046D02*
X16928569Y20258427D01*
X16928569Y20258427D02*
X17023807Y20210808D01*
X33214285Y17544141D02*
X33785713Y17544141D01*
X33499999Y17544141D02*
X33499999Y18544141D01*
X33499999Y18544141D02*
X33595237Y18401284D01*
X33595237Y18401284D02*
X33690475Y18306046D01*
X33690475Y18306046D02*
X33785713Y18258427D01*
X32833332Y18448903D02*
X32785713Y18496522D01*
X32785713Y18496522D02*
X32690475Y18544141D01*
X32690475Y18544141D02*
X32452380Y18544141D01*
X32452380Y18544141D02*
X32357142Y18496522D01*
X32357142Y18496522D02*
X32309523Y18448903D01*
X32309523Y18448903D02*
X32261904Y18353665D01*
X32261904Y18353665D02*
X32261904Y18258427D01*
X32261904Y18258427D02*
X32309523Y18115570D01*
X32309523Y18115570D02*
X32880951Y17544141D01*
X32880951Y17544141D02*
X32261904Y17544141D01*
X31976189Y18544141D02*
X31642856Y17544141D01*
X31642856Y17544141D02*
X31309523Y18544141D01*
X30976189Y17639380D02*
X30928570Y17591760D01*
X30928570Y17591760D02*
X30976189Y17544141D01*
X30976189Y17544141D02*
X31023808Y17591760D01*
X31023808Y17591760D02*
X30976189Y17639380D01*
X30976189Y17639380D02*
X30976189Y17544141D01*
X30976189Y18163189D02*
X30928570Y18115570D01*
X30928570Y18115570D02*
X30976189Y18067951D01*
X30976189Y18067951D02*
X31023808Y18115570D01*
X31023808Y18115570D02*
X30976189Y18163189D01*
X30976189Y18163189D02*
X30976189Y18067951D01*
X30452380Y17544141D02*
X30261904Y17544141D01*
X30261904Y17544141D02*
X30166666Y17591760D01*
X30166666Y17591760D02*
X30119047Y17639380D01*
X30119047Y17639380D02*
X30023809Y17782237D01*
X30023809Y17782237D02*
X29976190Y17972713D01*
X29976190Y17972713D02*
X29976190Y18353665D01*
X29976190Y18353665D02*
X30023809Y18448903D01*
X30023809Y18448903D02*
X30071428Y18496522D01*
X30071428Y18496522D02*
X30166666Y18544141D01*
X30166666Y18544141D02*
X30357142Y18544141D01*
X30357142Y18544141D02*
X30452380Y18496522D01*
X30452380Y18496522D02*
X30499999Y18448903D01*
X30499999Y18448903D02*
X30547618Y18353665D01*
X30547618Y18353665D02*
X30547618Y18115570D01*
X30547618Y18115570D02*
X30499999Y18020332D01*
X30499999Y18020332D02*
X30452380Y17972713D01*
X30452380Y17972713D02*
X30357142Y17925094D01*
X30357142Y17925094D02*
X30166666Y17925094D01*
X30166666Y17925094D02*
X30071428Y17972713D01*
X30071428Y17972713D02*
X30023809Y18020332D01*
X30023809Y18020332D02*
X29976190Y18115570D01*
X27499999Y18496522D02*
X27595237Y18544141D01*
X27595237Y18544141D02*
X27738094Y18544141D01*
X27738094Y18544141D02*
X27880951Y18496522D01*
X27880951Y18496522D02*
X27976189Y18401284D01*
X27976189Y18401284D02*
X28023808Y18306046D01*
X28023808Y18306046D02*
X28071427Y18115570D01*
X28071427Y18115570D02*
X28071427Y17972713D01*
X28071427Y17972713D02*
X28023808Y17782237D01*
X28023808Y17782237D02*
X27976189Y17686999D01*
X27976189Y17686999D02*
X27880951Y17591760D01*
X27880951Y17591760D02*
X27738094Y17544141D01*
X27738094Y17544141D02*
X27642856Y17544141D01*
X27642856Y17544141D02*
X27499999Y17591760D01*
X27499999Y17591760D02*
X27452380Y17639380D01*
X27452380Y17639380D02*
X27452380Y17972713D01*
X27452380Y17972713D02*
X27642856Y17972713D01*
X27023808Y17544141D02*
X27023808Y18544141D01*
X27023808Y18544141D02*
X26452380Y17544141D01*
X26452380Y17544141D02*
X26452380Y18544141D01*
X25976189Y17544141D02*
X25976189Y18544141D01*
X25976189Y18544141D02*
X25738094Y18544141D01*
X25738094Y18544141D02*
X25595237Y18496522D01*
X25595237Y18496522D02*
X25499999Y18401284D01*
X25499999Y18401284D02*
X25452380Y18306046D01*
X25452380Y18306046D02*
X25404761Y18115570D01*
X25404761Y18115570D02*
X25404761Y17972713D01*
X25404761Y17972713D02*
X25452380Y17782237D01*
X25452380Y17782237D02*
X25499999Y17686999D01*
X25499999Y17686999D02*
X25595237Y17591760D01*
X25595237Y17591760D02*
X25738094Y17544141D01*
X25738094Y17544141D02*
X25976189Y17544141D01*
X24976189Y17639380D02*
X24928570Y17591760D01*
X24928570Y17591760D02*
X24976189Y17544141D01*
X24976189Y17544141D02*
X25023808Y17591760D01*
X25023808Y17591760D02*
X24976189Y17639380D01*
X24976189Y17639380D02*
X24976189Y17544141D01*
X24976189Y18163189D02*
X24928570Y18115570D01*
X24928570Y18115570D02*
X24976189Y18067951D01*
X24976189Y18067951D02*
X25023808Y18115570D01*
X25023808Y18115570D02*
X24976189Y18163189D01*
X24976189Y18163189D02*
X24976189Y18067951D01*
X24595237Y18544141D02*
X23976190Y18544141D01*
X23976190Y18544141D02*
X24309523Y18163189D01*
X24309523Y18163189D02*
X24166666Y18163189D01*
X24166666Y18163189D02*
X24071428Y18115570D01*
X24071428Y18115570D02*
X24023809Y18067951D01*
X24023809Y18067951D02*
X23976190Y17972713D01*
X23976190Y17972713D02*
X23976190Y17734618D01*
X23976190Y17734618D02*
X24023809Y17639380D01*
X24023809Y17639380D02*
X24071428Y17591760D01*
X24071428Y17591760D02*
X24166666Y17544141D01*
X24166666Y17544141D02*
X24452380Y17544141D01*
X24452380Y17544141D02*
X24547618Y17591760D01*
X24547618Y17591760D02*
X24595237Y17639380D01*
X22023808Y17544141D02*
X22023808Y18544141D01*
X22023808Y18067951D02*
X21452380Y18067951D01*
X21452380Y17544141D02*
X21452380Y18544141D01*
X20976189Y17639380D02*
X20928570Y17591760D01*
X20928570Y17591760D02*
X20976189Y17544141D01*
X20976189Y17544141D02*
X21023808Y17591760D01*
X21023808Y17591760D02*
X20976189Y17639380D01*
X20976189Y17639380D02*
X20976189Y17544141D01*
X20976189Y18163189D02*
X20928570Y18115570D01*
X20928570Y18115570D02*
X20976189Y18067951D01*
X20976189Y18067951D02*
X21023808Y18115570D01*
X21023808Y18115570D02*
X20976189Y18163189D01*
X20976189Y18163189D02*
X20976189Y18067951D01*
X20595237Y18544141D02*
X19928571Y18544141D01*
X19928571Y18544141D02*
X20357142Y17544141D01*
X17547618Y17544141D02*
X18023808Y17544141D01*
X18023808Y17544141D02*
X18023808Y18544141D01*
X17214284Y17639380D02*
X17166665Y17591760D01*
X17166665Y17591760D02*
X17214284Y17544141D01*
X17214284Y17544141D02*
X17261903Y17591760D01*
X17261903Y17591760D02*
X17214284Y17639380D01*
X17214284Y17639380D02*
X17214284Y17544141D01*
X17214284Y18163189D02*
X17166665Y18115570D01*
X17166665Y18115570D02*
X17214284Y18067951D01*
X17214284Y18067951D02*
X17261903Y18115570D01*
X17261903Y18115570D02*
X17214284Y18163189D01*
X17214284Y18163189D02*
X17214284Y18067951D01*
X16785713Y18448903D02*
X16738094Y18496522D01*
X16738094Y18496522D02*
X16642856Y18544141D01*
X16642856Y18544141D02*
X16404761Y18544141D01*
X16404761Y18544141D02*
X16309523Y18496522D01*
X16309523Y18496522D02*
X16261904Y18448903D01*
X16261904Y18448903D02*
X16214285Y18353665D01*
X16214285Y18353665D02*
X16214285Y18258427D01*
X16214285Y18258427D02*
X16261904Y18115570D01*
X16261904Y18115570D02*
X16833332Y17544141D01*
X16833332Y17544141D02*
X16214285Y17544141D01*
X32785713Y14544141D02*
X32785713Y15544141D01*
X32785713Y15544141D02*
X32214285Y14544141D01*
X32214285Y14544141D02*
X32214285Y15544141D01*
X31547618Y15544141D02*
X31357142Y15544141D01*
X31357142Y15544141D02*
X31261904Y15496522D01*
X31261904Y15496522D02*
X31166666Y15401284D01*
X31166666Y15401284D02*
X31119047Y15210808D01*
X31119047Y15210808D02*
X31119047Y14877475D01*
X31119047Y14877475D02*
X31166666Y14686999D01*
X31166666Y14686999D02*
X31261904Y14591760D01*
X31261904Y14591760D02*
X31357142Y14544141D01*
X31357142Y14544141D02*
X31547618Y14544141D01*
X31547618Y14544141D02*
X31642856Y14591760D01*
X31642856Y14591760D02*
X31738094Y14686999D01*
X31738094Y14686999D02*
X31785713Y14877475D01*
X31785713Y14877475D02*
X31785713Y15210808D01*
X31785713Y15210808D02*
X31738094Y15401284D01*
X31738094Y15401284D02*
X31642856Y15496522D01*
X31642856Y15496522D02*
X31547618Y15544141D01*
X29357142Y14639380D02*
X29404761Y14591760D01*
X29404761Y14591760D02*
X29547618Y14544141D01*
X29547618Y14544141D02*
X29642856Y14544141D01*
X29642856Y14544141D02*
X29785713Y14591760D01*
X29785713Y14591760D02*
X29880951Y14686999D01*
X29880951Y14686999D02*
X29928570Y14782237D01*
X29928570Y14782237D02*
X29976189Y14972713D01*
X29976189Y14972713D02*
X29976189Y15115570D01*
X29976189Y15115570D02*
X29928570Y15306046D01*
X29928570Y15306046D02*
X29880951Y15401284D01*
X29880951Y15401284D02*
X29785713Y15496522D01*
X29785713Y15496522D02*
X29642856Y15544141D01*
X29642856Y15544141D02*
X29547618Y15544141D01*
X29547618Y15544141D02*
X29404761Y15496522D01*
X29404761Y15496522D02*
X29357142Y15448903D01*
X28976189Y14829856D02*
X28499999Y14829856D01*
X29071427Y14544141D02*
X28738094Y15544141D01*
X28738094Y15544141D02*
X28404761Y14544141D01*
X28071427Y14544141D02*
X28071427Y15544141D01*
X28071427Y15544141D02*
X27499999Y14544141D01*
X27499999Y14544141D02*
X27499999Y15544141D01*
X26404760Y15544141D02*
X25833332Y15544141D01*
X26119046Y14544141D02*
X26119046Y15544141D01*
X25499998Y15067951D02*
X25166665Y15067951D01*
X25023808Y14544141D02*
X25499998Y14544141D01*
X25499998Y14544141D02*
X25499998Y15544141D01*
X25499998Y15544141D02*
X25023808Y15544141D01*
X24023808Y14544141D02*
X24357141Y15020332D01*
X24595236Y14544141D02*
X24595236Y15544141D01*
X24595236Y15544141D02*
X24214284Y15544141D01*
X24214284Y15544141D02*
X24119046Y15496522D01*
X24119046Y15496522D02*
X24071427Y15448903D01*
X24071427Y15448903D02*
X24023808Y15353665D01*
X24023808Y15353665D02*
X24023808Y15210808D01*
X24023808Y15210808D02*
X24071427Y15115570D01*
X24071427Y15115570D02*
X24119046Y15067951D01*
X24119046Y15067951D02*
X24214284Y15020332D01*
X24214284Y15020332D02*
X24595236Y15020332D01*
X23595236Y14544141D02*
X23595236Y15544141D01*
X23595236Y15544141D02*
X23261903Y14829856D01*
X23261903Y14829856D02*
X22928570Y15544141D01*
X22928570Y15544141D02*
X22928570Y14544141D01*
X22452379Y14544141D02*
X22452379Y15544141D01*
X21976189Y14544141D02*
X21976189Y15544141D01*
X21976189Y15544141D02*
X21404761Y14544141D01*
X21404761Y14544141D02*
X21404761Y15544141D01*
X20976189Y14829856D02*
X20499999Y14829856D01*
X21071427Y14544141D02*
X20738094Y15544141D01*
X20738094Y15544141D02*
X20404761Y14544141D01*
X20214284Y15544141D02*
X19642856Y15544141D01*
X19928570Y14544141D02*
X19928570Y15544141D01*
X19309522Y14544141D02*
X19309522Y15544141D01*
X18642856Y15544141D02*
X18452380Y15544141D01*
X18452380Y15544141D02*
X18357142Y15496522D01*
X18357142Y15496522D02*
X18261904Y15401284D01*
X18261904Y15401284D02*
X18214285Y15210808D01*
X18214285Y15210808D02*
X18214285Y14877475D01*
X18214285Y14877475D02*
X18261904Y14686999D01*
X18261904Y14686999D02*
X18357142Y14591760D01*
X18357142Y14591760D02*
X18452380Y14544141D01*
X18452380Y14544141D02*
X18642856Y14544141D01*
X18642856Y14544141D02*
X18738094Y14591760D01*
X18738094Y14591760D02*
X18833332Y14686999D01*
X18833332Y14686999D02*
X18880951Y14877475D01*
X18880951Y14877475D02*
X18880951Y15210808D01*
X18880951Y15210808D02*
X18833332Y15401284D01*
X18833332Y15401284D02*
X18738094Y15496522D01*
X18738094Y15496522D02*
X18642856Y15544141D01*
X17785713Y14544141D02*
X17785713Y15544141D01*
X17785713Y15544141D02*
X17214285Y14544141D01*
X17214285Y14544141D02*
X17214285Y15544141D01*
X42661904Y26074070D02*
X42295237Y26074070D01*
X42138094Y25497880D02*
X42661904Y25497880D01*
X42661904Y25497880D02*
X42661904Y26597880D01*
X42661904Y26597880D02*
X42138094Y26597880D01*
X41666666Y25497880D02*
X41666666Y26597880D01*
X41666666Y26597880D02*
X41038094Y25497880D01*
X41038094Y25497880D02*
X41038094Y26597880D01*
X39938094Y26545499D02*
X40042856Y26597880D01*
X40042856Y26597880D02*
X40199999Y26597880D01*
X40199999Y26597880D02*
X40357142Y26545499D01*
X40357142Y26545499D02*
X40461904Y26440737D01*
X40461904Y26440737D02*
X40514285Y26335975D01*
X40514285Y26335975D02*
X40566666Y26126451D01*
X40566666Y26126451D02*
X40566666Y25969308D01*
X40566666Y25969308D02*
X40514285Y25759784D01*
X40514285Y25759784D02*
X40461904Y25655022D01*
X40461904Y25655022D02*
X40357142Y25550260D01*
X40357142Y25550260D02*
X40199999Y25497880D01*
X40199999Y25497880D02*
X40095237Y25497880D01*
X40095237Y25497880D02*
X39938094Y25550260D01*
X39938094Y25550260D02*
X39885713Y25602641D01*
X39885713Y25602641D02*
X39885713Y25969308D01*
X39885713Y25969308D02*
X40095237Y25969308D01*
X39414285Y25497880D02*
X39414285Y26597880D01*
X38890475Y25497880D02*
X38890475Y26597880D01*
X38890475Y26597880D02*
X38261903Y25497880D01*
X38261903Y25497880D02*
X38261903Y26597880D01*
X37738094Y26074070D02*
X37371427Y26074070D01*
X37214284Y25497880D02*
X37738094Y25497880D01*
X37738094Y25497880D02*
X37738094Y26597880D01*
X37738094Y26597880D02*
X37214284Y26597880D01*
X36742856Y26074070D02*
X36376189Y26074070D01*
X36219046Y25497880D02*
X36742856Y25497880D01*
X36742856Y25497880D02*
X36742856Y26597880D01*
X36742856Y26597880D02*
X36219046Y26597880D01*
X35119046Y25497880D02*
X35485713Y26021689D01*
X35747618Y25497880D02*
X35747618Y26597880D01*
X35747618Y26597880D02*
X35328570Y26597880D01*
X35328570Y26597880D02*
X35223808Y26545499D01*
X35223808Y26545499D02*
X35171427Y26493118D01*
X35171427Y26493118D02*
X35119046Y26388356D01*
X35119046Y26388356D02*
X35119046Y26231213D01*
X35119046Y26231213D02*
X35171427Y26126451D01*
X35171427Y26126451D02*
X35223808Y26074070D01*
X35223808Y26074070D02*
X35328570Y26021689D01*
X35328570Y26021689D02*
X35747618Y26021689D01*
X34647618Y25497880D02*
X34647618Y26597880D01*
X34123808Y25497880D02*
X34123808Y26597880D01*
X34123808Y26597880D02*
X33495236Y25497880D01*
X33495236Y25497880D02*
X33495236Y26597880D01*
X32395236Y26545499D02*
X32499998Y26597880D01*
X32499998Y26597880D02*
X32657141Y26597880D01*
X32657141Y26597880D02*
X32814284Y26545499D01*
X32814284Y26545499D02*
X32919046Y26440737D01*
X32919046Y26440737D02*
X32971427Y26335975D01*
X32971427Y26335975D02*
X33023808Y26126451D01*
X33023808Y26126451D02*
X33023808Y25969308D01*
X33023808Y25969308D02*
X32971427Y25759784D01*
X32971427Y25759784D02*
X32919046Y25655022D01*
X32919046Y25655022D02*
X32814284Y25550260D01*
X32814284Y25550260D02*
X32657141Y25497880D01*
X32657141Y25497880D02*
X32552379Y25497880D01*
X32552379Y25497880D02*
X32395236Y25550260D01*
X32395236Y25550260D02*
X32342855Y25602641D01*
X32342855Y25602641D02*
X32342855Y25969308D01*
X32342855Y25969308D02*
X32552379Y25969308D01*
X31033332Y25497880D02*
X31033332Y26597880D01*
X31033332Y26597880D02*
X30614284Y26597880D01*
X30614284Y26597880D02*
X30509522Y26545499D01*
X30509522Y26545499D02*
X30457141Y26493118D01*
X30457141Y26493118D02*
X30404760Y26388356D01*
X30404760Y26388356D02*
X30404760Y26231213D01*
X30404760Y26231213D02*
X30457141Y26126451D01*
X30457141Y26126451D02*
X30509522Y26074070D01*
X30509522Y26074070D02*
X30614284Y26021689D01*
X30614284Y26021689D02*
X31033332Y26021689D01*
X29304760Y25497880D02*
X29671427Y26021689D01*
X29933332Y25497880D02*
X29933332Y26597880D01*
X29933332Y26597880D02*
X29514284Y26597880D01*
X29514284Y26597880D02*
X29409522Y26545499D01*
X29409522Y26545499D02*
X29357141Y26493118D01*
X29357141Y26493118D02*
X29304760Y26388356D01*
X29304760Y26388356D02*
X29304760Y26231213D01*
X29304760Y26231213D02*
X29357141Y26126451D01*
X29357141Y26126451D02*
X29409522Y26074070D01*
X29409522Y26074070D02*
X29514284Y26021689D01*
X29514284Y26021689D02*
X29933332Y26021689D01*
X28623808Y26597880D02*
X28414284Y26597880D01*
X28414284Y26597880D02*
X28309522Y26545499D01*
X28309522Y26545499D02*
X28204760Y26440737D01*
X28204760Y26440737D02*
X28152379Y26231213D01*
X28152379Y26231213D02*
X28152379Y25864546D01*
X28152379Y25864546D02*
X28204760Y25655022D01*
X28204760Y25655022D02*
X28309522Y25550260D01*
X28309522Y25550260D02*
X28414284Y25497880D01*
X28414284Y25497880D02*
X28623808Y25497880D01*
X28623808Y25497880D02*
X28728570Y25550260D01*
X28728570Y25550260D02*
X28833332Y25655022D01*
X28833332Y25655022D02*
X28885713Y25864546D01*
X28885713Y25864546D02*
X28885713Y26231213D01*
X28885713Y26231213D02*
X28833332Y26440737D01*
X28833332Y26440737D02*
X28728570Y26545499D01*
X28728570Y26545499D02*
X28623808Y26597880D01*
X27838094Y26597880D02*
X27209522Y26597880D01*
X27523808Y25497880D02*
X27523808Y26597880D01*
X26633332Y26597880D02*
X26423808Y26597880D01*
X26423808Y26597880D02*
X26319046Y26545499D01*
X26319046Y26545499D02*
X26214284Y26440737D01*
X26214284Y26440737D02*
X26161903Y26231213D01*
X26161903Y26231213D02*
X26161903Y25864546D01*
X26161903Y25864546D02*
X26214284Y25655022D01*
X26214284Y25655022D02*
X26319046Y25550260D01*
X26319046Y25550260D02*
X26423808Y25497880D01*
X26423808Y25497880D02*
X26633332Y25497880D01*
X26633332Y25497880D02*
X26738094Y25550260D01*
X26738094Y25550260D02*
X26842856Y25655022D01*
X26842856Y25655022D02*
X26895237Y25864546D01*
X26895237Y25864546D02*
X26895237Y26231213D01*
X26895237Y26231213D02*
X26842856Y26440737D01*
X26842856Y26440737D02*
X26738094Y26545499D01*
X26738094Y26545499D02*
X26633332Y26597880D01*
X25847618Y26597880D02*
X25219046Y26597880D01*
X25533332Y25497880D02*
X25533332Y26597880D01*
X24642856Y26021689D02*
X24642856Y25497880D01*
X25009523Y26597880D02*
X24642856Y26021689D01*
X24642856Y26021689D02*
X24276189Y26597880D01*
X23909523Y25497880D02*
X23909523Y26597880D01*
X23909523Y26597880D02*
X23490475Y26597880D01*
X23490475Y26597880D02*
X23385713Y26545499D01*
X23385713Y26545499D02*
X23333332Y26493118D01*
X23333332Y26493118D02*
X23280951Y26388356D01*
X23280951Y26388356D02*
X23280951Y26231213D01*
X23280951Y26231213D02*
X23333332Y26126451D01*
X23333332Y26126451D02*
X23385713Y26074070D01*
X23385713Y26074070D02*
X23490475Y26021689D01*
X23490475Y26021689D02*
X23909523Y26021689D01*
X22809523Y26074070D02*
X22442856Y26074070D01*
X22285713Y25497880D02*
X22809523Y25497880D01*
X22809523Y25497880D02*
X22809523Y26597880D01*
X22809523Y26597880D02*
X22285713Y26597880D01*
X46171428Y29174046D02*
X46771428Y30031189D01*
X47199999Y29174046D02*
X47199999Y30974046D01*
X47199999Y30974046D02*
X46514285Y30974046D01*
X46514285Y30974046D02*
X46342856Y30888332D01*
X46342856Y30888332D02*
X46257142Y30802618D01*
X46257142Y30802618D02*
X46171428Y30631189D01*
X46171428Y30631189D02*
X46171428Y30374046D01*
X46171428Y30374046D02*
X46257142Y30202618D01*
X46257142Y30202618D02*
X46342856Y30116903D01*
X46342856Y30116903D02*
X46514285Y30031189D01*
X46514285Y30031189D02*
X47199999Y30031189D01*
X45399999Y30116903D02*
X44799999Y30116903D01*
X44542856Y29174046D02*
X45399999Y29174046D01*
X45399999Y29174046D02*
X45399999Y30974046D01*
X45399999Y30974046D02*
X44542856Y30974046D01*
X44028571Y30974046D02*
X43428571Y29174046D01*
X43428571Y29174046D02*
X42828571Y30974046D01*
X40942856Y29688332D02*
X40085714Y29688332D01*
X41114285Y29174046D02*
X40514285Y30974046D01*
X40514285Y30974046D02*
X39914285Y29174046D01*
X36657142Y31059760D02*
X38199999Y28745475D01*
X34857142Y30974046D02*
X34428570Y29174046D01*
X34428570Y29174046D02*
X34085713Y30459760D01*
X34085713Y30459760D02*
X33742856Y29174046D01*
X33742856Y29174046D02*
X33314285Y30974046D01*
X32628570Y29174046D02*
X32628570Y30374046D01*
X32628570Y30974046D02*
X32714284Y30888332D01*
X32714284Y30888332D02*
X32628570Y30802618D01*
X32628570Y30802618D02*
X32542856Y30888332D01*
X32542856Y30888332D02*
X32628570Y30974046D01*
X32628570Y30974046D02*
X32628570Y30802618D01*
X31771427Y29859760D02*
X30399999Y29859760D01*
X28942856Y30116903D02*
X29542856Y30116903D01*
X29542856Y29174046D02*
X29542856Y30974046D01*
X29542856Y30974046D02*
X28685713Y30974046D01*
X27999999Y29174046D02*
X27999999Y30374046D01*
X27999999Y30974046D02*
X28085713Y30888332D01*
X28085713Y30888332D02*
X27999999Y30802618D01*
X27999999Y30802618D02*
X27914285Y30888332D01*
X27914285Y30888332D02*
X27999999Y30974046D01*
X27999999Y30974046D02*
X27999999Y30802618D01*
X25771427Y29859760D02*
X24399999Y29859760D01*
X25085713Y29174046D02*
X25085713Y30545475D01*
X21142856Y29345475D02*
X21228570Y29259760D01*
X21228570Y29259760D02*
X21485713Y29174046D01*
X21485713Y29174046D02*
X21657141Y29174046D01*
X21657141Y29174046D02*
X21914284Y29259760D01*
X21914284Y29259760D02*
X22085713Y29431189D01*
X22085713Y29431189D02*
X22171427Y29602618D01*
X22171427Y29602618D02*
X22257141Y29945475D01*
X22257141Y29945475D02*
X22257141Y30202618D01*
X22257141Y30202618D02*
X22171427Y30545475D01*
X22171427Y30545475D02*
X22085713Y30716903D01*
X22085713Y30716903D02*
X21914284Y30888332D01*
X21914284Y30888332D02*
X21657141Y30974046D01*
X21657141Y30974046D02*
X21485713Y30974046D01*
X21485713Y30974046D02*
X21228570Y30888332D01*
X21228570Y30888332D02*
X21142856Y30802618D01*
X20457141Y29688332D02*
X19599999Y29688332D01*
X20628570Y29174046D02*
X20028570Y30974046D01*
X20028570Y30974046D02*
X19428570Y29174046D01*
X18828570Y29174046D02*
X18828570Y30974046D01*
X18828570Y30974046D02*
X17799999Y29174046D01*
X17799999Y29174046D02*
X17799999Y30974046D01*
M02*
