%TF.GenerationSoftware,KiCad,Pcbnew,10.0.6*%
%TF.CreationDate,2026-09-11T22:25:59+02:00*%
%TF.ProjectId,leaf-heat-v1,6c656166-2d68-4656-9174-2d76312e6b69,rev?*%
%TF.SameCoordinates,Original*%
%TF.FileFunction,Copper,L2,Bot*%
%TF.FilePolarity,Positive*%
%FSLAX46Y46*%
G04 Gerber Fmt 4.6, Leading zero omitted, Abs format (unit mm)*
G04 Created by KiCad (PCBNEW 10.0.6) date 2026-09-11 22:25:59*
%MOMM*%
%LPD*%
G01*
G04 APERTURE LIST*
%TA.AperFunction,ComponentPad*%
%ADD10R,1.600000X1.600000*%
%TD*%
%TA.AperFunction,ComponentPad*%
%ADD11C,1.600000*%
%TD*%
%TA.AperFunction,ComponentPad*%
%ADD12C,4.000000*%
%TD*%
%TA.AperFunction,ComponentPad*%
%ADD13C,0.630000*%
%TD*%
%TA.AperFunction,SMDPad,CuDef*%
%ADD14R,2.600000X3.300000*%
%TD*%
%TA.AperFunction,HeatsinkPad*%
%ADD15C,0.650000*%
%TD*%
%TA.AperFunction,ComponentPad*%
%ADD16O,1.000000X2.100000*%
%TD*%
%TA.AperFunction,ComponentPad*%
%ADD17O,1.000000X1.800000*%
%TD*%
%TA.AperFunction,ViaPad*%
%ADD18C,0.650000*%
%TD*%
%TA.AperFunction,Conductor*%
%ADD19C,0.600000*%
%TD*%
%TA.AperFunction,Conductor*%
%ADD20C,0.400000*%
%TD*%
%TA.AperFunction,Conductor*%
%ADD21C,0.200000*%
%TD*%
%TA.AperFunction,Conductor*%
%ADD22C,0.250000*%
%TD*%
G04 APERTURE END LIST*
D10*
%TO.P,J1,1*%
%TO.N,unconnected-(J1-Pad1)*%
X11000000Y11000000D03*
D11*
%TO.P,J1,2*%
%TO.N,/CAN_L*%
X13770000Y11000000D03*
%TO.P,J1,3*%
%TO.N,/GND*%
X16540000Y11000000D03*
%TO.P,J1,4*%
%TO.N,unconnected-(J1-Pad4)*%
X19310000Y11000000D03*
%TO.P,J1,5*%
%TO.N,unconnected-(J1-Pad5)*%
X22080000Y11000000D03*
%TO.P,J1,6*%
%TO.N,unconnected-(J1-Pad6)*%
X12385000Y8160000D03*
%TO.P,J1,7*%
%TO.N,/CAN_H*%
X15155000Y8160000D03*
%TO.P,J1,8*%
%TO.N,unconnected-(J1-Pad8)*%
X17925000Y8160000D03*
%TO.P,J1,9*%
%TO.N,/CAR_12V*%
X20695000Y8160000D03*
D12*
%TO.P,J1,SH*%
%TO.N,/GND*%
X4045001Y9580000D03*
X29035000Y9580000D03*
%TD*%
D13*
%TO.P,U1,9*%
%TO.N,/GND*%
X18350000Y39300000D03*
X18350000Y38000000D03*
X18350000Y36700000D03*
D14*
X19000000Y38000000D03*
D13*
X19650000Y39300000D03*
X19650000Y38000000D03*
X19650000Y36700000D03*
%TD*%
D15*
%TO.P,U2,19*%
%TO.N,/GND*%
X47860000Y42350000D03*
X47860000Y41250000D03*
X48410000Y42900000D03*
X48410000Y41800000D03*
X48410000Y40700000D03*
X48960000Y42350000D03*
X48960000Y41250000D03*
X49510000Y42900000D03*
X49510000Y41800000D03*
X49510000Y40700000D03*
X50060000Y42350000D03*
X50060000Y41250000D03*
%TD*%
D16*
%TO.P,J2,SH*%
%TO.N,/GND*%
X51680000Y6105000D03*
D17*
X51680000Y1925000D03*
D16*
X60320000Y6105000D03*
D17*
X60320000Y1925000D03*
%TD*%
D18*
%TO.N,/VPWR*%
X27972800Y18062500D03*
X14433100Y35785600D03*
X43981300Y14018800D03*
X58095100Y46429700D03*
%TO.N,/USB_5V*%
X56000000Y13300000D03*
X54300000Y3800000D03*
X58400000Y4700000D03*
%TO.N,/GND*%
X16125000Y41100000D03*
X34000000Y44500000D03*
X36054100Y44662200D03*
X27100000Y37000000D03*
X6500000Y36150000D03*
X10800000Y37850000D03*
X34000000Y36500000D03*
X56000000Y9050000D03*
X34000000Y40500000D03*
X9000000Y43000000D03*
%TO.N,/3V3*%
X59675000Y43991000D03*
X22002600Y33600000D03*
X31524400Y45879700D03*
X40601200Y47900500D03*
%TO.N,/CAN_STB*%
X53105700Y46250900D03*
X16877500Y26502600D03*
%TO.N,/USB_PRESENT*%
X55455500Y43500000D03*
X63204800Y21897400D03*
%TO.N,/CAN_L*%
X15781900Y21084500D03*
%TO.N,/CAN_H*%
X16462000Y22990800D03*
X16364700Y17841800D03*
%TO.N,/CAR_12V*%
X20695000Y14857800D03*
%TO.N,/STATUS_LED*%
X34930400Y30755400D03*
X40544500Y40500000D03*
%TO.N,/USB_CONN_DP*%
X55050000Y13600000D03*
X62500000Y29500000D03*
%TO.N,/USB_DP*%
X55450100Y41852300D03*
X60735900Y32589100D03*
%TO.N,/ESP_EN*%
X29235700Y26109000D03*
X41206400Y46280100D03*
%TO.N,/CAN_TX*%
X13218100Y25733100D03*
X40542000Y45000000D03*
%TO.N,/CAN_RX*%
X38020200Y42734600D03*
X14953700Y21650600D03*
%TO.N,/BOOT_IO9*%
X37970100Y37500000D03*
X36825000Y34991600D03*
%TO.N,/USB_DM*%
X58235900Y32589100D03*
X55465600Y40500000D03*
%TO.N,/USB_CONN_DM*%
X57600000Y13200000D03*
X59000000Y28900000D03*
X57300000Y8700000D03*
X56250000Y5500000D03*
X55250000Y5500000D03*
%TO.N,/CC1*%
X52115800Y8001100D03*
X50433800Y9758800D03*
%TD*%
%TO.N,/VPWR*%
D19*
X53898100Y43137700D02*
X53898100Y23935600D01*
X57190100Y46429700D02*
X53898100Y43137700D01*
X53898100Y23935600D02*
X43981300Y14018800D01*
X58095100Y46429700D02*
X57190100Y46429700D01*
X27972800Y18062500D02*
X14433100Y31602200D01*
X14433100Y31602200D02*
X14433100Y35785600D01*
%TO.N,/USB_5V*%
D20*
X57500000Y3800000D02*
X58400000Y4700000D01*
D21*
X57900000Y8400000D02*
X58400000Y8900000D01*
D20*
X58400000Y4700000D02*
X57900000Y5200000D01*
D21*
X57900000Y5200000D02*
X57900000Y8400000D01*
D20*
X58400000Y8900000D02*
X58400000Y10900000D01*
X54300000Y3800000D02*
X57500000Y3800000D01*
X58400000Y10900000D02*
X56000000Y13300000D01*
%TO.N,/GND*%
D22*
X34000000Y37000000D02*
X27100000Y37000000D01*
X35891900Y44500000D02*
X36054100Y44662200D01*
X51680000Y1925000D02*
X51680000Y6105000D01*
X18350000Y38000000D02*
X19000000Y38000000D01*
X10800000Y41200000D02*
X10800000Y41100000D01*
X47860000Y41250000D02*
X48410000Y41250000D01*
X34000000Y44500000D02*
X34000000Y40500000D01*
X60320000Y1925000D02*
X60320000Y6105000D01*
X48410000Y42350000D02*
X47860000Y42350000D01*
X48410000Y40700000D02*
X48410000Y41250000D01*
X9000000Y43000000D02*
X10800000Y41200000D01*
X10800000Y41100000D02*
X16125000Y41100000D01*
X48410000Y42350000D02*
X48410000Y42900000D01*
X48410000Y41800000D02*
X48410000Y42350000D01*
X18350000Y38000000D02*
X18350000Y39300000D01*
X48960000Y42350000D02*
X48410000Y42350000D01*
X18350000Y36700000D02*
X18350000Y38000000D01*
X10800000Y41100000D02*
X10800000Y37850000D01*
X19650000Y36700000D02*
X19650000Y38000000D01*
X34000000Y40500000D02*
X34000000Y37000000D01*
X34000000Y37000000D02*
X34000000Y36500000D01*
X48410000Y41250000D02*
X48410000Y41800000D01*
X34000000Y44500000D02*
X35891900Y44500000D01*
%TO.N,/3V3*%
D19*
X59675000Y43991000D02*
X59675000Y46072300D01*
X31524400Y45879700D02*
X31524400Y43121800D01*
X31524400Y43121800D02*
X22002600Y33600000D01*
X40601200Y47900500D02*
X33545200Y47900500D01*
X33545200Y47900500D02*
X31524400Y45879700D01*
X57846800Y47900500D02*
X40601200Y47900500D01*
X59675000Y46072300D02*
X57846800Y47900500D01*
%TO.N,/CAN_STB*%
D22*
X53105700Y40992200D02*
X28349100Y16235600D01*
X53105700Y46250900D02*
X53105700Y40992200D01*
X28349100Y16235600D02*
X27144500Y16235600D01*
X27144500Y16235600D02*
X16877500Y26502600D01*
%TO.N,/USB_PRESENT*%
X63204800Y35750700D02*
X55455500Y43500000D01*
X63204800Y21897400D02*
X63204800Y35750700D01*
%TO.N,/CAN_L*%
X13770000Y19072600D02*
X13770000Y11000000D01*
X15781900Y21084500D02*
X13770000Y19072600D01*
%TO.N,/CAN_H*%
X16364700Y17841800D02*
X15155000Y16632100D01*
X16462000Y17939100D02*
X16462000Y22990800D01*
X16364700Y17841800D02*
X16462000Y17939100D01*
X15155000Y16632100D02*
X15155000Y8160000D01*
%TO.N,/CAR_12V*%
D19*
X20695000Y8160000D02*
X20695000Y14857800D01*
%TO.N,/STATUS_LED*%
D22*
X34930400Y30755400D02*
X40544500Y36369500D01*
X40544500Y36369500D02*
X40544500Y40500000D01*
%TO.N,/USB_CONN_DP*%
D21*
X55050000Y13600000D02*
X57000000Y15550000D01*
X57000000Y15550000D02*
X57000000Y28100000D01*
X60400000Y31500000D02*
X62500000Y31500000D01*
X57000000Y28100000D02*
X60400000Y31500000D01*
X62500000Y31500000D02*
X62500000Y29500000D01*
%TO.N,/USB_DP*%
X55450100Y41852300D02*
X60735900Y36566500D01*
X60735900Y36566500D02*
X60735900Y32589100D01*
%TO.N,/ESP_EN*%
D22*
X38703200Y39611000D02*
X41206400Y42114200D01*
X38703200Y35576500D02*
X38703200Y39611000D01*
X41206400Y42114200D02*
X41206400Y46280100D01*
X29235700Y26109000D02*
X38703200Y35576500D01*
%TO.N,/CAN_TX*%
X38251500Y39798100D02*
X39909600Y41456200D01*
X39909600Y41456200D02*
X39909600Y44367600D01*
X19664700Y32480100D02*
X31572300Y32480100D01*
X39909600Y44367600D02*
X40542000Y45000000D01*
X31572300Y32480100D02*
X38251500Y39159300D01*
X13218100Y35493800D02*
X14161700Y36437400D01*
X14161700Y36437400D02*
X15707400Y36437400D01*
X38251500Y39159300D02*
X38251500Y39798100D01*
X15707400Y36437400D02*
X19664700Y32480100D01*
X13218100Y25733100D02*
X13218100Y35493800D01*
%TO.N,/CAN_RX*%
X12526300Y24078000D02*
X12526300Y35505900D01*
X31385200Y32931800D02*
X35201900Y36748500D01*
X20488600Y32931800D02*
X31385200Y32931800D01*
X14953700Y21650600D02*
X12526300Y24078000D01*
X35201900Y36748500D02*
X35201900Y39916300D01*
X16531300Y36889100D02*
X20488600Y32931800D01*
X13909500Y36889100D02*
X16531300Y36889100D01*
X35201900Y39916300D02*
X38020200Y42734600D01*
X12526300Y35505900D02*
X13909500Y36889100D01*
%TO.N,/BOOT_IO9*%
X37970100Y37500000D02*
X36825000Y36354900D01*
X36825000Y36354900D02*
X36825000Y34991600D01*
%TO.N,/USB_DM*%
D21*
X58235900Y32589100D02*
X58235900Y37729700D01*
X58235900Y37729700D02*
X55465600Y40500000D01*
%TO.N,/USB_CONN_DM*%
X57600000Y27500000D02*
X59000000Y28900000D01*
X56250000Y5500000D02*
X57300000Y6550000D01*
X57600000Y13200000D02*
X57600000Y27500000D01*
X55250000Y5500000D02*
X56250000Y5500000D01*
X57300000Y6550000D02*
X57300000Y8700000D01*
%TO.N,/CC1*%
D22*
X52115800Y8001100D02*
X50433800Y9683100D01*
X50433800Y9683100D02*
X50433800Y9758800D01*
%TD*%
%TA.AperFunction,Conductor*%
%TO.N,/GND*%
G36*
X33943039Y49679815D02*
G01*
X33988794Y49627011D01*
X34000000Y49575500D01*
X34000000Y49100000D01*
X62000000Y49100000D01*
X62000000Y49575500D01*
X62019685Y49642539D01*
X62072489Y49688294D01*
X62124000Y49699500D01*
X64575500Y49699500D01*
X64642539Y49679815D01*
X64688294Y49627011D01*
X64699500Y49575500D01*
X64699500Y424500D01*
X64679815Y357461D01*
X64627011Y311706D01*
X64575500Y300500D01*
X424500Y300500D01*
X357461Y320185D01*
X311706Y372989D01*
X300500Y424500D01*
X300500Y4118098D01*
X37499500Y4118098D01*
X37499500Y3881903D01*
X37536446Y3648632D01*
X37609433Y3424004D01*
X37655860Y3332887D01*
X37716657Y3213567D01*
X37855483Y3022490D01*
X38022490Y2855483D01*
X38213567Y2716657D01*
X38312991Y2665998D01*
X38424003Y2609434D01*
X38424005Y2609434D01*
X38424008Y2609432D01*
X38544412Y2570311D01*
X38648631Y2536447D01*
X38881903Y2499500D01*
X38881908Y2499500D01*
X39118097Y2499500D01*
X39351368Y2536447D01*
X39575992Y2609432D01*
X39786433Y2716657D01*
X39977510Y2855483D01*
X40144517Y3022490D01*
X40283343Y3213567D01*
X40390568Y3424008D01*
X40463553Y3648632D01*
X40475527Y3724234D01*
X40500500Y3881903D01*
X40500500Y4118098D01*
X40463553Y4351369D01*
X40390566Y4575997D01*
X40283342Y4786434D01*
X40144517Y4977510D01*
X39977510Y5144517D01*
X39786433Y5283343D01*
X39575996Y5390567D01*
X39351368Y5463554D01*
X39118097Y5500500D01*
X39118092Y5500500D01*
X38881908Y5500500D01*
X38881903Y5500500D01*
X38648631Y5463554D01*
X38424003Y5390567D01*
X38213566Y5283343D01*
X38104550Y5204138D01*
X38022490Y5144517D01*
X38022488Y5144515D01*
X38022487Y5144515D01*
X37855485Y4977513D01*
X37855485Y4977512D01*
X37855483Y4977510D01*
X37816158Y4923384D01*
X37716657Y4786434D01*
X37609433Y4575997D01*
X37536446Y4351369D01*
X37499500Y4118098D01*
X300500Y4118098D01*
X300500Y5667601D01*
X52634500Y5667601D01*
X52634500Y5542399D01*
X52666905Y5421464D01*
X52729505Y5313036D01*
X52818036Y5224505D01*
X52926464Y5161905D01*
X53047399Y5129500D01*
X53047401Y5129500D01*
X53172599Y5129500D01*
X53172601Y5129500D01*
X53293536Y5161905D01*
X53401964Y5224505D01*
X53490495Y5313036D01*
X53553095Y5421464D01*
X53585500Y5542399D01*
X53585500Y5667601D01*
X53553095Y5788536D01*
X53490495Y5896964D01*
X53401964Y5985495D01*
X53293536Y6048095D01*
X53293537Y6048095D01*
X53253224Y6058897D01*
X53172601Y6080500D01*
X53047399Y6080500D01*
X52966775Y6058897D01*
X52926463Y6048095D01*
X52818037Y5985496D01*
X52818034Y5985494D01*
X52729506Y5896966D01*
X52729504Y5896963D01*
X52666905Y5788537D01*
X52666905Y5788536D01*
X52634500Y5667601D01*
X300500Y5667601D01*
X300500Y8263470D01*
X11334500Y8263470D01*
X11334500Y8056531D01*
X11360597Y7925335D01*
X11374870Y7853580D01*
X11454059Y7662402D01*
X11511541Y7576374D01*
X11569024Y7490343D01*
X11715342Y7344025D01*
X11715345Y7344023D01*
X11887402Y7229059D01*
X12078580Y7149870D01*
X12281530Y7109501D01*
X12281534Y7109500D01*
X12281535Y7109500D01*
X12488466Y7109500D01*
X12488467Y7109501D01*
X12691420Y7149870D01*
X12882598Y7229059D01*
X13054655Y7344023D01*
X13200977Y7490345D01*
X13315941Y7662402D01*
X13395130Y7853580D01*
X13435500Y8056535D01*
X13435500Y8263465D01*
X13395130Y8466420D01*
X13315941Y8657598D01*
X13200977Y8829655D01*
X13200975Y8829658D01*
X13054657Y8975976D01*
X12968626Y9033459D01*
X12882598Y9090941D01*
X12882593Y9090943D01*
X12691420Y9170130D01*
X12691412Y9170132D01*
X12488469Y9210500D01*
X12488465Y9210500D01*
X12281535Y9210500D01*
X12281530Y9210500D01*
X12078587Y9170132D01*
X12078579Y9170130D01*
X11887403Y9090942D01*
X11715342Y8975976D01*
X11569024Y8829658D01*
X11454058Y8657597D01*
X11374870Y8466421D01*
X11374868Y8466413D01*
X11334500Y8263470D01*
X300500Y8263470D01*
X300500Y11824679D01*
X9949500Y11824679D01*
X9949500Y10175322D01*
X9964032Y10102265D01*
X9964033Y10102261D01*
X9964034Y10102260D01*
X10019399Y10019399D01*
X10101847Y9964310D01*
X10102260Y9964034D01*
X10102264Y9964033D01*
X10175321Y9949501D01*
X10175324Y9949500D01*
X10175326Y9949500D01*
X11824676Y9949500D01*
X11824677Y9949501D01*
X11897740Y9964034D01*
X11980601Y10019399D01*
X12035966Y10102260D01*
X12050500Y10175326D01*
X12050500Y11824674D01*
X12050500Y11824677D01*
X12050499Y11824679D01*
X12035967Y11897736D01*
X12035966Y11897740D01*
X12013782Y11930941D01*
X11980601Y11980601D01*
X11897740Y12035966D01*
X11897739Y12035967D01*
X11897735Y12035968D01*
X11824677Y12050500D01*
X11824674Y12050500D01*
X10175326Y12050500D01*
X10175323Y12050500D01*
X10102264Y12035968D01*
X10102260Y12035967D01*
X10019399Y11980601D01*
X9964033Y11897740D01*
X9964032Y11897736D01*
X9949500Y11824679D01*
X300500Y11824679D01*
X300500Y35555335D01*
X12150800Y35555335D01*
X12150800Y35555333D01*
X12150800Y24028564D01*
X12163577Y23980877D01*
X12163591Y23980827D01*
X12163595Y23980814D01*
X12176390Y23933062D01*
X12221180Y23855483D01*
X12225826Y23847437D01*
X14341881Y21731382D01*
X14375366Y21670059D01*
X14378200Y21643701D01*
X14378200Y21574834D01*
X14386453Y21544033D01*
X14417419Y21428464D01*
X14455302Y21362850D01*
X14493185Y21297235D01*
X14600335Y21190085D01*
X14731565Y21114319D01*
X14877934Y21075100D01*
X14877936Y21075100D01*
X14942101Y21075100D01*
X15009140Y21055415D01*
X15054895Y21002611D01*
X15064839Y20933453D01*
X15035814Y20869897D01*
X15029782Y20863419D01*
X13469526Y19303164D01*
X13420091Y19217541D01*
X13420091Y19217540D01*
X13420090Y19217538D01*
X13394500Y19122035D01*
X13394500Y19122033D01*
X13394500Y12064371D01*
X13374815Y11997332D01*
X13322011Y11951577D01*
X13317955Y11949811D01*
X13272405Y11930943D01*
X13100342Y11815976D01*
X12954024Y11669658D01*
X12839058Y11497597D01*
X12759870Y11306421D01*
X12759868Y11306413D01*
X12719500Y11103470D01*
X12719500Y10896531D01*
X12759868Y10693588D01*
X12759870Y10693580D01*
X12839058Y10502404D01*
X12954024Y10330343D01*
X13100342Y10184025D01*
X13100345Y10184023D01*
X13272402Y10069059D01*
X13463580Y9989870D01*
X13666530Y9949501D01*
X13666534Y9949500D01*
X13666535Y9949500D01*
X13873466Y9949500D01*
X13873467Y9949501D01*
X14076420Y9989870D01*
X14267598Y10069059D01*
X14439655Y10184023D01*
X14488983Y10233351D01*
X14567819Y10312186D01*
X14629142Y10345671D01*
X14698834Y10340687D01*
X14754767Y10298815D01*
X14779184Y10233351D01*
X14779500Y10224505D01*
X14779500Y9224371D01*
X14759815Y9157332D01*
X14707011Y9111577D01*
X14702955Y9109811D01*
X14657405Y9090943D01*
X14485342Y8975976D01*
X14339024Y8829658D01*
X14224058Y8657597D01*
X14144870Y8466421D01*
X14144868Y8466413D01*
X14104500Y8263470D01*
X14104500Y8056531D01*
X14130597Y7925335D01*
X14144870Y7853580D01*
X14224059Y7662402D01*
X14281541Y7576374D01*
X14339024Y7490343D01*
X14485342Y7344025D01*
X14485345Y7344023D01*
X14657402Y7229059D01*
X14848580Y7149870D01*
X15051530Y7109501D01*
X15051534Y7109500D01*
X15051535Y7109500D01*
X15258466Y7109500D01*
X15258467Y7109501D01*
X15461420Y7149870D01*
X15652598Y7229059D01*
X15824655Y7344023D01*
X15970977Y7490345D01*
X16085941Y7662402D01*
X16165130Y7853580D01*
X16205500Y8056535D01*
X16205500Y8263465D01*
X16205499Y8263470D01*
X16874500Y8263470D01*
X16874500Y8056531D01*
X16900597Y7925335D01*
X16914870Y7853580D01*
X16994059Y7662402D01*
X17051541Y7576374D01*
X17109024Y7490343D01*
X17255342Y7344025D01*
X17255345Y7344023D01*
X17427402Y7229059D01*
X17618580Y7149870D01*
X17821530Y7109501D01*
X17821534Y7109500D01*
X17821535Y7109500D01*
X18028466Y7109500D01*
X18028467Y7109501D01*
X18231420Y7149870D01*
X18422598Y7229059D01*
X18594655Y7344023D01*
X18740977Y7490345D01*
X18855941Y7662402D01*
X18935130Y7853580D01*
X18975500Y8056535D01*
X18975500Y8263465D01*
X18935130Y8466420D01*
X18855941Y8657598D01*
X18740977Y8829655D01*
X18740975Y8829658D01*
X18594657Y8975976D01*
X18508626Y9033459D01*
X18422598Y9090941D01*
X18422593Y9090943D01*
X18231420Y9170130D01*
X18231412Y9170132D01*
X18028469Y9210500D01*
X18028465Y9210500D01*
X17821535Y9210500D01*
X17821530Y9210500D01*
X17618587Y9170132D01*
X17618579Y9170130D01*
X17427403Y9090942D01*
X17255342Y8975976D01*
X17109024Y8829658D01*
X16994058Y8657597D01*
X16914870Y8466421D01*
X16914868Y8466413D01*
X16874500Y8263470D01*
X16205499Y8263470D01*
X16165130Y8466420D01*
X16085941Y8657598D01*
X15970977Y8829655D01*
X15970975Y8829658D01*
X15824657Y8975976D01*
X15760607Y9018772D01*
X15652598Y9090941D01*
X15652595Y9090943D01*
X15652594Y9090943D01*
X15607045Y9109811D01*
X15552643Y9153653D01*
X15530579Y9219947D01*
X15530500Y9224371D01*
X15530500Y11103470D01*
X18259500Y11103470D01*
X18259500Y10896531D01*
X18299868Y10693588D01*
X18299870Y10693580D01*
X18379058Y10502404D01*
X18494024Y10330343D01*
X18640342Y10184025D01*
X18640345Y10184023D01*
X18812402Y10069059D01*
X19003580Y9989870D01*
X19206530Y9949501D01*
X19206534Y9949500D01*
X19206535Y9949500D01*
X19413466Y9949500D01*
X19413467Y9949501D01*
X19616420Y9989870D01*
X19807598Y10069059D01*
X19951610Y10165285D01*
X20018287Y10186162D01*
X20085667Y10167677D01*
X20132357Y10115698D01*
X20144500Y10062182D01*
X20144500Y9121874D01*
X20124815Y9054835D01*
X20089391Y9018772D01*
X20025345Y8975978D01*
X20025341Y8975975D01*
X19879024Y8829658D01*
X19764058Y8657597D01*
X19684870Y8466421D01*
X19684868Y8466413D01*
X19644500Y8263470D01*
X19644500Y8056531D01*
X19670597Y7925335D01*
X19684870Y7853580D01*
X19764059Y7662402D01*
X19821541Y7576374D01*
X19879024Y7490343D01*
X20025342Y7344025D01*
X20025345Y7344023D01*
X20197402Y7229059D01*
X20388580Y7149870D01*
X20591530Y7109501D01*
X20591534Y7109500D01*
X20591535Y7109500D01*
X20798466Y7109500D01*
X20798467Y7109501D01*
X21001420Y7149870D01*
X21192598Y7229059D01*
X21364655Y7344023D01*
X21510977Y7490345D01*
X21625941Y7662402D01*
X21705130Y7853580D01*
X21745500Y8056535D01*
X21745500Y8263465D01*
X21705130Y8466420D01*
X21625941Y8657598D01*
X21510977Y8829655D01*
X21510975Y8829658D01*
X21364658Y8975975D01*
X21364654Y8975978D01*
X21300609Y9018772D01*
X21255804Y9072385D01*
X21245500Y9121874D01*
X21245500Y9834566D01*
X49858300Y9834566D01*
X49858300Y9683035D01*
X49897519Y9536664D01*
X49935402Y9471050D01*
X49973285Y9405435D01*
X50080435Y9298285D01*
X50211665Y9222519D01*
X50358034Y9183300D01*
X50358042Y9183300D01*
X50366094Y9182239D01*
X50365674Y9179051D01*
X50418240Y9163615D01*
X50438882Y9146981D01*
X51503981Y8081882D01*
X51537466Y8020559D01*
X51540300Y7994201D01*
X51540300Y7925335D01*
X51579519Y7778964D01*
X51617402Y7713350D01*
X51655285Y7647735D01*
X51762435Y7540585D01*
X51893665Y7464819D01*
X52040034Y7425600D01*
X52040036Y7425600D01*
X52191564Y7425600D01*
X52191566Y7425600D01*
X52337935Y7464819D01*
X52469165Y7540585D01*
X52576315Y7647735D01*
X52652081Y7778965D01*
X52691300Y7925334D01*
X52691300Y8076866D01*
X52652081Y8223235D01*
X52576315Y8354465D01*
X52469165Y8461615D01*
X52403550Y8499498D01*
X52337936Y8537381D01*
X52264750Y8556991D01*
X52191566Y8576600D01*
X52191565Y8576600D01*
X52122699Y8576600D01*
X52055660Y8596285D01*
X52035018Y8612919D01*
X51045619Y9602318D01*
X51012134Y9663641D01*
X51009300Y9689999D01*
X51009300Y9834564D01*
X51009300Y9834566D01*
X50970081Y9980935D01*
X50894315Y10112165D01*
X50787165Y10219315D01*
X50721550Y10257198D01*
X50655936Y10295081D01*
X50582750Y10314691D01*
X50509566Y10334300D01*
X50358034Y10334300D01*
X50211663Y10295081D01*
X50080435Y10219315D01*
X50080432Y10219313D01*
X49973287Y10112168D01*
X49973285Y10112165D01*
X49897519Y9980937D01*
X49858300Y9834566D01*
X21245500Y9834566D01*
X21245500Y10062182D01*
X21265185Y10129221D01*
X21317989Y10174976D01*
X21387147Y10184920D01*
X21438388Y10165285D01*
X21582402Y10069059D01*
X21773580Y9989870D01*
X21976530Y9949501D01*
X21976534Y9949500D01*
X21976535Y9949500D01*
X22183466Y9949500D01*
X22183467Y9949501D01*
X22204420Y9953669D01*
X22257923Y9964310D01*
X22318159Y9976293D01*
X22386420Y9989870D01*
X22577598Y10069059D01*
X22749655Y10184023D01*
X22895977Y10330345D01*
X23010941Y10502402D01*
X23090130Y10693580D01*
X23130500Y10896535D01*
X23130500Y11103465D01*
X23090130Y11306420D01*
X23010941Y11497598D01*
X22895977Y11669655D01*
X22895975Y11669658D01*
X22749657Y11815976D01*
X22627287Y11897740D01*
X22577598Y11930941D01*
X22577593Y11930943D01*
X22386420Y12010130D01*
X22386412Y12010132D01*
X22183469Y12050500D01*
X22183465Y12050500D01*
X21976535Y12050500D01*
X21976530Y12050500D01*
X21773587Y12010132D01*
X21773579Y12010130D01*
X21582403Y11930942D01*
X21438390Y11834716D01*
X21371713Y11813839D01*
X21304333Y11832324D01*
X21257643Y11884303D01*
X21245500Y11937819D01*
X21245500Y14672408D01*
X21249725Y14704501D01*
X21270500Y14782034D01*
X21270500Y14933566D01*
X21231281Y15079935D01*
X21155515Y15211165D01*
X21048365Y15318315D01*
X20982750Y15356198D01*
X20917136Y15394081D01*
X20843950Y15413691D01*
X20770766Y15433300D01*
X20619234Y15433300D01*
X20472863Y15394081D01*
X20341635Y15318315D01*
X20341632Y15318313D01*
X20234487Y15211168D01*
X20234485Y15211165D01*
X20158719Y15079937D01*
X20119500Y14933566D01*
X20119500Y14782035D01*
X20140275Y14704501D01*
X20144500Y14672408D01*
X20144500Y11937819D01*
X20124815Y11870780D01*
X20072011Y11825025D01*
X20002853Y11815081D01*
X19951610Y11834716D01*
X19857287Y11897740D01*
X19807598Y11930941D01*
X19807593Y11930943D01*
X19616420Y12010130D01*
X19616412Y12010132D01*
X19413469Y12050500D01*
X19413465Y12050500D01*
X19206535Y12050500D01*
X19206530Y12050500D01*
X19003587Y12010132D01*
X19003579Y12010130D01*
X18812403Y11930942D01*
X18640342Y11815976D01*
X18494024Y11669658D01*
X18379058Y11497597D01*
X18299870Y11306421D01*
X18299868Y11306413D01*
X18259500Y11103470D01*
X15530500Y11103470D01*
X15530500Y16425201D01*
X15550185Y16492240D01*
X15566819Y16512882D01*
X16283918Y17229981D01*
X16345241Y17263466D01*
X16371599Y17266300D01*
X16440464Y17266300D01*
X16440466Y17266300D01*
X16586835Y17305519D01*
X16718065Y17381285D01*
X16825215Y17488435D01*
X16900981Y17619665D01*
X16940200Y17766034D01*
X16940200Y17917566D01*
X16900981Y18063935D01*
X16854113Y18145113D01*
X16837500Y18207113D01*
X16837500Y22501058D01*
X16857185Y22568097D01*
X16873819Y22588739D01*
X16922515Y22637435D01*
X16998281Y22768665D01*
X17037500Y22915034D01*
X17037500Y23066566D01*
X16998281Y23212935D01*
X16922515Y23344165D01*
X16815365Y23451315D01*
X16749750Y23489198D01*
X16684136Y23527081D01*
X16610950Y23546691D01*
X16537766Y23566300D01*
X16386234Y23566300D01*
X16239863Y23527081D01*
X16108635Y23451315D01*
X16108632Y23451313D01*
X16001487Y23344168D01*
X16001485Y23344165D01*
X15925719Y23212937D01*
X15886500Y23066566D01*
X15886500Y22915035D01*
X15925719Y22768664D01*
X15963602Y22703050D01*
X16001485Y22637435D01*
X16001487Y22637433D01*
X16050181Y22588739D01*
X16083666Y22527416D01*
X16086500Y22501058D01*
X16086500Y21760284D01*
X16066815Y21693245D01*
X16014011Y21647490D01*
X15944853Y21637546D01*
X15930412Y21640508D01*
X15857666Y21660000D01*
X15706134Y21660000D01*
X15677414Y21652305D01*
X15607564Y21653970D01*
X15549703Y21693134D01*
X15525551Y21739984D01*
X15489981Y21872735D01*
X15414215Y22003965D01*
X15307065Y22111115D01*
X15241450Y22148998D01*
X15175836Y22186881D01*
X15102650Y22206491D01*
X15029466Y22226100D01*
X15029465Y22226100D01*
X14960599Y22226100D01*
X14893560Y22245785D01*
X14872918Y22262419D01*
X12938119Y24197218D01*
X12904634Y24258541D01*
X12901800Y24284899D01*
X12901800Y25060451D01*
X12921485Y25127490D01*
X12974289Y25173245D01*
X13043447Y25183189D01*
X13057887Y25180228D01*
X13142334Y25157600D01*
X13142336Y25157600D01*
X13293864Y25157600D01*
X13293866Y25157600D01*
X13440235Y25196819D01*
X13571465Y25272585D01*
X13678615Y25379735D01*
X13754381Y25510965D01*
X13793600Y25657334D01*
X13793600Y25808866D01*
X13754381Y25955235D01*
X13678615Y26086465D01*
X13629919Y26135161D01*
X13596434Y26196484D01*
X13593600Y26222842D01*
X13593600Y35286902D01*
X13613285Y35353941D01*
X13629915Y35374579D01*
X13670920Y35415584D01*
X13732242Y35449068D01*
X13801934Y35444084D01*
X13857867Y35402212D01*
X13882284Y35336748D01*
X13882600Y35327902D01*
X13882600Y31674674D01*
X13882600Y31529726D01*
X13920116Y31389715D01*
X13992589Y31264187D01*
X13992591Y31264184D01*
X27452444Y17804331D01*
X27472148Y17778654D01*
X27512285Y17709135D01*
X27619435Y17601985D01*
X27750665Y17526219D01*
X27897034Y17487000D01*
X27897036Y17487000D01*
X28048564Y17487000D01*
X28048566Y17487000D01*
X28194935Y17526219D01*
X28326165Y17601985D01*
X28433315Y17709135D01*
X28509081Y17840365D01*
X28548300Y17986734D01*
X28548300Y18138266D01*
X28509081Y18284635D01*
X28433315Y18415865D01*
X28326165Y18523015D01*
X28256646Y18563152D01*
X28230969Y18582856D01*
X15019919Y31793906D01*
X14986434Y31855229D01*
X14983600Y31881587D01*
X14983600Y35600208D01*
X14987825Y35632301D01*
X14992792Y35650838D01*
X15008600Y35709834D01*
X15008600Y35861366D01*
X14996692Y35905808D01*
X14998355Y35975657D01*
X15037518Y36033519D01*
X15101747Y36061023D01*
X15116467Y36061900D01*
X15500501Y36061900D01*
X15567540Y36042215D01*
X15588182Y36025581D01*
X19364225Y32249538D01*
X19434138Y32179625D01*
X19519759Y32130192D01*
X19519762Y32130190D01*
X19567511Y32117395D01*
X19567512Y32117395D01*
X19577603Y32114692D01*
X19615264Y32104600D01*
X19615265Y32104600D01*
X19615266Y32104600D01*
X31621735Y32104600D01*
X31621736Y32104600D01*
X31669486Y32117395D01*
X31717238Y32130190D01*
X31802862Y32179625D01*
X31872775Y32249538D01*
X36289949Y36666713D01*
X36351270Y36700196D01*
X36420962Y36695212D01*
X36476895Y36653340D01*
X36501312Y36587876D01*
X36486460Y36519603D01*
X36485017Y36517033D01*
X36475091Y36499841D01*
X36475091Y36499840D01*
X36475090Y36499838D01*
X36449500Y36404335D01*
X36449500Y36404333D01*
X36449500Y35481342D01*
X36429815Y35414303D01*
X36413181Y35393661D01*
X36364487Y35344968D01*
X36364485Y35344965D01*
X36288719Y35213737D01*
X36249500Y35067366D01*
X36249500Y34915835D01*
X36288719Y34769464D01*
X36293974Y34760363D01*
X36364485Y34638235D01*
X36471635Y34531085D01*
X36602865Y34455319D01*
X36748829Y34416209D01*
X36808487Y34379845D01*
X36839017Y34316999D01*
X36830723Y34247623D01*
X36804415Y34208754D01*
X29316482Y26720819D01*
X29255159Y26687334D01*
X29228801Y26684500D01*
X29159934Y26684500D01*
X29013563Y26645281D01*
X28882335Y26569515D01*
X28882332Y26569513D01*
X28775187Y26462368D01*
X28775185Y26462365D01*
X28699419Y26331137D01*
X28686613Y26283343D01*
X28660200Y26184766D01*
X28660200Y26033234D01*
X28675131Y25977510D01*
X28699419Y25886864D01*
X28737302Y25821250D01*
X28775185Y25755635D01*
X28882335Y25648485D01*
X29013565Y25572719D01*
X29159934Y25533500D01*
X29159936Y25533500D01*
X29311464Y25533500D01*
X29311466Y25533500D01*
X29457835Y25572719D01*
X29589065Y25648485D01*
X29696215Y25755635D01*
X29771981Y25886865D01*
X29811200Y26033234D01*
X29811200Y26102101D01*
X29830885Y26169140D01*
X29847519Y26189782D01*
X32021457Y28363720D01*
X34205506Y30547770D01*
X34266827Y30581253D01*
X34336519Y30576269D01*
X34392452Y30534397D01*
X34400572Y30522088D01*
X34469885Y30402035D01*
X34577035Y30294885D01*
X34708265Y30219119D01*
X34854634Y30179900D01*
X34854636Y30179900D01*
X35006164Y30179900D01*
X35006166Y30179900D01*
X35152535Y30219119D01*
X35283765Y30294885D01*
X35390915Y30402035D01*
X35466681Y30533265D01*
X35505900Y30679634D01*
X35505900Y30748501D01*
X35525585Y30815540D01*
X35542219Y30836182D01*
X38169429Y33463392D01*
X40844974Y36138937D01*
X40844975Y36138938D01*
X40894410Y36224562D01*
X40920000Y36320065D01*
X40920000Y40010258D01*
X40939685Y40077297D01*
X40956319Y40097939D01*
X40956955Y40098575D01*
X41005015Y40146635D01*
X41080781Y40277865D01*
X41120000Y40424234D01*
X41120000Y40575766D01*
X41080781Y40722135D01*
X41005015Y40853365D01*
X40897865Y40960515D01*
X40897862Y40960517D01*
X40897858Y40960520D01*
X40838673Y40994691D01*
X40790458Y41045258D01*
X40777236Y41113865D01*
X40803204Y41178730D01*
X40812983Y41189748D01*
X41506874Y41883637D01*
X41509723Y41888573D01*
X41515425Y41898446D01*
X41556308Y41969259D01*
X41556307Y41969259D01*
X41556310Y41969262D01*
X41581900Y42064765D01*
X41581900Y45790358D01*
X41601585Y45857397D01*
X41618219Y45878039D01*
X41637716Y45897536D01*
X41666915Y45926735D01*
X41742681Y46057965D01*
X41781900Y46204334D01*
X41781900Y46355866D01*
X41742681Y46502235D01*
X41666915Y46633465D01*
X41559765Y46740615D01*
X41479111Y46787181D01*
X41428536Y46816381D01*
X41355350Y46835991D01*
X41282166Y46855600D01*
X41130634Y46855600D01*
X40984263Y46816381D01*
X40853035Y46740615D01*
X40853032Y46740613D01*
X40745887Y46633468D01*
X40745885Y46633465D01*
X40670119Y46502237D01*
X40662295Y46473035D01*
X40630900Y46355866D01*
X40630900Y46204334D01*
X40638724Y46175135D01*
X40670119Y46057964D01*
X40686978Y46028764D01*
X40745885Y45926735D01*
X40745887Y45926733D01*
X40794581Y45878039D01*
X40828066Y45816716D01*
X40830900Y45790358D01*
X40830900Y45679991D01*
X40811215Y45612952D01*
X40758411Y45567197D01*
X40689253Y45557253D01*
X40674807Y45560216D01*
X40617766Y45575500D01*
X40466234Y45575500D01*
X40319863Y45536281D01*
X40188635Y45460515D01*
X40188632Y45460513D01*
X40081487Y45353368D01*
X40081485Y45353365D01*
X40005719Y45222137D01*
X39966500Y45075766D01*
X39966500Y45006900D01*
X39946815Y44939861D01*
X39930181Y44919219D01*
X39679038Y44668075D01*
X39609126Y44598164D01*
X39559691Y44512541D01*
X39559691Y44512540D01*
X39559690Y44512538D01*
X39534100Y44417035D01*
X39534100Y44417033D01*
X39534100Y41663099D01*
X39514415Y41596060D01*
X39497781Y41575418D01*
X37951026Y40028664D01*
X37901591Y39943041D01*
X37901591Y39943040D01*
X37901590Y39943038D01*
X37876000Y39847535D01*
X37876000Y39847533D01*
X37876000Y39366199D01*
X37856315Y39299160D01*
X37839681Y39278518D01*
X35789081Y37227918D01*
X35727758Y37194433D01*
X35658066Y37199417D01*
X35602133Y37241289D01*
X35577716Y37306753D01*
X35577400Y37315599D01*
X35577400Y39709401D01*
X35597085Y39776440D01*
X35613719Y39797082D01*
X37939418Y42122781D01*
X38000741Y42156266D01*
X38027099Y42159100D01*
X38095964Y42159100D01*
X38095966Y42159100D01*
X38242335Y42198319D01*
X38373565Y42274085D01*
X38480715Y42381235D01*
X38556481Y42512465D01*
X38595700Y42658834D01*
X38595700Y42810366D01*
X38556481Y42956735D01*
X38480715Y43087965D01*
X38373565Y43195115D01*
X38307950Y43232998D01*
X38242336Y43270881D01*
X38169150Y43290491D01*
X38095966Y43310100D01*
X37944434Y43310100D01*
X37798063Y43270881D01*
X37666835Y43195115D01*
X37666832Y43195113D01*
X37559687Y43087968D01*
X37559685Y43087965D01*
X37483919Y42956737D01*
X37444700Y42810366D01*
X37444700Y42741499D01*
X37425015Y42674460D01*
X37408381Y42653818D01*
X34901426Y40146864D01*
X34851991Y40061241D01*
X34851991Y40061240D01*
X34851990Y40061238D01*
X34826400Y39965735D01*
X34826400Y39965733D01*
X34826400Y36955399D01*
X34806715Y36888360D01*
X34790081Y36867718D01*
X31265982Y33343619D01*
X31204659Y33310134D01*
X31178301Y33307300D01*
X22787786Y33307300D01*
X22720747Y33326985D01*
X22674992Y33379789D01*
X22665048Y33448947D01*
X22694073Y33512503D01*
X22700105Y33518981D01*
X27217405Y38036281D01*
X31964910Y42783785D01*
X32037384Y42909315D01*
X32037386Y42909322D01*
X32051963Y42963720D01*
X32060358Y42995054D01*
X32074900Y43049325D01*
X32074900Y45600313D01*
X32094585Y45667352D01*
X32111219Y45687994D01*
X33736906Y47313681D01*
X33798229Y47347166D01*
X33824587Y47350000D01*
X40415807Y47350000D01*
X40447900Y47345775D01*
X40525434Y47325000D01*
X40525436Y47325000D01*
X40676964Y47325000D01*
X40676966Y47325000D01*
X40754500Y47345775D01*
X40786593Y47350000D01*
X57567413Y47350000D01*
X57634452Y47330315D01*
X57655094Y47313681D01*
X57776894Y47191881D01*
X57810379Y47130558D01*
X57805395Y47060866D01*
X57763523Y47004933D01*
X57698059Y46980516D01*
X57689213Y46980200D01*
X57117624Y46980200D01*
X57064559Y46965982D01*
X57064560Y46965981D01*
X56977614Y46942684D01*
X56852086Y46870211D01*
X56852083Y46870209D01*
X53692881Y43711006D01*
X53631558Y43677521D01*
X53561866Y43682505D01*
X53505933Y43724377D01*
X53481516Y43789841D01*
X53481200Y43798687D01*
X53481200Y45761158D01*
X53500885Y45828197D01*
X53517519Y45848839D01*
X53526077Y45857397D01*
X53566215Y45897535D01*
X53641981Y46028765D01*
X53681200Y46175134D01*
X53681200Y46326666D01*
X53641981Y46473035D01*
X53566215Y46604265D01*
X53459065Y46711415D01*
X53393450Y46749298D01*
X53327836Y46787181D01*
X53254650Y46806791D01*
X53181466Y46826400D01*
X53029934Y46826400D01*
X52883563Y46787181D01*
X52752335Y46711415D01*
X52752332Y46711413D01*
X52645187Y46604268D01*
X52645185Y46604265D01*
X52569419Y46473037D01*
X52552613Y46410315D01*
X52530201Y46326667D01*
X52530200Y46326665D01*
X52530200Y46175135D01*
X52569419Y46028764D01*
X52603816Y45969188D01*
X52645185Y45897535D01*
X52645187Y45897533D01*
X52693881Y45848839D01*
X52727366Y45787516D01*
X52730200Y45761158D01*
X52730200Y41199100D01*
X52710515Y41132061D01*
X52693881Y41111419D01*
X28229882Y16647419D01*
X28168559Y16613934D01*
X28142201Y16611100D01*
X27351400Y16611100D01*
X27284361Y16630785D01*
X27263719Y16647419D01*
X17489319Y26421819D01*
X17455834Y26483142D01*
X17453000Y26509500D01*
X17453000Y26578364D01*
X17453000Y26578366D01*
X17413781Y26724735D01*
X17338015Y26855965D01*
X17230865Y26963115D01*
X17165250Y27000998D01*
X17099636Y27038881D01*
X17026450Y27058491D01*
X16953266Y27078100D01*
X16801734Y27078100D01*
X16655363Y27038881D01*
X16524135Y26963115D01*
X16524132Y26963113D01*
X16416987Y26855968D01*
X16416985Y26855965D01*
X16341219Y26724737D01*
X16302000Y26578366D01*
X16302000Y26426835D01*
X16341219Y26280464D01*
X16374488Y26222842D01*
X16416985Y26149235D01*
X16524135Y26042085D01*
X16655365Y25966319D01*
X16801734Y25927100D01*
X16870601Y25927100D01*
X16937640Y25907415D01*
X16958281Y25890782D01*
X26913937Y15935125D01*
X26999563Y15885689D01*
X27095064Y15860100D01*
X27095065Y15860100D01*
X27095066Y15860100D01*
X28398535Y15860100D01*
X28398536Y15860100D01*
X28447142Y15873125D01*
X28460167Y15876614D01*
X28475099Y15880616D01*
X28494038Y15885690D01*
X28579662Y15935125D01*
X28649575Y16005038D01*
X53135919Y40491382D01*
X53197242Y40524867D01*
X53266934Y40519883D01*
X53322867Y40478011D01*
X53347284Y40412547D01*
X53347600Y40403701D01*
X53347600Y24214988D01*
X53327915Y24147949D01*
X53311281Y24127307D01*
X43723130Y14539157D01*
X43697451Y14519452D01*
X43627935Y14479316D01*
X43520785Y14372165D01*
X43445019Y14240937D01*
X43416977Y14136281D01*
X43405800Y14094566D01*
X43405800Y13943034D01*
X43423895Y13875500D01*
X43445019Y13796664D01*
X43465890Y13760515D01*
X43520785Y13665435D01*
X43627935Y13558285D01*
X43759165Y13482519D01*
X43905534Y13443300D01*
X43905536Y13443300D01*
X44057064Y13443300D01*
X44057066Y13443300D01*
X44203435Y13482519D01*
X44334665Y13558285D01*
X44441815Y13665435D01*
X44481950Y13734952D01*
X44501651Y13760628D01*
X54338610Y23597585D01*
X54411084Y23723115D01*
X54444396Y23847437D01*
X54448600Y23863125D01*
X54448600Y42858314D01*
X54468285Y42925353D01*
X54484915Y42945991D01*
X54767460Y43228537D01*
X54828781Y43262020D01*
X54898472Y43257036D01*
X54954406Y43215165D01*
X54962525Y43202855D01*
X54993921Y43148477D01*
X54994985Y43146635D01*
X55102135Y43039485D01*
X55233365Y42963719D01*
X55379734Y42924500D01*
X55448601Y42924500D01*
X55515640Y42904815D01*
X55536282Y42888181D01*
X55866628Y42557835D01*
X55900113Y42496512D01*
X55895129Y42426820D01*
X55853257Y42370887D01*
X55787793Y42346470D01*
X55719520Y42361322D01*
X55716947Y42362767D01*
X55672238Y42388580D01*
X55672235Y42388581D01*
X55525866Y42427800D01*
X55374334Y42427800D01*
X55227963Y42388581D01*
X55096735Y42312815D01*
X55096732Y42312813D01*
X54989587Y42205668D01*
X54989585Y42205665D01*
X54913819Y42074437D01*
X54874600Y41928066D01*
X54874600Y41776535D01*
X54913819Y41630164D01*
X54945427Y41575418D01*
X54989585Y41498935D01*
X55096735Y41391785D01*
X55227965Y41316019D01*
X55310711Y41293848D01*
X55370369Y41257485D01*
X55400899Y41194638D01*
X55392605Y41125262D01*
X55348120Y41071384D01*
X55310710Y41054300D01*
X55243465Y41036281D01*
X55243463Y41036281D01*
X55243463Y41036280D01*
X55112235Y40960515D01*
X55112232Y40960513D01*
X55005087Y40853368D01*
X55005085Y40853365D01*
X54929319Y40722137D01*
X54890100Y40575766D01*
X54890100Y40424234D01*
X54895602Y40403701D01*
X54929319Y40277864D01*
X54956084Y40231507D01*
X55005085Y40146635D01*
X55112235Y40039485D01*
X55225881Y39973871D01*
X55239976Y39965733D01*
X55243465Y39963719D01*
X55389834Y39924500D01*
X55389836Y39924500D01*
X55494056Y39924500D01*
X55561095Y39904815D01*
X55581737Y39888181D01*
X57849081Y37620837D01*
X57882566Y37559514D01*
X57885400Y37533156D01*
X57885400Y33103842D01*
X57865715Y33036803D01*
X57849081Y33016161D01*
X57775387Y32942468D01*
X57775385Y32942465D01*
X57699619Y32811237D01*
X57660400Y32664866D01*
X57660400Y32513335D01*
X57699619Y32366964D01*
X57737502Y32301350D01*
X57775385Y32235735D01*
X57882535Y32128585D01*
X58013765Y32052819D01*
X58160134Y32013600D01*
X58160136Y32013600D01*
X58311664Y32013600D01*
X58311666Y32013600D01*
X58458035Y32052819D01*
X58589265Y32128585D01*
X58696415Y32235735D01*
X58772181Y32366965D01*
X58811400Y32513334D01*
X58811400Y32664866D01*
X58772181Y32811235D01*
X58696415Y32942465D01*
X58622719Y33016161D01*
X58589234Y33077484D01*
X58586400Y33103842D01*
X58586400Y37775842D01*
X58586400Y37775844D01*
X58562514Y37864988D01*
X58542011Y37900500D01*
X58516370Y37944912D01*
X58516369Y37944913D01*
X58515430Y37946540D01*
X58498960Y38014440D01*
X58521813Y38080466D01*
X58576736Y38123656D01*
X58646289Y38130296D01*
X58708391Y38098278D01*
X58710500Y38096218D01*
X60349081Y36457637D01*
X60382566Y36396314D01*
X60385400Y36369956D01*
X60385400Y33103842D01*
X60365715Y33036803D01*
X60349081Y33016161D01*
X60275387Y32942468D01*
X60275385Y32942465D01*
X60199619Y32811237D01*
X60160400Y32664866D01*
X60160400Y32513335D01*
X60199619Y32366964D01*
X60237502Y32301350D01*
X60275385Y32235735D01*
X60382535Y32128585D01*
X60463418Y32081887D01*
X60511633Y32031319D01*
X60524855Y31962712D01*
X60498887Y31897848D01*
X60441973Y31857320D01*
X60401417Y31850500D01*
X60353856Y31850500D01*
X60264712Y31826614D01*
X60264709Y31826613D01*
X60184791Y31780473D01*
X60184786Y31780469D01*
X56719531Y28315214D01*
X56719527Y28315209D01*
X56673387Y28235291D01*
X56673386Y28235288D01*
X56649500Y28146144D01*
X56649500Y15746545D01*
X56629815Y15679506D01*
X56613181Y15658864D01*
X55166136Y14211819D01*
X55104813Y14178334D01*
X55078455Y14175500D01*
X54974234Y14175500D01*
X54827863Y14136281D01*
X54696635Y14060515D01*
X54696632Y14060513D01*
X54589487Y13953368D01*
X54589485Y13953365D01*
X54513719Y13822137D01*
X54494146Y13749087D01*
X54474500Y13675766D01*
X54474500Y13524234D01*
X54485677Y13482520D01*
X54513719Y13377864D01*
X54539665Y13332925D01*
X54589485Y13246635D01*
X54696635Y13139485D01*
X54827865Y13063719D01*
X54974234Y13024500D01*
X54974236Y13024500D01*
X55125764Y13024500D01*
X55125766Y13024500D01*
X55272135Y13063719D01*
X55314560Y13088214D01*
X55382459Y13104687D01*
X55448487Y13081835D01*
X55483948Y13042827D01*
X55539482Y12946639D01*
X55539484Y12946637D01*
X55539485Y12946635D01*
X55646635Y12839485D01*
X55777865Y12763719D01*
X55911488Y12727916D01*
X55967075Y12695822D01*
X57913181Y10749716D01*
X57946666Y10688393D01*
X57949500Y10662035D01*
X57949500Y9163742D01*
X57929815Y9096703D01*
X57877011Y9050948D01*
X57807853Y9041004D01*
X57744297Y9070029D01*
X57737819Y9076061D01*
X57653367Y9160513D01*
X57653365Y9160515D01*
X57566789Y9210500D01*
X57522136Y9236281D01*
X57448950Y9255891D01*
X57375766Y9275500D01*
X57224234Y9275500D01*
X57077863Y9236281D01*
X56946635Y9160515D01*
X56946632Y9160513D01*
X56839487Y9053368D01*
X56839485Y9053365D01*
X56763719Y8922137D01*
X56741897Y8840694D01*
X56724500Y8775766D01*
X56724500Y8624234D01*
X56727532Y8612919D01*
X56763719Y8477864D01*
X56796645Y8420836D01*
X56839485Y8346635D01*
X56839487Y8346633D01*
X56913181Y8272939D01*
X56946666Y8211616D01*
X56949500Y8185258D01*
X56949500Y6746545D01*
X56929815Y6679506D01*
X56913181Y6658864D01*
X56366136Y6111819D01*
X56304813Y6078334D01*
X56278455Y6075500D01*
X56174234Y6075500D01*
X56027863Y6036281D01*
X55896635Y5960515D01*
X55837681Y5901561D01*
X55776357Y5868077D01*
X55706666Y5873062D01*
X55662319Y5901561D01*
X55652752Y5911128D01*
X55603365Y5960515D01*
X55511934Y6013303D01*
X55472136Y6036281D01*
X55398950Y6055891D01*
X55325766Y6075500D01*
X55174234Y6075500D01*
X55027863Y6036281D01*
X54896635Y5960515D01*
X54896632Y5960513D01*
X54789487Y5853368D01*
X54789485Y5853365D01*
X54713719Y5722137D01*
X54674500Y5575766D01*
X54674500Y5424235D01*
X54713719Y5277864D01*
X54751602Y5212250D01*
X54789485Y5146635D01*
X54896635Y5039485D01*
X55027865Y4963719D01*
X55174234Y4924500D01*
X55174236Y4924500D01*
X55325764Y4924500D01*
X55325766Y4924500D01*
X55472135Y4963719D01*
X55603365Y5039485D01*
X55662319Y5098439D01*
X55723642Y5131924D01*
X55793334Y5126940D01*
X55837681Y5098439D01*
X55896635Y5039485D01*
X56027865Y4963719D01*
X56174234Y4924500D01*
X56174236Y4924500D01*
X56325764Y4924500D01*
X56325766Y4924500D01*
X56472135Y4963719D01*
X56603365Y5039485D01*
X56710515Y5146635D01*
X56786281Y5277865D01*
X56825500Y5424234D01*
X56825500Y5528457D01*
X56845185Y5595496D01*
X56861819Y5616138D01*
X57337819Y6092138D01*
X57399142Y6125623D01*
X57468834Y6120639D01*
X57524767Y6078767D01*
X57549184Y6013303D01*
X57549500Y6004457D01*
X57549500Y5527142D01*
X57532887Y5465142D01*
X57480200Y5373888D01*
X57449501Y5259311D01*
X57449501Y5140690D01*
X57480199Y5026115D01*
X57508260Y4977513D01*
X57539511Y4923386D01*
X57675215Y4787681D01*
X57708700Y4726359D01*
X57703716Y4656667D01*
X57675215Y4612320D01*
X57349714Y4286818D01*
X57288393Y4253334D01*
X57262035Y4250500D01*
X54703937Y4250500D01*
X54641937Y4267113D01*
X54582712Y4301307D01*
X54522136Y4336281D01*
X54448950Y4355891D01*
X54375766Y4375500D01*
X54224234Y4375500D01*
X54077863Y4336281D01*
X53946635Y4260515D01*
X53946632Y4260513D01*
X53839487Y4153368D01*
X53839485Y4153365D01*
X53763719Y4022137D01*
X53724500Y3875766D01*
X53724500Y3724235D01*
X53763719Y3577864D01*
X53801602Y3512250D01*
X53839485Y3446635D01*
X53946635Y3339485D01*
X54077865Y3263719D01*
X54224234Y3224500D01*
X54224236Y3224500D01*
X54375764Y3224500D01*
X54375766Y3224500D01*
X54522135Y3263719D01*
X54641937Y3332888D01*
X54703937Y3349500D01*
X57559308Y3349500D01*
X57559309Y3349500D01*
X57649673Y3373714D01*
X57673887Y3380201D01*
X57776614Y3439511D01*
X58432926Y4095824D01*
X58488509Y4127915D01*
X58622135Y4163719D01*
X58753365Y4239485D01*
X58860515Y4346635D01*
X58936281Y4477865D01*
X58975500Y4624234D01*
X58975500Y4775766D01*
X58936281Y4922135D01*
X58915584Y4957982D01*
X58899112Y5025881D01*
X58921964Y5091908D01*
X58976885Y5135099D01*
X58990869Y5139755D01*
X59073536Y5161905D01*
X59181964Y5224505D01*
X59270495Y5313036D01*
X59333095Y5421464D01*
X59365500Y5542399D01*
X59365500Y5667601D01*
X59333095Y5788536D01*
X59270495Y5896964D01*
X59181964Y5985495D01*
X59073536Y6048095D01*
X59073537Y6048095D01*
X59033224Y6058897D01*
X58952601Y6080500D01*
X58827399Y6080500D01*
X58746775Y6058897D01*
X58706463Y6048095D01*
X58598037Y5985496D01*
X58598034Y5985494D01*
X58509506Y5896966D01*
X58509505Y5896964D01*
X58482680Y5850500D01*
X58481888Y5849129D01*
X58431321Y5800913D01*
X58362714Y5787689D01*
X58297849Y5813657D01*
X58257320Y5870571D01*
X58250500Y5911128D01*
X58250500Y8203456D01*
X58270185Y8270495D01*
X58286813Y8291132D01*
X58416520Y8420839D01*
X58472100Y8452928D01*
X58573886Y8480201D01*
X58676613Y8539511D01*
X58760489Y8623387D01*
X58819799Y8726114D01*
X58850500Y8840691D01*
X58850500Y10959309D01*
X58819799Y11073886D01*
X58814094Y11083767D01*
X58760490Y11176613D01*
X57524284Y12412819D01*
X57490799Y12474142D01*
X57495783Y12543834D01*
X57537655Y12599767D01*
X57603119Y12624184D01*
X57611965Y12624500D01*
X57675764Y12624500D01*
X57675766Y12624500D01*
X57822135Y12663719D01*
X57953365Y12739485D01*
X58060515Y12846635D01*
X58136281Y12977865D01*
X58175500Y13124234D01*
X58175500Y13275766D01*
X58136281Y13422135D01*
X58060515Y13553365D01*
X57986819Y13627061D01*
X57953334Y13688384D01*
X57950500Y13714742D01*
X57950500Y25118098D01*
X59499500Y25118098D01*
X59499500Y24881903D01*
X59536446Y24648632D01*
X59609433Y24424004D01*
X59706482Y24233537D01*
X59716657Y24213567D01*
X59855483Y24022490D01*
X60022490Y23855483D01*
X60213567Y23716657D01*
X60312991Y23665998D01*
X60424003Y23609434D01*
X60424005Y23609434D01*
X60424008Y23609432D01*
X60544412Y23570311D01*
X60648631Y23536447D01*
X60881903Y23499500D01*
X60881908Y23499500D01*
X61118097Y23499500D01*
X61351368Y23536447D01*
X61575992Y23609432D01*
X61786433Y23716657D01*
X61977510Y23855483D01*
X62144517Y24022490D01*
X62283343Y24213567D01*
X62390568Y24424008D01*
X62463553Y24648632D01*
X62500500Y24881903D01*
X62500500Y25118098D01*
X62463553Y25351369D01*
X62411697Y25510964D01*
X62390568Y25575992D01*
X62390566Y25575995D01*
X62390566Y25575997D01*
X62283342Y25786434D01*
X62144517Y25977510D01*
X61977510Y26144517D01*
X61786433Y26283343D01*
X61575996Y26390567D01*
X61351368Y26463554D01*
X61118097Y26500500D01*
X61118092Y26500500D01*
X60881908Y26500500D01*
X60881903Y26500500D01*
X60648631Y26463554D01*
X60424003Y26390567D01*
X60213566Y26283343D01*
X60130295Y26222842D01*
X60022490Y26144517D01*
X60022488Y26144515D01*
X60022487Y26144515D01*
X59855485Y25977513D01*
X59855485Y25977512D01*
X59855483Y25977510D01*
X59818859Y25927101D01*
X59716657Y25786434D01*
X59609433Y25575997D01*
X59536446Y25351369D01*
X59499500Y25118098D01*
X57950500Y25118098D01*
X57950500Y27303457D01*
X57970185Y27370496D01*
X57986815Y27391134D01*
X58883862Y28288182D01*
X58945185Y28321666D01*
X58971543Y28324500D01*
X59075764Y28324500D01*
X59075766Y28324500D01*
X59222135Y28363719D01*
X59353365Y28439485D01*
X59460515Y28546635D01*
X59536281Y28677865D01*
X59575500Y28824234D01*
X59575500Y28975766D01*
X59536281Y29122135D01*
X59460515Y29253365D01*
X59353365Y29360515D01*
X59287750Y29398398D01*
X59222136Y29436281D01*
X59178370Y29448008D01*
X59121869Y29463147D01*
X59062210Y29499511D01*
X59031681Y29562358D01*
X59039976Y29631733D01*
X59066283Y29670602D01*
X60508863Y31113181D01*
X60570186Y31146666D01*
X60596544Y31149500D01*
X62025500Y31149500D01*
X62092539Y31129815D01*
X62138294Y31077011D01*
X62149500Y31025500D01*
X62149500Y30014742D01*
X62129815Y29947703D01*
X62113181Y29927061D01*
X62039487Y29853368D01*
X62039485Y29853365D01*
X61963719Y29722137D01*
X61924500Y29575766D01*
X61924500Y29424235D01*
X61963719Y29277864D01*
X61977862Y29253368D01*
X62039485Y29146635D01*
X62146635Y29039485D01*
X62277865Y28963719D01*
X62424234Y28924500D01*
X62424236Y28924500D01*
X62575763Y28924500D01*
X62575766Y28924500D01*
X62673210Y28950610D01*
X62743056Y28948947D01*
X62800919Y28909785D01*
X62828423Y28845557D01*
X62829300Y28830835D01*
X62829300Y22387142D01*
X62809615Y22320103D01*
X62792981Y22299461D01*
X62744287Y22250768D01*
X62744285Y22250765D01*
X62668519Y22119537D01*
X62666262Y22111113D01*
X62629300Y21973166D01*
X62629300Y21821634D01*
X62648909Y21748450D01*
X62668519Y21675264D01*
X62688585Y21640509D01*
X62744285Y21544035D01*
X62851435Y21436885D01*
X62982665Y21361119D01*
X63129034Y21321900D01*
X63129036Y21321900D01*
X63280564Y21321900D01*
X63280566Y21321900D01*
X63426935Y21361119D01*
X63558165Y21436885D01*
X63665315Y21544035D01*
X63741081Y21675265D01*
X63780300Y21821634D01*
X63780300Y21973166D01*
X63741081Y22119535D01*
X63665315Y22250765D01*
X63616619Y22299461D01*
X63583134Y22360784D01*
X63580300Y22387142D01*
X63580300Y35800134D01*
X63580300Y35800135D01*
X63570066Y35838327D01*
X63554710Y35895637D01*
X63554710Y35895638D01*
X63505275Y35981262D01*
X63435362Y36051175D01*
X56067319Y43419218D01*
X56033834Y43480541D01*
X56031000Y43506899D01*
X56031000Y43575764D01*
X56031000Y43575766D01*
X55991781Y43722135D01*
X55916015Y43853365D01*
X55808865Y43960515D01*
X55807023Y43961579D01*
X55752645Y43992975D01*
X55704430Y44043542D01*
X55691208Y44112149D01*
X55717176Y44177014D01*
X55726956Y44188033D01*
X57381806Y45842881D01*
X57443129Y45876366D01*
X57469487Y45879200D01*
X57909707Y45879200D01*
X57941800Y45874975D01*
X58019334Y45854200D01*
X58019336Y45854200D01*
X58170864Y45854200D01*
X58170866Y45854200D01*
X58317235Y45893419D01*
X58448465Y45969185D01*
X58555615Y46076335D01*
X58598104Y46149928D01*
X58648667Y46198140D01*
X58717274Y46211364D01*
X58782139Y46185396D01*
X58793169Y46175606D01*
X59088181Y45880594D01*
X59121666Y45819271D01*
X59124500Y45792913D01*
X59124500Y44176394D01*
X59120275Y44144302D01*
X59099500Y44066768D01*
X59099500Y43915235D01*
X59138719Y43768864D01*
X59165699Y43722135D01*
X59214485Y43637635D01*
X59321635Y43530485D01*
X59452865Y43454719D01*
X59599234Y43415500D01*
X59599236Y43415500D01*
X59750764Y43415500D01*
X59750766Y43415500D01*
X59897135Y43454719D01*
X60028365Y43530485D01*
X60135515Y43637635D01*
X60211281Y43768865D01*
X60250500Y43915234D01*
X60250500Y44066766D01*
X60229725Y44144302D01*
X60225500Y44176394D01*
X60225500Y46144773D01*
X60225500Y46144775D01*
X60187984Y46284785D01*
X60163804Y46326666D01*
X60115510Y46410315D01*
X58184815Y48341010D01*
X58059285Y48413484D01*
X58059286Y48413484D01*
X57972340Y48436781D01*
X57972340Y48436782D01*
X57919275Y48451000D01*
X40786593Y48451000D01*
X40754500Y48455225D01*
X40751661Y48455986D01*
X40676966Y48476000D01*
X40525434Y48476000D01*
X40447900Y48455225D01*
X40415807Y48451000D01*
X33472724Y48451000D01*
X33419659Y48436782D01*
X33419660Y48436781D01*
X33332714Y48413484D01*
X33207186Y48341011D01*
X33207183Y48341009D01*
X31266230Y46400057D01*
X31240551Y46380352D01*
X31171035Y46340216D01*
X31063885Y46233065D01*
X30988119Y46101837D01*
X30948900Y45955466D01*
X30948900Y45803935D01*
X30969675Y45726401D01*
X30973900Y45694308D01*
X30973900Y43401188D01*
X30954215Y43334149D01*
X30937581Y43313507D01*
X21744430Y34120357D01*
X21718751Y34100652D01*
X21649235Y34060516D01*
X21542085Y33953365D01*
X21466319Y33822137D01*
X21427100Y33675766D01*
X21427100Y33524233D01*
X21443402Y33463392D01*
X21441739Y33393543D01*
X21402576Y33335680D01*
X21338347Y33308177D01*
X21323627Y33307300D01*
X20695499Y33307300D01*
X20628460Y33326985D01*
X20607818Y33343619D01*
X16761863Y37189574D01*
X16761862Y37189575D01*
X16676238Y37239010D01*
X16619970Y37254087D01*
X16619969Y37254088D01*
X16580736Y37264600D01*
X16580735Y37264600D01*
X13958936Y37264600D01*
X13860064Y37264600D01*
X13860063Y37264600D01*
X13820830Y37254088D01*
X13820830Y37254087D01*
X13764562Y37239010D01*
X13764561Y37239010D01*
X13764559Y37239009D01*
X13678936Y37189574D01*
X12225826Y35736464D01*
X12176391Y35650841D01*
X12176391Y35650840D01*
X12176390Y35650838D01*
X12150800Y35555335D01*
X300500Y35555335D01*
X300500Y46118098D01*
X2499500Y46118098D01*
X2499500Y45881903D01*
X2536446Y45648632D01*
X2609433Y45424004D01*
X2645426Y45353365D01*
X2716657Y45213567D01*
X2855483Y45022490D01*
X3022490Y44855483D01*
X3213567Y44716657D01*
X3308915Y44668075D01*
X3424003Y44609434D01*
X3424005Y44609434D01*
X3424008Y44609432D01*
X3544412Y44570311D01*
X3648631Y44536447D01*
X3881903Y44499500D01*
X3881908Y44499500D01*
X4118097Y44499500D01*
X4351368Y44536447D01*
X4575992Y44609432D01*
X4786433Y44716657D01*
X4977510Y44855483D01*
X5144517Y45022490D01*
X5283343Y45213567D01*
X5390568Y45424008D01*
X5463553Y45648632D01*
X5473373Y45710632D01*
X5500500Y45881903D01*
X5500500Y46118098D01*
X5463553Y46351369D01*
X5414533Y46502235D01*
X5390568Y46575992D01*
X5390566Y46575995D01*
X5390566Y46575997D01*
X5334002Y46687009D01*
X5283343Y46786433D01*
X5144517Y46977510D01*
X4977510Y47144517D01*
X4786433Y47283343D01*
X4575996Y47390567D01*
X4351368Y47463554D01*
X4118097Y47500500D01*
X4118092Y47500500D01*
X3881908Y47500500D01*
X3881903Y47500500D01*
X3648631Y47463554D01*
X3424003Y47390567D01*
X3213566Y47283343D01*
X3104550Y47204138D01*
X3022490Y47144517D01*
X3022488Y47144515D01*
X3022487Y47144515D01*
X2855485Y46977513D01*
X2855485Y46977512D01*
X2855483Y46977510D01*
X2795862Y46895450D01*
X2716657Y46786434D01*
X2609433Y46575997D01*
X2536446Y46351369D01*
X2499500Y46118098D01*
X300500Y46118098D01*
X300500Y49575500D01*
X320185Y49642539D01*
X372989Y49688294D01*
X424500Y49699500D01*
X33876000Y49699500D01*
X33943039Y49679815D01*
G37*
%TD.AperFunction*%
%TD*%
M02*
