%TF.GenerationSoftware,KiCad,Pcbnew,10.0.6*%
%TF.CreationDate,2026-09-11T22:25:59+02:00*%
%TF.ProjectId,leaf-heat-v1,6c656166-2d68-4656-9174-2d76312e6b69,rev?*%
%TF.SameCoordinates,Original*%
%TF.FileFunction,Copper,L1,Top*%
%TF.FilePolarity,Positive*%
%FSLAX46Y46*%
G04 Gerber Fmt 4.6, Leading zero omitted, Abs format (unit mm)*
G04 Created by KiCad (PCBNEW 10.0.6) date 2026-09-11 22:25:59*
%MOMM*%
%LPD*%
G01*
G04 APERTURE LIST*
G04 Aperture macros list*
%AMRoundRect*
0 Rectangle with rounded corners*
0 $1 Rounding radius*
0 $2 $3 $4 $5 $6 $7 $8 $9 X,Y pos of 4 corners*
0 Add a 4 corners polygon primitive as box body*
4,1,4,$2,$3,$4,$5,$6,$7,$8,$9,$2,$3,0*
0 Add four circle primitives for the rounded corners*
1,1,$1+$1,$2,$3*
1,1,$1+$1,$4,$5*
1,1,$1+$1,$6,$7*
1,1,$1+$1,$8,$9*
0 Add four rect primitives between the rounded corners*
20,1,$1+$1,$2,$3,$4,$5,0*
20,1,$1+$1,$4,$5,$6,$7,0*
20,1,$1+$1,$6,$7,$8,$9,0*
20,1,$1+$1,$8,$9,$2,$3,0*%
G04 Aperture macros list end*
%TA.AperFunction,SMDPad,CuDef*%
%ADD10RoundRect,0.225000X0.225000X0.250000X-0.225000X0.250000X-0.225000X-0.250000X0.225000X-0.250000X0*%
%TD*%
%TA.AperFunction,SMDPad,CuDef*%
%ADD11RoundRect,0.250000X-0.450000X-0.800000X0.450000X-0.800000X0.450000X0.800000X-0.450000X0.800000X0*%
%TD*%
%TA.AperFunction,SMDPad,CuDef*%
%ADD12RoundRect,0.250000X-1.000000X-0.650000X1.000000X-0.650000X1.000000X0.650000X-1.000000X0.650000X0*%
%TD*%
%TA.AperFunction,SMDPad,CuDef*%
%ADD13RoundRect,0.218750X-0.218750X-0.256250X0.218750X-0.256250X0.218750X0.256250X-0.218750X0.256250X0*%
%TD*%
%TA.AperFunction,SMDPad,CuDef*%
%ADD14RoundRect,0.200000X-0.200000X-0.275000X0.200000X-0.275000X0.200000X0.275000X-0.200000X0.275000X0*%
%TD*%
%TA.AperFunction,SMDPad,CuDef*%
%ADD15RoundRect,0.225000X-0.225000X-0.375000X0.225000X-0.375000X0.225000X0.375000X-0.225000X0.375000X0*%
%TD*%
%TA.AperFunction,ComponentPad*%
%ADD16R,1.600000X1.600000*%
%TD*%
%TA.AperFunction,ComponentPad*%
%ADD17C,1.600000*%
%TD*%
%TA.AperFunction,ComponentPad*%
%ADD18C,4.000000*%
%TD*%
%TA.AperFunction,SMDPad,CuDef*%
%ADD19RoundRect,0.250000X-0.325000X-1.100000X0.325000X-1.100000X0.325000X1.100000X-0.325000X1.100000X0*%
%TD*%
%TA.AperFunction,SMDPad,CuDef*%
%ADD20RoundRect,0.225000X-0.225000X-0.250000X0.225000X-0.250000X0.225000X0.250000X-0.225000X0.250000X0*%
%TD*%
%TA.AperFunction,SMDPad,CuDef*%
%ADD21R,2.350000X5.100000*%
%TD*%
%TA.AperFunction,SMDPad,CuDef*%
%ADD22RoundRect,0.250000X0.325000X1.100000X-0.325000X1.100000X-0.325000X-1.100000X0.325000X-1.100000X0*%
%TD*%
%TA.AperFunction,SMDPad,CuDef*%
%ADD23RoundRect,0.250000X-0.250000X-0.475000X0.250000X-0.475000X0.250000X0.475000X-0.250000X0.475000X0*%
%TD*%
%TA.AperFunction,SMDPad,CuDef*%
%ADD24RoundRect,0.200000X0.275000X-0.200000X0.275000X0.200000X-0.275000X0.200000X-0.275000X-0.200000X0*%
%TD*%
%TA.AperFunction,SMDPad,CuDef*%
%ADD25RoundRect,0.250000X0.900000X-1.000000X0.900000X1.000000X-0.900000X1.000000X-0.900000X-1.000000X0*%
%TD*%
%TA.AperFunction,SMDPad,CuDef*%
%ADD26RoundRect,0.250000X0.250000X0.475000X-0.250000X0.475000X-0.250000X-0.475000X0.250000X-0.475000X0*%
%TD*%
%TA.AperFunction,SMDPad,CuDef*%
%ADD27R,1.960000X3.150000*%
%TD*%
%TA.AperFunction,SMDPad,CuDef*%
%ADD28R,1.700000X1.000000*%
%TD*%
%TA.AperFunction,SMDPad,CuDef*%
%ADD29R,2.200000X0.500000*%
%TD*%
%TA.AperFunction,ComponentPad*%
%ADD30C,0.630000*%
%TD*%
%TA.AperFunction,SMDPad,CuDef*%
%ADD31R,2.950000X4.900000*%
%TD*%
%TA.AperFunction,SMDPad,CuDef*%
%ADD32RoundRect,0.225000X0.250000X-0.225000X0.250000X0.225000X-0.250000X0.225000X-0.250000X-0.225000X0*%
%TD*%
%TA.AperFunction,SMDPad,CuDef*%
%ADD33R,1.500000X0.900000*%
%TD*%
%TA.AperFunction,HeatsinkPad*%
%ADD34C,0.650000*%
%TD*%
%TA.AperFunction,HeatsinkPad*%
%ADD35R,2.900000X2.900000*%
%TD*%
%TA.AperFunction,SMDPad,CuDef*%
%ADD36RoundRect,0.150000X-0.587500X-0.150000X0.587500X-0.150000X0.587500X0.150000X-0.587500X0.150000X0*%
%TD*%
%TA.AperFunction,SMDPad,CuDef*%
%ADD37RoundRect,0.150000X-0.825000X-0.150000X0.825000X-0.150000X0.825000X0.150000X-0.825000X0.150000X0*%
%TD*%
%TA.AperFunction,SMDPad,CuDef*%
%ADD38RoundRect,0.150000X0.150000X-0.512500X0.150000X0.512500X-0.150000X0.512500X-0.150000X-0.512500X0*%
%TD*%
%TA.AperFunction,SMDPad,CuDef*%
%ADD39RoundRect,0.150000X-0.150000X-0.425000X0.150000X-0.425000X0.150000X0.425000X-0.150000X0.425000X0*%
%TD*%
%TA.AperFunction,SMDPad,CuDef*%
%ADD40RoundRect,0.075000X-0.075000X-0.500000X0.075000X-0.500000X0.075000X0.500000X-0.075000X0.500000X0*%
%TD*%
%TA.AperFunction,ComponentPad*%
%ADD41O,1.000000X2.100000*%
%TD*%
%TA.AperFunction,ComponentPad*%
%ADD42O,1.000000X1.800000*%
%TD*%
%TA.AperFunction,ViaPad*%
%ADD43C,0.650000*%
%TD*%
%TA.AperFunction,Conductor*%
%ADD44C,0.250000*%
%TD*%
%TA.AperFunction,Conductor*%
%ADD45C,0.600000*%
%TD*%
%TA.AperFunction,Conductor*%
%ADD46C,0.400000*%
%TD*%
%TA.AperFunction,Conductor*%
%ADD47C,0.499800*%
%TD*%
%TA.AperFunction,Conductor*%
%ADD48C,0.350000*%
%TD*%
%TA.AperFunction,Conductor*%
%ADD49C,0.500000*%
%TD*%
%TA.AperFunction,Conductor*%
%ADD50C,0.200000*%
%TD*%
%TA.AperFunction,Conductor*%
%ADD51C,0.300000*%
%TD*%
%TA.AperFunction,Conductor*%
%ADD52C,0.187400*%
%TD*%
%TA.AperFunction,Conductor*%
%ADD53C,0.800000*%
%TD*%
%TA.AperFunction,Conductor*%
%ADD54C,0.450000*%
%TD*%
%TA.AperFunction,Conductor*%
%ADD55C,0.150000*%
%TD*%
G04 APERTURE END LIST*
D10*
%TO.P,C4,1*%
%TO.N,/BUCK_BOOT*%
X25775000Y39600000D03*
%TO.P,C4,2*%
%TO.N,/BUCK_SW*%
X24225000Y39600000D03*
%TD*%
D11*
%TO.P,D2,1*%
%TO.N,/VPWR*%
X45300000Y14000000D03*
%TO.P,D2,2*%
%TO.N,/USB_5V*%
X49700000Y14000000D03*
%TD*%
D12*
%TO.P,D1,1*%
%TO.N,/VPWR*%
X34500000Y16000000D03*
%TO.P,D1,2*%
%TO.N,/CAR_FUSED*%
X38500000Y16000000D03*
%TD*%
D13*
%TO.P,D6,1*%
%TO.N,/GND*%
X38212500Y30000000D03*
%TO.P,D6,2*%
%TO.N,/LED_A*%
X39787500Y30000000D03*
%TD*%
D14*
%TO.P,R2,1*%
%TO.N,/BUCK_FB*%
X22175000Y29500000D03*
%TO.P,R2,2*%
%TO.N,/GND*%
X23825000Y29500000D03*
%TD*%
%TO.P,R10,1*%
%TO.N,/3V3*%
X9175000Y27000000D03*
%TO.P,R10,2*%
%TO.N,/CAN_STB*%
X10825000Y27000000D03*
%TD*%
%TO.P,R15,1*%
%TO.N,/USB_5V*%
X60175000Y21000000D03*
%TO.P,R15,2*%
%TO.N,/USB_PRESENT*%
X61825000Y21000000D03*
%TD*%
D15*
%TO.P,D5,1*%
%TO.N,/USB_5V*%
X46350000Y19000000D03*
%TO.P,D5,2*%
%TO.N,/GND*%
X49650000Y19000000D03*
%TD*%
D14*
%TO.P,R12,1*%
%TO.N,/CC2*%
X60175000Y9000000D03*
%TO.P,R12,2*%
%TO.N,/GND*%
X61825000Y9000000D03*
%TD*%
D16*
%TO.P,J1,1*%
%TO.N,unconnected-(J1-Pad1)*%
X11000000Y11000000D03*
D17*
%TO.P,J1,2*%
%TO.N,/CAN_L*%
X13770000Y11000000D03*
%TO.P,J1,3*%
%TO.N,/GND*%
X16540000Y11000000D03*
%TO.P,J1,4*%
%TO.N,unconnected-(J1-Pad4)*%
X19310000Y11000000D03*
%TO.P,J1,5*%
%TO.N,unconnected-(J1-Pad5)*%
X22080000Y11000000D03*
%TO.P,J1,6*%
%TO.N,unconnected-(J1-Pad6)*%
X12385000Y8160000D03*
%TO.P,J1,7*%
%TO.N,/CAN_H*%
X15155000Y8160000D03*
%TO.P,J1,8*%
%TO.N,unconnected-(J1-Pad8)*%
X17925000Y8160000D03*
%TO.P,J1,9*%
%TO.N,/CAR_12V*%
X20695000Y8160000D03*
D18*
%TO.P,J1,SH*%
%TO.N,/GND*%
X4045001Y9580000D03*
X29035000Y9580000D03*
%TD*%
D14*
%TO.P,R4,1*%
%TO.N,/3V3*%
X59675000Y45000000D03*
%TO.P,R4,2*%
%TO.N,/BOOT_IO2*%
X61325000Y45000000D03*
%TD*%
D19*
%TO.P,C6,1*%
%TO.N,/3V3*%
X30025000Y40500000D03*
%TO.P,C6,2*%
%TO.N,/GND*%
X32975000Y40500000D03*
%TD*%
D20*
%TO.P,C14,1*%
%TO.N,/USB_5V*%
X51225000Y11000000D03*
%TO.P,C14,2*%
%TO.N,/GND*%
X52775000Y11000000D03*
%TD*%
D21*
%TO.P,L1,1*%
%TO.N,/BUCK_SW*%
X22925000Y44500000D03*
%TO.P,L1,2*%
%TO.N,/3V3*%
X27075000Y44500000D03*
%TD*%
D20*
%TO.P,C11,1*%
%TO.N,/BAT_SENSE*%
X61225000Y39500000D03*
%TO.P,C11,2*%
%TO.N,/GND*%
X62775000Y39500000D03*
%TD*%
D22*
%TO.P,C1,1*%
%TO.N,/VPWR*%
X12975000Y43000000D03*
%TO.P,C1,2*%
%TO.N,/GND*%
X10025000Y43000000D03*
%TD*%
D23*
%TO.P,C9,1*%
%TO.N,/3V3*%
X34550000Y47800000D03*
%TO.P,C9,2*%
%TO.N,/GND*%
X36450000Y47800000D03*
%TD*%
D14*
%TO.P,R9,1*%
%TO.N,/STATUS_LED*%
X34175000Y30000000D03*
%TO.P,R9,2*%
%TO.N,/LED_A*%
X35825000Y30000000D03*
%TD*%
%TO.P,R17,1*%
%TO.N,/USB_5V*%
X51175000Y19000000D03*
%TO.P,R17,2*%
%TO.N,/GND*%
X52825000Y19000000D03*
%TD*%
D19*
%TO.P,C7,1*%
%TO.N,/3V3*%
X30025000Y36500000D03*
%TO.P,C7,2*%
%TO.N,/GND*%
X32975000Y36500000D03*
%TD*%
%TO.P,C5,1*%
%TO.N,/3V3*%
X30025000Y44500000D03*
%TO.P,C5,2*%
%TO.N,/GND*%
X32975000Y44500000D03*
%TD*%
D24*
%TO.P,R14,1*%
%TO.N,/USB_CONN_DP*%
X61500000Y30175000D03*
%TO.P,R14,2*%
%TO.N,/USB_DP*%
X61500000Y31825000D03*
%TD*%
D25*
%TO.P,D3,1*%
%TO.N,/VPWR*%
X7500000Y31850000D03*
%TO.P,D3,2*%
%TO.N,/GND*%
X7500000Y36150000D03*
%TD*%
D26*
%TO.P,C2,1*%
%TO.N,/VPWR*%
X13450000Y38600000D03*
%TO.P,C2,2*%
%TO.N,/GND*%
X11550000Y38600000D03*
%TD*%
D27*
%TO.P,F1,1*%
%TO.N,/CAR_12V*%
X21545000Y17000000D03*
%TO.P,F1,2*%
%TO.N,/CAR_FUSED*%
X26455000Y17000000D03*
%TD*%
D14*
%TO.P,R3,1*%
%TO.N,/3V3*%
X35175000Y43200000D03*
%TO.P,R3,2*%
%TO.N,/ESP_EN*%
X36825000Y43200000D03*
%TD*%
D28*
%TO.P,SW1,1*%
%TO.N,/ESP_EN*%
X27850000Y25900000D03*
X34150000Y25900000D03*
%TO.P,SW1,2*%
%TO.N,/GND*%
X27850000Y22100000D03*
X34150000Y22100000D03*
%TD*%
D20*
%TO.P,C8,1*%
%TO.N,/ESP_EN*%
X35225000Y40900000D03*
%TO.P,C8,2*%
%TO.N,/GND*%
X36775000Y40900000D03*
%TD*%
D14*
%TO.P,R5,1*%
%TO.N,/3V3*%
X35175000Y38500000D03*
%TO.P,R5,2*%
%TO.N,/BOOT_IO8*%
X36825000Y38500000D03*
%TD*%
D29*
%TO.P,U1,1*%
%TO.N,/GND*%
X16125000Y39905000D03*
%TO.P,U1,2*%
%TO.N,/VPWR*%
X16125000Y38635000D03*
%TO.P,U1,3*%
X16125000Y37365000D03*
%TO.P,U1,4*%
%TO.N,unconnected-(U1-PG-Pad4)*%
X16125000Y36095000D03*
%TO.P,U1,5*%
%TO.N,/BUCK_FB*%
X21875000Y36095000D03*
%TO.P,U1,6*%
%TO.N,/BUCK_VCC*%
X21875000Y37365000D03*
%TO.P,U1,7*%
%TO.N,/BUCK_BOOT*%
X21875000Y38635000D03*
%TO.P,U1,8*%
%TO.N,/BUCK_SW*%
X21875000Y39905000D03*
D30*
%TO.P,U1,9*%
%TO.N,/GND*%
X18350000Y39300000D03*
X18350000Y38000000D03*
X18350000Y36700000D03*
D31*
X19000000Y38000000D03*
D30*
X19650000Y39300000D03*
X19650000Y38000000D03*
X19650000Y36700000D03*
%TD*%
D32*
%TO.P,C12,1*%
%TO.N,/3V3*%
X11000000Y21225000D03*
%TO.P,C12,2*%
%TO.N,/GND*%
X11000000Y22775000D03*
%TD*%
D14*
%TO.P,R8,1*%
%TO.N,/BAT_SENSE*%
X61175000Y42500000D03*
%TO.P,R8,2*%
%TO.N,/GND*%
X62825000Y42500000D03*
%TD*%
%TO.P,R7,1*%
%TO.N,/VPWR*%
X59175000Y47500000D03*
%TO.P,R7,2*%
%TO.N,/BAT_SENSE*%
X60825000Y47500000D03*
%TD*%
D33*
%TO.P,U2,1*%
%TO.N,/3V3*%
X39250000Y48000000D03*
%TO.P,U2,2*%
%TO.N,/ESP_EN*%
X39250000Y46500000D03*
%TO.P,U2,3*%
%TO.N,/CAN_TX*%
X39250000Y45000000D03*
%TO.P,U2,4*%
%TO.N,/CAN_RX*%
X39250000Y43500000D03*
%TO.P,U2,5*%
%TO.N,unconnected-(U2-IO6-Pad5)*%
X39250000Y42000000D03*
%TO.P,U2,6*%
%TO.N,/STATUS_LED*%
X39250000Y40500000D03*
%TO.P,U2,7*%
%TO.N,/BOOT_IO8*%
X39250000Y39000000D03*
%TO.P,U2,8*%
%TO.N,/BOOT_IO9*%
X39250000Y37500000D03*
%TO.P,U2,9*%
%TO.N,/GND*%
X39250000Y36000000D03*
%TO.P,U2,10*%
%TO.N,unconnected-(U2-IO10-Pad10)*%
X56750000Y36000000D03*
%TO.P,U2,11*%
%TO.N,unconnected-(U2-IO20{slash}RXD-Pad11)*%
X56750000Y37500000D03*
%TO.P,U2,12*%
%TO.N,unconnected-(U2-IO21{slash}TXD-Pad12)*%
X56750000Y39000000D03*
%TO.P,U2,13*%
%TO.N,/USB_DM*%
X56750000Y40500000D03*
%TO.P,U2,14*%
%TO.N,/USB_DP*%
X56750000Y42000000D03*
%TO.P,U2,15*%
%TO.N,/USB_PRESENT*%
X56750000Y43500000D03*
%TO.P,U2,16*%
%TO.N,/BOOT_IO2*%
X56750000Y45000000D03*
%TO.P,U2,17*%
%TO.N,/CAN_STB*%
X56750000Y46500000D03*
%TO.P,U2,18*%
%TO.N,/BAT_SENSE*%
X56750000Y48000000D03*
D34*
%TO.P,U2,19*%
%TO.N,/GND*%
X47860000Y42350000D03*
X47860000Y41250000D03*
X48410000Y42900000D03*
X48410000Y41800000D03*
X48410000Y40700000D03*
X48960000Y42350000D03*
D35*
X48960000Y41800000D03*
D34*
X48960000Y41250000D03*
X49510000Y42900000D03*
X49510000Y41800000D03*
X49510000Y40700000D03*
X50060000Y42350000D03*
X50060000Y41250000D03*
%TD*%
D20*
%TO.P,C13,1*%
%TO.N,/3V3*%
X21225000Y20500000D03*
%TO.P,C13,2*%
%TO.N,/GND*%
X22775000Y20500000D03*
%TD*%
D36*
%TO.P,D4,1*%
%TO.N,/CAN_L*%
X15062500Y17950000D03*
%TO.P,D4,2*%
%TO.N,/CAN_H*%
X15062500Y16050000D03*
%TO.P,D4,3*%
%TO.N,/GND*%
X16937500Y17000000D03*
%TD*%
D37*
%TO.P,U3,1*%
%TO.N,/CAN_TX*%
X13525000Y24905000D03*
%TO.P,U3,2*%
%TO.N,/GND*%
X13525000Y23635000D03*
%TO.P,U3,3*%
%TO.N,/3V3*%
X13525000Y22365000D03*
%TO.P,U3,4*%
%TO.N,/CAN_RX*%
X13525000Y21095000D03*
%TO.P,U3,5*%
%TO.N,/3V3*%
X18475000Y21095000D03*
%TO.P,U3,6*%
%TO.N,/CAN_L*%
X18475000Y22365000D03*
%TO.P,U3,7*%
%TO.N,/CAN_H*%
X18475000Y23635000D03*
%TO.P,U3,8*%
%TO.N,/CAN_STB*%
X18475000Y24905000D03*
%TD*%
D20*
%TO.P,C10,1*%
%TO.N,/3V3*%
X35225000Y45500000D03*
%TO.P,C10,2*%
%TO.N,/GND*%
X36775000Y45500000D03*
%TD*%
D14*
%TO.P,R6,1*%
%TO.N,/3V3*%
X35175000Y36000000D03*
%TO.P,R6,2*%
%TO.N,/BOOT_IO9*%
X36825000Y36000000D03*
%TD*%
D38*
%TO.P,U4,1*%
%TO.N,/USB_CONN_DP*%
X55050000Y9862500D03*
%TO.P,U4,2*%
%TO.N,/GND*%
X56000000Y9862500D03*
%TO.P,U4,3*%
%TO.N,/USB_CONN_DM*%
X56950000Y9862500D03*
%TO.P,U4,4*%
X56950000Y12137500D03*
%TO.P,U4,5*%
%TO.N,/USB_5V*%
X56000000Y12137500D03*
%TO.P,U4,6*%
%TO.N,/USB_CONN_DP*%
X55050000Y12137500D03*
%TD*%
D28*
%TO.P,SW2,1*%
%TO.N,/BOOT_IO9*%
X38850000Y25900000D03*
X45150000Y25900000D03*
%TO.P,SW2,2*%
%TO.N,/GND*%
X38850000Y22100000D03*
X45150000Y22100000D03*
%TD*%
D20*
%TO.P,C3,1*%
%TO.N,/BUCK_VCC*%
X24725000Y37000000D03*
%TO.P,C3,2*%
%TO.N,/GND*%
X26275000Y37000000D03*
%TD*%
D24*
%TO.P,R13,1*%
%TO.N,/USB_CONN_DM*%
X59000000Y30175000D03*
%TO.P,R13,2*%
%TO.N,/USB_DM*%
X59000000Y31825000D03*
%TD*%
D14*
%TO.P,R1,1*%
%TO.N,/3V3*%
X22175000Y32500000D03*
%TO.P,R1,2*%
%TO.N,/BUCK_FB*%
X23825000Y32500000D03*
%TD*%
D39*
%TO.P,J2,A1*%
%TO.N,/GND*%
X52800000Y6680000D03*
%TO.P,J2,A4*%
%TO.N,/USB_5V*%
X53600000Y6680000D03*
D40*
%TO.P,J2,A5*%
%TO.N,/CC1*%
X54750000Y6680000D03*
%TO.P,J2,A6*%
%TO.N,/USB_CONN_DP*%
X55750000Y6680000D03*
%TO.P,J2,A7*%
%TO.N,/USB_CONN_DM*%
X56250000Y6680000D03*
%TO.P,J2,A8*%
%TO.N,unconnected-(J2-SBU1-PadA8)*%
X57250000Y6680000D03*
D39*
%TO.P,J2,A9*%
%TO.N,/USB_5V*%
X58400000Y6680000D03*
%TO.P,J2,A12*%
%TO.N,/GND*%
X59200000Y6680000D03*
%TO.P,J2,B1*%
X59200000Y6680000D03*
%TO.P,J2,B4*%
%TO.N,/USB_5V*%
X58400000Y6680000D03*
D40*
%TO.P,J2,B5*%
%TO.N,/CC2*%
X57750000Y6680000D03*
%TO.P,J2,B6*%
%TO.N,/USB_CONN_DP*%
X56750000Y6680000D03*
%TO.P,J2,B7*%
%TO.N,/USB_CONN_DM*%
X55250000Y6680000D03*
%TO.P,J2,B8*%
%TO.N,unconnected-(J2-SBU2-PadB8)*%
X54250000Y6680000D03*
D39*
%TO.P,J2,B9*%
%TO.N,/USB_5V*%
X53600000Y6680000D03*
%TO.P,J2,B12*%
%TO.N,/GND*%
X52800000Y6680000D03*
D41*
%TO.P,J2,SH*%
X51680000Y6105000D03*
D42*
X51680000Y1925000D03*
D41*
X60320000Y6105000D03*
D42*
X60320000Y1925000D03*
%TD*%
D14*
%TO.P,R11,1*%
%TO.N,/CC1*%
X49675000Y9000000D03*
%TO.P,R11,2*%
%TO.N,/GND*%
X51325000Y9000000D03*
%TD*%
%TO.P,R16,1*%
%TO.N,/USB_PRESENT*%
X60175000Y18000000D03*
%TO.P,R16,2*%
%TO.N,/GND*%
X61825000Y18000000D03*
%TD*%
D43*
%TO.N,/VPWR*%
X27972800Y18062500D03*
X14433100Y35785600D03*
X43981300Y14018800D03*
X58095100Y46429700D03*
%TO.N,/USB_5V*%
X56000000Y13300000D03*
X54300000Y3800000D03*
X58400000Y4700000D03*
%TO.N,/GND*%
X16125000Y41100000D03*
X34000000Y44500000D03*
X36054100Y44662200D03*
X27100000Y37000000D03*
X6500000Y36150000D03*
X10800000Y37850000D03*
X34000000Y36500000D03*
X56000000Y9050000D03*
X34000000Y40500000D03*
X9000000Y43000000D03*
%TO.N,/3V3*%
X59675000Y43991000D03*
X22002600Y33600000D03*
X31524400Y45879700D03*
X40601200Y47900500D03*
%TO.N,/CAN_STB*%
X53105700Y46250900D03*
X16877500Y26502600D03*
%TO.N,/USB_PRESENT*%
X55455500Y43500000D03*
X63204800Y21897400D03*
%TO.N,/CAN_L*%
X15781900Y21084500D03*
%TO.N,/CAN_H*%
X16462000Y22990800D03*
X16364700Y17841800D03*
%TO.N,/CAR_12V*%
X20695000Y14857800D03*
%TO.N,/STATUS_LED*%
X34930400Y30755400D03*
X40544500Y40500000D03*
%TO.N,/USB_CONN_DP*%
X55050000Y13600000D03*
X62500000Y29500000D03*
%TO.N,/USB_DP*%
X55450100Y41852300D03*
X60735900Y32589100D03*
%TO.N,/ESP_EN*%
X29235700Y26109000D03*
X41206400Y46280100D03*
%TO.N,/CAN_TX*%
X13218100Y25733100D03*
X40542000Y45000000D03*
%TO.N,/CAN_RX*%
X38020200Y42734600D03*
X14953700Y21650600D03*
%TO.N,/BOOT_IO9*%
X37970100Y37500000D03*
X36825000Y34991600D03*
%TO.N,/USB_DM*%
X58235900Y32589100D03*
X55465600Y40500000D03*
%TO.N,/USB_CONN_DM*%
X57600000Y13200000D03*
X59000000Y28900000D03*
X57300000Y8700000D03*
X56250000Y5500000D03*
X55250000Y5500000D03*
%TO.N,/CC1*%
X52115800Y8001100D03*
X50433800Y9758800D03*
%TD*%
%TO.N,/BUCK_BOOT*%
D44*
X25775000Y38635000D02*
X25775000Y39600000D01*
X21875000Y38635000D02*
X25775000Y38635000D01*
%TO.N,/BUCK_SW*%
D45*
X21875000Y39905000D02*
X22925000Y40955000D01*
D46*
X21875000Y39905000D02*
X23920000Y39905000D01*
X23920000Y39905000D02*
X24225000Y39600000D01*
D45*
X22925000Y40955000D02*
X22925000Y44500000D01*
%TO.N,/VPWR*%
X13990100Y36312200D02*
X14523100Y36845200D01*
X43981300Y14018800D02*
X36481200Y14018800D01*
X36481200Y14018800D02*
X34500000Y16000000D01*
D47*
X14573400Y36895500D02*
X14573400Y37365000D01*
D45*
X32437500Y18062500D02*
X34500000Y16000000D01*
X7500000Y31850000D02*
X9611500Y31850000D01*
D48*
X16125000Y38635000D02*
X16125000Y37365000D01*
D45*
X45281200Y14018800D02*
X45300000Y14000000D01*
D47*
X14523100Y36845200D02*
X14573400Y36895500D01*
D45*
X13990100Y36228600D02*
X13990100Y36312200D01*
D49*
X15000000Y38600000D02*
X15035000Y38635000D01*
X12975000Y43000000D02*
X13450000Y42525000D01*
D47*
X16125000Y37365000D02*
X14573400Y37365000D01*
D49*
X13450000Y38600000D02*
X15000000Y38600000D01*
D45*
X58104700Y46429700D02*
X58095100Y46429700D01*
X13990100Y36228600D02*
X14433100Y35785600D01*
X9611500Y31850000D02*
X13990100Y36228600D01*
X59175000Y47500000D02*
X58104700Y46429700D01*
X43981300Y14018800D02*
X45281200Y14018800D01*
D49*
X15035000Y38635000D02*
X16125000Y38635000D01*
X13450000Y42525000D02*
X13450000Y38600000D01*
D45*
X27972800Y18062500D02*
X32437500Y18062500D01*
%TO.N,/USB_5V*%
D50*
X54300000Y5450000D02*
X54300000Y3800000D01*
D45*
X58345600Y18011500D02*
X58345600Y19170600D01*
X52112500Y18062500D02*
X51175000Y19000000D01*
X49700000Y14000000D02*
X49700000Y15650000D01*
D50*
X53600000Y6150000D02*
X54300000Y5450000D01*
D45*
X49700000Y12525000D02*
X49700000Y14000000D01*
X49700000Y15650000D02*
X46350000Y19000000D01*
D51*
X56000000Y12137500D02*
X56000000Y13300000D01*
D50*
X58400000Y6150000D02*
X57700000Y5450000D01*
X53600000Y6680000D02*
X53600000Y6150000D01*
D45*
X52112500Y18062500D02*
X49700000Y15650000D01*
X52163500Y18011500D02*
X52112500Y18062500D01*
X58345600Y19170600D02*
X60175000Y21000000D01*
D50*
X58000000Y4700000D02*
X58400000Y4700000D01*
D45*
X56000000Y12137500D02*
X56000000Y15665900D01*
D50*
X57700000Y5000000D02*
X58000000Y4700000D01*
D45*
X51225000Y11000000D02*
X49700000Y12525000D01*
X56000000Y15665900D02*
X58345600Y18011500D01*
D50*
X58400000Y6680000D02*
X58400000Y6150000D01*
X57700000Y5450000D02*
X57700000Y5000000D01*
D45*
X58345600Y18011500D02*
X52163500Y18011500D01*
%TO.N,/CAR_FUSED*%
X26455000Y19076700D02*
X35423300Y19076700D01*
X26455000Y17000000D02*
X26455000Y19076700D01*
X35423300Y19076700D02*
X38500000Y16000000D01*
%TO.N,/GND*%
D44*
X46550000Y22100000D02*
X45150000Y22100000D01*
D52*
X38727300Y36000000D02*
X38204600Y36000000D01*
D44*
X23146700Y24270000D02*
X23825000Y24948300D01*
X36775000Y47475000D02*
X36775000Y45500000D01*
X49650000Y19000000D02*
X50456800Y19806800D01*
X22775000Y20500000D02*
X21443700Y19168700D01*
D46*
X7500000Y36150000D02*
X6500000Y36150000D01*
D44*
X36450000Y47800000D02*
X36775000Y47475000D01*
X59200000Y6680000D02*
X59745000Y6680000D01*
D46*
X32975000Y44500000D02*
X34000000Y44500000D01*
X11550000Y38600000D02*
X10800000Y37850000D01*
D44*
X38727300Y30514800D02*
X38212500Y30000000D01*
X35972400Y40097400D02*
X36775000Y40900000D01*
X45150000Y22100000D02*
X38850000Y22100000D01*
X16540000Y16602500D02*
X16937500Y17000000D01*
X18350000Y38000000D02*
X19000000Y38000000D01*
X49510000Y40700000D02*
X48410000Y40700000D01*
X19650000Y39300000D02*
X18350000Y39300000D01*
X36054100Y44779100D02*
X36054100Y44662200D01*
X38727300Y36000000D02*
X38727300Y30514800D01*
D46*
X32975000Y36500000D02*
X34000000Y36500000D01*
D44*
X50456800Y19806800D02*
X52018200Y19806800D01*
D52*
X11000000Y22990800D02*
X12880800Y22990800D01*
D44*
X50060000Y41250000D02*
X48960000Y41250000D01*
X16540000Y11000000D02*
X16540000Y16602500D01*
D46*
X26275000Y37000000D02*
X27100000Y37000000D01*
D44*
X34393900Y36500000D02*
X34694900Y36801000D01*
X43710000Y36000000D02*
X39250000Y36000000D01*
X48960000Y41250000D02*
X47860000Y41250000D01*
X48410000Y41800000D02*
X48960000Y41800000D01*
X52018200Y19806800D02*
X52825000Y19000000D01*
D52*
X39250000Y36000000D02*
X38727300Y36000000D01*
D44*
X51967500Y6680000D02*
X51325000Y7322500D01*
X21443700Y19168700D02*
X19106200Y19168700D01*
D52*
X37403600Y36801000D02*
X38204600Y36000000D01*
D44*
X51325000Y7322500D02*
X51325000Y8160200D01*
X49510000Y42900000D02*
X48410000Y42900000D01*
X59745000Y6680000D02*
X60320000Y6105000D01*
D46*
X32975000Y40500000D02*
X34000000Y40500000D01*
D44*
X34402600Y40097400D02*
X35972400Y40097400D01*
X36775000Y45500000D02*
X36054100Y44779100D01*
X51325000Y8160200D02*
X51325000Y9000000D01*
X18156700Y39300000D02*
X17551700Y39905000D01*
X51967500Y6680000D02*
X52800000Y6680000D01*
X19106200Y19168700D02*
X16937500Y17000000D01*
X26275000Y31950000D02*
X26275000Y37000000D01*
X16125000Y39905000D02*
X17551700Y39905000D01*
X22775000Y20500000D02*
X25073300Y20500000D01*
X30454800Y8160200D02*
X51325000Y8160200D01*
X23825000Y24948300D02*
X23825000Y29500000D01*
X25073300Y20500000D02*
X26673300Y22100000D01*
X53910200Y35199800D02*
X48410000Y40700000D01*
X13525000Y23635000D02*
X14160000Y24270000D01*
D46*
X16125000Y39905000D02*
X16125000Y41100000D01*
D44*
X9100000Y36150000D02*
X10800000Y37850000D01*
X52775000Y11000000D02*
X51325000Y9550000D01*
X49510000Y41800000D02*
X48960000Y41800000D01*
X51680000Y6105000D02*
X51967500Y6392500D01*
X62775000Y39500000D02*
X62825000Y39550000D01*
X61825000Y8760000D02*
X61825000Y9000000D01*
D52*
X12880800Y22990800D02*
X13525000Y23635000D01*
D44*
X60320000Y1925000D02*
X51680000Y1925000D01*
X59745000Y6680000D02*
X61825000Y8760000D01*
X50060000Y42350000D02*
X48960000Y42350000D01*
X29035000Y9580000D02*
X30454800Y8160200D01*
X29035000Y9580000D02*
X16540000Y9580000D01*
X14160000Y24270000D02*
X23146700Y24270000D01*
X25275000Y38000000D02*
X26275000Y37000000D01*
X16540000Y9580000D02*
X16540000Y11000000D01*
X62775000Y39500000D02*
X58474800Y35199800D01*
D46*
X10025000Y43000000D02*
X9000000Y43000000D01*
D44*
X56000000Y9862500D02*
X56000000Y9050000D01*
X18350000Y39300000D02*
X18156700Y39300000D01*
X38850000Y22100000D02*
X34150000Y22100000D01*
X19650000Y38000000D02*
X25275000Y38000000D01*
X51967500Y6392500D02*
X51967500Y6680000D01*
X27850000Y22100000D02*
X26673300Y22100000D01*
X11000000Y22775000D02*
X11000000Y22990800D01*
X23825000Y29500000D02*
X26275000Y31950000D01*
X16540000Y9580000D02*
X4045000Y9580000D01*
X34000000Y40500000D02*
X34402600Y40097400D01*
X61825000Y9000000D02*
X61825000Y18000000D01*
X58474800Y35199800D02*
X53910200Y35199800D01*
X49650000Y19000000D02*
X46550000Y22100000D01*
X48410000Y40700000D02*
X43710000Y36000000D01*
X51325000Y9550000D02*
X51325000Y9000000D01*
X34000000Y36500000D02*
X34393900Y36500000D01*
X19650000Y38000000D02*
X19000000Y38000000D01*
X26673300Y22100000D02*
X23825000Y24948300D01*
X7500000Y36150000D02*
X9100000Y36150000D01*
X62825000Y39550000D02*
X62825000Y42500000D01*
X34150000Y22100000D02*
X27850000Y22100000D01*
%TO.N,/LED_A*%
X38118900Y28979500D02*
X38767000Y28979500D01*
D52*
X37674200Y29199000D02*
X37899400Y29199000D01*
D44*
X38767000Y28979500D02*
X39787500Y30000000D01*
X35825000Y30000000D02*
X36626000Y29199000D01*
X36626000Y29199000D02*
X37674200Y29199000D01*
D52*
X37899400Y29199000D02*
X38118900Y28979500D01*
%TO.N,/BUCK_FB*%
D44*
X24000000Y32675000D02*
X23825000Y32500000D01*
X24000000Y33700000D02*
X24000000Y32675000D01*
X23825000Y32500000D02*
X23825000Y31150000D01*
X21875000Y36095000D02*
X22500000Y35470000D01*
X22500000Y35470000D02*
X22500000Y35200000D01*
X23825000Y31150000D02*
X22175000Y29500000D01*
X22500000Y35200000D02*
X24000000Y33700000D01*
%TO.N,/3V3*%
D45*
X11623100Y21099300D02*
X12464600Y20257800D01*
X17637800Y20257800D02*
X18475000Y21095000D01*
X12464600Y20257800D02*
X17637800Y20257800D01*
X33444700Y47800000D02*
X31524400Y45879700D01*
X35225000Y45500000D02*
X35225000Y43250000D01*
X34550000Y47800000D02*
X34550000Y46175000D01*
X35225000Y43250000D02*
X35175000Y43200000D01*
D53*
X27075000Y44500000D02*
X30025000Y44500000D01*
D45*
X31923300Y34601700D02*
X30025000Y36500000D01*
X59675000Y43991000D02*
X59675000Y45000000D01*
X34550000Y46175000D02*
X35225000Y45500000D01*
X11623100Y21225000D02*
X11623100Y21099300D01*
X14675000Y32500000D02*
X22002600Y32500000D01*
X39250000Y48000000D02*
X40501700Y48000000D01*
X22002600Y32500000D02*
X22175000Y32500000D01*
X33776700Y34601700D02*
X31923300Y34601700D01*
X9175000Y27000000D02*
X9175000Y23050000D01*
X21225000Y20500000D02*
X19070000Y20500000D01*
X40501700Y48000000D02*
X40601200Y47900500D01*
X22002600Y32500000D02*
X22002600Y33600000D01*
X34550000Y47800000D02*
X33444700Y47800000D01*
D53*
X30025000Y40500000D02*
X30025000Y36500000D01*
D54*
X13006800Y21846800D02*
X13525000Y22365000D01*
D45*
X11000000Y21225000D02*
X11623100Y21225000D01*
D51*
X35175000Y38500000D02*
X35175000Y36000000D01*
D45*
X35175000Y36000000D02*
X33776700Y34601700D01*
X9175000Y23050000D02*
X11000000Y21225000D01*
X31524400Y45879700D02*
X31404700Y45879700D01*
X11623100Y21225000D02*
X12244900Y21846800D01*
D54*
X12244900Y21846800D02*
X13006800Y21846800D01*
D45*
X19070000Y20500000D02*
X18475000Y21095000D01*
X9175000Y27000000D02*
X14675000Y32500000D01*
D53*
X30025000Y44500000D02*
X30025000Y40500000D01*
D45*
X31404700Y45879700D02*
X30025000Y44500000D01*
%TO.N,/CAN_STB*%
D52*
X55704600Y46500000D02*
X55455500Y46250900D01*
D44*
X16877500Y26502600D02*
X18475000Y24905000D01*
X10825000Y27000000D02*
X16380000Y27000000D01*
D52*
X55455500Y46250900D02*
X53105700Y46250900D01*
X56750000Y46500000D02*
X55704600Y46500000D01*
D44*
X16380000Y27000000D02*
X16877500Y26502600D01*
%TO.N,/USB_PRESENT*%
X62722400Y21897400D02*
X63204800Y21897400D01*
X60175000Y19350000D02*
X61825000Y21000000D01*
X61825000Y21000000D02*
X62722400Y21897400D01*
D52*
X55704600Y43500000D02*
X55455500Y43500000D01*
D44*
X60175000Y18000000D02*
X60175000Y19350000D01*
D52*
X56750000Y43500000D02*
X55704600Y43500000D01*
%TO.N,/CC2*%
D44*
X57750000Y7298300D02*
X57750000Y6680000D01*
X59451700Y9000000D02*
X57750000Y7298300D01*
X60175000Y9000000D02*
X59451700Y9000000D01*
%TO.N,/CAN_L*%
X15062500Y16912500D02*
X15062500Y17950000D01*
X18475000Y22365000D02*
X17062400Y22365000D01*
D52*
X13770000Y16675800D02*
X14825800Y16675800D01*
D44*
X17062400Y22365000D02*
X15781900Y21084500D01*
X13770000Y11000000D02*
X13770000Y16675800D01*
D52*
X14825800Y16675800D02*
X15062500Y16912500D01*
%TO.N,/CAN_H*%
X15693500Y17170600D02*
X15693500Y17143500D01*
D44*
X15693500Y17143500D02*
X15693500Y16681000D01*
D52*
X18475000Y23635000D02*
X17830800Y22990800D01*
X16364700Y17841800D02*
X15693500Y17170600D01*
X17830800Y22990800D02*
X16462000Y22990800D01*
D44*
X15693500Y16681000D02*
X15062500Y16050000D01*
%TO.N,/CAR_12V*%
D45*
X21545000Y17000000D02*
X21545000Y14923300D01*
X21545000Y14923300D02*
X21479500Y14857800D01*
X21479500Y14857800D02*
X20695000Y14857800D01*
%TO.N,/BOOT_IO2*%
D44*
X60155100Y46699000D02*
X59923200Y46699000D01*
X61325000Y45801000D02*
X60450300Y46675700D01*
D52*
X58949000Y45724800D02*
X58520200Y45724800D01*
D44*
X59923200Y46699000D02*
X58949000Y45724800D01*
D52*
X60427000Y46699000D02*
X60155100Y46699000D01*
X56750000Y45000000D02*
X57795400Y45000000D01*
X60450300Y46675700D02*
X60427000Y46699000D01*
D44*
X61325000Y45000000D02*
X61325000Y45801000D01*
D52*
X58520200Y45724800D02*
X57795400Y45000000D01*
%TO.N,/BAT_SENSE*%
D44*
X61175000Y42500000D02*
X62053900Y43378900D01*
X62053900Y46271100D02*
X60825000Y47500000D01*
D52*
X59549400Y48301000D02*
X59312500Y48537900D01*
X60825000Y48301000D02*
X59549400Y48301000D01*
D44*
X58364600Y48537900D02*
X57826700Y48000000D01*
X59312500Y48537900D02*
X58364600Y48537900D01*
X61175000Y39550000D02*
X61175000Y42500000D01*
X56750000Y48000000D02*
X57826700Y48000000D01*
X60825000Y47500000D02*
X60825000Y48301000D01*
X61225000Y39500000D02*
X61175000Y39550000D01*
X62053900Y43378900D02*
X62053900Y46271100D01*
%TO.N,/STATUS_LED*%
D52*
X39250000Y40500000D02*
X40295400Y40500000D01*
X40295400Y40500000D02*
X40544500Y40500000D01*
D44*
X34930400Y30755400D02*
X34175000Y30000000D01*
%TO.N,/USB_CONN_DP*%
D50*
X55050000Y12137500D02*
X55050000Y13600000D01*
X55750000Y6680000D02*
X55750000Y8200000D01*
X55050000Y8900000D02*
X55050000Y9862500D01*
X56750000Y6680000D02*
X56750000Y8200000D01*
X62500000Y29500000D02*
X62175000Y29500000D01*
X55750000Y8200000D02*
X55050000Y8900000D01*
X55050000Y9862500D02*
X55050000Y12137500D01*
X56750000Y8200000D02*
X55750000Y8200000D01*
X62175000Y29500000D02*
X61500000Y30175000D01*
%TO.N,/USB_DP*%
X55450100Y41852300D02*
X55550600Y41852300D01*
X56750000Y42000000D02*
X55698300Y42000000D01*
X60735900Y32589100D02*
X61500000Y31825000D01*
X55550600Y41852300D02*
X55698300Y42000000D01*
%TO.N,/ESP_EN*%
D52*
X37551100Y43200000D02*
X37551100Y45846500D01*
D44*
X40546600Y46280100D02*
X41206400Y46280100D01*
X32764300Y26109000D02*
X32973300Y25900000D01*
X29235700Y26109000D02*
X32764300Y26109000D01*
D52*
X37551100Y45846500D02*
X38204600Y46500000D01*
D44*
X27850000Y25900000D02*
X29026700Y25900000D01*
X36825000Y42500000D02*
X36825000Y43200000D01*
X29235700Y26109000D02*
X29026700Y25900000D01*
X34150000Y25900000D02*
X32973300Y25900000D01*
D52*
X39250000Y46500000D02*
X38204600Y46500000D01*
D44*
X36825000Y43200000D02*
X37551100Y43200000D01*
X35225000Y40900000D02*
X36825000Y42500000D01*
X40326700Y46500000D02*
X40546600Y46280100D01*
X39250000Y46500000D02*
X40326700Y46500000D01*
%TO.N,/BOOT_IO8*%
X36825000Y38500000D02*
X37673300Y38500000D01*
X39250000Y39000000D02*
X38173300Y39000000D01*
X37673300Y38500000D02*
X38173300Y39000000D01*
%TO.N,/BUCK_VCC*%
X21875000Y37365000D02*
X24360000Y37365000D01*
X24360000Y37365000D02*
X24725000Y37000000D01*
%TO.N,/CAN_TX*%
X13525000Y24905000D02*
X13525000Y25426200D01*
X13525000Y25426200D02*
X13218100Y25733100D01*
X39250000Y45000000D02*
X40326700Y45000000D01*
X40326700Y45000000D02*
X40542000Y45000000D01*
%TO.N,/CAN_RX*%
X38173300Y43500000D02*
X38173300Y42887700D01*
X13525000Y21095000D02*
X14398100Y21095000D01*
X39250000Y43500000D02*
X38173300Y43500000D01*
X38173300Y42887700D02*
X38020200Y42734600D01*
X14398100Y21095000D02*
X14953700Y21650600D01*
%TO.N,/BOOT_IO9*%
X36973200Y25900000D02*
X33398000Y29475200D01*
X36825000Y34991600D02*
X36825000Y36000000D01*
X37970100Y37500000D02*
X39250000Y37500000D01*
X33398000Y29475200D02*
X33398000Y31564600D01*
X38850000Y25900000D02*
X36973200Y25900000D01*
X45150000Y25900000D02*
X38850000Y25900000D01*
X33398000Y31564600D02*
X36825000Y34991600D01*
%TO.N,/USB_DM*%
D50*
X58235900Y32589100D02*
X59000000Y31825000D01*
D55*
X55723300Y40500000D02*
X55465600Y40500000D01*
X56750000Y40500000D02*
X55723300Y40500000D01*
%TO.N,/USB_CONN_DM*%
D50*
X57300000Y8700000D02*
X56950000Y9050000D01*
X56950000Y9862500D02*
X56950000Y12137500D01*
X55250000Y6680000D02*
X55250000Y5500000D01*
X56950000Y9050000D02*
X56950000Y9862500D01*
X56250000Y6680000D02*
X56250000Y5500000D01*
X59000000Y28900000D02*
X59000000Y30175000D01*
X57600000Y12787500D02*
X57600000Y13200000D01*
X56950000Y12137500D02*
X57600000Y12787500D01*
%TO.N,/CC1*%
D44*
X54750000Y7381200D02*
X54130100Y8001100D01*
X54750000Y6680000D02*
X54750000Y7381200D01*
X50433800Y9758800D02*
X49675000Y9000000D01*
X54130100Y8001100D02*
X52115800Y8001100D01*
%TD*%
%TA.AperFunction,Conductor*%
%TO.N,/GND*%
G36*
X56518324Y11324431D02*
G01*
X56562681Y11295927D01*
X56563181Y11295427D01*
X56596666Y11234104D01*
X56599500Y11207746D01*
X56599500Y10792255D01*
X56579815Y10725216D01*
X56563181Y10704574D01*
X56562328Y10703721D01*
X56501005Y10670236D01*
X56431313Y10675220D01*
X56396463Y10697618D01*
X56395944Y10696902D01*
X56388046Y10702640D01*
X56275144Y10760167D01*
X56181486Y10775000D01*
X56150000Y10775000D01*
X56150000Y8950001D01*
X56181479Y8950001D01*
X56275149Y8964836D01*
X56275155Y8964838D01*
X56388041Y9022357D01*
X56395944Y9028098D01*
X56396941Y9026726D01*
X56448278Y9054763D01*
X56517971Y9049784D01*
X56553310Y9027073D01*
X56553758Y9027689D01*
X56567099Y9017997D01*
X56609767Y8962669D01*
X56613941Y8949961D01*
X56614013Y8949694D01*
X56614039Y8949492D01*
X56614065Y8949499D01*
X56618554Y8932746D01*
X56623386Y8914711D01*
X56669527Y8834792D01*
X56669531Y8834787D01*
X56688181Y8816137D01*
X56721666Y8754814D01*
X56724500Y8728456D01*
X56724500Y8674500D01*
X56704815Y8607461D01*
X56652011Y8561706D01*
X56600500Y8550500D01*
X55946544Y8550500D01*
X55879505Y8570185D01*
X55858863Y8586819D01*
X55704782Y8740900D01*
X55671297Y8802223D01*
X55676281Y8871915D01*
X55718153Y8927848D01*
X55783617Y8952265D01*
X55811863Y8951054D01*
X55818516Y8950001D01*
X55850000Y8950002D01*
X55850000Y10775001D01*
X55818521Y10775000D01*
X55724849Y10760165D01*
X55724844Y10760163D01*
X55611958Y10702644D01*
X55604056Y10696902D01*
X55603060Y10698273D01*
X55551700Y10670234D01*
X55482008Y10675224D01*
X55437619Y10703772D01*
X55436767Y10704625D01*
X55403318Y10765968D01*
X55400500Y10792255D01*
X55400500Y11207746D01*
X55420185Y11274785D01*
X55436731Y11295339D01*
X55437230Y11295839D01*
X55498520Y11329386D01*
X55568216Y11324471D01*
X55603246Y11301984D01*
X55603759Y11302689D01*
X55611653Y11296955D01*
X55611658Y11296950D01*
X55724694Y11239355D01*
X55724698Y11239353D01*
X55818475Y11224501D01*
X55818481Y11224500D01*
X56181518Y11224501D01*
X56275304Y11239354D01*
X56388342Y11296950D01*
X56388349Y11296958D01*
X56396241Y11302689D01*
X56397225Y11301335D01*
X56448632Y11329410D01*
X56518324Y11324431D01*
G37*
%TD.AperFunction*%
%TA.AperFunction,Conductor*%
G36*
X10093834Y27037796D02*
G01*
X10149767Y26995924D01*
X10174184Y26930460D01*
X10174500Y26921614D01*
X10174500Y26670731D01*
X10177353Y26640301D01*
X10177353Y26640299D01*
X10219162Y26520819D01*
X10222207Y26512118D01*
X10302850Y26402850D01*
X10412118Y26322207D01*
X10451005Y26308600D01*
X10540299Y26277354D01*
X10570730Y26274500D01*
X10570734Y26274500D01*
X11079270Y26274500D01*
X11109699Y26277354D01*
X11109701Y26277354D01*
X11173790Y26299781D01*
X11237882Y26322207D01*
X11347150Y26402850D01*
X11427793Y26512118D01*
X11438059Y26541457D01*
X11478779Y26598230D01*
X11543731Y26623978D01*
X11555099Y26624500D01*
X16173130Y26624500D01*
X16240169Y26604815D01*
X16260793Y26588199D01*
X16265663Y26583330D01*
X16299161Y26522015D01*
X16302000Y26495632D01*
X16302000Y26426834D01*
X16309067Y26400461D01*
X16341219Y26280464D01*
X16347618Y26269381D01*
X16416985Y26149235D01*
X16524135Y26042085D01*
X16655365Y25966319D01*
X16801734Y25927100D01*
X16870578Y25927100D01*
X16937617Y25907415D01*
X16958260Y25890780D01*
X17326909Y25522109D01*
X17351133Y25497884D01*
X17384616Y25436559D01*
X17379629Y25366868D01*
X17351131Y25322525D01*
X17321954Y25293349D01*
X17321951Y25293343D01*
X17264352Y25180302D01*
X17249500Y25086525D01*
X17249500Y24723483D01*
X17260292Y24655343D01*
X17264354Y24629696D01*
X17321950Y24516658D01*
X17321952Y24516656D01*
X17321954Y24516653D01*
X17411652Y24426955D01*
X17411654Y24426954D01*
X17411658Y24426950D01*
X17502851Y24380485D01*
X17553647Y24332510D01*
X17570442Y24264689D01*
X17547904Y24198554D01*
X17502852Y24159516D01*
X17411658Y24113050D01*
X17411657Y24113049D01*
X17411652Y24113046D01*
X17321954Y24023348D01*
X17321951Y24023343D01*
X17321950Y24023342D01*
X17321515Y24022488D01*
X17264352Y23910302D01*
X17249500Y23816525D01*
X17249501Y23459000D01*
X17229817Y23391961D01*
X17177013Y23346206D01*
X17125501Y23335000D01*
X16983043Y23335000D01*
X16916004Y23354685D01*
X16895362Y23371318D01*
X16874719Y23391961D01*
X16815365Y23451315D01*
X16749750Y23489198D01*
X16684136Y23527081D01*
X16610950Y23546691D01*
X16537766Y23566300D01*
X16386234Y23566300D01*
X16239863Y23527081D01*
X16108635Y23451315D01*
X16108632Y23451313D01*
X16001487Y23344168D01*
X16001485Y23344165D01*
X15925719Y23212937D01*
X15886500Y23066566D01*
X15886500Y22915035D01*
X15925719Y22768664D01*
X15958442Y22711987D01*
X16001485Y22637435D01*
X16108635Y22530285D01*
X16239865Y22454519D01*
X16332908Y22429589D01*
X16392567Y22393226D01*
X16423097Y22330379D01*
X16414803Y22261004D01*
X16388495Y22222134D01*
X15862682Y21696319D01*
X15801359Y21662834D01*
X15775001Y21660000D01*
X15706134Y21660000D01*
X15677414Y21652305D01*
X15607564Y21653970D01*
X15549703Y21693134D01*
X15525551Y21739984D01*
X15489981Y21872735D01*
X15414215Y22003965D01*
X15307065Y22111115D01*
X15241450Y22148998D01*
X15175836Y22186881D01*
X15044267Y22222134D01*
X15029466Y22226100D01*
X14877934Y22226100D01*
X14874499Y22226100D01*
X14807460Y22245785D01*
X14761705Y22298589D01*
X14750499Y22350100D01*
X14750499Y22546518D01*
X14740236Y22611319D01*
X14735646Y22640304D01*
X14678050Y22753342D01*
X14678046Y22753346D01*
X14678045Y22753348D01*
X14588347Y22843046D01*
X14588343Y22843049D01*
X14588342Y22843050D01*
X14574702Y22850000D01*
X14496598Y22889797D01*
X14445803Y22937772D01*
X14429008Y23005593D01*
X14451546Y23071727D01*
X14496600Y23110766D01*
X14588043Y23157359D01*
X14588050Y23157364D01*
X14677636Y23246950D01*
X14677639Y23246954D01*
X14735166Y23359856D01*
X14750000Y23453514D01*
X14750000Y23485000D01*
X12300001Y23485000D01*
X12300001Y23453521D01*
X12314835Y23359851D01*
X12314837Y23359845D01*
X12372356Y23246959D01*
X12372363Y23246950D01*
X12461949Y23157364D01*
X12461956Y23157359D01*
X12553400Y23110766D01*
X12604197Y23062792D01*
X12620992Y22994971D01*
X12598455Y22928836D01*
X12553402Y22889797D01*
X12461659Y22843051D01*
X12461652Y22843046D01*
X12371954Y22753348D01*
X12371951Y22753343D01*
X12314352Y22640302D01*
X12299500Y22546525D01*
X12299500Y22521300D01*
X12279815Y22454261D01*
X12227011Y22408506D01*
X12180482Y22398385D01*
X12180486Y22398361D01*
X12180210Y22398325D01*
X12175500Y22397300D01*
X12172426Y22397300D01*
X12067417Y22369163D01*
X12032414Y22359784D01*
X11906884Y22287310D01*
X11902154Y22283680D01*
X11836984Y22258488D01*
X11768540Y22272528D01*
X11718551Y22321343D01*
X11702890Y22389435D01*
X11710489Y22425393D01*
X11718916Y22447988D01*
X11724999Y22504572D01*
X11725000Y22504573D01*
X11725000Y22625000D01*
X11124000Y22625000D01*
X11056961Y22644685D01*
X11020191Y22681178D01*
X10955308Y22780489D01*
X10906961Y22794685D01*
X10861206Y22847489D01*
X10850000Y22899000D01*
X10850000Y22935918D01*
X11150000Y22935918D01*
X11157133Y22925000D01*
X11724999Y22925000D01*
X11724999Y23045434D01*
X11724998Y23045440D01*
X11718918Y23102008D01*
X11671186Y23229982D01*
X11671184Y23229985D01*
X11589329Y23339330D01*
X11479984Y23421185D01*
X11479983Y23421186D01*
X11352010Y23468917D01*
X11295428Y23475000D01*
X11150000Y23475000D01*
X11150000Y22935918D01*
X10850000Y22935918D01*
X10850000Y23475000D01*
X10704566Y23475000D01*
X10704559Y23474999D01*
X10647992Y23468919D01*
X10520018Y23421187D01*
X10520015Y23421185D01*
X10410670Y23339330D01*
X10328815Y23229985D01*
X10328814Y23229984D01*
X10281083Y23102011D01*
X10275000Y23045429D01*
X10275000Y23027887D01*
X10255315Y22960848D01*
X10202511Y22915093D01*
X10133353Y22905149D01*
X10069797Y22934174D01*
X10063319Y22940206D01*
X9761819Y23241706D01*
X9728334Y23303029D01*
X9725500Y23329387D01*
X9725500Y25086525D01*
X12299500Y25086525D01*
X12299500Y24723483D01*
X12310292Y24655343D01*
X12314354Y24629696D01*
X12371950Y24516658D01*
X12371952Y24516656D01*
X12371954Y24516653D01*
X12461652Y24426955D01*
X12461655Y24426953D01*
X12461658Y24426950D01*
X12513403Y24400585D01*
X12553401Y24380204D01*
X12604196Y24332230D01*
X12620991Y24264409D01*
X12598453Y24198274D01*
X12553401Y24159236D01*
X12461956Y24112642D01*
X12461949Y24112637D01*
X12372363Y24023051D01*
X12372360Y24023047D01*
X12314833Y23910145D01*
X12300000Y23816487D01*
X12300000Y23785000D01*
X14749999Y23785000D01*
X14749999Y23816480D01*
X14735164Y23910150D01*
X14735162Y23910156D01*
X14677643Y24023042D01*
X14677636Y24023051D01*
X14588050Y24112637D01*
X14588045Y24112640D01*
X14496598Y24159235D01*
X14445802Y24207210D01*
X14429007Y24275031D01*
X14451544Y24341166D01*
X14496594Y24380203D01*
X14588342Y24426950D01*
X14678050Y24516658D01*
X14735646Y24629696D01*
X14735646Y24629698D01*
X14735647Y24629699D01*
X14750499Y24723476D01*
X14750500Y24723481D01*
X14750499Y25086518D01*
X14735646Y25180304D01*
X14678050Y25293342D01*
X14678046Y25293346D01*
X14678045Y25293348D01*
X14588347Y25383046D01*
X14588344Y25383048D01*
X14588342Y25383050D01*
X14511517Y25422195D01*
X14475301Y25440648D01*
X14381524Y25455500D01*
X14381519Y25455500D01*
X14001043Y25455500D01*
X13934004Y25475185D01*
X13888249Y25527989D01*
X13881268Y25547408D01*
X13880549Y25550090D01*
X13874910Y25571138D01*
X13825475Y25656762D01*
X13825473Y25656764D01*
X13825472Y25656766D01*
X13820526Y25663212D01*
X13822953Y25665075D01*
X13796434Y25713641D01*
X13793600Y25739999D01*
X13793600Y25808864D01*
X13793600Y25808866D01*
X13754381Y25955235D01*
X13678615Y26086465D01*
X13571465Y26193615D01*
X13505850Y26231498D01*
X13440236Y26269381D01*
X13343932Y26295185D01*
X13293866Y26308600D01*
X13142334Y26308600D01*
X12995963Y26269381D01*
X12864735Y26193615D01*
X12864732Y26193613D01*
X12757587Y26086468D01*
X12757585Y26086465D01*
X12681819Y25955237D01*
X12664548Y25890779D01*
X12642600Y25808866D01*
X12642600Y25657334D01*
X12644970Y25648488D01*
X12660117Y25591959D01*
X12658454Y25522109D01*
X12619291Y25464247D01*
X12578672Y25441939D01*
X12574704Y25440650D01*
X12574696Y25440647D01*
X12574696Y25440646D01*
X12461658Y25383050D01*
X12461657Y25383049D01*
X12461652Y25383046D01*
X12371954Y25293348D01*
X12371951Y25293343D01*
X12314352Y25180302D01*
X12299500Y25086525D01*
X9725500Y25086525D01*
X9725500Y26400461D01*
X9745185Y26467500D01*
X9749722Y26474084D01*
X9777793Y26512118D01*
X9814477Y26616955D01*
X9822646Y26640299D01*
X9822646Y26640301D01*
X9825500Y26670731D01*
X9825500Y26820614D01*
X9845185Y26887653D01*
X9861819Y26908295D01*
X9962819Y27009295D01*
X10024142Y27042780D01*
X10093834Y27037796D01*
G37*
%TD.AperFunction*%
%TA.AperFunction,Conductor*%
G36*
X18256535Y38139881D02*
G01*
X18210119Y38093465D01*
X18185000Y38032821D01*
X18185000Y37967179D01*
X18210119Y37906535D01*
X18256535Y37860119D01*
X18280965Y37850000D01*
X17339809Y37850000D01*
X17331123Y37852551D01*
X17322162Y37851262D01*
X17315617Y37852383D01*
X17249676Y37865500D01*
X17249674Y37865500D01*
X16674500Y37865500D01*
X16607461Y37885185D01*
X16561706Y37937989D01*
X16550500Y37989500D01*
X16550500Y38010500D01*
X16570185Y38077539D01*
X16622989Y38123294D01*
X16674500Y38134500D01*
X17249675Y38134500D01*
X17315617Y38147617D01*
X17339809Y38150000D01*
X18280965Y38150000D01*
X18256535Y38139881D01*
G37*
%TD.AperFunction*%
%TA.AperFunction,Conductor*%
G36*
X33943039Y49679815D02*
G01*
X33988794Y49627011D01*
X34000000Y49575500D01*
X34000000Y49100000D01*
X58124412Y49100000D01*
X58191451Y49080315D01*
X58237206Y49027511D01*
X58247150Y48958353D01*
X58218125Y48894797D01*
X58186415Y48868616D01*
X58134038Y48838375D01*
X58134035Y48838373D01*
X57885839Y48590177D01*
X57824516Y48556692D01*
X57754824Y48561676D01*
X57698891Y48603548D01*
X57695056Y48608967D01*
X57680601Y48630601D01*
X57597739Y48685967D01*
X57597735Y48685968D01*
X57524677Y48700500D01*
X57524674Y48700500D01*
X55975326Y48700500D01*
X55975323Y48700500D01*
X55902264Y48685968D01*
X55902260Y48685967D01*
X55819399Y48630601D01*
X55764033Y48547740D01*
X55764032Y48547736D01*
X55749500Y48474679D01*
X55749500Y47525322D01*
X55764032Y47452265D01*
X55764033Y47452261D01*
X55782405Y47424765D01*
X55819399Y47369399D01*
X55843790Y47353102D01*
X55888594Y47299489D01*
X55897301Y47230164D01*
X55867146Y47167137D01*
X55843791Y47146900D01*
X55820686Y47131461D01*
X55819399Y47130601D01*
X55764033Y47047740D01*
X55764032Y47047736D01*
X55749500Y46974679D01*
X55749500Y46963522D01*
X55729815Y46896483D01*
X55677011Y46850728D01*
X55657594Y46843747D01*
X55592856Y46826400D01*
X55592855Y46826401D01*
X55571746Y46820744D01*
X55571743Y46820743D01*
X55493259Y46775431D01*
X55493257Y46775429D01*
X55349244Y46631418D01*
X55287923Y46597934D01*
X55261565Y46595100D01*
X53626743Y46595100D01*
X53559704Y46614785D01*
X53539062Y46631418D01*
X53514880Y46655600D01*
X53459065Y46711415D01*
X53393450Y46749298D01*
X53327836Y46787181D01*
X53254650Y46806791D01*
X53181466Y46826400D01*
X53029934Y46826400D01*
X52883563Y46787181D01*
X52752335Y46711415D01*
X52752332Y46711413D01*
X52645187Y46604268D01*
X52645185Y46604265D01*
X52569419Y46473037D01*
X52530971Y46329543D01*
X52530200Y46326666D01*
X52530200Y46175134D01*
X52536779Y46150580D01*
X52569419Y46028764D01*
X52585894Y46000229D01*
X52645185Y45897535D01*
X52752335Y45790385D01*
X52883565Y45714619D01*
X53029934Y45675400D01*
X53029936Y45675400D01*
X53181464Y45675400D01*
X53181466Y45675400D01*
X53327835Y45714619D01*
X53459065Y45790385D01*
X53539062Y45870382D01*
X53600386Y45903866D01*
X53626743Y45906700D01*
X55500813Y45906700D01*
X55500814Y45906700D01*
X55500815Y45906700D01*
X55588356Y45930157D01*
X55598726Y45936144D01*
X55625207Y45951433D01*
X55693105Y45967906D01*
X55759132Y45945055D01*
X55790306Y45912940D01*
X55819399Y45869399D01*
X55843790Y45853102D01*
X55888594Y45799489D01*
X55897301Y45730164D01*
X55867146Y45667137D01*
X55843791Y45646900D01*
X55819399Y45630601D01*
X55764033Y45547740D01*
X55764032Y45547736D01*
X55749500Y45474679D01*
X55749500Y44525322D01*
X55764032Y44452265D01*
X55764033Y44452261D01*
X55764034Y44452260D01*
X55819399Y44369399D01*
X55843790Y44353102D01*
X55888594Y44299489D01*
X55897301Y44230164D01*
X55867146Y44167137D01*
X55843791Y44146900D01*
X55833029Y44139709D01*
X55819397Y44130600D01*
X55793784Y44092267D01*
X55740171Y44047462D01*
X55670846Y44038756D01*
X55658590Y44041384D01*
X55628427Y44049466D01*
X55531266Y44075500D01*
X55379734Y44075500D01*
X55233363Y44036281D01*
X55102135Y43960515D01*
X55102132Y43960513D01*
X54994987Y43853368D01*
X54994985Y43853365D01*
X54919219Y43722137D01*
X54880000Y43575766D01*
X54880000Y43424235D01*
X54919219Y43277864D01*
X54951099Y43222647D01*
X54994985Y43146635D01*
X55102135Y43039485D01*
X55233365Y42963719D01*
X55379734Y42924500D01*
X55379736Y42924500D01*
X55531263Y42924500D01*
X55531266Y42924500D01*
X55658593Y42958617D01*
X55728439Y42956954D01*
X55786302Y42917792D01*
X55793785Y42907733D01*
X55798952Y42900000D01*
X55819399Y42869399D01*
X55843790Y42853102D01*
X55888594Y42799489D01*
X55897301Y42730164D01*
X55867146Y42667137D01*
X55843791Y42646900D01*
X55826192Y42635140D01*
X55819399Y42630601D01*
X55764033Y42547740D01*
X55764033Y42547738D01*
X55755159Y42503129D01*
X55722773Y42441219D01*
X55662056Y42406646D01*
X55601450Y42407548D01*
X55525867Y42427800D01*
X55525866Y42427800D01*
X55374334Y42427800D01*
X55227963Y42388581D01*
X55096735Y42312815D01*
X55096732Y42312813D01*
X54989587Y42205668D01*
X54989585Y42205665D01*
X54913819Y42074437D01*
X54897185Y42012355D01*
X54874600Y41928066D01*
X54874600Y41776534D01*
X54875011Y41775001D01*
X54913819Y41630164D01*
X54920027Y41619412D01*
X54989585Y41498935D01*
X55096735Y41391785D01*
X55227965Y41316019D01*
X55310711Y41293848D01*
X55370369Y41257485D01*
X55400899Y41194638D01*
X55392605Y41125262D01*
X55348120Y41071384D01*
X55310710Y41054300D01*
X55243465Y41036281D01*
X55243463Y41036281D01*
X55243463Y41036280D01*
X55112235Y40960515D01*
X55112232Y40960513D01*
X55005087Y40853368D01*
X55005085Y40853365D01*
X54929319Y40722137D01*
X54904696Y40630240D01*
X54890100Y40575766D01*
X54890100Y40424234D01*
X54906178Y40364230D01*
X54929319Y40277864D01*
X54963067Y40219412D01*
X55005085Y40146635D01*
X55112235Y40039485D01*
X55225881Y39973871D01*
X55237449Y39967192D01*
X55243465Y39963719D01*
X55389834Y39924500D01*
X55389836Y39924500D01*
X55541363Y39924500D01*
X55541366Y39924500D01*
X55660128Y39956322D01*
X55729973Y39954659D01*
X55787836Y39915497D01*
X55795319Y39905437D01*
X55819397Y39869401D01*
X55819398Y39869401D01*
X55819399Y39869399D01*
X55843790Y39853102D01*
X55888594Y39799489D01*
X55897301Y39730164D01*
X55867146Y39667137D01*
X55843791Y39646900D01*
X55819399Y39630601D01*
X55764033Y39547740D01*
X55764032Y39547736D01*
X55749500Y39474679D01*
X55749500Y38525322D01*
X55764032Y38452265D01*
X55764033Y38452261D01*
X55764034Y38452260D01*
X55819399Y38369399D01*
X55843790Y38353102D01*
X55888594Y38299489D01*
X55897301Y38230164D01*
X55867146Y38167137D01*
X55843791Y38146900D01*
X55833288Y38139881D01*
X55819399Y38130601D01*
X55764033Y38047740D01*
X55764032Y38047736D01*
X55749500Y37974679D01*
X55749500Y37025322D01*
X55764032Y36952265D01*
X55764033Y36952261D01*
X55764034Y36952260D01*
X55819399Y36869399D01*
X55843790Y36853102D01*
X55888594Y36799489D01*
X55897301Y36730164D01*
X55867146Y36667137D01*
X55843791Y36646900D01*
X55843338Y36646596D01*
X55819399Y36630601D01*
X55764033Y36547740D01*
X55764032Y36547736D01*
X55749500Y36474679D01*
X55749500Y35525322D01*
X55764032Y35452265D01*
X55764033Y35452261D01*
X55764034Y35452260D01*
X55819399Y35369399D01*
X55901554Y35314506D01*
X55902260Y35314034D01*
X55902264Y35314033D01*
X55975321Y35299501D01*
X55975324Y35299500D01*
X55975326Y35299500D01*
X57524676Y35299500D01*
X57524677Y35299501D01*
X57597740Y35314034D01*
X57680601Y35369399D01*
X57735966Y35452260D01*
X57750500Y35525326D01*
X57750500Y36474674D01*
X57750500Y36474677D01*
X57750499Y36474679D01*
X57735967Y36547736D01*
X57735966Y36547740D01*
X57680601Y36630601D01*
X57656209Y36646899D01*
X57611405Y36700509D01*
X57602698Y36769834D01*
X57632852Y36832862D01*
X57656210Y36853102D01*
X57680601Y36869399D01*
X57735966Y36952260D01*
X57750500Y37025326D01*
X57750500Y37974674D01*
X57750500Y37974677D01*
X57750499Y37974679D01*
X57735967Y38047736D01*
X57735966Y38047740D01*
X57680601Y38130601D01*
X57656209Y38146899D01*
X57611405Y38200509D01*
X57602698Y38269834D01*
X57632852Y38332862D01*
X57656210Y38353102D01*
X57680601Y38369399D01*
X57735966Y38452260D01*
X57750500Y38525326D01*
X57750500Y39474674D01*
X57750500Y39474677D01*
X57750499Y39474679D01*
X57735967Y39547736D01*
X57735966Y39547740D01*
X57722030Y39568597D01*
X57680601Y39630601D01*
X57656209Y39646899D01*
X57611405Y39700509D01*
X57602698Y39769834D01*
X57632852Y39832862D01*
X57656210Y39853102D01*
X57680601Y39869399D01*
X57735966Y39952260D01*
X57750500Y40025326D01*
X57750500Y40974674D01*
X57750500Y40974677D01*
X57750499Y40974679D01*
X57735967Y41047736D01*
X57735966Y41047740D01*
X57720168Y41071384D01*
X57680601Y41130601D01*
X57656209Y41146899D01*
X57611405Y41200509D01*
X57602698Y41269834D01*
X57632852Y41332862D01*
X57656210Y41353102D01*
X57680601Y41369399D01*
X57735966Y41452260D01*
X57750500Y41525326D01*
X57750500Y42474674D01*
X57750500Y42474677D01*
X57750499Y42474679D01*
X57735967Y42547736D01*
X57735966Y42547740D01*
X57680601Y42630601D01*
X57656209Y42646899D01*
X57611405Y42700509D01*
X57602698Y42769834D01*
X57632852Y42832862D01*
X57656210Y42853102D01*
X57680601Y42869399D01*
X57735966Y42952260D01*
X57750500Y43025326D01*
X57750500Y43974674D01*
X57750500Y43974677D01*
X57750499Y43974679D01*
X57735967Y44047736D01*
X57735966Y44047740D01*
X57723252Y44066768D01*
X57680601Y44130601D01*
X57656209Y44146899D01*
X57611405Y44200509D01*
X57602698Y44269834D01*
X57632852Y44332862D01*
X57656210Y44353102D01*
X57680601Y44369399D01*
X57735966Y44452260D01*
X57750500Y44525326D01*
X57750500Y44536479D01*
X57770185Y44603518D01*
X57822989Y44649273D01*
X57842396Y44656251D01*
X57928256Y44679257D01*
X57946420Y44689744D01*
X58006744Y44724571D01*
X58626454Y45344281D01*
X58687777Y45377766D01*
X58714135Y45380600D01*
X58766428Y45380600D01*
X58798522Y45376375D01*
X58804062Y45374891D01*
X58804063Y45374890D01*
X58899564Y45349300D01*
X58899566Y45349300D01*
X58900500Y45349300D01*
X58901260Y45349077D01*
X58907623Y45348239D01*
X58907492Y45347247D01*
X58967539Y45329615D01*
X59013294Y45276811D01*
X59024500Y45225300D01*
X59024500Y44670731D01*
X59027353Y44640301D01*
X59027353Y44640299D01*
X59072206Y44512120D01*
X59072207Y44512118D01*
X59100270Y44474094D01*
X59124241Y44408467D01*
X59124500Y44400461D01*
X59124500Y44176394D01*
X59120275Y44144302D01*
X59099500Y44066768D01*
X59099500Y43915235D01*
X59138719Y43768864D01*
X59176602Y43703250D01*
X59214485Y43637635D01*
X59321635Y43530485D01*
X59452865Y43454719D01*
X59599234Y43415500D01*
X59599236Y43415500D01*
X59750764Y43415500D01*
X59750766Y43415500D01*
X59897135Y43454719D01*
X60028365Y43530485D01*
X60135515Y43637635D01*
X60211281Y43768865D01*
X60250500Y43915234D01*
X60250500Y44066766D01*
X60229725Y44144302D01*
X60225500Y44176394D01*
X60225500Y44400461D01*
X60245185Y44467500D01*
X60249722Y44474084D01*
X60277793Y44512118D01*
X60306304Y44593597D01*
X60322646Y44640299D01*
X60322646Y44640301D01*
X60325500Y44670731D01*
X60325500Y45329270D01*
X60322646Y45359700D01*
X60322646Y45359702D01*
X60285321Y45466368D01*
X60277793Y45487882D01*
X60197150Y45597150D01*
X60087882Y45677793D01*
X60087880Y45677794D01*
X59959700Y45722647D01*
X59929270Y45725500D01*
X59929266Y45725500D01*
X59780099Y45725500D01*
X59713060Y45745185D01*
X59667305Y45797989D01*
X59657361Y45867147D01*
X59686386Y45930703D01*
X59692418Y45937181D01*
X59780564Y46025326D01*
X60042419Y46287181D01*
X60103742Y46320666D01*
X60130100Y46323500D01*
X60212663Y46323500D01*
X60212663Y46321803D01*
X60272072Y46312546D01*
X60306916Y46288047D01*
X60813137Y45781826D01*
X60846622Y45720503D01*
X60841638Y45650811D01*
X60807685Y45605457D01*
X60809421Y45603721D01*
X60802851Y45597152D01*
X60722207Y45487883D01*
X60722206Y45487881D01*
X60677353Y45359702D01*
X60677353Y45359700D01*
X60674500Y45329270D01*
X60674500Y44670731D01*
X60677353Y44640301D01*
X60677353Y44640299D01*
X60722206Y44512120D01*
X60722207Y44512118D01*
X60802850Y44402850D01*
X60912118Y44322207D01*
X60954845Y44307256D01*
X61040299Y44277354D01*
X61070730Y44274500D01*
X61554400Y44274500D01*
X61621439Y44254815D01*
X61667194Y44202011D01*
X61678400Y44150500D01*
X61678400Y43585799D01*
X61658715Y43518760D01*
X61642081Y43498118D01*
X61405782Y43261819D01*
X61344459Y43228334D01*
X61318101Y43225500D01*
X60920730Y43225500D01*
X60890300Y43222647D01*
X60890298Y43222647D01*
X60762119Y43177794D01*
X60762117Y43177793D01*
X60652850Y43097150D01*
X60572207Y42987883D01*
X60572206Y42987881D01*
X60527353Y42859702D01*
X60527353Y42859700D01*
X60524500Y42829270D01*
X60524500Y42170731D01*
X60527353Y42140301D01*
X60527353Y42140299D01*
X60571329Y42014627D01*
X60572207Y42012118D01*
X60607243Y41964645D01*
X60652851Y41902849D01*
X60749133Y41831790D01*
X60791384Y41776143D01*
X60799500Y41732020D01*
X60799500Y40255951D01*
X60779815Y40188912D01*
X60749811Y40156684D01*
X60660313Y40089687D01*
X60578373Y39980229D01*
X60578372Y39980226D01*
X60537036Y39869400D01*
X60530587Y39852111D01*
X60524500Y39795502D01*
X60524500Y39204519D01*
X60524501Y39204510D01*
X60530587Y39147886D01*
X60572561Y39035354D01*
X60578372Y39019774D01*
X60660313Y38910313D01*
X60727926Y38859699D01*
X60769183Y38828814D01*
X60769774Y38828372D01*
X60897886Y38780588D01*
X60954515Y38774500D01*
X61495484Y38774501D01*
X61552114Y38780588D01*
X61680226Y38828372D01*
X61789687Y38910313D01*
X61871628Y39019774D01*
X61884085Y39053175D01*
X61925955Y39109106D01*
X61991419Y39133523D01*
X62059692Y39118672D01*
X62109098Y39069267D01*
X62116448Y39053173D01*
X62128814Y39020017D01*
X62128815Y39020016D01*
X62210670Y38910671D01*
X62320015Y38828816D01*
X62320016Y38828815D01*
X62447991Y38781083D01*
X62447994Y38781082D01*
X62504555Y38775001D01*
X62624999Y38775001D01*
X62925000Y38775001D01*
X63045433Y38775001D01*
X63045439Y38775002D01*
X63102007Y38781082D01*
X63229981Y38828814D01*
X63229984Y38828816D01*
X63339329Y38910671D01*
X63421184Y39020016D01*
X63421185Y39020017D01*
X63468916Y39147990D01*
X63474999Y39204572D01*
X63475000Y39204573D01*
X63475000Y39350000D01*
X62925000Y39350000D01*
X62925000Y38775001D01*
X62624999Y38775001D01*
X62625000Y38775002D01*
X62625000Y39650000D01*
X62925000Y39650000D01*
X63474999Y39650000D01*
X63474999Y39795434D01*
X63474998Y39795440D01*
X63468918Y39852008D01*
X63421186Y39979982D01*
X63421184Y39979985D01*
X63339329Y40089330D01*
X63229984Y40171185D01*
X63229983Y40171186D01*
X63102010Y40218917D01*
X63045428Y40225000D01*
X62925000Y40225000D01*
X62925000Y39650000D01*
X62625000Y39650000D01*
X62625000Y40225000D01*
X62504566Y40225000D01*
X62504559Y40224999D01*
X62447992Y40218919D01*
X62320018Y40171187D01*
X62320015Y40171185D01*
X62210670Y40089330D01*
X62128815Y39979985D01*
X62128811Y39979977D01*
X62116447Y39946828D01*
X62074576Y39890894D01*
X62009111Y39866478D01*
X61940838Y39881330D01*
X61891433Y39930736D01*
X61884089Y39946817D01*
X61871628Y39980226D01*
X61789687Y40089687D01*
X61680818Y40171185D01*
X61680225Y40171629D01*
X61680226Y40171629D01*
X61631166Y40189927D01*
X61575232Y40231798D01*
X61550816Y40297263D01*
X61550500Y40306108D01*
X61550500Y41732020D01*
X61570185Y41799059D01*
X61600867Y41831790D01*
X61638998Y41859933D01*
X61697150Y41902850D01*
X61777793Y42012118D01*
X61806304Y42093597D01*
X61822646Y42140299D01*
X61822646Y42140301D01*
X61825500Y42170731D01*
X61825500Y42170804D01*
X62175001Y42170804D01*
X62177851Y42140394D01*
X62222653Y42012355D01*
X62303207Y41903208D01*
X62412354Y41822654D01*
X62540397Y41777851D01*
X62570778Y41775002D01*
X62570806Y41775001D01*
X62674999Y41775001D01*
X62975000Y41775001D01*
X63079196Y41775001D01*
X63109606Y41777852D01*
X63237645Y41822654D01*
X63346792Y41903208D01*
X63427346Y42012355D01*
X63472149Y42140396D01*
X63472149Y42140400D01*
X63475000Y42170794D01*
X63475000Y42350000D01*
X62975000Y42350000D01*
X62975000Y41775001D01*
X62674999Y41775001D01*
X62675000Y41775002D01*
X62675000Y42350000D01*
X62175001Y42350000D01*
X62175001Y42170804D01*
X61825500Y42170804D01*
X61825500Y42568101D01*
X61845185Y42635140D01*
X61861819Y42655782D01*
X61963319Y42757282D01*
X62024642Y42790767D01*
X62094334Y42785783D01*
X62150267Y42743911D01*
X62174684Y42678447D01*
X62175000Y42669601D01*
X62175000Y42650000D01*
X62675000Y42650000D01*
X62975000Y42650000D01*
X63474999Y42650000D01*
X63474999Y42829197D01*
X63472148Y42859607D01*
X63427346Y42987646D01*
X63346792Y43096793D01*
X63237645Y43177347D01*
X63109602Y43222150D01*
X63079207Y43225000D01*
X62975000Y43225000D01*
X62975000Y42650000D01*
X62675000Y42650000D01*
X62675000Y43225000D01*
X62570794Y43225000D01*
X62564966Y43224453D01*
X62496383Y43237798D01*
X62445902Y43286104D01*
X62429400Y43347912D01*
X62429400Y46320536D01*
X62426989Y46329530D01*
X62426986Y46329543D01*
X62410069Y46392682D01*
X62403810Y46416037D01*
X62403810Y46416038D01*
X62381669Y46454387D01*
X62354375Y46501662D01*
X62284462Y46571575D01*
X61511819Y47344218D01*
X61478334Y47405541D01*
X61475500Y47431899D01*
X61475500Y47829270D01*
X61472646Y47859700D01*
X61472646Y47859702D01*
X61431858Y47976264D01*
X61427793Y47987882D01*
X61347150Y48097150D01*
X61292994Y48137119D01*
X61250866Y48168211D01*
X61208615Y48223859D01*
X61200500Y48267981D01*
X61200500Y48350433D01*
X61200500Y48350435D01*
X61174910Y48445938D01*
X61125475Y48531562D01*
X61055562Y48601475D01*
X60969938Y48650910D01*
X60874435Y48676500D01*
X60775565Y48676500D01*
X60680062Y48650910D01*
X60680060Y48650909D01*
X60674522Y48649425D01*
X60642428Y48645200D01*
X59755731Y48645200D01*
X59688692Y48664885D01*
X59648345Y48707199D01*
X59612975Y48768462D01*
X59543062Y48838375D01*
X59490685Y48868615D01*
X59442472Y48919181D01*
X59429250Y48987788D01*
X59455218Y49052652D01*
X59512132Y49093180D01*
X59552688Y49100000D01*
X62000000Y49100000D01*
X62000000Y49575500D01*
X62019685Y49642539D01*
X62072489Y49688294D01*
X62124000Y49699500D01*
X64575500Y49699500D01*
X64642539Y49679815D01*
X64688294Y49627011D01*
X64699500Y49575500D01*
X64699500Y424500D01*
X64679815Y357461D01*
X64627011Y311706D01*
X64575500Y300500D01*
X424500Y300500D01*
X357461Y320185D01*
X311706Y372989D01*
X300500Y424500D01*
X300500Y4118098D01*
X37499500Y4118098D01*
X37499500Y3881903D01*
X37536446Y3648632D01*
X37609433Y3424004D01*
X37691103Y3263720D01*
X37716657Y3213567D01*
X37855483Y3022490D01*
X38022490Y2855483D01*
X38213567Y2716657D01*
X38312991Y2665998D01*
X38424003Y2609434D01*
X38424005Y2609434D01*
X38424008Y2609432D01*
X38544412Y2570311D01*
X38648631Y2536447D01*
X38881903Y2499500D01*
X38881908Y2499500D01*
X39118097Y2499500D01*
X39351368Y2536447D01*
X39575992Y2609432D01*
X39786433Y2716657D01*
X39977510Y2855483D01*
X40144517Y3022490D01*
X40283343Y3213567D01*
X40390568Y3424008D01*
X40463553Y3648632D01*
X40475527Y3724234D01*
X40500500Y3881903D01*
X40500500Y4118098D01*
X40463553Y4351369D01*
X40390566Y4575997D01*
X40288778Y4775766D01*
X40283343Y4786433D01*
X40144517Y4977510D01*
X39977510Y5144517D01*
X39786433Y5283343D01*
X39744286Y5304818D01*
X39575996Y5390567D01*
X39351368Y5463554D01*
X39118097Y5500500D01*
X39118092Y5500500D01*
X38881908Y5500500D01*
X38881903Y5500500D01*
X38648631Y5463554D01*
X38424003Y5390567D01*
X38213566Y5283343D01*
X38104550Y5204138D01*
X38022490Y5144517D01*
X38022488Y5144515D01*
X38022487Y5144515D01*
X37855485Y4977513D01*
X37855485Y4977512D01*
X37855483Y4977510D01*
X37838296Y4953854D01*
X37716657Y4786434D01*
X37609433Y4575997D01*
X37536446Y4351369D01*
X37499500Y4118098D01*
X300500Y4118098D01*
X300500Y9727467D01*
X1795001Y9727467D01*
X1795001Y9432534D01*
X1795002Y9432517D01*
X1833497Y9140116D01*
X1833500Y9140103D01*
X1909836Y8855210D01*
X1909839Y8855200D01*
X2022705Y8582719D01*
X2022710Y8582708D01*
X2170175Y8327293D01*
X2170181Y8327285D01*
X2348180Y8095313D01*
X2810259Y8557393D01*
X2824589Y8537670D01*
X3002671Y8359588D01*
X3022391Y8345261D01*
X2560312Y7883181D01*
X2792285Y7705181D01*
X2792293Y7705175D01*
X3047708Y7557710D01*
X3047719Y7557705D01*
X3320200Y7444839D01*
X3320210Y7444836D01*
X3605103Y7368500D01*
X3605116Y7368497D01*
X3897517Y7330002D01*
X3897535Y7330000D01*
X4192467Y7330000D01*
X4192484Y7330002D01*
X4484885Y7368497D01*
X4484898Y7368500D01*
X4769791Y7444836D01*
X4769801Y7444839D01*
X5042282Y7557705D01*
X5042293Y7557710D01*
X5297708Y7705175D01*
X5297726Y7705187D01*
X5529688Y7883180D01*
X5529688Y7883182D01*
X5067609Y8345260D01*
X5087331Y8359588D01*
X5265413Y8537670D01*
X5279741Y8557392D01*
X5741819Y8095313D01*
X5741821Y8095313D01*
X5870854Y8263470D01*
X11334500Y8263470D01*
X11334500Y8056531D01*
X11374868Y7853588D01*
X11374870Y7853580D01*
X11446982Y7679486D01*
X11454059Y7662402D01*
X11476043Y7629500D01*
X11569024Y7490343D01*
X11715342Y7344025D01*
X11715345Y7344023D01*
X11887402Y7229059D01*
X12078580Y7149870D01*
X12281530Y7109501D01*
X12281534Y7109500D01*
X12281535Y7109500D01*
X12488466Y7109500D01*
X12488467Y7109501D01*
X12691420Y7149870D01*
X12882598Y7229059D01*
X13054655Y7344023D01*
X13200977Y7490345D01*
X13315941Y7662402D01*
X13395130Y7853580D01*
X13435500Y8056535D01*
X13435500Y8263465D01*
X13435499Y8263470D01*
X14104500Y8263470D01*
X14104500Y8056531D01*
X14144868Y7853588D01*
X14144870Y7853580D01*
X14216982Y7679486D01*
X14224059Y7662402D01*
X14246043Y7629500D01*
X14339024Y7490343D01*
X14485342Y7344025D01*
X14485345Y7344023D01*
X14657402Y7229059D01*
X14848580Y7149870D01*
X15051530Y7109501D01*
X15051534Y7109500D01*
X15051535Y7109500D01*
X15258466Y7109500D01*
X15258467Y7109501D01*
X15461420Y7149870D01*
X15652598Y7229059D01*
X15824655Y7344023D01*
X15970977Y7490345D01*
X16085941Y7662402D01*
X16165130Y7853580D01*
X16205500Y8056535D01*
X16205500Y8263465D01*
X16205499Y8263470D01*
X16874500Y8263470D01*
X16874500Y8056531D01*
X16914868Y7853588D01*
X16914870Y7853580D01*
X16986982Y7679486D01*
X16994059Y7662402D01*
X17016043Y7629500D01*
X17109024Y7490343D01*
X17255342Y7344025D01*
X17255345Y7344023D01*
X17427402Y7229059D01*
X17618580Y7149870D01*
X17821530Y7109501D01*
X17821534Y7109500D01*
X17821535Y7109500D01*
X18028466Y7109500D01*
X18028467Y7109501D01*
X18231420Y7149870D01*
X18422598Y7229059D01*
X18594655Y7344023D01*
X18740977Y7490345D01*
X18855941Y7662402D01*
X18935130Y7853580D01*
X18975500Y8056535D01*
X18975500Y8263465D01*
X18975499Y8263470D01*
X19644500Y8263470D01*
X19644500Y8056531D01*
X19684868Y7853588D01*
X19684870Y7853580D01*
X19756982Y7679486D01*
X19764059Y7662402D01*
X19786043Y7629500D01*
X19879024Y7490343D01*
X20025342Y7344025D01*
X20025345Y7344023D01*
X20197402Y7229059D01*
X20388580Y7149870D01*
X20591530Y7109501D01*
X20591534Y7109500D01*
X20591535Y7109500D01*
X20798466Y7109500D01*
X20798467Y7109501D01*
X21001420Y7149870D01*
X21192598Y7229059D01*
X21364655Y7344023D01*
X21510977Y7490345D01*
X21625941Y7662402D01*
X21705130Y7853580D01*
X21719403Y7925335D01*
X21725363Y7955296D01*
X21725368Y7955324D01*
X21734942Y8003456D01*
X21745500Y8056535D01*
X21745500Y8263465D01*
X21705130Y8466420D01*
X21625941Y8657598D01*
X21510977Y8829655D01*
X21510975Y8829658D01*
X21364657Y8975976D01*
X21248830Y9053368D01*
X21192598Y9090941D01*
X21142585Y9111657D01*
X21001420Y9170130D01*
X21001412Y9170132D01*
X20798469Y9210500D01*
X20798465Y9210500D01*
X20591535Y9210500D01*
X20591530Y9210500D01*
X20388587Y9170132D01*
X20388579Y9170130D01*
X20197403Y9090942D01*
X20025342Y8975976D01*
X19879024Y8829658D01*
X19764058Y8657597D01*
X19684870Y8466421D01*
X19684868Y8466413D01*
X19644500Y8263470D01*
X18975499Y8263470D01*
X18935130Y8466420D01*
X18855941Y8657598D01*
X18740977Y8829655D01*
X18740975Y8829658D01*
X18594657Y8975976D01*
X18478830Y9053368D01*
X18422598Y9090941D01*
X18372585Y9111657D01*
X18231420Y9170130D01*
X18231412Y9170132D01*
X18028469Y9210500D01*
X18028465Y9210500D01*
X17821535Y9210500D01*
X17821530Y9210500D01*
X17618587Y9170132D01*
X17618579Y9170130D01*
X17427403Y9090942D01*
X17255342Y8975976D01*
X17109024Y8829658D01*
X16994058Y8657597D01*
X16914870Y8466421D01*
X16914868Y8466413D01*
X16874500Y8263470D01*
X16205499Y8263470D01*
X16165130Y8466420D01*
X16085941Y8657598D01*
X15970977Y8829655D01*
X15970975Y8829658D01*
X15824657Y8975976D01*
X15708830Y9053368D01*
X15652598Y9090941D01*
X15602585Y9111657D01*
X15461420Y9170130D01*
X15461412Y9170132D01*
X15258469Y9210500D01*
X15258465Y9210500D01*
X15051535Y9210500D01*
X15051530Y9210500D01*
X14848587Y9170132D01*
X14848579Y9170130D01*
X14657403Y9090942D01*
X14485342Y8975976D01*
X14339024Y8829658D01*
X14224058Y8657597D01*
X14144870Y8466421D01*
X14144868Y8466413D01*
X14104500Y8263470D01*
X13435499Y8263470D01*
X13395130Y8466420D01*
X13315941Y8657598D01*
X13200977Y8829655D01*
X13200975Y8829658D01*
X13054657Y8975976D01*
X12938830Y9053368D01*
X12882598Y9090941D01*
X12832585Y9111657D01*
X12691420Y9170130D01*
X12691412Y9170132D01*
X12488469Y9210500D01*
X12488465Y9210500D01*
X12281535Y9210500D01*
X12281530Y9210500D01*
X12078587Y9170132D01*
X12078579Y9170130D01*
X11887403Y9090942D01*
X11715342Y8975976D01*
X11569024Y8829658D01*
X11454058Y8657597D01*
X11374870Y8466421D01*
X11374868Y8466413D01*
X11334500Y8263470D01*
X5870854Y8263470D01*
X5919814Y8327275D01*
X5919819Y8327283D01*
X5922285Y8331553D01*
X5922287Y8331556D01*
X5922288Y8331557D01*
X6067291Y8582708D01*
X6067296Y8582719D01*
X6180162Y8855200D01*
X6180165Y8855210D01*
X6256501Y9140103D01*
X6256504Y9140116D01*
X6294999Y9432517D01*
X6295001Y9432534D01*
X6295001Y9727467D01*
X26785000Y9727467D01*
X26785000Y9432534D01*
X26785001Y9432517D01*
X26823496Y9140116D01*
X26823499Y9140103D01*
X26899835Y8855210D01*
X26899838Y8855200D01*
X27012704Y8582719D01*
X27012709Y8582708D01*
X27160174Y8327293D01*
X27160180Y8327285D01*
X27338179Y8095313D01*
X27800258Y8557393D01*
X27814588Y8537670D01*
X27992670Y8359588D01*
X28012390Y8345261D01*
X27550311Y7883181D01*
X27782284Y7705181D01*
X27782292Y7705175D01*
X28037707Y7557710D01*
X28037718Y7557705D01*
X28310199Y7444839D01*
X28310209Y7444836D01*
X28595102Y7368500D01*
X28595115Y7368497D01*
X28887516Y7330002D01*
X28887534Y7330000D01*
X29182466Y7330000D01*
X29182483Y7330002D01*
X29474884Y7368497D01*
X29474897Y7368500D01*
X29759790Y7444836D01*
X29759800Y7444839D01*
X30032281Y7557705D01*
X30032292Y7557710D01*
X30287707Y7705175D01*
X30287725Y7705187D01*
X30519687Y7883180D01*
X30519687Y7883182D01*
X30057608Y8345260D01*
X30077330Y8359588D01*
X30255412Y8537670D01*
X30269740Y8557392D01*
X30731818Y8095313D01*
X30731820Y8095313D01*
X30909813Y8327275D01*
X30909825Y8327293D01*
X31057290Y8582708D01*
X31057295Y8582719D01*
X31170161Y8855200D01*
X31170164Y8855210D01*
X31246500Y9140103D01*
X31246503Y9140116D01*
X31284998Y9432517D01*
X31285000Y9432534D01*
X31285000Y9727467D01*
X31284998Y9727484D01*
X31246503Y10019885D01*
X31246500Y10019898D01*
X31170164Y10304791D01*
X31170161Y10304801D01*
X31057295Y10577282D01*
X31057290Y10577293D01*
X30909825Y10832708D01*
X30909819Y10832716D01*
X30731819Y11064689D01*
X30269739Y10602610D01*
X30255412Y10622330D01*
X30077330Y10800412D01*
X30057607Y10814741D01*
X30519687Y11276821D01*
X30287715Y11454820D01*
X30287707Y11454826D01*
X30032292Y11602291D01*
X30032281Y11602296D01*
X29759800Y11715162D01*
X29759790Y11715165D01*
X29474897Y11791501D01*
X29474884Y11791504D01*
X29182483Y11829999D01*
X29182466Y11830000D01*
X28887534Y11830000D01*
X28887516Y11829999D01*
X28595115Y11791504D01*
X28595102Y11791501D01*
X28310209Y11715165D01*
X28310199Y11715162D01*
X28037718Y11602296D01*
X28037707Y11602291D01*
X27782292Y11454826D01*
X27782284Y11454820D01*
X27550311Y11276821D01*
X28012391Y10814741D01*
X27992670Y10800412D01*
X27814588Y10622330D01*
X27800259Y10602609D01*
X27338179Y11064689D01*
X27160180Y10832716D01*
X27160174Y10832708D01*
X27012709Y10577293D01*
X27012704Y10577282D01*
X26899838Y10304801D01*
X26899835Y10304791D01*
X26823499Y10019898D01*
X26823496Y10019885D01*
X26785001Y9727484D01*
X26785000Y9727467D01*
X6295001Y9727467D01*
X6294999Y9727484D01*
X6256504Y10019885D01*
X6256501Y10019898D01*
X6180165Y10304791D01*
X6180162Y10304801D01*
X6067296Y10577282D01*
X6067291Y10577293D01*
X5919826Y10832708D01*
X5919820Y10832716D01*
X5741820Y11064689D01*
X5279740Y10602610D01*
X5265413Y10622330D01*
X5087331Y10800412D01*
X5067608Y10814741D01*
X5529688Y11276821D01*
X5297716Y11454820D01*
X5297708Y11454826D01*
X5042293Y11602291D01*
X5042282Y11602296D01*
X4769802Y11715162D01*
X4769791Y11715165D01*
X4484898Y11791501D01*
X4484885Y11791504D01*
X4232894Y11824679D01*
X9949500Y11824679D01*
X9949500Y10175322D01*
X9964032Y10102265D01*
X9964033Y10102261D01*
X9964034Y10102260D01*
X10019399Y10019399D01*
X10102260Y9964034D01*
X10102264Y9964033D01*
X10175321Y9949501D01*
X10175324Y9949500D01*
X10175326Y9949500D01*
X11824676Y9949500D01*
X11824677Y9949501D01*
X11897740Y9964034D01*
X11980601Y10019399D01*
X12035966Y10102260D01*
X12050500Y10175326D01*
X12050500Y11103470D01*
X12719500Y11103470D01*
X12719500Y10896531D01*
X12759868Y10693588D01*
X12759870Y10693580D01*
X12838961Y10502637D01*
X12839059Y10502402D01*
X12840462Y10500302D01*
X12954024Y10330343D01*
X13100342Y10184025D01*
X13100345Y10184023D01*
X13272402Y10069059D01*
X13463580Y9989870D01*
X13640554Y9954668D01*
X13666530Y9949501D01*
X13666534Y9949500D01*
X13666535Y9949500D01*
X13873466Y9949500D01*
X13873467Y9949501D01*
X14076420Y9989870D01*
X14267598Y10069059D01*
X14439655Y10184023D01*
X14478060Y10222428D01*
X14547549Y10291916D01*
X14585974Y10330342D01*
X14585975Y10330343D01*
X14585977Y10330345D01*
X14700941Y10502402D01*
X14780130Y10693580D01*
X14820500Y10896535D01*
X14820500Y11103421D01*
X15490000Y11103421D01*
X15490000Y10896580D01*
X15530348Y10693734D01*
X15530350Y10693726D01*
X15609502Y10502637D01*
X15609502Y10502636D01*
X15698021Y10370157D01*
X15698023Y10370157D01*
X16023123Y10695257D01*
X16059881Y10631592D01*
X16171592Y10519881D01*
X16235255Y10483125D01*
X15910155Y10158025D01*
X16042631Y10069506D01*
X16042641Y10069501D01*
X16233725Y9990351D01*
X16233733Y9990349D01*
X16436579Y9950001D01*
X16436583Y9950000D01*
X16643417Y9950000D01*
X16643420Y9950001D01*
X16846266Y9990349D01*
X16846274Y9990351D01*
X17037359Y10069501D01*
X17169844Y10158024D01*
X16844744Y10483125D01*
X16908408Y10519881D01*
X17020119Y10631592D01*
X17056875Y10695257D01*
X17381976Y10370156D01*
X17470499Y10502641D01*
X17549649Y10693726D01*
X17549651Y10693734D01*
X17589999Y10896580D01*
X17590000Y10896583D01*
X17590000Y11103419D01*
X17589999Y11103420D01*
X17589989Y11103470D01*
X18259500Y11103470D01*
X18259500Y10896531D01*
X18299868Y10693588D01*
X18299870Y10693580D01*
X18378961Y10502637D01*
X18379059Y10502402D01*
X18380462Y10500302D01*
X18494024Y10330343D01*
X18640342Y10184025D01*
X18640345Y10184023D01*
X18812402Y10069059D01*
X19003580Y9989870D01*
X19180554Y9954668D01*
X19206530Y9949501D01*
X19206534Y9949500D01*
X19206535Y9949500D01*
X19413466Y9949500D01*
X19413467Y9949501D01*
X19616420Y9989870D01*
X19807598Y10069059D01*
X19979655Y10184023D01*
X20125977Y10330345D01*
X20240941Y10502402D01*
X20320130Y10693580D01*
X20360500Y10896535D01*
X20360500Y11103465D01*
X20360499Y11103470D01*
X21029500Y11103470D01*
X21029500Y10896531D01*
X21069868Y10693588D01*
X21069870Y10693580D01*
X21148961Y10502637D01*
X21149059Y10502402D01*
X21150462Y10500302D01*
X21264024Y10330343D01*
X21410342Y10184025D01*
X21410345Y10184023D01*
X21582402Y10069059D01*
X21773580Y9989870D01*
X21950554Y9954668D01*
X21976530Y9949501D01*
X21976534Y9949500D01*
X21976535Y9949500D01*
X22183466Y9949500D01*
X22183467Y9949501D01*
X22386420Y9989870D01*
X22577598Y10069059D01*
X22749655Y10184023D01*
X22895977Y10330345D01*
X23010941Y10502402D01*
X23090130Y10693580D01*
X23130500Y10896535D01*
X23130500Y11103465D01*
X23109757Y11207746D01*
X23103470Y11239355D01*
X23090130Y11306420D01*
X23010941Y11497598D01*
X22895977Y11669655D01*
X22895975Y11669658D01*
X22749657Y11815976D01*
X22578261Y11930498D01*
X22577598Y11930941D01*
X22577593Y11930943D01*
X22386420Y12010130D01*
X22386412Y12010132D01*
X22183469Y12050500D01*
X22183465Y12050500D01*
X21976535Y12050500D01*
X21976530Y12050500D01*
X21773587Y12010132D01*
X21773579Y12010130D01*
X21582403Y11930942D01*
X21410342Y11815976D01*
X21264024Y11669658D01*
X21149058Y11497597D01*
X21069870Y11306421D01*
X21069868Y11306413D01*
X21029500Y11103470D01*
X20360499Y11103470D01*
X20320130Y11306420D01*
X20240941Y11497598D01*
X20125977Y11669655D01*
X20125975Y11669658D01*
X19979657Y11815976D01*
X19808261Y11930498D01*
X19807598Y11930941D01*
X19807593Y11930943D01*
X19616420Y12010130D01*
X19616412Y12010132D01*
X19413469Y12050500D01*
X19413465Y12050500D01*
X19206535Y12050500D01*
X19206530Y12050500D01*
X19003587Y12010132D01*
X19003579Y12010130D01*
X18812403Y11930942D01*
X18640342Y11815976D01*
X18494024Y11669658D01*
X18379058Y11497597D01*
X18299870Y11306421D01*
X18299868Y11306413D01*
X18259500Y11103470D01*
X17589989Y11103470D01*
X17549651Y11306267D01*
X17549649Y11306275D01*
X17470499Y11497359D01*
X17470494Y11497369D01*
X17381975Y11629845D01*
X17056875Y11304745D01*
X17020119Y11368408D01*
X16908408Y11480119D01*
X16844743Y11516876D01*
X17169843Y11841977D01*
X17169843Y11841979D01*
X17037363Y11930498D01*
X16846274Y12009650D01*
X16846266Y12009652D01*
X16643420Y12050000D01*
X16436579Y12050000D01*
X16233733Y12009652D01*
X16233725Y12009650D01*
X16042639Y11930499D01*
X15910155Y11841977D01*
X15910154Y11841977D01*
X16235255Y11516876D01*
X16171592Y11480119D01*
X16059881Y11368408D01*
X16023124Y11304745D01*
X15698023Y11629846D01*
X15698023Y11629845D01*
X15609501Y11497361D01*
X15530350Y11306275D01*
X15530348Y11306267D01*
X15490000Y11103421D01*
X14820500Y11103421D01*
X14820500Y11103465D01*
X14780130Y11306420D01*
X14700941Y11497598D01*
X14585977Y11669655D01*
X14585975Y11669658D01*
X14439657Y11815976D01*
X14317287Y11897740D01*
X14267598Y11930941D01*
X14267595Y11930943D01*
X14267594Y11930943D01*
X14222045Y11949811D01*
X14167643Y11993653D01*
X14145579Y12059947D01*
X14145500Y12064371D01*
X14145500Y14933566D01*
X20119500Y14933566D01*
X20119500Y14782035D01*
X20158719Y14635664D01*
X20190565Y14580506D01*
X20234485Y14504435D01*
X20341635Y14397285D01*
X20472865Y14321519D01*
X20619234Y14282300D01*
X20619236Y14282300D01*
X20770764Y14282300D01*
X20770766Y14282300D01*
X20848300Y14303075D01*
X20880393Y14307300D01*
X21551972Y14307300D01*
X21551974Y14307300D01*
X21551975Y14307300D01*
X21691985Y14344816D01*
X21740455Y14372800D01*
X21817515Y14417290D01*
X21985510Y14585285D01*
X22057984Y14710815D01*
X22077949Y14785326D01*
X22095500Y14850825D01*
X22095500Y15050500D01*
X22115185Y15117539D01*
X22167989Y15163294D01*
X22219500Y15174500D01*
X22549676Y15174500D01*
X22549677Y15174501D01*
X22622740Y15189034D01*
X22705601Y15244399D01*
X22760966Y15327260D01*
X22775500Y15400326D01*
X22775500Y18599674D01*
X22775500Y18599677D01*
X22775499Y18599679D01*
X25224500Y18599679D01*
X25224500Y15400322D01*
X25239032Y15327265D01*
X25239033Y15327261D01*
X25239034Y15327260D01*
X25294399Y15244399D01*
X25377260Y15189034D01*
X25377264Y15189033D01*
X25450321Y15174501D01*
X25450324Y15174500D01*
X25450326Y15174500D01*
X27459676Y15174500D01*
X27459677Y15174501D01*
X27532740Y15189034D01*
X27615601Y15244399D01*
X27670966Y15327260D01*
X27685500Y15400326D01*
X27685500Y17382081D01*
X27705185Y17449120D01*
X27757989Y17494875D01*
X27827147Y17504819D01*
X27841576Y17501860D01*
X27897034Y17487000D01*
X27897037Y17487000D01*
X28048564Y17487000D01*
X28048566Y17487000D01*
X28126100Y17507775D01*
X28158193Y17512000D01*
X32158113Y17512000D01*
X32225152Y17492315D01*
X32245794Y17475681D01*
X32963181Y16758294D01*
X32996666Y16696971D01*
X32999500Y16670613D01*
X32999500Y15302130D01*
X32999501Y15302124D01*
X33005908Y15242517D01*
X33056202Y15107672D01*
X33056206Y15107665D01*
X33142452Y14992456D01*
X33142455Y14992453D01*
X33257664Y14906207D01*
X33257671Y14906203D01*
X33392517Y14855909D01*
X33392516Y14855909D01*
X33399444Y14855165D01*
X33452127Y14849500D01*
X34820612Y14849501D01*
X34887651Y14829816D01*
X34908293Y14813182D01*
X36143185Y13578290D01*
X36243316Y13520480D01*
X36268715Y13505816D01*
X36408725Y13468300D01*
X36408726Y13468300D01*
X36553674Y13468300D01*
X43795907Y13468300D01*
X43828000Y13464075D01*
X43905534Y13443300D01*
X43905536Y13443300D01*
X44057064Y13443300D01*
X44057066Y13443300D01*
X44134600Y13464075D01*
X44166693Y13468300D01*
X44225501Y13468300D01*
X44292540Y13448615D01*
X44338295Y13395811D01*
X44349501Y13344300D01*
X44349501Y13152124D01*
X44355908Y13092517D01*
X44406202Y12957672D01*
X44406206Y12957665D01*
X44492452Y12842456D01*
X44492455Y12842453D01*
X44607664Y12756207D01*
X44607671Y12756203D01*
X44742517Y12705909D01*
X44742516Y12705909D01*
X44749444Y12705165D01*
X44802127Y12699500D01*
X45797872Y12699501D01*
X45857483Y12705909D01*
X45992331Y12756204D01*
X46107546Y12842454D01*
X46193796Y12957669D01*
X46244091Y13092517D01*
X46250500Y13152127D01*
X46250499Y14847872D01*
X46244229Y14906203D01*
X46244091Y14907484D01*
X46193797Y15042329D01*
X46193793Y15042336D01*
X46107547Y15157545D01*
X46107544Y15157548D01*
X45992335Y15243794D01*
X45992328Y15243798D01*
X45857482Y15294092D01*
X45857483Y15294092D01*
X45797883Y15300499D01*
X45797881Y15300500D01*
X45797873Y15300500D01*
X45797864Y15300500D01*
X44802129Y15300500D01*
X44802123Y15300499D01*
X44742516Y15294092D01*
X44607671Y15243798D01*
X44607664Y15243794D01*
X44492455Y15157548D01*
X44492452Y15157545D01*
X44406206Y15042336D01*
X44406202Y15042329D01*
X44355908Y14907483D01*
X44350364Y14855909D01*
X44349501Y14847877D01*
X44349500Y14847865D01*
X44349500Y14693300D01*
X44329815Y14626261D01*
X44277011Y14580506D01*
X44225500Y14569300D01*
X44166693Y14569300D01*
X44134600Y14573525D01*
X44090714Y14585284D01*
X44057066Y14594300D01*
X43905534Y14594300D01*
X43828000Y14573525D01*
X43795907Y14569300D01*
X36760587Y14569300D01*
X36693548Y14588985D01*
X36672906Y14605619D01*
X36036818Y15241707D01*
X36003333Y15303030D01*
X36000499Y15329379D01*
X36000499Y16697872D01*
X35994091Y16757483D01*
X35970498Y16820738D01*
X35943797Y16892329D01*
X35943793Y16892336D01*
X35857547Y17007545D01*
X35857544Y17007548D01*
X35742335Y17093794D01*
X35742328Y17093798D01*
X35607482Y17144092D01*
X35607483Y17144092D01*
X35547883Y17150499D01*
X35547881Y17150500D01*
X35547873Y17150500D01*
X35547865Y17150500D01*
X34179387Y17150500D01*
X34112348Y17170185D01*
X34091706Y17186819D01*
X32964006Y18314519D01*
X32930521Y18375842D01*
X32935505Y18445534D01*
X32977377Y18501467D01*
X33042841Y18525884D01*
X33051687Y18526200D01*
X35143913Y18526200D01*
X35210952Y18506515D01*
X35231594Y18489881D01*
X36963181Y16758294D01*
X36996666Y16696971D01*
X36999500Y16670613D01*
X36999500Y15302130D01*
X36999501Y15302124D01*
X37005908Y15242517D01*
X37056202Y15107672D01*
X37056206Y15107665D01*
X37142452Y14992456D01*
X37142455Y14992453D01*
X37257664Y14906207D01*
X37257671Y14906203D01*
X37392517Y14855909D01*
X37392516Y14855909D01*
X37399444Y14855165D01*
X37452127Y14849500D01*
X39547872Y14849501D01*
X39607483Y14855909D01*
X39742331Y14906204D01*
X39857546Y14992454D01*
X39943796Y15107669D01*
X39994091Y15242517D01*
X40000500Y15302127D01*
X40000499Y16697872D01*
X39994091Y16757483D01*
X39970498Y16820738D01*
X39943797Y16892329D01*
X39943793Y16892336D01*
X39857547Y17007545D01*
X39857544Y17007548D01*
X39742335Y17093794D01*
X39742328Y17093798D01*
X39607482Y17144092D01*
X39607483Y17144092D01*
X39547883Y17150499D01*
X39547881Y17150500D01*
X39547873Y17150500D01*
X39547865Y17150500D01*
X38179387Y17150500D01*
X38112348Y17170185D01*
X38091706Y17186819D01*
X35858023Y19420502D01*
X45649500Y19420502D01*
X45649500Y18579519D01*
X45649501Y18579510D01*
X45655587Y18522886D01*
X45690961Y18428049D01*
X45703372Y18394774D01*
X45785313Y18285313D01*
X45865476Y18225304D01*
X45894183Y18203814D01*
X45894774Y18203372D01*
X46022886Y18155588D01*
X46079515Y18149500D01*
X46370612Y18149501D01*
X46437651Y18129817D01*
X46458293Y18113182D01*
X49104311Y15467164D01*
X49137796Y15405841D01*
X49132812Y15336149D01*
X49090940Y15280216D01*
X49059963Y15263301D01*
X49007671Y15243798D01*
X49007664Y15243794D01*
X48892455Y15157548D01*
X48892452Y15157545D01*
X48806206Y15042336D01*
X48806202Y15042329D01*
X48755908Y14907483D01*
X48750364Y14855909D01*
X48749501Y14847877D01*
X48749500Y14847865D01*
X48749500Y13152130D01*
X48749501Y13152124D01*
X48755908Y13092517D01*
X48806202Y12957672D01*
X48806206Y12957665D01*
X48892452Y12842456D01*
X48892455Y12842453D01*
X49007664Y12756207D01*
X49007669Y12756204D01*
X49068833Y12733392D01*
X49124766Y12691522D01*
X49149184Y12626058D01*
X49149500Y12617210D01*
X49149500Y12452525D01*
X49176245Y12352712D01*
X49187016Y12312515D01*
X49259490Y12186985D01*
X49887364Y11559111D01*
X50488181Y10958295D01*
X50521666Y10896972D01*
X50524500Y10870615D01*
X50524500Y10704520D01*
X50524501Y10704510D01*
X50530587Y10647886D01*
X50543472Y10613342D01*
X50578372Y10519774D01*
X50578376Y10519769D01*
X50579491Y10517726D01*
X50579987Y10515444D01*
X50581471Y10511466D01*
X50580899Y10511253D01*
X50594342Y10449453D01*
X50569924Y10383989D01*
X50513990Y10342118D01*
X50470658Y10334300D01*
X50358034Y10334300D01*
X50211663Y10295081D01*
X50080435Y10219315D01*
X50080432Y10219313D01*
X49973287Y10112168D01*
X49973285Y10112165D01*
X49897519Y9980937D01*
X49858298Y9834560D01*
X49858134Y9833309D01*
X49857701Y9832333D01*
X49856197Y9826716D01*
X49855320Y9826951D01*
X49829865Y9769414D01*
X49771539Y9730945D01*
X49735196Y9725500D01*
X49420730Y9725500D01*
X49390300Y9722647D01*
X49390298Y9722647D01*
X49262119Y9677794D01*
X49262117Y9677793D01*
X49152850Y9597150D01*
X49072207Y9487883D01*
X49072206Y9487881D01*
X49027353Y9359702D01*
X49027353Y9359700D01*
X49024500Y9329270D01*
X49024500Y8670731D01*
X49027353Y8640301D01*
X49027353Y8640299D01*
X49063367Y8537381D01*
X49072207Y8512118D01*
X49152850Y8402850D01*
X49262118Y8322207D01*
X49304845Y8307256D01*
X49390299Y8277354D01*
X49420730Y8274500D01*
X49420734Y8274500D01*
X49929270Y8274500D01*
X49959699Y8277354D01*
X49959701Y8277354D01*
X50028919Y8301575D01*
X50087882Y8322207D01*
X50197150Y8402850D01*
X50277793Y8512118D01*
X50317024Y8624234D01*
X50322646Y8640299D01*
X50322646Y8640301D01*
X50325500Y8670731D01*
X50325500Y8670804D01*
X50675001Y8670804D01*
X50677851Y8640394D01*
X50722653Y8512355D01*
X50803207Y8403208D01*
X50912354Y8322654D01*
X51040397Y8277851D01*
X51070778Y8275002D01*
X51070806Y8275001D01*
X51174999Y8275001D01*
X51175000Y8275002D01*
X51175000Y8850000D01*
X50675001Y8850000D01*
X50675001Y8670804D01*
X50325500Y8670804D01*
X50325500Y9059300D01*
X50345185Y9126339D01*
X50397989Y9172094D01*
X50449500Y9183300D01*
X50509564Y9183300D01*
X50509566Y9183300D01*
X50544625Y9192694D01*
X50614473Y9191033D01*
X50664399Y9160601D01*
X50675000Y9150000D01*
X51175000Y9150000D01*
X51475000Y9150000D01*
X51974999Y9150000D01*
X51974999Y9329197D01*
X51972148Y9359607D01*
X51927346Y9487646D01*
X51846792Y9596793D01*
X51737645Y9677347D01*
X51609602Y9722150D01*
X51579207Y9725000D01*
X51475000Y9725000D01*
X51475000Y9150000D01*
X51175000Y9150000D01*
X51175000Y9725000D01*
X51132469Y9725000D01*
X51065430Y9744685D01*
X51019675Y9797489D01*
X51009529Y9832819D01*
X51009300Y9834556D01*
X51009300Y9834566D01*
X50970081Y9980935D01*
X50964923Y9989869D01*
X50907978Y10088501D01*
X50891505Y10156401D01*
X50914357Y10222428D01*
X50969279Y10265619D01*
X51015360Y10274501D01*
X51495484Y10274501D01*
X51552114Y10280588D01*
X51680226Y10328372D01*
X51789687Y10410313D01*
X51871628Y10519774D01*
X51884085Y10553175D01*
X51925955Y10609106D01*
X51991419Y10633523D01*
X52059692Y10618672D01*
X52109098Y10569267D01*
X52116448Y10553173D01*
X52128814Y10520017D01*
X52128815Y10520016D01*
X52210670Y10410671D01*
X52320015Y10328816D01*
X52320016Y10328815D01*
X52447991Y10281083D01*
X52447994Y10281082D01*
X52504555Y10275001D01*
X52624999Y10275001D01*
X52925000Y10275001D01*
X53045433Y10275001D01*
X53045439Y10275002D01*
X53102007Y10281082D01*
X53229981Y10328814D01*
X53229984Y10328816D01*
X53339329Y10410671D01*
X53421184Y10520016D01*
X53421185Y10520017D01*
X53468916Y10647990D01*
X53475000Y10704574D01*
X53475000Y10850000D01*
X52925000Y10850000D01*
X52925000Y10275001D01*
X52624999Y10275001D01*
X52625000Y10275002D01*
X52625000Y11150000D01*
X52925000Y11150000D01*
X53474999Y11150000D01*
X53474999Y11295434D01*
X53474998Y11295440D01*
X53468918Y11352008D01*
X53421186Y11479982D01*
X53421184Y11479985D01*
X53339329Y11589330D01*
X53229984Y11671185D01*
X53229983Y11671186D01*
X53102010Y11718917D01*
X53045428Y11725000D01*
X52925000Y11725000D01*
X52925000Y11150000D01*
X52625000Y11150000D01*
X52625000Y11725000D01*
X52504566Y11725000D01*
X52504559Y11724999D01*
X52447992Y11718919D01*
X52320018Y11671187D01*
X52320015Y11671185D01*
X52210670Y11589330D01*
X52128815Y11479985D01*
X52128811Y11479977D01*
X52116447Y11446828D01*
X52074576Y11390894D01*
X52009111Y11366478D01*
X51940838Y11381330D01*
X51891433Y11430736D01*
X51884089Y11446817D01*
X51871628Y11480226D01*
X51858802Y11497359D01*
X51855461Y11501823D01*
X51789687Y11589687D01*
X51680818Y11671185D01*
X51680228Y11671627D01*
X51680226Y11671628D01*
X51552114Y11719412D01*
X51552112Y11719413D01*
X51552110Y11719413D01*
X51495501Y11725500D01*
X51495485Y11725500D01*
X51329386Y11725500D01*
X51262347Y11745185D01*
X51241705Y11761819D01*
X50410590Y12592935D01*
X50377105Y12654258D01*
X50382089Y12723950D01*
X50423959Y12779882D01*
X50507546Y12842454D01*
X50593796Y12957669D01*
X50644091Y13092517D01*
X50650500Y13152127D01*
X50650499Y14847872D01*
X50644229Y14906203D01*
X50644091Y14907484D01*
X50593797Y15042329D01*
X50593793Y15042336D01*
X50507547Y15157545D01*
X50507544Y15157548D01*
X50392335Y15243794D01*
X50392328Y15243798D01*
X50340036Y15263301D01*
X50284102Y15305172D01*
X50259685Y15370636D01*
X50274536Y15438909D01*
X50295685Y15467161D01*
X52253206Y17424681D01*
X52314529Y17458166D01*
X52340887Y17461000D01*
X56717213Y17461000D01*
X56784252Y17441315D01*
X56830007Y17388511D01*
X56839951Y17319353D01*
X56810926Y17255797D01*
X56804894Y17249319D01*
X55559491Y16003917D01*
X55559489Y16003914D01*
X55487016Y15878386D01*
X55487016Y15878385D01*
X55449500Y15738375D01*
X55449500Y15738373D01*
X55449500Y14248394D01*
X55429815Y14181355D01*
X55377011Y14135600D01*
X55307853Y14125656D01*
X55278056Y14133829D01*
X55272137Y14136280D01*
X55272136Y14136281D01*
X55272135Y14136281D01*
X55125766Y14175500D01*
X54974234Y14175500D01*
X54827863Y14136281D01*
X54696635Y14060515D01*
X54696632Y14060513D01*
X54589487Y13953368D01*
X54589485Y13953365D01*
X54513719Y13822137D01*
X54501223Y13775500D01*
X54474500Y13675766D01*
X54474500Y13524234D01*
X54479435Y13505817D01*
X54513719Y13377864D01*
X54533098Y13344300D01*
X54589485Y13246635D01*
X54589487Y13246633D01*
X54663181Y13172939D01*
X54696666Y13111616D01*
X54699500Y13085258D01*
X54699500Y13067255D01*
X54679815Y13000216D01*
X54663181Y12979574D01*
X54571954Y12888348D01*
X54571951Y12888343D01*
X54514352Y12775302D01*
X54499500Y12681525D01*
X54499500Y11593483D01*
X54504944Y11559111D01*
X54514354Y11499696D01*
X54571950Y11386658D01*
X54661658Y11296950D01*
X54661660Y11296949D01*
X54663181Y11295428D01*
X54696666Y11234105D01*
X54699500Y11207746D01*
X54699500Y10792255D01*
X54679815Y10725216D01*
X54663181Y10704574D01*
X54571954Y10613348D01*
X54571951Y10613343D01*
X54514352Y10500302D01*
X54499500Y10406525D01*
X54499500Y9318483D01*
X54510292Y9250343D01*
X54514354Y9224696D01*
X54571950Y9111658D01*
X54661658Y9021950D01*
X54661660Y9021949D01*
X54663181Y9020428D01*
X54696666Y8959105D01*
X54699500Y8932746D01*
X54699500Y8853855D01*
X54720423Y8775768D01*
X54723385Y8764714D01*
X54723387Y8764709D01*
X54769527Y8684792D01*
X54769531Y8684787D01*
X55363181Y8091137D01*
X55396666Y8029814D01*
X55399500Y8003456D01*
X55399500Y7629500D01*
X55379815Y7562461D01*
X55327011Y7516706D01*
X55275500Y7505500D01*
X55183416Y7505500D01*
X55116377Y7525185D01*
X55076030Y7567499D01*
X55050475Y7611762D01*
X54980562Y7681675D01*
X54360663Y8301574D01*
X54360662Y8301575D01*
X54275038Y8351010D01*
X54227286Y8363805D01*
X54227284Y8363806D01*
X54227282Y8363807D01*
X54179536Y8376600D01*
X54179535Y8376600D01*
X52605542Y8376600D01*
X52538503Y8396285D01*
X52517861Y8412919D01*
X52469167Y8461613D01*
X52469165Y8461615D01*
X52381281Y8512355D01*
X52337936Y8537381D01*
X52215507Y8570185D01*
X52191566Y8576600D01*
X52099000Y8576600D01*
X52031961Y8596285D01*
X51986206Y8649089D01*
X51975000Y8700600D01*
X51975000Y8850000D01*
X51475000Y8850000D01*
X51475000Y8275001D01*
X51492962Y8257039D01*
X51498829Y8255316D01*
X51544584Y8202512D01*
X51554528Y8133354D01*
X51551565Y8118909D01*
X51540300Y8076868D01*
X51540300Y8076866D01*
X51540300Y7925334D01*
X51551595Y7883181D01*
X51579519Y7778964D01*
X51617402Y7713350D01*
X51655285Y7647735D01*
X51762435Y7540585D01*
X51893665Y7464819D01*
X52040034Y7425600D01*
X52040036Y7425600D01*
X52191564Y7425600D01*
X52191566Y7425600D01*
X52337935Y7464819D01*
X52469165Y7540585D01*
X52517861Y7589281D01*
X52579184Y7622766D01*
X52605542Y7625600D01*
X53104845Y7625600D01*
X53171884Y7605915D01*
X53217639Y7553111D01*
X53227583Y7483953D01*
X53198558Y7420397D01*
X53192526Y7413919D01*
X53121954Y7343348D01*
X53121951Y7343343D01*
X53064352Y7230302D01*
X53049500Y7136525D01*
X53049500Y6223480D01*
X53053673Y6197133D01*
X53044716Y6127840D01*
X52999718Y6074389D01*
X52963296Y6057965D01*
X52926465Y6048096D01*
X52926463Y6048095D01*
X52818037Y5985496D01*
X52818034Y5985494D01*
X52729506Y5896966D01*
X52729504Y5896963D01*
X52666905Y5788537D01*
X52650702Y5728069D01*
X52634500Y5667601D01*
X52634500Y5542399D01*
X52666905Y5421464D01*
X52729505Y5313036D01*
X52818036Y5224505D01*
X52926464Y5161905D01*
X53047399Y5129500D01*
X53047401Y5129500D01*
X53172599Y5129500D01*
X53172601Y5129500D01*
X53293536Y5161905D01*
X53401964Y5224505D01*
X53490495Y5313036D01*
X53553095Y5421464D01*
X53556627Y5434649D01*
X53592992Y5494308D01*
X53655839Y5524837D01*
X53725214Y5516542D01*
X53764083Y5490235D01*
X53913181Y5341137D01*
X53946666Y5279814D01*
X53949500Y5253456D01*
X53949500Y4314742D01*
X53929815Y4247703D01*
X53913181Y4227061D01*
X53839487Y4153368D01*
X53839485Y4153365D01*
X53763719Y4022137D01*
X53724500Y3875766D01*
X53724500Y3724235D01*
X53763719Y3577864D01*
X53801602Y3512250D01*
X53839485Y3446635D01*
X53946635Y3339485D01*
X54077865Y3263719D01*
X54224234Y3224500D01*
X54224236Y3224500D01*
X54375764Y3224500D01*
X54375766Y3224500D01*
X54522135Y3263719D01*
X54653365Y3339485D01*
X54760515Y3446635D01*
X54836281Y3577865D01*
X54875500Y3724234D01*
X54875500Y3875766D01*
X54836281Y4022135D01*
X54760515Y4153365D01*
X54686819Y4227061D01*
X54653334Y4288384D01*
X54650500Y4314742D01*
X54650500Y4986258D01*
X54670185Y5053297D01*
X54722989Y5099052D01*
X54792147Y5108996D01*
X54855703Y5079971D01*
X54862181Y5073939D01*
X54896635Y5039485D01*
X55027865Y4963719D01*
X55174234Y4924500D01*
X55174236Y4924500D01*
X55325764Y4924500D01*
X55325766Y4924500D01*
X55472135Y4963719D01*
X55603365Y5039485D01*
X55662319Y5098439D01*
X55723642Y5131924D01*
X55793334Y5126940D01*
X55837681Y5098439D01*
X55896635Y5039485D01*
X56027865Y4963719D01*
X56174234Y4924500D01*
X56174236Y4924500D01*
X56325764Y4924500D01*
X56325766Y4924500D01*
X56472135Y4963719D01*
X56603365Y5039485D01*
X56710515Y5146635D01*
X56786281Y5277865D01*
X56825500Y5424234D01*
X56825500Y5575766D01*
X56791236Y5703643D01*
X56792899Y5773491D01*
X56832062Y5831353D01*
X56894829Y5858673D01*
X56910545Y5860741D01*
X56947595Y5878019D01*
X57016672Y5888510D01*
X57052404Y5878019D01*
X57089455Y5860741D01*
X57136861Y5854500D01*
X57314040Y5854501D01*
X57381080Y5834817D01*
X57426835Y5782013D01*
X57436779Y5712855D01*
X57421429Y5668502D01*
X57373386Y5585289D01*
X57373386Y5585288D01*
X57349500Y5496144D01*
X57349500Y4953854D01*
X57357999Y4922138D01*
X57358000Y4922134D01*
X57373384Y4864715D01*
X57373385Y4864714D01*
X57419527Y4784792D01*
X57419529Y4784789D01*
X57419530Y4784788D01*
X57784788Y4419530D01*
X57864712Y4373386D01*
X57898218Y4364409D01*
X57953805Y4332315D01*
X58046635Y4239485D01*
X58177865Y4163719D01*
X58324234Y4124500D01*
X58324236Y4124500D01*
X58475764Y4124500D01*
X58475766Y4124500D01*
X58622135Y4163719D01*
X58753365Y4239485D01*
X58860515Y4346635D01*
X58936281Y4477865D01*
X58975500Y4624234D01*
X58975500Y4775766D01*
X58936281Y4922135D01*
X58915584Y4957982D01*
X58899112Y5025881D01*
X58921964Y5091908D01*
X58976885Y5135099D01*
X58990869Y5139755D01*
X59073536Y5161905D01*
X59181964Y5224505D01*
X59270495Y5313036D01*
X59333095Y5421464D01*
X59365500Y5542399D01*
X59365500Y5667601D01*
X59333095Y5788536D01*
X59270495Y5896964D01*
X59181964Y5985495D01*
X59073536Y6048095D01*
X59073537Y6048095D01*
X59060212Y6051666D01*
X59036705Y6057964D01*
X58977047Y6094329D01*
X58946518Y6157176D01*
X58946328Y6197137D01*
X58950499Y6223477D01*
X58950500Y6223481D01*
X58950499Y7136518D01*
X58935646Y7230304D01*
X58878050Y7343342D01*
X58878046Y7343346D01*
X58878045Y7343348D01*
X58788347Y7433046D01*
X58788338Y7433053D01*
X58693607Y7481321D01*
X58642811Y7529295D01*
X58626016Y7597116D01*
X58648554Y7663251D01*
X58662215Y7679480D01*
X59437474Y8454739D01*
X59498795Y8488222D01*
X59568487Y8483238D01*
X59624420Y8441366D01*
X59624918Y8440696D01*
X59652850Y8402850D01*
X59762118Y8322207D01*
X59804845Y8307256D01*
X59890299Y8277354D01*
X59920730Y8274500D01*
X59920734Y8274500D01*
X60429270Y8274500D01*
X60459699Y8277354D01*
X60459701Y8277354D01*
X60528919Y8301575D01*
X60587882Y8322207D01*
X60697150Y8402850D01*
X60777793Y8512118D01*
X60817024Y8624234D01*
X60822646Y8640299D01*
X60822646Y8640301D01*
X60825500Y8670731D01*
X60825500Y8670804D01*
X61175001Y8670804D01*
X61177851Y8640394D01*
X61222653Y8512355D01*
X61303207Y8403208D01*
X61412354Y8322654D01*
X61540397Y8277851D01*
X61570778Y8275002D01*
X61570806Y8275001D01*
X61674999Y8275001D01*
X61975000Y8275001D01*
X62079196Y8275001D01*
X62109606Y8277852D01*
X62237645Y8322654D01*
X62346792Y8403208D01*
X62427346Y8512355D01*
X62472149Y8640396D01*
X62472149Y8640400D01*
X62475000Y8670794D01*
X62475000Y8850000D01*
X61975000Y8850000D01*
X61975000Y8275001D01*
X61674999Y8275001D01*
X61675000Y8275002D01*
X61675000Y8850000D01*
X61175001Y8850000D01*
X61175001Y8670804D01*
X60825500Y8670804D01*
X60825500Y9329207D01*
X61175000Y9329207D01*
X61175000Y9150000D01*
X61675000Y9150000D01*
X61975000Y9150000D01*
X62474999Y9150000D01*
X62474999Y9329197D01*
X62472148Y9359607D01*
X62427346Y9487646D01*
X62346792Y9596793D01*
X62237645Y9677347D01*
X62109602Y9722150D01*
X62079207Y9725000D01*
X61975000Y9725000D01*
X61975000Y9150000D01*
X61675000Y9150000D01*
X61675000Y9725000D01*
X61570804Y9725000D01*
X61540393Y9722149D01*
X61412354Y9677347D01*
X61303207Y9596793D01*
X61222653Y9487646D01*
X61177850Y9359605D01*
X61177850Y9359601D01*
X61175000Y9329207D01*
X60825500Y9329207D01*
X60825500Y9329270D01*
X60822646Y9359700D01*
X60822646Y9359702D01*
X60788058Y9458546D01*
X60777793Y9487882D01*
X60697150Y9597150D01*
X60587882Y9677793D01*
X60587880Y9677794D01*
X60459700Y9722647D01*
X60429270Y9725500D01*
X60429266Y9725500D01*
X59920734Y9725500D01*
X59920730Y9725500D01*
X59890300Y9722647D01*
X59890298Y9722647D01*
X59762119Y9677794D01*
X59762117Y9677793D01*
X59652850Y9597150D01*
X59640194Y9580001D01*
X59572207Y9487882D01*
X59561940Y9458544D01*
X59521221Y9401770D01*
X59456269Y9376022D01*
X59444901Y9375500D01*
X59402264Y9375500D01*
X59354512Y9362705D01*
X59354511Y9362706D01*
X59306763Y9349911D01*
X59306762Y9349911D01*
X59221135Y9300473D01*
X58362029Y8441366D01*
X57519438Y7598775D01*
X57498652Y7577989D01*
X57462012Y7541350D01*
X57400688Y7507866D01*
X57366232Y7505298D01*
X57363146Y7505500D01*
X57224500Y7505500D01*
X57157461Y7525185D01*
X57111706Y7577989D01*
X57100500Y7629500D01*
X57100500Y8000500D01*
X57120185Y8067539D01*
X57172989Y8113294D01*
X57224500Y8124500D01*
X57375764Y8124500D01*
X57375766Y8124500D01*
X57522135Y8163719D01*
X57653365Y8239485D01*
X57760515Y8346635D01*
X57836281Y8477865D01*
X57875500Y8624234D01*
X57875500Y8775766D01*
X57836281Y8922135D01*
X57760515Y9053365D01*
X57653365Y9160515D01*
X57653363Y9160516D01*
X57653361Y9160518D01*
X57562499Y9212977D01*
X57514283Y9263544D01*
X57500499Y9320360D01*
X57500499Y10406518D01*
X57485646Y10500304D01*
X57428050Y10613342D01*
X57428046Y10613346D01*
X57428045Y10613348D01*
X57336819Y10704574D01*
X57303334Y10765897D01*
X57300500Y10792255D01*
X57300500Y11207746D01*
X57320185Y11274785D01*
X57336819Y11295428D01*
X57338339Y11296949D01*
X57338342Y11296950D01*
X57428050Y11386658D01*
X57485646Y11499696D01*
X57485646Y11499698D01*
X57485647Y11499699D01*
X57496282Y11566853D01*
X57500500Y11593481D01*
X57500499Y12140957D01*
X57520183Y12207995D01*
X57536818Y12228637D01*
X57660895Y12352714D01*
X57880470Y12572288D01*
X57926614Y12652212D01*
X57940166Y12702790D01*
X57972260Y12758380D01*
X57993763Y12779883D01*
X58060515Y12846635D01*
X58136281Y12977865D01*
X58175500Y13124234D01*
X58175500Y13275766D01*
X58136281Y13422135D01*
X58060515Y13553365D01*
X57953365Y13660515D01*
X57887750Y13698398D01*
X57822136Y13736281D01*
X57748950Y13755891D01*
X57675766Y13775500D01*
X57524234Y13775500D01*
X57377863Y13736281D01*
X57246635Y13660515D01*
X57246632Y13660513D01*
X57139487Y13553368D01*
X57139485Y13553365D01*
X57063719Y13422137D01*
X57024500Y13275766D01*
X57024500Y13174500D01*
X57004815Y13107461D01*
X56952011Y13061706D01*
X56900501Y13050500D01*
X56768481Y13050500D01*
X56706922Y13040750D01*
X56637629Y13049706D01*
X56584177Y13094704D01*
X56563539Y13161455D01*
X56567749Y13195310D01*
X56575500Y13224234D01*
X56575500Y13375766D01*
X56557405Y13443300D01*
X56554725Y13453302D01*
X56550500Y13485394D01*
X56550500Y15386513D01*
X56570185Y15453552D01*
X56586819Y15474194D01*
X57648688Y16536063D01*
X58786110Y17673485D01*
X58858584Y17799015D01*
X58863292Y17816587D01*
X58896100Y17939025D01*
X58896100Y18891213D01*
X58915785Y18958252D01*
X58932419Y18978894D01*
X59282795Y19329270D01*
X59673571Y19720047D01*
X59734892Y19753530D01*
X59804583Y19748546D01*
X59860517Y19706674D01*
X59884934Y19641210D01*
X59870082Y19572937D01*
X59868637Y19570364D01*
X59825091Y19494941D01*
X59825091Y19494940D01*
X59825090Y19494938D01*
X59799500Y19399435D01*
X59799500Y19399433D01*
X59799500Y18767981D01*
X59779815Y18700942D01*
X59749134Y18668211D01*
X59652850Y18597150D01*
X59572207Y18487883D01*
X59572206Y18487881D01*
X59527353Y18359702D01*
X59527353Y18359700D01*
X59524500Y18329270D01*
X59524500Y17670731D01*
X59527353Y17640301D01*
X59527353Y17640299D01*
X59572124Y17512355D01*
X59572207Y17512118D01*
X59652850Y17402850D01*
X59762118Y17322207D01*
X59804845Y17307256D01*
X59890299Y17277354D01*
X59920730Y17274500D01*
X59920734Y17274500D01*
X60429270Y17274500D01*
X60459699Y17277354D01*
X60459701Y17277354D01*
X60540190Y17305519D01*
X60587882Y17322207D01*
X60697150Y17402850D01*
X60777793Y17512118D01*
X60800219Y17576210D01*
X60822646Y17640299D01*
X60822646Y17640301D01*
X60825500Y17670731D01*
X60825500Y17670804D01*
X61175001Y17670804D01*
X61177851Y17640394D01*
X61222653Y17512355D01*
X61303207Y17403208D01*
X61412354Y17322654D01*
X61540397Y17277851D01*
X61570778Y17275002D01*
X61570806Y17275001D01*
X61674999Y17275001D01*
X61975000Y17275001D01*
X62079196Y17275001D01*
X62109606Y17277852D01*
X62237645Y17322654D01*
X62346792Y17403208D01*
X62427346Y17512355D01*
X62472149Y17640396D01*
X62472149Y17640400D01*
X62475000Y17670794D01*
X62475000Y17850000D01*
X61975000Y17850000D01*
X61975000Y17275001D01*
X61674999Y17275001D01*
X61675000Y17275002D01*
X61675000Y17850000D01*
X61175001Y17850000D01*
X61175001Y17670804D01*
X60825500Y17670804D01*
X60825500Y18329207D01*
X61175000Y18329207D01*
X61175000Y18150000D01*
X61675000Y18150000D01*
X61975000Y18150000D01*
X62474999Y18150000D01*
X62474999Y18329197D01*
X62472148Y18359607D01*
X62427346Y18487646D01*
X62346792Y18596793D01*
X62237645Y18677347D01*
X62109602Y18722150D01*
X62079207Y18725000D01*
X61975000Y18725000D01*
X61975000Y18150000D01*
X61675000Y18150000D01*
X61675000Y18725000D01*
X61570804Y18725000D01*
X61540393Y18722149D01*
X61412354Y18677347D01*
X61303207Y18596793D01*
X61222653Y18487646D01*
X61177850Y18359605D01*
X61177850Y18359601D01*
X61175000Y18329207D01*
X60825500Y18329207D01*
X60825500Y18329270D01*
X60822646Y18359700D01*
X60822646Y18359702D01*
X60778575Y18485646D01*
X60777793Y18487882D01*
X60697150Y18597150D01*
X60638682Y18640301D01*
X60600866Y18668211D01*
X60558615Y18723859D01*
X60550500Y18767981D01*
X60550500Y19143101D01*
X60570185Y19210140D01*
X60586819Y19230782D01*
X61594218Y20238181D01*
X61655541Y20271666D01*
X61681899Y20274500D01*
X62079270Y20274500D01*
X62109699Y20277354D01*
X62109701Y20277354D01*
X62173790Y20299781D01*
X62237882Y20322207D01*
X62347150Y20402850D01*
X62427793Y20512118D01*
X62450977Y20578374D01*
X62472646Y20640299D01*
X62472646Y20640301D01*
X62475500Y20670731D01*
X62475500Y21068102D01*
X62495185Y21135141D01*
X62511815Y21155779D01*
X62747060Y21391025D01*
X62808381Y21424508D01*
X62878072Y21419524D01*
X62896730Y21410734D01*
X62982665Y21361119D01*
X63129034Y21321900D01*
X63129036Y21321900D01*
X63280564Y21321900D01*
X63280566Y21321900D01*
X63426935Y21361119D01*
X63558165Y21436885D01*
X63665315Y21544035D01*
X63741081Y21675265D01*
X63780300Y21821634D01*
X63780300Y21973166D01*
X63741081Y22119535D01*
X63665315Y22250765D01*
X63558165Y22357915D01*
X63492550Y22395798D01*
X63426936Y22433681D01*
X63353750Y22453291D01*
X63280566Y22472900D01*
X63129034Y22472900D01*
X62982663Y22433681D01*
X62851435Y22357915D01*
X62851432Y22357913D01*
X62802739Y22309219D01*
X62741416Y22275734D01*
X62715058Y22272900D01*
X62672964Y22272900D01*
X62664407Y22270607D01*
X62577460Y22247310D01*
X62577459Y22247309D01*
X62491836Y22197874D01*
X62055782Y21761819D01*
X61994459Y21728334D01*
X61968101Y21725500D01*
X61570730Y21725500D01*
X61540300Y21722647D01*
X61540298Y21722647D01*
X61412119Y21677794D01*
X61412117Y21677793D01*
X61302850Y21597150D01*
X61222207Y21487883D01*
X61222206Y21487881D01*
X61177353Y21359702D01*
X61177353Y21359700D01*
X61174500Y21329270D01*
X61174500Y20931900D01*
X61154815Y20864861D01*
X61138181Y20844219D01*
X61037181Y20743219D01*
X60975858Y20709734D01*
X60906166Y20714718D01*
X60850233Y20756590D01*
X60825816Y20822054D01*
X60825500Y20830900D01*
X60825500Y21329270D01*
X60822646Y21359700D01*
X60822646Y21359702D01*
X60785400Y21466142D01*
X60777793Y21487882D01*
X60697150Y21597150D01*
X60587882Y21677793D01*
X60587880Y21677794D01*
X60459700Y21722647D01*
X60429270Y21725500D01*
X60429266Y21725500D01*
X59920734Y21725500D01*
X59920730Y21725500D01*
X59890300Y21722647D01*
X59890298Y21722647D01*
X59762119Y21677794D01*
X59762117Y21677793D01*
X59652850Y21597150D01*
X59572207Y21487883D01*
X59572206Y21487881D01*
X59527353Y21359702D01*
X59527353Y21359700D01*
X59524500Y21329270D01*
X59524500Y21179387D01*
X59504815Y21112348D01*
X59488181Y21091706D01*
X57905091Y19508617D01*
X57905087Y19508612D01*
X57842055Y19399435D01*
X57832618Y19383090D01*
X57832616Y19383087D01*
X57813858Y19313080D01*
X57795100Y19243075D01*
X57795100Y19243073D01*
X57795100Y18686000D01*
X57775415Y18618961D01*
X57722611Y18573206D01*
X57671100Y18562000D01*
X53599000Y18562000D01*
X53531961Y18581685D01*
X53486206Y18634489D01*
X53475000Y18686000D01*
X53475000Y18850000D01*
X52154887Y18850000D01*
X52087848Y18869685D01*
X52067206Y18886319D01*
X51861819Y19091706D01*
X51828334Y19153029D01*
X51825500Y19179387D01*
X51825500Y19329207D01*
X52175000Y19329207D01*
X52175000Y19150000D01*
X52675000Y19150000D01*
X52975000Y19150000D01*
X53474999Y19150000D01*
X53474999Y19329197D01*
X53472148Y19359607D01*
X53427346Y19487646D01*
X53346792Y19596793D01*
X53237645Y19677347D01*
X53109602Y19722150D01*
X53079207Y19725000D01*
X52975000Y19725000D01*
X52975000Y19150000D01*
X52675000Y19150000D01*
X52675000Y19725000D01*
X52570804Y19725000D01*
X52540393Y19722149D01*
X52412354Y19677347D01*
X52303207Y19596793D01*
X52222653Y19487646D01*
X52177850Y19359605D01*
X52177850Y19359601D01*
X52175000Y19329207D01*
X51825500Y19329207D01*
X51825500Y19329270D01*
X51822646Y19359700D01*
X51822646Y19359702D01*
X51789006Y19455837D01*
X51777793Y19487882D01*
X51697150Y19597150D01*
X51587882Y19677793D01*
X51587880Y19677794D01*
X51459700Y19722647D01*
X51429270Y19725500D01*
X51429266Y19725500D01*
X50920734Y19725500D01*
X50920730Y19725500D01*
X50890300Y19722647D01*
X50890298Y19722647D01*
X50762119Y19677794D01*
X50762117Y19677793D01*
X50652850Y19597150D01*
X50572207Y19487883D01*
X50567867Y19479669D01*
X50566094Y19480606D01*
X50532330Y19433540D01*
X50467374Y19407800D01*
X50398814Y19421263D01*
X50348416Y19469656D01*
X50339838Y19487946D01*
X50296186Y19604982D01*
X50296184Y19604985D01*
X50214329Y19714330D01*
X50104984Y19796185D01*
X50104983Y19796186D01*
X49977010Y19843917D01*
X49920428Y19850000D01*
X49800000Y19850000D01*
X49800000Y18150001D01*
X49920433Y18150001D01*
X49920439Y18150002D01*
X49977007Y18156082D01*
X50104981Y18203814D01*
X50104984Y18203816D01*
X50214329Y18285671D01*
X50296184Y18395016D01*
X50296186Y18395019D01*
X50339838Y18512055D01*
X50381709Y18567989D01*
X50447173Y18592406D01*
X50515446Y18577555D01*
X50564852Y18528149D01*
X50570757Y18514863D01*
X50572207Y18512118D01*
X50652850Y18402850D01*
X50762118Y18322207D01*
X50804845Y18307256D01*
X50890299Y18277354D01*
X50920730Y18274500D01*
X50920734Y18274500D01*
X51070613Y18274500D01*
X51137652Y18254815D01*
X51158294Y18238181D01*
X51246294Y18150181D01*
X51279779Y18088858D01*
X51274795Y18019166D01*
X51246294Y17974819D01*
X49787681Y16516206D01*
X49726358Y16482721D01*
X49656666Y16487705D01*
X49612319Y16516206D01*
X47548964Y18579561D01*
X48950001Y18579561D01*
X48956081Y18522993D01*
X49003813Y18395019D01*
X49003815Y18395016D01*
X49085670Y18285671D01*
X49195015Y18203816D01*
X49195016Y18203815D01*
X49322991Y18156083D01*
X49322994Y18156082D01*
X49379555Y18150001D01*
X49499999Y18150001D01*
X49500000Y18150002D01*
X49500000Y18850000D01*
X48950001Y18850000D01*
X48950001Y18579561D01*
X47548964Y18579561D01*
X47086818Y19041707D01*
X47053333Y19103030D01*
X47050499Y19129388D01*
X47050499Y19420429D01*
X48950000Y19420429D01*
X48950000Y19150000D01*
X49500000Y19150000D01*
X49500000Y19850000D01*
X49379566Y19850000D01*
X49379559Y19849999D01*
X49322992Y19843919D01*
X49195018Y19796187D01*
X49195015Y19796185D01*
X49085670Y19714330D01*
X49003815Y19604985D01*
X49003814Y19604984D01*
X48956083Y19477011D01*
X48950000Y19420429D01*
X47050499Y19420429D01*
X47050499Y19420482D01*
X47050498Y19420491D01*
X47049095Y19433540D01*
X47044412Y19477114D01*
X47040395Y19487883D01*
X47002425Y19589683D01*
X46996628Y19605226D01*
X46914687Y19714687D01*
X46834786Y19774500D01*
X46805228Y19796627D01*
X46805226Y19796628D01*
X46677114Y19844412D01*
X46677112Y19844413D01*
X46677110Y19844413D01*
X46620493Y19850500D01*
X46079518Y19850500D01*
X46079509Y19850499D01*
X46022885Y19844413D01*
X45894773Y19796628D01*
X45785313Y19714687D01*
X45703373Y19605229D01*
X45703372Y19605226D01*
X45656891Y19480606D01*
X45655587Y19477111D01*
X45649500Y19420502D01*
X35858023Y19420502D01*
X35761316Y19517209D01*
X35761315Y19517210D01*
X35635785Y19589684D01*
X35635780Y19589686D01*
X35577783Y19605227D01*
X35577783Y19605226D01*
X35536778Y19616213D01*
X35495775Y19627200D01*
X26527475Y19627200D01*
X26382525Y19627200D01*
X26269046Y19596793D01*
X26242511Y19589683D01*
X26116988Y19517212D01*
X26116982Y19517207D01*
X26014493Y19414718D01*
X26014488Y19414712D01*
X25942017Y19289189D01*
X25942016Y19289185D01*
X25904500Y19149175D01*
X25904500Y19149173D01*
X25904500Y18949500D01*
X25884815Y18882461D01*
X25832011Y18836706D01*
X25780500Y18825500D01*
X25450323Y18825500D01*
X25377264Y18810968D01*
X25377260Y18810967D01*
X25294399Y18755601D01*
X25239033Y18672740D01*
X25239032Y18672736D01*
X25224500Y18599679D01*
X22775499Y18599679D01*
X22760967Y18672736D01*
X22760966Y18672740D01*
X22742122Y18700942D01*
X22705601Y18755601D01*
X22622740Y18810966D01*
X22622739Y18810967D01*
X22622735Y18810968D01*
X22549677Y18825500D01*
X22549674Y18825500D01*
X20540326Y18825500D01*
X20540323Y18825500D01*
X20467264Y18810968D01*
X20467260Y18810967D01*
X20384399Y18755601D01*
X20329033Y18672740D01*
X20329032Y18672736D01*
X20314500Y18599679D01*
X20314500Y18599674D01*
X20314500Y15400326D01*
X20314501Y15400322D01*
X20319678Y15374295D01*
X20313450Y15304703D01*
X20285743Y15262424D01*
X20234485Y15211165D01*
X20158719Y15079937D01*
X20119500Y14933566D01*
X14145500Y14933566D01*
X14145500Y15416048D01*
X14165185Y15483087D01*
X14217989Y15528842D01*
X14287147Y15538786D01*
X14325794Y15526533D01*
X14349694Y15514355D01*
X14349696Y15514354D01*
X14349698Y15514353D01*
X14443475Y15499501D01*
X14443481Y15499500D01*
X15681518Y15499501D01*
X15775304Y15514354D01*
X15888342Y15571950D01*
X15978050Y15661658D01*
X16035646Y15774696D01*
X16035646Y15774698D01*
X16035647Y15774699D01*
X16050499Y15868476D01*
X16050500Y15868481D01*
X16050499Y16231518D01*
X16035646Y16325304D01*
X16035645Y16325306D01*
X16034119Y16334943D01*
X16035944Y16335233D01*
X16034289Y16393183D01*
X16070370Y16453016D01*
X16133072Y16483843D01*
X16202486Y16475878D01*
X16210512Y16472143D01*
X16224857Y16464834D01*
X16224855Y16464834D01*
X16318514Y16450001D01*
X16787499Y16450001D01*
X17087500Y16450001D01*
X17556479Y16450001D01*
X17650149Y16464836D01*
X17650155Y16464838D01*
X17763041Y16522357D01*
X17763050Y16522364D01*
X17852636Y16611950D01*
X17852639Y16611954D01*
X17910166Y16724856D01*
X17925000Y16818514D01*
X17925000Y16850000D01*
X17087500Y16850000D01*
X17087500Y16450001D01*
X16787499Y16450001D01*
X16787500Y16450002D01*
X16787500Y17399358D01*
X16803920Y17455278D01*
X17087500Y17455278D01*
X17087500Y17150000D01*
X17924999Y17150000D01*
X17924999Y17181480D01*
X17910164Y17275150D01*
X17910162Y17275156D01*
X17852643Y17388042D01*
X17852636Y17388051D01*
X17763050Y17477637D01*
X17763046Y17477640D01*
X17650144Y17535167D01*
X17556486Y17550000D01*
X17126753Y17550000D01*
X17087500Y17455278D01*
X16803920Y17455278D01*
X16807185Y17466397D01*
X16823819Y17487039D01*
X16825215Y17488435D01*
X16900981Y17619665D01*
X16940200Y17766034D01*
X16940200Y17917566D01*
X16900981Y18063935D01*
X16825215Y18195165D01*
X16718065Y18302315D01*
X16622874Y18357274D01*
X16586836Y18378081D01*
X16513650Y18397691D01*
X16440466Y18417300D01*
X16288934Y18417300D01*
X16142565Y18378081D01*
X16142564Y18378081D01*
X16142562Y18378080D01*
X16142557Y18378079D01*
X16095473Y18350894D01*
X16027573Y18334421D01*
X15961546Y18357274D01*
X15945793Y18370600D01*
X15888347Y18428046D01*
X15888344Y18428048D01*
X15888342Y18428050D01*
X15811517Y18467195D01*
X15775301Y18485648D01*
X15681524Y18500500D01*
X14443482Y18500500D01*
X14363821Y18487883D01*
X14349696Y18485646D01*
X14236658Y18428050D01*
X14236657Y18428049D01*
X14236652Y18428046D01*
X14146954Y18338348D01*
X14146951Y18338343D01*
X14146950Y18338342D01*
X14138729Y18322207D01*
X14089352Y18225302D01*
X14074500Y18131525D01*
X14074500Y17768483D01*
X14083137Y17713950D01*
X14089354Y17674696D01*
X14146950Y17561658D01*
X14146952Y17561656D01*
X14146954Y17561653D01*
X14236652Y17471955D01*
X14236654Y17471954D01*
X14236658Y17471950D01*
X14349696Y17414354D01*
X14349698Y17414353D01*
X14443475Y17399501D01*
X14443481Y17399500D01*
X14563000Y17399501D01*
X14630039Y17379817D01*
X14675794Y17327013D01*
X14687000Y17275501D01*
X14687000Y17144000D01*
X14667315Y17076961D01*
X14614511Y17031206D01*
X14563000Y17020000D01*
X13952572Y17020000D01*
X13920478Y17024225D01*
X13914939Y17025709D01*
X13914938Y17025710D01*
X13819435Y17051300D01*
X13720565Y17051300D01*
X13625062Y17025710D01*
X13625060Y17025709D01*
X13625059Y17025709D01*
X13539436Y16976274D01*
X13469526Y16906364D01*
X13420091Y16820741D01*
X13420091Y16820740D01*
X13420090Y16820738D01*
X13394500Y16725235D01*
X13394500Y16725233D01*
X13394500Y12064371D01*
X13374815Y11997332D01*
X13322011Y11951577D01*
X13317955Y11949811D01*
X13272405Y11930943D01*
X13100342Y11815976D01*
X12954024Y11669658D01*
X12839058Y11497597D01*
X12759870Y11306421D01*
X12759868Y11306413D01*
X12719500Y11103470D01*
X12050500Y11103470D01*
X12050500Y11824674D01*
X12050500Y11824677D01*
X12050499Y11824679D01*
X12035967Y11897736D01*
X12035966Y11897740D01*
X12014078Y11930498D01*
X11980601Y11980601D01*
X11897740Y12035966D01*
X11897739Y12035967D01*
X11897735Y12035968D01*
X11824677Y12050500D01*
X11824674Y12050500D01*
X10175326Y12050500D01*
X10175323Y12050500D01*
X10102264Y12035968D01*
X10102260Y12035967D01*
X10019399Y11980601D01*
X9964033Y11897740D01*
X9964032Y11897736D01*
X9949500Y11824679D01*
X4232894Y11824679D01*
X4192484Y11829999D01*
X4192467Y11830000D01*
X3897535Y11830000D01*
X3897517Y11829999D01*
X3605116Y11791504D01*
X3605103Y11791501D01*
X3320210Y11715165D01*
X3320200Y11715162D01*
X3047719Y11602296D01*
X3047708Y11602291D01*
X2792293Y11454826D01*
X2792285Y11454820D01*
X2560312Y11276821D01*
X3022392Y10814741D01*
X3002671Y10800412D01*
X2824589Y10622330D01*
X2810260Y10602609D01*
X2348180Y11064689D01*
X2170181Y10832716D01*
X2170175Y10832708D01*
X2022710Y10577293D01*
X2022705Y10577282D01*
X1909839Y10304801D01*
X1909836Y10304791D01*
X1833500Y10019898D01*
X1833497Y10019885D01*
X1795002Y9727484D01*
X1795001Y9727467D01*
X300500Y9727467D01*
X300500Y27329270D01*
X8524500Y27329270D01*
X8524500Y26670731D01*
X8527353Y26640301D01*
X8527353Y26640299D01*
X8569162Y26520819D01*
X8572207Y26512118D01*
X8600270Y26474094D01*
X8624241Y26408467D01*
X8624500Y26400461D01*
X8624500Y23122474D01*
X8624500Y22977526D01*
X8660533Y22843051D01*
X8662016Y22837515D01*
X8734489Y22711987D01*
X8734491Y22711984D01*
X10238181Y21208294D01*
X10271666Y21146971D01*
X10274500Y21120614D01*
X10274500Y20954520D01*
X10274501Y20954510D01*
X10280587Y20897886D01*
X10318799Y20795440D01*
X10328372Y20769774D01*
X10410313Y20660313D01*
X10519774Y20578372D01*
X10647886Y20530588D01*
X10704515Y20524500D01*
X11295484Y20524501D01*
X11333568Y20528595D01*
X11348366Y20530185D01*
X11417125Y20517778D01*
X11449299Y20494576D01*
X12126585Y19817290D01*
X12252115Y19744816D01*
X12392125Y19707300D01*
X12392126Y19707300D01*
X12392128Y19707300D01*
X17710272Y19707300D01*
X17710274Y19707300D01*
X17710275Y19707300D01*
X17850285Y19744816D01*
X17975815Y19817290D01*
X18387318Y20228796D01*
X18448641Y20262280D01*
X18518332Y20257296D01*
X18562680Y20228795D01*
X18731985Y20059490D01*
X18857515Y19987016D01*
X18997525Y19949500D01*
X18997526Y19949500D01*
X19142474Y19949500D01*
X20569764Y19949500D01*
X20636803Y19929815D01*
X20657445Y19913181D01*
X20660310Y19910316D01*
X20660311Y19910315D01*
X20660313Y19910313D01*
X20740214Y19850500D01*
X20769183Y19828814D01*
X20769774Y19828372D01*
X20897886Y19780588D01*
X20954515Y19774500D01*
X21495484Y19774501D01*
X21552114Y19780588D01*
X21680226Y19828372D01*
X21789687Y19910313D01*
X21871628Y20019774D01*
X21884085Y20053175D01*
X21925955Y20109106D01*
X21991419Y20133523D01*
X22059692Y20118672D01*
X22109098Y20069267D01*
X22116448Y20053173D01*
X22128814Y20020017D01*
X22128815Y20020016D01*
X22210670Y19910671D01*
X22320015Y19828816D01*
X22320016Y19828815D01*
X22447991Y19781083D01*
X22447994Y19781082D01*
X22504555Y19775001D01*
X22624999Y19775001D01*
X22925000Y19775001D01*
X23045433Y19775001D01*
X23045439Y19775002D01*
X23102007Y19781082D01*
X23229981Y19828814D01*
X23229984Y19828816D01*
X23339329Y19910671D01*
X23421184Y20020016D01*
X23421185Y20020017D01*
X23468916Y20147990D01*
X23474999Y20204572D01*
X23475000Y20204573D01*
X23475000Y20350000D01*
X22925000Y20350000D01*
X22925000Y19775001D01*
X22624999Y19775001D01*
X22625000Y19775002D01*
X22625000Y20650000D01*
X22925000Y20650000D01*
X23474999Y20650000D01*
X23474999Y20795434D01*
X23474998Y20795440D01*
X23468918Y20852008D01*
X23421186Y20979982D01*
X23421184Y20979985D01*
X23339329Y21089330D01*
X23229984Y21171185D01*
X23229983Y21171186D01*
X23102010Y21218917D01*
X23045428Y21225000D01*
X22925000Y21225000D01*
X22925000Y20650000D01*
X22625000Y20650000D01*
X22625000Y21225000D01*
X22504566Y21225000D01*
X22504559Y21224999D01*
X22447992Y21218919D01*
X22320018Y21171187D01*
X22320015Y21171185D01*
X22210670Y21089330D01*
X22128815Y20979985D01*
X22128811Y20979977D01*
X22116447Y20946828D01*
X22074576Y20890894D01*
X22009111Y20866478D01*
X21940838Y20881330D01*
X21891433Y20930736D01*
X21884089Y20946817D01*
X21871628Y20980226D01*
X21789687Y21089687D01*
X21701393Y21155783D01*
X21680228Y21171627D01*
X21680226Y21171628D01*
X21552114Y21219412D01*
X21552112Y21219413D01*
X21552110Y21219413D01*
X21495493Y21225500D01*
X20954518Y21225500D01*
X20954509Y21225499D01*
X20897885Y21219413D01*
X20769773Y21171628D01*
X20660310Y21089685D01*
X20657445Y21086819D01*
X20653888Y21084878D01*
X20653214Y21084372D01*
X20653141Y21084470D01*
X20596122Y21053334D01*
X20569764Y21050500D01*
X19824499Y21050500D01*
X19757460Y21070185D01*
X19711705Y21122989D01*
X19700499Y21174500D01*
X19700499Y21276518D01*
X19700498Y21276525D01*
X19685646Y21370304D01*
X19628050Y21483342D01*
X19628046Y21483346D01*
X19628045Y21483348D01*
X19538347Y21573046D01*
X19538343Y21573049D01*
X19538342Y21573050D01*
X19533785Y21575372D01*
X26750000Y21575372D01*
X26764503Y21502460D01*
X26764505Y21502456D01*
X26819760Y21419761D01*
X26902455Y21364506D01*
X26902459Y21364504D01*
X26975371Y21350001D01*
X26975374Y21350000D01*
X27700000Y21350000D01*
X28000000Y21350000D01*
X28724626Y21350000D01*
X28724628Y21350001D01*
X28797540Y21364504D01*
X28797544Y21364506D01*
X28880239Y21419761D01*
X28935494Y21502456D01*
X28935496Y21502460D01*
X28949999Y21575372D01*
X33050000Y21575372D01*
X33064503Y21502460D01*
X33064505Y21502456D01*
X33119760Y21419761D01*
X33202455Y21364506D01*
X33202459Y21364504D01*
X33275371Y21350001D01*
X33275374Y21350000D01*
X34000000Y21350000D01*
X34300000Y21350000D01*
X35024626Y21350000D01*
X35024628Y21350001D01*
X35097540Y21364504D01*
X35097544Y21364506D01*
X35180239Y21419761D01*
X35235494Y21502456D01*
X35235496Y21502460D01*
X35249999Y21575372D01*
X37750000Y21575372D01*
X37764503Y21502460D01*
X37764505Y21502456D01*
X37819760Y21419761D01*
X37902455Y21364506D01*
X37902459Y21364504D01*
X37975371Y21350001D01*
X37975374Y21350000D01*
X38700000Y21350000D01*
X39000000Y21350000D01*
X39724626Y21350000D01*
X39724628Y21350001D01*
X39797540Y21364504D01*
X39797544Y21364506D01*
X39880239Y21419761D01*
X39935494Y21502456D01*
X39935496Y21502460D01*
X39949999Y21575372D01*
X44050000Y21575372D01*
X44064503Y21502460D01*
X44064505Y21502456D01*
X44119760Y21419761D01*
X44202455Y21364506D01*
X44202459Y21364504D01*
X44275371Y21350001D01*
X44275374Y21350000D01*
X45000000Y21350000D01*
X45300000Y21350000D01*
X46024626Y21350000D01*
X46024628Y21350001D01*
X46097540Y21364504D01*
X46097544Y21364506D01*
X46180239Y21419761D01*
X46235494Y21502456D01*
X46235496Y21502460D01*
X46249999Y21575372D01*
X46250000Y21575374D01*
X46250000Y21950000D01*
X45300000Y21950000D01*
X45300000Y21350000D01*
X45000000Y21350000D01*
X45000000Y21950000D01*
X44050000Y21950000D01*
X44050000Y21575372D01*
X39949999Y21575372D01*
X39950000Y21575374D01*
X39950000Y21950000D01*
X39000000Y21950000D01*
X39000000Y21350000D01*
X38700000Y21350000D01*
X38700000Y21950000D01*
X37750000Y21950000D01*
X37750000Y21575372D01*
X35249999Y21575372D01*
X35250000Y21575374D01*
X35250000Y21950000D01*
X34300000Y21950000D01*
X34300000Y21350000D01*
X34000000Y21350000D01*
X34000000Y21950000D01*
X33050000Y21950000D01*
X33050000Y21575372D01*
X28949999Y21575372D01*
X28950000Y21575374D01*
X28950000Y21950000D01*
X28000000Y21950000D01*
X28000000Y21350000D01*
X27700000Y21350000D01*
X27700000Y21950000D01*
X26750000Y21950000D01*
X26750000Y21575372D01*
X19533785Y21575372D01*
X19533781Y21575374D01*
X19447147Y21619517D01*
X19396352Y21667491D01*
X19379557Y21735313D01*
X19402095Y21801447D01*
X19447145Y21840483D01*
X19538342Y21886950D01*
X19628050Y21976658D01*
X19685646Y22089696D01*
X19685646Y22089698D01*
X19685647Y22089699D01*
X19700499Y22183476D01*
X19700500Y22183481D01*
X19700499Y22546518D01*
X19688128Y22624629D01*
X26750000Y22624629D01*
X26750000Y22250000D01*
X27700000Y22250000D01*
X28000000Y22250000D01*
X28950000Y22250000D01*
X28950000Y22624627D01*
X28949999Y22624629D01*
X33050000Y22624629D01*
X33050000Y22250000D01*
X34000000Y22250000D01*
X34300000Y22250000D01*
X35250000Y22250000D01*
X35250000Y22624627D01*
X35249999Y22624629D01*
X37750000Y22624629D01*
X37750000Y22250000D01*
X38700000Y22250000D01*
X39000000Y22250000D01*
X39950000Y22250000D01*
X39950000Y22624627D01*
X39949999Y22624629D01*
X44050000Y22624629D01*
X44050000Y22250000D01*
X45000000Y22250000D01*
X45300000Y22250000D01*
X46250000Y22250000D01*
X46250000Y22624627D01*
X46249999Y22624629D01*
X46235496Y22697541D01*
X46235494Y22697545D01*
X46180239Y22780240D01*
X46097544Y22835495D01*
X46097540Y22835497D01*
X46024627Y22850000D01*
X45300000Y22850000D01*
X45300000Y22250000D01*
X45000000Y22250000D01*
X45000000Y22850000D01*
X44275373Y22850000D01*
X44202459Y22835497D01*
X44202455Y22835495D01*
X44119760Y22780240D01*
X44064505Y22697545D01*
X44064503Y22697541D01*
X44050000Y22624629D01*
X39949999Y22624629D01*
X39935496Y22697541D01*
X39935494Y22697545D01*
X39880239Y22780240D01*
X39797544Y22835495D01*
X39797540Y22835497D01*
X39724627Y22850000D01*
X39000000Y22850000D01*
X39000000Y22250000D01*
X38700000Y22250000D01*
X38700000Y22850000D01*
X37975373Y22850000D01*
X37902459Y22835497D01*
X37902455Y22835495D01*
X37819760Y22780240D01*
X37764505Y22697545D01*
X37764503Y22697541D01*
X37750000Y22624629D01*
X35249999Y22624629D01*
X35235496Y22697541D01*
X35235494Y22697545D01*
X35180239Y22780240D01*
X35097544Y22835495D01*
X35097540Y22835497D01*
X35024627Y22850000D01*
X34300000Y22850000D01*
X34300000Y22250000D01*
X34000000Y22250000D01*
X34000000Y22850000D01*
X33275373Y22850000D01*
X33202459Y22835497D01*
X33202455Y22835495D01*
X33119760Y22780240D01*
X33064505Y22697545D01*
X33064503Y22697541D01*
X33050000Y22624629D01*
X28949999Y22624629D01*
X28935496Y22697541D01*
X28935494Y22697545D01*
X28880239Y22780240D01*
X28797544Y22835495D01*
X28797540Y22835497D01*
X28724627Y22850000D01*
X28000000Y22850000D01*
X28000000Y22250000D01*
X27700000Y22250000D01*
X27700000Y22850000D01*
X26975373Y22850000D01*
X26902459Y22835497D01*
X26902455Y22835495D01*
X26819760Y22780240D01*
X26764505Y22697545D01*
X26764503Y22697541D01*
X26750000Y22624629D01*
X19688128Y22624629D01*
X19685646Y22640304D01*
X19628050Y22753342D01*
X19628046Y22753346D01*
X19628045Y22753348D01*
X19538347Y22843046D01*
X19538343Y22843049D01*
X19538342Y22843050D01*
X19524702Y22850000D01*
X19447147Y22889517D01*
X19396352Y22937491D01*
X19379557Y23005313D01*
X19402095Y23071447D01*
X19447145Y23110483D01*
X19538342Y23156950D01*
X19628050Y23246658D01*
X19685646Y23359696D01*
X19685646Y23359698D01*
X19685647Y23359699D01*
X19696282Y23426853D01*
X19700500Y23453481D01*
X19700499Y23816518D01*
X19685646Y23910304D01*
X19628050Y24023342D01*
X19628046Y24023346D01*
X19628045Y24023348D01*
X19538347Y24113046D01*
X19538343Y24113049D01*
X19538342Y24113050D01*
X19535599Y24114448D01*
X19447147Y24159517D01*
X19396352Y24207491D01*
X19379557Y24275313D01*
X19402095Y24341447D01*
X19447145Y24380483D01*
X19538342Y24426950D01*
X19628050Y24516658D01*
X19685646Y24629696D01*
X19685646Y24629698D01*
X19685647Y24629699D01*
X19700499Y24723476D01*
X19700500Y24723481D01*
X19700499Y25086518D01*
X19695498Y25118098D01*
X59499500Y25118098D01*
X59499500Y24881903D01*
X59536446Y24648632D01*
X59609433Y24424004D01*
X59716657Y24213567D01*
X59855483Y24022490D01*
X60022490Y23855483D01*
X60213567Y23716657D01*
X60312991Y23665998D01*
X60424003Y23609434D01*
X60424005Y23609434D01*
X60424008Y23609432D01*
X60544412Y23570311D01*
X60648631Y23536447D01*
X60881903Y23499500D01*
X60881908Y23499500D01*
X61118097Y23499500D01*
X61351368Y23536447D01*
X61575992Y23609432D01*
X61786433Y23716657D01*
X61977510Y23855483D01*
X62144517Y24022490D01*
X62283343Y24213567D01*
X62390568Y24424008D01*
X62463553Y24648632D01*
X62475408Y24723483D01*
X62500500Y24881903D01*
X62500500Y25118098D01*
X62463553Y25351369D01*
X62423176Y25475635D01*
X62390568Y25575992D01*
X62390566Y25575995D01*
X62390566Y25575997D01*
X62320344Y25713815D01*
X62283343Y25786433D01*
X62144517Y25977510D01*
X61977510Y26144517D01*
X61786433Y26283343D01*
X61763192Y26295185D01*
X61575996Y26390567D01*
X61351368Y26463554D01*
X61118097Y26500500D01*
X61118092Y26500500D01*
X60881908Y26500500D01*
X60881903Y26500500D01*
X60648631Y26463554D01*
X60424003Y26390567D01*
X60213566Y26283343D01*
X60104550Y26204138D01*
X60022490Y26144517D01*
X60022488Y26144515D01*
X60022487Y26144515D01*
X59855485Y25977513D01*
X59855485Y25977512D01*
X59855483Y25977510D01*
X59818859Y25927101D01*
X59716657Y25786434D01*
X59609433Y25575997D01*
X59536446Y25351369D01*
X59499500Y25118098D01*
X19695498Y25118098D01*
X19685646Y25180304D01*
X19628050Y25293342D01*
X19628046Y25293346D01*
X19628045Y25293348D01*
X19538347Y25383046D01*
X19538344Y25383048D01*
X19538342Y25383050D01*
X19461517Y25422195D01*
X19425301Y25440648D01*
X19331524Y25455500D01*
X19331519Y25455500D01*
X18506919Y25455500D01*
X18439880Y25475185D01*
X18419235Y25491822D01*
X18413173Y25497884D01*
X17761863Y26149236D01*
X17568023Y26343088D01*
X17489316Y26421800D01*
X17487744Y26424679D01*
X26749500Y26424679D01*
X26749500Y25375322D01*
X26764032Y25302265D01*
X26764033Y25302261D01*
X26782405Y25274765D01*
X26819399Y25219399D01*
X26877913Y25180302D01*
X26902260Y25164034D01*
X26902264Y25164033D01*
X26975321Y25149501D01*
X26975324Y25149500D01*
X26975326Y25149500D01*
X28724676Y25149500D01*
X28724677Y25149501D01*
X28797740Y25164034D01*
X28880601Y25219399D01*
X28935966Y25302260D01*
X28950500Y25375326D01*
X28950500Y25400500D01*
X28970185Y25467539D01*
X29022989Y25513294D01*
X29068120Y25523113D01*
X29068077Y25523439D01*
X29071993Y25523955D01*
X29074500Y25524500D01*
X29076135Y25524500D01*
X29076136Y25524500D01*
X29096239Y25529887D01*
X29102734Y25531627D01*
X29151492Y25531627D01*
X29151878Y25534561D01*
X29159932Y25533501D01*
X29159934Y25533500D01*
X29159936Y25533500D01*
X29311464Y25533500D01*
X29311466Y25533500D01*
X29457835Y25572719D01*
X29589065Y25648485D01*
X29637761Y25697181D01*
X29699084Y25730666D01*
X29725442Y25733500D01*
X32557400Y25733500D01*
X32624439Y25713815D01*
X32645081Y25697181D01*
X32742737Y25599525D01*
X32742738Y25599524D01*
X32742740Y25599523D01*
X32785550Y25574807D01*
X32828363Y25550089D01*
X32923864Y25524500D01*
X32923865Y25524500D01*
X32925500Y25524500D01*
X32926828Y25524110D01*
X32931924Y25523439D01*
X32931819Y25522645D01*
X32992539Y25504815D01*
X33038294Y25452011D01*
X33049500Y25400500D01*
X33049500Y25375322D01*
X33064032Y25302265D01*
X33064033Y25302261D01*
X33082405Y25274765D01*
X33119399Y25219399D01*
X33177913Y25180302D01*
X33202260Y25164034D01*
X33202264Y25164033D01*
X33275321Y25149501D01*
X33275324Y25149500D01*
X33275326Y25149500D01*
X35024676Y25149500D01*
X35024677Y25149501D01*
X35097740Y25164034D01*
X35180601Y25219399D01*
X35235966Y25302260D01*
X35250500Y25375326D01*
X35250500Y26424674D01*
X35250500Y26424677D01*
X35250499Y26424679D01*
X35235967Y26497736D01*
X35235966Y26497740D01*
X35219746Y26522015D01*
X35180601Y26580601D01*
X35115682Y26623978D01*
X35097739Y26635967D01*
X35097735Y26635968D01*
X35024677Y26650500D01*
X35024674Y26650500D01*
X33275326Y26650500D01*
X33275323Y26650500D01*
X33202264Y26635968D01*
X33202260Y26635967D01*
X33119398Y26580601D01*
X33066694Y26501722D01*
X33013082Y26456917D01*
X32943757Y26448210D01*
X32916145Y26456050D01*
X32909245Y26458908D01*
X32822293Y26482207D01*
X32822293Y26482208D01*
X32822290Y26482208D01*
X32813737Y26484500D01*
X32813736Y26484500D01*
X32813735Y26484500D01*
X29725442Y26484500D01*
X29658403Y26504185D01*
X29637761Y26520819D01*
X29589067Y26569513D01*
X29589065Y26569515D01*
X29493829Y26624500D01*
X29457836Y26645281D01*
X29362842Y26670734D01*
X29311466Y26684500D01*
X29159934Y26684500D01*
X29013565Y26645281D01*
X29013558Y26645278D01*
X28957081Y26612671D01*
X28889181Y26596198D01*
X28826192Y26616955D01*
X28797739Y26635967D01*
X28797735Y26635968D01*
X28724677Y26650500D01*
X28724674Y26650500D01*
X26975326Y26650500D01*
X26975323Y26650500D01*
X26902264Y26635968D01*
X26902260Y26635967D01*
X26819399Y26580601D01*
X26764033Y26497740D01*
X26764032Y26497736D01*
X26749500Y26424679D01*
X17487744Y26424679D01*
X17455833Y26483124D01*
X17453000Y26509478D01*
X17453000Y26578364D01*
X17453000Y26578366D01*
X17413781Y26724735D01*
X17338015Y26855965D01*
X17230865Y26963115D01*
X17150879Y27009295D01*
X17099636Y27038881D01*
X17026450Y27058491D01*
X16953266Y27078100D01*
X16953265Y27078100D01*
X16884331Y27078100D01*
X16817292Y27097785D01*
X16796659Y27114410D01*
X16640397Y27270640D01*
X16640387Y27270650D01*
X16610551Y27300487D01*
X16610543Y27300493D01*
X16566038Y27326182D01*
X16566039Y27326185D01*
X16566026Y27326188D01*
X16524919Y27349921D01*
X16475105Y27363263D01*
X16475095Y27363266D01*
X16429425Y27375503D01*
X16429404Y27375506D01*
X16379962Y27375500D01*
X11555099Y27375500D01*
X11488060Y27395185D01*
X11442305Y27447989D01*
X11438065Y27458526D01*
X11427793Y27487882D01*
X11347150Y27597150D01*
X11237882Y27677793D01*
X11237880Y27677794D01*
X11109700Y27722647D01*
X11079270Y27725500D01*
X11079266Y27725500D01*
X10978387Y27725500D01*
X10911348Y27745185D01*
X10865593Y27797989D01*
X10855649Y27867147D01*
X10884674Y27930703D01*
X10890706Y27937181D01*
X14866705Y31913181D01*
X14928028Y31946666D01*
X14954386Y31949500D01*
X21555823Y31949500D01*
X21622862Y31929815D01*
X21645475Y31908618D01*
X21646279Y31909421D01*
X21652848Y31902852D01*
X21652849Y31902852D01*
X21652850Y31902850D01*
X21762118Y31822207D01*
X21799499Y31809127D01*
X21890299Y31777354D01*
X21920730Y31774500D01*
X21920734Y31774500D01*
X22429270Y31774500D01*
X22459699Y31777354D01*
X22459701Y31777354D01*
X22550501Y31809127D01*
X22587882Y31822207D01*
X22697150Y31902850D01*
X22777793Y32012118D01*
X22811938Y32109699D01*
X22822646Y32140299D01*
X22822646Y32140301D01*
X22825500Y32170731D01*
X22825500Y32829270D01*
X22822646Y32859700D01*
X22822646Y32859702D01*
X22777793Y32987881D01*
X22777792Y32987883D01*
X22777789Y32987887D01*
X22697150Y33097150D01*
X22638983Y33140079D01*
X22603466Y33166292D01*
X22561215Y33221940D01*
X22553100Y33266062D01*
X22553100Y33414608D01*
X22557325Y33446701D01*
X22578100Y33524234D01*
X22578100Y33675766D01*
X22538881Y33822135D01*
X22463115Y33953365D01*
X22355965Y34060515D01*
X22290350Y34098398D01*
X22224736Y34136281D01*
X22151550Y34155891D01*
X22078366Y34175500D01*
X21926834Y34175500D01*
X21780463Y34136281D01*
X21649235Y34060515D01*
X21649232Y34060513D01*
X21542087Y33953368D01*
X21542085Y33953365D01*
X21466319Y33822137D01*
X21446839Y33749435D01*
X21427100Y33675766D01*
X21427100Y33524234D01*
X21435442Y33493101D01*
X21447875Y33446701D01*
X21452100Y33414608D01*
X21452100Y33174500D01*
X21432415Y33107461D01*
X21379611Y33061706D01*
X21328100Y33050500D01*
X14602525Y33050500D01*
X14507022Y33024910D01*
X14507021Y33024911D01*
X14462519Y33012986D01*
X14462512Y33012983D01*
X14336989Y32940513D01*
X14336984Y32940509D01*
X9158294Y27761819D01*
X9096971Y27728334D01*
X9070613Y27725500D01*
X8920730Y27725500D01*
X8890300Y27722647D01*
X8890298Y27722647D01*
X8762119Y27677794D01*
X8762117Y27677793D01*
X8652850Y27597150D01*
X8572207Y27487883D01*
X8572206Y27487881D01*
X8527353Y27359702D01*
X8527353Y27359700D01*
X8524500Y27329270D01*
X300500Y27329270D01*
X300500Y32897865D01*
X6099500Y32897865D01*
X6099500Y30802130D01*
X6099501Y30802124D01*
X6105908Y30742517D01*
X6156202Y30607672D01*
X6156206Y30607665D01*
X6242452Y30492456D01*
X6242455Y30492453D01*
X6357664Y30406207D01*
X6357671Y30406203D01*
X6492517Y30355909D01*
X6492516Y30355909D01*
X6499444Y30355165D01*
X6552127Y30349500D01*
X8447872Y30349501D01*
X8507483Y30355909D01*
X8642331Y30406204D01*
X8757546Y30492454D01*
X8843796Y30607669D01*
X8894091Y30742517D01*
X8900500Y30802127D01*
X8900500Y31175500D01*
X8920185Y31242539D01*
X8972989Y31288294D01*
X9024500Y31299500D01*
X9683972Y31299500D01*
X9683974Y31299500D01*
X9683975Y31299500D01*
X9823985Y31337016D01*
X9949515Y31409490D01*
X13884742Y35344720D01*
X13946063Y35378203D01*
X14015755Y35373219D01*
X14060102Y35344718D01*
X14079735Y35325085D01*
X14210965Y35249319D01*
X14357334Y35210100D01*
X14357336Y35210100D01*
X14508864Y35210100D01*
X14508866Y35210100D01*
X14655235Y35249319D01*
X14786465Y35325085D01*
X14893615Y35432235D01*
X14951503Y35532501D01*
X15002070Y35580716D01*
X15058890Y35594500D01*
X17159486Y35594500D01*
X17226525Y35574815D01*
X17272280Y35522011D01*
X17281103Y35494691D01*
X17289503Y35452460D01*
X17289505Y35452456D01*
X17344760Y35369761D01*
X17427455Y35314506D01*
X17427459Y35314504D01*
X17500371Y35300001D01*
X17500374Y35300000D01*
X18850000Y35300000D01*
X18850000Y37850000D01*
X18419035Y37850000D01*
X18443465Y37860119D01*
X18489881Y37906535D01*
X18515000Y37967179D01*
X18515000Y38032821D01*
X18489881Y38093465D01*
X18443465Y38139881D01*
X18419035Y38150000D01*
X18850000Y38150000D01*
X18850000Y40700000D01*
X19150000Y40700000D01*
X19150000Y38150000D01*
X19580965Y38150000D01*
X19556535Y38139881D01*
X19510119Y38093465D01*
X19485000Y38032821D01*
X19485000Y37967179D01*
X19510119Y37906535D01*
X19556535Y37860119D01*
X19580965Y37850000D01*
X19150000Y37850000D01*
X19150000Y35300000D01*
X20499626Y35300000D01*
X20499628Y35300001D01*
X20572540Y35314504D01*
X20572544Y35314506D01*
X20655239Y35369761D01*
X20710494Y35452456D01*
X20710496Y35452460D01*
X20718897Y35494691D01*
X20751282Y35556602D01*
X20811997Y35591176D01*
X20840514Y35594500D01*
X21793101Y35594500D01*
X21860140Y35574815D01*
X21880782Y35558181D01*
X22088181Y35350782D01*
X22121666Y35289459D01*
X22124500Y35263101D01*
X22124500Y35150566D01*
X22150090Y35055061D01*
X22150090Y35055060D01*
X22157511Y35042208D01*
X22157512Y35042207D01*
X22199526Y34969437D01*
X22199528Y34969435D01*
X23588181Y33580782D01*
X23621666Y33519459D01*
X23624500Y33493101D01*
X23624500Y33340092D01*
X23604815Y33273053D01*
X23552011Y33227298D01*
X23541456Y33223051D01*
X23412117Y33177793D01*
X23302850Y33097150D01*
X23222207Y32987883D01*
X23222206Y32987881D01*
X23177353Y32859702D01*
X23177353Y32859700D01*
X23174500Y32829270D01*
X23174500Y32170731D01*
X23177353Y32140301D01*
X23177353Y32140299D01*
X23222206Y32012120D01*
X23222207Y32012118D01*
X23302849Y31902851D01*
X23302851Y31902849D01*
X23399133Y31831790D01*
X23441384Y31776143D01*
X23449500Y31732020D01*
X23449500Y31356899D01*
X23429815Y31289860D01*
X23413181Y31269218D01*
X22405782Y30261819D01*
X22344459Y30228334D01*
X22318101Y30225500D01*
X21920730Y30225500D01*
X21890300Y30222647D01*
X21890298Y30222647D01*
X21762119Y30177794D01*
X21762117Y30177793D01*
X21652850Y30097150D01*
X21572207Y29987883D01*
X21572206Y29987881D01*
X21527353Y29859702D01*
X21527353Y29859700D01*
X21524500Y29829270D01*
X21524500Y29170731D01*
X21527353Y29140301D01*
X21527353Y29140299D01*
X21572124Y29012355D01*
X21572207Y29012118D01*
X21652850Y28902850D01*
X21762118Y28822207D01*
X21804845Y28807256D01*
X21890299Y28777354D01*
X21920730Y28774500D01*
X21920734Y28774500D01*
X22429270Y28774500D01*
X22459699Y28777354D01*
X22459701Y28777354D01*
X22535320Y28803815D01*
X22587882Y28822207D01*
X22697150Y28902850D01*
X22777793Y29012118D01*
X22800219Y29076210D01*
X22822646Y29140299D01*
X22822646Y29140301D01*
X22825500Y29170731D01*
X22825500Y29170804D01*
X23175001Y29170804D01*
X23177851Y29140394D01*
X23222653Y29012355D01*
X23303207Y28903208D01*
X23412354Y28822654D01*
X23540397Y28777851D01*
X23570778Y28775002D01*
X23570806Y28775001D01*
X23674999Y28775001D01*
X23975000Y28775001D01*
X24079196Y28775001D01*
X24109606Y28777852D01*
X24237645Y28822654D01*
X24346792Y28903208D01*
X24427346Y29012355D01*
X24472149Y29140396D01*
X24472149Y29140400D01*
X24475000Y29170794D01*
X24475000Y29350000D01*
X23975000Y29350000D01*
X23975000Y28775001D01*
X23674999Y28775001D01*
X23675000Y28775002D01*
X23675000Y29350000D01*
X23175001Y29350000D01*
X23175001Y29170804D01*
X22825500Y29170804D01*
X22825500Y29568101D01*
X22845185Y29635140D01*
X22861819Y29655782D01*
X22963319Y29757282D01*
X23024642Y29790767D01*
X23094334Y29785783D01*
X23150267Y29743911D01*
X23174684Y29678447D01*
X23175000Y29669601D01*
X23175000Y29650000D01*
X23675000Y29650000D01*
X23975000Y29650000D01*
X24474999Y29650000D01*
X24474999Y29829197D01*
X24472148Y29859607D01*
X24427346Y29987646D01*
X24346792Y30096793D01*
X24237645Y30177347D01*
X24109602Y30222150D01*
X24079207Y30225000D01*
X23975000Y30225000D01*
X23975000Y29650000D01*
X23675000Y29650000D01*
X23675000Y30225000D01*
X23640699Y30259300D01*
X23607214Y30320623D01*
X23612198Y30390315D01*
X23640697Y30434661D01*
X24125474Y30919437D01*
X24163883Y30985963D01*
X24174910Y31005062D01*
X24200500Y31100565D01*
X24200500Y31614035D01*
X33022500Y31614035D01*
X33022500Y31614033D01*
X33022500Y29425762D01*
X33028639Y29402850D01*
X33048089Y29330264D01*
X33048089Y29330263D01*
X33071711Y29289349D01*
X33095333Y29248435D01*
X33095334Y29248434D01*
X33095333Y29248434D01*
X33097374Y29244901D01*
X33097526Y29244637D01*
X36672725Y25669438D01*
X36742638Y25599525D01*
X36828260Y25550091D01*
X36828262Y25550090D01*
X36876011Y25537295D01*
X36876012Y25537295D01*
X36886103Y25534592D01*
X36923764Y25524500D01*
X36923765Y25524500D01*
X37625500Y25524500D01*
X37692539Y25504815D01*
X37738294Y25452011D01*
X37749500Y25400500D01*
X37749500Y25375322D01*
X37764032Y25302265D01*
X37764033Y25302261D01*
X37782405Y25274765D01*
X37819399Y25219399D01*
X37877913Y25180302D01*
X37902260Y25164034D01*
X37902264Y25164033D01*
X37975321Y25149501D01*
X37975324Y25149500D01*
X37975326Y25149500D01*
X39724676Y25149500D01*
X39724677Y25149501D01*
X39797740Y25164034D01*
X39880601Y25219399D01*
X39935966Y25302260D01*
X39950500Y25375326D01*
X39950500Y25400500D01*
X39970185Y25467539D01*
X40022989Y25513294D01*
X40074500Y25524500D01*
X43925500Y25524500D01*
X43992539Y25504815D01*
X44038294Y25452011D01*
X44049500Y25400500D01*
X44049500Y25375322D01*
X44064032Y25302265D01*
X44064033Y25302261D01*
X44082405Y25274765D01*
X44119399Y25219399D01*
X44177913Y25180302D01*
X44202260Y25164034D01*
X44202264Y25164033D01*
X44275321Y25149501D01*
X44275324Y25149500D01*
X44275326Y25149500D01*
X46024676Y25149500D01*
X46024677Y25149501D01*
X46097740Y25164034D01*
X46180601Y25219399D01*
X46235966Y25302260D01*
X46250500Y25375326D01*
X46250500Y26424674D01*
X46250500Y26424677D01*
X46250499Y26424679D01*
X46235967Y26497736D01*
X46235966Y26497740D01*
X46219746Y26522015D01*
X46180601Y26580601D01*
X46115682Y26623978D01*
X46097739Y26635967D01*
X46097735Y26635968D01*
X46024677Y26650500D01*
X46024674Y26650500D01*
X44275326Y26650500D01*
X44275323Y26650500D01*
X44202264Y26635968D01*
X44202260Y26635967D01*
X44119399Y26580601D01*
X44064033Y26497740D01*
X44064032Y26497736D01*
X44049500Y26424679D01*
X44049500Y26399500D01*
X44029815Y26332461D01*
X43977011Y26286706D01*
X43925500Y26275500D01*
X40074500Y26275500D01*
X40007461Y26295185D01*
X39961706Y26347989D01*
X39950500Y26399500D01*
X39950500Y26424677D01*
X39950499Y26424679D01*
X39935967Y26497736D01*
X39935966Y26497740D01*
X39919746Y26522015D01*
X39880601Y26580601D01*
X39815682Y26623978D01*
X39797739Y26635967D01*
X39797735Y26635968D01*
X39724677Y26650500D01*
X39724674Y26650500D01*
X37975326Y26650500D01*
X37975323Y26650500D01*
X37902264Y26635968D01*
X37902260Y26635967D01*
X37819399Y26580601D01*
X37764033Y26497740D01*
X37764032Y26497736D01*
X37749500Y26424679D01*
X37749500Y26399500D01*
X37729815Y26332461D01*
X37677011Y26286706D01*
X37625500Y26275500D01*
X37180099Y26275500D01*
X37113060Y26295185D01*
X37092418Y26311819D01*
X34341418Y29062819D01*
X34307933Y29124142D01*
X34312917Y29193834D01*
X34354789Y29249767D01*
X34420253Y29274184D01*
X34429099Y29274500D01*
X34429270Y29274500D01*
X34459699Y29277354D01*
X34459701Y29277354D01*
X34523790Y29299781D01*
X34587882Y29322207D01*
X34697150Y29402850D01*
X34777793Y29512118D01*
X34800219Y29576210D01*
X34822646Y29640299D01*
X34822646Y29640301D01*
X34825500Y29670731D01*
X34825500Y30055900D01*
X34845185Y30122939D01*
X34897989Y30168694D01*
X34949500Y30179900D01*
X35006163Y30179900D01*
X35006166Y30179900D01*
X35018406Y30183180D01*
X35088253Y30181519D01*
X35146117Y30142358D01*
X35173623Y30078131D01*
X35174500Y30063406D01*
X35174500Y29670731D01*
X35177353Y29640301D01*
X35177353Y29640299D01*
X35222206Y29512120D01*
X35222207Y29512118D01*
X35302850Y29402850D01*
X35412118Y29322207D01*
X35454845Y29307256D01*
X35540299Y29277354D01*
X35570730Y29274500D01*
X35570734Y29274500D01*
X35968101Y29274500D01*
X36035140Y29254815D01*
X36055782Y29238181D01*
X36325525Y28968438D01*
X36395438Y28898525D01*
X36481062Y28849090D01*
X36490183Y28846646D01*
X36490190Y28846642D01*
X36490191Y28846644D01*
X36576564Y28823500D01*
X36576565Y28823500D01*
X36576566Y28823500D01*
X37703786Y28823500D01*
X37770825Y28803815D01*
X37811171Y28761502D01*
X37818425Y28748938D01*
X37888338Y28679025D01*
X37973962Y28629590D01*
X38069465Y28604000D01*
X38069467Y28604000D01*
X38816434Y28604000D01*
X38816436Y28604000D01*
X38874397Y28619531D01*
X38911938Y28629590D01*
X38997562Y28679025D01*
X39067475Y28748938D01*
X39556718Y29238181D01*
X39618041Y29271666D01*
X39644399Y29274500D01*
X40051130Y29274500D01*
X40051144Y29274501D01*
X40073023Y29276854D01*
X40107022Y29280509D01*
X40233450Y29327664D01*
X40341472Y29408528D01*
X40422336Y29516550D01*
X40469491Y29642978D01*
X40473304Y29678447D01*
X40475499Y29698856D01*
X40475500Y29698871D01*
X40475500Y30301130D01*
X40475499Y30301145D01*
X40472475Y30329266D01*
X40469491Y30357022D01*
X40443871Y30425712D01*
X40442544Y30429270D01*
X58274500Y30429270D01*
X58274500Y29920731D01*
X58277353Y29890301D01*
X58277353Y29890299D01*
X58312182Y29790767D01*
X58322207Y29762118D01*
X58402850Y29652850D01*
X58512118Y29572207D01*
X58566456Y29553194D01*
X58623231Y29512473D01*
X58648978Y29447520D01*
X58649500Y29436153D01*
X58649500Y29414742D01*
X58629815Y29347703D01*
X58613181Y29327061D01*
X58539487Y29253368D01*
X58539485Y29253365D01*
X58463719Y29122137D01*
X58441573Y29039485D01*
X58424500Y28975766D01*
X58424500Y28824234D01*
X58425043Y28822208D01*
X58463719Y28677864D01*
X58491591Y28629590D01*
X58539485Y28546635D01*
X58646635Y28439485D01*
X58777865Y28363719D01*
X58924234Y28324500D01*
X58924236Y28324500D01*
X59075764Y28324500D01*
X59075766Y28324500D01*
X59222135Y28363719D01*
X59353365Y28439485D01*
X59460515Y28546635D01*
X59536281Y28677865D01*
X59575500Y28824234D01*
X59575500Y28975766D01*
X59536281Y29122135D01*
X59460515Y29253365D01*
X59386819Y29327061D01*
X59353334Y29388384D01*
X59350500Y29414742D01*
X59350500Y29436153D01*
X59370185Y29503192D01*
X59422989Y29548947D01*
X59433528Y29553188D01*
X59487882Y29572207D01*
X59597150Y29652850D01*
X59677793Y29762118D01*
X59711938Y29859699D01*
X59722646Y29890299D01*
X59722646Y29890301D01*
X59725500Y29920731D01*
X59725500Y30429270D01*
X60774500Y30429270D01*
X60774500Y29920731D01*
X60777353Y29890301D01*
X60777353Y29890299D01*
X60812182Y29790767D01*
X60822207Y29762118D01*
X60902850Y29652850D01*
X61012118Y29572207D01*
X61054845Y29557256D01*
X61140299Y29527354D01*
X61170730Y29524500D01*
X61170734Y29524500D01*
X61603456Y29524500D01*
X61670495Y29504815D01*
X61691137Y29488181D01*
X61959788Y29219530D01*
X61959789Y29219529D01*
X61959791Y29219528D01*
X61987427Y29203573D01*
X62032816Y29158186D01*
X62039485Y29146635D01*
X62146635Y29039485D01*
X62277865Y28963719D01*
X62424234Y28924500D01*
X62424236Y28924500D01*
X62575764Y28924500D01*
X62575766Y28924500D01*
X62722135Y28963719D01*
X62853365Y29039485D01*
X62960515Y29146635D01*
X63036281Y29277865D01*
X63075500Y29424234D01*
X63075500Y29575766D01*
X63036281Y29722135D01*
X62960515Y29853365D01*
X62853365Y29960515D01*
X62750004Y30020191D01*
X62722136Y30036281D01*
X62618405Y30064075D01*
X62575766Y30075500D01*
X62424234Y30075500D01*
X62424229Y30075500D01*
X62381591Y30064075D01*
X62311741Y30065739D01*
X62253880Y30104902D01*
X62226377Y30169131D01*
X62225500Y30183850D01*
X62225500Y30429270D01*
X62222646Y30459700D01*
X62222646Y30459702D01*
X62177793Y30587881D01*
X62177792Y30587883D01*
X62097150Y30697150D01*
X61987882Y30777793D01*
X61987880Y30777794D01*
X61859700Y30822647D01*
X61829270Y30825500D01*
X61829266Y30825500D01*
X61170734Y30825500D01*
X61170730Y30825500D01*
X61140300Y30822647D01*
X61140298Y30822647D01*
X61012119Y30777794D01*
X61012117Y30777793D01*
X60902850Y30697150D01*
X60822207Y30587883D01*
X60822206Y30587881D01*
X60777353Y30459702D01*
X60777353Y30459700D01*
X60774500Y30429270D01*
X59725500Y30429270D01*
X59722646Y30459700D01*
X59722646Y30459702D01*
X59677793Y30587881D01*
X59677792Y30587883D01*
X59597150Y30697150D01*
X59487882Y30777793D01*
X59487880Y30777794D01*
X59359700Y30822647D01*
X59329270Y30825500D01*
X59329266Y30825500D01*
X58670734Y30825500D01*
X58670730Y30825500D01*
X58640300Y30822647D01*
X58640298Y30822647D01*
X58512119Y30777794D01*
X58512117Y30777793D01*
X58402850Y30697150D01*
X58322207Y30587883D01*
X58322206Y30587881D01*
X58277353Y30459702D01*
X58277353Y30459700D01*
X58274500Y30429270D01*
X40442544Y30429270D01*
X40422337Y30483448D01*
X40422335Y30483451D01*
X40419018Y30487882D01*
X40341472Y30591472D01*
X40233450Y30672336D01*
X40233447Y30672338D01*
X40107024Y30719491D01*
X40051144Y30725500D01*
X40051130Y30725500D01*
X39523870Y30725500D01*
X39523855Y30725500D01*
X39467975Y30719491D01*
X39341552Y30672338D01*
X39341549Y30672336D01*
X39233528Y30591472D01*
X39152664Y30483451D01*
X39152663Y30483449D01*
X39115564Y30383983D01*
X39073692Y30328050D01*
X39008227Y30303633D01*
X38939955Y30318485D01*
X38890550Y30367891D01*
X38882341Y30386362D01*
X38850360Y30477755D01*
X38766449Y30591450D01*
X38652755Y30675360D01*
X38519379Y30722032D01*
X38519380Y30722032D01*
X38487722Y30725000D01*
X38362500Y30725000D01*
X38362500Y30124000D01*
X38342815Y30056961D01*
X38306322Y30020191D01*
X38207011Y29955309D01*
X38192815Y29906961D01*
X38140011Y29861206D01*
X38088500Y29850000D01*
X37525000Y29850000D01*
X37525000Y29698500D01*
X37505315Y29631461D01*
X37452511Y29585706D01*
X37401000Y29574500D01*
X36832899Y29574500D01*
X36765860Y29594185D01*
X36745218Y29610819D01*
X36511819Y29844218D01*
X36478334Y29905541D01*
X36475500Y29931899D01*
X36475500Y30312723D01*
X37525000Y30312723D01*
X37525000Y30150000D01*
X38051583Y30150000D01*
X38062500Y30157133D01*
X38062500Y30725000D01*
X37937278Y30725000D01*
X37905620Y30722032D01*
X37772244Y30675360D01*
X37658550Y30591450D01*
X37574640Y30477756D01*
X37527968Y30344380D01*
X37525000Y30312723D01*
X36475500Y30312723D01*
X36475500Y30329270D01*
X36472646Y30359700D01*
X36472646Y30359702D01*
X36437654Y30459702D01*
X36427793Y30487882D01*
X36347150Y30597150D01*
X36237882Y30677793D01*
X36237880Y30677794D01*
X36109700Y30722647D01*
X36079270Y30725500D01*
X36079266Y30725500D01*
X35628556Y30725500D01*
X35561517Y30745185D01*
X35515762Y30797989D01*
X35508453Y30823437D01*
X35508003Y30823316D01*
X35501425Y30847866D01*
X35466681Y30977535D01*
X35390915Y31108765D01*
X35283765Y31215915D01*
X35191442Y31269218D01*
X35152536Y31291681D01*
X35079350Y31311291D01*
X35006166Y31330900D01*
X34854634Y31330900D01*
X34708263Y31291681D01*
X34577035Y31215915D01*
X34577032Y31215913D01*
X34469887Y31108768D01*
X34469885Y31108765D01*
X34394119Y30977537D01*
X34352797Y30823316D01*
X34350976Y30823804D01*
X34326916Y30769417D01*
X34268591Y30730947D01*
X34232244Y30725500D01*
X33920733Y30725500D01*
X33909071Y30724407D01*
X33840487Y30737750D01*
X33790004Y30786054D01*
X33773500Y30847866D01*
X33773500Y31357701D01*
X33793185Y31424740D01*
X33809819Y31445382D01*
X35029303Y32664866D01*
X57660400Y32664866D01*
X57660400Y32513334D01*
X57671210Y32472989D01*
X57699619Y32366964D01*
X57711059Y32347150D01*
X57775385Y32235735D01*
X57882535Y32128585D01*
X58013765Y32052819D01*
X58160134Y32013600D01*
X58160144Y32013600D01*
X58166683Y32012739D01*
X58230580Y31984473D01*
X58269052Y31926150D01*
X58274500Y31889799D01*
X58274500Y31570731D01*
X58277353Y31540301D01*
X58277353Y31540299D01*
X58310567Y31445382D01*
X58322207Y31412118D01*
X58402850Y31302850D01*
X58512118Y31222207D01*
X58554845Y31207256D01*
X58640299Y31177354D01*
X58670730Y31174500D01*
X58670734Y31174500D01*
X59329270Y31174500D01*
X59359699Y31177354D01*
X59359701Y31177354D01*
X59423790Y31199781D01*
X59487882Y31222207D01*
X59597150Y31302850D01*
X59677793Y31412118D01*
X59700219Y31476210D01*
X59722646Y31540299D01*
X59722646Y31540301D01*
X59725500Y31570731D01*
X59725500Y32079270D01*
X59722646Y32109700D01*
X59722646Y32109702D01*
X59677793Y32237881D01*
X59677792Y32237883D01*
X59597150Y32347150D01*
X59487882Y32427793D01*
X59487880Y32427794D01*
X59359700Y32472647D01*
X59329270Y32475500D01*
X59329266Y32475500D01*
X58935400Y32475500D01*
X58926714Y32478051D01*
X58917753Y32476762D01*
X58893712Y32487741D01*
X58868361Y32495185D01*
X58862433Y32502026D01*
X58854197Y32505787D01*
X58839907Y32528022D01*
X58822606Y32547989D01*
X58820318Y32558504D01*
X58816423Y32564565D01*
X58811400Y32599500D01*
X58811400Y32664864D01*
X58811400Y32664866D01*
X60160400Y32664866D01*
X60160400Y32513334D01*
X60171210Y32472989D01*
X60199619Y32366964D01*
X60211059Y32347150D01*
X60275385Y32235735D01*
X60382535Y32128585D01*
X60513765Y32052819D01*
X60660134Y32013600D01*
X60660144Y32013600D01*
X60666683Y32012739D01*
X60730580Y31984473D01*
X60769052Y31926150D01*
X60774500Y31889799D01*
X60774500Y31570731D01*
X60777353Y31540301D01*
X60777353Y31540299D01*
X60810567Y31445382D01*
X60822207Y31412118D01*
X60902850Y31302850D01*
X61012118Y31222207D01*
X61054845Y31207256D01*
X61140299Y31177354D01*
X61170730Y31174500D01*
X61170734Y31174500D01*
X61829270Y31174500D01*
X61859699Y31177354D01*
X61859701Y31177354D01*
X61923790Y31199781D01*
X61987882Y31222207D01*
X62097150Y31302850D01*
X62177793Y31412118D01*
X62200219Y31476210D01*
X62222646Y31540299D01*
X62222646Y31540301D01*
X62225500Y31570731D01*
X62225500Y32079270D01*
X62222646Y32109700D01*
X62222646Y32109702D01*
X62177793Y32237881D01*
X62177792Y32237883D01*
X62097150Y32347150D01*
X61987882Y32427793D01*
X61987880Y32427794D01*
X61859700Y32472647D01*
X61829270Y32475500D01*
X61829266Y32475500D01*
X61435400Y32475500D01*
X61368361Y32495185D01*
X61322606Y32547989D01*
X61311400Y32599500D01*
X61311400Y32664864D01*
X61311400Y32664866D01*
X61272181Y32811235D01*
X61196415Y32942465D01*
X61089265Y33049615D01*
X61016656Y33091536D01*
X60958036Y33125381D01*
X60884850Y33144991D01*
X60811666Y33164600D01*
X60660134Y33164600D01*
X60513763Y33125381D01*
X60382535Y33049615D01*
X60382532Y33049613D01*
X60275387Y32942468D01*
X60275385Y32942465D01*
X60199619Y32811237D01*
X60186071Y32760674D01*
X60160400Y32664866D01*
X58811400Y32664866D01*
X58772181Y32811235D01*
X58696415Y32942465D01*
X58589265Y33049615D01*
X58516656Y33091536D01*
X58458036Y33125381D01*
X58384850Y33144991D01*
X58311666Y33164600D01*
X58160134Y33164600D01*
X58013763Y33125381D01*
X57882535Y33049615D01*
X57882532Y33049613D01*
X57775387Y32942468D01*
X57775385Y32942465D01*
X57699619Y32811237D01*
X57686071Y32760674D01*
X57660400Y32664866D01*
X35029303Y32664866D01*
X35125111Y32760674D01*
X35304947Y32940509D01*
X36744219Y34379781D01*
X36805542Y34413266D01*
X36831900Y34416100D01*
X36900764Y34416100D01*
X36900766Y34416100D01*
X37047135Y34455319D01*
X37178365Y34531085D01*
X37285515Y34638235D01*
X37361281Y34769465D01*
X37400500Y34915834D01*
X37400500Y35067366D01*
X37361281Y35213735D01*
X37347167Y35238181D01*
X37334411Y35260276D01*
X37317938Y35328176D01*
X37340790Y35394203D01*
X37342028Y35395909D01*
X37427790Y35512114D01*
X37427789Y35512114D01*
X37427793Y35512118D01*
X37432431Y35525372D01*
X38250000Y35525372D01*
X38264503Y35452460D01*
X38264505Y35452456D01*
X38319760Y35369761D01*
X38402455Y35314506D01*
X38402459Y35314504D01*
X38475371Y35300001D01*
X38475374Y35300000D01*
X39100000Y35300000D01*
X39400000Y35300000D01*
X40024626Y35300000D01*
X40024628Y35300001D01*
X40097540Y35314504D01*
X40097544Y35314506D01*
X40180239Y35369761D01*
X40235494Y35452456D01*
X40235496Y35452460D01*
X40249999Y35525372D01*
X40250000Y35525374D01*
X40250000Y35850000D01*
X39400000Y35850000D01*
X39400000Y35300000D01*
X39100000Y35300000D01*
X39100000Y35850000D01*
X38250000Y35850000D01*
X38250000Y35525372D01*
X37432431Y35525372D01*
X37452148Y35581721D01*
X37472646Y35640299D01*
X37472646Y35640301D01*
X37475500Y35670731D01*
X37475500Y36329270D01*
X37472646Y36359700D01*
X37472646Y36359702D01*
X37432430Y36474629D01*
X37427793Y36487882D01*
X37347150Y36597150D01*
X37237882Y36677793D01*
X37237880Y36677794D01*
X37109700Y36722647D01*
X37079270Y36725500D01*
X37079266Y36725500D01*
X36570734Y36725500D01*
X36570730Y36725500D01*
X36540300Y36722647D01*
X36540298Y36722647D01*
X36412119Y36677794D01*
X36412117Y36677793D01*
X36302850Y36597150D01*
X36222207Y36487883D01*
X36222206Y36487881D01*
X36177353Y36359702D01*
X36177353Y36359700D01*
X36174500Y36329270D01*
X36174500Y35670731D01*
X36177353Y35640301D01*
X36177353Y35640299D01*
X36222206Y35512120D01*
X36222207Y35512118D01*
X36302850Y35402850D01*
X36302851Y35402849D01*
X36307972Y35395911D01*
X36331943Y35330282D01*
X36316628Y35262111D01*
X36315590Y35260278D01*
X36288719Y35213737D01*
X36249500Y35067366D01*
X36249500Y34998500D01*
X36229815Y34931461D01*
X36213181Y34910819D01*
X33167438Y31865075D01*
X33097526Y31795164D01*
X33048091Y31709541D01*
X33048091Y31709540D01*
X33048090Y31709538D01*
X33022500Y31614035D01*
X24200500Y31614035D01*
X24200500Y31732020D01*
X24220185Y31799059D01*
X24250867Y31831790D01*
X24329466Y31889799D01*
X24347150Y31902850D01*
X24427793Y32012118D01*
X24461938Y32109699D01*
X24472646Y32140299D01*
X24472646Y32140301D01*
X24475500Y32170731D01*
X24475500Y32829270D01*
X24472646Y32859700D01*
X24472646Y32859702D01*
X24427793Y32987881D01*
X24427790Y32987887D01*
X24399730Y33025907D01*
X24375759Y33091536D01*
X24375500Y33099540D01*
X24375500Y33749433D01*
X24375500Y33749435D01*
X24349910Y33844938D01*
X24300475Y33930562D01*
X24230562Y34000475D01*
X22911819Y35319218D01*
X22878334Y35380541D01*
X22875500Y35406899D01*
X22875500Y35470500D01*
X22895185Y35537539D01*
X22947989Y35583294D01*
X22993679Y35593234D01*
X22993614Y35593903D01*
X22999354Y35594469D01*
X22999500Y35594500D01*
X22999676Y35594500D01*
X22999677Y35594501D01*
X23072740Y35609034D01*
X23155601Y35664399D01*
X23210966Y35747260D01*
X23225500Y35820326D01*
X23225500Y36369674D01*
X23225500Y36369677D01*
X23225499Y36369679D01*
X23210967Y36442736D01*
X23210966Y36442740D01*
X23204093Y36453026D01*
X23155601Y36525601D01*
X23072740Y36580966D01*
X23072739Y36580967D01*
X23072735Y36580968D01*
X22999677Y36595500D01*
X22999674Y36595500D01*
X20849000Y36595500D01*
X20781961Y36615185D01*
X20736206Y36667989D01*
X20725000Y36719500D01*
X20725000Y36740500D01*
X20744685Y36807539D01*
X20797489Y36853294D01*
X20849000Y36864500D01*
X22999676Y36864500D01*
X22999677Y36864501D01*
X23072740Y36879034D01*
X23155601Y36934399D01*
X23155605Y36934406D01*
X23164234Y36943033D01*
X23165009Y36942258D01*
X23209204Y36979195D01*
X23258697Y36989500D01*
X23900501Y36989500D01*
X23967540Y36969815D01*
X24013295Y36917011D01*
X24024501Y36865500D01*
X24024501Y36704510D01*
X24030587Y36647886D01*
X24068014Y36547545D01*
X24078372Y36519774D01*
X24160313Y36410313D01*
X24227926Y36359699D01*
X24269183Y36328814D01*
X24269774Y36328372D01*
X24397886Y36280588D01*
X24454515Y36274500D01*
X24995484Y36274501D01*
X25052114Y36280588D01*
X25180226Y36328372D01*
X25289687Y36410313D01*
X25371628Y36519774D01*
X25384085Y36553175D01*
X25425955Y36609106D01*
X25491419Y36633523D01*
X25559692Y36618672D01*
X25609098Y36569267D01*
X25616448Y36553173D01*
X25628814Y36520017D01*
X25628815Y36520016D01*
X25710670Y36410671D01*
X25820015Y36328816D01*
X25820016Y36328815D01*
X25947991Y36281083D01*
X25947994Y36281082D01*
X26004555Y36275001D01*
X26124999Y36275001D01*
X26425000Y36275001D01*
X26545433Y36275001D01*
X26545439Y36275002D01*
X26602007Y36281082D01*
X26729981Y36328814D01*
X26729984Y36328816D01*
X26839329Y36410671D01*
X26921184Y36520016D01*
X26921185Y36520017D01*
X26968916Y36647990D01*
X26974999Y36704572D01*
X26975000Y36704573D01*
X26975000Y36850000D01*
X26425000Y36850000D01*
X26425000Y36275001D01*
X26124999Y36275001D01*
X26125000Y36275002D01*
X26125000Y37150000D01*
X26425000Y37150000D01*
X26974999Y37150000D01*
X26974999Y37295434D01*
X26974998Y37295440D01*
X26968918Y37352008D01*
X26921186Y37479982D01*
X26921184Y37479985D01*
X26839329Y37589330D01*
X26729984Y37671185D01*
X26729983Y37671186D01*
X26602010Y37718917D01*
X26545428Y37725000D01*
X26425000Y37725000D01*
X26425000Y37150000D01*
X26125000Y37150000D01*
X26125000Y37725000D01*
X26004566Y37725000D01*
X26004559Y37724999D01*
X25947992Y37718919D01*
X25820018Y37671187D01*
X25820015Y37671185D01*
X25710670Y37589330D01*
X25628815Y37479985D01*
X25628811Y37479977D01*
X25616447Y37446828D01*
X25574576Y37390894D01*
X25509111Y37366478D01*
X25440838Y37381330D01*
X25391433Y37430736D01*
X25384089Y37446817D01*
X25371628Y37480226D01*
X25289687Y37589687D01*
X25211962Y37647871D01*
X25180228Y37671627D01*
X25180226Y37671628D01*
X25052114Y37719412D01*
X25052112Y37719413D01*
X25052110Y37719413D01*
X24995501Y37725500D01*
X24995485Y37725500D01*
X24481740Y37725500D01*
X24449642Y37729727D01*
X24446524Y37730562D01*
X24446515Y37730565D01*
X24446514Y37730565D01*
X24409436Y37740500D01*
X24409435Y37740500D01*
X23258697Y37740500D01*
X23191658Y37760185D01*
X23164313Y37787047D01*
X23164234Y37786967D01*
X23155603Y37795598D01*
X23155601Y37795601D01*
X23072740Y37850966D01*
X23072738Y37850967D01*
X23072735Y37850968D01*
X22999677Y37865500D01*
X22999674Y37865500D01*
X20750326Y37865500D01*
X20750324Y37865500D01*
X20684383Y37852383D01*
X20660191Y37850000D01*
X19719035Y37850000D01*
X19743465Y37860119D01*
X19789881Y37906535D01*
X19815000Y37967179D01*
X19815000Y38032821D01*
X19789881Y38093465D01*
X19743465Y38139881D01*
X19719035Y38150000D01*
X20660191Y38150000D01*
X20684383Y38147617D01*
X20750324Y38134500D01*
X20750326Y38134500D01*
X22999676Y38134500D01*
X22999677Y38134501D01*
X23072740Y38149034D01*
X23155601Y38204399D01*
X23155605Y38204406D01*
X23164234Y38213033D01*
X23165009Y38212258D01*
X23209204Y38249195D01*
X23258697Y38259500D01*
X25824432Y38259500D01*
X25824435Y38259500D01*
X25919938Y38285090D01*
X26005562Y38334525D01*
X26075475Y38404438D01*
X26124910Y38490062D01*
X26150500Y38585565D01*
X26150500Y38812541D01*
X26170185Y38879580D01*
X26222989Y38925335D01*
X26229928Y38928210D01*
X26230222Y38928371D01*
X26230226Y38928372D01*
X26339687Y39010313D01*
X26421628Y39119774D01*
X26469412Y39247886D01*
X26472972Y39281000D01*
X26475499Y39304499D01*
X26475499Y39304510D01*
X26475500Y39304515D01*
X26475499Y39895484D01*
X26469412Y39952114D01*
X26469357Y39952261D01*
X26442106Y40025322D01*
X26421628Y40080226D01*
X26339687Y40189687D01*
X26273911Y40238926D01*
X26230228Y40271627D01*
X26230226Y40271628D01*
X26102114Y40319412D01*
X26102112Y40319413D01*
X26102110Y40319413D01*
X26045493Y40325500D01*
X25504518Y40325500D01*
X25504509Y40325499D01*
X25447885Y40319413D01*
X25319773Y40271628D01*
X25210313Y40189687D01*
X25128372Y40080227D01*
X25116181Y40047541D01*
X25074310Y39991608D01*
X25008845Y39967192D01*
X24940572Y39982044D01*
X24891167Y40031450D01*
X24883819Y40047541D01*
X24881037Y40055000D01*
X24871628Y40080226D01*
X24789687Y40189687D01*
X24723911Y40238926D01*
X24680228Y40271627D01*
X24680226Y40271628D01*
X24552114Y40319412D01*
X24552112Y40319413D01*
X24552110Y40319413D01*
X24495501Y40325500D01*
X24495485Y40325500D01*
X24107597Y40325500D01*
X24075508Y40329724D01*
X24069674Y40331287D01*
X24069670Y40331288D01*
X23999835Y40350000D01*
X23979309Y40355500D01*
X23979308Y40355500D01*
X23403387Y40355500D01*
X23336348Y40375185D01*
X23290593Y40427989D01*
X23280649Y40497147D01*
X23309674Y40560703D01*
X23315706Y40567181D01*
X23324291Y40575766D01*
X23365510Y40616985D01*
X23437984Y40742515D01*
X23475500Y40882525D01*
X23475500Y41575500D01*
X23495185Y41642539D01*
X23547989Y41688294D01*
X23599500Y41699500D01*
X24124676Y41699500D01*
X24124677Y41699501D01*
X24197740Y41714034D01*
X24280601Y41769399D01*
X24335966Y41852260D01*
X24350500Y41925326D01*
X24350500Y47074674D01*
X24350500Y47074677D01*
X24350499Y47074679D01*
X25649500Y47074679D01*
X25649500Y41925322D01*
X25664032Y41852265D01*
X25664033Y41852261D01*
X25670831Y41842087D01*
X25719399Y41769399D01*
X25775342Y41732020D01*
X25802260Y41714034D01*
X25802264Y41714033D01*
X25875321Y41699501D01*
X25875324Y41699500D01*
X25875326Y41699500D01*
X28274676Y41699500D01*
X28274677Y41699501D01*
X28347740Y41714034D01*
X28430601Y41769399D01*
X28485966Y41852260D01*
X28500500Y41925326D01*
X28500500Y43725500D01*
X28520185Y43792539D01*
X28572989Y43838294D01*
X28624500Y43849500D01*
X29075501Y43849500D01*
X29142540Y43829815D01*
X29188295Y43777011D01*
X29199501Y43725500D01*
X29199501Y43352124D01*
X29205908Y43292517D01*
X29256202Y43157672D01*
X29256203Y43157671D01*
X29256204Y43157669D01*
X29264466Y43146633D01*
X29347769Y43035354D01*
X29345370Y43033559D01*
X29371666Y42985403D01*
X29374500Y42959045D01*
X29374500Y42040955D01*
X29354815Y41973916D01*
X29347504Y41964843D01*
X29347768Y41964645D01*
X29256206Y41842336D01*
X29256202Y41842329D01*
X29205908Y41707483D01*
X29199501Y41647884D01*
X29199501Y41647877D01*
X29199500Y41647865D01*
X29199500Y39352130D01*
X29199501Y39352124D01*
X29205908Y39292517D01*
X29256202Y39157672D01*
X29256203Y39157671D01*
X29256204Y39157669D01*
X29295838Y39104725D01*
X29347769Y39035354D01*
X29345370Y39033559D01*
X29371666Y38985403D01*
X29374500Y38959045D01*
X29374500Y38040955D01*
X29354815Y37973916D01*
X29347504Y37964843D01*
X29347768Y37964645D01*
X29256206Y37842336D01*
X29256202Y37842329D01*
X29205908Y37707483D01*
X29199501Y37647884D01*
X29199501Y37647877D01*
X29199500Y37647865D01*
X29199500Y35352130D01*
X29199501Y35352124D01*
X29205908Y35292517D01*
X29256202Y35157672D01*
X29256206Y35157665D01*
X29342452Y35042456D01*
X29342455Y35042453D01*
X29457664Y34956207D01*
X29457671Y34956203D01*
X29481976Y34947138D01*
X29592517Y34905909D01*
X29652127Y34899500D01*
X30397872Y34899501D01*
X30457483Y34905909D01*
X30568024Y34947138D01*
X30592329Y34956203D01*
X30592329Y34956204D01*
X30592331Y34956204D01*
X30619515Y34976555D01*
X30684977Y35000972D01*
X30753251Y34986121D01*
X30781507Y34964969D01*
X31585286Y34161190D01*
X31710815Y34088716D01*
X31850825Y34051200D01*
X31850826Y34051200D01*
X31850828Y34051200D01*
X33849172Y34051200D01*
X33849174Y34051200D01*
X33849175Y34051200D01*
X33989185Y34088716D01*
X34114715Y34161190D01*
X35191706Y35238181D01*
X35253029Y35271666D01*
X35279387Y35274500D01*
X35429270Y35274500D01*
X35459699Y35277354D01*
X35459701Y35277354D01*
X35524421Y35300001D01*
X35587882Y35322207D01*
X35697150Y35402850D01*
X35777793Y35512118D01*
X35802148Y35581721D01*
X35822646Y35640299D01*
X35822646Y35640301D01*
X35825500Y35670731D01*
X35825500Y36329270D01*
X35822646Y36359700D01*
X35822646Y36359702D01*
X35782430Y36474629D01*
X35777793Y36487882D01*
X35697150Y36597150D01*
X35630153Y36646596D01*
X35625866Y36649760D01*
X35583615Y36705408D01*
X35575500Y36749530D01*
X35575500Y37750471D01*
X35595185Y37817510D01*
X35625867Y37850241D01*
X35669800Y37882665D01*
X35697150Y37902850D01*
X35777793Y38012118D01*
X35800219Y38076210D01*
X35822646Y38140299D01*
X35822646Y38140301D01*
X35825500Y38170731D01*
X35825500Y38829270D01*
X35822646Y38859700D01*
X35822646Y38859702D01*
X35788723Y38956646D01*
X35777793Y38987882D01*
X35697150Y39097150D01*
X35587882Y39177793D01*
X35587880Y39177794D01*
X35459700Y39222647D01*
X35429270Y39225500D01*
X35429266Y39225500D01*
X34920734Y39225500D01*
X34920730Y39225500D01*
X34890300Y39222647D01*
X34890298Y39222647D01*
X34762119Y39177794D01*
X34762117Y39177793D01*
X34652850Y39097150D01*
X34572207Y38987883D01*
X34572206Y38987881D01*
X34527353Y38859702D01*
X34527353Y38859700D01*
X34524500Y38829270D01*
X34524500Y38170731D01*
X34527353Y38140301D01*
X34527353Y38140299D01*
X34571329Y38014627D01*
X34572207Y38012118D01*
X34652849Y37902851D01*
X34652851Y37902849D01*
X34724133Y37850241D01*
X34766384Y37794594D01*
X34774500Y37750471D01*
X34774500Y36749530D01*
X34754815Y36682491D01*
X34724134Y36649760D01*
X34652850Y36597150D01*
X34572207Y36487883D01*
X34572206Y36487881D01*
X34527353Y36359702D01*
X34527353Y36359700D01*
X34524500Y36329270D01*
X34524500Y36179387D01*
X34504815Y36112348D01*
X34488181Y36091706D01*
X34011681Y35615206D01*
X33950358Y35581721D01*
X33880666Y35586705D01*
X33824733Y35628577D01*
X33800316Y35694041D01*
X33800000Y35702887D01*
X33800000Y36350000D01*
X32150000Y36350000D01*
X32150000Y35452887D01*
X32130315Y35385848D01*
X32077511Y35340093D01*
X32008353Y35330149D01*
X31944797Y35359174D01*
X31938319Y35365206D01*
X30886818Y36416707D01*
X30853333Y36478030D01*
X30850499Y36504388D01*
X30850499Y37647845D01*
X32150000Y37647845D01*
X32150000Y36650000D01*
X32825000Y36650000D01*
X33125000Y36650000D01*
X33800000Y36650000D01*
X33800000Y37647828D01*
X33799999Y37647845D01*
X33793598Y37707373D01*
X33793596Y37707380D01*
X33743354Y37842087D01*
X33743350Y37842094D01*
X33657190Y37957188D01*
X33657187Y37957191D01*
X33542093Y38043351D01*
X33542086Y38043355D01*
X33407379Y38093597D01*
X33407372Y38093599D01*
X33347844Y38100000D01*
X33125000Y38100000D01*
X33125000Y36650000D01*
X32825000Y36650000D01*
X32825000Y38100000D01*
X32602155Y38100000D01*
X32542627Y38093599D01*
X32542620Y38093597D01*
X32407913Y38043355D01*
X32407906Y38043351D01*
X32292812Y37957191D01*
X32292809Y37957188D01*
X32206649Y37842094D01*
X32206645Y37842087D01*
X32156403Y37707380D01*
X32156401Y37707373D01*
X32150000Y37647845D01*
X30850499Y37647845D01*
X30850499Y37647871D01*
X30850498Y37647877D01*
X30850497Y37647884D01*
X30844091Y37707483D01*
X30842130Y37712740D01*
X30793797Y37842329D01*
X30793793Y37842336D01*
X30702232Y37964645D01*
X30704625Y37966437D01*
X30678327Y38014627D01*
X30675500Y38040955D01*
X30675500Y38959045D01*
X30695185Y39026084D01*
X30702495Y39035156D01*
X30702231Y39035354D01*
X30707546Y39042454D01*
X30793796Y39157669D01*
X30844091Y39292517D01*
X30850500Y39352127D01*
X30850500Y39352156D01*
X32150000Y39352156D01*
X32156401Y39292628D01*
X32156403Y39292621D01*
X32206645Y39157914D01*
X32206649Y39157907D01*
X32292809Y39042813D01*
X32292812Y39042810D01*
X32407906Y38956650D01*
X32407913Y38956646D01*
X32542620Y38906404D01*
X32542627Y38906402D01*
X32602155Y38900001D01*
X32602172Y38900000D01*
X32825000Y38900000D01*
X33125000Y38900000D01*
X33347828Y38900000D01*
X33347844Y38900001D01*
X33407372Y38906402D01*
X33407379Y38906404D01*
X33542086Y38956646D01*
X33542093Y38956650D01*
X33657187Y39042810D01*
X33657190Y39042813D01*
X33743350Y39157907D01*
X33743354Y39157914D01*
X33793596Y39292621D01*
X33793598Y39292628D01*
X33799999Y39352156D01*
X33800000Y39352173D01*
X33800000Y40350000D01*
X33125000Y40350000D01*
X33125000Y38900000D01*
X32825000Y38900000D01*
X32825000Y40350000D01*
X32150000Y40350000D01*
X32150000Y39352156D01*
X30850500Y39352156D01*
X30850499Y40504808D01*
X30850499Y41647845D01*
X32150000Y41647845D01*
X32150000Y40650000D01*
X32825000Y40650000D01*
X33125000Y40650000D01*
X33800000Y40650000D01*
X33800000Y41195502D01*
X34524500Y41195502D01*
X34524500Y40604519D01*
X34524501Y40604510D01*
X34530587Y40547886D01*
X34575308Y40427989D01*
X34578372Y40419774D01*
X34660313Y40310313D01*
X34737488Y40252541D01*
X34769183Y40228814D01*
X34769774Y40228372D01*
X34897886Y40180588D01*
X34954515Y40174500D01*
X35495484Y40174501D01*
X35552114Y40180588D01*
X35680226Y40228372D01*
X35789687Y40310313D01*
X35871628Y40419774D01*
X35884085Y40453175D01*
X35925955Y40509106D01*
X35991419Y40533523D01*
X36059692Y40518672D01*
X36109098Y40469267D01*
X36116448Y40453173D01*
X36128814Y40420017D01*
X36128815Y40420016D01*
X36210670Y40310671D01*
X36320015Y40228816D01*
X36320016Y40228815D01*
X36447991Y40181083D01*
X36447994Y40181082D01*
X36504555Y40175001D01*
X36624999Y40175001D01*
X36925000Y40175001D01*
X37045433Y40175001D01*
X37045439Y40175002D01*
X37102007Y40181082D01*
X37229981Y40228814D01*
X37229984Y40228816D01*
X37339329Y40310671D01*
X37421184Y40420016D01*
X37421185Y40420017D01*
X37468916Y40547990D01*
X37474999Y40604572D01*
X37475000Y40604573D01*
X37475000Y40750000D01*
X36925000Y40750000D01*
X36925000Y40175001D01*
X36624999Y40175001D01*
X36625000Y40175002D01*
X36625000Y41050000D01*
X36925000Y41050000D01*
X37474999Y41050000D01*
X37474999Y41195434D01*
X37474998Y41195440D01*
X37468918Y41252008D01*
X37421186Y41379982D01*
X37421184Y41379985D01*
X37339329Y41489330D01*
X37229984Y41571185D01*
X37229983Y41571186D01*
X37102010Y41618917D01*
X37045428Y41625000D01*
X36925000Y41625000D01*
X36925000Y41050000D01*
X36625000Y41050000D01*
X36625000Y41638053D01*
X36607214Y41670625D01*
X36612198Y41740317D01*
X36640692Y41784655D01*
X37125475Y42269437D01*
X37174911Y42355063D01*
X37200500Y42450564D01*
X37200500Y42450566D01*
X37202603Y42458414D01*
X37204796Y42457827D01*
X37228295Y42510966D01*
X37249344Y42530667D01*
X37295689Y42564871D01*
X37361317Y42588841D01*
X37429487Y42573525D01*
X37478555Y42523785D01*
X37483881Y42512556D01*
X37483917Y42512467D01*
X37505838Y42474500D01*
X37559685Y42381235D01*
X37666835Y42274085D01*
X37780481Y42208471D01*
X37790899Y42202456D01*
X37798065Y42198319D01*
X37944434Y42159100D01*
X37944436Y42159100D01*
X38095964Y42159100D01*
X38095966Y42159100D01*
X38095967Y42159101D01*
X38104022Y42160161D01*
X38104286Y42158155D01*
X38163250Y42156754D01*
X38221115Y42117594D01*
X38248622Y42053367D01*
X38249500Y42038640D01*
X38249500Y41525322D01*
X38264032Y41452265D01*
X38264033Y41452261D01*
X38264034Y41452260D01*
X38319399Y41369399D01*
X38343790Y41353102D01*
X38388594Y41299489D01*
X38397301Y41230164D01*
X38367146Y41167137D01*
X38343791Y41146900D01*
X38319399Y41130601D01*
X38264033Y41047740D01*
X38264032Y41047736D01*
X38249500Y40974679D01*
X38249500Y40025322D01*
X38264032Y39952265D01*
X38264033Y39952261D01*
X38267663Y39946828D01*
X38319399Y39869399D01*
X38343790Y39853102D01*
X38388594Y39799489D01*
X38397301Y39730164D01*
X38367146Y39667137D01*
X38343791Y39646900D01*
X38319399Y39630601D01*
X38264033Y39547740D01*
X38264032Y39547736D01*
X38249626Y39475309D01*
X38217241Y39413398D01*
X38156526Y39378824D01*
X38128009Y39375500D01*
X38123864Y39375500D01*
X38028363Y39349911D01*
X38028360Y39349910D01*
X37942740Y39300478D01*
X37942735Y39300474D01*
X37615606Y38973344D01*
X37554283Y38939859D01*
X37484591Y38944843D01*
X37428658Y38986715D01*
X37428155Y38987391D01*
X37427792Y38987883D01*
X37347150Y39097150D01*
X37237882Y39177793D01*
X37237880Y39177794D01*
X37109700Y39222647D01*
X37079270Y39225500D01*
X37079266Y39225500D01*
X36570734Y39225500D01*
X36570730Y39225500D01*
X36540300Y39222647D01*
X36540298Y39222647D01*
X36412119Y39177794D01*
X36412117Y39177793D01*
X36302850Y39097150D01*
X36222207Y38987883D01*
X36222206Y38987881D01*
X36177353Y38859702D01*
X36177353Y38859700D01*
X36174500Y38829270D01*
X36174500Y38170731D01*
X36177353Y38140301D01*
X36177353Y38140299D01*
X36221329Y38014627D01*
X36222207Y38012118D01*
X36302850Y37902850D01*
X36412118Y37822207D01*
X36454845Y37807256D01*
X36540299Y37777354D01*
X36570730Y37774500D01*
X36570734Y37774500D01*
X37079270Y37774500D01*
X37109699Y37777354D01*
X37109701Y37777354D01*
X37173790Y37799781D01*
X37237882Y37822207D01*
X37237887Y37822211D01*
X37246101Y37826551D01*
X37248183Y37822611D01*
X37291233Y37840263D01*
X37359948Y37827613D01*
X37410915Y37779821D01*
X37427953Y37712060D01*
X37423824Y37684834D01*
X37407658Y37624501D01*
X37394600Y37575766D01*
X37394600Y37424234D01*
X37413924Y37352114D01*
X37433819Y37277864D01*
X37445646Y37257380D01*
X37509585Y37146635D01*
X37616735Y37039485D01*
X37747965Y36963719D01*
X37894334Y36924500D01*
X37894336Y36924500D01*
X38045863Y36924500D01*
X38045866Y36924500D01*
X38160810Y36955299D01*
X38230656Y36953636D01*
X38288519Y36914474D01*
X38296002Y36904415D01*
X38319399Y36869399D01*
X38342849Y36853731D01*
X38344240Y36852801D01*
X38389045Y36799189D01*
X38397752Y36729864D01*
X38367597Y36666836D01*
X38344240Y36646597D01*
X38319760Y36630240D01*
X38264505Y36547545D01*
X38264503Y36547541D01*
X38250000Y36474629D01*
X38250000Y36150000D01*
X40250000Y36150000D01*
X40250000Y36474627D01*
X40249999Y36474629D01*
X40235496Y36547541D01*
X40235494Y36547545D01*
X40180240Y36630240D01*
X40155760Y36646596D01*
X40110955Y36700208D01*
X40102247Y36769533D01*
X40132401Y36832561D01*
X40155755Y36852798D01*
X40180601Y36869399D01*
X40235966Y36952260D01*
X40250500Y37025326D01*
X40250500Y37974674D01*
X40250500Y37974677D01*
X40250499Y37974679D01*
X40235967Y38047736D01*
X40235966Y38047740D01*
X40180601Y38130601D01*
X40156209Y38146899D01*
X40111405Y38200509D01*
X40102698Y38269834D01*
X40132852Y38332862D01*
X40156210Y38353102D01*
X40180601Y38369399D01*
X40235966Y38452260D01*
X40250500Y38525326D01*
X40250500Y39474674D01*
X40250500Y39474677D01*
X40250499Y39474679D01*
X40235967Y39547736D01*
X40235966Y39547740D01*
X40222030Y39568597D01*
X40180601Y39630601D01*
X40156209Y39646899D01*
X40111405Y39700509D01*
X40102698Y39769834D01*
X40132852Y39832862D01*
X40156210Y39853102D01*
X40180601Y39869399D01*
X40206214Y39907734D01*
X40259825Y39952537D01*
X40329150Y39961246D01*
X40341390Y39958622D01*
X40468734Y39924500D01*
X40468736Y39924500D01*
X40620264Y39924500D01*
X40620266Y39924500D01*
X40766635Y39963719D01*
X40897865Y40039485D01*
X41005015Y40146635D01*
X41080781Y40277865D01*
X41120000Y40424234D01*
X41120000Y40575766D01*
X41080781Y40722135D01*
X41005015Y40853365D01*
X40897865Y40960515D01*
X40832250Y40998398D01*
X40766636Y41036281D01*
X40635627Y41071384D01*
X40620266Y41075500D01*
X40468734Y41075500D01*
X40341409Y41041384D01*
X40271559Y41043047D01*
X40213697Y41082210D01*
X40206214Y41092268D01*
X40180601Y41130601D01*
X40156209Y41146899D01*
X40111405Y41200509D01*
X40102698Y41269834D01*
X40132852Y41332862D01*
X40156210Y41353102D01*
X40180601Y41369399D01*
X40235966Y41452260D01*
X40250500Y41525326D01*
X40250500Y42474674D01*
X40250500Y42474677D01*
X40250499Y42474679D01*
X40235967Y42547736D01*
X40235966Y42547740D01*
X40180601Y42630601D01*
X40156209Y42646899D01*
X40111405Y42700509D01*
X40102698Y42769834D01*
X40132852Y42832862D01*
X40156210Y42853102D01*
X40180601Y42869399D01*
X40235966Y42952260D01*
X40250500Y43025326D01*
X40250500Y43974674D01*
X40250500Y43974677D01*
X40250499Y43974679D01*
X40235967Y44047736D01*
X40235966Y44047740D01*
X40223252Y44066768D01*
X40180601Y44130601D01*
X40156209Y44146899D01*
X40111405Y44200509D01*
X40102698Y44269834D01*
X40132852Y44332862D01*
X40156210Y44353102D01*
X40180601Y44369399D01*
X40205834Y44407165D01*
X40259444Y44451969D01*
X40328769Y44460678D01*
X40341009Y44458054D01*
X40466234Y44424500D01*
X40466237Y44424500D01*
X40617764Y44424500D01*
X40617766Y44424500D01*
X40764135Y44463719D01*
X40895365Y44539485D01*
X41002515Y44646635D01*
X41078281Y44777865D01*
X41117500Y44924234D01*
X41117500Y45075766D01*
X41078281Y45222135D01*
X41002515Y45353365D01*
X40895365Y45460515D01*
X40804071Y45513224D01*
X40764136Y45536281D01*
X40690950Y45555891D01*
X40617766Y45575500D01*
X40466234Y45575500D01*
X40341029Y45541952D01*
X40271179Y45543615D01*
X40213317Y45582778D01*
X40205839Y45592829D01*
X40180601Y45630601D01*
X40156209Y45646899D01*
X40111405Y45700509D01*
X40102698Y45769834D01*
X40132852Y45832862D01*
X40156210Y45853102D01*
X40180601Y45869399D01*
X40206928Y45908801D01*
X40260539Y45953606D01*
X40329863Y45962315D01*
X40372030Y45947298D01*
X40372844Y45946828D01*
X40401660Y45930190D01*
X40401662Y45930190D01*
X40401663Y45930189D01*
X40497164Y45904600D01*
X40497165Y45904600D01*
X40716658Y45904600D01*
X40783697Y45884915D01*
X40804339Y45868281D01*
X40853035Y45819585D01*
X40984265Y45743819D01*
X41130634Y45704600D01*
X41130636Y45704600D01*
X41282164Y45704600D01*
X41282166Y45704600D01*
X41428535Y45743819D01*
X41559765Y45819585D01*
X41666915Y45926735D01*
X41742681Y46057965D01*
X41781900Y46204334D01*
X41781900Y46355866D01*
X41742681Y46502235D01*
X41666915Y46633465D01*
X41559765Y46740615D01*
X41456085Y46800475D01*
X41428536Y46816381D01*
X41355350Y46835991D01*
X41282166Y46855600D01*
X41130634Y46855600D01*
X40984263Y46816381D01*
X40853035Y46740615D01*
X40853031Y46740612D01*
X40822758Y46710339D01*
X40761434Y46676854D01*
X40691743Y46681840D01*
X40647397Y46710340D01*
X40557263Y46800474D01*
X40557262Y46800475D01*
X40471638Y46849910D01*
X40423886Y46862705D01*
X40423884Y46862706D01*
X40423882Y46862707D01*
X40376136Y46875500D01*
X40376135Y46875500D01*
X40371991Y46875500D01*
X40368622Y46876490D01*
X40368077Y46876561D01*
X40368088Y46876647D01*
X40304952Y46895185D01*
X40259197Y46947989D01*
X40250374Y46975309D01*
X40235967Y47047736D01*
X40235966Y47047740D01*
X40218086Y47074500D01*
X40180601Y47130601D01*
X40156209Y47146899D01*
X40111405Y47200509D01*
X40102698Y47269834D01*
X40132852Y47332862D01*
X40156210Y47353102D01*
X40180601Y47369399D01*
X40180605Y47369406D01*
X40182675Y47371474D01*
X40188315Y47374555D01*
X40190756Y47376185D01*
X40190901Y47375967D01*
X40243996Y47404962D01*
X40313688Y47399981D01*
X40332358Y47391186D01*
X40379065Y47364219D01*
X40525434Y47325000D01*
X40525436Y47325000D01*
X40676964Y47325000D01*
X40676966Y47325000D01*
X40823335Y47364219D01*
X40954565Y47439985D01*
X41061715Y47547135D01*
X41137481Y47678365D01*
X41176700Y47824734D01*
X41176700Y47976266D01*
X41137481Y48122635D01*
X41061715Y48253865D01*
X40954565Y48361015D01*
X40885046Y48401152D01*
X40859369Y48420856D01*
X40839716Y48440509D01*
X40839715Y48440510D01*
X40714185Y48512984D01*
X40714183Y48512985D01*
X40697959Y48517332D01*
X40697959Y48517333D01*
X40584475Y48547740D01*
X40574175Y48550500D01*
X40574174Y48550500D01*
X40300402Y48550500D01*
X40233363Y48570185D01*
X40197300Y48605609D01*
X40180601Y48630601D01*
X40097739Y48685967D01*
X40097735Y48685968D01*
X40024677Y48700500D01*
X40024674Y48700500D01*
X38475326Y48700500D01*
X38475323Y48700500D01*
X38402264Y48685968D01*
X38402260Y48685967D01*
X38319399Y48630601D01*
X38264033Y48547740D01*
X38264032Y48547736D01*
X38249500Y48474679D01*
X38249500Y47525322D01*
X38264032Y47452265D01*
X38264033Y47452261D01*
X38282405Y47424765D01*
X38319399Y47369399D01*
X38343790Y47353102D01*
X38388594Y47299489D01*
X38397301Y47230164D01*
X38367146Y47167137D01*
X38343791Y47146900D01*
X38320686Y47131461D01*
X38319399Y47130601D01*
X38264033Y47047740D01*
X38264032Y47047736D01*
X38249500Y46974679D01*
X38249500Y46963522D01*
X38229815Y46896483D01*
X38177011Y46850728D01*
X38157594Y46843747D01*
X38092856Y46826400D01*
X38092855Y46826401D01*
X38071746Y46820744D01*
X38071743Y46820743D01*
X37993258Y46775430D01*
X37993255Y46775428D01*
X37396906Y46179081D01*
X37335583Y46145596D01*
X37265891Y46150580D01*
X37234917Y46167493D01*
X37229987Y46171184D01*
X37229983Y46171186D01*
X37102010Y46218917D01*
X37045428Y46225000D01*
X36925000Y46225000D01*
X36925000Y44775001D01*
X37045433Y44775001D01*
X37045453Y44775003D01*
X37069645Y44777603D01*
X37138404Y44765198D01*
X37189542Y44717588D01*
X37206900Y44654314D01*
X37206900Y44049466D01*
X37187215Y43982427D01*
X37134411Y43936672D01*
X37082165Y43926565D01*
X37082165Y43925500D01*
X36570730Y43925500D01*
X36540300Y43922647D01*
X36540298Y43922647D01*
X36412119Y43877794D01*
X36412117Y43877793D01*
X36302850Y43797150D01*
X36222207Y43687883D01*
X36222206Y43687881D01*
X36177353Y43559702D01*
X36177353Y43559700D01*
X36174500Y43529270D01*
X36174500Y42870731D01*
X36177353Y42840301D01*
X36177353Y42840299D01*
X36222206Y42712120D01*
X36222207Y42712118D01*
X36261532Y42658834D01*
X36279383Y42634647D01*
X36303353Y42569018D01*
X36288037Y42500848D01*
X36267293Y42473333D01*
X35455780Y41661819D01*
X35394457Y41628334D01*
X35368099Y41625500D01*
X34954518Y41625500D01*
X34954509Y41625499D01*
X34897885Y41619413D01*
X34769773Y41571628D01*
X34660313Y41489687D01*
X34578373Y41380229D01*
X34530587Y41252111D01*
X34524500Y41195502D01*
X33800000Y41195502D01*
X33800000Y41647828D01*
X33799999Y41647845D01*
X33793598Y41707373D01*
X33793596Y41707380D01*
X33743354Y41842087D01*
X33743350Y41842094D01*
X33657190Y41957188D01*
X33657187Y41957191D01*
X33542093Y42043351D01*
X33542086Y42043355D01*
X33407379Y42093597D01*
X33407372Y42093599D01*
X33347844Y42100000D01*
X33125000Y42100000D01*
X33125000Y40650000D01*
X32825000Y40650000D01*
X32825000Y42100000D01*
X32602155Y42100000D01*
X32542627Y42093599D01*
X32542620Y42093597D01*
X32407913Y42043355D01*
X32407906Y42043351D01*
X32292812Y41957191D01*
X32292809Y41957188D01*
X32206649Y41842094D01*
X32206645Y41842087D01*
X32156403Y41707380D01*
X32156401Y41707373D01*
X32150000Y41647845D01*
X30850499Y41647845D01*
X30850499Y41647871D01*
X30850498Y41647877D01*
X30850497Y41647884D01*
X30844091Y41707483D01*
X30834939Y41732020D01*
X30793797Y41842329D01*
X30793793Y41842336D01*
X30702232Y41964645D01*
X30704625Y41966437D01*
X30678327Y42014627D01*
X30675500Y42040955D01*
X30675500Y42959045D01*
X30695185Y43026084D01*
X30702495Y43035156D01*
X30702231Y43035354D01*
X30707546Y43042454D01*
X30793796Y43157669D01*
X30844091Y43292517D01*
X30850500Y43352127D01*
X30850500Y43352156D01*
X32150000Y43352156D01*
X32156401Y43292628D01*
X32156403Y43292621D01*
X32206645Y43157914D01*
X32206649Y43157907D01*
X32292809Y43042813D01*
X32292812Y43042810D01*
X32407906Y42956650D01*
X32407913Y42956646D01*
X32542620Y42906404D01*
X32542627Y42906402D01*
X32602155Y42900001D01*
X32602172Y42900000D01*
X32825000Y42900000D01*
X33125000Y42900000D01*
X33347828Y42900000D01*
X33347844Y42900001D01*
X33407372Y42906402D01*
X33407379Y42906404D01*
X33542086Y42956646D01*
X33542093Y42956650D01*
X33657187Y43042810D01*
X33657190Y43042813D01*
X33743350Y43157907D01*
X33743354Y43157914D01*
X33793596Y43292621D01*
X33793598Y43292628D01*
X33799999Y43352156D01*
X33800000Y43352173D01*
X33800000Y44350000D01*
X33125000Y44350000D01*
X33125000Y42900000D01*
X32825000Y42900000D01*
X32825000Y44350000D01*
X32150000Y44350000D01*
X32150000Y43352156D01*
X30850500Y43352156D01*
X30850499Y44495615D01*
X30870184Y44562653D01*
X30886813Y44583290D01*
X31586998Y45283475D01*
X31642582Y45315566D01*
X31746535Y45343419D01*
X31877765Y45419185D01*
X31938319Y45479739D01*
X31999642Y45513224D01*
X32069334Y45508240D01*
X32125267Y45466368D01*
X32149684Y45400904D01*
X32150000Y45392058D01*
X32150000Y44650000D01*
X32825000Y44650000D01*
X33125000Y44650000D01*
X33800000Y44650000D01*
X33800000Y45647828D01*
X33799999Y45647845D01*
X33793598Y45707373D01*
X33793596Y45707380D01*
X33743354Y45842087D01*
X33743350Y45842094D01*
X33657190Y45957188D01*
X33657187Y45957191D01*
X33542093Y46043351D01*
X33542086Y46043355D01*
X33407379Y46093597D01*
X33407372Y46093599D01*
X33347844Y46100000D01*
X33125000Y46100000D01*
X33125000Y44650000D01*
X32825000Y44650000D01*
X32825000Y46100000D01*
X32822585Y46100000D01*
X32755546Y46119685D01*
X32709791Y46172489D01*
X32699847Y46241647D01*
X32728872Y46305203D01*
X32734884Y46311661D01*
X33624607Y47201383D01*
X33685928Y47234866D01*
X33755620Y47229882D01*
X33811553Y47188010D01*
X33828468Y47157033D01*
X33856202Y47082672D01*
X33856203Y47082671D01*
X33856204Y47082669D01*
X33942454Y46967454D01*
X33949808Y46961949D01*
X33991681Y46906017D01*
X33999500Y46862680D01*
X33999500Y46102525D01*
X34026911Y46000228D01*
X34037016Y45962515D01*
X34109489Y45836987D01*
X34109491Y45836984D01*
X34488181Y45458294D01*
X34521666Y45396971D01*
X34524500Y45370614D01*
X34524500Y45204520D01*
X34524501Y45204510D01*
X34530587Y45147886D01*
X34565915Y45053172D01*
X34578372Y45019774D01*
X34649767Y44924400D01*
X34674184Y44858937D01*
X34674500Y44850091D01*
X34674500Y43867289D01*
X34654815Y43800250D01*
X34650271Y43793656D01*
X34572207Y43687882D01*
X34572206Y43687881D01*
X34527353Y43559702D01*
X34527353Y43559700D01*
X34524500Y43529270D01*
X34524500Y42870731D01*
X34527353Y42840301D01*
X34527353Y42840299D01*
X34572206Y42712120D01*
X34572207Y42712118D01*
X34652850Y42602850D01*
X34762118Y42522207D01*
X34789959Y42512465D01*
X34890299Y42477354D01*
X34920730Y42474500D01*
X34920734Y42474500D01*
X35429270Y42474500D01*
X35459699Y42477354D01*
X35459701Y42477354D01*
X35550501Y42509127D01*
X35587882Y42522207D01*
X35697150Y42602850D01*
X35777793Y42712118D01*
X35800219Y42776210D01*
X35822646Y42840299D01*
X35822646Y42840301D01*
X35825500Y42870731D01*
X35825500Y43529270D01*
X35822646Y43559698D01*
X35822645Y43559700D01*
X35782458Y43674551D01*
X35775500Y43715505D01*
X35775500Y44850091D01*
X35795185Y44917130D01*
X35800222Y44924387D01*
X35871628Y45019774D01*
X35884085Y45053175D01*
X35925955Y45109106D01*
X35991419Y45133523D01*
X36059692Y45118672D01*
X36109098Y45069267D01*
X36116448Y45053173D01*
X36128814Y45020017D01*
X36128815Y45020016D01*
X36210670Y44910671D01*
X36320015Y44828816D01*
X36320016Y44828815D01*
X36447991Y44781083D01*
X36447994Y44781082D01*
X36504555Y44775001D01*
X36624999Y44775001D01*
X36625000Y44775002D01*
X36625000Y46225000D01*
X36504566Y46225000D01*
X36504559Y46224999D01*
X36447992Y46218919D01*
X36320018Y46171187D01*
X36320015Y46171185D01*
X36210670Y46089330D01*
X36128815Y45979985D01*
X36128811Y45979977D01*
X36116447Y45946828D01*
X36074576Y45890894D01*
X36009111Y45866478D01*
X35940838Y45881330D01*
X35891433Y45930736D01*
X35884089Y45946817D01*
X35871628Y45980226D01*
X35789687Y46089687D01*
X35685750Y46167493D01*
X35680228Y46171627D01*
X35680226Y46171628D01*
X35552114Y46219412D01*
X35552112Y46219413D01*
X35552110Y46219413D01*
X35495501Y46225500D01*
X35495485Y46225500D01*
X35329387Y46225500D01*
X35262348Y46245185D01*
X35241706Y46261819D01*
X35136819Y46366706D01*
X35103334Y46428029D01*
X35100500Y46454387D01*
X35100500Y46862680D01*
X35120185Y46929719D01*
X35150192Y46961949D01*
X35152293Y46963522D01*
X35157546Y46967454D01*
X35243796Y47082669D01*
X35294091Y47217517D01*
X35300500Y47277127D01*
X35300500Y47277156D01*
X35700000Y47277156D01*
X35706401Y47217628D01*
X35706403Y47217621D01*
X35756645Y47082914D01*
X35756649Y47082907D01*
X35842809Y46967813D01*
X35842812Y46967810D01*
X35957906Y46881650D01*
X35957913Y46881646D01*
X36092620Y46831404D01*
X36092627Y46831402D01*
X36152155Y46825001D01*
X36152172Y46825000D01*
X36300000Y46825000D01*
X36600000Y46825000D01*
X36747828Y46825000D01*
X36747844Y46825001D01*
X36807372Y46831402D01*
X36807379Y46831404D01*
X36942086Y46881646D01*
X36942093Y46881650D01*
X37057187Y46967810D01*
X37057190Y46967813D01*
X37143350Y47082907D01*
X37143354Y47082914D01*
X37193596Y47217621D01*
X37193598Y47217628D01*
X37199999Y47277156D01*
X37200000Y47277173D01*
X37200000Y47650000D01*
X36600000Y47650000D01*
X36600000Y46825000D01*
X36300000Y46825000D01*
X36300000Y47650000D01*
X35700000Y47650000D01*
X35700000Y47277156D01*
X35300500Y47277156D01*
X35300499Y47824734D01*
X35300499Y48322845D01*
X35700000Y48322845D01*
X35700000Y47950000D01*
X36300000Y47950000D01*
X36600000Y47950000D01*
X37200000Y47950000D01*
X37200000Y48322828D01*
X37199999Y48322845D01*
X37193598Y48382373D01*
X37193596Y48382380D01*
X37143354Y48517087D01*
X37143350Y48517094D01*
X37057190Y48632188D01*
X37057187Y48632191D01*
X36942093Y48718351D01*
X36942086Y48718355D01*
X36807379Y48768597D01*
X36807372Y48768599D01*
X36747844Y48775000D01*
X36600000Y48775000D01*
X36600000Y47950000D01*
X36300000Y47950000D01*
X36300000Y48775000D01*
X36152155Y48775000D01*
X36092627Y48768599D01*
X36092620Y48768597D01*
X35957913Y48718355D01*
X35957906Y48718351D01*
X35842812Y48632191D01*
X35842809Y48632188D01*
X35756649Y48517094D01*
X35756645Y48517087D01*
X35706403Y48382380D01*
X35706401Y48382373D01*
X35700000Y48322845D01*
X35300499Y48322845D01*
X35300499Y48322871D01*
X35300498Y48322877D01*
X35294091Y48382484D01*
X35243796Y48517331D01*
X35243793Y48517336D01*
X35157547Y48632545D01*
X35157544Y48632548D01*
X35042335Y48718794D01*
X35042328Y48718798D01*
X34907486Y48769090D01*
X34907485Y48769091D01*
X34907483Y48769091D01*
X34847873Y48775500D01*
X34847863Y48775500D01*
X34252129Y48775500D01*
X34252123Y48775499D01*
X34192516Y48769092D01*
X34057671Y48718798D01*
X34057664Y48718794D01*
X33942455Y48632548D01*
X33942452Y48632545D01*
X33856206Y48517336D01*
X33856203Y48517331D01*
X33824066Y48431166D01*
X33782194Y48375233D01*
X33716730Y48350816D01*
X33707884Y48350500D01*
X33372225Y48350500D01*
X33269136Y48322877D01*
X33232214Y48312984D01*
X33106686Y48240511D01*
X33106683Y48240509D01*
X31306745Y46440572D01*
X31251158Y46408479D01*
X31220530Y46400271D01*
X31220529Y46400272D01*
X31192219Y46392686D01*
X31192214Y46392684D01*
X31066687Y46320212D01*
X30781506Y46035032D01*
X30720183Y46001548D01*
X30650491Y46006532D01*
X30619514Y46023447D01*
X30592331Y46043796D01*
X30592328Y46043798D01*
X30457486Y46094090D01*
X30457485Y46094091D01*
X30457483Y46094091D01*
X30397873Y46100500D01*
X30397863Y46100500D01*
X29652129Y46100500D01*
X29652123Y46100499D01*
X29592516Y46094092D01*
X29457671Y46043798D01*
X29457664Y46043794D01*
X29342455Y45957548D01*
X29342452Y45957545D01*
X29256206Y45842336D01*
X29256202Y45842329D01*
X29205908Y45707483D01*
X29199501Y45647884D01*
X29199500Y45647865D01*
X29199500Y45274500D01*
X29179815Y45207461D01*
X29127011Y45161706D01*
X29075500Y45150500D01*
X28624500Y45150500D01*
X28557461Y45170185D01*
X28511706Y45222989D01*
X28500500Y45274500D01*
X28500500Y47074677D01*
X28500499Y47074679D01*
X28485967Y47147736D01*
X28485966Y47147740D01*
X28479757Y47157033D01*
X28430601Y47230601D01*
X28360969Y47277127D01*
X28347739Y47285967D01*
X28347735Y47285968D01*
X28274677Y47300500D01*
X28274674Y47300500D01*
X25875326Y47300500D01*
X25875323Y47300500D01*
X25802264Y47285968D01*
X25802260Y47285967D01*
X25719399Y47230601D01*
X25664033Y47147740D01*
X25664032Y47147736D01*
X25649500Y47074679D01*
X24350499Y47074679D01*
X24335967Y47147736D01*
X24335966Y47147740D01*
X24329757Y47157033D01*
X24280601Y47230601D01*
X24210969Y47277127D01*
X24197739Y47285967D01*
X24197735Y47285968D01*
X24124677Y47300500D01*
X24124674Y47300500D01*
X21725326Y47300500D01*
X21725323Y47300500D01*
X21652264Y47285968D01*
X21652260Y47285967D01*
X21569399Y47230601D01*
X21514033Y47147740D01*
X21514032Y47147736D01*
X21499500Y47074679D01*
X21499500Y41925322D01*
X21514032Y41852265D01*
X21514033Y41852261D01*
X21520831Y41842087D01*
X21569399Y41769399D01*
X21625342Y41732020D01*
X21652260Y41714034D01*
X21652264Y41714033D01*
X21725321Y41699501D01*
X21725324Y41699500D01*
X21725326Y41699500D01*
X22250500Y41699500D01*
X22317539Y41679815D01*
X22363294Y41627011D01*
X22374500Y41575500D01*
X22374500Y41234387D01*
X22354815Y41167348D01*
X22338181Y41146706D01*
X21633294Y40441819D01*
X21571971Y40408334D01*
X21545613Y40405500D01*
X20840514Y40405500D01*
X20773475Y40425185D01*
X20727720Y40477989D01*
X20718897Y40505309D01*
X20710496Y40547541D01*
X20710494Y40547545D01*
X20655239Y40630240D01*
X20572544Y40685495D01*
X20572540Y40685497D01*
X20499627Y40700000D01*
X19150000Y40700000D01*
X18850000Y40700000D01*
X17500373Y40700000D01*
X17427459Y40685497D01*
X17427455Y40685495D01*
X17344760Y40630240D01*
X17289505Y40547545D01*
X17289503Y40547541D01*
X17281003Y40504808D01*
X17248618Y40442897D01*
X17187902Y40408323D01*
X17159386Y40405000D01*
X16275000Y40405000D01*
X16275000Y39405000D01*
X17151000Y39405000D01*
X17218039Y39385315D01*
X17263794Y39332511D01*
X17275000Y39281000D01*
X17275000Y39259500D01*
X17255315Y39192461D01*
X17202511Y39146706D01*
X17151000Y39135500D01*
X14969107Y39135500D01*
X14910416Y39119775D01*
X14910417Y39119774D01*
X14854251Y39104725D01*
X14822161Y39100500D01*
X14310764Y39100500D01*
X14243725Y39120185D01*
X14197970Y39172989D01*
X14194582Y39181167D01*
X14143797Y39317329D01*
X14143793Y39317336D01*
X14057548Y39432543D01*
X14057546Y39432546D01*
X14054515Y39434815D01*
X14000188Y39475485D01*
X13997451Y39479141D01*
X13993297Y39481038D01*
X13976705Y39506856D01*
X13958318Y39531419D01*
X13957302Y39537047D01*
X13955523Y39539816D01*
X13950500Y39574751D01*
X13950500Y39630372D01*
X14775000Y39630372D01*
X14789503Y39557460D01*
X14789505Y39557456D01*
X14844760Y39474761D01*
X14927455Y39419506D01*
X14927459Y39419504D01*
X15000371Y39405001D01*
X15000374Y39405000D01*
X15975000Y39405000D01*
X15975000Y39755000D01*
X14775000Y39755000D01*
X14775000Y39630372D01*
X13950500Y39630372D01*
X13950500Y40179629D01*
X14775000Y40179629D01*
X14775000Y40055000D01*
X15975000Y40055000D01*
X15975000Y40405000D01*
X15000373Y40405000D01*
X14927459Y40390497D01*
X14927455Y40390495D01*
X14844760Y40335240D01*
X14789505Y40252545D01*
X14789503Y40252541D01*
X14775000Y40179629D01*
X13950500Y40179629D01*
X13950500Y42590890D01*
X13950500Y42590892D01*
X13916392Y42718186D01*
X13909476Y42730164D01*
X13886573Y42769834D01*
X13850500Y42832314D01*
X13836818Y42845996D01*
X13803333Y42907319D01*
X13800499Y42933677D01*
X13800499Y44147871D01*
X13800498Y44147877D01*
X13800497Y44147884D01*
X13794091Y44207483D01*
X13776437Y44254815D01*
X13743797Y44342329D01*
X13743793Y44342336D01*
X13657547Y44457545D01*
X13657544Y44457548D01*
X13542335Y44543794D01*
X13542328Y44543798D01*
X13407486Y44594090D01*
X13407485Y44594091D01*
X13407483Y44594091D01*
X13347873Y44600500D01*
X13347863Y44600500D01*
X12602129Y44600500D01*
X12602123Y44600499D01*
X12542516Y44594092D01*
X12407671Y44543798D01*
X12407664Y44543794D01*
X12292455Y44457548D01*
X12292452Y44457545D01*
X12206206Y44342336D01*
X12206202Y44342329D01*
X12155908Y44207483D01*
X12152566Y44176394D01*
X12149501Y44147877D01*
X12149500Y44147865D01*
X12149500Y41852130D01*
X12149501Y41852124D01*
X12155908Y41792517D01*
X12206202Y41657672D01*
X12206206Y41657665D01*
X12292452Y41542456D01*
X12292455Y41542453D01*
X12407664Y41456207D01*
X12407671Y41456203D01*
X12418243Y41452260D01*
X12542517Y41405909D01*
X12602127Y41399500D01*
X12825500Y41399501D01*
X12892539Y41379817D01*
X12938294Y41327013D01*
X12949500Y41275501D01*
X12949500Y39574751D01*
X12929815Y39507712D01*
X12899812Y39475485D01*
X12842457Y39432549D01*
X12842451Y39432543D01*
X12756206Y39317336D01*
X12756202Y39317329D01*
X12705908Y39182483D01*
X12699501Y39122884D01*
X12699500Y39122865D01*
X12699500Y38077130D01*
X12699501Y38077124D01*
X12705908Y38017517D01*
X12756202Y37882672D01*
X12756206Y37882665D01*
X12842452Y37767456D01*
X12842455Y37767453D01*
X12957664Y37681207D01*
X12957671Y37681203D01*
X12984531Y37671185D01*
X13092517Y37630909D01*
X13152127Y37624500D01*
X13747872Y37624501D01*
X13807483Y37630909D01*
X13936671Y37679094D01*
X14006361Y37684077D01*
X14067684Y37650592D01*
X14101169Y37589269D01*
X14099778Y37530818D01*
X14073000Y37430879D01*
X14073000Y37224987D01*
X14053315Y37157948D01*
X14036681Y37137306D01*
X13549591Y36650217D01*
X13549589Y36650215D01*
X13531379Y36618672D01*
X13509610Y36580966D01*
X13483072Y36535000D01*
X13477115Y36524683D01*
X13477114Y36524681D01*
X13474534Y36515052D01*
X13442441Y36459467D01*
X9419794Y32436819D01*
X9358471Y32403334D01*
X9332113Y32400500D01*
X9024499Y32400500D01*
X8957460Y32420185D01*
X8911705Y32472989D01*
X8900499Y32524500D01*
X8900499Y32897871D01*
X8900498Y32897877D01*
X8900497Y32897884D01*
X8894091Y32957483D01*
X8882753Y32987881D01*
X8843797Y33092329D01*
X8843793Y33092336D01*
X8757547Y33207545D01*
X8757544Y33207548D01*
X8642335Y33293794D01*
X8642328Y33293798D01*
X8507482Y33344092D01*
X8507483Y33344092D01*
X8447883Y33350499D01*
X8447881Y33350500D01*
X8447873Y33350500D01*
X8447864Y33350500D01*
X6552129Y33350500D01*
X6552123Y33350499D01*
X6492516Y33344092D01*
X6357671Y33293798D01*
X6357664Y33293794D01*
X6242455Y33207548D01*
X6242452Y33207545D01*
X6156206Y33092336D01*
X6156202Y33092329D01*
X6105908Y32957483D01*
X6099501Y32897884D01*
X6099501Y32897877D01*
X6099500Y32897865D01*
X300500Y32897865D01*
X300500Y35102156D01*
X6100000Y35102156D01*
X6106401Y35042628D01*
X6106403Y35042621D01*
X6156645Y34907914D01*
X6156649Y34907907D01*
X6242809Y34792813D01*
X6242812Y34792810D01*
X6357906Y34706650D01*
X6357913Y34706646D01*
X6492620Y34656404D01*
X6492627Y34656402D01*
X6552155Y34650001D01*
X6552172Y34650000D01*
X7350000Y34650000D01*
X7650000Y34650000D01*
X8447828Y34650000D01*
X8447844Y34650001D01*
X8507372Y34656402D01*
X8507379Y34656404D01*
X8642086Y34706646D01*
X8642093Y34706650D01*
X8757187Y34792810D01*
X8757190Y34792813D01*
X8843350Y34907907D01*
X8843354Y34907914D01*
X8893596Y35042621D01*
X8893598Y35042628D01*
X8899999Y35102156D01*
X8900000Y35102173D01*
X8900000Y36000000D01*
X7650000Y36000000D01*
X7650000Y34650000D01*
X7350000Y34650000D01*
X7350000Y36000000D01*
X6100000Y36000000D01*
X6100000Y35102156D01*
X300500Y35102156D01*
X300500Y37197845D01*
X6100000Y37197845D01*
X6100000Y36300000D01*
X7350000Y36300000D01*
X7650000Y36300000D01*
X8900000Y36300000D01*
X8900000Y37197828D01*
X8899999Y37197845D01*
X8893598Y37257373D01*
X8893596Y37257380D01*
X8843354Y37392087D01*
X8843350Y37392094D01*
X8757190Y37507188D01*
X8757187Y37507191D01*
X8642093Y37593351D01*
X8642086Y37593355D01*
X8507379Y37643597D01*
X8507372Y37643599D01*
X8447844Y37650000D01*
X7650000Y37650000D01*
X7650000Y36300000D01*
X7350000Y36300000D01*
X7350000Y37650000D01*
X6552155Y37650000D01*
X6492627Y37643599D01*
X6492620Y37643597D01*
X6357913Y37593355D01*
X6357906Y37593351D01*
X6242812Y37507191D01*
X6242809Y37507188D01*
X6156649Y37392094D01*
X6156645Y37392087D01*
X6106403Y37257380D01*
X6106401Y37257373D01*
X6100000Y37197845D01*
X300500Y37197845D01*
X300500Y38077156D01*
X10800000Y38077156D01*
X10806401Y38017628D01*
X10806403Y38017621D01*
X10856645Y37882914D01*
X10856649Y37882907D01*
X10942809Y37767813D01*
X10942812Y37767810D01*
X11057906Y37681650D01*
X11057913Y37681646D01*
X11192620Y37631404D01*
X11192627Y37631402D01*
X11252155Y37625001D01*
X11252172Y37625000D01*
X11400000Y37625000D01*
X11700000Y37625000D01*
X11847828Y37625000D01*
X11847844Y37625001D01*
X11907372Y37631402D01*
X11907379Y37631404D01*
X12042086Y37681646D01*
X12042093Y37681650D01*
X12157187Y37767810D01*
X12157190Y37767813D01*
X12243350Y37882907D01*
X12243354Y37882914D01*
X12293596Y38017621D01*
X12293598Y38017628D01*
X12299999Y38077156D01*
X12300000Y38077173D01*
X12300000Y38450000D01*
X11700000Y38450000D01*
X11700000Y37625000D01*
X11400000Y37625000D01*
X11400000Y38450000D01*
X10800000Y38450000D01*
X10800000Y38077156D01*
X300500Y38077156D01*
X300500Y39122845D01*
X10800000Y39122845D01*
X10800000Y38750000D01*
X11400000Y38750000D01*
X11700000Y38750000D01*
X12300000Y38750000D01*
X12300000Y39122828D01*
X12299999Y39122845D01*
X12293598Y39182373D01*
X12293596Y39182380D01*
X12243354Y39317087D01*
X12243350Y39317094D01*
X12157190Y39432188D01*
X12157187Y39432191D01*
X12042093Y39518351D01*
X12042086Y39518355D01*
X11907379Y39568597D01*
X11907372Y39568599D01*
X11847844Y39575000D01*
X11700000Y39575000D01*
X11700000Y38750000D01*
X11400000Y38750000D01*
X11400000Y39575000D01*
X11252155Y39575000D01*
X11192627Y39568599D01*
X11192620Y39568597D01*
X11057913Y39518355D01*
X11057906Y39518351D01*
X10942812Y39432191D01*
X10942809Y39432188D01*
X10856649Y39317094D01*
X10856645Y39317087D01*
X10806403Y39182380D01*
X10806401Y39182373D01*
X10800000Y39122845D01*
X300500Y39122845D01*
X300500Y41852156D01*
X9200000Y41852156D01*
X9206401Y41792628D01*
X9206403Y41792621D01*
X9256645Y41657914D01*
X9256649Y41657907D01*
X9342809Y41542813D01*
X9342812Y41542810D01*
X9457906Y41456650D01*
X9457913Y41456646D01*
X9592620Y41406404D01*
X9592627Y41406402D01*
X9652155Y41400001D01*
X9652172Y41400000D01*
X9875000Y41400000D01*
X10175000Y41400000D01*
X10397828Y41400000D01*
X10397844Y41400001D01*
X10457372Y41406402D01*
X10457379Y41406404D01*
X10592086Y41456646D01*
X10592093Y41456650D01*
X10707187Y41542810D01*
X10707190Y41542813D01*
X10793350Y41657907D01*
X10793354Y41657914D01*
X10843596Y41792621D01*
X10843598Y41792628D01*
X10849999Y41852156D01*
X10850000Y41852173D01*
X10850000Y42850000D01*
X10175000Y42850000D01*
X10175000Y41400000D01*
X9875000Y41400000D01*
X9875000Y42850000D01*
X9200000Y42850000D01*
X9200000Y41852156D01*
X300500Y41852156D01*
X300500Y44147845D01*
X9200000Y44147845D01*
X9200000Y43150000D01*
X9875000Y43150000D01*
X10175000Y43150000D01*
X10850000Y43150000D01*
X10850000Y44147828D01*
X10849999Y44147845D01*
X10843598Y44207373D01*
X10843596Y44207380D01*
X10793354Y44342087D01*
X10793350Y44342094D01*
X10707190Y44457188D01*
X10707187Y44457191D01*
X10592093Y44543351D01*
X10592086Y44543355D01*
X10457379Y44593597D01*
X10457372Y44593599D01*
X10397844Y44600000D01*
X10175000Y44600000D01*
X10175000Y43150000D01*
X9875000Y43150000D01*
X9875000Y44600000D01*
X9652155Y44600000D01*
X9592627Y44593599D01*
X9592620Y44593597D01*
X9457913Y44543355D01*
X9457906Y44543351D01*
X9342812Y44457191D01*
X9342809Y44457188D01*
X9256649Y44342094D01*
X9256645Y44342087D01*
X9206403Y44207380D01*
X9206401Y44207373D01*
X9200000Y44147845D01*
X300500Y44147845D01*
X300500Y46118098D01*
X2499500Y46118098D01*
X2499500Y45881903D01*
X2536446Y45648632D01*
X2609433Y45424004D01*
X2685610Y45274500D01*
X2716657Y45213567D01*
X2855483Y45022490D01*
X3022490Y44855483D01*
X3213567Y44716657D01*
X3266387Y44689744D01*
X3424003Y44609434D01*
X3424005Y44609434D01*
X3424008Y44609432D01*
X3544412Y44570311D01*
X3648631Y44536447D01*
X3881903Y44499500D01*
X3881908Y44499500D01*
X4118097Y44499500D01*
X4351368Y44536447D01*
X4372616Y44543351D01*
X4575992Y44609432D01*
X4786433Y44716657D01*
X4977510Y44855483D01*
X5144517Y45022490D01*
X5283343Y45213567D01*
X5390568Y45424008D01*
X5463553Y45648632D01*
X5471768Y45700500D01*
X5500500Y45881903D01*
X5500500Y46118098D01*
X5463553Y46351369D01*
X5414533Y46502235D01*
X5390568Y46575992D01*
X5390566Y46575995D01*
X5390566Y46575997D01*
X5322114Y46710340D01*
X5283343Y46786433D01*
X5144517Y46977510D01*
X4977510Y47144517D01*
X4786433Y47283343D01*
X4754723Y47299500D01*
X4575996Y47390567D01*
X4351368Y47463554D01*
X4118097Y47500500D01*
X4118092Y47500500D01*
X3881908Y47500500D01*
X3881903Y47500500D01*
X3648631Y47463554D01*
X3424003Y47390567D01*
X3213566Y47283343D01*
X3104550Y47204138D01*
X3022490Y47144517D01*
X3022488Y47144515D01*
X3022487Y47144515D01*
X2855485Y46977513D01*
X2855485Y46977512D01*
X2855483Y46977510D01*
X2803540Y46906017D01*
X2716657Y46786434D01*
X2609433Y46575997D01*
X2536446Y46351369D01*
X2499500Y46118098D01*
X300500Y46118098D01*
X300500Y49575500D01*
X320185Y49642539D01*
X372989Y49688294D01*
X424500Y49699500D01*
X33876000Y49699500D01*
X33943039Y49679815D01*
G37*
%TD.AperFunction*%
%TD*%
M02*
